G75*
%MOIN*%
%OFA0B0*%
%FSLAX25Y25*%
%IPPOS*%
%LPD*%
%AMOC8*
5,1,8,0,0,1.08239X$1,22.5*
%
%ADD10C,0.00800*%
%ADD11C,0.01181*%
%ADD12C,0.03937*%
%ADD13R,0.03937X0.07087*%
%ADD14R,0.03543X0.03346*%
%ADD15R,0.02362X0.01575*%
%ADD16R,0.02362X0.02362*%
%ADD17R,0.01575X0.02362*%
%ADD18R,0.03937X0.04331*%
%ADD19R,0.03937X0.03543*%
%ADD20R,0.07874X0.04724*%
%ADD21R,0.05315X0.02362*%
%ADD22R,0.03937X0.18110*%
%ADD23R,0.06299X0.13386*%
%ADD24C,0.07400*%
%ADD25R,0.05000X0.02500*%
%ADD26R,0.01000X0.01600*%
%ADD27R,0.05906X0.02756*%
%ADD28R,0.02362X0.03937*%
%ADD29R,0.03150X0.03937*%
%ADD30R,0.02200X0.01600*%
%ADD31R,0.01181X0.03937*%
%ADD32C,0.03937*%
%ADD33C,0.00600*%
%ADD34C,0.02400*%
%ADD35C,0.01200*%
D10*
X0236464Y0189400D02*
X0238599Y0191535D01*
X0240147Y0192069D02*
X0240681Y0192603D01*
X0241748Y0192603D01*
X0242282Y0192069D01*
X0240147Y0189934D01*
X0240681Y0189400D01*
X0241748Y0189400D01*
X0242282Y0189934D01*
X0242282Y0192069D01*
X0243830Y0191535D02*
X0244898Y0192603D01*
X0244898Y0189400D01*
X0245965Y0189400D02*
X0243830Y0189400D01*
X0240147Y0189934D02*
X0240147Y0192069D01*
X0238599Y0189400D02*
X0236464Y0191535D01*
D11*
X0235210Y0124831D02*
X0237966Y0124831D01*
X0237966Y0122075D01*
X0235210Y0122075D01*
X0235210Y0124831D01*
X0235210Y0123197D02*
X0237966Y0123197D01*
X0237966Y0124319D02*
X0235210Y0124319D01*
X0227966Y0124831D02*
X0225210Y0124831D01*
X0227966Y0124831D02*
X0227966Y0122075D01*
X0225210Y0122075D01*
X0225210Y0124831D01*
X0225210Y0123197D02*
X0227966Y0123197D01*
X0227966Y0124319D02*
X0225210Y0124319D01*
X0217966Y0122075D02*
X0215210Y0122075D01*
X0215210Y0124831D01*
X0217966Y0124831D01*
X0217966Y0122075D01*
X0217966Y0123197D02*
X0215210Y0123197D01*
X0215210Y0124319D02*
X0217966Y0124319D01*
X0207966Y0122075D02*
X0205210Y0122075D01*
X0205210Y0124831D01*
X0207966Y0124831D01*
X0207966Y0122075D01*
X0207966Y0123197D02*
X0205210Y0123197D01*
X0205210Y0124319D02*
X0207966Y0124319D01*
X0197966Y0122075D02*
X0195210Y0122075D01*
X0195210Y0124831D01*
X0197966Y0124831D01*
X0197966Y0122075D01*
X0197966Y0123197D02*
X0195210Y0123197D01*
X0195210Y0124319D02*
X0197966Y0124319D01*
X0197966Y0115169D02*
X0195210Y0115169D01*
X0195210Y0117925D01*
X0197966Y0117925D01*
X0197966Y0115169D01*
X0197966Y0116291D02*
X0195210Y0116291D01*
X0195210Y0117413D02*
X0197966Y0117413D01*
X0205210Y0115169D02*
X0207966Y0115169D01*
X0205210Y0115169D02*
X0205210Y0117925D01*
X0207966Y0117925D01*
X0207966Y0115169D01*
X0207966Y0116291D02*
X0205210Y0116291D01*
X0205210Y0117413D02*
X0207966Y0117413D01*
X0215210Y0115169D02*
X0217966Y0115169D01*
X0215210Y0115169D02*
X0215210Y0117925D01*
X0217966Y0117925D01*
X0217966Y0115169D01*
X0217966Y0116291D02*
X0215210Y0116291D01*
X0215210Y0117413D02*
X0217966Y0117413D01*
X0225210Y0117925D02*
X0227966Y0117925D01*
X0227966Y0115169D01*
X0225210Y0115169D01*
X0225210Y0117925D01*
X0225210Y0116291D02*
X0227966Y0116291D01*
X0227966Y0117413D02*
X0225210Y0117413D01*
X0235210Y0117925D02*
X0237966Y0117925D01*
X0237966Y0115169D01*
X0235210Y0115169D01*
X0235210Y0117925D01*
X0235210Y0116291D02*
X0237966Y0116291D01*
X0237966Y0117413D02*
X0235210Y0117413D01*
D12*
X0266588Y0095000D03*
X0179088Y0152500D03*
X0174088Y0152500D03*
X0174088Y0157500D03*
X0179088Y0157500D03*
X0179088Y0162500D03*
X0174088Y0162500D03*
X0174088Y0167500D03*
X0179088Y0167500D03*
X0179088Y0172500D03*
X0174088Y0172500D03*
X0171588Y0190000D03*
D13*
X0211667Y0135000D03*
X0221510Y0135000D03*
D14*
X0226588Y0132717D03*
X0226588Y0137283D03*
X0206088Y0137283D03*
X0206088Y0132717D03*
D15*
X0193872Y0153346D03*
X0197021Y0155315D03*
X0193872Y0157283D03*
X0197021Y0159252D03*
X0193872Y0161220D03*
X0197021Y0163189D03*
X0193872Y0165157D03*
X0197021Y0167126D03*
X0193872Y0169094D03*
X0197021Y0171063D03*
X0193872Y0173031D03*
X0197021Y0175000D03*
X0193872Y0176969D03*
X0197021Y0178937D03*
X0193872Y0180906D03*
X0197021Y0182874D03*
X0193872Y0184843D03*
X0197021Y0186811D03*
X0193872Y0188780D03*
X0197021Y0190748D03*
X0193872Y0192717D03*
X0226155Y0190748D03*
X0229305Y0188780D03*
X0226155Y0186811D03*
X0229305Y0184843D03*
X0226155Y0182874D03*
X0229305Y0180906D03*
X0226155Y0178937D03*
X0229305Y0176969D03*
X0226155Y0175000D03*
X0229305Y0173031D03*
X0226155Y0171063D03*
X0229305Y0169094D03*
X0226155Y0167126D03*
X0229305Y0165157D03*
X0226155Y0163189D03*
X0229305Y0161220D03*
X0226155Y0159252D03*
X0229305Y0157283D03*
X0226155Y0155315D03*
X0229305Y0153346D03*
X0229305Y0192717D03*
D16*
X0186588Y0151969D03*
X0186588Y0148031D03*
X0193872Y0149409D03*
X0224620Y0143500D03*
X0228557Y0143500D03*
X0232620Y0143500D03*
X0236557Y0143500D03*
X0229305Y0149409D03*
X0213557Y0105000D03*
X0209620Y0105000D03*
X0245620Y0105000D03*
X0249557Y0105000D03*
D17*
X0225368Y0149409D03*
X0223399Y0152559D03*
X0221431Y0149409D03*
X0219462Y0152559D03*
X0217494Y0149409D03*
X0215525Y0152559D03*
X0213557Y0149409D03*
X0211588Y0152559D03*
X0209620Y0149409D03*
X0207651Y0152559D03*
X0205683Y0149409D03*
X0203714Y0152559D03*
X0201746Y0149409D03*
X0199777Y0152559D03*
X0197809Y0149409D03*
D18*
X0232588Y0138346D03*
X0232588Y0131654D03*
X0181588Y0181654D03*
X0181588Y0188346D03*
D19*
X0243439Y0163071D03*
X0249738Y0163071D03*
X0249738Y0146929D03*
X0243439Y0146929D03*
D20*
X0266057Y0131024D03*
X0266057Y0108976D03*
D21*
X0251588Y0114094D03*
X0251588Y0118031D03*
X0251588Y0121969D03*
X0251588Y0125906D03*
D22*
X0195525Y0104567D03*
X0187651Y0104567D03*
D23*
X0178203Y0084094D03*
X0204974Y0084094D03*
D24*
X0196588Y0080000D03*
X0186588Y0080000D03*
X0156588Y0100000D03*
X0156588Y0110000D03*
X0156588Y0120000D03*
X0156588Y0130000D03*
X0156588Y0140000D03*
X0156588Y0150000D03*
X0156588Y0160000D03*
X0156588Y0170000D03*
D25*
X0176088Y0117000D03*
X0176088Y0113000D03*
X0156588Y0107000D03*
X0156588Y0103000D03*
D26*
X0176088Y0115000D03*
D27*
X0259199Y0146142D03*
X0259199Y0157953D03*
X0259199Y0163858D03*
D28*
X0270025Y0169370D03*
X0270025Y0140630D03*
X0244285Y0098661D03*
X0241234Y0098661D03*
X0221943Y0098661D03*
X0218892Y0098661D03*
D29*
X0261758Y0140630D03*
X0261758Y0169370D03*
D30*
X0156588Y0105000D03*
D31*
X0224699Y0098661D03*
X0226667Y0098661D03*
X0228636Y0098661D03*
X0230604Y0098661D03*
X0232573Y0098661D03*
X0234541Y0098661D03*
X0236510Y0098661D03*
X0238478Y0098661D03*
D32*
X0248596Y0098564D02*
X0248596Y0098564D01*
X0248596Y0094232D01*
X0248596Y0094232D01*
X0248596Y0098564D01*
X0248596Y0097972D02*
X0248596Y0097972D01*
X0214581Y0098564D02*
X0214581Y0098564D01*
X0214581Y0094232D01*
X0214581Y0094232D01*
X0214581Y0098564D01*
X0214581Y0097972D02*
X0214581Y0097972D01*
X0214581Y0081122D02*
X0214581Y0081122D01*
X0214581Y0078760D01*
X0214581Y0078760D01*
X0214581Y0081122D01*
X0248596Y0081122D02*
X0248596Y0081122D01*
X0248596Y0078760D01*
X0248596Y0078760D01*
X0248596Y0081122D01*
D33*
X0163299Y0076400D02*
X0160317Y0076400D01*
X0161588Y0076300D01*
X0183783Y0076300D01*
X0182689Y0077394D01*
X0182252Y0077394D01*
X0182252Y0077029D02*
X0182252Y0078448D01*
X0182689Y0077394D01*
X0182252Y0077029D02*
X0181725Y0076502D01*
X0174680Y0076502D01*
X0174153Y0077029D01*
X0174153Y0091160D01*
X0174680Y0091687D01*
X0181725Y0091687D01*
X0182252Y0091160D01*
X0182252Y0081552D01*
X0182689Y0082606D01*
X0183983Y0083900D01*
X0185673Y0084600D01*
X0187503Y0084600D01*
X0189194Y0083900D01*
X0190488Y0082606D01*
X0191188Y0080915D01*
X0191188Y0079085D01*
X0190488Y0077394D01*
X0192305Y0077394D01*
X0192312Y0077379D02*
X0192775Y0076743D01*
X0193217Y0076300D01*
X0189394Y0076300D01*
X0190488Y0077394D01*
X0190736Y0077993D02*
X0192000Y0077993D01*
X0191955Y0078081D02*
X0192312Y0077379D01*
X0192736Y0076796D02*
X0189889Y0076796D01*
X0190984Y0078591D02*
X0191789Y0078591D01*
X0191712Y0078829D02*
X0191955Y0078081D01*
X0191712Y0078829D02*
X0191588Y0079606D01*
X0191588Y0079700D01*
X0196288Y0079700D01*
X0196288Y0080300D01*
X0191588Y0080300D01*
X0191588Y0080394D01*
X0191712Y0081171D01*
X0191955Y0081919D01*
X0192312Y0082621D01*
X0192775Y0083257D01*
X0193331Y0083814D01*
X0193968Y0084276D01*
X0194669Y0084634D01*
X0195418Y0084877D01*
X0196195Y0085000D01*
X0196288Y0085000D01*
X0196288Y0080300D01*
X0196888Y0080300D01*
X0196888Y0085000D01*
X0196982Y0085000D01*
X0197759Y0084877D01*
X0198508Y0084634D01*
X0199209Y0084276D01*
X0199846Y0083814D01*
X0200402Y0083257D01*
X0200865Y0082621D01*
X0200925Y0082503D01*
X0200925Y0091160D01*
X0201064Y0091300D01*
X0183121Y0091300D01*
X0179091Y0095330D01*
X0178388Y0096033D01*
X0178388Y0110450D01*
X0176388Y0110450D01*
X0176388Y0112700D01*
X0175788Y0112700D01*
X0172288Y0112700D01*
X0172288Y0111579D01*
X0172377Y0111248D01*
X0172548Y0110952D01*
X0172790Y0110710D01*
X0173087Y0110539D01*
X0173417Y0110450D01*
X0175788Y0110450D01*
X0175788Y0112700D01*
X0175788Y0113300D01*
X0172288Y0113300D01*
X0172288Y0114421D01*
X0172377Y0114752D01*
X0172548Y0115048D01*
X0172783Y0115283D01*
X0172688Y0115377D01*
X0172688Y0118623D01*
X0173216Y0119150D01*
X0174888Y0119150D01*
X0174888Y0121527D01*
X0175591Y0122230D01*
X0175591Y0122230D01*
X0175988Y0122627D01*
X0175988Y0132097D01*
X0176691Y0132800D01*
X0182191Y0138300D01*
X0196985Y0138300D01*
X0197688Y0137597D01*
X0203017Y0132269D01*
X0203017Y0132417D01*
X0205788Y0132417D01*
X0205788Y0133016D01*
X0203017Y0133016D01*
X0203017Y0134561D01*
X0203105Y0134892D01*
X0203277Y0135188D01*
X0203417Y0135328D01*
X0203417Y0138900D01*
X0177185Y0138900D01*
X0160606Y0122321D01*
X0161188Y0120915D01*
X0161188Y0119085D01*
X0160488Y0117394D01*
X0159194Y0116100D01*
X0157503Y0115400D01*
X0155673Y0115400D01*
X0153983Y0116100D01*
X0152888Y0117195D01*
X0152888Y0112805D01*
X0153983Y0113900D01*
X0155673Y0114600D01*
X0157503Y0114600D01*
X0159194Y0113900D01*
X0160488Y0112606D01*
X0161188Y0110915D01*
X0161188Y0109085D01*
X0160488Y0107394D01*
X0159988Y0106895D01*
X0159988Y0105377D01*
X0159611Y0105000D01*
X0159988Y0104623D01*
X0159988Y0103105D01*
X0160488Y0102606D01*
X0161188Y0100915D01*
X0161188Y0099085D01*
X0160488Y0097394D01*
X0159194Y0096100D01*
X0157503Y0095400D01*
X0155673Y0095400D01*
X0153983Y0096100D01*
X0152888Y0097195D01*
X0152888Y0085000D01*
X0152988Y0083729D01*
X0152988Y0086711D01*
X0154298Y0089871D01*
X0154298Y0089872D01*
X0156717Y0092291D01*
X0156717Y0092291D01*
X0159878Y0093600D01*
X0163299Y0093600D01*
X0166460Y0092291D01*
X0166460Y0092291D01*
X0168879Y0089872D01*
X0168879Y0089871D01*
X0170188Y0086711D01*
X0170188Y0083289D01*
X0168879Y0080128D01*
X0168879Y0080128D01*
X0166460Y0077709D01*
X0166460Y0077709D01*
X0163299Y0076400D01*
X0164254Y0076796D02*
X0174386Y0076796D01*
X0174153Y0077394D02*
X0165699Y0077394D01*
X0166743Y0077993D02*
X0174153Y0077993D01*
X0174153Y0078591D02*
X0167342Y0078591D01*
X0167940Y0079190D02*
X0174153Y0079190D01*
X0174153Y0079788D02*
X0168539Y0079788D01*
X0168986Y0080387D02*
X0174153Y0080387D01*
X0174153Y0080985D02*
X0169234Y0080985D01*
X0169482Y0081584D02*
X0174153Y0081584D01*
X0174153Y0082182D02*
X0169730Y0082182D01*
X0169978Y0082781D02*
X0174153Y0082781D01*
X0174153Y0083379D02*
X0170188Y0083379D01*
X0170188Y0083978D02*
X0174153Y0083978D01*
X0174153Y0084576D02*
X0170188Y0084576D01*
X0170188Y0085175D02*
X0174153Y0085175D01*
X0174153Y0085773D02*
X0170188Y0085773D01*
X0170188Y0086372D02*
X0174153Y0086372D01*
X0174153Y0086970D02*
X0170081Y0086970D01*
X0169833Y0087569D02*
X0174153Y0087569D01*
X0174153Y0088167D02*
X0169585Y0088167D01*
X0169337Y0088766D02*
X0174153Y0088766D01*
X0174153Y0089364D02*
X0169089Y0089364D01*
X0168788Y0089963D02*
X0174153Y0089963D01*
X0174153Y0090561D02*
X0168189Y0090561D01*
X0167591Y0091160D02*
X0174153Y0091160D01*
X0179072Y0095349D02*
X0152888Y0095349D01*
X0152888Y0094751D02*
X0179671Y0094751D01*
X0180269Y0094152D02*
X0152888Y0094152D01*
X0152888Y0093554D02*
X0159766Y0093554D01*
X0158321Y0092955D02*
X0152888Y0092955D01*
X0152888Y0092357D02*
X0156877Y0092357D01*
X0156184Y0091758D02*
X0152888Y0091758D01*
X0152888Y0091160D02*
X0155586Y0091160D01*
X0154987Y0090561D02*
X0152888Y0090561D01*
X0152888Y0089963D02*
X0154389Y0089963D01*
X0154088Y0089364D02*
X0152888Y0089364D01*
X0152888Y0088766D02*
X0153840Y0088766D01*
X0153592Y0088167D02*
X0152888Y0088167D01*
X0152888Y0087569D02*
X0153344Y0087569D01*
X0153096Y0086970D02*
X0152888Y0086970D01*
X0152888Y0086372D02*
X0152988Y0086372D01*
X0152988Y0085773D02*
X0152888Y0085773D01*
X0152888Y0085175D02*
X0152988Y0085175D01*
X0152988Y0084576D02*
X0152922Y0084576D01*
X0152969Y0083978D02*
X0152988Y0083978D01*
X0163410Y0093554D02*
X0180868Y0093554D01*
X0181466Y0092955D02*
X0164855Y0092955D01*
X0166300Y0092357D02*
X0182065Y0092357D01*
X0182663Y0091758D02*
X0166992Y0091758D01*
X0160239Y0097145D02*
X0178388Y0097145D01*
X0178388Y0097743D02*
X0160633Y0097743D01*
X0160881Y0098342D02*
X0178388Y0098342D01*
X0178388Y0098940D02*
X0161129Y0098940D01*
X0161188Y0099539D02*
X0178388Y0099539D01*
X0178388Y0100137D02*
X0161188Y0100137D01*
X0161188Y0100736D02*
X0178388Y0100736D01*
X0178388Y0101334D02*
X0161015Y0101334D01*
X0160767Y0101933D02*
X0178388Y0101933D01*
X0178388Y0102532D02*
X0160519Y0102532D01*
X0159988Y0103130D02*
X0178388Y0103130D01*
X0178388Y0103729D02*
X0159988Y0103729D01*
X0159988Y0104327D02*
X0178388Y0104327D01*
X0178388Y0104926D02*
X0159686Y0104926D01*
X0159988Y0105524D02*
X0178388Y0105524D01*
X0178388Y0106123D02*
X0159988Y0106123D01*
X0159988Y0106721D02*
X0178388Y0106721D01*
X0178388Y0107320D02*
X0160413Y0107320D01*
X0160705Y0107918D02*
X0178388Y0107918D01*
X0178388Y0108517D02*
X0160953Y0108517D01*
X0161188Y0109115D02*
X0178388Y0109115D01*
X0178388Y0109714D02*
X0161188Y0109714D01*
X0161188Y0110312D02*
X0178388Y0110312D01*
X0176388Y0110911D02*
X0175788Y0110911D01*
X0175788Y0111509D02*
X0176388Y0111509D01*
X0176388Y0112108D02*
X0175788Y0112108D01*
X0175788Y0112706D02*
X0160388Y0112706D01*
X0160694Y0112108D02*
X0172288Y0112108D01*
X0172307Y0111509D02*
X0160942Y0111509D01*
X0161188Y0110911D02*
X0172589Y0110911D01*
X0172288Y0113305D02*
X0159789Y0113305D01*
X0159186Y0113903D02*
X0172288Y0113903D01*
X0172310Y0114502D02*
X0157741Y0114502D01*
X0158225Y0115699D02*
X0172688Y0115699D01*
X0172688Y0116297D02*
X0159391Y0116297D01*
X0159990Y0116896D02*
X0172688Y0116896D01*
X0172688Y0117494D02*
X0160530Y0117494D01*
X0160777Y0118093D02*
X0172688Y0118093D01*
X0172757Y0118691D02*
X0161025Y0118691D01*
X0161188Y0119290D02*
X0174888Y0119290D01*
X0174888Y0119888D02*
X0161188Y0119888D01*
X0161188Y0120487D02*
X0174888Y0120487D01*
X0174888Y0121085D02*
X0161118Y0121085D01*
X0160870Y0121684D02*
X0175045Y0121684D01*
X0175644Y0122282D02*
X0160622Y0122282D01*
X0161166Y0122881D02*
X0175988Y0122881D01*
X0175988Y0123479D02*
X0161765Y0123479D01*
X0162363Y0124078D02*
X0175988Y0124078D01*
X0175988Y0124676D02*
X0162962Y0124676D01*
X0163560Y0125275D02*
X0175988Y0125275D01*
X0175988Y0125873D02*
X0164159Y0125873D01*
X0164757Y0126472D02*
X0175988Y0126472D01*
X0175988Y0127070D02*
X0165356Y0127070D01*
X0165954Y0127669D02*
X0175988Y0127669D01*
X0175988Y0128268D02*
X0166553Y0128268D01*
X0167151Y0128866D02*
X0175988Y0128866D01*
X0175988Y0129465D02*
X0167750Y0129465D01*
X0168348Y0130063D02*
X0175988Y0130063D01*
X0175988Y0130662D02*
X0168947Y0130662D01*
X0169546Y0131260D02*
X0175988Y0131260D01*
X0175988Y0131859D02*
X0170144Y0131859D01*
X0170743Y0132457D02*
X0176348Y0132457D01*
X0176947Y0133056D02*
X0171341Y0133056D01*
X0171940Y0133654D02*
X0177545Y0133654D01*
X0178144Y0134253D02*
X0172538Y0134253D01*
X0173137Y0134851D02*
X0178742Y0134851D01*
X0179341Y0135450D02*
X0173735Y0135450D01*
X0174334Y0136048D02*
X0179940Y0136048D01*
X0180538Y0136647D02*
X0174932Y0136647D01*
X0175531Y0137245D02*
X0181137Y0137245D01*
X0181735Y0137844D02*
X0176129Y0137844D01*
X0176728Y0138442D02*
X0203417Y0138442D01*
X0203417Y0137844D02*
X0197442Y0137844D01*
X0198040Y0137245D02*
X0203417Y0137245D01*
X0203417Y0136647D02*
X0198639Y0136647D01*
X0199237Y0136048D02*
X0203417Y0136048D01*
X0203417Y0135450D02*
X0199836Y0135450D01*
X0200434Y0134851D02*
X0203095Y0134851D01*
X0203017Y0134253D02*
X0201033Y0134253D01*
X0201631Y0133654D02*
X0203017Y0133654D01*
X0203017Y0133056D02*
X0202230Y0133056D01*
X0202828Y0132457D02*
X0205788Y0132457D01*
X0205788Y0132416D02*
X0206388Y0132416D01*
X0206388Y0129743D01*
X0206988Y0129743D01*
X0206988Y0128297D01*
X0205542Y0129743D01*
X0205788Y0129743D01*
X0205788Y0132416D01*
X0205788Y0131859D02*
X0206388Y0131859D01*
X0206388Y0131260D02*
X0205788Y0131260D01*
X0205788Y0130662D02*
X0206388Y0130662D01*
X0206388Y0130063D02*
X0205788Y0130063D01*
X0205821Y0129465D02*
X0206988Y0129465D01*
X0206988Y0128866D02*
X0206419Y0128866D01*
X0206588Y0127000D02*
X0196488Y0137100D01*
X0182688Y0137100D01*
X0177188Y0131600D01*
X0177188Y0122130D01*
X0176088Y0121030D01*
X0176088Y0117000D01*
X0177288Y0119150D02*
X0177288Y0120533D01*
X0177685Y0120930D01*
X0177685Y0120930D01*
X0178388Y0121633D01*
X0178388Y0131103D01*
X0183185Y0135900D01*
X0189019Y0135900D01*
X0188988Y0135870D01*
X0188988Y0134130D01*
X0189888Y0133230D01*
X0189888Y0130306D01*
X0190591Y0129603D01*
X0194094Y0126100D01*
X0194372Y0126100D01*
X0193720Y0125448D01*
X0193720Y0122715D01*
X0193373Y0122715D01*
X0192473Y0123615D01*
X0190734Y0123615D01*
X0189503Y0122385D01*
X0189503Y0120645D01*
X0190734Y0119415D01*
X0192473Y0119415D01*
X0193373Y0120315D01*
X0195148Y0120315D01*
X0195417Y0120584D01*
X0198584Y0120584D01*
X0199457Y0121457D01*
X0199457Y0125448D01*
X0198805Y0126100D01*
X0199791Y0126100D01*
X0200888Y0125003D01*
X0200888Y0116821D01*
X0200541Y0117169D01*
X0199662Y0118047D01*
X0199457Y0118047D01*
X0199457Y0118543D01*
X0198584Y0119416D01*
X0194593Y0119416D01*
X0193720Y0118543D01*
X0193720Y0118000D01*
X0193558Y0118000D01*
X0192958Y0118600D01*
X0191219Y0118600D01*
X0189988Y0117370D01*
X0189988Y0115630D01*
X0191219Y0114400D01*
X0192505Y0114400D01*
X0192346Y0114124D01*
X0192257Y0113793D01*
X0192257Y0104867D01*
X0195225Y0104867D01*
X0195225Y0104267D01*
X0192257Y0104267D01*
X0192257Y0095341D01*
X0192346Y0095010D01*
X0192517Y0094714D01*
X0192759Y0094472D01*
X0193055Y0094300D01*
X0193386Y0094212D01*
X0195225Y0094212D01*
X0195225Y0104267D01*
X0195825Y0104267D01*
X0195825Y0094212D01*
X0197665Y0094212D01*
X0197996Y0094300D01*
X0198292Y0094472D01*
X0198534Y0094714D01*
X0198705Y0095010D01*
X0198794Y0095341D01*
X0198794Y0104267D01*
X0195825Y0104267D01*
X0195825Y0104867D01*
X0198794Y0104867D01*
X0198794Y0107173D01*
X0199217Y0106750D01*
X0199217Y0106750D01*
X0200767Y0105200D01*
X0204204Y0105200D01*
X0205083Y0106079D01*
X0205085Y0106081D01*
X0207539Y0106081D01*
X0207539Y0103446D01*
X0208066Y0102919D01*
X0208420Y0102919D01*
X0208420Y0093461D01*
X0208181Y0093700D01*
X0184116Y0093700D01*
X0180788Y0097027D01*
X0180788Y0127503D01*
X0181185Y0127900D01*
X0182458Y0127900D01*
X0183688Y0129130D01*
X0183688Y0130870D01*
X0182458Y0132100D01*
X0180719Y0132100D01*
X0179488Y0130870D01*
X0179488Y0129597D01*
X0179091Y0129200D01*
X0178388Y0128497D01*
X0178388Y0119150D01*
X0177288Y0119150D01*
X0177288Y0119290D02*
X0178388Y0119290D01*
X0178388Y0119888D02*
X0177288Y0119888D01*
X0177288Y0120487D02*
X0178388Y0120487D01*
X0178388Y0121085D02*
X0177841Y0121085D01*
X0178388Y0121684D02*
X0178388Y0121684D01*
X0178388Y0122282D02*
X0178388Y0122282D01*
X0178388Y0122881D02*
X0178388Y0122881D01*
X0178388Y0123479D02*
X0178388Y0123479D01*
X0178388Y0124078D02*
X0178388Y0124078D01*
X0178388Y0124676D02*
X0178388Y0124676D01*
X0178388Y0125275D02*
X0178388Y0125275D01*
X0178388Y0125873D02*
X0178388Y0125873D01*
X0178388Y0126472D02*
X0178388Y0126472D01*
X0178388Y0127070D02*
X0178388Y0127070D01*
X0178388Y0127669D02*
X0178388Y0127669D01*
X0178388Y0128268D02*
X0178388Y0128268D01*
X0178388Y0128866D02*
X0178757Y0128866D01*
X0178388Y0129465D02*
X0179356Y0129465D01*
X0179488Y0130063D02*
X0178388Y0130063D01*
X0178388Y0130662D02*
X0179488Y0130662D01*
X0179879Y0131260D02*
X0178546Y0131260D01*
X0179144Y0131859D02*
X0180477Y0131859D01*
X0179743Y0132457D02*
X0189888Y0132457D01*
X0189888Y0131859D02*
X0182700Y0131859D01*
X0183298Y0131260D02*
X0189888Y0131260D01*
X0189888Y0130662D02*
X0183688Y0130662D01*
X0183688Y0130063D02*
X0190131Y0130063D01*
X0190730Y0129465D02*
X0183688Y0129465D01*
X0183424Y0128866D02*
X0191328Y0128866D01*
X0191927Y0128268D02*
X0182826Y0128268D01*
X0180954Y0127669D02*
X0192525Y0127669D01*
X0193124Y0127070D02*
X0180788Y0127070D01*
X0180788Y0126472D02*
X0193722Y0126472D01*
X0194145Y0125873D02*
X0180788Y0125873D01*
X0180788Y0125275D02*
X0193720Y0125275D01*
X0193720Y0124676D02*
X0180788Y0124676D01*
X0180788Y0124078D02*
X0193720Y0124078D01*
X0193720Y0123479D02*
X0192609Y0123479D01*
X0193207Y0122881D02*
X0193720Y0122881D01*
X0194651Y0121515D02*
X0191603Y0121515D01*
X0189503Y0121684D02*
X0180788Y0121684D01*
X0180788Y0122282D02*
X0189503Y0122282D01*
X0189999Y0122881D02*
X0180788Y0122881D01*
X0180788Y0123479D02*
X0190598Y0123479D01*
X0194651Y0121515D02*
X0196588Y0123453D01*
X0199457Y0123479D02*
X0200888Y0123479D01*
X0200888Y0122881D02*
X0199457Y0122881D01*
X0199457Y0122282D02*
X0200888Y0122282D01*
X0200888Y0121684D02*
X0199457Y0121684D01*
X0199085Y0121085D02*
X0200888Y0121085D01*
X0200888Y0120487D02*
X0195320Y0120487D01*
X0194467Y0119290D02*
X0180788Y0119290D01*
X0180788Y0119888D02*
X0190260Y0119888D01*
X0189662Y0120487D02*
X0180788Y0120487D01*
X0180788Y0121085D02*
X0189503Y0121085D01*
X0190711Y0118093D02*
X0180788Y0118093D01*
X0180788Y0118691D02*
X0193869Y0118691D01*
X0193720Y0118093D02*
X0193465Y0118093D01*
X0192947Y0119888D02*
X0200888Y0119888D01*
X0200888Y0119290D02*
X0198710Y0119290D01*
X0199308Y0118691D02*
X0200888Y0118691D01*
X0200888Y0118093D02*
X0199457Y0118093D01*
X0200215Y0117494D02*
X0200888Y0117494D01*
X0200888Y0116896D02*
X0200814Y0116896D01*
X0196588Y0116547D02*
X0196541Y0116500D01*
X0192286Y0113903D02*
X0190520Y0113903D01*
X0190520Y0113995D02*
X0189993Y0114522D01*
X0185310Y0114522D01*
X0184783Y0113995D01*
X0184783Y0101500D01*
X0184558Y0101500D01*
X0183958Y0102100D01*
X0182219Y0102100D01*
X0180988Y0100870D01*
X0180988Y0099130D01*
X0182219Y0097900D01*
X0183958Y0097900D01*
X0184558Y0098500D01*
X0184783Y0098500D01*
X0184783Y0095139D01*
X0185310Y0094612D01*
X0189993Y0094612D01*
X0190520Y0095139D01*
X0190520Y0113995D01*
X0190520Y0113305D02*
X0192257Y0113305D01*
X0192257Y0112706D02*
X0190520Y0112706D01*
X0190520Y0112108D02*
X0192257Y0112108D01*
X0192257Y0111509D02*
X0190520Y0111509D01*
X0190520Y0110911D02*
X0192257Y0110911D01*
X0192257Y0110312D02*
X0190520Y0110312D01*
X0190520Y0109714D02*
X0192257Y0109714D01*
X0192257Y0109115D02*
X0190520Y0109115D01*
X0190520Y0108517D02*
X0192257Y0108517D01*
X0192257Y0107918D02*
X0190520Y0107918D01*
X0190520Y0107320D02*
X0192257Y0107320D01*
X0192257Y0106721D02*
X0190520Y0106721D01*
X0190520Y0106123D02*
X0192257Y0106123D01*
X0192257Y0105524D02*
X0190520Y0105524D01*
X0190520Y0104926D02*
X0192257Y0104926D01*
X0192257Y0103729D02*
X0190520Y0103729D01*
X0190520Y0104327D02*
X0195225Y0104327D01*
X0195225Y0103729D02*
X0195825Y0103729D01*
X0195825Y0104327D02*
X0207539Y0104327D01*
X0207539Y0103729D02*
X0198794Y0103729D01*
X0198794Y0103130D02*
X0207855Y0103130D01*
X0208420Y0102532D02*
X0198794Y0102532D01*
X0198794Y0101933D02*
X0208420Y0101933D01*
X0208420Y0101334D02*
X0198794Y0101334D01*
X0198794Y0100736D02*
X0208420Y0100736D01*
X0208420Y0100137D02*
X0198794Y0100137D01*
X0198794Y0099539D02*
X0208420Y0099539D01*
X0208420Y0098940D02*
X0198794Y0098940D01*
X0198794Y0098342D02*
X0208420Y0098342D01*
X0208420Y0097743D02*
X0198794Y0097743D01*
X0198794Y0097145D02*
X0208420Y0097145D01*
X0208420Y0096546D02*
X0198794Y0096546D01*
X0198794Y0095948D02*
X0208420Y0095948D01*
X0208420Y0095349D02*
X0198794Y0095349D01*
X0198556Y0094751D02*
X0208420Y0094751D01*
X0208420Y0094152D02*
X0183663Y0094152D01*
X0183065Y0094751D02*
X0185171Y0094751D01*
X0184783Y0095349D02*
X0182466Y0095349D01*
X0181868Y0095948D02*
X0184783Y0095948D01*
X0184783Y0096546D02*
X0181269Y0096546D01*
X0180788Y0097145D02*
X0184783Y0097145D01*
X0184783Y0097743D02*
X0180788Y0097743D01*
X0180788Y0098342D02*
X0181777Y0098342D01*
X0181178Y0098940D02*
X0180788Y0098940D01*
X0180788Y0099539D02*
X0180988Y0099539D01*
X0180988Y0100137D02*
X0180788Y0100137D01*
X0180788Y0100736D02*
X0180988Y0100736D01*
X0180788Y0101334D02*
X0181453Y0101334D01*
X0182052Y0101933D02*
X0180788Y0101933D01*
X0180788Y0102532D02*
X0184783Y0102532D01*
X0184783Y0103130D02*
X0180788Y0103130D01*
X0180788Y0103729D02*
X0184783Y0103729D01*
X0184783Y0104327D02*
X0180788Y0104327D01*
X0180788Y0104926D02*
X0184783Y0104926D01*
X0184783Y0105524D02*
X0180788Y0105524D01*
X0180788Y0106123D02*
X0184783Y0106123D01*
X0184783Y0106721D02*
X0180788Y0106721D01*
X0180788Y0107320D02*
X0184783Y0107320D01*
X0184783Y0107918D02*
X0180788Y0107918D01*
X0180788Y0108517D02*
X0184783Y0108517D01*
X0184783Y0109115D02*
X0180788Y0109115D01*
X0180788Y0109714D02*
X0184783Y0109714D01*
X0184783Y0110312D02*
X0180788Y0110312D01*
X0180788Y0110911D02*
X0184783Y0110911D01*
X0184783Y0111509D02*
X0180788Y0111509D01*
X0180788Y0112108D02*
X0184783Y0112108D01*
X0184783Y0112706D02*
X0180788Y0112706D01*
X0180788Y0113305D02*
X0184783Y0113305D01*
X0184783Y0113903D02*
X0180788Y0113903D01*
X0180788Y0114502D02*
X0185290Y0114502D01*
X0180788Y0115100D02*
X0190518Y0115100D01*
X0190013Y0114502D02*
X0191117Y0114502D01*
X0189988Y0115699D02*
X0180788Y0115699D01*
X0180788Y0116297D02*
X0189988Y0116297D01*
X0189988Y0116896D02*
X0180788Y0116896D01*
X0180788Y0117494D02*
X0190113Y0117494D01*
X0199457Y0124078D02*
X0200888Y0124078D01*
X0200888Y0124676D02*
X0199457Y0124676D01*
X0199457Y0125275D02*
X0200616Y0125275D01*
X0200018Y0125873D02*
X0199032Y0125873D01*
X0200288Y0127300D02*
X0202088Y0125500D01*
X0202088Y0109600D01*
X0202588Y0109100D01*
X0204688Y0109115D02*
X0227465Y0109115D01*
X0227465Y0109030D02*
X0228695Y0107800D01*
X0229894Y0107800D01*
X0230694Y0107000D01*
X0242119Y0107000D01*
X0242719Y0106400D01*
X0243152Y0106400D01*
X0243139Y0106352D01*
X0243139Y0105291D01*
X0245329Y0105291D01*
X0245329Y0107271D01*
X0245688Y0107630D01*
X0245688Y0109370D01*
X0244458Y0110600D01*
X0244340Y0110600D01*
X0248125Y0114385D01*
X0251298Y0114385D01*
X0251298Y0113804D01*
X0251879Y0113804D01*
X0251879Y0114385D01*
X0255546Y0114385D01*
X0255546Y0115447D01*
X0255457Y0115777D01*
X0255286Y0116074D01*
X0255044Y0116316D01*
X0255006Y0116338D01*
X0255146Y0116478D01*
X0255146Y0116831D01*
X0257488Y0116831D01*
X0257488Y0116130D01*
X0258719Y0114900D01*
X0260458Y0114900D01*
X0261688Y0116130D01*
X0261688Y0117870D01*
X0260658Y0118900D01*
X0261458Y0118900D01*
X0262688Y0120130D01*
X0262688Y0121870D01*
X0261788Y0122770D01*
X0261788Y0124497D01*
X0255370Y0130915D01*
X0255473Y0130915D01*
X0256703Y0132145D01*
X0256703Y0133418D01*
X0259085Y0135800D01*
X0263319Y0135800D01*
X0264219Y0134900D01*
X0265958Y0134900D01*
X0267188Y0136130D01*
X0267188Y0137870D01*
X0265958Y0139100D01*
X0264232Y0139100D01*
X0264232Y0142971D01*
X0263705Y0143498D01*
X0262452Y0143498D01*
X0262653Y0143552D01*
X0262950Y0143724D01*
X0263192Y0143966D01*
X0263363Y0144262D01*
X0263451Y0144593D01*
X0263451Y0145842D01*
X0259499Y0145842D01*
X0259499Y0146442D01*
X0263451Y0146442D01*
X0263451Y0147691D01*
X0263363Y0148021D01*
X0263192Y0148318D01*
X0262950Y0148560D01*
X0262653Y0148731D01*
X0262323Y0148820D01*
X0259499Y0148820D01*
X0259499Y0146442D01*
X0258899Y0146442D01*
X0258899Y0148820D01*
X0256075Y0148820D01*
X0255788Y0148743D01*
X0255788Y0150089D01*
X0253577Y0152300D01*
X0260988Y0152300D01*
X0260988Y0151630D01*
X0262219Y0150400D01*
X0263737Y0150400D01*
X0263417Y0149626D01*
X0263417Y0148563D01*
X0263823Y0147581D01*
X0264575Y0146830D01*
X0265557Y0146423D01*
X0266620Y0146423D01*
X0267602Y0146830D01*
X0268353Y0147581D01*
X0268760Y0148563D01*
X0268760Y0149626D01*
X0268353Y0150608D01*
X0267602Y0151359D01*
X0266620Y0151766D01*
X0265557Y0151766D01*
X0265160Y0151602D01*
X0265188Y0151630D01*
X0265188Y0153370D01*
X0263958Y0154600D01*
X0262685Y0154600D01*
X0262585Y0154700D01*
X0248688Y0154700D01*
X0248688Y0155370D01*
X0247808Y0156250D01*
X0248188Y0156630D01*
X0248188Y0158370D01*
X0246958Y0159600D01*
X0246678Y0159600D01*
X0247085Y0160008D01*
X0247203Y0160125D01*
X0247268Y0160088D01*
X0247598Y0159999D01*
X0249438Y0159999D01*
X0249438Y0162771D01*
X0250038Y0162771D01*
X0250038Y0159999D01*
X0251878Y0159999D01*
X0252208Y0160088D01*
X0252505Y0160259D01*
X0252747Y0160501D01*
X0252888Y0160746D01*
X0252888Y0158503D01*
X0253591Y0157800D01*
X0253591Y0157800D01*
X0254639Y0156753D01*
X0255346Y0156753D01*
X0255346Y0156202D01*
X0255873Y0155675D01*
X0262524Y0155675D01*
X0263051Y0156202D01*
X0263051Y0159703D01*
X0262524Y0160231D01*
X0255873Y0160231D01*
X0255346Y0159703D01*
X0255346Y0159440D01*
X0255288Y0159497D01*
X0255288Y0166027D01*
X0254585Y0166730D01*
X0249516Y0171800D01*
X0254819Y0171800D01*
X0255719Y0170900D01*
X0257458Y0170900D01*
X0257488Y0170930D01*
X0257488Y0166136D01*
X0255873Y0166136D01*
X0255346Y0165609D01*
X0255346Y0162108D01*
X0255873Y0161580D01*
X0262524Y0161580D01*
X0263051Y0162108D01*
X0263051Y0165609D01*
X0262524Y0166136D01*
X0259888Y0166136D01*
X0259888Y0166502D01*
X0263705Y0166502D01*
X0264232Y0167029D01*
X0264232Y0171711D01*
X0263705Y0172239D01*
X0259888Y0172239D01*
X0259888Y0174367D01*
X0253038Y0181217D01*
X0253038Y0183169D01*
X0254298Y0180128D01*
X0256717Y0177709D01*
X0259878Y0176400D01*
X0263299Y0176400D01*
X0266460Y0177709D01*
X0268879Y0180128D01*
X0270188Y0183289D01*
X0270188Y0186271D01*
X0270288Y0185000D01*
X0270288Y0172239D01*
X0268472Y0172239D01*
X0267944Y0171711D01*
X0267944Y0167029D01*
X0268472Y0166502D01*
X0270288Y0166502D01*
X0270288Y0143498D01*
X0268472Y0143498D01*
X0267944Y0142971D01*
X0267944Y0138289D01*
X0268472Y0137761D01*
X0270288Y0137761D01*
X0270288Y0134286D01*
X0261747Y0134286D01*
X0261220Y0133759D01*
X0261220Y0128289D01*
X0261747Y0127761D01*
X0270288Y0127761D01*
X0270288Y0112239D01*
X0261747Y0112239D01*
X0261220Y0111711D01*
X0261220Y0106241D01*
X0261747Y0105714D01*
X0270288Y0105714D01*
X0270288Y0085000D01*
X0270188Y0083729D01*
X0270188Y0086711D01*
X0268879Y0089871D01*
X0268879Y0089872D01*
X0266619Y0092131D01*
X0267159Y0092131D01*
X0268213Y0092568D01*
X0269020Y0093375D01*
X0269457Y0094429D01*
X0269457Y0095571D01*
X0269020Y0096625D01*
X0268213Y0097432D01*
X0267159Y0097868D01*
X0266018Y0097868D01*
X0264964Y0097432D01*
X0264157Y0096625D01*
X0263720Y0095571D01*
X0263720Y0094429D01*
X0264157Y0093375D01*
X0264379Y0093153D01*
X0263299Y0093600D01*
X0259878Y0093600D01*
X0256717Y0092291D01*
X0254488Y0090062D01*
X0254488Y0096603D01*
X0258285Y0100400D01*
X0259558Y0100400D01*
X0260788Y0101630D01*
X0260788Y0103370D01*
X0259558Y0104600D01*
X0257819Y0104600D01*
X0256588Y0103370D01*
X0256588Y0102097D01*
X0253288Y0098797D01*
X0253288Y0099997D01*
X0250820Y0102466D01*
X0250820Y0102919D01*
X0251111Y0102919D01*
X0251638Y0103446D01*
X0251638Y0106554D01*
X0251111Y0107081D01*
X0248003Y0107081D01*
X0247863Y0106941D01*
X0247841Y0106979D01*
X0247599Y0107221D01*
X0247303Y0107392D01*
X0246972Y0107481D01*
X0245910Y0107481D01*
X0245910Y0105291D01*
X0245329Y0105291D01*
X0245329Y0104709D01*
X0245910Y0104709D01*
X0245910Y0102519D01*
X0246972Y0102519D01*
X0247303Y0102607D01*
X0247599Y0102779D01*
X0247841Y0103021D01*
X0247863Y0103059D01*
X0248003Y0102919D01*
X0248420Y0102919D01*
X0248420Y0101471D01*
X0248460Y0101431D01*
X0248026Y0101431D01*
X0246971Y0100995D01*
X0246766Y0100790D01*
X0246766Y0100801D01*
X0246678Y0101132D01*
X0246507Y0101428D01*
X0246265Y0101670D01*
X0245968Y0101841D01*
X0245638Y0101930D01*
X0244576Y0101930D01*
X0244576Y0098952D01*
X0243995Y0098952D01*
X0243995Y0101930D01*
X0242933Y0101930D01*
X0242734Y0101877D01*
X0242734Y0103476D01*
X0241855Y0104354D01*
X0240588Y0105621D01*
X0239710Y0106500D01*
X0221180Y0106500D01*
X0220458Y0107221D01*
X0219580Y0108100D01*
X0217213Y0108100D01*
X0216232Y0109081D01*
X0204688Y0109081D01*
X0204688Y0109970D01*
X0203858Y0110800D01*
X0204585Y0110800D01*
X0209819Y0110800D01*
X0210719Y0109900D01*
X0212458Y0109900D01*
X0213058Y0110500D01*
X0225019Y0110500D01*
X0225219Y0110300D01*
X0226958Y0110300D01*
X0227558Y0110900D01*
X0227595Y0110900D01*
X0227465Y0110770D01*
X0227465Y0109030D01*
X0227465Y0109714D02*
X0204688Y0109714D01*
X0204346Y0110312D02*
X0210306Y0110312D01*
X0211088Y0112000D02*
X0204088Y0112000D01*
X0203288Y0112800D01*
X0203288Y0126497D01*
X0201285Y0128500D01*
X0196219Y0128500D01*
X0194088Y0130631D01*
X0194088Y0131131D01*
X0191088Y0130803D02*
X0191088Y0135000D01*
X0188988Y0134851D02*
X0182137Y0134851D01*
X0182735Y0135450D02*
X0188988Y0135450D01*
X0188988Y0134253D02*
X0181538Y0134253D01*
X0180940Y0133654D02*
X0189464Y0133654D01*
X0189888Y0133056D02*
X0180341Y0133056D01*
X0181588Y0130000D02*
X0179588Y0128000D01*
X0179588Y0096530D01*
X0183619Y0092500D01*
X0207684Y0092500D01*
X0209024Y0091160D01*
X0209024Y0087965D01*
X0211588Y0085400D01*
X0248185Y0085400D01*
X0253288Y0090503D01*
X0253288Y0097100D01*
X0258688Y0102500D01*
X0256588Y0102532D02*
X0250820Y0102532D01*
X0251322Y0103130D02*
X0256588Y0103130D01*
X0256947Y0103729D02*
X0251638Y0103729D01*
X0251638Y0104327D02*
X0257546Y0104327D01*
X0259831Y0104327D02*
X0270288Y0104327D01*
X0270288Y0103729D02*
X0260430Y0103729D01*
X0260788Y0103130D02*
X0270288Y0103130D01*
X0270288Y0102532D02*
X0260788Y0102532D01*
X0260788Y0101933D02*
X0270288Y0101933D01*
X0270288Y0101334D02*
X0260493Y0101334D01*
X0259894Y0100736D02*
X0270288Y0100736D01*
X0270288Y0100137D02*
X0258023Y0100137D01*
X0257424Y0099539D02*
X0270288Y0099539D01*
X0270288Y0098940D02*
X0256826Y0098940D01*
X0256227Y0098342D02*
X0270288Y0098342D01*
X0270288Y0097743D02*
X0267461Y0097743D01*
X0268500Y0097145D02*
X0270288Y0097145D01*
X0270288Y0096546D02*
X0269053Y0096546D01*
X0269301Y0095948D02*
X0270288Y0095948D01*
X0270288Y0095349D02*
X0269457Y0095349D01*
X0269457Y0094751D02*
X0270288Y0094751D01*
X0270288Y0094152D02*
X0269342Y0094152D01*
X0269094Y0093554D02*
X0270288Y0093554D01*
X0270288Y0092955D02*
X0268600Y0092955D01*
X0267703Y0092357D02*
X0270288Y0092357D01*
X0270288Y0091758D02*
X0266992Y0091758D01*
X0267591Y0091160D02*
X0270288Y0091160D01*
X0270288Y0090561D02*
X0268189Y0090561D01*
X0268788Y0089963D02*
X0270288Y0089963D01*
X0270288Y0089364D02*
X0269089Y0089364D01*
X0269337Y0088766D02*
X0270288Y0088766D01*
X0270288Y0088167D02*
X0269585Y0088167D01*
X0269833Y0087569D02*
X0270288Y0087569D01*
X0270288Y0086970D02*
X0270081Y0086970D01*
X0270188Y0086372D02*
X0270288Y0086372D01*
X0270288Y0085773D02*
X0270188Y0085773D01*
X0270188Y0085175D02*
X0270288Y0085175D01*
X0270255Y0084576D02*
X0270188Y0084576D01*
X0270188Y0083978D02*
X0270208Y0083978D01*
X0259878Y0076400D02*
X0256717Y0077709D01*
X0256717Y0077709D01*
X0254298Y0080128D01*
X0254298Y0080128D01*
X0252988Y0083289D01*
X0252988Y0086711D01*
X0254258Y0089775D01*
X0253785Y0089303D01*
X0248683Y0084200D01*
X0211091Y0084200D01*
X0209024Y0086268D01*
X0209024Y0077029D01*
X0208497Y0076502D01*
X0201452Y0076502D01*
X0200925Y0077029D01*
X0200925Y0077497D01*
X0200865Y0077379D01*
X0200402Y0076743D01*
X0199959Y0076300D01*
X0213023Y0076300D01*
X0212956Y0076328D01*
X0212149Y0077135D01*
X0211712Y0078189D01*
X0211712Y0081693D01*
X0212149Y0082747D01*
X0212956Y0083554D01*
X0214010Y0083991D01*
X0215151Y0083991D01*
X0216205Y0083554D01*
X0217012Y0082747D01*
X0217449Y0081693D01*
X0217449Y0078189D01*
X0217012Y0077135D01*
X0216205Y0076328D01*
X0216138Y0076300D01*
X0247039Y0076300D01*
X0246971Y0076328D01*
X0246164Y0077135D01*
X0245728Y0078189D01*
X0245728Y0081693D01*
X0246164Y0082747D01*
X0246971Y0083554D01*
X0248026Y0083991D01*
X0249167Y0083991D01*
X0250221Y0083554D01*
X0251028Y0082747D01*
X0251465Y0081693D01*
X0251465Y0078189D01*
X0251028Y0077135D01*
X0250221Y0076328D01*
X0250153Y0076300D01*
X0261588Y0076300D01*
X0262859Y0076400D01*
X0259878Y0076400D01*
X0258923Y0076796D02*
X0250689Y0076796D01*
X0251135Y0077394D02*
X0257478Y0077394D01*
X0256434Y0077993D02*
X0251383Y0077993D01*
X0251465Y0078591D02*
X0255835Y0078591D01*
X0255237Y0079190D02*
X0251465Y0079190D01*
X0251465Y0079788D02*
X0254638Y0079788D01*
X0254191Y0080387D02*
X0251465Y0080387D01*
X0251465Y0080985D02*
X0253943Y0080985D01*
X0253695Y0081584D02*
X0251465Y0081584D01*
X0251262Y0082182D02*
X0253447Y0082182D01*
X0253199Y0082781D02*
X0250994Y0082781D01*
X0250396Y0083379D02*
X0252988Y0083379D01*
X0252988Y0083978D02*
X0249198Y0083978D01*
X0249059Y0084576D02*
X0252988Y0084576D01*
X0252988Y0085175D02*
X0249657Y0085175D01*
X0250256Y0085773D02*
X0252988Y0085773D01*
X0252988Y0086372D02*
X0250854Y0086372D01*
X0251453Y0086970D02*
X0253096Y0086970D01*
X0253344Y0087569D02*
X0252051Y0087569D01*
X0252650Y0088167D02*
X0253592Y0088167D01*
X0253840Y0088766D02*
X0253248Y0088766D01*
X0253847Y0089364D02*
X0254088Y0089364D01*
X0254488Y0090561D02*
X0254987Y0090561D01*
X0254488Y0091160D02*
X0255586Y0091160D01*
X0256184Y0091758D02*
X0254488Y0091758D01*
X0254488Y0092357D02*
X0256877Y0092357D01*
X0256717Y0092291D02*
X0256717Y0092291D01*
X0258321Y0092955D02*
X0254488Y0092955D01*
X0254488Y0093554D02*
X0259766Y0093554D01*
X0263410Y0093554D02*
X0264083Y0093554D01*
X0263835Y0094152D02*
X0254488Y0094152D01*
X0254488Y0094751D02*
X0263720Y0094751D01*
X0263720Y0095349D02*
X0254488Y0095349D01*
X0254488Y0095948D02*
X0263876Y0095948D01*
X0264124Y0096546D02*
X0254488Y0096546D01*
X0255030Y0097145D02*
X0264677Y0097145D01*
X0265716Y0097743D02*
X0255629Y0097743D01*
X0254030Y0099539D02*
X0253288Y0099539D01*
X0253288Y0098940D02*
X0253432Y0098940D01*
X0253148Y0100137D02*
X0254629Y0100137D01*
X0255227Y0100736D02*
X0252549Y0100736D01*
X0251951Y0101334D02*
X0255826Y0101334D01*
X0256424Y0101933D02*
X0251352Y0101933D01*
X0249620Y0101969D02*
X0249620Y0104937D01*
X0249557Y0105000D01*
X0251638Y0104926D02*
X0270288Y0104926D01*
X0270288Y0105524D02*
X0251638Y0105524D01*
X0251638Y0106123D02*
X0261339Y0106123D01*
X0261220Y0106721D02*
X0251471Y0106721D01*
X0247429Y0107320D02*
X0261220Y0107320D01*
X0261220Y0107918D02*
X0245688Y0107918D01*
X0245688Y0108517D02*
X0261220Y0108517D01*
X0261220Y0109115D02*
X0245688Y0109115D01*
X0245345Y0109714D02*
X0261220Y0109714D01*
X0261220Y0110312D02*
X0244746Y0110312D01*
X0244651Y0110911D02*
X0261220Y0110911D01*
X0261220Y0111509D02*
X0245249Y0111509D01*
X0245848Y0112108D02*
X0247898Y0112108D01*
X0247891Y0112115D02*
X0248133Y0111873D01*
X0248429Y0111702D01*
X0248760Y0111613D01*
X0251298Y0111613D01*
X0251298Y0113804D01*
X0247631Y0113804D01*
X0247631Y0112742D01*
X0247720Y0112412D01*
X0247891Y0112115D01*
X0247641Y0112706D02*
X0246446Y0112706D01*
X0247045Y0113305D02*
X0247631Y0113305D01*
X0247643Y0113903D02*
X0251298Y0113903D01*
X0251879Y0113903D02*
X0270288Y0113903D01*
X0270288Y0113305D02*
X0255546Y0113305D01*
X0255546Y0113804D02*
X0251879Y0113804D01*
X0251879Y0111613D01*
X0254417Y0111613D01*
X0254748Y0111702D01*
X0255044Y0111873D01*
X0255286Y0112115D01*
X0255457Y0112412D01*
X0255546Y0112742D01*
X0255546Y0113804D01*
X0255546Y0114502D02*
X0270288Y0114502D01*
X0270288Y0115100D02*
X0260659Y0115100D01*
X0261257Y0115699D02*
X0270288Y0115699D01*
X0270288Y0116297D02*
X0261688Y0116297D01*
X0261688Y0116896D02*
X0270288Y0116896D01*
X0270288Y0117494D02*
X0261688Y0117494D01*
X0261465Y0118093D02*
X0270288Y0118093D01*
X0270288Y0118691D02*
X0260867Y0118691D01*
X0261848Y0119290D02*
X0270288Y0119290D01*
X0270288Y0119888D02*
X0262447Y0119888D01*
X0262688Y0120487D02*
X0270288Y0120487D01*
X0270288Y0121085D02*
X0262688Y0121085D01*
X0262688Y0121684D02*
X0270288Y0121684D01*
X0270288Y0122282D02*
X0262276Y0122282D01*
X0261788Y0122881D02*
X0270288Y0122881D01*
X0270288Y0123479D02*
X0261788Y0123479D01*
X0261788Y0124078D02*
X0270288Y0124078D01*
X0270288Y0124676D02*
X0261609Y0124676D01*
X0261010Y0125275D02*
X0270288Y0125275D01*
X0270288Y0125873D02*
X0260412Y0125873D01*
X0259813Y0126472D02*
X0270288Y0126472D01*
X0270288Y0127070D02*
X0259215Y0127070D01*
X0258616Y0127669D02*
X0270288Y0127669D01*
X0261241Y0128268D02*
X0258018Y0128268D01*
X0257419Y0128866D02*
X0261220Y0128866D01*
X0261220Y0129465D02*
X0256821Y0129465D01*
X0256222Y0130063D02*
X0261220Y0130063D01*
X0261220Y0130662D02*
X0255624Y0130662D01*
X0255818Y0131260D02*
X0261220Y0131260D01*
X0261220Y0131859D02*
X0256417Y0131859D01*
X0256703Y0132457D02*
X0261220Y0132457D01*
X0261220Y0133056D02*
X0256703Y0133056D01*
X0256940Y0133654D02*
X0261220Y0133654D01*
X0261714Y0134253D02*
X0257538Y0134253D01*
X0258137Y0134851D02*
X0270288Y0134851D01*
X0270288Y0135450D02*
X0266508Y0135450D01*
X0267106Y0136048D02*
X0270288Y0136048D01*
X0270288Y0136647D02*
X0267188Y0136647D01*
X0267188Y0137245D02*
X0270288Y0137245D01*
X0268389Y0137844D02*
X0267188Y0137844D01*
X0266616Y0138442D02*
X0267944Y0138442D01*
X0267944Y0139041D02*
X0266018Y0139041D01*
X0264232Y0139639D02*
X0267944Y0139639D01*
X0267944Y0140238D02*
X0264232Y0140238D01*
X0264232Y0140836D02*
X0267944Y0140836D01*
X0267944Y0141435D02*
X0264232Y0141435D01*
X0264232Y0142033D02*
X0267944Y0142033D01*
X0267944Y0142632D02*
X0264232Y0142632D01*
X0263973Y0143230D02*
X0268203Y0143230D01*
X0270288Y0143829D02*
X0263055Y0143829D01*
X0263407Y0144427D02*
X0270288Y0144427D01*
X0270288Y0145026D02*
X0263451Y0145026D01*
X0263451Y0145624D02*
X0270288Y0145624D01*
X0270288Y0146223D02*
X0259499Y0146223D01*
X0259499Y0145842D02*
X0259499Y0143464D01*
X0259775Y0143464D01*
X0259283Y0142971D01*
X0259283Y0138289D01*
X0259372Y0138200D01*
X0258091Y0138200D01*
X0257388Y0137497D01*
X0255006Y0135115D01*
X0253734Y0135115D01*
X0252503Y0133885D01*
X0252503Y0133782D01*
X0251585Y0134700D01*
X0250677Y0134700D01*
X0249777Y0135600D01*
X0248037Y0135600D01*
X0247988Y0135551D01*
X0247988Y0135673D01*
X0249716Y0137400D01*
X0254185Y0137400D01*
X0254888Y0138103D01*
X0255085Y0138300D01*
X0255788Y0139003D01*
X0255788Y0143541D01*
X0256075Y0143464D01*
X0258899Y0143464D01*
X0258899Y0145842D01*
X0259499Y0145842D01*
X0259499Y0145624D02*
X0258899Y0145624D01*
X0258899Y0145026D02*
X0259499Y0145026D01*
X0259499Y0144427D02*
X0258899Y0144427D01*
X0258899Y0143829D02*
X0259499Y0143829D01*
X0259542Y0143230D02*
X0255788Y0143230D01*
X0255788Y0142632D02*
X0259283Y0142632D01*
X0259283Y0142033D02*
X0255788Y0142033D01*
X0255788Y0141435D02*
X0259283Y0141435D01*
X0259283Y0140836D02*
X0255788Y0140836D01*
X0255788Y0140238D02*
X0259283Y0140238D01*
X0259283Y0139639D02*
X0255788Y0139639D01*
X0255788Y0139041D02*
X0259283Y0139041D01*
X0259283Y0138442D02*
X0255228Y0138442D01*
X0254888Y0138103D02*
X0254888Y0138103D01*
X0254629Y0137844D02*
X0257735Y0137844D01*
X0257137Y0137245D02*
X0249561Y0137245D01*
X0248962Y0136647D02*
X0256538Y0136647D01*
X0255940Y0136048D02*
X0248364Y0136048D01*
X0246788Y0136170D02*
X0249219Y0138600D01*
X0253688Y0138600D01*
X0254588Y0139500D01*
X0254588Y0149592D01*
X0252079Y0152101D01*
X0245988Y0152101D01*
X0244088Y0154000D01*
X0244088Y0157000D01*
X0244588Y0157500D01*
X0246088Y0157500D01*
X0248188Y0157595D02*
X0253797Y0157595D01*
X0253198Y0158193D02*
X0248188Y0158193D01*
X0247767Y0158792D02*
X0252888Y0158792D01*
X0252888Y0159390D02*
X0247168Y0159390D01*
X0247067Y0159989D02*
X0252888Y0159989D01*
X0252888Y0160587D02*
X0252796Y0160587D01*
X0254088Y0159000D02*
X0254088Y0165530D01*
X0243988Y0175630D01*
X0243988Y0177733D01*
X0249073Y0182818D01*
X0249073Y0182985D01*
X0247646Y0184528D02*
X0231386Y0184528D01*
X0231386Y0185126D02*
X0245992Y0185126D01*
X0246219Y0184900D02*
X0247958Y0184900D01*
X0248225Y0185167D01*
X0248306Y0185085D01*
X0248203Y0185085D01*
X0246973Y0183855D01*
X0246973Y0182415D01*
X0243491Y0178933D01*
X0242788Y0178230D01*
X0242788Y0175133D01*
X0243491Y0174430D01*
X0243491Y0174430D01*
X0251779Y0166143D01*
X0250038Y0166143D01*
X0250038Y0163371D01*
X0249438Y0163371D01*
X0249438Y0166143D01*
X0247788Y0166143D01*
X0247788Y0167997D01*
X0247085Y0168700D01*
X0244088Y0171697D01*
X0244088Y0173364D01*
X0240955Y0176497D01*
X0240252Y0177200D01*
X0234443Y0177200D01*
X0233458Y0178185D01*
X0231719Y0178185D01*
X0231386Y0177852D01*
X0231386Y0178129D01*
X0230859Y0178656D01*
X0228236Y0178656D01*
X0228236Y0179218D01*
X0230859Y0179218D01*
X0231386Y0179745D01*
X0231386Y0182066D01*
X0230859Y0182593D01*
X0228236Y0182593D01*
X0228236Y0183155D01*
X0230859Y0183155D01*
X0231386Y0183682D01*
X0231386Y0186003D01*
X0230859Y0186530D01*
X0228236Y0186530D01*
X0228236Y0187092D01*
X0230859Y0187092D01*
X0231386Y0187619D01*
X0231386Y0189940D01*
X0230859Y0190467D01*
X0228236Y0190467D01*
X0228236Y0190629D01*
X0229211Y0190629D01*
X0229211Y0192623D01*
X0226824Y0192623D01*
X0226824Y0192435D01*
X0224601Y0192435D01*
X0224074Y0191908D01*
X0224074Y0189588D01*
X0224601Y0189061D01*
X0227224Y0189061D01*
X0227224Y0188498D01*
X0224601Y0188498D01*
X0224074Y0187971D01*
X0224074Y0185651D01*
X0224601Y0185124D01*
X0227224Y0185124D01*
X0227224Y0184561D01*
X0224688Y0184561D01*
X0224688Y0184870D01*
X0223458Y0186100D01*
X0222185Y0186100D01*
X0222085Y0186200D01*
X0202585Y0186200D01*
X0199103Y0189683D01*
X0199103Y0191908D01*
X0198575Y0192435D01*
X0196353Y0192435D01*
X0196353Y0192623D01*
X0193966Y0192623D01*
X0193966Y0192810D01*
X0196353Y0192810D01*
X0196353Y0193675D01*
X0196346Y0193700D01*
X0226831Y0193700D01*
X0226824Y0193675D01*
X0226824Y0192810D01*
X0229211Y0192810D01*
X0229211Y0192623D01*
X0229399Y0192623D01*
X0229399Y0192810D01*
X0231786Y0192810D01*
X0231786Y0193675D01*
X0231779Y0193700D01*
X0239939Y0193700D01*
X0239381Y0193141D01*
X0239075Y0192835D01*
X0238060Y0192835D01*
X0237531Y0192306D01*
X0237002Y0192835D01*
X0235925Y0192835D01*
X0235164Y0192074D01*
X0235164Y0190997D01*
X0235693Y0190468D01*
X0235164Y0189938D01*
X0235164Y0188862D01*
X0235925Y0188100D01*
X0237002Y0188100D01*
X0237531Y0188629D01*
X0238060Y0188100D01*
X0239137Y0188100D01*
X0239640Y0188602D01*
X0240142Y0188100D01*
X0242287Y0188100D01*
X0242789Y0188602D01*
X0243291Y0188100D01*
X0245219Y0188100D01*
X0244988Y0187870D01*
X0244988Y0186130D01*
X0246219Y0184900D01*
X0245394Y0185725D02*
X0231386Y0185725D01*
X0231066Y0186323D02*
X0244988Y0186323D01*
X0244988Y0186922D02*
X0228236Y0186922D01*
X0227224Y0188717D02*
X0200068Y0188717D01*
X0199470Y0189316D02*
X0224346Y0189316D01*
X0224074Y0189914D02*
X0199103Y0189914D01*
X0199103Y0190513D02*
X0224074Y0190513D01*
X0224074Y0191111D02*
X0199103Y0191111D01*
X0199103Y0191710D02*
X0224074Y0191710D01*
X0224474Y0192308D02*
X0198703Y0192308D01*
X0197021Y0190748D02*
X0191336Y0190748D01*
X0186588Y0186000D01*
X0186588Y0184000D01*
X0184488Y0183929D02*
X0184457Y0183929D01*
X0184457Y0184192D02*
X0183930Y0184719D01*
X0179247Y0184719D01*
X0178720Y0184192D01*
X0178720Y0179115D01*
X0179247Y0178588D01*
X0183930Y0178588D01*
X0184457Y0179115D01*
X0184457Y0179706D01*
X0191831Y0179706D01*
X0192318Y0179218D01*
X0194940Y0179218D01*
X0194940Y0178656D01*
X0192318Y0178656D01*
X0191791Y0178129D01*
X0191791Y0176200D01*
X0181091Y0176200D01*
X0180388Y0175497D01*
X0180084Y0175192D01*
X0179659Y0175368D01*
X0178518Y0175368D01*
X0177464Y0174932D01*
X0176657Y0174125D01*
X0176588Y0173960D01*
X0176520Y0174125D01*
X0175713Y0174932D01*
X0174659Y0175368D01*
X0173518Y0175368D01*
X0172464Y0174932D01*
X0171788Y0174257D01*
X0171788Y0183230D01*
X0172688Y0184130D01*
X0172688Y0185870D01*
X0171458Y0187100D01*
X0170027Y0187100D01*
X0169741Y0187791D01*
X0169964Y0187568D01*
X0171018Y0187131D01*
X0172159Y0187131D01*
X0173213Y0187568D01*
X0174020Y0188375D01*
X0174457Y0189429D01*
X0174457Y0190571D01*
X0174020Y0191625D01*
X0173213Y0192432D01*
X0172159Y0192868D01*
X0171018Y0192868D01*
X0169964Y0192432D01*
X0169157Y0191625D01*
X0168720Y0190571D01*
X0168720Y0190031D01*
X0166460Y0192291D01*
X0163299Y0193600D01*
X0160317Y0193600D01*
X0161588Y0193700D01*
X0191397Y0193700D01*
X0191391Y0193675D01*
X0191391Y0192810D01*
X0193778Y0192810D01*
X0193778Y0192623D01*
X0191391Y0192623D01*
X0191391Y0191948D01*
X0190839Y0191948D01*
X0186091Y0187200D01*
X0185388Y0186497D01*
X0185388Y0185770D01*
X0184488Y0184870D01*
X0184488Y0183130D01*
X0185513Y0182105D01*
X0184457Y0182105D01*
X0184457Y0184192D01*
X0184488Y0184528D02*
X0184121Y0184528D01*
X0184059Y0184970D02*
X0184355Y0185141D01*
X0184597Y0185383D01*
X0184768Y0185679D01*
X0184857Y0186010D01*
X0184857Y0188046D01*
X0181888Y0188046D01*
X0181888Y0184881D01*
X0183728Y0184881D01*
X0184059Y0184970D01*
X0184330Y0185126D02*
X0184745Y0185126D01*
X0184780Y0185725D02*
X0185343Y0185725D01*
X0185388Y0186323D02*
X0184857Y0186323D01*
X0184857Y0186922D02*
X0185813Y0186922D01*
X0186411Y0187520D02*
X0184857Y0187520D01*
X0184857Y0188646D02*
X0184857Y0190683D01*
X0184768Y0191014D01*
X0184597Y0191310D01*
X0184355Y0191552D01*
X0184059Y0191723D01*
X0183728Y0191812D01*
X0181888Y0191812D01*
X0181888Y0188646D01*
X0184857Y0188646D01*
X0184857Y0188717D02*
X0187609Y0188717D01*
X0188207Y0189316D02*
X0184857Y0189316D01*
X0184857Y0189914D02*
X0188806Y0189914D01*
X0189404Y0190513D02*
X0184857Y0190513D01*
X0184712Y0191111D02*
X0190003Y0191111D01*
X0190601Y0191710D02*
X0184082Y0191710D01*
X0181888Y0191710D02*
X0181288Y0191710D01*
X0181288Y0191812D02*
X0179449Y0191812D01*
X0179118Y0191723D01*
X0178822Y0191552D01*
X0178580Y0191310D01*
X0178409Y0191014D01*
X0178320Y0190683D01*
X0178320Y0188646D01*
X0181288Y0188646D01*
X0181288Y0188046D01*
X0181888Y0188046D01*
X0181888Y0188646D01*
X0181288Y0188646D01*
X0181288Y0191812D01*
X0181288Y0191111D02*
X0181888Y0191111D01*
X0181888Y0190513D02*
X0181288Y0190513D01*
X0181288Y0189914D02*
X0181888Y0189914D01*
X0181888Y0189316D02*
X0181288Y0189316D01*
X0181288Y0188717D02*
X0181888Y0188717D01*
X0181888Y0188119D02*
X0187010Y0188119D01*
X0181888Y0187520D02*
X0181288Y0187520D01*
X0181288Y0188046D02*
X0181288Y0184881D01*
X0179449Y0184881D01*
X0179118Y0184970D01*
X0178822Y0185141D01*
X0178580Y0185383D01*
X0178409Y0185679D01*
X0178320Y0186010D01*
X0178320Y0188046D01*
X0181288Y0188046D01*
X0181288Y0188119D02*
X0173764Y0188119D01*
X0174162Y0188717D02*
X0178320Y0188717D01*
X0178320Y0189316D02*
X0174410Y0189316D01*
X0174457Y0189914D02*
X0178320Y0189914D01*
X0178320Y0190513D02*
X0174457Y0190513D01*
X0174233Y0191111D02*
X0178465Y0191111D01*
X0179095Y0191710D02*
X0173935Y0191710D01*
X0173337Y0192308D02*
X0191391Y0192308D01*
X0191391Y0192907D02*
X0164973Y0192907D01*
X0166418Y0192308D02*
X0169840Y0192308D01*
X0169241Y0191710D02*
X0167041Y0191710D01*
X0166460Y0192291D02*
X0166460Y0192291D01*
X0167639Y0191111D02*
X0168944Y0191111D01*
X0168720Y0190513D02*
X0168238Y0190513D01*
X0169853Y0187520D02*
X0170080Y0187520D01*
X0171637Y0186922D02*
X0178320Y0186922D01*
X0178320Y0187520D02*
X0173097Y0187520D01*
X0172235Y0186323D02*
X0178320Y0186323D01*
X0178396Y0185725D02*
X0172688Y0185725D01*
X0172688Y0185126D02*
X0178847Y0185126D01*
X0179056Y0184528D02*
X0172688Y0184528D01*
X0172487Y0183929D02*
X0178720Y0183929D01*
X0178720Y0183331D02*
X0171889Y0183331D01*
X0171788Y0182732D02*
X0178720Y0182732D01*
X0178720Y0182134D02*
X0171788Y0182134D01*
X0171788Y0181535D02*
X0178720Y0181535D01*
X0178720Y0180937D02*
X0171788Y0180937D01*
X0171788Y0180338D02*
X0178720Y0180338D01*
X0178720Y0179739D02*
X0171788Y0179739D01*
X0171788Y0179141D02*
X0178720Y0179141D01*
X0181588Y0181654D02*
X0182336Y0180906D01*
X0193872Y0180906D01*
X0194153Y0180624D01*
X0198575Y0180624D01*
X0199294Y0179906D01*
X0212719Y0179906D01*
X0213719Y0180906D01*
X0215588Y0180906D01*
X0220088Y0176406D01*
X0220088Y0175906D01*
X0217088Y0175500D02*
X0215883Y0176706D01*
X0213719Y0176706D01*
X0213456Y0176969D01*
X0193872Y0176969D01*
X0191791Y0176747D02*
X0171788Y0176747D01*
X0171788Y0177345D02*
X0191791Y0177345D01*
X0191791Y0177944D02*
X0171788Y0177944D01*
X0171788Y0178542D02*
X0192205Y0178542D01*
X0194940Y0179141D02*
X0184457Y0179141D01*
X0184457Y0182134D02*
X0185485Y0182134D01*
X0184887Y0182732D02*
X0184457Y0182732D01*
X0184457Y0183331D02*
X0184488Y0183331D01*
X0181888Y0185126D02*
X0181288Y0185126D01*
X0181288Y0185725D02*
X0181888Y0185725D01*
X0181888Y0186323D02*
X0181288Y0186323D01*
X0181288Y0186922D02*
X0181888Y0186922D01*
X0170588Y0185000D02*
X0170588Y0172500D01*
X0174088Y0172500D01*
X0171885Y0174353D02*
X0171788Y0174353D01*
X0171788Y0174951D02*
X0172511Y0174951D01*
X0171788Y0175550D02*
X0180441Y0175550D01*
X0181040Y0176148D02*
X0171788Y0176148D01*
X0169388Y0176148D02*
X0152888Y0176148D01*
X0152888Y0175550D02*
X0169388Y0175550D01*
X0169388Y0174951D02*
X0157289Y0174951D01*
X0156982Y0175000D02*
X0156888Y0175000D01*
X0156888Y0170300D01*
X0156288Y0170300D01*
X0156288Y0175000D01*
X0156195Y0175000D01*
X0155418Y0174877D01*
X0154669Y0174634D01*
X0153968Y0174276D01*
X0153331Y0173814D01*
X0152888Y0173371D01*
X0152888Y0185000D01*
X0152988Y0186271D01*
X0152988Y0183289D01*
X0154298Y0180128D01*
X0156717Y0177709D01*
X0159878Y0176400D01*
X0163299Y0176400D01*
X0166460Y0177709D01*
X0168879Y0180128D01*
X0168879Y0180128D01*
X0169388Y0181358D01*
X0169388Y0171997D01*
X0167888Y0170497D01*
X0167888Y0161200D01*
X0161070Y0161200D01*
X0160488Y0162606D01*
X0159194Y0163900D01*
X0157503Y0164600D01*
X0155673Y0164600D01*
X0153983Y0163900D01*
X0152888Y0162805D01*
X0152888Y0166629D01*
X0153331Y0166186D01*
X0153968Y0165724D01*
X0154669Y0165366D01*
X0155418Y0165123D01*
X0156195Y0165000D01*
X0156288Y0165000D01*
X0156288Y0169700D01*
X0156888Y0169700D01*
X0156888Y0165000D01*
X0156982Y0165000D01*
X0157759Y0165123D01*
X0158508Y0165366D01*
X0159209Y0165724D01*
X0159846Y0166186D01*
X0160402Y0166743D01*
X0160865Y0167379D01*
X0161222Y0168081D01*
X0161465Y0168829D01*
X0161588Y0169606D01*
X0161588Y0169700D01*
X0156888Y0169700D01*
X0156888Y0170300D01*
X0161588Y0170300D01*
X0161588Y0170394D01*
X0161465Y0171171D01*
X0161222Y0171919D01*
X0160865Y0172621D01*
X0160402Y0173257D01*
X0159846Y0173814D01*
X0159209Y0174276D01*
X0158508Y0174634D01*
X0157759Y0174877D01*
X0156982Y0175000D01*
X0156888Y0174951D02*
X0156288Y0174951D01*
X0155888Y0174951D02*
X0152888Y0174951D01*
X0152888Y0174353D02*
X0154118Y0174353D01*
X0153272Y0173754D02*
X0152888Y0173754D01*
X0156288Y0173754D02*
X0156888Y0173754D01*
X0156888Y0173156D02*
X0156288Y0173156D01*
X0156288Y0172557D02*
X0156888Y0172557D01*
X0156888Y0171959D02*
X0156288Y0171959D01*
X0156288Y0171360D02*
X0156888Y0171360D01*
X0156888Y0170762D02*
X0156288Y0170762D01*
X0156888Y0170163D02*
X0167888Y0170163D01*
X0167888Y0169565D02*
X0161582Y0169565D01*
X0161487Y0168966D02*
X0167888Y0168966D01*
X0167888Y0168368D02*
X0161315Y0168368D01*
X0161063Y0167769D02*
X0167888Y0167769D01*
X0167888Y0167171D02*
X0160713Y0167171D01*
X0160232Y0166572D02*
X0167888Y0166572D01*
X0167888Y0165974D02*
X0159553Y0165974D01*
X0158525Y0165375D02*
X0167888Y0165375D01*
X0167888Y0164777D02*
X0152888Y0164777D01*
X0152888Y0165375D02*
X0154652Y0165375D01*
X0153624Y0165974D02*
X0152888Y0165974D01*
X0152888Y0166572D02*
X0152945Y0166572D01*
X0152888Y0164178D02*
X0154655Y0164178D01*
X0153663Y0163580D02*
X0152888Y0163580D01*
X0152888Y0162981D02*
X0153064Y0162981D01*
X0156288Y0165375D02*
X0156888Y0165375D01*
X0156888Y0165974D02*
X0156288Y0165974D01*
X0156288Y0166572D02*
X0156888Y0166572D01*
X0156888Y0167171D02*
X0156288Y0167171D01*
X0156288Y0167769D02*
X0156888Y0167769D01*
X0156888Y0168368D02*
X0156288Y0168368D01*
X0156288Y0168966D02*
X0156888Y0168966D01*
X0156888Y0169565D02*
X0156288Y0169565D01*
X0161530Y0170762D02*
X0168153Y0170762D01*
X0168752Y0171360D02*
X0161404Y0171360D01*
X0161202Y0171959D02*
X0169350Y0171959D01*
X0169388Y0172557D02*
X0160897Y0172557D01*
X0160476Y0173156D02*
X0169388Y0173156D01*
X0169388Y0173754D02*
X0159905Y0173754D01*
X0159059Y0174353D02*
X0169388Y0174353D01*
X0170588Y0172500D02*
X0170588Y0171500D01*
X0169088Y0170000D01*
X0169088Y0160000D01*
X0156588Y0160000D01*
X0160828Y0161784D02*
X0167888Y0161784D01*
X0167888Y0162383D02*
X0160580Y0162383D01*
X0160113Y0162981D02*
X0167888Y0162981D01*
X0167888Y0163580D02*
X0159514Y0163580D01*
X0158522Y0164178D02*
X0167888Y0164178D01*
X0170288Y0164178D02*
X0171279Y0164178D01*
X0171192Y0164048D02*
X0170946Y0163453D01*
X0170820Y0162822D01*
X0170820Y0162700D01*
X0173888Y0162700D01*
X0173888Y0162300D01*
X0170820Y0162300D01*
X0170820Y0162178D01*
X0170946Y0161547D01*
X0171192Y0160952D01*
X0171550Y0160416D01*
X0172005Y0159961D01*
X0172297Y0159766D01*
X0171657Y0159125D01*
X0171220Y0158071D01*
X0171220Y0156929D01*
X0171657Y0155875D01*
X0172297Y0155234D01*
X0172005Y0155039D01*
X0171550Y0154584D01*
X0171192Y0154048D01*
X0170946Y0153453D01*
X0170820Y0152822D01*
X0170820Y0152700D01*
X0173888Y0152700D01*
X0173888Y0152300D01*
X0170820Y0152300D01*
X0170820Y0152178D01*
X0170946Y0151547D01*
X0171192Y0150952D01*
X0171550Y0150416D01*
X0172005Y0149961D01*
X0172540Y0149603D01*
X0173135Y0149357D01*
X0173766Y0149231D01*
X0173888Y0149231D01*
X0173888Y0152300D01*
X0174288Y0152300D01*
X0174288Y0149231D01*
X0174410Y0149231D01*
X0175042Y0149357D01*
X0175637Y0149603D01*
X0176172Y0149961D01*
X0176627Y0150416D01*
X0176823Y0150709D01*
X0177464Y0150068D01*
X0178518Y0149631D01*
X0179659Y0149631D01*
X0180713Y0150068D01*
X0181520Y0150875D01*
X0181957Y0151929D01*
X0181957Y0153071D01*
X0181781Y0153495D01*
X0182388Y0154103D01*
X0182388Y0150600D01*
X0182219Y0150600D01*
X0180988Y0149370D01*
X0180988Y0147630D01*
X0181888Y0146730D01*
X0181888Y0146503D01*
X0182591Y0145800D01*
X0183291Y0145100D01*
X0170658Y0145100D01*
X0171188Y0145630D01*
X0171188Y0147370D01*
X0170288Y0148270D01*
X0170288Y0169503D01*
X0171085Y0170300D01*
X0171659Y0170873D01*
X0172297Y0170234D01*
X0172005Y0170039D01*
X0171550Y0169584D01*
X0171192Y0169048D01*
X0170946Y0168453D01*
X0170820Y0167822D01*
X0170820Y0167700D01*
X0173888Y0167700D01*
X0173888Y0167300D01*
X0170820Y0167300D01*
X0170820Y0167178D01*
X0170946Y0166547D01*
X0171192Y0165952D01*
X0171550Y0165416D01*
X0171966Y0165000D01*
X0171550Y0164584D01*
X0171192Y0164048D01*
X0170998Y0163580D02*
X0170288Y0163580D01*
X0170288Y0162981D02*
X0170852Y0162981D01*
X0170288Y0162383D02*
X0173888Y0162383D01*
X0173888Y0162700D02*
X0173888Y0167300D01*
X0174288Y0167300D01*
X0174288Y0164231D01*
X0174288Y0162700D01*
X0173888Y0162700D01*
X0173888Y0162981D02*
X0174288Y0162981D01*
X0174288Y0163580D02*
X0173888Y0163580D01*
X0173888Y0164178D02*
X0174288Y0164178D01*
X0174288Y0164777D02*
X0173888Y0164777D01*
X0173888Y0165375D02*
X0174288Y0165375D01*
X0174288Y0165974D02*
X0173888Y0165974D01*
X0173888Y0166572D02*
X0174288Y0166572D01*
X0174288Y0167171D02*
X0173888Y0167171D01*
X0171591Y0165375D02*
X0170288Y0165375D01*
X0170288Y0164777D02*
X0171743Y0164777D01*
X0171183Y0165974D02*
X0170288Y0165974D01*
X0170288Y0166572D02*
X0170940Y0166572D01*
X0170821Y0167171D02*
X0170288Y0167171D01*
X0170288Y0167769D02*
X0170820Y0167769D01*
X0170928Y0168368D02*
X0170288Y0168368D01*
X0170288Y0168966D02*
X0171158Y0168966D01*
X0171537Y0169565D02*
X0170350Y0169565D01*
X0170949Y0170163D02*
X0172191Y0170163D01*
X0171770Y0170762D02*
X0171547Y0170762D01*
X0175666Y0174951D02*
X0177511Y0174951D01*
X0176885Y0174353D02*
X0176292Y0174353D01*
X0179088Y0172500D02*
X0181588Y0175000D01*
X0197021Y0175000D01*
X0198650Y0173031D02*
X0193872Y0173031D01*
X0197021Y0171063D02*
X0199651Y0171063D01*
X0201588Y0173000D01*
X0200719Y0175100D02*
X0198650Y0173031D01*
X0200719Y0175100D02*
X0202488Y0175100D01*
X0204820Y0172769D01*
X0208026Y0172769D01*
X0208129Y0172666D01*
X0206088Y0174869D02*
X0206220Y0175000D01*
X0212795Y0175000D01*
X0214795Y0173000D01*
X0222655Y0173000D01*
X0224655Y0175000D01*
X0226155Y0175000D01*
X0230588Y0175000D01*
X0231603Y0173985D01*
X0240073Y0173985D01*
X0241688Y0172370D01*
X0241688Y0168900D01*
X0243439Y0167150D01*
X0243439Y0163071D01*
X0243439Y0161071D01*
X0240939Y0158571D01*
X0240939Y0149429D01*
X0243439Y0146929D01*
X0243439Y0134331D01*
X0244188Y0133582D01*
X0244188Y0121380D01*
X0241088Y0118280D01*
X0241088Y0115000D01*
X0239416Y0116297D02*
X0236888Y0116297D01*
X0236888Y0116247D02*
X0236888Y0116847D01*
X0236288Y0116847D01*
X0236288Y0119816D01*
X0234962Y0119816D01*
X0234481Y0119687D01*
X0234050Y0119438D01*
X0233698Y0119086D01*
X0233449Y0118655D01*
X0233320Y0118174D01*
X0233320Y0117100D01*
X0231719Y0117100D01*
X0230788Y0116170D01*
X0230788Y0118230D01*
X0231688Y0119130D01*
X0231688Y0120870D01*
X0230458Y0122100D01*
X0229457Y0122100D01*
X0229457Y0123800D01*
X0230319Y0123800D01*
X0231219Y0122900D01*
X0232958Y0122900D01*
X0233720Y0123662D01*
X0233720Y0121457D01*
X0234593Y0120584D01*
X0238584Y0120584D01*
X0239457Y0121457D01*
X0239457Y0125448D01*
X0238732Y0126173D01*
X0239188Y0126630D01*
X0239188Y0128370D01*
X0237958Y0129600D01*
X0236219Y0129600D01*
X0235828Y0129210D01*
X0235857Y0129317D01*
X0235857Y0131354D01*
X0232888Y0131354D01*
X0232888Y0131954D01*
X0232288Y0131954D01*
X0232288Y0135119D01*
X0230449Y0135119D01*
X0230118Y0135030D01*
X0229822Y0134859D01*
X0229631Y0134669D01*
X0229571Y0134892D01*
X0229400Y0135188D01*
X0229260Y0135328D01*
X0229260Y0139329D01*
X0228733Y0139857D01*
X0224444Y0139857D01*
X0223941Y0139353D01*
X0223851Y0139443D01*
X0222788Y0139443D01*
X0222788Y0140497D01*
X0222085Y0141200D01*
X0220688Y0142597D01*
X0220688Y0144873D01*
X0222631Y0146815D01*
X0222631Y0147368D01*
X0223118Y0147856D01*
X0223118Y0150478D01*
X0223681Y0150478D01*
X0223681Y0147856D01*
X0224168Y0147368D01*
X0224168Y0147223D01*
X0225410Y0145981D01*
X0224910Y0145981D01*
X0224910Y0143791D01*
X0224329Y0143791D01*
X0224329Y0145981D01*
X0223268Y0145981D01*
X0222937Y0145892D01*
X0222641Y0145721D01*
X0222399Y0145479D01*
X0222227Y0145183D01*
X0222139Y0144852D01*
X0222139Y0143791D01*
X0224329Y0143791D01*
X0224329Y0143209D01*
X0224910Y0143209D01*
X0224910Y0141019D01*
X0225972Y0141019D01*
X0226303Y0141107D01*
X0226599Y0141279D01*
X0226841Y0141521D01*
X0226863Y0141559D01*
X0227003Y0141419D01*
X0230111Y0141419D01*
X0230588Y0141897D01*
X0231066Y0141419D01*
X0231388Y0141419D01*
X0231388Y0141412D01*
X0230247Y0141412D01*
X0229720Y0140885D01*
X0229720Y0135808D01*
X0230247Y0135281D01*
X0234930Y0135281D01*
X0235457Y0135808D01*
X0235457Y0140885D01*
X0235323Y0141019D01*
X0236266Y0141019D01*
X0236266Y0143209D01*
X0236847Y0143209D01*
X0236847Y0141019D01*
X0237888Y0141019D01*
X0237888Y0131753D01*
X0240639Y0129003D01*
X0240639Y0128770D01*
X0239739Y0127870D01*
X0239739Y0126130D01*
X0240969Y0124900D01*
X0242709Y0124900D01*
X0242988Y0125180D01*
X0242988Y0121877D01*
X0239888Y0118777D01*
X0239888Y0116770D01*
X0239366Y0116247D01*
X0236888Y0116247D01*
X0236888Y0116847D02*
X0239857Y0116847D01*
X0239857Y0118174D01*
X0239728Y0118655D01*
X0239479Y0119086D01*
X0239127Y0119438D01*
X0238696Y0119687D01*
X0238215Y0119816D01*
X0236888Y0119816D01*
X0236888Y0116847D01*
X0236888Y0116896D02*
X0236288Y0116896D01*
X0236288Y0117494D02*
X0236888Y0117494D01*
X0236888Y0118093D02*
X0236288Y0118093D01*
X0236288Y0118691D02*
X0236888Y0118691D01*
X0236888Y0119290D02*
X0236288Y0119290D01*
X0233901Y0119290D02*
X0231688Y0119290D01*
X0231688Y0119888D02*
X0241000Y0119888D01*
X0240401Y0119290D02*
X0239275Y0119290D01*
X0239707Y0118691D02*
X0239888Y0118691D01*
X0239857Y0118093D02*
X0239888Y0118093D01*
X0239857Y0117494D02*
X0239888Y0117494D01*
X0239857Y0116896D02*
X0239888Y0116896D01*
X0235288Y0112300D02*
X0232588Y0115000D01*
X0230916Y0116297D02*
X0230788Y0116297D01*
X0230788Y0116896D02*
X0231514Y0116896D01*
X0230788Y0117494D02*
X0233320Y0117494D01*
X0233320Y0118093D02*
X0230788Y0118093D01*
X0231250Y0118691D02*
X0233470Y0118691D01*
X0234092Y0121085D02*
X0231473Y0121085D01*
X0231688Y0120487D02*
X0241598Y0120487D01*
X0242197Y0121085D02*
X0239085Y0121085D01*
X0239457Y0121684D02*
X0242795Y0121684D01*
X0242988Y0122282D02*
X0239457Y0122282D01*
X0239457Y0122881D02*
X0242988Y0122881D01*
X0242988Y0123479D02*
X0239457Y0123479D01*
X0239457Y0124078D02*
X0242988Y0124078D01*
X0242988Y0124676D02*
X0239457Y0124676D01*
X0239457Y0125275D02*
X0240594Y0125275D01*
X0239995Y0125873D02*
X0239032Y0125873D01*
X0239030Y0126472D02*
X0239739Y0126472D01*
X0239739Y0127070D02*
X0239188Y0127070D01*
X0239188Y0127669D02*
X0239739Y0127669D01*
X0240136Y0128268D02*
X0239188Y0128268D01*
X0238692Y0128866D02*
X0240639Y0128866D01*
X0240177Y0129465D02*
X0238094Y0129465D01*
X0238980Y0130662D02*
X0235857Y0130662D01*
X0235857Y0131260D02*
X0238382Y0131260D01*
X0237888Y0131859D02*
X0232888Y0131859D01*
X0232888Y0131954D02*
X0235857Y0131954D01*
X0235857Y0133990D01*
X0235768Y0134321D01*
X0235597Y0134617D01*
X0235355Y0134859D01*
X0235059Y0135030D01*
X0234728Y0135119D01*
X0232888Y0135119D01*
X0232888Y0131954D01*
X0232588Y0131654D02*
X0229935Y0131654D01*
X0228872Y0132717D01*
X0226588Y0132717D01*
X0226888Y0132457D02*
X0229320Y0132457D01*
X0229320Y0132417D02*
X0226888Y0132417D01*
X0226888Y0132416D02*
X0226888Y0129743D01*
X0228531Y0129743D01*
X0228862Y0129832D01*
X0229158Y0130003D01*
X0229320Y0130165D01*
X0229320Y0129700D01*
X0222358Y0129700D01*
X0221502Y0130557D01*
X0223601Y0130557D01*
X0223605Y0130542D01*
X0223777Y0130245D01*
X0224019Y0130003D01*
X0224315Y0129832D01*
X0224646Y0129743D01*
X0226288Y0129743D01*
X0226288Y0132416D01*
X0226888Y0132416D01*
X0226888Y0132417D02*
X0226888Y0133016D01*
X0229320Y0133016D01*
X0229320Y0132417D01*
X0229660Y0131954D02*
X0232288Y0131954D01*
X0232288Y0131354D01*
X0229660Y0131354D01*
X0229660Y0131954D01*
X0229660Y0131859D02*
X0232288Y0131859D01*
X0232288Y0132457D02*
X0232888Y0132457D01*
X0232888Y0133056D02*
X0232288Y0133056D01*
X0232288Y0133654D02*
X0232888Y0133654D01*
X0232888Y0134253D02*
X0232288Y0134253D01*
X0232288Y0134851D02*
X0232888Y0134851D01*
X0235098Y0135450D02*
X0237888Y0135450D01*
X0237888Y0136048D02*
X0235457Y0136048D01*
X0235457Y0136647D02*
X0237888Y0136647D01*
X0237888Y0137245D02*
X0235457Y0137245D01*
X0235457Y0137844D02*
X0237888Y0137844D01*
X0237888Y0138442D02*
X0235457Y0138442D01*
X0235457Y0139041D02*
X0237888Y0139041D01*
X0237888Y0139639D02*
X0235457Y0139639D01*
X0235457Y0140238D02*
X0237888Y0140238D01*
X0237888Y0140836D02*
X0235457Y0140836D01*
X0236266Y0141435D02*
X0236847Y0141435D01*
X0236847Y0142033D02*
X0236266Y0142033D01*
X0236266Y0142632D02*
X0236847Y0142632D01*
X0236847Y0143791D02*
X0236266Y0143791D01*
X0236266Y0145981D01*
X0235205Y0145981D01*
X0234874Y0145892D01*
X0234688Y0145785D01*
X0234688Y0147370D01*
X0233458Y0148600D01*
X0231786Y0148600D01*
X0231786Y0149119D01*
X0229596Y0149119D01*
X0229596Y0149700D01*
X0231786Y0149700D01*
X0231786Y0150762D01*
X0231697Y0151092D01*
X0231526Y0151389D01*
X0231340Y0151575D01*
X0231526Y0151761D01*
X0231697Y0152057D01*
X0231786Y0152388D01*
X0231786Y0152605D01*
X0237888Y0146503D01*
X0237888Y0145981D01*
X0236847Y0145981D01*
X0236847Y0143791D01*
X0236847Y0143829D02*
X0236266Y0143829D01*
X0236266Y0144427D02*
X0236847Y0144427D01*
X0236847Y0145026D02*
X0236266Y0145026D01*
X0236266Y0145624D02*
X0236847Y0145624D01*
X0237888Y0146223D02*
X0234688Y0146223D01*
X0234688Y0146821D02*
X0237570Y0146821D01*
X0236971Y0147420D02*
X0234638Y0147420D01*
X0234040Y0148018D02*
X0236373Y0148018D01*
X0235774Y0148617D02*
X0231786Y0148617D01*
X0231786Y0149814D02*
X0234577Y0149814D01*
X0233979Y0150412D02*
X0231786Y0150412D01*
X0231719Y0151011D02*
X0233380Y0151011D01*
X0232782Y0151609D02*
X0231375Y0151609D01*
X0231738Y0152208D02*
X0232183Y0152208D01*
X0229595Y0151259D02*
X0229595Y0149700D01*
X0229014Y0149700D01*
X0229014Y0151259D01*
X0229211Y0151259D01*
X0229211Y0153253D01*
X0226824Y0153253D01*
X0226824Y0152388D01*
X0226912Y0152057D01*
X0227084Y0151761D01*
X0227270Y0151575D01*
X0227084Y0151389D01*
X0226918Y0151101D01*
X0226528Y0151491D01*
X0226165Y0151491D01*
X0225087Y0152569D01*
X0225087Y0153628D01*
X0226824Y0153628D01*
X0226824Y0153440D01*
X0229211Y0153440D01*
X0229211Y0153253D01*
X0229399Y0153253D01*
X0229399Y0151259D01*
X0229595Y0151259D01*
X0229595Y0151011D02*
X0229014Y0151011D01*
X0229014Y0150412D02*
X0229595Y0150412D01*
X0229595Y0149814D02*
X0229014Y0149814D01*
X0229014Y0149119D02*
X0229595Y0149119D01*
X0229595Y0146928D01*
X0230488Y0146928D01*
X0230488Y0145630D01*
X0230802Y0145317D01*
X0230588Y0145103D01*
X0230111Y0145581D01*
X0229204Y0145581D01*
X0227822Y0146963D01*
X0227953Y0146928D01*
X0229014Y0146928D01*
X0229014Y0149119D01*
X0229014Y0148617D02*
X0229595Y0148617D01*
X0229596Y0149215D02*
X0235176Y0149215D01*
X0239088Y0147000D02*
X0239088Y0132250D01*
X0241839Y0129500D01*
X0241839Y0127000D01*
X0245388Y0128106D02*
X0247588Y0125906D01*
X0251588Y0125906D01*
X0251538Y0129581D02*
X0248811Y0129581D01*
X0246788Y0131603D01*
X0246788Y0136170D01*
X0245839Y0136917D02*
X0245839Y0142053D01*
X0247643Y0143857D01*
X0249438Y0143857D01*
X0249438Y0146629D01*
X0250038Y0146629D01*
X0250038Y0143857D01*
X0251878Y0143857D01*
X0252208Y0143946D01*
X0252505Y0144117D01*
X0252747Y0144359D01*
X0252918Y0144656D01*
X0253007Y0144986D01*
X0253007Y0146629D01*
X0250038Y0146629D01*
X0250038Y0147229D01*
X0253007Y0147229D01*
X0253007Y0148872D01*
X0252918Y0149203D01*
X0252747Y0149499D01*
X0252505Y0149741D01*
X0252208Y0149912D01*
X0251878Y0150001D01*
X0250038Y0150001D01*
X0250038Y0147229D01*
X0249438Y0147229D01*
X0249438Y0150001D01*
X0247598Y0150001D01*
X0247351Y0149934D01*
X0246385Y0150901D01*
X0251582Y0150901D01*
X0253388Y0149095D01*
X0253388Y0139997D01*
X0253191Y0139800D01*
X0248721Y0139800D01*
X0248019Y0139097D01*
X0246291Y0137370D01*
X0245839Y0136917D01*
X0245839Y0137245D02*
X0246167Y0137245D01*
X0246291Y0137370D02*
X0246291Y0137370D01*
X0245839Y0137844D02*
X0246765Y0137844D01*
X0247364Y0138442D02*
X0245839Y0138442D01*
X0245839Y0139041D02*
X0247962Y0139041D01*
X0248561Y0139639D02*
X0245839Y0139639D01*
X0245839Y0140238D02*
X0253388Y0140238D01*
X0253388Y0140836D02*
X0245839Y0140836D01*
X0245839Y0141435D02*
X0253388Y0141435D01*
X0253388Y0142033D02*
X0245839Y0142033D01*
X0246417Y0142632D02*
X0253388Y0142632D01*
X0253388Y0143230D02*
X0247016Y0143230D01*
X0247614Y0143829D02*
X0253388Y0143829D01*
X0253388Y0144427D02*
X0252786Y0144427D01*
X0253007Y0145026D02*
X0253388Y0145026D01*
X0253388Y0145624D02*
X0253007Y0145624D01*
X0253007Y0146223D02*
X0253388Y0146223D01*
X0253388Y0146821D02*
X0250038Y0146821D01*
X0250038Y0146223D02*
X0249438Y0146223D01*
X0249438Y0145624D02*
X0250038Y0145624D01*
X0250038Y0145026D02*
X0249438Y0145026D01*
X0249438Y0144427D02*
X0250038Y0144427D01*
X0246588Y0144500D02*
X0244639Y0142550D01*
X0244639Y0134829D01*
X0245388Y0134079D01*
X0245388Y0128106D01*
X0239579Y0130063D02*
X0235857Y0130063D01*
X0235857Y0129465D02*
X0236083Y0129465D01*
X0237088Y0127500D02*
X0237088Y0123953D01*
X0236588Y0123453D01*
X0233720Y0123479D02*
X0233538Y0123479D01*
X0233720Y0122881D02*
X0229457Y0122881D01*
X0229457Y0123479D02*
X0230639Y0123479D01*
X0229457Y0122282D02*
X0233720Y0122282D01*
X0233720Y0121684D02*
X0230874Y0121684D01*
X0229588Y0120000D02*
X0229588Y0112500D01*
X0229588Y0112400D01*
X0229565Y0109900D02*
X0229565Y0109827D01*
X0231191Y0108200D01*
X0243288Y0108200D01*
X0243588Y0108500D01*
X0242397Y0106721D02*
X0220958Y0106721D01*
X0220360Y0107320D02*
X0230375Y0107320D01*
X0228577Y0107918D02*
X0219761Y0107918D01*
X0216797Y0108517D02*
X0227978Y0108517D01*
X0227465Y0110312D02*
X0226970Y0110312D01*
X0225206Y0110312D02*
X0212870Y0110312D01*
X0211588Y0112000D02*
X0211088Y0112000D01*
X0209819Y0113200D02*
X0204585Y0113200D01*
X0204488Y0113297D01*
X0204488Y0113783D01*
X0204593Y0113679D01*
X0208584Y0113679D01*
X0209457Y0114552D01*
X0209457Y0117719D01*
X0209954Y0118216D01*
X0210657Y0118919D01*
X0210657Y0125945D01*
X0210288Y0126314D01*
X0210288Y0127230D01*
X0211188Y0128130D01*
X0211188Y0129870D01*
X0210502Y0130557D01*
X0214008Y0130557D01*
X0214536Y0131084D01*
X0214536Y0138916D01*
X0214008Y0139443D01*
X0213229Y0139443D01*
X0218288Y0144503D01*
X0218288Y0141603D01*
X0220388Y0139503D01*
X0220388Y0139443D01*
X0219168Y0139443D01*
X0218641Y0138916D01*
X0218641Y0131084D01*
X0219168Y0130557D01*
X0219675Y0130557D01*
X0218488Y0129370D01*
X0218488Y0129097D01*
X0215713Y0126321D01*
X0214593Y0126321D01*
X0213720Y0125448D01*
X0213720Y0121457D01*
X0214593Y0120584D01*
X0217488Y0120584D01*
X0217488Y0119416D01*
X0214593Y0119416D01*
X0213720Y0118543D01*
X0213720Y0114552D01*
X0214593Y0113679D01*
X0218584Y0113679D01*
X0219457Y0114552D01*
X0219457Y0115769D01*
X0219585Y0115769D01*
X0219888Y0116071D01*
X0219888Y0114630D01*
X0221019Y0113500D01*
X0213058Y0113500D01*
X0212458Y0114100D01*
X0210719Y0114100D01*
X0209819Y0113200D01*
X0209923Y0113305D02*
X0204488Y0113305D01*
X0206588Y0116547D02*
X0209457Y0119416D01*
X0209457Y0125448D01*
X0209088Y0125817D01*
X0209088Y0129000D01*
X0211188Y0128866D02*
X0218257Y0128866D01*
X0218583Y0129465D02*
X0211188Y0129465D01*
X0210995Y0130063D02*
X0219182Y0130063D01*
X0219064Y0130662D02*
X0214113Y0130662D01*
X0214536Y0131260D02*
X0218641Y0131260D01*
X0218641Y0131859D02*
X0214536Y0131859D01*
X0214536Y0132457D02*
X0218641Y0132457D01*
X0218641Y0133056D02*
X0214536Y0133056D01*
X0214536Y0133654D02*
X0218641Y0133654D01*
X0218641Y0134253D02*
X0214536Y0134253D01*
X0214536Y0134851D02*
X0218641Y0134851D01*
X0218641Y0135450D02*
X0214536Y0135450D01*
X0214536Y0136048D02*
X0218641Y0136048D01*
X0218641Y0136647D02*
X0214536Y0136647D01*
X0214536Y0137245D02*
X0218641Y0137245D01*
X0218641Y0137844D02*
X0214536Y0137844D01*
X0214536Y0138442D02*
X0218641Y0138442D01*
X0218766Y0139041D02*
X0214411Y0139041D01*
X0213425Y0139639D02*
X0220252Y0139639D01*
X0219654Y0140238D02*
X0214023Y0140238D01*
X0214622Y0140836D02*
X0219055Y0140836D01*
X0218457Y0141435D02*
X0215220Y0141435D01*
X0215819Y0142033D02*
X0218288Y0142033D01*
X0218288Y0142632D02*
X0216417Y0142632D01*
X0217016Y0143230D02*
X0218288Y0143230D01*
X0218288Y0143829D02*
X0217614Y0143829D01*
X0218213Y0144427D02*
X0218288Y0144427D01*
X0219488Y0145370D02*
X0219488Y0142100D01*
X0221588Y0140000D01*
X0221588Y0136157D01*
X0221431Y0136000D01*
X0221431Y0135079D01*
X0221510Y0135000D01*
X0221431Y0136000D02*
X0221431Y0137000D01*
X0226305Y0137000D01*
X0226588Y0137283D01*
X0229260Y0137245D02*
X0229720Y0137245D01*
X0229720Y0136647D02*
X0229260Y0136647D01*
X0229260Y0136048D02*
X0229720Y0136048D01*
X0230079Y0135450D02*
X0229260Y0135450D01*
X0229582Y0134851D02*
X0229814Y0134851D01*
X0229720Y0137844D02*
X0229260Y0137844D01*
X0229260Y0138442D02*
X0229720Y0138442D01*
X0229720Y0139041D02*
X0229260Y0139041D01*
X0228950Y0139639D02*
X0229720Y0139639D01*
X0229720Y0140238D02*
X0222788Y0140238D01*
X0222788Y0139639D02*
X0224227Y0139639D01*
X0224329Y0141019D02*
X0223268Y0141019D01*
X0222937Y0141107D01*
X0222641Y0141279D01*
X0222399Y0141521D01*
X0222227Y0141817D01*
X0222139Y0142148D01*
X0222139Y0143209D01*
X0224329Y0143209D01*
X0224329Y0141019D01*
X0224329Y0141435D02*
X0224910Y0141435D01*
X0224910Y0142033D02*
X0224329Y0142033D01*
X0224329Y0142632D02*
X0224910Y0142632D01*
X0224329Y0143230D02*
X0220688Y0143230D01*
X0220688Y0142632D02*
X0222139Y0142632D01*
X0222169Y0142033D02*
X0221252Y0142033D01*
X0221851Y0141435D02*
X0222484Y0141435D01*
X0222449Y0140836D02*
X0229720Y0140836D01*
X0230127Y0141435D02*
X0231050Y0141435D01*
X0232588Y0143469D02*
X0232588Y0138346D01*
X0236588Y0138500D02*
X0236588Y0132000D01*
X0235857Y0132457D02*
X0237888Y0132457D01*
X0237888Y0133056D02*
X0235857Y0133056D01*
X0235857Y0133654D02*
X0237888Y0133654D01*
X0237888Y0134253D02*
X0235787Y0134253D01*
X0235363Y0134851D02*
X0237888Y0134851D01*
X0240570Y0134018D02*
X0240570Y0148101D01*
X0231387Y0157283D01*
X0229305Y0157283D01*
X0227224Y0157002D02*
X0227224Y0157565D01*
X0224601Y0157565D01*
X0224074Y0158092D01*
X0224074Y0160412D01*
X0224601Y0160939D01*
X0227224Y0160939D01*
X0227224Y0161502D01*
X0224601Y0161502D01*
X0224074Y0162029D01*
X0224074Y0164349D01*
X0224601Y0164876D01*
X0227224Y0164876D01*
X0227224Y0165439D01*
X0224601Y0165439D01*
X0224074Y0165966D01*
X0224074Y0168286D01*
X0224601Y0168813D01*
X0226824Y0168813D01*
X0226824Y0169001D01*
X0229211Y0169001D01*
X0229211Y0169188D01*
X0226824Y0169188D01*
X0226824Y0169376D01*
X0224601Y0169376D01*
X0224074Y0169903D01*
X0224074Y0172223D01*
X0224601Y0172750D01*
X0227224Y0172750D01*
X0227224Y0173313D01*
X0224665Y0173313D01*
X0223152Y0171800D01*
X0214688Y0171800D01*
X0214688Y0171130D01*
X0213458Y0169900D01*
X0212185Y0169900D01*
X0210883Y0168597D01*
X0210180Y0167894D01*
X0199103Y0167894D01*
X0199103Y0165966D01*
X0198575Y0165439D01*
X0195953Y0165439D01*
X0195953Y0164876D01*
X0198575Y0164876D01*
X0199103Y0164349D01*
X0199103Y0162029D01*
X0198575Y0161502D01*
X0195953Y0161502D01*
X0195953Y0160939D01*
X0198575Y0160939D01*
X0199063Y0160452D01*
X0204071Y0160452D01*
X0204719Y0161100D01*
X0206458Y0161100D01*
X0207688Y0159870D01*
X0207688Y0158130D01*
X0206458Y0156900D01*
X0204719Y0156900D01*
X0203567Y0158052D01*
X0199063Y0158052D01*
X0198575Y0157565D01*
X0195953Y0157565D01*
X0195953Y0157002D01*
X0198575Y0157002D01*
X0199103Y0156475D01*
X0199103Y0154640D01*
X0200938Y0154640D01*
X0201465Y0154113D01*
X0201465Y0151491D01*
X0202027Y0151491D01*
X0202027Y0154113D01*
X0202554Y0154640D01*
X0204875Y0154640D01*
X0205402Y0154113D01*
X0205402Y0151491D01*
X0205964Y0151491D01*
X0205964Y0154113D01*
X0206491Y0154640D01*
X0208812Y0154640D01*
X0209339Y0154113D01*
X0209339Y0151491D01*
X0209901Y0151491D01*
X0209901Y0154113D01*
X0210203Y0154415D01*
X0209488Y0155130D01*
X0209488Y0156870D01*
X0210719Y0158100D01*
X0212458Y0158100D01*
X0213688Y0156870D01*
X0213688Y0155130D01*
X0212973Y0154415D01*
X0213276Y0154113D01*
X0213276Y0151491D01*
X0213838Y0151491D01*
X0213838Y0154113D01*
X0214365Y0154640D01*
X0216686Y0154640D01*
X0217213Y0154113D01*
X0217213Y0151491D01*
X0217775Y0151491D01*
X0217775Y0154113D01*
X0218302Y0154640D01*
X0220623Y0154640D01*
X0221150Y0154113D01*
X0221150Y0151491D01*
X0221712Y0151491D01*
X0221712Y0154113D01*
X0222239Y0154640D01*
X0224074Y0154640D01*
X0224074Y0156475D01*
X0224601Y0157002D01*
X0227224Y0157002D01*
X0226155Y0155315D02*
X0230773Y0155315D01*
X0239088Y0147000D01*
X0232588Y0146500D02*
X0232588Y0143531D01*
X0232620Y0143500D01*
X0228557Y0143500D01*
X0228557Y0144531D01*
X0225368Y0147720D01*
X0225368Y0149409D01*
X0225368Y0150591D01*
X0223399Y0152559D01*
X0221712Y0152806D02*
X0221150Y0152806D01*
X0221150Y0152208D02*
X0221712Y0152208D01*
X0221712Y0151609D02*
X0221150Y0151609D01*
X0221150Y0153405D02*
X0221712Y0153405D01*
X0221712Y0154003D02*
X0221150Y0154003D01*
X0220661Y0154602D02*
X0222201Y0154602D01*
X0224074Y0155201D02*
X0213688Y0155201D01*
X0213688Y0155799D02*
X0224074Y0155799D01*
X0224074Y0156398D02*
X0213688Y0156398D01*
X0213562Y0156996D02*
X0224595Y0156996D01*
X0224571Y0157595D02*
X0212964Y0157595D01*
X0211588Y0156000D02*
X0211588Y0152559D01*
X0209901Y0152806D02*
X0209339Y0152806D01*
X0209339Y0152208D02*
X0209901Y0152208D01*
X0209901Y0151609D02*
X0209339Y0151609D01*
X0209339Y0153405D02*
X0209901Y0153405D01*
X0209901Y0154003D02*
X0209339Y0154003D01*
X0208850Y0154602D02*
X0210017Y0154602D01*
X0209488Y0155201D02*
X0199103Y0155201D01*
X0199103Y0155799D02*
X0209488Y0155799D01*
X0209488Y0156398D02*
X0199103Y0156398D01*
X0198582Y0156996D02*
X0204623Y0156996D01*
X0204024Y0157595D02*
X0198605Y0157595D01*
X0197021Y0159252D02*
X0192340Y0159252D01*
X0186588Y0153500D01*
X0186588Y0151969D01*
X0188670Y0152208D02*
X0191791Y0152208D01*
X0191791Y0152186D02*
X0192180Y0151797D01*
X0191893Y0151631D01*
X0191651Y0151389D01*
X0191479Y0151092D01*
X0191391Y0150762D01*
X0191391Y0149700D01*
X0193581Y0149700D01*
X0193581Y0149119D01*
X0191391Y0149119D01*
X0191391Y0148057D01*
X0191479Y0147727D01*
X0191651Y0147430D01*
X0191893Y0147188D01*
X0192189Y0147017D01*
X0192520Y0146928D01*
X0193581Y0146928D01*
X0193581Y0149119D01*
X0194162Y0149119D01*
X0194162Y0146928D01*
X0194820Y0146928D01*
X0194591Y0146700D01*
X0189070Y0146700D01*
X0189070Y0147741D01*
X0186879Y0147741D01*
X0186879Y0148322D01*
X0189070Y0148322D01*
X0189070Y0149384D01*
X0188981Y0149714D01*
X0188810Y0150011D01*
X0188568Y0150253D01*
X0188530Y0150275D01*
X0188670Y0150415D01*
X0188670Y0153522D01*
X0188489Y0153703D01*
X0191791Y0157005D01*
X0191791Y0156123D01*
X0192318Y0155596D01*
X0194940Y0155596D01*
X0194940Y0155034D01*
X0192318Y0155034D01*
X0191791Y0154507D01*
X0191791Y0152186D01*
X0191871Y0151609D02*
X0188670Y0151609D01*
X0188670Y0151011D02*
X0191458Y0151011D01*
X0191391Y0150412D02*
X0188667Y0150412D01*
X0188923Y0149814D02*
X0191391Y0149814D01*
X0191391Y0148617D02*
X0189070Y0148617D01*
X0189070Y0149215D02*
X0193581Y0149215D01*
X0193581Y0148617D02*
X0194162Y0148617D01*
X0194162Y0148018D02*
X0193581Y0148018D01*
X0193581Y0147420D02*
X0194162Y0147420D01*
X0194713Y0146821D02*
X0189070Y0146821D01*
X0189070Y0147420D02*
X0191661Y0147420D01*
X0191401Y0148018D02*
X0186879Y0148018D01*
X0184588Y0145500D02*
X0195088Y0145500D01*
X0197809Y0148220D01*
X0197809Y0149409D01*
X0199777Y0147689D02*
X0195988Y0143900D01*
X0162688Y0143900D01*
X0156588Y0150000D01*
X0159088Y0142500D02*
X0156588Y0140000D01*
X0159088Y0142500D02*
X0198078Y0142500D01*
X0203714Y0148137D01*
X0203714Y0152559D01*
X0202027Y0152806D02*
X0201465Y0152806D01*
X0201465Y0152208D02*
X0202027Y0152208D01*
X0202027Y0151609D02*
X0201465Y0151609D01*
X0201465Y0153405D02*
X0202027Y0153405D01*
X0202027Y0154003D02*
X0201465Y0154003D01*
X0200976Y0154602D02*
X0202516Y0154602D01*
X0204913Y0154602D02*
X0206453Y0154602D01*
X0205964Y0154003D02*
X0205402Y0154003D01*
X0205402Y0153405D02*
X0205964Y0153405D01*
X0205964Y0152806D02*
X0205402Y0152806D01*
X0205402Y0152208D02*
X0205964Y0152208D01*
X0205964Y0151609D02*
X0205402Y0151609D01*
X0207370Y0152278D02*
X0207370Y0147856D01*
X0200815Y0141300D01*
X0167888Y0141300D01*
X0156588Y0130000D01*
X0156588Y0120000D02*
X0176688Y0140100D01*
X0208989Y0140100D01*
X0215525Y0146637D01*
X0215525Y0152559D01*
X0213838Y0152806D02*
X0213276Y0152806D01*
X0213276Y0152208D02*
X0213838Y0152208D01*
X0213838Y0151609D02*
X0213276Y0151609D01*
X0213276Y0153405D02*
X0213838Y0153405D01*
X0213838Y0154003D02*
X0213276Y0154003D01*
X0213160Y0154602D02*
X0214327Y0154602D01*
X0216724Y0154602D02*
X0218264Y0154602D01*
X0217775Y0154003D02*
X0217213Y0154003D01*
X0217213Y0153405D02*
X0217775Y0153405D01*
X0217775Y0152806D02*
X0217213Y0152806D01*
X0217213Y0152208D02*
X0217775Y0152208D01*
X0217775Y0151609D02*
X0217213Y0151609D01*
X0219462Y0152559D02*
X0219462Y0147374D01*
X0211667Y0139579D01*
X0211667Y0135000D01*
X0211667Y0137421D01*
X0211588Y0137500D01*
X0211372Y0137283D01*
X0206088Y0137283D01*
X0194591Y0127300D02*
X0191088Y0130803D01*
X0194591Y0127300D02*
X0200288Y0127300D01*
X0206588Y0127000D02*
X0206588Y0123453D01*
X0210657Y0123479D02*
X0213720Y0123479D01*
X0213720Y0122881D02*
X0210657Y0122881D01*
X0210657Y0122282D02*
X0213720Y0122282D01*
X0213720Y0121684D02*
X0210657Y0121684D01*
X0210657Y0121085D02*
X0214092Y0121085D01*
X0214467Y0119290D02*
X0210657Y0119290D01*
X0210657Y0119888D02*
X0217488Y0119888D01*
X0217488Y0120487D02*
X0210657Y0120487D01*
X0210430Y0118691D02*
X0213869Y0118691D01*
X0213720Y0118093D02*
X0209831Y0118093D01*
X0209457Y0117494D02*
X0213720Y0117494D01*
X0213720Y0116896D02*
X0209457Y0116896D01*
X0209457Y0116297D02*
X0213720Y0116297D01*
X0213720Y0115699D02*
X0209457Y0115699D01*
X0209457Y0115100D02*
X0213720Y0115100D01*
X0213770Y0114502D02*
X0209407Y0114502D01*
X0208808Y0113903D02*
X0210522Y0113903D01*
X0212655Y0113903D02*
X0214369Y0113903D01*
X0216588Y0116547D02*
X0216588Y0116969D01*
X0219088Y0116969D01*
X0219588Y0117469D01*
X0219588Y0120000D01*
X0219457Y0115699D02*
X0219888Y0115699D01*
X0219888Y0115100D02*
X0219457Y0115100D01*
X0219407Y0114502D02*
X0220017Y0114502D01*
X0220615Y0113903D02*
X0218808Y0113903D01*
X0221988Y0115500D02*
X0225541Y0115500D01*
X0226588Y0116547D01*
X0235288Y0112300D02*
X0241388Y0112300D01*
X0246088Y0117000D01*
X0246088Y0121000D01*
X0247057Y0121969D01*
X0251588Y0121969D01*
X0251588Y0118031D02*
X0258557Y0118031D01*
X0259588Y0117000D01*
X0257920Y0115699D02*
X0255478Y0115699D01*
X0255546Y0115100D02*
X0258518Y0115100D01*
X0257488Y0116297D02*
X0255063Y0116297D01*
X0251879Y0113305D02*
X0251298Y0113305D01*
X0251298Y0112706D02*
X0251879Y0112706D01*
X0251879Y0112108D02*
X0251298Y0112108D01*
X0255279Y0112108D02*
X0261616Y0112108D01*
X0255536Y0112706D02*
X0270288Y0112706D01*
X0260588Y0121000D02*
X0260588Y0124000D01*
X0251088Y0133500D01*
X0248907Y0133500D01*
X0250526Y0134851D02*
X0253470Y0134851D01*
X0252871Y0134253D02*
X0252033Y0134253D01*
X0249927Y0135450D02*
X0255341Y0135450D01*
X0254603Y0133015D02*
X0258588Y0137000D01*
X0265088Y0137000D01*
X0263669Y0135450D02*
X0258735Y0135450D01*
X0246588Y0144500D02*
X0246588Y0149000D01*
X0242588Y0153000D01*
X0242588Y0158000D01*
X0244988Y0160399D01*
X0245780Y0160399D01*
X0246588Y0161208D01*
X0246588Y0167500D01*
X0242888Y0171200D01*
X0242888Y0172867D01*
X0239755Y0176000D01*
X0232588Y0176000D01*
X0232588Y0176085D01*
X0234298Y0177345D02*
X0242788Y0177345D01*
X0242788Y0176747D02*
X0240705Y0176747D01*
X0241304Y0176148D02*
X0242788Y0176148D01*
X0242788Y0175550D02*
X0241902Y0175550D01*
X0242501Y0174951D02*
X0242970Y0174951D01*
X0243099Y0174353D02*
X0243569Y0174353D01*
X0243698Y0173754D02*
X0244167Y0173754D01*
X0244088Y0173156D02*
X0244766Y0173156D01*
X0245364Y0172557D02*
X0244088Y0172557D01*
X0244088Y0171959D02*
X0245963Y0171959D01*
X0246561Y0171360D02*
X0244425Y0171360D01*
X0245024Y0170762D02*
X0247160Y0170762D01*
X0247758Y0170163D02*
X0245622Y0170163D01*
X0246221Y0169565D02*
X0248357Y0169565D01*
X0248955Y0168966D02*
X0246819Y0168966D01*
X0247085Y0168700D02*
X0247085Y0168700D01*
X0247418Y0168368D02*
X0249554Y0168368D01*
X0250152Y0167769D02*
X0247788Y0167769D01*
X0247788Y0167171D02*
X0250751Y0167171D01*
X0251349Y0166572D02*
X0247788Y0166572D01*
X0249438Y0165974D02*
X0250038Y0165974D01*
X0250038Y0165375D02*
X0249438Y0165375D01*
X0249438Y0164777D02*
X0250038Y0164777D01*
X0250038Y0164178D02*
X0249438Y0164178D01*
X0249438Y0163580D02*
X0250038Y0163580D01*
X0250038Y0162383D02*
X0249438Y0162383D01*
X0249438Y0161784D02*
X0250038Y0161784D01*
X0250038Y0161186D02*
X0249438Y0161186D01*
X0249438Y0160587D02*
X0250038Y0160587D01*
X0254088Y0159000D02*
X0255136Y0157953D01*
X0259199Y0157953D01*
X0263051Y0158193D02*
X0270288Y0158193D01*
X0270288Y0157595D02*
X0263051Y0157595D01*
X0263051Y0156996D02*
X0270288Y0156996D01*
X0270288Y0156398D02*
X0263051Y0156398D01*
X0262648Y0155799D02*
X0270288Y0155799D01*
X0270288Y0155201D02*
X0248688Y0155201D01*
X0248259Y0155799D02*
X0255749Y0155799D01*
X0255346Y0156398D02*
X0247956Y0156398D01*
X0248188Y0156996D02*
X0254395Y0156996D01*
X0247588Y0153500D02*
X0262088Y0153500D01*
X0263088Y0152500D01*
X0261608Y0151011D02*
X0254866Y0151011D01*
X0254268Y0151609D02*
X0261009Y0151609D01*
X0260988Y0152208D02*
X0253669Y0152208D01*
X0252071Y0150412D02*
X0246873Y0150412D01*
X0249438Y0149814D02*
X0250038Y0149814D01*
X0250038Y0149215D02*
X0249438Y0149215D01*
X0249438Y0148617D02*
X0250038Y0148617D01*
X0250038Y0148018D02*
X0249438Y0148018D01*
X0249438Y0147420D02*
X0250038Y0147420D01*
X0253007Y0147420D02*
X0253388Y0147420D01*
X0253388Y0148018D02*
X0253007Y0148018D01*
X0253007Y0148617D02*
X0253388Y0148617D01*
X0253268Y0149215D02*
X0252911Y0149215D01*
X0252669Y0149814D02*
X0252379Y0149814D01*
X0255465Y0150412D02*
X0262206Y0150412D01*
X0263495Y0149814D02*
X0255788Y0149814D01*
X0255788Y0149215D02*
X0263417Y0149215D01*
X0263417Y0148617D02*
X0262851Y0148617D01*
X0263364Y0148018D02*
X0263642Y0148018D01*
X0263451Y0147420D02*
X0263985Y0147420D01*
X0263451Y0146821D02*
X0264595Y0146821D01*
X0267582Y0146821D02*
X0270288Y0146821D01*
X0270288Y0147420D02*
X0268192Y0147420D01*
X0268534Y0148018D02*
X0270288Y0148018D01*
X0270288Y0148617D02*
X0268760Y0148617D01*
X0268760Y0149215D02*
X0270288Y0149215D01*
X0270288Y0149814D02*
X0268682Y0149814D01*
X0268434Y0150412D02*
X0270288Y0150412D01*
X0270288Y0151011D02*
X0267950Y0151011D01*
X0266998Y0151609D02*
X0270288Y0151609D01*
X0270288Y0152208D02*
X0265188Y0152208D01*
X0265188Y0152806D02*
X0270288Y0152806D01*
X0270288Y0153405D02*
X0265153Y0153405D01*
X0264555Y0154003D02*
X0270288Y0154003D01*
X0270288Y0154602D02*
X0262683Y0154602D01*
X0265168Y0151609D02*
X0265179Y0151609D01*
X0259499Y0148617D02*
X0258899Y0148617D01*
X0258899Y0148018D02*
X0259499Y0148018D01*
X0259499Y0147420D02*
X0258899Y0147420D01*
X0258899Y0146821D02*
X0259499Y0146821D01*
X0247588Y0153500D02*
X0246588Y0154500D01*
X0238839Y0157500D02*
X0234088Y0157500D01*
X0232088Y0159500D01*
X0230839Y0161220D02*
X0231219Y0161600D01*
X0237688Y0161600D01*
X0239588Y0163500D01*
X0239588Y0171500D01*
X0237488Y0171360D02*
X0230875Y0171360D01*
X0230859Y0171344D02*
X0231386Y0171871D01*
X0231386Y0172785D01*
X0237904Y0172785D01*
X0237488Y0172370D01*
X0237488Y0170630D01*
X0238388Y0169730D01*
X0238388Y0163997D01*
X0237191Y0162800D01*
X0230967Y0162800D01*
X0230859Y0162908D01*
X0228236Y0162908D01*
X0228236Y0163470D01*
X0230859Y0163470D01*
X0231386Y0163997D01*
X0231386Y0166318D01*
X0230859Y0166845D01*
X0228236Y0166845D01*
X0228236Y0167007D01*
X0229211Y0167007D01*
X0229211Y0169001D01*
X0229399Y0169001D01*
X0229399Y0169188D01*
X0231786Y0169188D01*
X0231786Y0170053D01*
X0231697Y0170384D01*
X0231526Y0170680D01*
X0231284Y0170922D01*
X0230988Y0171093D01*
X0230657Y0171182D01*
X0229399Y0171182D01*
X0229399Y0169188D01*
X0229211Y0169188D01*
X0229211Y0171182D01*
X0228236Y0171182D01*
X0228236Y0171344D01*
X0230859Y0171344D01*
X0231386Y0171959D02*
X0237488Y0171959D01*
X0237676Y0172557D02*
X0231386Y0172557D01*
X0231445Y0170762D02*
X0237488Y0170762D01*
X0237955Y0170163D02*
X0231756Y0170163D01*
X0231786Y0169565D02*
X0238388Y0169565D01*
X0238388Y0168966D02*
X0231786Y0168966D01*
X0231786Y0169001D02*
X0229399Y0169001D01*
X0229399Y0167007D01*
X0230657Y0167007D01*
X0230988Y0167096D01*
X0231284Y0167267D01*
X0231526Y0167509D01*
X0231697Y0167805D01*
X0231786Y0168136D01*
X0231786Y0169001D01*
X0231786Y0168368D02*
X0238388Y0168368D01*
X0238388Y0167769D02*
X0231677Y0167769D01*
X0231118Y0167171D02*
X0238388Y0167171D01*
X0238388Y0166572D02*
X0231131Y0166572D01*
X0231386Y0165974D02*
X0238388Y0165974D01*
X0238388Y0165375D02*
X0231386Y0165375D01*
X0231386Y0164777D02*
X0238388Y0164777D01*
X0238388Y0164178D02*
X0231386Y0164178D01*
X0230968Y0163580D02*
X0237971Y0163580D01*
X0237373Y0162981D02*
X0228236Y0162981D01*
X0229305Y0161220D02*
X0230839Y0161220D01*
X0227224Y0161186D02*
X0195953Y0161186D01*
X0193872Y0161220D02*
X0190839Y0161220D01*
X0186519Y0156900D01*
X0189387Y0154602D02*
X0191886Y0154602D01*
X0191791Y0154003D02*
X0188789Y0154003D01*
X0188670Y0153405D02*
X0191791Y0153405D01*
X0191791Y0152806D02*
X0188670Y0152806D01*
X0189986Y0155201D02*
X0194940Y0155201D01*
X0192115Y0155799D02*
X0190584Y0155799D01*
X0191183Y0156398D02*
X0191791Y0156398D01*
X0191781Y0156996D02*
X0191791Y0156996D01*
X0197021Y0159252D02*
X0205336Y0159252D01*
X0205588Y0159000D01*
X0207153Y0157595D02*
X0210213Y0157595D01*
X0209615Y0156996D02*
X0206554Y0156996D01*
X0207688Y0158193D02*
X0224074Y0158193D01*
X0224074Y0158792D02*
X0207688Y0158792D01*
X0207688Y0159390D02*
X0224074Y0159390D01*
X0224074Y0159989D02*
X0207570Y0159989D01*
X0206971Y0160587D02*
X0224249Y0160587D01*
X0224319Y0161784D02*
X0198858Y0161784D01*
X0199103Y0162383D02*
X0224074Y0162383D01*
X0224074Y0162981D02*
X0199103Y0162981D01*
X0199103Y0163580D02*
X0224074Y0163580D01*
X0224074Y0164178D02*
X0199103Y0164178D01*
X0198675Y0164777D02*
X0224502Y0164777D01*
X0224074Y0165974D02*
X0199103Y0165974D01*
X0199103Y0166572D02*
X0224074Y0166572D01*
X0224074Y0167171D02*
X0199103Y0167171D01*
X0199103Y0167769D02*
X0224074Y0167769D01*
X0224156Y0168368D02*
X0210653Y0168368D01*
X0211252Y0168966D02*
X0226824Y0168966D01*
X0229211Y0168966D02*
X0229399Y0168966D01*
X0229399Y0168368D02*
X0229211Y0168368D01*
X0229211Y0167769D02*
X0229399Y0167769D01*
X0229399Y0167171D02*
X0229211Y0167171D01*
X0229211Y0169565D02*
X0229399Y0169565D01*
X0229399Y0170163D02*
X0229211Y0170163D01*
X0229211Y0170762D02*
X0229399Y0170762D01*
X0227224Y0173156D02*
X0224508Y0173156D01*
X0224408Y0172557D02*
X0223910Y0172557D01*
X0224074Y0171959D02*
X0223311Y0171959D01*
X0224074Y0171360D02*
X0214688Y0171360D01*
X0214320Y0170762D02*
X0224074Y0170762D01*
X0224074Y0170163D02*
X0213722Y0170163D01*
X0211850Y0169565D02*
X0224412Y0169565D01*
X0227224Y0165375D02*
X0195953Y0165375D01*
X0193872Y0169094D02*
X0209683Y0169094D01*
X0212588Y0172000D01*
X0213216Y0178706D02*
X0198797Y0178706D01*
X0198566Y0178937D01*
X0197021Y0178937D01*
X0197021Y0182874D02*
X0207720Y0182874D01*
X0208588Y0182006D01*
X0213216Y0178706D02*
X0213316Y0178806D01*
X0214588Y0178806D01*
X0221588Y0185000D02*
X0202088Y0185000D01*
X0198309Y0188780D01*
X0193872Y0188780D01*
X0200667Y0188119D02*
X0224222Y0188119D01*
X0224074Y0187520D02*
X0201265Y0187520D01*
X0201864Y0186922D02*
X0224074Y0186922D01*
X0224074Y0186323D02*
X0202462Y0186323D01*
X0196353Y0192907D02*
X0226824Y0192907D01*
X0226824Y0193505D02*
X0196353Y0193505D01*
X0191391Y0193505D02*
X0163528Y0193505D01*
X0152988Y0185725D02*
X0152945Y0185725D01*
X0152898Y0185126D02*
X0152988Y0185126D01*
X0152988Y0184528D02*
X0152888Y0184528D01*
X0152888Y0183929D02*
X0152988Y0183929D01*
X0152988Y0183331D02*
X0152888Y0183331D01*
X0152888Y0182732D02*
X0153219Y0182732D01*
X0153467Y0182134D02*
X0152888Y0182134D01*
X0152888Y0181535D02*
X0153715Y0181535D01*
X0153963Y0180937D02*
X0152888Y0180937D01*
X0152888Y0180338D02*
X0154211Y0180338D01*
X0154298Y0180128D02*
X0154298Y0180128D01*
X0154687Y0179739D02*
X0152888Y0179739D01*
X0152888Y0179141D02*
X0155285Y0179141D01*
X0155884Y0178542D02*
X0152888Y0178542D01*
X0152888Y0177944D02*
X0156482Y0177944D01*
X0156717Y0177709D02*
X0156717Y0177709D01*
X0157595Y0177345D02*
X0152888Y0177345D01*
X0152888Y0176747D02*
X0159040Y0176747D01*
X0156888Y0174353D02*
X0156288Y0174353D01*
X0164137Y0176747D02*
X0169388Y0176747D01*
X0169388Y0177345D02*
X0165582Y0177345D01*
X0166460Y0177709D02*
X0166460Y0177709D01*
X0166695Y0177944D02*
X0169388Y0177944D01*
X0169388Y0178542D02*
X0167293Y0178542D01*
X0167892Y0179141D02*
X0169388Y0179141D01*
X0169388Y0179739D02*
X0168490Y0179739D01*
X0168966Y0180338D02*
X0169388Y0180338D01*
X0169388Y0180937D02*
X0169214Y0180937D01*
X0190131Y0171879D02*
X0190131Y0170073D01*
X0183588Y0163530D01*
X0183588Y0149000D01*
X0183088Y0148500D01*
X0183088Y0147000D01*
X0184588Y0145500D01*
X0182767Y0145624D02*
X0171183Y0145624D01*
X0171188Y0146223D02*
X0182169Y0146223D01*
X0181797Y0146821D02*
X0171188Y0146821D01*
X0171138Y0147420D02*
X0181199Y0147420D01*
X0180988Y0148018D02*
X0170540Y0148018D01*
X0170288Y0148617D02*
X0180988Y0148617D01*
X0180988Y0149215D02*
X0170288Y0149215D01*
X0170288Y0149814D02*
X0172225Y0149814D01*
X0171554Y0150412D02*
X0170288Y0150412D01*
X0170288Y0151011D02*
X0171167Y0151011D01*
X0170933Y0151609D02*
X0170288Y0151609D01*
X0170288Y0152208D02*
X0170820Y0152208D01*
X0170820Y0152806D02*
X0170288Y0152806D01*
X0170288Y0153405D02*
X0170936Y0153405D01*
X0171173Y0154003D02*
X0170288Y0154003D01*
X0170288Y0154602D02*
X0171568Y0154602D01*
X0172247Y0155201D02*
X0170288Y0155201D01*
X0170288Y0155799D02*
X0171733Y0155799D01*
X0171440Y0156398D02*
X0170288Y0156398D01*
X0170288Y0156996D02*
X0171220Y0156996D01*
X0171220Y0157595D02*
X0170288Y0157595D01*
X0170288Y0158193D02*
X0171271Y0158193D01*
X0171519Y0158792D02*
X0170288Y0158792D01*
X0170288Y0159390D02*
X0171922Y0159390D01*
X0171977Y0159989D02*
X0170288Y0159989D01*
X0170288Y0160587D02*
X0171436Y0160587D01*
X0171095Y0161186D02*
X0170288Y0161186D01*
X0170288Y0161784D02*
X0170898Y0161784D01*
X0169088Y0160000D02*
X0169088Y0146500D01*
X0173888Y0149814D02*
X0174288Y0149814D01*
X0174288Y0150412D02*
X0173888Y0150412D01*
X0173888Y0151011D02*
X0174288Y0151011D01*
X0174288Y0151609D02*
X0173888Y0151609D01*
X0173888Y0152208D02*
X0174288Y0152208D01*
X0175952Y0149814D02*
X0178077Y0149814D01*
X0177119Y0150412D02*
X0176623Y0150412D01*
X0179088Y0152500D02*
X0182088Y0155500D01*
X0182088Y0166500D01*
X0183588Y0168000D01*
X0198928Y0160587D02*
X0204206Y0160587D01*
X0207651Y0152559D02*
X0207370Y0152278D01*
X0199777Y0152559D02*
X0199777Y0147689D01*
X0182388Y0151011D02*
X0181576Y0151011D01*
X0181824Y0151609D02*
X0182388Y0151609D01*
X0182388Y0152208D02*
X0181957Y0152208D01*
X0181957Y0152806D02*
X0182388Y0152806D01*
X0182388Y0153405D02*
X0181818Y0153405D01*
X0182289Y0154003D02*
X0182388Y0154003D01*
X0182031Y0150412D02*
X0181058Y0150412D01*
X0181432Y0149814D02*
X0180099Y0149814D01*
X0210727Y0127669D02*
X0217060Y0127669D01*
X0216462Y0127070D02*
X0210288Y0127070D01*
X0210288Y0126472D02*
X0215863Y0126472D01*
X0216588Y0125500D02*
X0219588Y0128500D01*
X0220588Y0128500D01*
X0233088Y0128500D01*
X0234088Y0127500D01*
X0232088Y0125000D02*
X0228136Y0125000D01*
X0226588Y0123453D01*
X0216588Y0123453D02*
X0216588Y0125500D01*
X0214145Y0125873D02*
X0210657Y0125873D01*
X0210657Y0125275D02*
X0213720Y0125275D01*
X0213720Y0124676D02*
X0210657Y0124676D01*
X0210657Y0124078D02*
X0213720Y0124078D01*
X0211188Y0128268D02*
X0217659Y0128268D01*
X0221995Y0130063D02*
X0223959Y0130063D01*
X0226288Y0130063D02*
X0226888Y0130063D01*
X0226888Y0130662D02*
X0226288Y0130662D01*
X0226288Y0131260D02*
X0226888Y0131260D01*
X0226888Y0131859D02*
X0226288Y0131859D01*
X0229218Y0130063D02*
X0229320Y0130063D01*
X0240570Y0134018D02*
X0241588Y0133000D01*
X0226987Y0141435D02*
X0226755Y0141435D01*
X0224910Y0143829D02*
X0224329Y0143829D01*
X0224329Y0144427D02*
X0224910Y0144427D01*
X0224910Y0145026D02*
X0224329Y0145026D01*
X0224329Y0145624D02*
X0224910Y0145624D01*
X0225169Y0146223D02*
X0222038Y0146223D01*
X0222544Y0145624D02*
X0221440Y0145624D01*
X0220841Y0145026D02*
X0222185Y0145026D01*
X0222139Y0144427D02*
X0220688Y0144427D01*
X0220688Y0143829D02*
X0222139Y0143829D01*
X0219488Y0145370D02*
X0221431Y0147312D01*
X0221431Y0149409D01*
X0223118Y0149215D02*
X0223681Y0149215D01*
X0223681Y0148617D02*
X0223118Y0148617D01*
X0223118Y0148018D02*
X0223681Y0148018D01*
X0224116Y0147420D02*
X0222683Y0147420D01*
X0222631Y0146821D02*
X0224570Y0146821D01*
X0223681Y0149814D02*
X0223118Y0149814D01*
X0223118Y0150412D02*
X0223681Y0150412D01*
X0225448Y0152208D02*
X0226872Y0152208D01*
X0226824Y0152806D02*
X0225087Y0152806D01*
X0225087Y0153405D02*
X0229211Y0153405D01*
X0229211Y0152806D02*
X0229399Y0152806D01*
X0229399Y0152208D02*
X0229211Y0152208D01*
X0229211Y0151609D02*
X0229399Y0151609D01*
X0227235Y0151609D02*
X0226046Y0151609D01*
X0229014Y0148018D02*
X0229595Y0148018D01*
X0229595Y0147420D02*
X0229014Y0147420D01*
X0227964Y0146821D02*
X0230488Y0146821D01*
X0230488Y0146223D02*
X0228563Y0146223D01*
X0229161Y0145624D02*
X0230494Y0145624D01*
X0232588Y0143469D02*
X0232620Y0143500D01*
X0263051Y0158792D02*
X0264424Y0158792D01*
X0264575Y0158641D02*
X0265557Y0158234D01*
X0266620Y0158234D01*
X0267602Y0158641D01*
X0268353Y0159392D01*
X0268760Y0160374D01*
X0268760Y0161437D01*
X0268353Y0162419D01*
X0267602Y0163170D01*
X0266620Y0163577D01*
X0265557Y0163577D01*
X0264575Y0163170D01*
X0263823Y0162419D01*
X0263417Y0161437D01*
X0263417Y0160374D01*
X0263823Y0159392D01*
X0264575Y0158641D01*
X0263826Y0159390D02*
X0263051Y0159390D01*
X0262766Y0159989D02*
X0263576Y0159989D01*
X0263417Y0160587D02*
X0255288Y0160587D01*
X0255288Y0159989D02*
X0255631Y0159989D01*
X0255288Y0161186D02*
X0263417Y0161186D01*
X0263561Y0161784D02*
X0262728Y0161784D01*
X0263051Y0162383D02*
X0263808Y0162383D01*
X0264386Y0162981D02*
X0263051Y0162981D01*
X0263051Y0163580D02*
X0270288Y0163580D01*
X0270288Y0164178D02*
X0263051Y0164178D01*
X0263051Y0164777D02*
X0270288Y0164777D01*
X0270288Y0165375D02*
X0263051Y0165375D01*
X0262687Y0165974D02*
X0270288Y0165974D01*
X0268401Y0166572D02*
X0263776Y0166572D01*
X0264232Y0167171D02*
X0267944Y0167171D01*
X0267944Y0167769D02*
X0264232Y0167769D01*
X0264232Y0168368D02*
X0267944Y0168368D01*
X0267944Y0168966D02*
X0264232Y0168966D01*
X0264232Y0169565D02*
X0267944Y0169565D01*
X0267944Y0170163D02*
X0264232Y0170163D01*
X0264232Y0170762D02*
X0267944Y0170762D01*
X0267944Y0171360D02*
X0264232Y0171360D01*
X0263985Y0171959D02*
X0268192Y0171959D01*
X0270288Y0172557D02*
X0259888Y0172557D01*
X0259888Y0173156D02*
X0270288Y0173156D01*
X0270288Y0173754D02*
X0259888Y0173754D01*
X0259888Y0174353D02*
X0270288Y0174353D01*
X0270288Y0174951D02*
X0259304Y0174951D01*
X0258705Y0175550D02*
X0270288Y0175550D01*
X0270288Y0176148D02*
X0258107Y0176148D01*
X0257508Y0176747D02*
X0259040Y0176747D01*
X0257595Y0177345D02*
X0256910Y0177345D01*
X0256717Y0177709D02*
X0256717Y0177709D01*
X0256482Y0177944D02*
X0256311Y0177944D01*
X0255884Y0178542D02*
X0255713Y0178542D01*
X0255285Y0179141D02*
X0255114Y0179141D01*
X0254687Y0179739D02*
X0254516Y0179739D01*
X0254298Y0180128D02*
X0254298Y0180128D01*
X0254211Y0180338D02*
X0253917Y0180338D01*
X0253963Y0180937D02*
X0253319Y0180937D01*
X0253038Y0181535D02*
X0253715Y0181535D01*
X0253467Y0182134D02*
X0253038Y0182134D01*
X0253038Y0182732D02*
X0253219Y0182732D01*
X0251838Y0183250D02*
X0251838Y0180720D01*
X0258688Y0173870D01*
X0258688Y0164369D01*
X0259199Y0163858D01*
X0257488Y0166572D02*
X0254743Y0166572D01*
X0255288Y0165974D02*
X0255711Y0165974D01*
X0255346Y0165375D02*
X0255288Y0165375D01*
X0255288Y0164777D02*
X0255346Y0164777D01*
X0255346Y0164178D02*
X0255288Y0164178D01*
X0255288Y0163580D02*
X0255346Y0163580D01*
X0255346Y0162981D02*
X0255288Y0162981D01*
X0255288Y0162383D02*
X0255346Y0162383D01*
X0255288Y0161784D02*
X0255669Y0161784D01*
X0254145Y0167171D02*
X0257488Y0167171D01*
X0257488Y0167769D02*
X0253546Y0167769D01*
X0252948Y0168368D02*
X0257488Y0168368D01*
X0257488Y0168966D02*
X0252349Y0168966D01*
X0251751Y0169565D02*
X0257488Y0169565D01*
X0257488Y0170163D02*
X0251152Y0170163D01*
X0250554Y0170762D02*
X0257488Y0170762D01*
X0255258Y0171360D02*
X0249955Y0171360D01*
X0249588Y0173000D02*
X0256588Y0173000D01*
X0249588Y0173000D02*
X0246088Y0176500D01*
X0242788Y0177944D02*
X0233699Y0177944D01*
X0231478Y0177944D02*
X0231386Y0177944D01*
X0230972Y0178542D02*
X0243101Y0178542D01*
X0243699Y0179141D02*
X0228236Y0179141D01*
X0231380Y0179739D02*
X0244298Y0179739D01*
X0244896Y0180338D02*
X0231386Y0180338D01*
X0231386Y0180937D02*
X0245495Y0180937D01*
X0246093Y0181535D02*
X0231386Y0181535D01*
X0231318Y0182134D02*
X0246692Y0182134D01*
X0246973Y0182732D02*
X0228236Y0182732D01*
X0231034Y0183331D02*
X0246973Y0183331D01*
X0247048Y0183929D02*
X0231386Y0183929D01*
X0224599Y0185126D02*
X0224432Y0185126D01*
X0224074Y0185725D02*
X0223834Y0185725D01*
X0222588Y0184000D02*
X0221588Y0185000D01*
X0231287Y0187520D02*
X0244988Y0187520D01*
X0243273Y0188119D02*
X0242305Y0188119D01*
X0240123Y0188119D02*
X0239156Y0188119D01*
X0238042Y0188119D02*
X0237021Y0188119D01*
X0235907Y0188119D02*
X0231386Y0188119D01*
X0231386Y0188717D02*
X0235308Y0188717D01*
X0235164Y0189316D02*
X0231386Y0189316D01*
X0231386Y0189914D02*
X0235164Y0189914D01*
X0235648Y0190513D02*
X0228236Y0190513D01*
X0229211Y0191111D02*
X0229399Y0191111D01*
X0229399Y0190629D02*
X0230657Y0190629D01*
X0230988Y0190718D01*
X0231284Y0190889D01*
X0231526Y0191131D01*
X0231697Y0191427D01*
X0231786Y0191758D01*
X0231786Y0192623D01*
X0229399Y0192623D01*
X0229399Y0190629D01*
X0229399Y0191710D02*
X0229211Y0191710D01*
X0229211Y0192308D02*
X0229399Y0192308D01*
X0231786Y0192308D02*
X0235398Y0192308D01*
X0235164Y0191710D02*
X0231773Y0191710D01*
X0231507Y0191111D02*
X0235164Y0191111D01*
X0237529Y0192308D02*
X0237533Y0192308D01*
X0239146Y0192907D02*
X0231786Y0192907D01*
X0231786Y0193505D02*
X0239745Y0193505D01*
X0247088Y0187000D02*
X0248088Y0187000D01*
X0251838Y0183250D01*
X0248265Y0185126D02*
X0248184Y0185126D01*
X0264137Y0176747D02*
X0270288Y0176747D01*
X0270288Y0177345D02*
X0265582Y0177345D01*
X0266695Y0177944D02*
X0270288Y0177944D01*
X0270288Y0178542D02*
X0267293Y0178542D01*
X0267892Y0179141D02*
X0270288Y0179141D01*
X0270288Y0179739D02*
X0268490Y0179739D01*
X0268879Y0180128D02*
X0268879Y0180128D01*
X0268966Y0180338D02*
X0270288Y0180338D01*
X0270288Y0180937D02*
X0269214Y0180937D01*
X0269462Y0181535D02*
X0270288Y0181535D01*
X0270288Y0182134D02*
X0269710Y0182134D01*
X0269958Y0182732D02*
X0270288Y0182732D01*
X0270288Y0183331D02*
X0270188Y0183331D01*
X0270188Y0183929D02*
X0270288Y0183929D01*
X0270288Y0184528D02*
X0270188Y0184528D01*
X0270188Y0185126D02*
X0270278Y0185126D01*
X0270231Y0185725D02*
X0270188Y0185725D01*
X0263299Y0176400D02*
X0263299Y0176400D01*
X0267791Y0162981D02*
X0270288Y0162981D01*
X0270288Y0162383D02*
X0268368Y0162383D01*
X0268616Y0161784D02*
X0270288Y0161784D01*
X0270288Y0161186D02*
X0268760Y0161186D01*
X0268760Y0160587D02*
X0270288Y0160587D01*
X0270288Y0159989D02*
X0268600Y0159989D01*
X0268351Y0159390D02*
X0270288Y0159390D01*
X0270288Y0158792D02*
X0267753Y0158792D01*
X0172600Y0115100D02*
X0152888Y0115100D01*
X0152888Y0114502D02*
X0155436Y0114502D01*
X0154952Y0115699D02*
X0152888Y0115699D01*
X0152888Y0116297D02*
X0153786Y0116297D01*
X0153187Y0116896D02*
X0152888Y0116896D01*
X0152888Y0113903D02*
X0153991Y0113903D01*
X0153388Y0113305D02*
X0152888Y0113305D01*
X0156588Y0110000D02*
X0156588Y0107000D01*
X0156588Y0103000D02*
X0156588Y0100000D01*
X0153537Y0096546D02*
X0152888Y0096546D01*
X0152888Y0095948D02*
X0154351Y0095948D01*
X0152938Y0097145D02*
X0152888Y0097145D01*
X0158826Y0095948D02*
X0178474Y0095948D01*
X0178388Y0096546D02*
X0159640Y0096546D01*
X0182252Y0091160D02*
X0200925Y0091160D01*
X0200925Y0090561D02*
X0182252Y0090561D01*
X0182252Y0089963D02*
X0200925Y0089963D01*
X0200925Y0089364D02*
X0182252Y0089364D01*
X0182252Y0088766D02*
X0200925Y0088766D01*
X0200925Y0088167D02*
X0182252Y0088167D01*
X0182252Y0087569D02*
X0200925Y0087569D01*
X0200925Y0086970D02*
X0182252Y0086970D01*
X0182252Y0086372D02*
X0200925Y0086372D01*
X0200925Y0085773D02*
X0182252Y0085773D01*
X0182252Y0085175D02*
X0200925Y0085175D01*
X0200925Y0084576D02*
X0198621Y0084576D01*
X0199620Y0083978D02*
X0200925Y0083978D01*
X0200925Y0083379D02*
X0200280Y0083379D01*
X0200748Y0082781D02*
X0200925Y0082781D01*
X0196888Y0082781D02*
X0196288Y0082781D01*
X0196288Y0083379D02*
X0196888Y0083379D01*
X0196888Y0083978D02*
X0196288Y0083978D01*
X0196288Y0084576D02*
X0196888Y0084576D01*
X0194556Y0084576D02*
X0187561Y0084576D01*
X0189006Y0083978D02*
X0193557Y0083978D01*
X0192897Y0083379D02*
X0189715Y0083379D01*
X0190313Y0082781D02*
X0192428Y0082781D01*
X0192089Y0082182D02*
X0190664Y0082182D01*
X0190911Y0081584D02*
X0191846Y0081584D01*
X0191682Y0080985D02*
X0191159Y0080985D01*
X0191188Y0080387D02*
X0191588Y0080387D01*
X0191188Y0079788D02*
X0196288Y0079788D01*
X0196288Y0080387D02*
X0196888Y0080387D01*
X0196888Y0080985D02*
X0196288Y0080985D01*
X0196288Y0081584D02*
X0196888Y0081584D01*
X0196888Y0082182D02*
X0196288Y0082182D01*
X0191654Y0079190D02*
X0191188Y0079190D01*
X0185616Y0084576D02*
X0182252Y0084576D01*
X0182252Y0083978D02*
X0184171Y0083978D01*
X0183462Y0083379D02*
X0182252Y0083379D01*
X0182252Y0082781D02*
X0182864Y0082781D01*
X0182513Y0082182D02*
X0182252Y0082182D01*
X0182252Y0081584D02*
X0182265Y0081584D01*
X0182252Y0077993D02*
X0182441Y0077993D01*
X0182019Y0076796D02*
X0183287Y0076796D01*
X0200441Y0076796D02*
X0201158Y0076796D01*
X0200925Y0077394D02*
X0200872Y0077394D01*
X0208791Y0076796D02*
X0212488Y0076796D01*
X0212041Y0077394D02*
X0209024Y0077394D01*
X0209024Y0077993D02*
X0211794Y0077993D01*
X0211712Y0078591D02*
X0209024Y0078591D01*
X0209024Y0079190D02*
X0211712Y0079190D01*
X0211712Y0079788D02*
X0209024Y0079788D01*
X0209024Y0080387D02*
X0211712Y0080387D01*
X0211712Y0080985D02*
X0209024Y0080985D01*
X0209024Y0081584D02*
X0211712Y0081584D01*
X0211915Y0082182D02*
X0209024Y0082182D01*
X0209024Y0082781D02*
X0212182Y0082781D01*
X0212781Y0083379D02*
X0209024Y0083379D01*
X0209024Y0083978D02*
X0213979Y0083978D01*
X0215182Y0083978D02*
X0247995Y0083978D01*
X0246797Y0083379D02*
X0216380Y0083379D01*
X0216979Y0082781D02*
X0246198Y0082781D01*
X0245931Y0082182D02*
X0217246Y0082182D01*
X0217449Y0081584D02*
X0245728Y0081584D01*
X0245728Y0080985D02*
X0217449Y0080985D01*
X0217449Y0080387D02*
X0245728Y0080387D01*
X0245728Y0079788D02*
X0217449Y0079788D01*
X0217449Y0079190D02*
X0245728Y0079190D01*
X0245728Y0078591D02*
X0217449Y0078591D01*
X0217368Y0077993D02*
X0245809Y0077993D01*
X0246057Y0077394D02*
X0217120Y0077394D01*
X0216673Y0076796D02*
X0246504Y0076796D01*
X0231588Y0087500D02*
X0228636Y0090453D01*
X0228636Y0098661D01*
X0228588Y0098709D01*
X0228588Y0101500D01*
X0229088Y0102000D01*
X0232088Y0102000D01*
X0232573Y0101516D01*
X0232573Y0098661D01*
X0234541Y0098661D02*
X0234541Y0095000D01*
X0231088Y0095000D01*
X0230604Y0095484D01*
X0230604Y0098661D01*
X0226667Y0098661D02*
X0226667Y0090079D01*
X0223338Y0086750D01*
X0215838Y0086750D01*
X0209620Y0092969D01*
X0209620Y0105000D01*
X0207539Y0104926D02*
X0198794Y0104926D01*
X0198794Y0105524D02*
X0200443Y0105524D01*
X0199844Y0106123D02*
X0198794Y0106123D01*
X0198794Y0106721D02*
X0199246Y0106721D01*
X0204528Y0105524D02*
X0207539Y0105524D01*
X0205083Y0106079D02*
X0205083Y0106079D01*
X0210820Y0102919D02*
X0210820Y0093466D01*
X0216335Y0087950D01*
X0222841Y0087950D01*
X0225467Y0090576D01*
X0225467Y0095793D01*
X0223735Y0095793D01*
X0223616Y0095912D01*
X0223497Y0095793D01*
X0221811Y0095793D01*
X0222390Y0095214D01*
X0222390Y0093408D01*
X0221113Y0092131D01*
X0219308Y0092131D01*
X0218031Y0093408D01*
X0218031Y0095214D01*
X0218210Y0095393D01*
X0217539Y0095393D01*
X0217449Y0095417D01*
X0217449Y0093662D01*
X0217012Y0092607D01*
X0216205Y0091800D01*
X0215151Y0091364D01*
X0214010Y0091364D01*
X0212956Y0091800D01*
X0212149Y0092607D01*
X0211712Y0093662D01*
X0211712Y0099134D01*
X0212149Y0100188D01*
X0212956Y0100995D01*
X0214010Y0101431D01*
X0215151Y0101431D01*
X0216205Y0100995D01*
X0216410Y0100790D01*
X0216410Y0100801D01*
X0216499Y0101132D01*
X0216670Y0101428D01*
X0216912Y0101670D01*
X0217209Y0101841D01*
X0217539Y0101930D01*
X0218601Y0101930D01*
X0218601Y0098952D01*
X0219182Y0098952D01*
X0219182Y0101930D01*
X0220244Y0101930D01*
X0220443Y0101877D01*
X0220443Y0103500D01*
X0219937Y0103500D01*
X0218337Y0105100D01*
X0215971Y0105100D01*
X0215780Y0105291D01*
X0213848Y0105291D01*
X0213848Y0104709D01*
X0216038Y0104709D01*
X0216038Y0103648D01*
X0215949Y0103317D01*
X0215778Y0103021D01*
X0215536Y0102779D01*
X0215240Y0102607D01*
X0214909Y0102519D01*
X0213847Y0102519D01*
X0213847Y0104709D01*
X0213266Y0104709D01*
X0213266Y0102519D01*
X0212205Y0102519D01*
X0211874Y0102607D01*
X0211578Y0102779D01*
X0211336Y0103021D01*
X0211314Y0103059D01*
X0211174Y0102919D01*
X0210820Y0102919D01*
X0210820Y0102532D02*
X0212158Y0102532D01*
X0213266Y0102532D02*
X0213847Y0102532D01*
X0213847Y0103130D02*
X0213266Y0103130D01*
X0213266Y0103729D02*
X0213847Y0103729D01*
X0213847Y0104327D02*
X0213266Y0104327D01*
X0213848Y0104926D02*
X0218511Y0104926D01*
X0219110Y0104327D02*
X0216038Y0104327D01*
X0216038Y0103729D02*
X0219708Y0103729D01*
X0220443Y0103130D02*
X0215841Y0103130D01*
X0214956Y0102532D02*
X0220443Y0102532D01*
X0220443Y0101933D02*
X0210820Y0101933D01*
X0210820Y0101334D02*
X0213776Y0101334D01*
X0212697Y0100736D02*
X0210820Y0100736D01*
X0210820Y0100137D02*
X0212128Y0100137D01*
X0211880Y0099539D02*
X0210820Y0099539D01*
X0210820Y0098940D02*
X0211712Y0098940D01*
X0211712Y0098342D02*
X0210820Y0098342D01*
X0210820Y0097743D02*
X0211712Y0097743D01*
X0211712Y0097145D02*
X0210820Y0097145D01*
X0210820Y0096546D02*
X0211712Y0096546D01*
X0211712Y0095948D02*
X0210820Y0095948D01*
X0210820Y0095349D02*
X0211712Y0095349D01*
X0211712Y0094751D02*
X0210820Y0094751D01*
X0210820Y0094152D02*
X0211712Y0094152D01*
X0211757Y0093554D02*
X0210820Y0093554D01*
X0211330Y0092955D02*
X0212005Y0092955D01*
X0211929Y0092357D02*
X0212399Y0092357D01*
X0212527Y0091758D02*
X0213057Y0091758D01*
X0213126Y0091160D02*
X0225467Y0091160D01*
X0225467Y0091758D02*
X0216104Y0091758D01*
X0216762Y0092357D02*
X0219082Y0092357D01*
X0218484Y0092955D02*
X0217156Y0092955D01*
X0217404Y0093554D02*
X0218031Y0093554D01*
X0218031Y0094152D02*
X0217449Y0094152D01*
X0217449Y0094751D02*
X0218031Y0094751D01*
X0218167Y0095349D02*
X0217449Y0095349D01*
X0222254Y0095349D02*
X0225467Y0095349D01*
X0225467Y0094751D02*
X0222390Y0094751D01*
X0222390Y0094152D02*
X0225467Y0094152D01*
X0225467Y0093554D02*
X0222390Y0093554D01*
X0221937Y0092955D02*
X0225467Y0092955D01*
X0225467Y0092357D02*
X0221339Y0092357D01*
X0224256Y0089364D02*
X0214921Y0089364D01*
X0215520Y0088766D02*
X0223657Y0088766D01*
X0223059Y0088167D02*
X0216118Y0088167D01*
X0214323Y0089963D02*
X0224854Y0089963D01*
X0225453Y0090561D02*
X0213724Y0090561D01*
X0208420Y0093554D02*
X0208327Y0093554D01*
X0209024Y0085773D02*
X0209518Y0085773D01*
X0209024Y0085175D02*
X0210117Y0085175D01*
X0210715Y0084576D02*
X0209024Y0084576D01*
X0195825Y0094751D02*
X0195225Y0094751D01*
X0195225Y0095349D02*
X0195825Y0095349D01*
X0195825Y0095948D02*
X0195225Y0095948D01*
X0195225Y0096546D02*
X0195825Y0096546D01*
X0195825Y0097145D02*
X0195225Y0097145D01*
X0195225Y0097743D02*
X0195825Y0097743D01*
X0195825Y0098342D02*
X0195225Y0098342D01*
X0195225Y0098940D02*
X0195825Y0098940D01*
X0195825Y0099539D02*
X0195225Y0099539D01*
X0195225Y0100137D02*
X0195825Y0100137D01*
X0195825Y0100736D02*
X0195225Y0100736D01*
X0195225Y0101334D02*
X0195825Y0101334D01*
X0195825Y0101933D02*
X0195225Y0101933D01*
X0195225Y0102532D02*
X0195825Y0102532D01*
X0195825Y0103130D02*
X0195225Y0103130D01*
X0192257Y0103130D02*
X0190520Y0103130D01*
X0190520Y0102532D02*
X0192257Y0102532D01*
X0192257Y0101933D02*
X0190520Y0101933D01*
X0190520Y0101334D02*
X0192257Y0101334D01*
X0192257Y0100736D02*
X0190520Y0100736D01*
X0190520Y0100137D02*
X0192257Y0100137D01*
X0192257Y0099539D02*
X0190520Y0099539D01*
X0190520Y0098940D02*
X0192257Y0098940D01*
X0192257Y0098342D02*
X0190520Y0098342D01*
X0190520Y0097743D02*
X0192257Y0097743D01*
X0192257Y0097145D02*
X0190520Y0097145D01*
X0190520Y0096546D02*
X0192257Y0096546D01*
X0192257Y0095948D02*
X0190520Y0095948D01*
X0190520Y0095349D02*
X0192257Y0095349D01*
X0192495Y0094751D02*
X0190132Y0094751D01*
X0184783Y0098342D02*
X0184400Y0098342D01*
X0187088Y0100000D02*
X0187651Y0100563D01*
X0187651Y0104567D01*
X0184783Y0101933D02*
X0184125Y0101933D01*
X0215385Y0101334D02*
X0216616Y0101334D01*
X0218601Y0101334D02*
X0219182Y0101334D01*
X0219182Y0100736D02*
X0218601Y0100736D01*
X0218601Y0100137D02*
X0219182Y0100137D01*
X0219182Y0099539D02*
X0218601Y0099539D01*
X0221943Y0104646D02*
X0221588Y0105000D01*
X0238478Y0098661D02*
X0238478Y0092110D01*
X0241088Y0089500D01*
X0250588Y0089500D01*
X0252088Y0091000D01*
X0252088Y0099500D01*
X0249620Y0101969D01*
X0248420Y0101933D02*
X0242734Y0101933D01*
X0242734Y0102532D02*
X0244221Y0102532D01*
X0244268Y0102519D02*
X0245329Y0102519D01*
X0245329Y0104709D01*
X0243139Y0104709D01*
X0243139Y0103648D01*
X0243227Y0103317D01*
X0243399Y0103021D01*
X0243641Y0102779D01*
X0243937Y0102607D01*
X0244268Y0102519D01*
X0245329Y0102532D02*
X0245910Y0102532D01*
X0245620Y0103031D02*
X0245620Y0105000D01*
X0245329Y0104926D02*
X0241284Y0104926D01*
X0241855Y0104354D02*
X0241855Y0104354D01*
X0241883Y0104327D02*
X0243139Y0104327D01*
X0243139Y0103729D02*
X0242481Y0103729D01*
X0242734Y0103130D02*
X0243335Y0103130D01*
X0243995Y0101334D02*
X0244576Y0101334D01*
X0244576Y0100736D02*
X0243995Y0100736D01*
X0243995Y0100137D02*
X0244576Y0100137D01*
X0244576Y0099539D02*
X0243995Y0099539D01*
X0246561Y0101334D02*
X0247792Y0101334D01*
X0248420Y0102532D02*
X0247019Y0102532D01*
X0245910Y0103130D02*
X0245329Y0103130D01*
X0245329Y0103729D02*
X0245910Y0103729D01*
X0245910Y0104327D02*
X0245329Y0104327D01*
X0245329Y0105524D02*
X0245910Y0105524D01*
X0245910Y0106123D02*
X0245329Y0106123D01*
X0245329Y0106721D02*
X0245910Y0106721D01*
X0245910Y0107320D02*
X0245378Y0107320D01*
X0243139Y0106123D02*
X0240087Y0106123D01*
X0240686Y0105524D02*
X0243139Y0105524D01*
X0234541Y0095000D02*
X0234541Y0089547D01*
X0234588Y0089500D01*
D34*
X0234588Y0089500D03*
X0231588Y0087500D03*
X0235588Y0083000D03*
X0253588Y0102000D03*
X0258688Y0102500D03*
X0263088Y0104500D03*
X0250088Y0109500D03*
X0243588Y0108500D03*
X0241088Y0115000D03*
X0232588Y0115000D03*
X0229588Y0120000D03*
X0232088Y0125000D03*
X0234088Y0127500D03*
X0237088Y0127500D03*
X0241839Y0127000D03*
X0251538Y0129581D03*
X0254603Y0133015D03*
X0250088Y0136500D03*
X0247088Y0139500D03*
X0236588Y0138500D03*
X0236588Y0132000D03*
X0241588Y0133000D03*
X0248907Y0133500D03*
X0265088Y0137000D03*
X0265588Y0141000D03*
X0258088Y0142500D03*
X0263088Y0152500D03*
X0246588Y0154500D03*
X0246088Y0157500D03*
X0238839Y0157500D03*
X0232088Y0159500D03*
X0222588Y0163000D03*
X0233088Y0169000D03*
X0239588Y0171500D03*
X0246088Y0176500D03*
X0256588Y0173000D03*
X0256588Y0170000D03*
X0232588Y0176085D03*
X0220088Y0175906D03*
X0217088Y0175500D03*
X0214588Y0178806D03*
X0208588Y0182006D03*
X0206088Y0174869D03*
X0208129Y0172666D03*
X0212588Y0172000D03*
X0201588Y0173000D03*
X0190131Y0171879D03*
X0183588Y0168000D03*
X0200088Y0162000D03*
X0205588Y0159000D03*
X0211588Y0156000D03*
X0232588Y0149500D03*
X0232588Y0146500D03*
X0221588Y0143500D03*
X0216588Y0135000D03*
X0220588Y0128500D03*
X0209088Y0129000D03*
X0194088Y0131131D03*
X0191088Y0135000D03*
X0181588Y0130000D03*
X0174088Y0132500D03*
X0175088Y0123000D03*
X0169088Y0122500D03*
X0162088Y0122000D03*
X0182088Y0115000D03*
X0192088Y0116500D03*
X0191603Y0121515D03*
X0186088Y0122000D03*
X0202588Y0109100D03*
X0211588Y0112000D03*
X0218588Y0109000D03*
X0226088Y0112400D03*
X0229565Y0109900D03*
X0221988Y0115500D03*
X0219588Y0120000D03*
X0218088Y0104000D03*
X0201588Y0095000D03*
X0197088Y0090000D03*
X0176588Y0094500D03*
X0183088Y0100000D03*
X0191588Y0100000D03*
X0259588Y0117000D03*
X0260588Y0121000D03*
X0202088Y0137000D03*
X0190088Y0148000D03*
X0183088Y0148500D03*
X0169088Y0146500D03*
X0186519Y0156900D03*
X0175588Y0178000D03*
X0170588Y0185000D03*
X0181588Y0192500D03*
X0189588Y0192500D03*
X0200088Y0192500D03*
X0186588Y0184000D03*
X0222588Y0184000D03*
X0223088Y0192500D03*
X0247088Y0187000D03*
X0249073Y0182985D03*
D35*
X0248914Y0118031D02*
X0248031Y0117148D01*
X0248031Y0116412D01*
X0242019Y0110400D01*
X0233188Y0110400D01*
X0231088Y0112500D01*
X0229588Y0112500D01*
X0229588Y0112400D02*
X0226088Y0112400D01*
X0225688Y0112000D01*
X0211088Y0112000D01*
X0215611Y0107581D02*
X0204464Y0107581D01*
X0203583Y0106700D01*
X0201388Y0106700D01*
X0199838Y0108250D01*
X0199838Y0115750D01*
X0199041Y0116547D01*
X0196588Y0116547D01*
X0196541Y0116500D02*
X0192088Y0116500D01*
X0215611Y0107581D02*
X0216592Y0106600D01*
X0218958Y0106600D01*
X0220558Y0105000D01*
X0221588Y0105000D01*
X0239088Y0105000D01*
X0241234Y0102854D01*
X0241234Y0098661D01*
X0221943Y0098661D02*
X0221943Y0104646D01*
X0248914Y0118031D02*
X0251588Y0118031D01*
X0187088Y0100000D02*
X0183088Y0100000D01*
M02*
