G75*
%MOIN*%
%OFA0B0*%
%FSLAX25Y25*%
%IPPOS*%
%LPD*%
%AMOC8*
5,1,8,0,0,1.08239X$1,22.5*
%
%ADD10C,0.00800*%
%ADD11C,0.00000*%
%ADD12C,0.00039*%
D10*
X0161588Y0075000D02*
X0261588Y0075000D01*
X0261830Y0075003D01*
X0262071Y0075012D01*
X0262312Y0075026D01*
X0262553Y0075047D01*
X0262793Y0075073D01*
X0263033Y0075105D01*
X0263272Y0075143D01*
X0263509Y0075186D01*
X0263746Y0075236D01*
X0263981Y0075291D01*
X0264215Y0075351D01*
X0264447Y0075418D01*
X0264678Y0075489D01*
X0264907Y0075567D01*
X0265134Y0075650D01*
X0265359Y0075738D01*
X0265582Y0075832D01*
X0265802Y0075931D01*
X0266020Y0076036D01*
X0266235Y0076145D01*
X0266448Y0076260D01*
X0266658Y0076380D01*
X0266864Y0076505D01*
X0267068Y0076635D01*
X0267269Y0076770D01*
X0267466Y0076910D01*
X0267660Y0077054D01*
X0267850Y0077203D01*
X0268036Y0077357D01*
X0268219Y0077515D01*
X0268398Y0077677D01*
X0268573Y0077844D01*
X0268744Y0078015D01*
X0268911Y0078190D01*
X0269073Y0078369D01*
X0269231Y0078552D01*
X0269385Y0078738D01*
X0269534Y0078928D01*
X0269678Y0079122D01*
X0269818Y0079319D01*
X0269953Y0079520D01*
X0270083Y0079724D01*
X0270208Y0079930D01*
X0270328Y0080140D01*
X0270443Y0080353D01*
X0270552Y0080568D01*
X0270657Y0080786D01*
X0270756Y0081006D01*
X0270850Y0081229D01*
X0270938Y0081454D01*
X0271021Y0081681D01*
X0271099Y0081910D01*
X0271170Y0082141D01*
X0271237Y0082373D01*
X0271297Y0082607D01*
X0271352Y0082842D01*
X0271402Y0083079D01*
X0271445Y0083316D01*
X0271483Y0083555D01*
X0271515Y0083795D01*
X0271541Y0084035D01*
X0271562Y0084276D01*
X0271576Y0084517D01*
X0271585Y0084758D01*
X0271588Y0085000D01*
X0271588Y0185000D01*
X0271585Y0185242D01*
X0271576Y0185483D01*
X0271562Y0185724D01*
X0271541Y0185965D01*
X0271515Y0186205D01*
X0271483Y0186445D01*
X0271445Y0186684D01*
X0271402Y0186921D01*
X0271352Y0187158D01*
X0271297Y0187393D01*
X0271237Y0187627D01*
X0271170Y0187859D01*
X0271099Y0188090D01*
X0271021Y0188319D01*
X0270938Y0188546D01*
X0270850Y0188771D01*
X0270756Y0188994D01*
X0270657Y0189214D01*
X0270552Y0189432D01*
X0270443Y0189647D01*
X0270328Y0189860D01*
X0270208Y0190070D01*
X0270083Y0190276D01*
X0269953Y0190480D01*
X0269818Y0190681D01*
X0269678Y0190878D01*
X0269534Y0191072D01*
X0269385Y0191262D01*
X0269231Y0191448D01*
X0269073Y0191631D01*
X0268911Y0191810D01*
X0268744Y0191985D01*
X0268573Y0192156D01*
X0268398Y0192323D01*
X0268219Y0192485D01*
X0268036Y0192643D01*
X0267850Y0192797D01*
X0267660Y0192946D01*
X0267466Y0193090D01*
X0267269Y0193230D01*
X0267068Y0193365D01*
X0266864Y0193495D01*
X0266658Y0193620D01*
X0266448Y0193740D01*
X0266235Y0193855D01*
X0266020Y0193964D01*
X0265802Y0194069D01*
X0265582Y0194168D01*
X0265359Y0194262D01*
X0265134Y0194350D01*
X0264907Y0194433D01*
X0264678Y0194511D01*
X0264447Y0194582D01*
X0264215Y0194649D01*
X0263981Y0194709D01*
X0263746Y0194764D01*
X0263509Y0194814D01*
X0263272Y0194857D01*
X0263033Y0194895D01*
X0262793Y0194927D01*
X0262553Y0194953D01*
X0262312Y0194974D01*
X0262071Y0194988D01*
X0261830Y0194997D01*
X0261588Y0195000D01*
X0161588Y0195000D01*
X0161346Y0194997D01*
X0161105Y0194988D01*
X0160864Y0194974D01*
X0160623Y0194953D01*
X0160383Y0194927D01*
X0160143Y0194895D01*
X0159904Y0194857D01*
X0159667Y0194814D01*
X0159430Y0194764D01*
X0159195Y0194709D01*
X0158961Y0194649D01*
X0158729Y0194582D01*
X0158498Y0194511D01*
X0158269Y0194433D01*
X0158042Y0194350D01*
X0157817Y0194262D01*
X0157594Y0194168D01*
X0157374Y0194069D01*
X0157156Y0193964D01*
X0156941Y0193855D01*
X0156728Y0193740D01*
X0156518Y0193620D01*
X0156312Y0193495D01*
X0156108Y0193365D01*
X0155907Y0193230D01*
X0155710Y0193090D01*
X0155516Y0192946D01*
X0155326Y0192797D01*
X0155140Y0192643D01*
X0154957Y0192485D01*
X0154778Y0192323D01*
X0154603Y0192156D01*
X0154432Y0191985D01*
X0154265Y0191810D01*
X0154103Y0191631D01*
X0153945Y0191448D01*
X0153791Y0191262D01*
X0153642Y0191072D01*
X0153498Y0190878D01*
X0153358Y0190681D01*
X0153223Y0190480D01*
X0153093Y0190276D01*
X0152968Y0190070D01*
X0152848Y0189860D01*
X0152733Y0189647D01*
X0152624Y0189432D01*
X0152519Y0189214D01*
X0152420Y0188994D01*
X0152326Y0188771D01*
X0152238Y0188546D01*
X0152155Y0188319D01*
X0152077Y0188090D01*
X0152006Y0187859D01*
X0151939Y0187627D01*
X0151879Y0187393D01*
X0151824Y0187158D01*
X0151774Y0186921D01*
X0151731Y0186684D01*
X0151693Y0186445D01*
X0151661Y0186205D01*
X0151635Y0185965D01*
X0151614Y0185724D01*
X0151600Y0185483D01*
X0151591Y0185242D01*
X0151588Y0185000D01*
X0151588Y0085000D01*
X0151591Y0084758D01*
X0151600Y0084517D01*
X0151614Y0084276D01*
X0151635Y0084035D01*
X0151661Y0083795D01*
X0151693Y0083555D01*
X0151731Y0083316D01*
X0151774Y0083079D01*
X0151824Y0082842D01*
X0151879Y0082607D01*
X0151939Y0082373D01*
X0152006Y0082141D01*
X0152077Y0081910D01*
X0152155Y0081681D01*
X0152238Y0081454D01*
X0152326Y0081229D01*
X0152420Y0081006D01*
X0152519Y0080786D01*
X0152624Y0080568D01*
X0152733Y0080353D01*
X0152848Y0080140D01*
X0152968Y0079930D01*
X0153093Y0079724D01*
X0153223Y0079520D01*
X0153358Y0079319D01*
X0153498Y0079122D01*
X0153642Y0078928D01*
X0153791Y0078738D01*
X0153945Y0078552D01*
X0154103Y0078369D01*
X0154265Y0078190D01*
X0154432Y0078015D01*
X0154603Y0077844D01*
X0154778Y0077677D01*
X0154957Y0077515D01*
X0155140Y0077357D01*
X0155326Y0077203D01*
X0155516Y0077054D01*
X0155710Y0076910D01*
X0155907Y0076770D01*
X0156108Y0076635D01*
X0156312Y0076505D01*
X0156518Y0076380D01*
X0156728Y0076260D01*
X0156941Y0076145D01*
X0157156Y0076036D01*
X0157374Y0075931D01*
X0157594Y0075832D01*
X0157817Y0075738D01*
X0158042Y0075650D01*
X0158269Y0075567D01*
X0158498Y0075489D01*
X0158729Y0075418D01*
X0158961Y0075351D01*
X0159195Y0075291D01*
X0159430Y0075236D01*
X0159667Y0075186D01*
X0159904Y0075143D01*
X0160143Y0075105D01*
X0160383Y0075073D01*
X0160623Y0075047D01*
X0160864Y0075026D01*
X0161105Y0075012D01*
X0161346Y0075003D01*
X0161588Y0075000D01*
D11*
X0155088Y0085000D02*
X0155090Y0085161D01*
X0155096Y0085321D01*
X0155106Y0085482D01*
X0155120Y0085642D01*
X0155138Y0085802D01*
X0155159Y0085961D01*
X0155185Y0086120D01*
X0155215Y0086278D01*
X0155248Y0086435D01*
X0155286Y0086592D01*
X0155327Y0086747D01*
X0155372Y0086901D01*
X0155421Y0087054D01*
X0155474Y0087206D01*
X0155530Y0087357D01*
X0155591Y0087506D01*
X0155654Y0087654D01*
X0155722Y0087800D01*
X0155793Y0087944D01*
X0155867Y0088086D01*
X0155945Y0088227D01*
X0156027Y0088365D01*
X0156112Y0088502D01*
X0156200Y0088636D01*
X0156292Y0088768D01*
X0156387Y0088898D01*
X0156485Y0089026D01*
X0156586Y0089151D01*
X0156690Y0089273D01*
X0156797Y0089393D01*
X0156907Y0089510D01*
X0157020Y0089625D01*
X0157136Y0089736D01*
X0157255Y0089845D01*
X0157376Y0089950D01*
X0157500Y0090053D01*
X0157626Y0090153D01*
X0157754Y0090249D01*
X0157885Y0090342D01*
X0158019Y0090432D01*
X0158154Y0090519D01*
X0158292Y0090602D01*
X0158431Y0090682D01*
X0158573Y0090758D01*
X0158716Y0090831D01*
X0158861Y0090900D01*
X0159008Y0090966D01*
X0159156Y0091028D01*
X0159306Y0091086D01*
X0159457Y0091141D01*
X0159610Y0091192D01*
X0159764Y0091239D01*
X0159919Y0091282D01*
X0160075Y0091321D01*
X0160231Y0091357D01*
X0160389Y0091388D01*
X0160547Y0091416D01*
X0160706Y0091440D01*
X0160866Y0091460D01*
X0161026Y0091476D01*
X0161186Y0091488D01*
X0161347Y0091496D01*
X0161508Y0091500D01*
X0161668Y0091500D01*
X0161829Y0091496D01*
X0161990Y0091488D01*
X0162150Y0091476D01*
X0162310Y0091460D01*
X0162470Y0091440D01*
X0162629Y0091416D01*
X0162787Y0091388D01*
X0162945Y0091357D01*
X0163101Y0091321D01*
X0163257Y0091282D01*
X0163412Y0091239D01*
X0163566Y0091192D01*
X0163719Y0091141D01*
X0163870Y0091086D01*
X0164020Y0091028D01*
X0164168Y0090966D01*
X0164315Y0090900D01*
X0164460Y0090831D01*
X0164603Y0090758D01*
X0164745Y0090682D01*
X0164884Y0090602D01*
X0165022Y0090519D01*
X0165157Y0090432D01*
X0165291Y0090342D01*
X0165422Y0090249D01*
X0165550Y0090153D01*
X0165676Y0090053D01*
X0165800Y0089950D01*
X0165921Y0089845D01*
X0166040Y0089736D01*
X0166156Y0089625D01*
X0166269Y0089510D01*
X0166379Y0089393D01*
X0166486Y0089273D01*
X0166590Y0089151D01*
X0166691Y0089026D01*
X0166789Y0088898D01*
X0166884Y0088768D01*
X0166976Y0088636D01*
X0167064Y0088502D01*
X0167149Y0088365D01*
X0167231Y0088227D01*
X0167309Y0088086D01*
X0167383Y0087944D01*
X0167454Y0087800D01*
X0167522Y0087654D01*
X0167585Y0087506D01*
X0167646Y0087357D01*
X0167702Y0087206D01*
X0167755Y0087054D01*
X0167804Y0086901D01*
X0167849Y0086747D01*
X0167890Y0086592D01*
X0167928Y0086435D01*
X0167961Y0086278D01*
X0167991Y0086120D01*
X0168017Y0085961D01*
X0168038Y0085802D01*
X0168056Y0085642D01*
X0168070Y0085482D01*
X0168080Y0085321D01*
X0168086Y0085161D01*
X0168088Y0085000D01*
X0168086Y0084839D01*
X0168080Y0084679D01*
X0168070Y0084518D01*
X0168056Y0084358D01*
X0168038Y0084198D01*
X0168017Y0084039D01*
X0167991Y0083880D01*
X0167961Y0083722D01*
X0167928Y0083565D01*
X0167890Y0083408D01*
X0167849Y0083253D01*
X0167804Y0083099D01*
X0167755Y0082946D01*
X0167702Y0082794D01*
X0167646Y0082643D01*
X0167585Y0082494D01*
X0167522Y0082346D01*
X0167454Y0082200D01*
X0167383Y0082056D01*
X0167309Y0081914D01*
X0167231Y0081773D01*
X0167149Y0081635D01*
X0167064Y0081498D01*
X0166976Y0081364D01*
X0166884Y0081232D01*
X0166789Y0081102D01*
X0166691Y0080974D01*
X0166590Y0080849D01*
X0166486Y0080727D01*
X0166379Y0080607D01*
X0166269Y0080490D01*
X0166156Y0080375D01*
X0166040Y0080264D01*
X0165921Y0080155D01*
X0165800Y0080050D01*
X0165676Y0079947D01*
X0165550Y0079847D01*
X0165422Y0079751D01*
X0165291Y0079658D01*
X0165157Y0079568D01*
X0165022Y0079481D01*
X0164884Y0079398D01*
X0164745Y0079318D01*
X0164603Y0079242D01*
X0164460Y0079169D01*
X0164315Y0079100D01*
X0164168Y0079034D01*
X0164020Y0078972D01*
X0163870Y0078914D01*
X0163719Y0078859D01*
X0163566Y0078808D01*
X0163412Y0078761D01*
X0163257Y0078718D01*
X0163101Y0078679D01*
X0162945Y0078643D01*
X0162787Y0078612D01*
X0162629Y0078584D01*
X0162470Y0078560D01*
X0162310Y0078540D01*
X0162150Y0078524D01*
X0161990Y0078512D01*
X0161829Y0078504D01*
X0161668Y0078500D01*
X0161508Y0078500D01*
X0161347Y0078504D01*
X0161186Y0078512D01*
X0161026Y0078524D01*
X0160866Y0078540D01*
X0160706Y0078560D01*
X0160547Y0078584D01*
X0160389Y0078612D01*
X0160231Y0078643D01*
X0160075Y0078679D01*
X0159919Y0078718D01*
X0159764Y0078761D01*
X0159610Y0078808D01*
X0159457Y0078859D01*
X0159306Y0078914D01*
X0159156Y0078972D01*
X0159008Y0079034D01*
X0158861Y0079100D01*
X0158716Y0079169D01*
X0158573Y0079242D01*
X0158431Y0079318D01*
X0158292Y0079398D01*
X0158154Y0079481D01*
X0158019Y0079568D01*
X0157885Y0079658D01*
X0157754Y0079751D01*
X0157626Y0079847D01*
X0157500Y0079947D01*
X0157376Y0080050D01*
X0157255Y0080155D01*
X0157136Y0080264D01*
X0157020Y0080375D01*
X0156907Y0080490D01*
X0156797Y0080607D01*
X0156690Y0080727D01*
X0156586Y0080849D01*
X0156485Y0080974D01*
X0156387Y0081102D01*
X0156292Y0081232D01*
X0156200Y0081364D01*
X0156112Y0081498D01*
X0156027Y0081635D01*
X0155945Y0081773D01*
X0155867Y0081914D01*
X0155793Y0082056D01*
X0155722Y0082200D01*
X0155654Y0082346D01*
X0155591Y0082494D01*
X0155530Y0082643D01*
X0155474Y0082794D01*
X0155421Y0082946D01*
X0155372Y0083099D01*
X0155327Y0083253D01*
X0155286Y0083408D01*
X0155248Y0083565D01*
X0155215Y0083722D01*
X0155185Y0083880D01*
X0155159Y0084039D01*
X0155138Y0084198D01*
X0155120Y0084358D01*
X0155106Y0084518D01*
X0155096Y0084679D01*
X0155090Y0084839D01*
X0155088Y0085000D01*
X0218930Y0094311D02*
X0218932Y0094382D01*
X0218938Y0094453D01*
X0218948Y0094524D01*
X0218962Y0094593D01*
X0218979Y0094662D01*
X0219001Y0094730D01*
X0219026Y0094797D01*
X0219055Y0094862D01*
X0219087Y0094925D01*
X0219123Y0094987D01*
X0219162Y0095046D01*
X0219205Y0095103D01*
X0219250Y0095158D01*
X0219299Y0095210D01*
X0219350Y0095259D01*
X0219404Y0095305D01*
X0219461Y0095349D01*
X0219519Y0095389D01*
X0219580Y0095425D01*
X0219643Y0095459D01*
X0219708Y0095488D01*
X0219774Y0095514D01*
X0219842Y0095537D01*
X0219910Y0095555D01*
X0219980Y0095570D01*
X0220050Y0095581D01*
X0220121Y0095588D01*
X0220192Y0095591D01*
X0220263Y0095590D01*
X0220334Y0095585D01*
X0220405Y0095576D01*
X0220475Y0095563D01*
X0220544Y0095547D01*
X0220612Y0095526D01*
X0220679Y0095502D01*
X0220745Y0095474D01*
X0220808Y0095442D01*
X0220870Y0095407D01*
X0220930Y0095369D01*
X0220988Y0095327D01*
X0221043Y0095283D01*
X0221096Y0095235D01*
X0221146Y0095184D01*
X0221193Y0095131D01*
X0221237Y0095075D01*
X0221278Y0095017D01*
X0221316Y0094956D01*
X0221350Y0094894D01*
X0221380Y0094829D01*
X0221407Y0094764D01*
X0221431Y0094696D01*
X0221450Y0094628D01*
X0221466Y0094559D01*
X0221478Y0094488D01*
X0221486Y0094418D01*
X0221490Y0094347D01*
X0221490Y0094275D01*
X0221486Y0094204D01*
X0221478Y0094134D01*
X0221466Y0094063D01*
X0221450Y0093994D01*
X0221431Y0093926D01*
X0221407Y0093858D01*
X0221380Y0093793D01*
X0221350Y0093728D01*
X0221316Y0093666D01*
X0221278Y0093605D01*
X0221237Y0093547D01*
X0221193Y0093491D01*
X0221146Y0093438D01*
X0221096Y0093387D01*
X0221043Y0093339D01*
X0220988Y0093295D01*
X0220930Y0093253D01*
X0220870Y0093215D01*
X0220808Y0093180D01*
X0220745Y0093148D01*
X0220679Y0093120D01*
X0220612Y0093096D01*
X0220544Y0093075D01*
X0220475Y0093059D01*
X0220405Y0093046D01*
X0220334Y0093037D01*
X0220263Y0093032D01*
X0220192Y0093031D01*
X0220121Y0093034D01*
X0220050Y0093041D01*
X0219980Y0093052D01*
X0219910Y0093067D01*
X0219842Y0093085D01*
X0219774Y0093108D01*
X0219708Y0093134D01*
X0219643Y0093163D01*
X0219580Y0093197D01*
X0219519Y0093233D01*
X0219461Y0093273D01*
X0219404Y0093317D01*
X0219350Y0093363D01*
X0219299Y0093412D01*
X0219250Y0093464D01*
X0219205Y0093519D01*
X0219162Y0093576D01*
X0219123Y0093635D01*
X0219087Y0093697D01*
X0219055Y0093760D01*
X0219026Y0093825D01*
X0219001Y0093892D01*
X0218979Y0093960D01*
X0218962Y0094029D01*
X0218948Y0094098D01*
X0218938Y0094169D01*
X0218932Y0094240D01*
X0218930Y0094311D01*
X0241686Y0094311D02*
X0241688Y0094382D01*
X0241694Y0094453D01*
X0241704Y0094524D01*
X0241718Y0094593D01*
X0241735Y0094662D01*
X0241757Y0094730D01*
X0241782Y0094797D01*
X0241811Y0094862D01*
X0241843Y0094925D01*
X0241879Y0094987D01*
X0241918Y0095046D01*
X0241961Y0095103D01*
X0242006Y0095158D01*
X0242055Y0095210D01*
X0242106Y0095259D01*
X0242160Y0095305D01*
X0242217Y0095349D01*
X0242275Y0095389D01*
X0242336Y0095425D01*
X0242399Y0095459D01*
X0242464Y0095488D01*
X0242530Y0095514D01*
X0242598Y0095537D01*
X0242666Y0095555D01*
X0242736Y0095570D01*
X0242806Y0095581D01*
X0242877Y0095588D01*
X0242948Y0095591D01*
X0243019Y0095590D01*
X0243090Y0095585D01*
X0243161Y0095576D01*
X0243231Y0095563D01*
X0243300Y0095547D01*
X0243368Y0095526D01*
X0243435Y0095502D01*
X0243501Y0095474D01*
X0243564Y0095442D01*
X0243626Y0095407D01*
X0243686Y0095369D01*
X0243744Y0095327D01*
X0243799Y0095283D01*
X0243852Y0095235D01*
X0243902Y0095184D01*
X0243949Y0095131D01*
X0243993Y0095075D01*
X0244034Y0095017D01*
X0244072Y0094956D01*
X0244106Y0094894D01*
X0244136Y0094829D01*
X0244163Y0094764D01*
X0244187Y0094696D01*
X0244206Y0094628D01*
X0244222Y0094559D01*
X0244234Y0094488D01*
X0244242Y0094418D01*
X0244246Y0094347D01*
X0244246Y0094275D01*
X0244242Y0094204D01*
X0244234Y0094134D01*
X0244222Y0094063D01*
X0244206Y0093994D01*
X0244187Y0093926D01*
X0244163Y0093858D01*
X0244136Y0093793D01*
X0244106Y0093728D01*
X0244072Y0093666D01*
X0244034Y0093605D01*
X0243993Y0093547D01*
X0243949Y0093491D01*
X0243902Y0093438D01*
X0243852Y0093387D01*
X0243799Y0093339D01*
X0243744Y0093295D01*
X0243686Y0093253D01*
X0243626Y0093215D01*
X0243564Y0093180D01*
X0243501Y0093148D01*
X0243435Y0093120D01*
X0243368Y0093096D01*
X0243300Y0093075D01*
X0243231Y0093059D01*
X0243161Y0093046D01*
X0243090Y0093037D01*
X0243019Y0093032D01*
X0242948Y0093031D01*
X0242877Y0093034D01*
X0242806Y0093041D01*
X0242736Y0093052D01*
X0242666Y0093067D01*
X0242598Y0093085D01*
X0242530Y0093108D01*
X0242464Y0093134D01*
X0242399Y0093163D01*
X0242336Y0093197D01*
X0242275Y0093233D01*
X0242217Y0093273D01*
X0242160Y0093317D01*
X0242106Y0093363D01*
X0242055Y0093412D01*
X0242006Y0093464D01*
X0241961Y0093519D01*
X0241918Y0093576D01*
X0241879Y0093635D01*
X0241843Y0093697D01*
X0241811Y0093760D01*
X0241782Y0093825D01*
X0241757Y0093892D01*
X0241735Y0093960D01*
X0241718Y0094029D01*
X0241704Y0094098D01*
X0241694Y0094169D01*
X0241688Y0094240D01*
X0241686Y0094311D01*
X0255088Y0085000D02*
X0255090Y0085161D01*
X0255096Y0085321D01*
X0255106Y0085482D01*
X0255120Y0085642D01*
X0255138Y0085802D01*
X0255159Y0085961D01*
X0255185Y0086120D01*
X0255215Y0086278D01*
X0255248Y0086435D01*
X0255286Y0086592D01*
X0255327Y0086747D01*
X0255372Y0086901D01*
X0255421Y0087054D01*
X0255474Y0087206D01*
X0255530Y0087357D01*
X0255591Y0087506D01*
X0255654Y0087654D01*
X0255722Y0087800D01*
X0255793Y0087944D01*
X0255867Y0088086D01*
X0255945Y0088227D01*
X0256027Y0088365D01*
X0256112Y0088502D01*
X0256200Y0088636D01*
X0256292Y0088768D01*
X0256387Y0088898D01*
X0256485Y0089026D01*
X0256586Y0089151D01*
X0256690Y0089273D01*
X0256797Y0089393D01*
X0256907Y0089510D01*
X0257020Y0089625D01*
X0257136Y0089736D01*
X0257255Y0089845D01*
X0257376Y0089950D01*
X0257500Y0090053D01*
X0257626Y0090153D01*
X0257754Y0090249D01*
X0257885Y0090342D01*
X0258019Y0090432D01*
X0258154Y0090519D01*
X0258292Y0090602D01*
X0258431Y0090682D01*
X0258573Y0090758D01*
X0258716Y0090831D01*
X0258861Y0090900D01*
X0259008Y0090966D01*
X0259156Y0091028D01*
X0259306Y0091086D01*
X0259457Y0091141D01*
X0259610Y0091192D01*
X0259764Y0091239D01*
X0259919Y0091282D01*
X0260075Y0091321D01*
X0260231Y0091357D01*
X0260389Y0091388D01*
X0260547Y0091416D01*
X0260706Y0091440D01*
X0260866Y0091460D01*
X0261026Y0091476D01*
X0261186Y0091488D01*
X0261347Y0091496D01*
X0261508Y0091500D01*
X0261668Y0091500D01*
X0261829Y0091496D01*
X0261990Y0091488D01*
X0262150Y0091476D01*
X0262310Y0091460D01*
X0262470Y0091440D01*
X0262629Y0091416D01*
X0262787Y0091388D01*
X0262945Y0091357D01*
X0263101Y0091321D01*
X0263257Y0091282D01*
X0263412Y0091239D01*
X0263566Y0091192D01*
X0263719Y0091141D01*
X0263870Y0091086D01*
X0264020Y0091028D01*
X0264168Y0090966D01*
X0264315Y0090900D01*
X0264460Y0090831D01*
X0264603Y0090758D01*
X0264745Y0090682D01*
X0264884Y0090602D01*
X0265022Y0090519D01*
X0265157Y0090432D01*
X0265291Y0090342D01*
X0265422Y0090249D01*
X0265550Y0090153D01*
X0265676Y0090053D01*
X0265800Y0089950D01*
X0265921Y0089845D01*
X0266040Y0089736D01*
X0266156Y0089625D01*
X0266269Y0089510D01*
X0266379Y0089393D01*
X0266486Y0089273D01*
X0266590Y0089151D01*
X0266691Y0089026D01*
X0266789Y0088898D01*
X0266884Y0088768D01*
X0266976Y0088636D01*
X0267064Y0088502D01*
X0267149Y0088365D01*
X0267231Y0088227D01*
X0267309Y0088086D01*
X0267383Y0087944D01*
X0267454Y0087800D01*
X0267522Y0087654D01*
X0267585Y0087506D01*
X0267646Y0087357D01*
X0267702Y0087206D01*
X0267755Y0087054D01*
X0267804Y0086901D01*
X0267849Y0086747D01*
X0267890Y0086592D01*
X0267928Y0086435D01*
X0267961Y0086278D01*
X0267991Y0086120D01*
X0268017Y0085961D01*
X0268038Y0085802D01*
X0268056Y0085642D01*
X0268070Y0085482D01*
X0268080Y0085321D01*
X0268086Y0085161D01*
X0268088Y0085000D01*
X0268086Y0084839D01*
X0268080Y0084679D01*
X0268070Y0084518D01*
X0268056Y0084358D01*
X0268038Y0084198D01*
X0268017Y0084039D01*
X0267991Y0083880D01*
X0267961Y0083722D01*
X0267928Y0083565D01*
X0267890Y0083408D01*
X0267849Y0083253D01*
X0267804Y0083099D01*
X0267755Y0082946D01*
X0267702Y0082794D01*
X0267646Y0082643D01*
X0267585Y0082494D01*
X0267522Y0082346D01*
X0267454Y0082200D01*
X0267383Y0082056D01*
X0267309Y0081914D01*
X0267231Y0081773D01*
X0267149Y0081635D01*
X0267064Y0081498D01*
X0266976Y0081364D01*
X0266884Y0081232D01*
X0266789Y0081102D01*
X0266691Y0080974D01*
X0266590Y0080849D01*
X0266486Y0080727D01*
X0266379Y0080607D01*
X0266269Y0080490D01*
X0266156Y0080375D01*
X0266040Y0080264D01*
X0265921Y0080155D01*
X0265800Y0080050D01*
X0265676Y0079947D01*
X0265550Y0079847D01*
X0265422Y0079751D01*
X0265291Y0079658D01*
X0265157Y0079568D01*
X0265022Y0079481D01*
X0264884Y0079398D01*
X0264745Y0079318D01*
X0264603Y0079242D01*
X0264460Y0079169D01*
X0264315Y0079100D01*
X0264168Y0079034D01*
X0264020Y0078972D01*
X0263870Y0078914D01*
X0263719Y0078859D01*
X0263566Y0078808D01*
X0263412Y0078761D01*
X0263257Y0078718D01*
X0263101Y0078679D01*
X0262945Y0078643D01*
X0262787Y0078612D01*
X0262629Y0078584D01*
X0262470Y0078560D01*
X0262310Y0078540D01*
X0262150Y0078524D01*
X0261990Y0078512D01*
X0261829Y0078504D01*
X0261668Y0078500D01*
X0261508Y0078500D01*
X0261347Y0078504D01*
X0261186Y0078512D01*
X0261026Y0078524D01*
X0260866Y0078540D01*
X0260706Y0078560D01*
X0260547Y0078584D01*
X0260389Y0078612D01*
X0260231Y0078643D01*
X0260075Y0078679D01*
X0259919Y0078718D01*
X0259764Y0078761D01*
X0259610Y0078808D01*
X0259457Y0078859D01*
X0259306Y0078914D01*
X0259156Y0078972D01*
X0259008Y0079034D01*
X0258861Y0079100D01*
X0258716Y0079169D01*
X0258573Y0079242D01*
X0258431Y0079318D01*
X0258292Y0079398D01*
X0258154Y0079481D01*
X0258019Y0079568D01*
X0257885Y0079658D01*
X0257754Y0079751D01*
X0257626Y0079847D01*
X0257500Y0079947D01*
X0257376Y0080050D01*
X0257255Y0080155D01*
X0257136Y0080264D01*
X0257020Y0080375D01*
X0256907Y0080490D01*
X0256797Y0080607D01*
X0256690Y0080727D01*
X0256586Y0080849D01*
X0256485Y0080974D01*
X0256387Y0081102D01*
X0256292Y0081232D01*
X0256200Y0081364D01*
X0256112Y0081498D01*
X0256027Y0081635D01*
X0255945Y0081773D01*
X0255867Y0081914D01*
X0255793Y0082056D01*
X0255722Y0082200D01*
X0255654Y0082346D01*
X0255591Y0082494D01*
X0255530Y0082643D01*
X0255474Y0082794D01*
X0255421Y0082946D01*
X0255372Y0083099D01*
X0255327Y0083253D01*
X0255286Y0083408D01*
X0255248Y0083565D01*
X0255215Y0083722D01*
X0255185Y0083880D01*
X0255159Y0084039D01*
X0255138Y0084198D01*
X0255120Y0084358D01*
X0255106Y0084518D01*
X0255096Y0084679D01*
X0255090Y0084839D01*
X0255088Y0085000D01*
X0264316Y0149094D02*
X0264318Y0149178D01*
X0264324Y0149261D01*
X0264334Y0149344D01*
X0264348Y0149427D01*
X0264365Y0149509D01*
X0264387Y0149590D01*
X0264412Y0149669D01*
X0264441Y0149748D01*
X0264474Y0149825D01*
X0264510Y0149900D01*
X0264550Y0149974D01*
X0264593Y0150046D01*
X0264640Y0150115D01*
X0264690Y0150182D01*
X0264743Y0150247D01*
X0264799Y0150309D01*
X0264857Y0150369D01*
X0264919Y0150426D01*
X0264983Y0150479D01*
X0265050Y0150530D01*
X0265119Y0150577D01*
X0265190Y0150622D01*
X0265263Y0150662D01*
X0265338Y0150699D01*
X0265415Y0150733D01*
X0265493Y0150763D01*
X0265572Y0150789D01*
X0265653Y0150812D01*
X0265735Y0150830D01*
X0265817Y0150845D01*
X0265900Y0150856D01*
X0265983Y0150863D01*
X0266067Y0150866D01*
X0266151Y0150865D01*
X0266234Y0150860D01*
X0266318Y0150851D01*
X0266400Y0150838D01*
X0266482Y0150822D01*
X0266563Y0150801D01*
X0266644Y0150777D01*
X0266722Y0150749D01*
X0266800Y0150717D01*
X0266876Y0150681D01*
X0266950Y0150642D01*
X0267022Y0150600D01*
X0267092Y0150554D01*
X0267160Y0150505D01*
X0267225Y0150453D01*
X0267288Y0150398D01*
X0267348Y0150340D01*
X0267406Y0150279D01*
X0267460Y0150215D01*
X0267512Y0150149D01*
X0267560Y0150081D01*
X0267605Y0150010D01*
X0267646Y0149937D01*
X0267685Y0149863D01*
X0267719Y0149787D01*
X0267750Y0149709D01*
X0267777Y0149630D01*
X0267801Y0149549D01*
X0267820Y0149468D01*
X0267836Y0149386D01*
X0267848Y0149303D01*
X0267856Y0149219D01*
X0267860Y0149136D01*
X0267860Y0149052D01*
X0267856Y0148969D01*
X0267848Y0148885D01*
X0267836Y0148802D01*
X0267820Y0148720D01*
X0267801Y0148639D01*
X0267777Y0148558D01*
X0267750Y0148479D01*
X0267719Y0148401D01*
X0267685Y0148325D01*
X0267646Y0148251D01*
X0267605Y0148178D01*
X0267560Y0148107D01*
X0267512Y0148039D01*
X0267460Y0147973D01*
X0267406Y0147909D01*
X0267348Y0147848D01*
X0267288Y0147790D01*
X0267225Y0147735D01*
X0267160Y0147683D01*
X0267092Y0147634D01*
X0267022Y0147588D01*
X0266950Y0147546D01*
X0266876Y0147507D01*
X0266800Y0147471D01*
X0266722Y0147439D01*
X0266644Y0147411D01*
X0266563Y0147387D01*
X0266482Y0147366D01*
X0266400Y0147350D01*
X0266318Y0147337D01*
X0266234Y0147328D01*
X0266151Y0147323D01*
X0266067Y0147322D01*
X0265983Y0147325D01*
X0265900Y0147332D01*
X0265817Y0147343D01*
X0265735Y0147358D01*
X0265653Y0147376D01*
X0265572Y0147399D01*
X0265493Y0147425D01*
X0265415Y0147455D01*
X0265338Y0147489D01*
X0265263Y0147526D01*
X0265190Y0147566D01*
X0265119Y0147611D01*
X0265050Y0147658D01*
X0264983Y0147709D01*
X0264919Y0147762D01*
X0264857Y0147819D01*
X0264799Y0147879D01*
X0264743Y0147941D01*
X0264690Y0148006D01*
X0264640Y0148073D01*
X0264593Y0148142D01*
X0264550Y0148214D01*
X0264510Y0148288D01*
X0264474Y0148363D01*
X0264441Y0148440D01*
X0264412Y0148519D01*
X0264387Y0148598D01*
X0264365Y0148679D01*
X0264348Y0148761D01*
X0264334Y0148844D01*
X0264324Y0148927D01*
X0264318Y0149010D01*
X0264316Y0149094D01*
X0264316Y0160906D02*
X0264318Y0160990D01*
X0264324Y0161073D01*
X0264334Y0161156D01*
X0264348Y0161239D01*
X0264365Y0161321D01*
X0264387Y0161402D01*
X0264412Y0161481D01*
X0264441Y0161560D01*
X0264474Y0161637D01*
X0264510Y0161712D01*
X0264550Y0161786D01*
X0264593Y0161858D01*
X0264640Y0161927D01*
X0264690Y0161994D01*
X0264743Y0162059D01*
X0264799Y0162121D01*
X0264857Y0162181D01*
X0264919Y0162238D01*
X0264983Y0162291D01*
X0265050Y0162342D01*
X0265119Y0162389D01*
X0265190Y0162434D01*
X0265263Y0162474D01*
X0265338Y0162511D01*
X0265415Y0162545D01*
X0265493Y0162575D01*
X0265572Y0162601D01*
X0265653Y0162624D01*
X0265735Y0162642D01*
X0265817Y0162657D01*
X0265900Y0162668D01*
X0265983Y0162675D01*
X0266067Y0162678D01*
X0266151Y0162677D01*
X0266234Y0162672D01*
X0266318Y0162663D01*
X0266400Y0162650D01*
X0266482Y0162634D01*
X0266563Y0162613D01*
X0266644Y0162589D01*
X0266722Y0162561D01*
X0266800Y0162529D01*
X0266876Y0162493D01*
X0266950Y0162454D01*
X0267022Y0162412D01*
X0267092Y0162366D01*
X0267160Y0162317D01*
X0267225Y0162265D01*
X0267288Y0162210D01*
X0267348Y0162152D01*
X0267406Y0162091D01*
X0267460Y0162027D01*
X0267512Y0161961D01*
X0267560Y0161893D01*
X0267605Y0161822D01*
X0267646Y0161749D01*
X0267685Y0161675D01*
X0267719Y0161599D01*
X0267750Y0161521D01*
X0267777Y0161442D01*
X0267801Y0161361D01*
X0267820Y0161280D01*
X0267836Y0161198D01*
X0267848Y0161115D01*
X0267856Y0161031D01*
X0267860Y0160948D01*
X0267860Y0160864D01*
X0267856Y0160781D01*
X0267848Y0160697D01*
X0267836Y0160614D01*
X0267820Y0160532D01*
X0267801Y0160451D01*
X0267777Y0160370D01*
X0267750Y0160291D01*
X0267719Y0160213D01*
X0267685Y0160137D01*
X0267646Y0160063D01*
X0267605Y0159990D01*
X0267560Y0159919D01*
X0267512Y0159851D01*
X0267460Y0159785D01*
X0267406Y0159721D01*
X0267348Y0159660D01*
X0267288Y0159602D01*
X0267225Y0159547D01*
X0267160Y0159495D01*
X0267092Y0159446D01*
X0267022Y0159400D01*
X0266950Y0159358D01*
X0266876Y0159319D01*
X0266800Y0159283D01*
X0266722Y0159251D01*
X0266644Y0159223D01*
X0266563Y0159199D01*
X0266482Y0159178D01*
X0266400Y0159162D01*
X0266318Y0159149D01*
X0266234Y0159140D01*
X0266151Y0159135D01*
X0266067Y0159134D01*
X0265983Y0159137D01*
X0265900Y0159144D01*
X0265817Y0159155D01*
X0265735Y0159170D01*
X0265653Y0159188D01*
X0265572Y0159211D01*
X0265493Y0159237D01*
X0265415Y0159267D01*
X0265338Y0159301D01*
X0265263Y0159338D01*
X0265190Y0159378D01*
X0265119Y0159423D01*
X0265050Y0159470D01*
X0264983Y0159521D01*
X0264919Y0159574D01*
X0264857Y0159631D01*
X0264799Y0159691D01*
X0264743Y0159753D01*
X0264690Y0159818D01*
X0264640Y0159885D01*
X0264593Y0159954D01*
X0264550Y0160026D01*
X0264510Y0160100D01*
X0264474Y0160175D01*
X0264441Y0160252D01*
X0264412Y0160331D01*
X0264387Y0160410D01*
X0264365Y0160491D01*
X0264348Y0160573D01*
X0264334Y0160656D01*
X0264324Y0160739D01*
X0264318Y0160822D01*
X0264316Y0160906D01*
X0255088Y0185000D02*
X0255090Y0185161D01*
X0255096Y0185321D01*
X0255106Y0185482D01*
X0255120Y0185642D01*
X0255138Y0185802D01*
X0255159Y0185961D01*
X0255185Y0186120D01*
X0255215Y0186278D01*
X0255248Y0186435D01*
X0255286Y0186592D01*
X0255327Y0186747D01*
X0255372Y0186901D01*
X0255421Y0187054D01*
X0255474Y0187206D01*
X0255530Y0187357D01*
X0255591Y0187506D01*
X0255654Y0187654D01*
X0255722Y0187800D01*
X0255793Y0187944D01*
X0255867Y0188086D01*
X0255945Y0188227D01*
X0256027Y0188365D01*
X0256112Y0188502D01*
X0256200Y0188636D01*
X0256292Y0188768D01*
X0256387Y0188898D01*
X0256485Y0189026D01*
X0256586Y0189151D01*
X0256690Y0189273D01*
X0256797Y0189393D01*
X0256907Y0189510D01*
X0257020Y0189625D01*
X0257136Y0189736D01*
X0257255Y0189845D01*
X0257376Y0189950D01*
X0257500Y0190053D01*
X0257626Y0190153D01*
X0257754Y0190249D01*
X0257885Y0190342D01*
X0258019Y0190432D01*
X0258154Y0190519D01*
X0258292Y0190602D01*
X0258431Y0190682D01*
X0258573Y0190758D01*
X0258716Y0190831D01*
X0258861Y0190900D01*
X0259008Y0190966D01*
X0259156Y0191028D01*
X0259306Y0191086D01*
X0259457Y0191141D01*
X0259610Y0191192D01*
X0259764Y0191239D01*
X0259919Y0191282D01*
X0260075Y0191321D01*
X0260231Y0191357D01*
X0260389Y0191388D01*
X0260547Y0191416D01*
X0260706Y0191440D01*
X0260866Y0191460D01*
X0261026Y0191476D01*
X0261186Y0191488D01*
X0261347Y0191496D01*
X0261508Y0191500D01*
X0261668Y0191500D01*
X0261829Y0191496D01*
X0261990Y0191488D01*
X0262150Y0191476D01*
X0262310Y0191460D01*
X0262470Y0191440D01*
X0262629Y0191416D01*
X0262787Y0191388D01*
X0262945Y0191357D01*
X0263101Y0191321D01*
X0263257Y0191282D01*
X0263412Y0191239D01*
X0263566Y0191192D01*
X0263719Y0191141D01*
X0263870Y0191086D01*
X0264020Y0191028D01*
X0264168Y0190966D01*
X0264315Y0190900D01*
X0264460Y0190831D01*
X0264603Y0190758D01*
X0264745Y0190682D01*
X0264884Y0190602D01*
X0265022Y0190519D01*
X0265157Y0190432D01*
X0265291Y0190342D01*
X0265422Y0190249D01*
X0265550Y0190153D01*
X0265676Y0190053D01*
X0265800Y0189950D01*
X0265921Y0189845D01*
X0266040Y0189736D01*
X0266156Y0189625D01*
X0266269Y0189510D01*
X0266379Y0189393D01*
X0266486Y0189273D01*
X0266590Y0189151D01*
X0266691Y0189026D01*
X0266789Y0188898D01*
X0266884Y0188768D01*
X0266976Y0188636D01*
X0267064Y0188502D01*
X0267149Y0188365D01*
X0267231Y0188227D01*
X0267309Y0188086D01*
X0267383Y0187944D01*
X0267454Y0187800D01*
X0267522Y0187654D01*
X0267585Y0187506D01*
X0267646Y0187357D01*
X0267702Y0187206D01*
X0267755Y0187054D01*
X0267804Y0186901D01*
X0267849Y0186747D01*
X0267890Y0186592D01*
X0267928Y0186435D01*
X0267961Y0186278D01*
X0267991Y0186120D01*
X0268017Y0185961D01*
X0268038Y0185802D01*
X0268056Y0185642D01*
X0268070Y0185482D01*
X0268080Y0185321D01*
X0268086Y0185161D01*
X0268088Y0185000D01*
X0268086Y0184839D01*
X0268080Y0184679D01*
X0268070Y0184518D01*
X0268056Y0184358D01*
X0268038Y0184198D01*
X0268017Y0184039D01*
X0267991Y0183880D01*
X0267961Y0183722D01*
X0267928Y0183565D01*
X0267890Y0183408D01*
X0267849Y0183253D01*
X0267804Y0183099D01*
X0267755Y0182946D01*
X0267702Y0182794D01*
X0267646Y0182643D01*
X0267585Y0182494D01*
X0267522Y0182346D01*
X0267454Y0182200D01*
X0267383Y0182056D01*
X0267309Y0181914D01*
X0267231Y0181773D01*
X0267149Y0181635D01*
X0267064Y0181498D01*
X0266976Y0181364D01*
X0266884Y0181232D01*
X0266789Y0181102D01*
X0266691Y0180974D01*
X0266590Y0180849D01*
X0266486Y0180727D01*
X0266379Y0180607D01*
X0266269Y0180490D01*
X0266156Y0180375D01*
X0266040Y0180264D01*
X0265921Y0180155D01*
X0265800Y0180050D01*
X0265676Y0179947D01*
X0265550Y0179847D01*
X0265422Y0179751D01*
X0265291Y0179658D01*
X0265157Y0179568D01*
X0265022Y0179481D01*
X0264884Y0179398D01*
X0264745Y0179318D01*
X0264603Y0179242D01*
X0264460Y0179169D01*
X0264315Y0179100D01*
X0264168Y0179034D01*
X0264020Y0178972D01*
X0263870Y0178914D01*
X0263719Y0178859D01*
X0263566Y0178808D01*
X0263412Y0178761D01*
X0263257Y0178718D01*
X0263101Y0178679D01*
X0262945Y0178643D01*
X0262787Y0178612D01*
X0262629Y0178584D01*
X0262470Y0178560D01*
X0262310Y0178540D01*
X0262150Y0178524D01*
X0261990Y0178512D01*
X0261829Y0178504D01*
X0261668Y0178500D01*
X0261508Y0178500D01*
X0261347Y0178504D01*
X0261186Y0178512D01*
X0261026Y0178524D01*
X0260866Y0178540D01*
X0260706Y0178560D01*
X0260547Y0178584D01*
X0260389Y0178612D01*
X0260231Y0178643D01*
X0260075Y0178679D01*
X0259919Y0178718D01*
X0259764Y0178761D01*
X0259610Y0178808D01*
X0259457Y0178859D01*
X0259306Y0178914D01*
X0259156Y0178972D01*
X0259008Y0179034D01*
X0258861Y0179100D01*
X0258716Y0179169D01*
X0258573Y0179242D01*
X0258431Y0179318D01*
X0258292Y0179398D01*
X0258154Y0179481D01*
X0258019Y0179568D01*
X0257885Y0179658D01*
X0257754Y0179751D01*
X0257626Y0179847D01*
X0257500Y0179947D01*
X0257376Y0180050D01*
X0257255Y0180155D01*
X0257136Y0180264D01*
X0257020Y0180375D01*
X0256907Y0180490D01*
X0256797Y0180607D01*
X0256690Y0180727D01*
X0256586Y0180849D01*
X0256485Y0180974D01*
X0256387Y0181102D01*
X0256292Y0181232D01*
X0256200Y0181364D01*
X0256112Y0181498D01*
X0256027Y0181635D01*
X0255945Y0181773D01*
X0255867Y0181914D01*
X0255793Y0182056D01*
X0255722Y0182200D01*
X0255654Y0182346D01*
X0255591Y0182494D01*
X0255530Y0182643D01*
X0255474Y0182794D01*
X0255421Y0182946D01*
X0255372Y0183099D01*
X0255327Y0183253D01*
X0255286Y0183408D01*
X0255248Y0183565D01*
X0255215Y0183722D01*
X0255185Y0183880D01*
X0255159Y0184039D01*
X0255138Y0184198D01*
X0255120Y0184358D01*
X0255106Y0184518D01*
X0255096Y0184679D01*
X0255090Y0184839D01*
X0255088Y0185000D01*
X0155088Y0185000D02*
X0155090Y0185161D01*
X0155096Y0185321D01*
X0155106Y0185482D01*
X0155120Y0185642D01*
X0155138Y0185802D01*
X0155159Y0185961D01*
X0155185Y0186120D01*
X0155215Y0186278D01*
X0155248Y0186435D01*
X0155286Y0186592D01*
X0155327Y0186747D01*
X0155372Y0186901D01*
X0155421Y0187054D01*
X0155474Y0187206D01*
X0155530Y0187357D01*
X0155591Y0187506D01*
X0155654Y0187654D01*
X0155722Y0187800D01*
X0155793Y0187944D01*
X0155867Y0188086D01*
X0155945Y0188227D01*
X0156027Y0188365D01*
X0156112Y0188502D01*
X0156200Y0188636D01*
X0156292Y0188768D01*
X0156387Y0188898D01*
X0156485Y0189026D01*
X0156586Y0189151D01*
X0156690Y0189273D01*
X0156797Y0189393D01*
X0156907Y0189510D01*
X0157020Y0189625D01*
X0157136Y0189736D01*
X0157255Y0189845D01*
X0157376Y0189950D01*
X0157500Y0190053D01*
X0157626Y0190153D01*
X0157754Y0190249D01*
X0157885Y0190342D01*
X0158019Y0190432D01*
X0158154Y0190519D01*
X0158292Y0190602D01*
X0158431Y0190682D01*
X0158573Y0190758D01*
X0158716Y0190831D01*
X0158861Y0190900D01*
X0159008Y0190966D01*
X0159156Y0191028D01*
X0159306Y0191086D01*
X0159457Y0191141D01*
X0159610Y0191192D01*
X0159764Y0191239D01*
X0159919Y0191282D01*
X0160075Y0191321D01*
X0160231Y0191357D01*
X0160389Y0191388D01*
X0160547Y0191416D01*
X0160706Y0191440D01*
X0160866Y0191460D01*
X0161026Y0191476D01*
X0161186Y0191488D01*
X0161347Y0191496D01*
X0161508Y0191500D01*
X0161668Y0191500D01*
X0161829Y0191496D01*
X0161990Y0191488D01*
X0162150Y0191476D01*
X0162310Y0191460D01*
X0162470Y0191440D01*
X0162629Y0191416D01*
X0162787Y0191388D01*
X0162945Y0191357D01*
X0163101Y0191321D01*
X0163257Y0191282D01*
X0163412Y0191239D01*
X0163566Y0191192D01*
X0163719Y0191141D01*
X0163870Y0191086D01*
X0164020Y0191028D01*
X0164168Y0190966D01*
X0164315Y0190900D01*
X0164460Y0190831D01*
X0164603Y0190758D01*
X0164745Y0190682D01*
X0164884Y0190602D01*
X0165022Y0190519D01*
X0165157Y0190432D01*
X0165291Y0190342D01*
X0165422Y0190249D01*
X0165550Y0190153D01*
X0165676Y0190053D01*
X0165800Y0189950D01*
X0165921Y0189845D01*
X0166040Y0189736D01*
X0166156Y0189625D01*
X0166269Y0189510D01*
X0166379Y0189393D01*
X0166486Y0189273D01*
X0166590Y0189151D01*
X0166691Y0189026D01*
X0166789Y0188898D01*
X0166884Y0188768D01*
X0166976Y0188636D01*
X0167064Y0188502D01*
X0167149Y0188365D01*
X0167231Y0188227D01*
X0167309Y0188086D01*
X0167383Y0187944D01*
X0167454Y0187800D01*
X0167522Y0187654D01*
X0167585Y0187506D01*
X0167646Y0187357D01*
X0167702Y0187206D01*
X0167755Y0187054D01*
X0167804Y0186901D01*
X0167849Y0186747D01*
X0167890Y0186592D01*
X0167928Y0186435D01*
X0167961Y0186278D01*
X0167991Y0186120D01*
X0168017Y0185961D01*
X0168038Y0185802D01*
X0168056Y0185642D01*
X0168070Y0185482D01*
X0168080Y0185321D01*
X0168086Y0185161D01*
X0168088Y0185000D01*
X0168086Y0184839D01*
X0168080Y0184679D01*
X0168070Y0184518D01*
X0168056Y0184358D01*
X0168038Y0184198D01*
X0168017Y0184039D01*
X0167991Y0183880D01*
X0167961Y0183722D01*
X0167928Y0183565D01*
X0167890Y0183408D01*
X0167849Y0183253D01*
X0167804Y0183099D01*
X0167755Y0182946D01*
X0167702Y0182794D01*
X0167646Y0182643D01*
X0167585Y0182494D01*
X0167522Y0182346D01*
X0167454Y0182200D01*
X0167383Y0182056D01*
X0167309Y0181914D01*
X0167231Y0181773D01*
X0167149Y0181635D01*
X0167064Y0181498D01*
X0166976Y0181364D01*
X0166884Y0181232D01*
X0166789Y0181102D01*
X0166691Y0180974D01*
X0166590Y0180849D01*
X0166486Y0180727D01*
X0166379Y0180607D01*
X0166269Y0180490D01*
X0166156Y0180375D01*
X0166040Y0180264D01*
X0165921Y0180155D01*
X0165800Y0180050D01*
X0165676Y0179947D01*
X0165550Y0179847D01*
X0165422Y0179751D01*
X0165291Y0179658D01*
X0165157Y0179568D01*
X0165022Y0179481D01*
X0164884Y0179398D01*
X0164745Y0179318D01*
X0164603Y0179242D01*
X0164460Y0179169D01*
X0164315Y0179100D01*
X0164168Y0179034D01*
X0164020Y0178972D01*
X0163870Y0178914D01*
X0163719Y0178859D01*
X0163566Y0178808D01*
X0163412Y0178761D01*
X0163257Y0178718D01*
X0163101Y0178679D01*
X0162945Y0178643D01*
X0162787Y0178612D01*
X0162629Y0178584D01*
X0162470Y0178560D01*
X0162310Y0178540D01*
X0162150Y0178524D01*
X0161990Y0178512D01*
X0161829Y0178504D01*
X0161668Y0178500D01*
X0161508Y0178500D01*
X0161347Y0178504D01*
X0161186Y0178512D01*
X0161026Y0178524D01*
X0160866Y0178540D01*
X0160706Y0178560D01*
X0160547Y0178584D01*
X0160389Y0178612D01*
X0160231Y0178643D01*
X0160075Y0178679D01*
X0159919Y0178718D01*
X0159764Y0178761D01*
X0159610Y0178808D01*
X0159457Y0178859D01*
X0159306Y0178914D01*
X0159156Y0178972D01*
X0159008Y0179034D01*
X0158861Y0179100D01*
X0158716Y0179169D01*
X0158573Y0179242D01*
X0158431Y0179318D01*
X0158292Y0179398D01*
X0158154Y0179481D01*
X0158019Y0179568D01*
X0157885Y0179658D01*
X0157754Y0179751D01*
X0157626Y0179847D01*
X0157500Y0179947D01*
X0157376Y0180050D01*
X0157255Y0180155D01*
X0157136Y0180264D01*
X0157020Y0180375D01*
X0156907Y0180490D01*
X0156797Y0180607D01*
X0156690Y0180727D01*
X0156586Y0180849D01*
X0156485Y0180974D01*
X0156387Y0181102D01*
X0156292Y0181232D01*
X0156200Y0181364D01*
X0156112Y0181498D01*
X0156027Y0181635D01*
X0155945Y0181773D01*
X0155867Y0181914D01*
X0155793Y0182056D01*
X0155722Y0182200D01*
X0155654Y0182346D01*
X0155591Y0182494D01*
X0155530Y0182643D01*
X0155474Y0182794D01*
X0155421Y0182946D01*
X0155372Y0183099D01*
X0155327Y0183253D01*
X0155286Y0183408D01*
X0155248Y0183565D01*
X0155215Y0183722D01*
X0155185Y0183880D01*
X0155159Y0184039D01*
X0155138Y0184198D01*
X0155120Y0184358D01*
X0155106Y0184518D01*
X0155096Y0184679D01*
X0155090Y0184839D01*
X0155088Y0185000D01*
D12*
X0213399Y0098563D02*
X0213399Y0094232D01*
X0213400Y0094232D02*
X0213402Y0094165D01*
X0213408Y0094097D01*
X0213417Y0094031D01*
X0213431Y0093965D01*
X0213448Y0093899D01*
X0213469Y0093835D01*
X0213493Y0093772D01*
X0213521Y0093711D01*
X0213553Y0093651D01*
X0213587Y0093594D01*
X0213626Y0093538D01*
X0213667Y0093484D01*
X0213711Y0093433D01*
X0213758Y0093385D01*
X0213808Y0093339D01*
X0213860Y0093297D01*
X0213914Y0093257D01*
X0213971Y0093221D01*
X0214030Y0093187D01*
X0214090Y0093158D01*
X0214153Y0093131D01*
X0214216Y0093109D01*
X0214281Y0093090D01*
X0214346Y0093075D01*
X0214413Y0093063D01*
X0214480Y0093055D01*
X0214547Y0093051D01*
X0214615Y0093051D01*
X0214682Y0093055D01*
X0214749Y0093063D01*
X0214816Y0093075D01*
X0214881Y0093090D01*
X0214946Y0093109D01*
X0215009Y0093131D01*
X0215072Y0093158D01*
X0215132Y0093187D01*
X0215191Y0093221D01*
X0215248Y0093257D01*
X0215302Y0093297D01*
X0215354Y0093339D01*
X0215404Y0093385D01*
X0215451Y0093433D01*
X0215495Y0093484D01*
X0215536Y0093538D01*
X0215575Y0093594D01*
X0215609Y0093651D01*
X0215641Y0093711D01*
X0215669Y0093772D01*
X0215693Y0093835D01*
X0215714Y0093899D01*
X0215731Y0093965D01*
X0215745Y0094031D01*
X0215754Y0094097D01*
X0215760Y0094165D01*
X0215762Y0094232D01*
X0215762Y0098563D01*
X0215760Y0098630D01*
X0215754Y0098698D01*
X0215745Y0098764D01*
X0215731Y0098830D01*
X0215714Y0098896D01*
X0215693Y0098960D01*
X0215669Y0099023D01*
X0215641Y0099084D01*
X0215609Y0099144D01*
X0215575Y0099201D01*
X0215536Y0099257D01*
X0215495Y0099311D01*
X0215451Y0099362D01*
X0215404Y0099410D01*
X0215354Y0099456D01*
X0215302Y0099498D01*
X0215248Y0099538D01*
X0215191Y0099574D01*
X0215132Y0099608D01*
X0215072Y0099637D01*
X0215009Y0099664D01*
X0214946Y0099686D01*
X0214881Y0099705D01*
X0214816Y0099720D01*
X0214749Y0099732D01*
X0214682Y0099740D01*
X0214615Y0099744D01*
X0214547Y0099744D01*
X0214480Y0099740D01*
X0214413Y0099732D01*
X0214346Y0099720D01*
X0214281Y0099705D01*
X0214216Y0099686D01*
X0214153Y0099664D01*
X0214090Y0099637D01*
X0214030Y0099608D01*
X0213971Y0099574D01*
X0213914Y0099538D01*
X0213860Y0099498D01*
X0213808Y0099456D01*
X0213758Y0099410D01*
X0213711Y0099362D01*
X0213667Y0099311D01*
X0213626Y0099257D01*
X0213587Y0099201D01*
X0213553Y0099144D01*
X0213521Y0099084D01*
X0213493Y0099023D01*
X0213469Y0098960D01*
X0213448Y0098896D01*
X0213431Y0098830D01*
X0213417Y0098764D01*
X0213408Y0098698D01*
X0213402Y0098630D01*
X0213400Y0098563D01*
X0213399Y0081181D02*
X0213399Y0078740D01*
X0213400Y0078740D02*
X0213402Y0078673D01*
X0213408Y0078605D01*
X0213417Y0078539D01*
X0213431Y0078473D01*
X0213448Y0078407D01*
X0213469Y0078343D01*
X0213493Y0078280D01*
X0213521Y0078219D01*
X0213553Y0078159D01*
X0213587Y0078102D01*
X0213626Y0078046D01*
X0213667Y0077992D01*
X0213711Y0077941D01*
X0213758Y0077893D01*
X0213808Y0077847D01*
X0213860Y0077805D01*
X0213914Y0077765D01*
X0213971Y0077729D01*
X0214030Y0077695D01*
X0214090Y0077666D01*
X0214153Y0077639D01*
X0214216Y0077617D01*
X0214281Y0077598D01*
X0214346Y0077583D01*
X0214413Y0077571D01*
X0214480Y0077563D01*
X0214547Y0077559D01*
X0214615Y0077559D01*
X0214682Y0077563D01*
X0214749Y0077571D01*
X0214816Y0077583D01*
X0214881Y0077598D01*
X0214946Y0077617D01*
X0215009Y0077639D01*
X0215072Y0077666D01*
X0215132Y0077695D01*
X0215191Y0077729D01*
X0215248Y0077765D01*
X0215302Y0077805D01*
X0215354Y0077847D01*
X0215404Y0077893D01*
X0215451Y0077941D01*
X0215495Y0077992D01*
X0215536Y0078046D01*
X0215575Y0078102D01*
X0215609Y0078159D01*
X0215641Y0078219D01*
X0215669Y0078280D01*
X0215693Y0078343D01*
X0215714Y0078407D01*
X0215731Y0078473D01*
X0215745Y0078539D01*
X0215754Y0078605D01*
X0215760Y0078673D01*
X0215762Y0078740D01*
X0215762Y0081181D01*
X0215760Y0081248D01*
X0215754Y0081316D01*
X0215745Y0081382D01*
X0215731Y0081448D01*
X0215714Y0081514D01*
X0215693Y0081578D01*
X0215669Y0081641D01*
X0215641Y0081702D01*
X0215609Y0081762D01*
X0215575Y0081819D01*
X0215536Y0081875D01*
X0215495Y0081929D01*
X0215451Y0081980D01*
X0215404Y0082028D01*
X0215354Y0082074D01*
X0215302Y0082116D01*
X0215248Y0082156D01*
X0215191Y0082192D01*
X0215132Y0082226D01*
X0215072Y0082255D01*
X0215009Y0082282D01*
X0214946Y0082304D01*
X0214881Y0082323D01*
X0214816Y0082338D01*
X0214749Y0082350D01*
X0214682Y0082358D01*
X0214615Y0082362D01*
X0214547Y0082362D01*
X0214480Y0082358D01*
X0214413Y0082350D01*
X0214346Y0082338D01*
X0214281Y0082323D01*
X0214216Y0082304D01*
X0214153Y0082282D01*
X0214090Y0082255D01*
X0214030Y0082226D01*
X0213971Y0082192D01*
X0213914Y0082156D01*
X0213860Y0082116D01*
X0213808Y0082074D01*
X0213758Y0082028D01*
X0213711Y0081980D01*
X0213667Y0081929D01*
X0213626Y0081875D01*
X0213587Y0081819D01*
X0213553Y0081762D01*
X0213521Y0081702D01*
X0213493Y0081641D01*
X0213469Y0081578D01*
X0213448Y0081514D01*
X0213431Y0081448D01*
X0213417Y0081382D01*
X0213408Y0081316D01*
X0213402Y0081248D01*
X0213400Y0081181D01*
X0247415Y0081181D02*
X0247415Y0078740D01*
X0247417Y0078673D01*
X0247423Y0078605D01*
X0247432Y0078539D01*
X0247446Y0078473D01*
X0247463Y0078407D01*
X0247484Y0078343D01*
X0247508Y0078280D01*
X0247536Y0078219D01*
X0247568Y0078159D01*
X0247602Y0078102D01*
X0247641Y0078046D01*
X0247682Y0077992D01*
X0247726Y0077941D01*
X0247773Y0077893D01*
X0247823Y0077847D01*
X0247875Y0077805D01*
X0247929Y0077765D01*
X0247986Y0077729D01*
X0248045Y0077695D01*
X0248105Y0077666D01*
X0248168Y0077639D01*
X0248231Y0077617D01*
X0248296Y0077598D01*
X0248361Y0077583D01*
X0248428Y0077571D01*
X0248495Y0077563D01*
X0248562Y0077559D01*
X0248630Y0077559D01*
X0248697Y0077563D01*
X0248764Y0077571D01*
X0248831Y0077583D01*
X0248896Y0077598D01*
X0248961Y0077617D01*
X0249024Y0077639D01*
X0249087Y0077666D01*
X0249147Y0077695D01*
X0249206Y0077729D01*
X0249263Y0077765D01*
X0249317Y0077805D01*
X0249369Y0077847D01*
X0249419Y0077893D01*
X0249466Y0077941D01*
X0249510Y0077992D01*
X0249551Y0078046D01*
X0249590Y0078102D01*
X0249624Y0078159D01*
X0249656Y0078219D01*
X0249684Y0078280D01*
X0249708Y0078343D01*
X0249729Y0078407D01*
X0249746Y0078473D01*
X0249760Y0078539D01*
X0249769Y0078605D01*
X0249775Y0078673D01*
X0249777Y0078740D01*
X0249777Y0081181D01*
X0249775Y0081248D01*
X0249769Y0081316D01*
X0249760Y0081382D01*
X0249746Y0081448D01*
X0249729Y0081514D01*
X0249708Y0081578D01*
X0249684Y0081641D01*
X0249656Y0081702D01*
X0249624Y0081762D01*
X0249590Y0081819D01*
X0249551Y0081875D01*
X0249510Y0081929D01*
X0249466Y0081980D01*
X0249419Y0082028D01*
X0249369Y0082074D01*
X0249317Y0082116D01*
X0249263Y0082156D01*
X0249206Y0082192D01*
X0249147Y0082226D01*
X0249087Y0082255D01*
X0249024Y0082282D01*
X0248961Y0082304D01*
X0248896Y0082323D01*
X0248831Y0082338D01*
X0248764Y0082350D01*
X0248697Y0082358D01*
X0248630Y0082362D01*
X0248562Y0082362D01*
X0248495Y0082358D01*
X0248428Y0082350D01*
X0248361Y0082338D01*
X0248296Y0082323D01*
X0248231Y0082304D01*
X0248168Y0082282D01*
X0248105Y0082255D01*
X0248045Y0082226D01*
X0247986Y0082192D01*
X0247929Y0082156D01*
X0247875Y0082116D01*
X0247823Y0082074D01*
X0247773Y0082028D01*
X0247726Y0081980D01*
X0247682Y0081929D01*
X0247641Y0081875D01*
X0247602Y0081819D01*
X0247568Y0081762D01*
X0247536Y0081702D01*
X0247508Y0081641D01*
X0247484Y0081578D01*
X0247463Y0081514D01*
X0247446Y0081448D01*
X0247432Y0081382D01*
X0247423Y0081316D01*
X0247417Y0081248D01*
X0247415Y0081181D01*
X0247415Y0094232D02*
X0247415Y0098563D01*
X0247417Y0098630D01*
X0247423Y0098698D01*
X0247432Y0098764D01*
X0247446Y0098830D01*
X0247463Y0098896D01*
X0247484Y0098960D01*
X0247508Y0099023D01*
X0247536Y0099084D01*
X0247568Y0099144D01*
X0247602Y0099201D01*
X0247641Y0099257D01*
X0247682Y0099311D01*
X0247726Y0099362D01*
X0247773Y0099410D01*
X0247823Y0099456D01*
X0247875Y0099498D01*
X0247929Y0099538D01*
X0247986Y0099574D01*
X0248045Y0099608D01*
X0248105Y0099637D01*
X0248168Y0099664D01*
X0248231Y0099686D01*
X0248296Y0099705D01*
X0248361Y0099720D01*
X0248428Y0099732D01*
X0248495Y0099740D01*
X0248562Y0099744D01*
X0248630Y0099744D01*
X0248697Y0099740D01*
X0248764Y0099732D01*
X0248831Y0099720D01*
X0248896Y0099705D01*
X0248961Y0099686D01*
X0249024Y0099664D01*
X0249087Y0099637D01*
X0249147Y0099608D01*
X0249206Y0099574D01*
X0249263Y0099538D01*
X0249317Y0099498D01*
X0249369Y0099456D01*
X0249419Y0099410D01*
X0249466Y0099362D01*
X0249510Y0099311D01*
X0249551Y0099257D01*
X0249590Y0099201D01*
X0249624Y0099144D01*
X0249656Y0099084D01*
X0249684Y0099023D01*
X0249708Y0098960D01*
X0249729Y0098896D01*
X0249746Y0098830D01*
X0249760Y0098764D01*
X0249769Y0098698D01*
X0249775Y0098630D01*
X0249777Y0098563D01*
X0249777Y0094232D01*
X0249775Y0094165D01*
X0249769Y0094097D01*
X0249760Y0094031D01*
X0249746Y0093965D01*
X0249729Y0093899D01*
X0249708Y0093835D01*
X0249684Y0093772D01*
X0249656Y0093711D01*
X0249624Y0093651D01*
X0249590Y0093594D01*
X0249551Y0093538D01*
X0249510Y0093484D01*
X0249466Y0093433D01*
X0249419Y0093385D01*
X0249369Y0093339D01*
X0249317Y0093297D01*
X0249263Y0093257D01*
X0249206Y0093221D01*
X0249147Y0093187D01*
X0249087Y0093158D01*
X0249024Y0093131D01*
X0248961Y0093109D01*
X0248896Y0093090D01*
X0248831Y0093075D01*
X0248764Y0093063D01*
X0248697Y0093055D01*
X0248630Y0093051D01*
X0248562Y0093051D01*
X0248495Y0093055D01*
X0248428Y0093063D01*
X0248361Y0093075D01*
X0248296Y0093090D01*
X0248231Y0093109D01*
X0248168Y0093131D01*
X0248105Y0093158D01*
X0248045Y0093187D01*
X0247986Y0093221D01*
X0247929Y0093257D01*
X0247875Y0093297D01*
X0247823Y0093339D01*
X0247773Y0093385D01*
X0247726Y0093433D01*
X0247682Y0093484D01*
X0247641Y0093538D01*
X0247602Y0093594D01*
X0247568Y0093651D01*
X0247536Y0093711D01*
X0247508Y0093772D01*
X0247484Y0093835D01*
X0247463Y0093899D01*
X0247446Y0093965D01*
X0247432Y0094031D01*
X0247423Y0094097D01*
X0247417Y0094165D01*
X0247415Y0094232D01*
M02*
