G75*
%MOIN*%
%OFA0B0*%
%FSLAX25Y25*%
%IPPOS*%
%LPD*%
%AMOC8*
5,1,8,0,0,1.08239X$1,22.5*
%
%ADD10R,0.02165X0.04724*%
%ADD11R,0.02362X0.02362*%
%ADD12C,0.03937*%
%ADD13R,0.04331X0.03937*%
%ADD14R,0.03937X0.01181*%
%ADD15R,0.07087X0.05512*%
%ADD16R,0.05512X0.07480*%
%ADD17R,0.03150X0.05906*%
%ADD18R,0.01949X0.00984*%
%ADD19R,0.02362X0.00984*%
%ADD20R,0.00984X0.01949*%
%ADD21R,0.00984X0.02362*%
%ADD22C,0.00010*%
%ADD23R,0.02953X0.01575*%
%ADD24R,0.01811X0.02559*%
%ADD25R,0.04724X0.02165*%
%ADD26C,0.07400*%
%ADD27R,0.03937X0.04331*%
%ADD28R,0.03268X0.02480*%
%ADD29C,0.03937*%
%ADD30C,0.00600*%
%ADD31C,0.02400*%
%ADD32C,0.01200*%
D10*
X0187848Y0094881D03*
X0191588Y0094881D03*
X0195329Y0094881D03*
X0195329Y0105119D03*
X0187848Y0105119D03*
D11*
X0176588Y0101969D03*
X0176588Y0098031D03*
X0189620Y0090000D03*
X0193557Y0090000D03*
X0201588Y0098031D03*
X0201588Y0101969D03*
X0221588Y0103031D03*
X0226588Y0103031D03*
X0231588Y0103031D03*
X0231588Y0106969D03*
X0226588Y0106969D03*
X0221588Y0106969D03*
X0236588Y0106969D03*
X0236588Y0103031D03*
X0246588Y0108031D03*
X0246588Y0111969D03*
X0241588Y0118031D03*
X0241588Y0121969D03*
X0232588Y0121969D03*
X0232588Y0118031D03*
X0216588Y0118031D03*
X0211588Y0118031D03*
X0211588Y0121969D03*
X0216588Y0121969D03*
X0201588Y0121969D03*
X0201588Y0118031D03*
X0223588Y0096969D03*
X0223588Y0093031D03*
X0266588Y0107031D03*
X0266588Y0110969D03*
X0264620Y0115000D03*
X0268557Y0115000D03*
X0268557Y0130000D03*
X0264620Y0130000D03*
X0258557Y0130000D03*
X0254620Y0130000D03*
X0248557Y0130000D03*
X0244620Y0130000D03*
X0246588Y0143031D03*
X0246588Y0146969D03*
X0249620Y0159000D03*
X0253557Y0159000D03*
X0256588Y0163031D03*
X0256588Y0166969D03*
X0253557Y0173000D03*
X0249620Y0173000D03*
X0266588Y0171969D03*
X0266588Y0168031D03*
X0263557Y0157500D03*
X0259620Y0157500D03*
D12*
X0179088Y0157500D03*
X0174088Y0157500D03*
X0174088Y0162500D03*
X0179088Y0162500D03*
X0179088Y0167500D03*
X0174088Y0167500D03*
X0174088Y0172500D03*
X0179088Y0172500D03*
X0171588Y0190000D03*
X0174088Y0152500D03*
X0179088Y0152500D03*
X0254088Y0078500D03*
D13*
X0235435Y0095000D03*
X0228742Y0095000D03*
D14*
X0222730Y0088937D03*
X0222730Y0086969D03*
X0222730Y0085000D03*
X0222730Y0083031D03*
X0222730Y0081063D03*
X0240447Y0081063D03*
X0240447Y0083031D03*
X0240447Y0085000D03*
X0240447Y0086969D03*
X0240447Y0088937D03*
D15*
X0214600Y0126575D03*
X0192159Y0126575D03*
D16*
X0185860Y0178346D03*
X0237632Y0182283D03*
D17*
X0219285Y0167126D03*
X0214955Y0165551D03*
X0210624Y0167126D03*
X0206293Y0167913D03*
X0201962Y0167126D03*
X0197632Y0167913D03*
X0193301Y0167126D03*
X0188970Y0167126D03*
D18*
X0250476Y0148937D03*
X0262701Y0148937D03*
X0262701Y0141063D03*
X0250476Y0141063D03*
D19*
X0250683Y0142638D03*
X0250683Y0144213D03*
X0250683Y0145787D03*
X0250683Y0147362D03*
X0262494Y0147362D03*
X0262494Y0145787D03*
X0262494Y0144213D03*
X0262494Y0142638D03*
D20*
X0260525Y0138888D03*
X0252651Y0138888D03*
X0252651Y0151112D03*
X0260525Y0151112D03*
D21*
X0258951Y0150906D03*
X0257376Y0150906D03*
X0255801Y0150906D03*
X0254226Y0150906D03*
X0254226Y0139094D03*
X0255801Y0139094D03*
X0257376Y0139094D03*
X0258951Y0139094D03*
D22*
X0260033Y0139094D02*
X0261018Y0139094D01*
X0261018Y0139862D01*
X0260604Y0140276D01*
X0260033Y0140276D01*
X0260033Y0139094D01*
X0260033Y0139100D02*
X0261018Y0139100D01*
X0261018Y0139109D02*
X0260033Y0139109D01*
X0260033Y0139117D02*
X0261018Y0139117D01*
X0261018Y0139126D02*
X0260033Y0139126D01*
X0260033Y0139134D02*
X0261018Y0139134D01*
X0261018Y0139143D02*
X0260033Y0139143D01*
X0260033Y0139151D02*
X0261018Y0139151D01*
X0261018Y0139160D02*
X0260033Y0139160D01*
X0260033Y0139168D02*
X0261018Y0139168D01*
X0261018Y0139177D02*
X0260033Y0139177D01*
X0260033Y0139185D02*
X0261018Y0139185D01*
X0261018Y0139194D02*
X0260033Y0139194D01*
X0260033Y0139202D02*
X0261018Y0139202D01*
X0261018Y0139211D02*
X0260033Y0139211D01*
X0260033Y0139219D02*
X0261018Y0139219D01*
X0261018Y0139228D02*
X0260033Y0139228D01*
X0260033Y0139236D02*
X0261018Y0139236D01*
X0261018Y0139245D02*
X0260033Y0139245D01*
X0260033Y0139253D02*
X0261018Y0139253D01*
X0261018Y0139262D02*
X0260033Y0139262D01*
X0260033Y0139271D02*
X0261018Y0139271D01*
X0261018Y0139279D02*
X0260033Y0139279D01*
X0260033Y0139288D02*
X0261018Y0139288D01*
X0261018Y0139296D02*
X0260033Y0139296D01*
X0260033Y0139305D02*
X0261018Y0139305D01*
X0261018Y0139313D02*
X0260033Y0139313D01*
X0260033Y0139322D02*
X0261018Y0139322D01*
X0261018Y0139330D02*
X0260033Y0139330D01*
X0260033Y0139339D02*
X0261018Y0139339D01*
X0261018Y0139347D02*
X0260033Y0139347D01*
X0260033Y0139356D02*
X0261018Y0139356D01*
X0261018Y0139364D02*
X0260033Y0139364D01*
X0260033Y0139373D02*
X0261018Y0139373D01*
X0261018Y0139381D02*
X0260033Y0139381D01*
X0260033Y0139390D02*
X0261018Y0139390D01*
X0261018Y0139398D02*
X0260033Y0139398D01*
X0260033Y0139407D02*
X0261018Y0139407D01*
X0261018Y0139415D02*
X0260033Y0139415D01*
X0260033Y0139424D02*
X0261018Y0139424D01*
X0261018Y0139432D02*
X0260033Y0139432D01*
X0260033Y0139441D02*
X0261018Y0139441D01*
X0261018Y0139449D02*
X0260033Y0139449D01*
X0260033Y0139458D02*
X0261018Y0139458D01*
X0261018Y0139466D02*
X0260033Y0139466D01*
X0260033Y0139475D02*
X0261018Y0139475D01*
X0261018Y0139483D02*
X0260033Y0139483D01*
X0260033Y0139492D02*
X0261018Y0139492D01*
X0261018Y0139500D02*
X0260033Y0139500D01*
X0260033Y0139509D02*
X0261018Y0139509D01*
X0261018Y0139517D02*
X0260033Y0139517D01*
X0260033Y0139526D02*
X0261018Y0139526D01*
X0261018Y0139534D02*
X0260033Y0139534D01*
X0260033Y0139543D02*
X0261018Y0139543D01*
X0261018Y0139551D02*
X0260033Y0139551D01*
X0260033Y0139560D02*
X0261018Y0139560D01*
X0261018Y0139569D02*
X0260033Y0139569D01*
X0260033Y0139577D02*
X0261018Y0139577D01*
X0261018Y0139586D02*
X0260033Y0139586D01*
X0260033Y0139594D02*
X0261018Y0139594D01*
X0261018Y0139603D02*
X0260033Y0139603D01*
X0260033Y0139611D02*
X0261018Y0139611D01*
X0261018Y0139620D02*
X0260033Y0139620D01*
X0260033Y0139628D02*
X0261018Y0139628D01*
X0261018Y0139637D02*
X0260033Y0139637D01*
X0260033Y0139645D02*
X0261018Y0139645D01*
X0261018Y0139654D02*
X0260033Y0139654D01*
X0260033Y0139662D02*
X0261018Y0139662D01*
X0261018Y0139671D02*
X0260033Y0139671D01*
X0260033Y0139679D02*
X0261018Y0139679D01*
X0261018Y0139688D02*
X0260033Y0139688D01*
X0260033Y0139696D02*
X0261018Y0139696D01*
X0261018Y0139705D02*
X0260033Y0139705D01*
X0260033Y0139713D02*
X0261018Y0139713D01*
X0261018Y0139722D02*
X0260033Y0139722D01*
X0260033Y0139730D02*
X0261018Y0139730D01*
X0261018Y0139739D02*
X0260033Y0139739D01*
X0260033Y0139747D02*
X0261018Y0139747D01*
X0261018Y0139756D02*
X0260033Y0139756D01*
X0260033Y0139764D02*
X0261018Y0139764D01*
X0261018Y0139773D02*
X0260033Y0139773D01*
X0260033Y0139781D02*
X0261018Y0139781D01*
X0261018Y0139790D02*
X0260033Y0139790D01*
X0260033Y0139798D02*
X0261018Y0139798D01*
X0261018Y0139807D02*
X0260033Y0139807D01*
X0260033Y0139815D02*
X0261018Y0139815D01*
X0261018Y0139824D02*
X0260033Y0139824D01*
X0260033Y0139832D02*
X0261018Y0139832D01*
X0261018Y0139841D02*
X0260033Y0139841D01*
X0260033Y0139849D02*
X0261018Y0139849D01*
X0261018Y0139858D02*
X0260033Y0139858D01*
X0260033Y0139866D02*
X0261013Y0139866D01*
X0261005Y0139875D02*
X0260033Y0139875D01*
X0260033Y0139884D02*
X0260996Y0139884D01*
X0260988Y0139892D02*
X0260033Y0139892D01*
X0260033Y0139901D02*
X0260979Y0139901D01*
X0260971Y0139909D02*
X0260033Y0139909D01*
X0260033Y0139918D02*
X0260962Y0139918D01*
X0260954Y0139926D02*
X0260033Y0139926D01*
X0260033Y0139935D02*
X0260945Y0139935D01*
X0260937Y0139943D02*
X0260033Y0139943D01*
X0260033Y0139952D02*
X0260928Y0139952D01*
X0260920Y0139960D02*
X0260033Y0139960D01*
X0260033Y0139969D02*
X0260911Y0139969D01*
X0260903Y0139977D02*
X0260033Y0139977D01*
X0260033Y0139986D02*
X0260894Y0139986D01*
X0260886Y0139994D02*
X0260033Y0139994D01*
X0260033Y0140003D02*
X0260877Y0140003D01*
X0260869Y0140011D02*
X0260033Y0140011D01*
X0260033Y0140020D02*
X0260860Y0140020D01*
X0260852Y0140028D02*
X0260033Y0140028D01*
X0260033Y0140037D02*
X0260843Y0140037D01*
X0260834Y0140045D02*
X0260033Y0140045D01*
X0260033Y0140054D02*
X0260826Y0140054D01*
X0260817Y0140062D02*
X0260033Y0140062D01*
X0260033Y0140071D02*
X0260809Y0140071D01*
X0260800Y0140079D02*
X0260033Y0140079D01*
X0260033Y0140088D02*
X0260792Y0140088D01*
X0260783Y0140096D02*
X0260033Y0140096D01*
X0260033Y0140105D02*
X0260775Y0140105D01*
X0260766Y0140113D02*
X0260033Y0140113D01*
X0260033Y0140122D02*
X0260758Y0140122D01*
X0260749Y0140130D02*
X0260033Y0140130D01*
X0260033Y0140139D02*
X0260741Y0140139D01*
X0260732Y0140147D02*
X0260033Y0140147D01*
X0260033Y0140156D02*
X0260724Y0140156D01*
X0260715Y0140164D02*
X0260033Y0140164D01*
X0260033Y0140173D02*
X0260707Y0140173D01*
X0260698Y0140181D02*
X0260033Y0140181D01*
X0260033Y0140190D02*
X0260690Y0140190D01*
X0260681Y0140199D02*
X0260033Y0140199D01*
X0260033Y0140207D02*
X0260673Y0140207D01*
X0260664Y0140216D02*
X0260033Y0140216D01*
X0260033Y0140224D02*
X0260656Y0140224D01*
X0260647Y0140233D02*
X0260033Y0140233D01*
X0260033Y0140241D02*
X0260639Y0140241D01*
X0260630Y0140250D02*
X0260033Y0140250D01*
X0260033Y0140258D02*
X0260622Y0140258D01*
X0260613Y0140267D02*
X0260033Y0140267D01*
X0260033Y0140275D02*
X0260605Y0140275D01*
X0261315Y0140982D02*
X0262494Y0140982D01*
X0262494Y0140990D02*
X0261313Y0140990D01*
X0261313Y0140984D02*
X0261313Y0141555D01*
X0262494Y0141555D01*
X0262494Y0140571D01*
X0261726Y0140571D01*
X0261313Y0140984D01*
X0261313Y0140999D02*
X0262494Y0140999D01*
X0262494Y0141007D02*
X0261313Y0141007D01*
X0261313Y0141016D02*
X0262494Y0141016D01*
X0262494Y0141024D02*
X0261313Y0141024D01*
X0261313Y0141033D02*
X0262494Y0141033D01*
X0262494Y0141041D02*
X0261313Y0141041D01*
X0261313Y0141050D02*
X0262494Y0141050D01*
X0262494Y0141058D02*
X0261313Y0141058D01*
X0261313Y0141067D02*
X0262494Y0141067D01*
X0262494Y0141075D02*
X0261313Y0141075D01*
X0261313Y0141084D02*
X0262494Y0141084D01*
X0262494Y0141092D02*
X0261313Y0141092D01*
X0261313Y0141101D02*
X0262494Y0141101D01*
X0262494Y0141109D02*
X0261313Y0141109D01*
X0261313Y0141118D02*
X0262494Y0141118D01*
X0262494Y0141127D02*
X0261313Y0141127D01*
X0261313Y0141135D02*
X0262494Y0141135D01*
X0262494Y0141144D02*
X0261313Y0141144D01*
X0261313Y0141152D02*
X0262494Y0141152D01*
X0262494Y0141161D02*
X0261313Y0141161D01*
X0261313Y0141169D02*
X0262494Y0141169D01*
X0262494Y0141178D02*
X0261313Y0141178D01*
X0261313Y0141186D02*
X0262494Y0141186D01*
X0262494Y0141195D02*
X0261313Y0141195D01*
X0261313Y0141203D02*
X0262494Y0141203D01*
X0262494Y0141212D02*
X0261313Y0141212D01*
X0261313Y0141220D02*
X0262494Y0141220D01*
X0262494Y0141229D02*
X0261313Y0141229D01*
X0261313Y0141237D02*
X0262494Y0141237D01*
X0262494Y0141246D02*
X0261313Y0141246D01*
X0261313Y0141254D02*
X0262494Y0141254D01*
X0262494Y0141263D02*
X0261313Y0141263D01*
X0261313Y0141271D02*
X0262494Y0141271D01*
X0262494Y0141280D02*
X0261313Y0141280D01*
X0261313Y0141288D02*
X0262494Y0141288D01*
X0262494Y0141297D02*
X0261313Y0141297D01*
X0261313Y0141305D02*
X0262494Y0141305D01*
X0262494Y0141314D02*
X0261313Y0141314D01*
X0261313Y0141322D02*
X0262494Y0141322D01*
X0262494Y0141331D02*
X0261313Y0141331D01*
X0261313Y0141339D02*
X0262494Y0141339D01*
X0262494Y0141348D02*
X0261313Y0141348D01*
X0261313Y0141356D02*
X0262494Y0141356D01*
X0262494Y0141365D02*
X0261313Y0141365D01*
X0261313Y0141373D02*
X0262494Y0141373D01*
X0262494Y0141382D02*
X0261313Y0141382D01*
X0261313Y0141390D02*
X0262494Y0141390D01*
X0262494Y0141399D02*
X0261313Y0141399D01*
X0261313Y0141407D02*
X0262494Y0141407D01*
X0262494Y0141416D02*
X0261313Y0141416D01*
X0261313Y0141425D02*
X0262494Y0141425D01*
X0262494Y0141433D02*
X0261313Y0141433D01*
X0261313Y0141442D02*
X0262494Y0141442D01*
X0262494Y0141450D02*
X0261313Y0141450D01*
X0261313Y0141459D02*
X0262494Y0141459D01*
X0262494Y0141467D02*
X0261313Y0141467D01*
X0261313Y0141476D02*
X0262494Y0141476D01*
X0262494Y0141484D02*
X0261313Y0141484D01*
X0261313Y0141493D02*
X0262494Y0141493D01*
X0262494Y0141501D02*
X0261313Y0141501D01*
X0261313Y0141510D02*
X0262494Y0141510D01*
X0262494Y0141518D02*
X0261313Y0141518D01*
X0261313Y0141527D02*
X0262494Y0141527D01*
X0262494Y0141535D02*
X0261313Y0141535D01*
X0261313Y0141544D02*
X0262494Y0141544D01*
X0262494Y0141552D02*
X0261313Y0141552D01*
X0261324Y0140973D02*
X0262494Y0140973D01*
X0262494Y0140965D02*
X0261332Y0140965D01*
X0261341Y0140956D02*
X0262494Y0140956D01*
X0262494Y0140948D02*
X0261349Y0140948D01*
X0261358Y0140939D02*
X0262494Y0140939D01*
X0262494Y0140931D02*
X0261366Y0140931D01*
X0261375Y0140922D02*
X0262494Y0140922D01*
X0262494Y0140914D02*
X0261383Y0140914D01*
X0261392Y0140905D02*
X0262494Y0140905D01*
X0262494Y0140897D02*
X0261400Y0140897D01*
X0261409Y0140888D02*
X0262494Y0140888D01*
X0262494Y0140880D02*
X0261417Y0140880D01*
X0261426Y0140871D02*
X0262494Y0140871D01*
X0262494Y0140863D02*
X0261434Y0140863D01*
X0261443Y0140854D02*
X0262494Y0140854D01*
X0262494Y0140846D02*
X0261452Y0140846D01*
X0261460Y0140837D02*
X0262494Y0140837D01*
X0262494Y0140829D02*
X0261469Y0140829D01*
X0261477Y0140820D02*
X0262494Y0140820D01*
X0262494Y0140812D02*
X0261486Y0140812D01*
X0261494Y0140803D02*
X0262494Y0140803D01*
X0262494Y0140794D02*
X0261503Y0140794D01*
X0261511Y0140786D02*
X0262494Y0140786D01*
X0262494Y0140777D02*
X0261520Y0140777D01*
X0261528Y0140769D02*
X0262494Y0140769D01*
X0262494Y0140760D02*
X0261537Y0140760D01*
X0261545Y0140752D02*
X0262494Y0140752D01*
X0262494Y0140743D02*
X0261554Y0140743D01*
X0261562Y0140735D02*
X0262494Y0140735D01*
X0262494Y0140726D02*
X0261571Y0140726D01*
X0261579Y0140718D02*
X0262494Y0140718D01*
X0262494Y0140709D02*
X0261588Y0140709D01*
X0261596Y0140701D02*
X0262494Y0140701D01*
X0262494Y0140692D02*
X0261605Y0140692D01*
X0261613Y0140684D02*
X0262494Y0140684D01*
X0262494Y0140675D02*
X0261622Y0140675D01*
X0261630Y0140667D02*
X0262494Y0140667D01*
X0262494Y0140658D02*
X0261639Y0140658D01*
X0261647Y0140650D02*
X0262494Y0140650D01*
X0262494Y0140641D02*
X0261656Y0140641D01*
X0261664Y0140633D02*
X0262494Y0140633D01*
X0262494Y0140624D02*
X0261673Y0140624D01*
X0261681Y0140616D02*
X0262494Y0140616D01*
X0262494Y0140607D02*
X0261690Y0140607D01*
X0261698Y0140599D02*
X0262494Y0140599D01*
X0262494Y0140590D02*
X0261707Y0140590D01*
X0261715Y0140582D02*
X0262494Y0140582D01*
X0262494Y0140573D02*
X0261724Y0140573D01*
X0253144Y0140276D02*
X0253144Y0139094D01*
X0252159Y0139094D01*
X0252159Y0139862D01*
X0252573Y0140276D01*
X0253144Y0140276D01*
X0253144Y0140275D02*
X0252572Y0140275D01*
X0252564Y0140267D02*
X0253144Y0140267D01*
X0253144Y0140258D02*
X0252555Y0140258D01*
X0252547Y0140250D02*
X0253144Y0140250D01*
X0253144Y0140241D02*
X0252538Y0140241D01*
X0252530Y0140233D02*
X0253144Y0140233D01*
X0253144Y0140224D02*
X0252521Y0140224D01*
X0252513Y0140216D02*
X0253144Y0140216D01*
X0253144Y0140207D02*
X0252504Y0140207D01*
X0252496Y0140199D02*
X0253144Y0140199D01*
X0253144Y0140190D02*
X0252487Y0140190D01*
X0252479Y0140181D02*
X0253144Y0140181D01*
X0253144Y0140173D02*
X0252470Y0140173D01*
X0252462Y0140164D02*
X0253144Y0140164D01*
X0253144Y0140156D02*
X0252453Y0140156D01*
X0252445Y0140147D02*
X0253144Y0140147D01*
X0253144Y0140139D02*
X0252436Y0140139D01*
X0252427Y0140130D02*
X0253144Y0140130D01*
X0253144Y0140122D02*
X0252419Y0140122D01*
X0252410Y0140113D02*
X0253144Y0140113D01*
X0253144Y0140105D02*
X0252402Y0140105D01*
X0252393Y0140096D02*
X0253144Y0140096D01*
X0253144Y0140088D02*
X0252385Y0140088D01*
X0252376Y0140079D02*
X0253144Y0140079D01*
X0253144Y0140071D02*
X0252368Y0140071D01*
X0252359Y0140062D02*
X0253144Y0140062D01*
X0253144Y0140054D02*
X0252351Y0140054D01*
X0252342Y0140045D02*
X0253144Y0140045D01*
X0253144Y0140037D02*
X0252334Y0140037D01*
X0252325Y0140028D02*
X0253144Y0140028D01*
X0253144Y0140020D02*
X0252317Y0140020D01*
X0252308Y0140011D02*
X0253144Y0140011D01*
X0253144Y0140003D02*
X0252300Y0140003D01*
X0252291Y0139994D02*
X0253144Y0139994D01*
X0253144Y0139986D02*
X0252283Y0139986D01*
X0252274Y0139977D02*
X0253144Y0139977D01*
X0253144Y0139969D02*
X0252266Y0139969D01*
X0252257Y0139960D02*
X0253144Y0139960D01*
X0253144Y0139952D02*
X0252249Y0139952D01*
X0252240Y0139943D02*
X0253144Y0139943D01*
X0253144Y0139935D02*
X0252232Y0139935D01*
X0252223Y0139926D02*
X0253144Y0139926D01*
X0253144Y0139918D02*
X0252215Y0139918D01*
X0252206Y0139909D02*
X0253144Y0139909D01*
X0253144Y0139901D02*
X0252198Y0139901D01*
X0252189Y0139892D02*
X0253144Y0139892D01*
X0253144Y0139884D02*
X0252181Y0139884D01*
X0252172Y0139875D02*
X0253144Y0139875D01*
X0253144Y0139866D02*
X0252164Y0139866D01*
X0252159Y0139858D02*
X0253144Y0139858D01*
X0253144Y0139849D02*
X0252159Y0139849D01*
X0252159Y0139841D02*
X0253144Y0139841D01*
X0253144Y0139832D02*
X0252159Y0139832D01*
X0252159Y0139824D02*
X0253144Y0139824D01*
X0253144Y0139815D02*
X0252159Y0139815D01*
X0252159Y0139807D02*
X0253144Y0139807D01*
X0253144Y0139798D02*
X0252159Y0139798D01*
X0252159Y0139790D02*
X0253144Y0139790D01*
X0253144Y0139781D02*
X0252159Y0139781D01*
X0252159Y0139773D02*
X0253144Y0139773D01*
X0253144Y0139764D02*
X0252159Y0139764D01*
X0252159Y0139756D02*
X0253144Y0139756D01*
X0253144Y0139747D02*
X0252159Y0139747D01*
X0252159Y0139739D02*
X0253144Y0139739D01*
X0253144Y0139730D02*
X0252159Y0139730D01*
X0252159Y0139722D02*
X0253144Y0139722D01*
X0253144Y0139713D02*
X0252159Y0139713D01*
X0252159Y0139705D02*
X0253144Y0139705D01*
X0253144Y0139696D02*
X0252159Y0139696D01*
X0252159Y0139688D02*
X0253144Y0139688D01*
X0253144Y0139679D02*
X0252159Y0139679D01*
X0252159Y0139671D02*
X0253144Y0139671D01*
X0253144Y0139662D02*
X0252159Y0139662D01*
X0252159Y0139654D02*
X0253144Y0139654D01*
X0253144Y0139645D02*
X0252159Y0139645D01*
X0252159Y0139637D02*
X0253144Y0139637D01*
X0253144Y0139628D02*
X0252159Y0139628D01*
X0252159Y0139620D02*
X0253144Y0139620D01*
X0253144Y0139611D02*
X0252159Y0139611D01*
X0252159Y0139603D02*
X0253144Y0139603D01*
X0253144Y0139594D02*
X0252159Y0139594D01*
X0252159Y0139586D02*
X0253144Y0139586D01*
X0253144Y0139577D02*
X0252159Y0139577D01*
X0252159Y0139569D02*
X0253144Y0139569D01*
X0253144Y0139560D02*
X0252159Y0139560D01*
X0252159Y0139551D02*
X0253144Y0139551D01*
X0253144Y0139543D02*
X0252159Y0139543D01*
X0252159Y0139534D02*
X0253144Y0139534D01*
X0253144Y0139526D02*
X0252159Y0139526D01*
X0252159Y0139517D02*
X0253144Y0139517D01*
X0253144Y0139509D02*
X0252159Y0139509D01*
X0252159Y0139500D02*
X0253144Y0139500D01*
X0253144Y0139492D02*
X0252159Y0139492D01*
X0252159Y0139483D02*
X0253144Y0139483D01*
X0253144Y0139475D02*
X0252159Y0139475D01*
X0252159Y0139466D02*
X0253144Y0139466D01*
X0253144Y0139458D02*
X0252159Y0139458D01*
X0252159Y0139449D02*
X0253144Y0139449D01*
X0253144Y0139441D02*
X0252159Y0139441D01*
X0252159Y0139432D02*
X0253144Y0139432D01*
X0253144Y0139424D02*
X0252159Y0139424D01*
X0252159Y0139415D02*
X0253144Y0139415D01*
X0253144Y0139407D02*
X0252159Y0139407D01*
X0252159Y0139398D02*
X0253144Y0139398D01*
X0253144Y0139390D02*
X0252159Y0139390D01*
X0252159Y0139381D02*
X0253144Y0139381D01*
X0253144Y0139373D02*
X0252159Y0139373D01*
X0252159Y0139364D02*
X0253144Y0139364D01*
X0253144Y0139356D02*
X0252159Y0139356D01*
X0252159Y0139347D02*
X0253144Y0139347D01*
X0253144Y0139339D02*
X0252159Y0139339D01*
X0252159Y0139330D02*
X0253144Y0139330D01*
X0253144Y0139322D02*
X0252159Y0139322D01*
X0252159Y0139313D02*
X0253144Y0139313D01*
X0253144Y0139305D02*
X0252159Y0139305D01*
X0252159Y0139296D02*
X0253144Y0139296D01*
X0253144Y0139288D02*
X0252159Y0139288D01*
X0252159Y0139279D02*
X0253144Y0139279D01*
X0253144Y0139271D02*
X0252159Y0139271D01*
X0252159Y0139262D02*
X0253144Y0139262D01*
X0253144Y0139253D02*
X0252159Y0139253D01*
X0252159Y0139245D02*
X0253144Y0139245D01*
X0253144Y0139236D02*
X0252159Y0139236D01*
X0252159Y0139228D02*
X0253144Y0139228D01*
X0253144Y0139219D02*
X0252159Y0139219D01*
X0252159Y0139211D02*
X0253144Y0139211D01*
X0253144Y0139202D02*
X0252159Y0139202D01*
X0252159Y0139194D02*
X0253144Y0139194D01*
X0253144Y0139185D02*
X0252159Y0139185D01*
X0252159Y0139177D02*
X0253144Y0139177D01*
X0253144Y0139168D02*
X0252159Y0139168D01*
X0252159Y0139160D02*
X0253144Y0139160D01*
X0253144Y0139151D02*
X0252159Y0139151D01*
X0252159Y0139143D02*
X0253144Y0139143D01*
X0253144Y0139134D02*
X0252159Y0139134D01*
X0252159Y0139126D02*
X0253144Y0139126D01*
X0253144Y0139117D02*
X0252159Y0139117D01*
X0252159Y0139109D02*
X0253144Y0139109D01*
X0253144Y0139100D02*
X0252159Y0139100D01*
X0251451Y0140571D02*
X0251864Y0140984D01*
X0251864Y0141555D01*
X0250683Y0141555D01*
X0250683Y0140571D01*
X0251451Y0140571D01*
X0251453Y0140573D02*
X0250683Y0140573D01*
X0250683Y0140582D02*
X0251461Y0140582D01*
X0251470Y0140590D02*
X0250683Y0140590D01*
X0250683Y0140599D02*
X0251478Y0140599D01*
X0251487Y0140607D02*
X0250683Y0140607D01*
X0250683Y0140616D02*
X0251495Y0140616D01*
X0251504Y0140624D02*
X0250683Y0140624D01*
X0250683Y0140633D02*
X0251512Y0140633D01*
X0251521Y0140641D02*
X0250683Y0140641D01*
X0250683Y0140650D02*
X0251530Y0140650D01*
X0251538Y0140658D02*
X0250683Y0140658D01*
X0250683Y0140667D02*
X0251547Y0140667D01*
X0251555Y0140675D02*
X0250683Y0140675D01*
X0250683Y0140684D02*
X0251564Y0140684D01*
X0251572Y0140692D02*
X0250683Y0140692D01*
X0250683Y0140701D02*
X0251581Y0140701D01*
X0251589Y0140709D02*
X0250683Y0140709D01*
X0250683Y0140718D02*
X0251598Y0140718D01*
X0251606Y0140726D02*
X0250683Y0140726D01*
X0250683Y0140735D02*
X0251615Y0140735D01*
X0251623Y0140743D02*
X0250683Y0140743D01*
X0250683Y0140752D02*
X0251632Y0140752D01*
X0251640Y0140760D02*
X0250683Y0140760D01*
X0250683Y0140769D02*
X0251649Y0140769D01*
X0251657Y0140777D02*
X0250683Y0140777D01*
X0250683Y0140786D02*
X0251666Y0140786D01*
X0251674Y0140794D02*
X0250683Y0140794D01*
X0250683Y0140803D02*
X0251683Y0140803D01*
X0251691Y0140812D02*
X0250683Y0140812D01*
X0250683Y0140820D02*
X0251700Y0140820D01*
X0251708Y0140829D02*
X0250683Y0140829D01*
X0250683Y0140837D02*
X0251717Y0140837D01*
X0251725Y0140846D02*
X0250683Y0140846D01*
X0250683Y0140854D02*
X0251734Y0140854D01*
X0251742Y0140863D02*
X0250683Y0140863D01*
X0250683Y0140871D02*
X0251751Y0140871D01*
X0251759Y0140880D02*
X0250683Y0140880D01*
X0250683Y0140888D02*
X0251768Y0140888D01*
X0251776Y0140897D02*
X0250683Y0140897D01*
X0250683Y0140905D02*
X0251785Y0140905D01*
X0251793Y0140914D02*
X0250683Y0140914D01*
X0250683Y0140922D02*
X0251802Y0140922D01*
X0251810Y0140931D02*
X0250683Y0140931D01*
X0250683Y0140939D02*
X0251819Y0140939D01*
X0251827Y0140948D02*
X0250683Y0140948D01*
X0250683Y0140956D02*
X0251836Y0140956D01*
X0251845Y0140965D02*
X0250683Y0140965D01*
X0250683Y0140973D02*
X0251853Y0140973D01*
X0251862Y0140982D02*
X0250683Y0140982D01*
X0250683Y0140990D02*
X0251864Y0140990D01*
X0251864Y0140999D02*
X0250683Y0140999D01*
X0250683Y0141007D02*
X0251864Y0141007D01*
X0251864Y0141016D02*
X0250683Y0141016D01*
X0250683Y0141024D02*
X0251864Y0141024D01*
X0251864Y0141033D02*
X0250683Y0141033D01*
X0250683Y0141041D02*
X0251864Y0141041D01*
X0251864Y0141050D02*
X0250683Y0141050D01*
X0250683Y0141058D02*
X0251864Y0141058D01*
X0251864Y0141067D02*
X0250683Y0141067D01*
X0250683Y0141075D02*
X0251864Y0141075D01*
X0251864Y0141084D02*
X0250683Y0141084D01*
X0250683Y0141092D02*
X0251864Y0141092D01*
X0251864Y0141101D02*
X0250683Y0141101D01*
X0250683Y0141109D02*
X0251864Y0141109D01*
X0251864Y0141118D02*
X0250683Y0141118D01*
X0250683Y0141127D02*
X0251864Y0141127D01*
X0251864Y0141135D02*
X0250683Y0141135D01*
X0250683Y0141144D02*
X0251864Y0141144D01*
X0251864Y0141152D02*
X0250683Y0141152D01*
X0250683Y0141161D02*
X0251864Y0141161D01*
X0251864Y0141169D02*
X0250683Y0141169D01*
X0250683Y0141178D02*
X0251864Y0141178D01*
X0251864Y0141186D02*
X0250683Y0141186D01*
X0250683Y0141195D02*
X0251864Y0141195D01*
X0251864Y0141203D02*
X0250683Y0141203D01*
X0250683Y0141212D02*
X0251864Y0141212D01*
X0251864Y0141220D02*
X0250683Y0141220D01*
X0250683Y0141229D02*
X0251864Y0141229D01*
X0251864Y0141237D02*
X0250683Y0141237D01*
X0250683Y0141246D02*
X0251864Y0141246D01*
X0251864Y0141254D02*
X0250683Y0141254D01*
X0250683Y0141263D02*
X0251864Y0141263D01*
X0251864Y0141271D02*
X0250683Y0141271D01*
X0250683Y0141280D02*
X0251864Y0141280D01*
X0251864Y0141288D02*
X0250683Y0141288D01*
X0250683Y0141297D02*
X0251864Y0141297D01*
X0251864Y0141305D02*
X0250683Y0141305D01*
X0250683Y0141314D02*
X0251864Y0141314D01*
X0251864Y0141322D02*
X0250683Y0141322D01*
X0250683Y0141331D02*
X0251864Y0141331D01*
X0251864Y0141339D02*
X0250683Y0141339D01*
X0250683Y0141348D02*
X0251864Y0141348D01*
X0251864Y0141356D02*
X0250683Y0141356D01*
X0250683Y0141365D02*
X0251864Y0141365D01*
X0251864Y0141373D02*
X0250683Y0141373D01*
X0250683Y0141382D02*
X0251864Y0141382D01*
X0251864Y0141390D02*
X0250683Y0141390D01*
X0250683Y0141399D02*
X0251864Y0141399D01*
X0251864Y0141407D02*
X0250683Y0141407D01*
X0250683Y0141416D02*
X0251864Y0141416D01*
X0251864Y0141425D02*
X0250683Y0141425D01*
X0250683Y0141433D02*
X0251864Y0141433D01*
X0251864Y0141442D02*
X0250683Y0141442D01*
X0250683Y0141450D02*
X0251864Y0141450D01*
X0251864Y0141459D02*
X0250683Y0141459D01*
X0250683Y0141467D02*
X0251864Y0141467D01*
X0251864Y0141476D02*
X0250683Y0141476D01*
X0250683Y0141484D02*
X0251864Y0141484D01*
X0251864Y0141493D02*
X0250683Y0141493D01*
X0250683Y0141501D02*
X0251864Y0141501D01*
X0251864Y0141510D02*
X0250683Y0141510D01*
X0250683Y0141518D02*
X0251864Y0141518D01*
X0251864Y0141527D02*
X0250683Y0141527D01*
X0250683Y0141535D02*
X0251864Y0141535D01*
X0251864Y0141544D02*
X0250683Y0141544D01*
X0250683Y0141552D02*
X0251864Y0141552D01*
X0251864Y0148445D02*
X0250683Y0148445D01*
X0250683Y0149429D01*
X0251451Y0149429D01*
X0251864Y0149016D01*
X0251864Y0148445D01*
X0251864Y0148448D02*
X0250683Y0148448D01*
X0250683Y0148457D02*
X0251864Y0148457D01*
X0251864Y0148465D02*
X0250683Y0148465D01*
X0250683Y0148474D02*
X0251864Y0148474D01*
X0251864Y0148482D02*
X0250683Y0148482D01*
X0250683Y0148491D02*
X0251864Y0148491D01*
X0251864Y0148499D02*
X0250683Y0148499D01*
X0250683Y0148508D02*
X0251864Y0148508D01*
X0251864Y0148516D02*
X0250683Y0148516D01*
X0250683Y0148525D02*
X0251864Y0148525D01*
X0251864Y0148534D02*
X0250683Y0148534D01*
X0250683Y0148542D02*
X0251864Y0148542D01*
X0251864Y0148551D02*
X0250683Y0148551D01*
X0250683Y0148559D02*
X0251864Y0148559D01*
X0251864Y0148568D02*
X0250683Y0148568D01*
X0250683Y0148576D02*
X0251864Y0148576D01*
X0251864Y0148585D02*
X0250683Y0148585D01*
X0250683Y0148593D02*
X0251864Y0148593D01*
X0251864Y0148602D02*
X0250683Y0148602D01*
X0250683Y0148610D02*
X0251864Y0148610D01*
X0251864Y0148619D02*
X0250683Y0148619D01*
X0250683Y0148627D02*
X0251864Y0148627D01*
X0251864Y0148636D02*
X0250683Y0148636D01*
X0250683Y0148644D02*
X0251864Y0148644D01*
X0251864Y0148653D02*
X0250683Y0148653D01*
X0250683Y0148661D02*
X0251864Y0148661D01*
X0251864Y0148670D02*
X0250683Y0148670D01*
X0250683Y0148678D02*
X0251864Y0148678D01*
X0251864Y0148687D02*
X0250683Y0148687D01*
X0250683Y0148695D02*
X0251864Y0148695D01*
X0251864Y0148704D02*
X0250683Y0148704D01*
X0250683Y0148712D02*
X0251864Y0148712D01*
X0251864Y0148721D02*
X0250683Y0148721D01*
X0250683Y0148729D02*
X0251864Y0148729D01*
X0251864Y0148738D02*
X0250683Y0148738D01*
X0250683Y0148746D02*
X0251864Y0148746D01*
X0251864Y0148755D02*
X0250683Y0148755D01*
X0250683Y0148763D02*
X0251864Y0148763D01*
X0251864Y0148772D02*
X0250683Y0148772D01*
X0250683Y0148780D02*
X0251864Y0148780D01*
X0251864Y0148789D02*
X0250683Y0148789D01*
X0250683Y0148797D02*
X0251864Y0148797D01*
X0251864Y0148806D02*
X0250683Y0148806D01*
X0250683Y0148814D02*
X0251864Y0148814D01*
X0251864Y0148823D02*
X0250683Y0148823D01*
X0250683Y0148831D02*
X0251864Y0148831D01*
X0251864Y0148840D02*
X0250683Y0148840D01*
X0250683Y0148849D02*
X0251864Y0148849D01*
X0251864Y0148857D02*
X0250683Y0148857D01*
X0250683Y0148866D02*
X0251864Y0148866D01*
X0251864Y0148874D02*
X0250683Y0148874D01*
X0250683Y0148883D02*
X0251864Y0148883D01*
X0251864Y0148891D02*
X0250683Y0148891D01*
X0250683Y0148900D02*
X0251864Y0148900D01*
X0251864Y0148908D02*
X0250683Y0148908D01*
X0250683Y0148917D02*
X0251864Y0148917D01*
X0251864Y0148925D02*
X0250683Y0148925D01*
X0250683Y0148934D02*
X0251864Y0148934D01*
X0251864Y0148942D02*
X0250683Y0148942D01*
X0250683Y0148951D02*
X0251864Y0148951D01*
X0251864Y0148959D02*
X0250683Y0148959D01*
X0250683Y0148968D02*
X0251864Y0148968D01*
X0251864Y0148976D02*
X0250683Y0148976D01*
X0250683Y0148985D02*
X0251864Y0148985D01*
X0251864Y0148993D02*
X0250683Y0148993D01*
X0250683Y0149002D02*
X0251864Y0149002D01*
X0251864Y0149010D02*
X0250683Y0149010D01*
X0250683Y0149019D02*
X0251861Y0149019D01*
X0251852Y0149027D02*
X0250683Y0149027D01*
X0250683Y0149036D02*
X0251844Y0149036D01*
X0251835Y0149044D02*
X0250683Y0149044D01*
X0250683Y0149053D02*
X0251827Y0149053D01*
X0251818Y0149061D02*
X0250683Y0149061D01*
X0250683Y0149070D02*
X0251810Y0149070D01*
X0251801Y0149078D02*
X0250683Y0149078D01*
X0250683Y0149087D02*
X0251793Y0149087D01*
X0251784Y0149095D02*
X0250683Y0149095D01*
X0250683Y0149104D02*
X0251776Y0149104D01*
X0251767Y0149112D02*
X0250683Y0149112D01*
X0250683Y0149121D02*
X0251759Y0149121D01*
X0251750Y0149129D02*
X0250683Y0149129D01*
X0250683Y0149138D02*
X0251742Y0149138D01*
X0251733Y0149147D02*
X0250683Y0149147D01*
X0250683Y0149155D02*
X0251725Y0149155D01*
X0251716Y0149164D02*
X0250683Y0149164D01*
X0250683Y0149172D02*
X0251708Y0149172D01*
X0251699Y0149181D02*
X0250683Y0149181D01*
X0250683Y0149189D02*
X0251691Y0149189D01*
X0251682Y0149198D02*
X0250683Y0149198D01*
X0250683Y0149206D02*
X0251674Y0149206D01*
X0251665Y0149215D02*
X0250683Y0149215D01*
X0250683Y0149223D02*
X0251657Y0149223D01*
X0251648Y0149232D02*
X0250683Y0149232D01*
X0250683Y0149240D02*
X0251640Y0149240D01*
X0251631Y0149249D02*
X0250683Y0149249D01*
X0250683Y0149257D02*
X0251623Y0149257D01*
X0251614Y0149266D02*
X0250683Y0149266D01*
X0250683Y0149274D02*
X0251606Y0149274D01*
X0251597Y0149283D02*
X0250683Y0149283D01*
X0250683Y0149291D02*
X0251589Y0149291D01*
X0251580Y0149300D02*
X0250683Y0149300D01*
X0250683Y0149308D02*
X0251571Y0149308D01*
X0251563Y0149317D02*
X0250683Y0149317D01*
X0250683Y0149325D02*
X0251554Y0149325D01*
X0251546Y0149334D02*
X0250683Y0149334D01*
X0250683Y0149342D02*
X0251537Y0149342D01*
X0251529Y0149351D02*
X0250683Y0149351D01*
X0250683Y0149359D02*
X0251520Y0149359D01*
X0251512Y0149368D02*
X0250683Y0149368D01*
X0250683Y0149376D02*
X0251503Y0149376D01*
X0251495Y0149385D02*
X0250683Y0149385D01*
X0250683Y0149393D02*
X0251486Y0149393D01*
X0251478Y0149402D02*
X0250683Y0149402D01*
X0250683Y0149410D02*
X0251469Y0149410D01*
X0251461Y0149419D02*
X0250683Y0149419D01*
X0250683Y0149427D02*
X0251452Y0149427D01*
X0252163Y0150134D02*
X0253144Y0150134D01*
X0253144Y0150126D02*
X0252171Y0150126D01*
X0252180Y0150117D02*
X0253144Y0150117D01*
X0253144Y0150109D02*
X0252189Y0150109D01*
X0252197Y0150100D02*
X0253144Y0150100D01*
X0253144Y0150092D02*
X0252206Y0150092D01*
X0252214Y0150083D02*
X0253144Y0150083D01*
X0253144Y0150075D02*
X0252223Y0150075D01*
X0252231Y0150066D02*
X0253144Y0150066D01*
X0253144Y0150057D02*
X0252240Y0150057D01*
X0252248Y0150049D02*
X0253144Y0150049D01*
X0253144Y0150040D02*
X0252257Y0150040D01*
X0252265Y0150032D02*
X0253144Y0150032D01*
X0253144Y0150023D02*
X0252274Y0150023D01*
X0252282Y0150015D02*
X0253144Y0150015D01*
X0253144Y0150006D02*
X0252291Y0150006D01*
X0252299Y0149998D02*
X0253144Y0149998D01*
X0253144Y0149989D02*
X0252308Y0149989D01*
X0252316Y0149981D02*
X0253144Y0149981D01*
X0253144Y0149972D02*
X0252325Y0149972D01*
X0252333Y0149964D02*
X0253144Y0149964D01*
X0253144Y0149955D02*
X0252342Y0149955D01*
X0252350Y0149947D02*
X0253144Y0149947D01*
X0253144Y0149938D02*
X0252359Y0149938D01*
X0252367Y0149930D02*
X0253144Y0149930D01*
X0253144Y0149921D02*
X0252376Y0149921D01*
X0252384Y0149913D02*
X0253144Y0149913D01*
X0253144Y0149904D02*
X0252393Y0149904D01*
X0252401Y0149896D02*
X0253144Y0149896D01*
X0253144Y0149887D02*
X0252410Y0149887D01*
X0252418Y0149879D02*
X0253144Y0149879D01*
X0253144Y0149870D02*
X0252427Y0149870D01*
X0252435Y0149862D02*
X0253144Y0149862D01*
X0253144Y0149853D02*
X0252444Y0149853D01*
X0252452Y0149845D02*
X0253144Y0149845D01*
X0253144Y0149836D02*
X0252461Y0149836D01*
X0252469Y0149828D02*
X0253144Y0149828D01*
X0253144Y0149819D02*
X0252478Y0149819D01*
X0252486Y0149811D02*
X0253144Y0149811D01*
X0253144Y0149802D02*
X0252495Y0149802D01*
X0252504Y0149794D02*
X0253144Y0149794D01*
X0253144Y0149785D02*
X0252512Y0149785D01*
X0252521Y0149777D02*
X0253144Y0149777D01*
X0253144Y0149768D02*
X0252529Y0149768D01*
X0252538Y0149759D02*
X0253144Y0149759D01*
X0253144Y0149751D02*
X0252546Y0149751D01*
X0252555Y0149742D02*
X0253144Y0149742D01*
X0253144Y0149734D02*
X0252563Y0149734D01*
X0252572Y0149725D02*
X0253144Y0149725D01*
X0253144Y0149724D02*
X0253144Y0150906D01*
X0252159Y0150906D01*
X0252159Y0150138D01*
X0252573Y0149724D01*
X0253144Y0149724D01*
X0253144Y0150143D02*
X0252159Y0150143D01*
X0252159Y0150151D02*
X0253144Y0150151D01*
X0253144Y0150160D02*
X0252159Y0150160D01*
X0252159Y0150168D02*
X0253144Y0150168D01*
X0253144Y0150177D02*
X0252159Y0150177D01*
X0252159Y0150185D02*
X0253144Y0150185D01*
X0253144Y0150194D02*
X0252159Y0150194D01*
X0252159Y0150202D02*
X0253144Y0150202D01*
X0253144Y0150211D02*
X0252159Y0150211D01*
X0252159Y0150219D02*
X0253144Y0150219D01*
X0253144Y0150228D02*
X0252159Y0150228D01*
X0252159Y0150236D02*
X0253144Y0150236D01*
X0253144Y0150245D02*
X0252159Y0150245D01*
X0252159Y0150253D02*
X0253144Y0150253D01*
X0253144Y0150262D02*
X0252159Y0150262D01*
X0252159Y0150270D02*
X0253144Y0150270D01*
X0253144Y0150279D02*
X0252159Y0150279D01*
X0252159Y0150287D02*
X0253144Y0150287D01*
X0253144Y0150296D02*
X0252159Y0150296D01*
X0252159Y0150304D02*
X0253144Y0150304D01*
X0253144Y0150313D02*
X0252159Y0150313D01*
X0252159Y0150321D02*
X0253144Y0150321D01*
X0253144Y0150330D02*
X0252159Y0150330D01*
X0252159Y0150338D02*
X0253144Y0150338D01*
X0253144Y0150347D02*
X0252159Y0150347D01*
X0252159Y0150355D02*
X0253144Y0150355D01*
X0253144Y0150364D02*
X0252159Y0150364D01*
X0252159Y0150372D02*
X0253144Y0150372D01*
X0253144Y0150381D02*
X0252159Y0150381D01*
X0252159Y0150390D02*
X0253144Y0150390D01*
X0253144Y0150398D02*
X0252159Y0150398D01*
X0252159Y0150407D02*
X0253144Y0150407D01*
X0253144Y0150415D02*
X0252159Y0150415D01*
X0252159Y0150424D02*
X0253144Y0150424D01*
X0253144Y0150432D02*
X0252159Y0150432D01*
X0252159Y0150441D02*
X0253144Y0150441D01*
X0253144Y0150449D02*
X0252159Y0150449D01*
X0252159Y0150458D02*
X0253144Y0150458D01*
X0253144Y0150466D02*
X0252159Y0150466D01*
X0252159Y0150475D02*
X0253144Y0150475D01*
X0253144Y0150483D02*
X0252159Y0150483D01*
X0252159Y0150492D02*
X0253144Y0150492D01*
X0253144Y0150500D02*
X0252159Y0150500D01*
X0252159Y0150509D02*
X0253144Y0150509D01*
X0253144Y0150517D02*
X0252159Y0150517D01*
X0252159Y0150526D02*
X0253144Y0150526D01*
X0253144Y0150534D02*
X0252159Y0150534D01*
X0252159Y0150543D02*
X0253144Y0150543D01*
X0253144Y0150551D02*
X0252159Y0150551D01*
X0252159Y0150560D02*
X0253144Y0150560D01*
X0253144Y0150568D02*
X0252159Y0150568D01*
X0252159Y0150577D02*
X0253144Y0150577D01*
X0253144Y0150585D02*
X0252159Y0150585D01*
X0252159Y0150594D02*
X0253144Y0150594D01*
X0253144Y0150602D02*
X0252159Y0150602D01*
X0252159Y0150611D02*
X0253144Y0150611D01*
X0253144Y0150619D02*
X0252159Y0150619D01*
X0252159Y0150628D02*
X0253144Y0150628D01*
X0253144Y0150636D02*
X0252159Y0150636D01*
X0252159Y0150645D02*
X0253144Y0150645D01*
X0253144Y0150653D02*
X0252159Y0150653D01*
X0252159Y0150662D02*
X0253144Y0150662D01*
X0253144Y0150670D02*
X0252159Y0150670D01*
X0252159Y0150679D02*
X0253144Y0150679D01*
X0253144Y0150688D02*
X0252159Y0150688D01*
X0252159Y0150696D02*
X0253144Y0150696D01*
X0253144Y0150705D02*
X0252159Y0150705D01*
X0252159Y0150713D02*
X0253144Y0150713D01*
X0253144Y0150722D02*
X0252159Y0150722D01*
X0252159Y0150730D02*
X0253144Y0150730D01*
X0253144Y0150739D02*
X0252159Y0150739D01*
X0252159Y0150747D02*
X0253144Y0150747D01*
X0253144Y0150756D02*
X0252159Y0150756D01*
X0252159Y0150764D02*
X0253144Y0150764D01*
X0253144Y0150773D02*
X0252159Y0150773D01*
X0252159Y0150781D02*
X0253144Y0150781D01*
X0253144Y0150790D02*
X0252159Y0150790D01*
X0252159Y0150798D02*
X0253144Y0150798D01*
X0253144Y0150807D02*
X0252159Y0150807D01*
X0252159Y0150815D02*
X0253144Y0150815D01*
X0253144Y0150824D02*
X0252159Y0150824D01*
X0252159Y0150832D02*
X0253144Y0150832D01*
X0253144Y0150841D02*
X0252159Y0150841D01*
X0252159Y0150849D02*
X0253144Y0150849D01*
X0253144Y0150858D02*
X0252159Y0150858D01*
X0252159Y0150866D02*
X0253144Y0150866D01*
X0253144Y0150875D02*
X0252159Y0150875D01*
X0252159Y0150883D02*
X0253144Y0150883D01*
X0253144Y0150892D02*
X0252159Y0150892D01*
X0252159Y0150900D02*
X0253144Y0150900D01*
X0260033Y0150900D02*
X0261018Y0150900D01*
X0261018Y0150906D02*
X0260033Y0150906D01*
X0260033Y0149724D01*
X0260604Y0149724D01*
X0261018Y0150138D01*
X0261018Y0150906D01*
X0261018Y0150892D02*
X0260033Y0150892D01*
X0260033Y0150883D02*
X0261018Y0150883D01*
X0261018Y0150875D02*
X0260033Y0150875D01*
X0260033Y0150866D02*
X0261018Y0150866D01*
X0261018Y0150858D02*
X0260033Y0150858D01*
X0260033Y0150849D02*
X0261018Y0150849D01*
X0261018Y0150841D02*
X0260033Y0150841D01*
X0260033Y0150832D02*
X0261018Y0150832D01*
X0261018Y0150824D02*
X0260033Y0150824D01*
X0260033Y0150815D02*
X0261018Y0150815D01*
X0261018Y0150807D02*
X0260033Y0150807D01*
X0260033Y0150798D02*
X0261018Y0150798D01*
X0261018Y0150790D02*
X0260033Y0150790D01*
X0260033Y0150781D02*
X0261018Y0150781D01*
X0261018Y0150773D02*
X0260033Y0150773D01*
X0260033Y0150764D02*
X0261018Y0150764D01*
X0261018Y0150756D02*
X0260033Y0150756D01*
X0260033Y0150747D02*
X0261018Y0150747D01*
X0261018Y0150739D02*
X0260033Y0150739D01*
X0260033Y0150730D02*
X0261018Y0150730D01*
X0261018Y0150722D02*
X0260033Y0150722D01*
X0260033Y0150713D02*
X0261018Y0150713D01*
X0261018Y0150705D02*
X0260033Y0150705D01*
X0260033Y0150696D02*
X0261018Y0150696D01*
X0261018Y0150688D02*
X0260033Y0150688D01*
X0260033Y0150679D02*
X0261018Y0150679D01*
X0261018Y0150670D02*
X0260033Y0150670D01*
X0260033Y0150662D02*
X0261018Y0150662D01*
X0261018Y0150653D02*
X0260033Y0150653D01*
X0260033Y0150645D02*
X0261018Y0150645D01*
X0261018Y0150636D02*
X0260033Y0150636D01*
X0260033Y0150628D02*
X0261018Y0150628D01*
X0261018Y0150619D02*
X0260033Y0150619D01*
X0260033Y0150611D02*
X0261018Y0150611D01*
X0261018Y0150602D02*
X0260033Y0150602D01*
X0260033Y0150594D02*
X0261018Y0150594D01*
X0261018Y0150585D02*
X0260033Y0150585D01*
X0260033Y0150577D02*
X0261018Y0150577D01*
X0261018Y0150568D02*
X0260033Y0150568D01*
X0260033Y0150560D02*
X0261018Y0150560D01*
X0261018Y0150551D02*
X0260033Y0150551D01*
X0260033Y0150543D02*
X0261018Y0150543D01*
X0261018Y0150534D02*
X0260033Y0150534D01*
X0260033Y0150526D02*
X0261018Y0150526D01*
X0261018Y0150517D02*
X0260033Y0150517D01*
X0260033Y0150509D02*
X0261018Y0150509D01*
X0261018Y0150500D02*
X0260033Y0150500D01*
X0260033Y0150492D02*
X0261018Y0150492D01*
X0261018Y0150483D02*
X0260033Y0150483D01*
X0260033Y0150475D02*
X0261018Y0150475D01*
X0261018Y0150466D02*
X0260033Y0150466D01*
X0260033Y0150458D02*
X0261018Y0150458D01*
X0261018Y0150449D02*
X0260033Y0150449D01*
X0260033Y0150441D02*
X0261018Y0150441D01*
X0261018Y0150432D02*
X0260033Y0150432D01*
X0260033Y0150424D02*
X0261018Y0150424D01*
X0261018Y0150415D02*
X0260033Y0150415D01*
X0260033Y0150407D02*
X0261018Y0150407D01*
X0261018Y0150398D02*
X0260033Y0150398D01*
X0260033Y0150390D02*
X0261018Y0150390D01*
X0261018Y0150381D02*
X0260033Y0150381D01*
X0260033Y0150372D02*
X0261018Y0150372D01*
X0261018Y0150364D02*
X0260033Y0150364D01*
X0260033Y0150355D02*
X0261018Y0150355D01*
X0261018Y0150347D02*
X0260033Y0150347D01*
X0260033Y0150338D02*
X0261018Y0150338D01*
X0261018Y0150330D02*
X0260033Y0150330D01*
X0260033Y0150321D02*
X0261018Y0150321D01*
X0261018Y0150313D02*
X0260033Y0150313D01*
X0260033Y0150304D02*
X0261018Y0150304D01*
X0261018Y0150296D02*
X0260033Y0150296D01*
X0260033Y0150287D02*
X0261018Y0150287D01*
X0261018Y0150279D02*
X0260033Y0150279D01*
X0260033Y0150270D02*
X0261018Y0150270D01*
X0261018Y0150262D02*
X0260033Y0150262D01*
X0260033Y0150253D02*
X0261018Y0150253D01*
X0261018Y0150245D02*
X0260033Y0150245D01*
X0260033Y0150236D02*
X0261018Y0150236D01*
X0261018Y0150228D02*
X0260033Y0150228D01*
X0260033Y0150219D02*
X0261018Y0150219D01*
X0261018Y0150211D02*
X0260033Y0150211D01*
X0260033Y0150202D02*
X0261018Y0150202D01*
X0261018Y0150194D02*
X0260033Y0150194D01*
X0260033Y0150185D02*
X0261018Y0150185D01*
X0261018Y0150177D02*
X0260033Y0150177D01*
X0260033Y0150168D02*
X0261018Y0150168D01*
X0261018Y0150160D02*
X0260033Y0150160D01*
X0260033Y0150151D02*
X0261018Y0150151D01*
X0261018Y0150143D02*
X0260033Y0150143D01*
X0260033Y0150134D02*
X0261014Y0150134D01*
X0261005Y0150126D02*
X0260033Y0150126D01*
X0260033Y0150117D02*
X0260997Y0150117D01*
X0260988Y0150109D02*
X0260033Y0150109D01*
X0260033Y0150100D02*
X0260980Y0150100D01*
X0260971Y0150092D02*
X0260033Y0150092D01*
X0260033Y0150083D02*
X0260963Y0150083D01*
X0260954Y0150075D02*
X0260033Y0150075D01*
X0260033Y0150066D02*
X0260946Y0150066D01*
X0260937Y0150057D02*
X0260033Y0150057D01*
X0260033Y0150049D02*
X0260929Y0150049D01*
X0260920Y0150040D02*
X0260033Y0150040D01*
X0260033Y0150032D02*
X0260912Y0150032D01*
X0260903Y0150023D02*
X0260033Y0150023D01*
X0260033Y0150015D02*
X0260895Y0150015D01*
X0260886Y0150006D02*
X0260033Y0150006D01*
X0260033Y0149998D02*
X0260878Y0149998D01*
X0260869Y0149989D02*
X0260033Y0149989D01*
X0260033Y0149981D02*
X0260861Y0149981D01*
X0260852Y0149972D02*
X0260033Y0149972D01*
X0260033Y0149964D02*
X0260844Y0149964D01*
X0260835Y0149955D02*
X0260033Y0149955D01*
X0260033Y0149947D02*
X0260827Y0149947D01*
X0260818Y0149938D02*
X0260033Y0149938D01*
X0260033Y0149930D02*
X0260810Y0149930D01*
X0260801Y0149921D02*
X0260033Y0149921D01*
X0260033Y0149913D02*
X0260792Y0149913D01*
X0260784Y0149904D02*
X0260033Y0149904D01*
X0260033Y0149896D02*
X0260775Y0149896D01*
X0260767Y0149887D02*
X0260033Y0149887D01*
X0260033Y0149879D02*
X0260758Y0149879D01*
X0260750Y0149870D02*
X0260033Y0149870D01*
X0260033Y0149862D02*
X0260741Y0149862D01*
X0260733Y0149853D02*
X0260033Y0149853D01*
X0260033Y0149845D02*
X0260724Y0149845D01*
X0260716Y0149836D02*
X0260033Y0149836D01*
X0260033Y0149828D02*
X0260707Y0149828D01*
X0260699Y0149819D02*
X0260033Y0149819D01*
X0260033Y0149811D02*
X0260690Y0149811D01*
X0260682Y0149802D02*
X0260033Y0149802D01*
X0260033Y0149794D02*
X0260673Y0149794D01*
X0260665Y0149785D02*
X0260033Y0149785D01*
X0260033Y0149777D02*
X0260656Y0149777D01*
X0260648Y0149768D02*
X0260033Y0149768D01*
X0260033Y0149759D02*
X0260639Y0149759D01*
X0260631Y0149751D02*
X0260033Y0149751D01*
X0260033Y0149742D02*
X0260622Y0149742D01*
X0260614Y0149734D02*
X0260033Y0149734D01*
X0260033Y0149725D02*
X0260605Y0149725D01*
X0261313Y0149016D02*
X0261313Y0148445D01*
X0262494Y0148445D01*
X0262494Y0149429D01*
X0261726Y0149429D01*
X0261313Y0149016D01*
X0261316Y0149019D02*
X0262494Y0149019D01*
X0262494Y0149027D02*
X0261324Y0149027D01*
X0261333Y0149036D02*
X0262494Y0149036D01*
X0262494Y0149044D02*
X0261341Y0149044D01*
X0261350Y0149053D02*
X0262494Y0149053D01*
X0262494Y0149061D02*
X0261358Y0149061D01*
X0261367Y0149070D02*
X0262494Y0149070D01*
X0262494Y0149078D02*
X0261375Y0149078D01*
X0261384Y0149087D02*
X0262494Y0149087D01*
X0262494Y0149095D02*
X0261392Y0149095D01*
X0261401Y0149104D02*
X0262494Y0149104D01*
X0262494Y0149112D02*
X0261410Y0149112D01*
X0261418Y0149121D02*
X0262494Y0149121D01*
X0262494Y0149129D02*
X0261427Y0149129D01*
X0261435Y0149138D02*
X0262494Y0149138D01*
X0262494Y0149147D02*
X0261444Y0149147D01*
X0261452Y0149155D02*
X0262494Y0149155D01*
X0262494Y0149164D02*
X0261461Y0149164D01*
X0261469Y0149172D02*
X0262494Y0149172D01*
X0262494Y0149181D02*
X0261478Y0149181D01*
X0261486Y0149189D02*
X0262494Y0149189D01*
X0262494Y0149198D02*
X0261495Y0149198D01*
X0261503Y0149206D02*
X0262494Y0149206D01*
X0262494Y0149215D02*
X0261512Y0149215D01*
X0261520Y0149223D02*
X0262494Y0149223D01*
X0262494Y0149232D02*
X0261529Y0149232D01*
X0261537Y0149240D02*
X0262494Y0149240D01*
X0262494Y0149249D02*
X0261546Y0149249D01*
X0261554Y0149257D02*
X0262494Y0149257D01*
X0262494Y0149266D02*
X0261563Y0149266D01*
X0261571Y0149274D02*
X0262494Y0149274D01*
X0262494Y0149283D02*
X0261580Y0149283D01*
X0261588Y0149291D02*
X0262494Y0149291D01*
X0262494Y0149300D02*
X0261597Y0149300D01*
X0261605Y0149308D02*
X0262494Y0149308D01*
X0262494Y0149317D02*
X0261614Y0149317D01*
X0261622Y0149325D02*
X0262494Y0149325D01*
X0262494Y0149334D02*
X0261631Y0149334D01*
X0261639Y0149342D02*
X0262494Y0149342D01*
X0262494Y0149351D02*
X0261648Y0149351D01*
X0261656Y0149359D02*
X0262494Y0149359D01*
X0262494Y0149368D02*
X0261665Y0149368D01*
X0261673Y0149376D02*
X0262494Y0149376D01*
X0262494Y0149385D02*
X0261682Y0149385D01*
X0261690Y0149393D02*
X0262494Y0149393D01*
X0262494Y0149402D02*
X0261699Y0149402D01*
X0261708Y0149410D02*
X0262494Y0149410D01*
X0262494Y0149419D02*
X0261716Y0149419D01*
X0261725Y0149427D02*
X0262494Y0149427D01*
X0262494Y0149010D02*
X0261313Y0149010D01*
X0261313Y0149002D02*
X0262494Y0149002D01*
X0262494Y0148993D02*
X0261313Y0148993D01*
X0261313Y0148985D02*
X0262494Y0148985D01*
X0262494Y0148976D02*
X0261313Y0148976D01*
X0261313Y0148968D02*
X0262494Y0148968D01*
X0262494Y0148959D02*
X0261313Y0148959D01*
X0261313Y0148951D02*
X0262494Y0148951D01*
X0262494Y0148942D02*
X0261313Y0148942D01*
X0261313Y0148934D02*
X0262494Y0148934D01*
X0262494Y0148925D02*
X0261313Y0148925D01*
X0261313Y0148917D02*
X0262494Y0148917D01*
X0262494Y0148908D02*
X0261313Y0148908D01*
X0261313Y0148900D02*
X0262494Y0148900D01*
X0262494Y0148891D02*
X0261313Y0148891D01*
X0261313Y0148883D02*
X0262494Y0148883D01*
X0262494Y0148874D02*
X0261313Y0148874D01*
X0261313Y0148866D02*
X0262494Y0148866D01*
X0262494Y0148857D02*
X0261313Y0148857D01*
X0261313Y0148849D02*
X0262494Y0148849D01*
X0262494Y0148840D02*
X0261313Y0148840D01*
X0261313Y0148831D02*
X0262494Y0148831D01*
X0262494Y0148823D02*
X0261313Y0148823D01*
X0261313Y0148814D02*
X0262494Y0148814D01*
X0262494Y0148806D02*
X0261313Y0148806D01*
X0261313Y0148797D02*
X0262494Y0148797D01*
X0262494Y0148789D02*
X0261313Y0148789D01*
X0261313Y0148780D02*
X0262494Y0148780D01*
X0262494Y0148772D02*
X0261313Y0148772D01*
X0261313Y0148763D02*
X0262494Y0148763D01*
X0262494Y0148755D02*
X0261313Y0148755D01*
X0261313Y0148746D02*
X0262494Y0148746D01*
X0262494Y0148738D02*
X0261313Y0148738D01*
X0261313Y0148729D02*
X0262494Y0148729D01*
X0262494Y0148721D02*
X0261313Y0148721D01*
X0261313Y0148712D02*
X0262494Y0148712D01*
X0262494Y0148704D02*
X0261313Y0148704D01*
X0261313Y0148695D02*
X0262494Y0148695D01*
X0262494Y0148687D02*
X0261313Y0148687D01*
X0261313Y0148678D02*
X0262494Y0148678D01*
X0262494Y0148670D02*
X0261313Y0148670D01*
X0261313Y0148661D02*
X0262494Y0148661D01*
X0262494Y0148653D02*
X0261313Y0148653D01*
X0261313Y0148644D02*
X0262494Y0148644D01*
X0262494Y0148636D02*
X0261313Y0148636D01*
X0261313Y0148627D02*
X0262494Y0148627D01*
X0262494Y0148619D02*
X0261313Y0148619D01*
X0261313Y0148610D02*
X0262494Y0148610D01*
X0262494Y0148602D02*
X0261313Y0148602D01*
X0261313Y0148593D02*
X0262494Y0148593D01*
X0262494Y0148585D02*
X0261313Y0148585D01*
X0261313Y0148576D02*
X0262494Y0148576D01*
X0262494Y0148568D02*
X0261313Y0148568D01*
X0261313Y0148559D02*
X0262494Y0148559D01*
X0262494Y0148551D02*
X0261313Y0148551D01*
X0261313Y0148542D02*
X0262494Y0148542D01*
X0262494Y0148534D02*
X0261313Y0148534D01*
X0261313Y0148525D02*
X0262494Y0148525D01*
X0262494Y0148516D02*
X0261313Y0148516D01*
X0261313Y0148508D02*
X0262494Y0148508D01*
X0262494Y0148499D02*
X0261313Y0148499D01*
X0261313Y0148491D02*
X0262494Y0148491D01*
X0262494Y0148482D02*
X0261313Y0148482D01*
X0261313Y0148474D02*
X0262494Y0148474D01*
X0262494Y0148465D02*
X0261313Y0148465D01*
X0261313Y0148457D02*
X0262494Y0148457D01*
X0262494Y0148448D02*
X0261313Y0148448D01*
D23*
X0259836Y0112559D03*
X0259836Y0110000D03*
X0259836Y0107441D03*
X0253340Y0107441D03*
X0253340Y0112559D03*
D24*
X0256588Y0119803D03*
X0254620Y0124331D03*
X0258557Y0124331D03*
X0264620Y0120669D03*
X0268557Y0120669D03*
X0266588Y0125197D03*
X0248557Y0124331D03*
X0244620Y0124331D03*
X0246588Y0119803D03*
X0251588Y0164803D03*
X0249620Y0169331D03*
X0253557Y0169331D03*
X0259620Y0165669D03*
X0263557Y0165669D03*
X0261588Y0170197D03*
D25*
X0196707Y0118740D03*
X0186470Y0118740D03*
X0186470Y0115000D03*
X0186470Y0111260D03*
X0196707Y0111260D03*
D26*
X0156588Y0110000D03*
X0156588Y0100000D03*
X0156588Y0120000D03*
X0156588Y0130000D03*
X0156588Y0140000D03*
X0156588Y0150000D03*
X0156588Y0160000D03*
X0156588Y0170000D03*
X0186588Y0080000D03*
X0196588Y0080000D03*
D27*
X0206588Y0111654D03*
X0206588Y0118346D03*
X0176588Y0118346D03*
X0176588Y0111654D03*
D28*
X0181588Y0104528D03*
X0181588Y0095472D03*
D29*
X0214581Y0094232D02*
X0214581Y0094232D01*
X0214581Y0098564D01*
X0214581Y0098564D01*
X0214581Y0094232D01*
X0214581Y0097972D02*
X0214581Y0097972D01*
X0248596Y0094232D02*
X0248596Y0094232D01*
X0248596Y0098564D01*
X0248596Y0098564D01*
X0248596Y0094232D01*
X0248596Y0097972D02*
X0248596Y0097972D01*
X0248596Y0078760D02*
X0248596Y0078760D01*
X0248596Y0081122D01*
X0248596Y0081122D01*
X0248596Y0078760D01*
X0214581Y0078760D02*
X0214581Y0078760D01*
X0214581Y0081122D01*
X0214581Y0081122D01*
X0214581Y0078760D01*
D30*
X0163299Y0076400D02*
X0160317Y0076400D01*
X0161588Y0076300D01*
X0183783Y0076300D01*
X0182689Y0077394D01*
X0165699Y0077394D01*
X0166460Y0077709D02*
X0166460Y0077709D01*
X0168879Y0080128D01*
X0168879Y0080128D01*
X0170188Y0083289D01*
X0170188Y0086711D01*
X0168879Y0089871D01*
X0168879Y0089872D01*
X0166460Y0092291D01*
X0163299Y0093600D01*
X0159878Y0093600D01*
X0156717Y0092291D01*
X0154298Y0089872D01*
X0154298Y0089871D01*
X0152988Y0086711D01*
X0152988Y0083729D01*
X0152888Y0085000D01*
X0152888Y0097195D01*
X0153983Y0096100D01*
X0155673Y0095400D01*
X0157503Y0095400D01*
X0159194Y0096100D01*
X0160488Y0097394D01*
X0161188Y0099085D01*
X0161188Y0100469D01*
X0174507Y0100469D01*
X0174507Y0100415D01*
X0174647Y0100275D01*
X0174609Y0100253D01*
X0174367Y0100011D01*
X0174196Y0099714D01*
X0174107Y0099384D01*
X0174107Y0098322D01*
X0176298Y0098322D01*
X0176298Y0097741D01*
X0176879Y0097741D01*
X0176879Y0098322D01*
X0179070Y0098322D01*
X0179070Y0099384D01*
X0178981Y0099714D01*
X0178810Y0100011D01*
X0178568Y0100253D01*
X0178530Y0100275D01*
X0178670Y0100415D01*
X0178670Y0101928D01*
X0179355Y0102614D01*
X0179582Y0102387D01*
X0183595Y0102387D01*
X0184122Y0102915D01*
X0184122Y0103028D01*
X0185866Y0103028D01*
X0185866Y0102384D01*
X0186393Y0101856D01*
X0189304Y0101856D01*
X0189831Y0102384D01*
X0189831Y0103619D01*
X0189970Y0103619D01*
X0192146Y0105795D01*
X0192146Y0101740D01*
X0192146Y0100745D01*
X0194129Y0098763D01*
X0194129Y0098144D01*
X0193873Y0098144D01*
X0193733Y0098004D01*
X0193711Y0098042D01*
X0193469Y0098284D01*
X0193173Y0098455D01*
X0192842Y0098544D01*
X0191830Y0098544D01*
X0191830Y0095123D01*
X0191347Y0095123D01*
X0191347Y0098544D01*
X0190335Y0098544D01*
X0190004Y0098455D01*
X0189708Y0098284D01*
X0189465Y0098042D01*
X0189444Y0098004D01*
X0189348Y0098099D01*
X0189348Y0099361D01*
X0188470Y0100240D01*
X0187210Y0101500D01*
X0185967Y0101500D01*
X0185667Y0101200D01*
X0184858Y0101200D01*
X0183958Y0102100D01*
X0182219Y0102100D01*
X0180988Y0100870D01*
X0180988Y0099130D01*
X0182219Y0097900D01*
X0183958Y0097900D01*
X0184858Y0098800D01*
X0185667Y0098800D01*
X0186348Y0098119D01*
X0186348Y0098099D01*
X0185866Y0097616D01*
X0185866Y0096381D01*
X0184828Y0096381D01*
X0184210Y0097000D01*
X0184122Y0097000D01*
X0184122Y0097085D01*
X0183595Y0097613D01*
X0179582Y0097613D01*
X0179070Y0097100D01*
X0179070Y0097741D01*
X0176879Y0097741D01*
X0176879Y0095550D01*
X0177941Y0095550D01*
X0178271Y0095639D01*
X0178568Y0095810D01*
X0178810Y0096052D01*
X0178981Y0096349D01*
X0179055Y0096623D01*
X0179055Y0093859D01*
X0179582Y0093332D01*
X0183595Y0093332D01*
X0183644Y0093381D01*
X0185866Y0093381D01*
X0185866Y0092146D01*
X0186348Y0091664D01*
X0186348Y0084600D01*
X0185673Y0084600D01*
X0183983Y0083900D01*
X0182689Y0082606D01*
X0181988Y0080915D01*
X0181988Y0079085D01*
X0182689Y0077394D01*
X0182441Y0077993D02*
X0166743Y0077993D01*
X0166460Y0077709D02*
X0163299Y0076400D01*
X0164254Y0076796D02*
X0183287Y0076796D01*
X0182193Y0078591D02*
X0167342Y0078591D01*
X0167940Y0079190D02*
X0181988Y0079190D01*
X0181988Y0079788D02*
X0168539Y0079788D01*
X0168986Y0080387D02*
X0181988Y0080387D01*
X0182017Y0080985D02*
X0169234Y0080985D01*
X0169482Y0081584D02*
X0182265Y0081584D01*
X0182513Y0082182D02*
X0169730Y0082182D01*
X0169978Y0082781D02*
X0182864Y0082781D01*
X0183462Y0083379D02*
X0170188Y0083379D01*
X0170188Y0083978D02*
X0184171Y0083978D01*
X0185616Y0084576D02*
X0170188Y0084576D01*
X0170188Y0085175D02*
X0186348Y0085175D01*
X0186348Y0085773D02*
X0170188Y0085773D01*
X0170188Y0086372D02*
X0186348Y0086372D01*
X0186348Y0086970D02*
X0170081Y0086970D01*
X0169833Y0087569D02*
X0186348Y0087569D01*
X0186348Y0088167D02*
X0169585Y0088167D01*
X0169337Y0088766D02*
X0186348Y0088766D01*
X0186348Y0089364D02*
X0169089Y0089364D01*
X0168788Y0089963D02*
X0186348Y0089963D01*
X0186348Y0090561D02*
X0168189Y0090561D01*
X0167591Y0091160D02*
X0186348Y0091160D01*
X0186254Y0091758D02*
X0166992Y0091758D01*
X0166460Y0092291D02*
X0166460Y0092291D01*
X0166300Y0092357D02*
X0185866Y0092357D01*
X0185866Y0092955D02*
X0164855Y0092955D01*
X0163410Y0093554D02*
X0179360Y0093554D01*
X0179055Y0094152D02*
X0152888Y0094152D01*
X0152888Y0093554D02*
X0159766Y0093554D01*
X0158321Y0092955D02*
X0152888Y0092955D01*
X0152888Y0092357D02*
X0156877Y0092357D01*
X0156717Y0092291D02*
X0156717Y0092291D01*
X0156184Y0091758D02*
X0152888Y0091758D01*
X0152888Y0091160D02*
X0155586Y0091160D01*
X0154987Y0090561D02*
X0152888Y0090561D01*
X0152888Y0089963D02*
X0154389Y0089963D01*
X0154088Y0089364D02*
X0152888Y0089364D01*
X0152888Y0088766D02*
X0153840Y0088766D01*
X0153592Y0088167D02*
X0152888Y0088167D01*
X0152888Y0087569D02*
X0153344Y0087569D01*
X0153096Y0086970D02*
X0152888Y0086970D01*
X0152888Y0086372D02*
X0152988Y0086372D01*
X0152988Y0085773D02*
X0152888Y0085773D01*
X0152888Y0085175D02*
X0152988Y0085175D01*
X0152988Y0084576D02*
X0152922Y0084576D01*
X0152969Y0083978D02*
X0152988Y0083978D01*
X0152888Y0094751D02*
X0179055Y0094751D01*
X0179055Y0095349D02*
X0152888Y0095349D01*
X0152888Y0095948D02*
X0154351Y0095948D01*
X0153537Y0096546D02*
X0152888Y0096546D01*
X0152888Y0097145D02*
X0152938Y0097145D01*
X0158826Y0095948D02*
X0174471Y0095948D01*
X0174367Y0096052D02*
X0174609Y0095810D01*
X0174906Y0095639D01*
X0175236Y0095550D01*
X0176298Y0095550D01*
X0176298Y0097741D01*
X0174107Y0097741D01*
X0174107Y0096679D01*
X0174196Y0096349D01*
X0174367Y0096052D01*
X0174143Y0096546D02*
X0159640Y0096546D01*
X0160239Y0097145D02*
X0174107Y0097145D01*
X0174107Y0098342D02*
X0160881Y0098342D01*
X0161129Y0098940D02*
X0174107Y0098940D01*
X0174149Y0099539D02*
X0161188Y0099539D01*
X0161188Y0100137D02*
X0174494Y0100137D01*
X0178683Y0100137D02*
X0180988Y0100137D01*
X0180988Y0099539D02*
X0179028Y0099539D01*
X0179070Y0098940D02*
X0181178Y0098940D01*
X0181777Y0098342D02*
X0179070Y0098342D01*
X0179070Y0097145D02*
X0179114Y0097145D01*
X0179055Y0096546D02*
X0179034Y0096546D01*
X0179055Y0095948D02*
X0178705Y0095948D01*
X0176879Y0095948D02*
X0176298Y0095948D01*
X0176298Y0096546D02*
X0176879Y0096546D01*
X0176879Y0097145D02*
X0176298Y0097145D01*
X0176298Y0097743D02*
X0160633Y0097743D01*
X0176879Y0097743D02*
X0185993Y0097743D01*
X0185866Y0097145D02*
X0184063Y0097145D01*
X0184663Y0096546D02*
X0185866Y0096546D01*
X0186125Y0098342D02*
X0184400Y0098342D01*
X0183088Y0100000D02*
X0186588Y0100000D01*
X0185802Y0101334D02*
X0184724Y0101334D01*
X0184125Y0101933D02*
X0186316Y0101933D01*
X0185866Y0102532D02*
X0183739Y0102532D01*
X0182052Y0101933D02*
X0178674Y0101933D01*
X0178670Y0101334D02*
X0181453Y0101334D01*
X0180988Y0100736D02*
X0178670Y0100736D01*
X0179273Y0102532D02*
X0179438Y0102532D01*
X0187375Y0101334D02*
X0192146Y0101334D01*
X0192155Y0100736D02*
X0187974Y0100736D01*
X0188572Y0100137D02*
X0192754Y0100137D01*
X0193352Y0099539D02*
X0189171Y0099539D01*
X0189348Y0098940D02*
X0193951Y0098940D01*
X0194129Y0098342D02*
X0193369Y0098342D01*
X0191830Y0098342D02*
X0191347Y0098342D01*
X0191347Y0097743D02*
X0191830Y0097743D01*
X0191830Y0097145D02*
X0191347Y0097145D01*
X0191347Y0096546D02*
X0191830Y0096546D01*
X0191830Y0095948D02*
X0191347Y0095948D01*
X0191347Y0095349D02*
X0191830Y0095349D01*
X0195329Y0094881D02*
X0195329Y0099260D01*
X0193346Y0101243D01*
X0193346Y0107853D01*
X0193445Y0107952D01*
X0193445Y0113215D01*
X0194472Y0114243D01*
X0199687Y0114243D01*
X0201588Y0116144D01*
X0201588Y0118031D01*
X0202788Y0115950D02*
X0203142Y0115950D01*
X0203320Y0116128D01*
X0203320Y0116010D01*
X0203409Y0115679D01*
X0203580Y0115383D01*
X0203822Y0115141D01*
X0204118Y0114970D01*
X0204449Y0114881D01*
X0206288Y0114881D01*
X0206288Y0118046D01*
X0206888Y0118046D01*
X0206888Y0114881D01*
X0208728Y0114881D01*
X0209059Y0114970D01*
X0209355Y0115141D01*
X0209597Y0115383D01*
X0209768Y0115679D01*
X0209857Y0116010D01*
X0209857Y0116128D01*
X0210035Y0115950D01*
X0210388Y0115950D01*
X0210388Y0113770D01*
X0210119Y0113500D01*
X0209457Y0113500D01*
X0209457Y0114192D01*
X0208930Y0114719D01*
X0204247Y0114719D01*
X0203720Y0114192D01*
X0203720Y0113154D01*
X0200295Y0113154D01*
X0202788Y0115647D01*
X0202788Y0115950D01*
X0202788Y0115699D02*
X0203403Y0115699D01*
X0203892Y0115100D02*
X0202242Y0115100D01*
X0201643Y0114502D02*
X0204030Y0114502D01*
X0203720Y0113903D02*
X0201045Y0113903D01*
X0200446Y0113305D02*
X0203720Y0113305D01*
X0206288Y0115100D02*
X0206888Y0115100D01*
X0206888Y0115699D02*
X0206288Y0115699D01*
X0206288Y0116297D02*
X0206888Y0116297D01*
X0206888Y0116896D02*
X0206288Y0116896D01*
X0206288Y0117494D02*
X0206888Y0117494D01*
X0206888Y0118646D02*
X0206288Y0118646D01*
X0206288Y0121812D01*
X0204449Y0121812D01*
X0204118Y0121723D01*
X0203822Y0121552D01*
X0203670Y0121400D01*
X0203670Y0123522D01*
X0203142Y0124050D01*
X0200035Y0124050D01*
X0199507Y0123522D01*
X0199507Y0122715D01*
X0196391Y0122715D01*
X0196501Y0122779D01*
X0196743Y0123021D01*
X0196914Y0123317D01*
X0197003Y0123648D01*
X0197003Y0126275D01*
X0192459Y0126275D01*
X0192459Y0126875D01*
X0197003Y0126875D01*
X0197003Y0129502D01*
X0196914Y0129832D01*
X0196743Y0130129D01*
X0196501Y0130371D01*
X0196204Y0130542D01*
X0196188Y0130546D01*
X0196188Y0132001D01*
X0194958Y0133231D01*
X0193219Y0133231D01*
X0192319Y0132331D01*
X0187222Y0132331D01*
X0182091Y0127200D01*
X0177585Y0127200D01*
X0170288Y0134497D01*
X0170288Y0144730D01*
X0171188Y0145630D01*
X0171188Y0146203D01*
X0172091Y0145300D01*
X0181585Y0145300D01*
X0182288Y0146003D01*
X0182685Y0146400D01*
X0183958Y0146400D01*
X0185188Y0147630D01*
X0185188Y0149370D01*
X0183958Y0150600D01*
X0182219Y0150600D01*
X0180988Y0149370D01*
X0180988Y0148097D01*
X0180591Y0147700D01*
X0173085Y0147700D01*
X0169288Y0151497D01*
X0169288Y0174003D01*
X0180591Y0185306D01*
X0184924Y0185306D01*
X0184819Y0185200D01*
X0182591Y0185200D01*
X0181888Y0184497D01*
X0181460Y0184068D01*
X0180757Y0183366D01*
X0180757Y0174888D01*
X0180713Y0174932D01*
X0179659Y0175368D01*
X0178518Y0175368D01*
X0177464Y0174932D01*
X0176657Y0174125D01*
X0176588Y0173960D01*
X0176520Y0174125D01*
X0175713Y0174932D01*
X0174659Y0175368D01*
X0173518Y0175368D01*
X0172464Y0174932D01*
X0171657Y0174125D01*
X0171220Y0173071D01*
X0171220Y0171929D01*
X0171657Y0170875D01*
X0172297Y0170234D01*
X0172005Y0170039D01*
X0171550Y0169584D01*
X0171192Y0169048D01*
X0170946Y0168453D01*
X0170820Y0167822D01*
X0170820Y0167700D01*
X0173888Y0167700D01*
X0173888Y0167300D01*
X0170820Y0167300D01*
X0170820Y0167178D01*
X0170946Y0166547D01*
X0171192Y0165952D01*
X0171550Y0165416D01*
X0171966Y0165000D01*
X0171550Y0164584D01*
X0171192Y0164048D01*
X0170946Y0163453D01*
X0170820Y0162822D01*
X0170820Y0162700D01*
X0173888Y0162700D01*
X0173888Y0162300D01*
X0170820Y0162300D01*
X0170820Y0162178D01*
X0170946Y0161547D01*
X0171192Y0160952D01*
X0171550Y0160416D01*
X0172005Y0159961D01*
X0172297Y0159766D01*
X0171657Y0159125D01*
X0171220Y0158071D01*
X0171220Y0156929D01*
X0171657Y0155875D01*
X0172297Y0155234D01*
X0172005Y0155039D01*
X0171550Y0154584D01*
X0171192Y0154048D01*
X0170946Y0153453D01*
X0170820Y0152822D01*
X0170820Y0152700D01*
X0173888Y0152700D01*
X0173888Y0152300D01*
X0170820Y0152300D01*
X0170820Y0152178D01*
X0170946Y0151547D01*
X0171192Y0150952D01*
X0171550Y0150416D01*
X0172005Y0149961D01*
X0172540Y0149603D01*
X0173135Y0149357D01*
X0173766Y0149231D01*
X0173888Y0149231D01*
X0173888Y0152300D01*
X0174288Y0152300D01*
X0174288Y0149231D01*
X0174410Y0149231D01*
X0175042Y0149357D01*
X0175637Y0149603D01*
X0176172Y0149961D01*
X0176627Y0150416D01*
X0176823Y0150709D01*
X0177464Y0150068D01*
X0178518Y0149631D01*
X0179659Y0149631D01*
X0180713Y0150068D01*
X0181520Y0150875D01*
X0181957Y0151929D01*
X0181957Y0153071D01*
X0181520Y0154125D01*
X0180713Y0154932D01*
X0180549Y0155000D01*
X0180713Y0155068D01*
X0181520Y0155875D01*
X0181957Y0156929D01*
X0181957Y0158071D01*
X0181520Y0159125D01*
X0180713Y0159932D01*
X0180549Y0160000D01*
X0180713Y0160068D01*
X0181520Y0160875D01*
X0181696Y0161300D01*
X0196091Y0161300D01*
X0203691Y0153700D01*
X0209455Y0153700D01*
X0210158Y0154403D01*
X0210187Y0154432D01*
X0210719Y0153900D01*
X0212458Y0153900D01*
X0213388Y0154830D01*
X0213388Y0145997D01*
X0211091Y0143700D01*
X0198091Y0143700D01*
X0197388Y0142997D01*
X0191491Y0137100D01*
X0190219Y0137100D01*
X0188988Y0135870D01*
X0188988Y0134130D01*
X0190219Y0132900D01*
X0191958Y0132900D01*
X0193188Y0134130D01*
X0193188Y0135403D01*
X0199085Y0141300D01*
X0212085Y0141300D01*
X0212788Y0142003D01*
X0215085Y0144300D01*
X0215085Y0144300D01*
X0215788Y0145003D01*
X0215788Y0157497D01*
X0215085Y0158200D01*
X0213985Y0159300D01*
X0208721Y0159300D01*
X0208019Y0158597D01*
X0207688Y0158267D01*
X0207688Y0159870D01*
X0207493Y0160065D01*
X0207493Y0164061D01*
X0208149Y0164061D01*
X0208149Y0163800D01*
X0208676Y0163273D01*
X0212480Y0163273D01*
X0212480Y0162226D01*
X0213007Y0161698D01*
X0216902Y0161698D01*
X0217429Y0162226D01*
X0217429Y0163273D01*
X0221233Y0163273D01*
X0221760Y0163800D01*
X0221760Y0169131D01*
X0223488Y0167403D01*
X0223488Y0118697D01*
X0222391Y0117600D01*
X0222188Y0117600D01*
X0222888Y0118300D01*
X0222888Y0121367D01*
X0222185Y0122070D01*
X0221788Y0122467D01*
X0221788Y0126730D01*
X0222688Y0127630D01*
X0222688Y0129370D01*
X0221458Y0130600D01*
X0219719Y0130600D01*
X0218933Y0129814D01*
X0218516Y0130231D01*
X0210828Y0130231D01*
X0209958Y0131100D01*
X0208219Y0131100D01*
X0206988Y0129870D01*
X0206988Y0128130D01*
X0207888Y0127230D01*
X0207888Y0123971D01*
X0209507Y0122353D01*
X0209507Y0121400D01*
X0209355Y0121552D01*
X0209059Y0121723D01*
X0208728Y0121812D01*
X0206888Y0121812D01*
X0206888Y0118646D01*
X0206888Y0118691D02*
X0206288Y0118691D01*
X0206288Y0119290D02*
X0206888Y0119290D01*
X0206888Y0119888D02*
X0206288Y0119888D01*
X0206288Y0120487D02*
X0206888Y0120487D01*
X0206888Y0121085D02*
X0206288Y0121085D01*
X0206288Y0121684D02*
X0206888Y0121684D01*
X0209127Y0121684D02*
X0209507Y0121684D01*
X0209507Y0122282D02*
X0203670Y0122282D01*
X0203670Y0121684D02*
X0204050Y0121684D01*
X0203670Y0122881D02*
X0208979Y0122881D01*
X0208380Y0123479D02*
X0203670Y0123479D01*
X0201588Y0121969D02*
X0201135Y0121515D01*
X0191603Y0121515D01*
X0189503Y0121684D02*
X0181102Y0121684D01*
X0181700Y0121085D02*
X0189503Y0121085D01*
X0189503Y0120645D02*
X0190734Y0119415D01*
X0192473Y0119415D01*
X0193373Y0120315D01*
X0193564Y0120315D01*
X0193445Y0120196D01*
X0193445Y0118114D01*
X0192958Y0118600D01*
X0191219Y0118600D01*
X0189988Y0117370D01*
X0189988Y0116680D01*
X0189872Y0116881D01*
X0189630Y0117123D01*
X0189592Y0117145D01*
X0189732Y0117285D01*
X0189732Y0120196D01*
X0189205Y0120723D01*
X0183735Y0120723D01*
X0183208Y0120196D01*
X0183208Y0119940D01*
X0182845Y0119940D01*
X0177985Y0124800D01*
X0183085Y0124800D01*
X0183788Y0125503D01*
X0187316Y0129031D01*
X0187316Y0126875D01*
X0191859Y0126875D01*
X0191859Y0126275D01*
X0187316Y0126275D01*
X0187316Y0123648D01*
X0187405Y0123317D01*
X0187576Y0123021D01*
X0187818Y0122779D01*
X0188114Y0122607D01*
X0188445Y0122519D01*
X0189637Y0122519D01*
X0189503Y0122385D01*
X0189503Y0120645D01*
X0189441Y0120487D02*
X0189662Y0120487D01*
X0189732Y0119888D02*
X0190260Y0119888D01*
X0189732Y0119290D02*
X0193445Y0119290D01*
X0193445Y0119888D02*
X0192947Y0119888D01*
X0193445Y0118691D02*
X0189732Y0118691D01*
X0189732Y0118093D02*
X0190711Y0118093D01*
X0190113Y0117494D02*
X0189732Y0117494D01*
X0189857Y0116896D02*
X0189988Y0116896D01*
X0186470Y0118740D02*
X0182348Y0118740D01*
X0166888Y0134200D01*
X0166888Y0174997D01*
X0179597Y0187706D01*
X0233588Y0187706D01*
X0234006Y0188124D01*
X0242662Y0188124D01*
X0245885Y0184900D01*
X0247158Y0184900D01*
X0249073Y0182985D01*
X0251557Y0185501D02*
X0246535Y0190524D01*
X0232415Y0190524D01*
X0231997Y0190106D01*
X0175694Y0190106D01*
X0174457Y0188869D01*
X0174457Y0188812D01*
X0172777Y0187131D01*
X0172720Y0187131D01*
X0170588Y0185000D01*
X0176222Y0180937D02*
X0180757Y0180937D01*
X0180757Y0181535D02*
X0176820Y0181535D01*
X0177419Y0182134D02*
X0180757Y0182134D01*
X0180757Y0182732D02*
X0178017Y0182732D01*
X0178616Y0183331D02*
X0180757Y0183331D01*
X0181320Y0183929D02*
X0179215Y0183929D01*
X0179813Y0184528D02*
X0181919Y0184528D01*
X0182517Y0185126D02*
X0180412Y0185126D01*
X0180094Y0186506D02*
X0234085Y0186506D01*
X0234503Y0186924D01*
X0242165Y0186924D01*
X0249620Y0179469D01*
X0249620Y0173000D01*
X0251588Y0171031D01*
X0251588Y0164803D01*
X0256588Y0163031D02*
X0256588Y0156197D01*
X0257193Y0155592D01*
X0257193Y0151088D01*
X0257376Y0150906D01*
X0255801Y0150906D02*
X0255801Y0155287D01*
X0253557Y0157531D01*
X0253557Y0159000D01*
X0253557Y0169331D01*
X0255362Y0169450D02*
X0255362Y0170983D01*
X0255269Y0171077D01*
X0255405Y0171213D01*
X0255719Y0170900D01*
X0256991Y0170900D01*
X0258895Y0168997D01*
X0259783Y0168997D01*
X0259783Y0168545D01*
X0260310Y0168017D01*
X0262867Y0168017D01*
X0263394Y0168545D01*
X0263394Y0168997D01*
X0263926Y0168997D01*
X0264507Y0168416D01*
X0264507Y0167849D01*
X0262279Y0167849D01*
X0261751Y0167322D01*
X0261751Y0164017D01*
X0261857Y0163911D01*
X0261857Y0159435D01*
X0261588Y0159166D01*
X0261174Y0159581D01*
X0260820Y0159581D01*
X0260820Y0163490D01*
X0260898Y0163490D01*
X0261425Y0164017D01*
X0261425Y0167322D01*
X0260898Y0167849D01*
X0259070Y0167849D01*
X0259070Y0168321D01*
X0258981Y0168651D01*
X0258810Y0168948D01*
X0258568Y0169190D01*
X0258271Y0169361D01*
X0257941Y0169450D01*
X0256879Y0169450D01*
X0256879Y0167259D01*
X0256298Y0167259D01*
X0256298Y0169450D01*
X0255362Y0169450D01*
X0255362Y0169565D02*
X0258327Y0169565D01*
X0258791Y0168966D02*
X0259783Y0168966D01*
X0259960Y0168368D02*
X0259057Y0168368D01*
X0259392Y0170197D02*
X0256588Y0173000D01*
X0255719Y0175100D02*
X0260143Y0175100D01*
X0263275Y0171969D01*
X0266588Y0171969D01*
X0268670Y0171959D02*
X0270288Y0171959D01*
X0270288Y0172557D02*
X0268670Y0172557D01*
X0268670Y0173156D02*
X0270288Y0173156D01*
X0270288Y0173754D02*
X0268438Y0173754D01*
X0268670Y0173522D02*
X0268142Y0174050D01*
X0265035Y0174050D01*
X0264507Y0173522D01*
X0264507Y0173168D01*
X0263772Y0173168D01*
X0260640Y0176300D01*
X0255221Y0176300D01*
X0254757Y0175835D01*
X0254757Y0176497D01*
X0254054Y0177200D01*
X0252757Y0178497D01*
X0252757Y0185998D01*
X0247735Y0191021D01*
X0247032Y0191724D01*
X0231918Y0191724D01*
X0231500Y0191305D01*
X0175197Y0191305D01*
X0174494Y0190603D01*
X0174457Y0190566D01*
X0174457Y0190571D01*
X0174020Y0191625D01*
X0173213Y0192432D01*
X0172159Y0192868D01*
X0171018Y0192868D01*
X0169964Y0192432D01*
X0169157Y0191625D01*
X0168720Y0190571D01*
X0168720Y0190031D01*
X0166460Y0192291D01*
X0163299Y0193600D01*
X0160317Y0193600D01*
X0161588Y0193700D01*
X0261588Y0193700D01*
X0262859Y0193600D01*
X0259878Y0193600D01*
X0256717Y0192291D01*
X0254298Y0189872D01*
X0254298Y0189871D01*
X0252988Y0186711D01*
X0252988Y0183289D01*
X0254298Y0180128D01*
X0256717Y0177709D01*
X0259878Y0176400D01*
X0263299Y0176400D01*
X0266460Y0177709D01*
X0268879Y0180128D01*
X0268879Y0180128D01*
X0270188Y0183289D01*
X0270188Y0186271D01*
X0270288Y0185000D01*
X0270288Y0131903D01*
X0270111Y0132081D01*
X0269757Y0132081D01*
X0269757Y0134497D01*
X0267188Y0137066D01*
X0267188Y0137870D01*
X0265958Y0139100D01*
X0264219Y0139100D01*
X0262988Y0137870D01*
X0262988Y0137200D01*
X0261597Y0137200D01*
X0261937Y0137541D01*
X0261937Y0139271D01*
X0262701Y0139271D01*
X0263846Y0139271D01*
X0264177Y0139359D01*
X0264473Y0139531D01*
X0264715Y0139773D01*
X0264886Y0140069D01*
X0264975Y0140400D01*
X0264975Y0141063D01*
X0264975Y0141726D01*
X0264886Y0142057D01*
X0264715Y0142353D01*
X0264575Y0142494D01*
X0264575Y0146830D01*
X0264575Y0146830D01*
X0265557Y0146423D01*
X0266620Y0146423D01*
X0267602Y0146830D01*
X0268353Y0147581D01*
X0268760Y0148563D01*
X0268760Y0149626D01*
X0268353Y0150608D01*
X0267602Y0151359D01*
X0266620Y0151766D01*
X0265557Y0151766D01*
X0265160Y0151602D01*
X0265188Y0151630D01*
X0265188Y0153370D01*
X0263958Y0154600D01*
X0263901Y0154600D01*
X0263901Y0155419D01*
X0265111Y0155419D01*
X0265638Y0155946D01*
X0265638Y0158234D01*
X0266620Y0158234D01*
X0267602Y0158641D01*
X0268353Y0159392D01*
X0268760Y0160374D01*
X0268760Y0161437D01*
X0268353Y0162419D01*
X0267602Y0163170D01*
X0266620Y0163577D01*
X0265557Y0163577D01*
X0264575Y0163170D01*
X0264257Y0162852D01*
X0264257Y0163490D01*
X0264835Y0163490D01*
X0265362Y0164017D01*
X0265362Y0165950D01*
X0268142Y0165950D01*
X0268670Y0166478D01*
X0268670Y0169585D01*
X0268255Y0170000D01*
X0268670Y0170415D01*
X0268670Y0173522D01*
X0270288Y0174353D02*
X0262587Y0174353D01*
X0261989Y0174951D02*
X0270288Y0174951D01*
X0270288Y0175550D02*
X0261390Y0175550D01*
X0260792Y0176148D02*
X0270288Y0176148D01*
X0270288Y0176747D02*
X0264137Y0176747D01*
X0265582Y0177345D02*
X0270288Y0177345D01*
X0270288Y0177944D02*
X0266695Y0177944D01*
X0266460Y0177709D02*
X0266460Y0177709D01*
X0267293Y0178542D02*
X0270288Y0178542D01*
X0270288Y0179141D02*
X0267892Y0179141D01*
X0268490Y0179739D02*
X0270288Y0179739D01*
X0270288Y0180338D02*
X0268966Y0180338D01*
X0269214Y0180937D02*
X0270288Y0180937D01*
X0270288Y0181535D02*
X0269462Y0181535D01*
X0269710Y0182134D02*
X0270288Y0182134D01*
X0270288Y0182732D02*
X0269958Y0182732D01*
X0270188Y0183331D02*
X0270288Y0183331D01*
X0270288Y0183929D02*
X0270188Y0183929D01*
X0270188Y0184528D02*
X0270288Y0184528D01*
X0270278Y0185126D02*
X0270188Y0185126D01*
X0270188Y0185725D02*
X0270231Y0185725D01*
X0259649Y0193505D02*
X0163528Y0193505D01*
X0164973Y0192907D02*
X0258204Y0192907D01*
X0256759Y0192308D02*
X0173337Y0192308D01*
X0173935Y0191710D02*
X0231904Y0191710D01*
X0232912Y0189324D02*
X0244765Y0189324D01*
X0247088Y0187000D01*
X0250038Y0188717D02*
X0253820Y0188717D01*
X0254067Y0189316D02*
X0249440Y0189316D01*
X0248841Y0189914D02*
X0254340Y0189914D01*
X0254939Y0190513D02*
X0248243Y0190513D01*
X0247644Y0191111D02*
X0255537Y0191111D01*
X0256136Y0191710D02*
X0247046Y0191710D01*
X0250637Y0188119D02*
X0253572Y0188119D01*
X0253324Y0187520D02*
X0251235Y0187520D01*
X0251834Y0186922D02*
X0253076Y0186922D01*
X0252988Y0186323D02*
X0252432Y0186323D01*
X0252757Y0185725D02*
X0252988Y0185725D01*
X0252988Y0185126D02*
X0252757Y0185126D01*
X0252757Y0184528D02*
X0252988Y0184528D01*
X0252988Y0183929D02*
X0252757Y0183929D01*
X0252757Y0183331D02*
X0252988Y0183331D01*
X0252757Y0182732D02*
X0253219Y0182732D01*
X0253467Y0182134D02*
X0252757Y0182134D01*
X0252757Y0181535D02*
X0253715Y0181535D01*
X0253963Y0180937D02*
X0252757Y0180937D01*
X0252757Y0180338D02*
X0254211Y0180338D01*
X0254298Y0180128D02*
X0254298Y0180128D01*
X0254687Y0179739D02*
X0252757Y0179739D01*
X0252757Y0179141D02*
X0255285Y0179141D01*
X0255884Y0178542D02*
X0252757Y0178542D01*
X0253310Y0177944D02*
X0256482Y0177944D01*
X0256717Y0177709D02*
X0256717Y0177709D01*
X0257595Y0177345D02*
X0253909Y0177345D01*
X0254507Y0176747D02*
X0259040Y0176747D01*
X0255719Y0175100D02*
X0253619Y0173000D01*
X0253557Y0173000D01*
X0253557Y0176000D01*
X0251557Y0178000D01*
X0251557Y0185501D01*
X0256717Y0192291D02*
X0256717Y0192291D01*
X0232912Y0189324D02*
X0232494Y0188906D01*
X0178297Y0188906D01*
X0165588Y0176197D01*
X0165588Y0119000D01*
X0156588Y0110000D01*
X0160942Y0111509D02*
X0170976Y0111509D01*
X0170967Y0111500D02*
X0160946Y0111500D01*
X0160606Y0112321D01*
X0166085Y0117800D01*
X0166788Y0118503D01*
X0166788Y0132603D01*
X0177580Y0121812D01*
X0176888Y0121812D01*
X0176888Y0118646D01*
X0179857Y0118646D01*
X0179857Y0119534D01*
X0181851Y0117540D01*
X0182845Y0117540D01*
X0183208Y0117540D01*
X0183208Y0117285D01*
X0183348Y0117145D01*
X0183309Y0117123D01*
X0183067Y0116881D01*
X0182896Y0116584D01*
X0182808Y0116254D01*
X0182808Y0115241D01*
X0186228Y0115241D01*
X0186228Y0114759D01*
X0182808Y0114759D01*
X0182808Y0113746D01*
X0182896Y0113416D01*
X0183067Y0113119D01*
X0183309Y0112877D01*
X0183348Y0112855D01*
X0183252Y0112760D01*
X0179457Y0112760D01*
X0179457Y0114192D01*
X0178930Y0114719D01*
X0174247Y0114719D01*
X0173720Y0114192D01*
X0173720Y0113154D01*
X0172621Y0113154D01*
X0170967Y0111500D01*
X0171575Y0112108D02*
X0160694Y0112108D01*
X0160992Y0112706D02*
X0172173Y0112706D01*
X0173720Y0113305D02*
X0161590Y0113305D01*
X0162189Y0113903D02*
X0173720Y0113903D01*
X0174030Y0114502D02*
X0162787Y0114502D01*
X0163386Y0115100D02*
X0173892Y0115100D01*
X0173822Y0115141D02*
X0174118Y0114970D01*
X0174449Y0114881D01*
X0176288Y0114881D01*
X0176288Y0118046D01*
X0176888Y0118046D01*
X0176888Y0114881D01*
X0178728Y0114881D01*
X0179059Y0114970D01*
X0179355Y0115141D01*
X0179597Y0115383D01*
X0179768Y0115679D01*
X0179857Y0116010D01*
X0179857Y0118046D01*
X0176888Y0118046D01*
X0176888Y0118646D01*
X0176288Y0118646D01*
X0176288Y0118046D01*
X0173320Y0118046D01*
X0173320Y0116010D01*
X0173409Y0115679D01*
X0173580Y0115383D01*
X0173822Y0115141D01*
X0173403Y0115699D02*
X0163984Y0115699D01*
X0164583Y0116297D02*
X0173320Y0116297D01*
X0173320Y0116896D02*
X0165181Y0116896D01*
X0165780Y0117494D02*
X0173320Y0117494D01*
X0173320Y0118646D02*
X0176288Y0118646D01*
X0176288Y0121812D01*
X0174449Y0121812D01*
X0174118Y0121723D01*
X0173822Y0121552D01*
X0173580Y0121310D01*
X0173409Y0121014D01*
X0173320Y0120683D01*
X0173320Y0118646D01*
X0173320Y0118691D02*
X0166788Y0118691D01*
X0166788Y0119290D02*
X0173320Y0119290D01*
X0173320Y0119888D02*
X0166788Y0119888D01*
X0166788Y0120487D02*
X0173320Y0120487D01*
X0173450Y0121085D02*
X0166788Y0121085D01*
X0166788Y0121684D02*
X0174050Y0121684D01*
X0176288Y0121684D02*
X0176888Y0121684D01*
X0176888Y0121085D02*
X0176288Y0121085D01*
X0176288Y0120487D02*
X0176888Y0120487D01*
X0176888Y0119888D02*
X0176288Y0119888D01*
X0176288Y0119290D02*
X0176888Y0119290D01*
X0176888Y0118691D02*
X0176288Y0118691D01*
X0176288Y0118093D02*
X0166378Y0118093D01*
X0164388Y0119497D02*
X0158909Y0114018D01*
X0157503Y0114600D01*
X0155673Y0114600D01*
X0153983Y0113900D01*
X0152888Y0112805D01*
X0152888Y0117195D01*
X0153983Y0116100D01*
X0155673Y0115400D01*
X0157503Y0115400D01*
X0159194Y0116100D01*
X0160488Y0117394D01*
X0161188Y0119085D01*
X0161188Y0120915D01*
X0160488Y0122606D01*
X0159194Y0123900D01*
X0157503Y0124600D01*
X0155673Y0124600D01*
X0153983Y0123900D01*
X0152888Y0122805D01*
X0152888Y0127195D01*
X0153983Y0126100D01*
X0155673Y0125400D01*
X0157503Y0125400D01*
X0159194Y0126100D01*
X0160488Y0127394D01*
X0161188Y0129085D01*
X0161188Y0130915D01*
X0160488Y0132606D01*
X0159194Y0133900D01*
X0157503Y0134600D01*
X0155673Y0134600D01*
X0153983Y0133900D01*
X0152888Y0132805D01*
X0152888Y0137195D01*
X0153983Y0136100D01*
X0155673Y0135400D01*
X0157503Y0135400D01*
X0159194Y0136100D01*
X0160488Y0137394D01*
X0161188Y0139085D01*
X0161188Y0140915D01*
X0160488Y0142606D01*
X0159194Y0143900D01*
X0157503Y0144600D01*
X0155673Y0144600D01*
X0153983Y0143900D01*
X0152888Y0142805D01*
X0152888Y0147195D01*
X0153983Y0146100D01*
X0155673Y0145400D01*
X0157503Y0145400D01*
X0159194Y0146100D01*
X0160488Y0147394D01*
X0161188Y0149085D01*
X0161188Y0150915D01*
X0160488Y0152606D01*
X0159194Y0153900D01*
X0157503Y0154600D01*
X0155673Y0154600D01*
X0153983Y0153900D01*
X0152888Y0152805D01*
X0152888Y0157195D01*
X0153983Y0156100D01*
X0155673Y0155400D01*
X0157503Y0155400D01*
X0159194Y0156100D01*
X0160488Y0157394D01*
X0161188Y0159085D01*
X0161188Y0160915D01*
X0160488Y0162606D01*
X0159194Y0163900D01*
X0157503Y0164600D01*
X0155673Y0164600D01*
X0153983Y0163900D01*
X0152888Y0162805D01*
X0152888Y0166629D01*
X0153331Y0166186D01*
X0153968Y0165724D01*
X0154669Y0165366D01*
X0155418Y0165123D01*
X0156195Y0165000D01*
X0156288Y0165000D01*
X0156288Y0169700D01*
X0156888Y0169700D01*
X0156888Y0165000D01*
X0156982Y0165000D01*
X0157759Y0165123D01*
X0158508Y0165366D01*
X0159209Y0165724D01*
X0159846Y0166186D01*
X0160402Y0166743D01*
X0160865Y0167379D01*
X0161222Y0168081D01*
X0161465Y0168829D01*
X0161588Y0169606D01*
X0161588Y0169700D01*
X0156888Y0169700D01*
X0156888Y0170300D01*
X0156288Y0170300D01*
X0156288Y0175000D01*
X0156195Y0175000D01*
X0155418Y0174877D01*
X0154669Y0174634D01*
X0153968Y0174276D01*
X0153331Y0173814D01*
X0152888Y0173371D01*
X0152888Y0185000D01*
X0152988Y0186271D01*
X0152988Y0183289D01*
X0154298Y0180128D01*
X0156717Y0177709D01*
X0159878Y0176400D01*
X0163299Y0176400D01*
X0164657Y0176962D01*
X0164388Y0176694D01*
X0164388Y0119497D01*
X0164181Y0119290D02*
X0161188Y0119290D01*
X0161188Y0119888D02*
X0164388Y0119888D01*
X0164388Y0120487D02*
X0161188Y0120487D01*
X0161118Y0121085D02*
X0164388Y0121085D01*
X0164388Y0121684D02*
X0160870Y0121684D01*
X0160622Y0122282D02*
X0164388Y0122282D01*
X0164388Y0122881D02*
X0160213Y0122881D01*
X0159614Y0123479D02*
X0164388Y0123479D01*
X0164388Y0124078D02*
X0158764Y0124078D01*
X0158646Y0125873D02*
X0164388Y0125873D01*
X0164388Y0125275D02*
X0152888Y0125275D01*
X0152888Y0125873D02*
X0154530Y0125873D01*
X0153611Y0126472D02*
X0152888Y0126472D01*
X0152888Y0127070D02*
X0153013Y0127070D01*
X0152888Y0124676D02*
X0164388Y0124676D01*
X0164388Y0126472D02*
X0159566Y0126472D01*
X0160164Y0127070D02*
X0164388Y0127070D01*
X0164388Y0127669D02*
X0160602Y0127669D01*
X0160850Y0128268D02*
X0164388Y0128268D01*
X0164388Y0128866D02*
X0161098Y0128866D01*
X0161188Y0129465D02*
X0164388Y0129465D01*
X0164388Y0130063D02*
X0161188Y0130063D01*
X0161188Y0130662D02*
X0164388Y0130662D01*
X0164388Y0131260D02*
X0161045Y0131260D01*
X0160798Y0131859D02*
X0164388Y0131859D01*
X0164388Y0132457D02*
X0160550Y0132457D01*
X0160038Y0133056D02*
X0164388Y0133056D01*
X0164388Y0133654D02*
X0159440Y0133654D01*
X0158342Y0134253D02*
X0164388Y0134253D01*
X0164388Y0134851D02*
X0152888Y0134851D01*
X0152888Y0134253D02*
X0154835Y0134253D01*
X0153737Y0133654D02*
X0152888Y0133654D01*
X0152888Y0133056D02*
X0153139Y0133056D01*
X0152888Y0135450D02*
X0155554Y0135450D01*
X0154109Y0136048D02*
X0152888Y0136048D01*
X0152888Y0136647D02*
X0153436Y0136647D01*
X0157623Y0135450D02*
X0164388Y0135450D01*
X0164388Y0136048D02*
X0159068Y0136048D01*
X0159740Y0136647D02*
X0164388Y0136647D01*
X0164388Y0137245D02*
X0160339Y0137245D01*
X0160674Y0137844D02*
X0164388Y0137844D01*
X0164388Y0138442D02*
X0160922Y0138442D01*
X0161170Y0139041D02*
X0164388Y0139041D01*
X0164388Y0139639D02*
X0161188Y0139639D01*
X0161188Y0140238D02*
X0164388Y0140238D01*
X0164388Y0140836D02*
X0161188Y0140836D01*
X0160973Y0141435D02*
X0164388Y0141435D01*
X0164388Y0142033D02*
X0160725Y0142033D01*
X0160462Y0142632D02*
X0164388Y0142632D01*
X0164388Y0143230D02*
X0159863Y0143230D01*
X0159265Y0143829D02*
X0164388Y0143829D01*
X0164388Y0144427D02*
X0157920Y0144427D01*
X0158045Y0145624D02*
X0164388Y0145624D01*
X0164388Y0145026D02*
X0152888Y0145026D01*
X0152888Y0145624D02*
X0155132Y0145624D01*
X0155257Y0144427D02*
X0152888Y0144427D01*
X0152888Y0143829D02*
X0153912Y0143829D01*
X0153313Y0143230D02*
X0152888Y0143230D01*
X0152888Y0146223D02*
X0153860Y0146223D01*
X0153262Y0146821D02*
X0152888Y0146821D01*
X0152888Y0152806D02*
X0152890Y0152806D01*
X0152888Y0153405D02*
X0153488Y0153405D01*
X0152888Y0154003D02*
X0154233Y0154003D01*
X0152888Y0154602D02*
X0164388Y0154602D01*
X0164388Y0155201D02*
X0152888Y0155201D01*
X0152888Y0155799D02*
X0154710Y0155799D01*
X0153685Y0156398D02*
X0152888Y0156398D01*
X0152888Y0156996D02*
X0153087Y0156996D01*
X0158467Y0155799D02*
X0164388Y0155799D01*
X0164388Y0156398D02*
X0159491Y0156398D01*
X0160090Y0156996D02*
X0164388Y0156996D01*
X0164388Y0157595D02*
X0160571Y0157595D01*
X0160819Y0158193D02*
X0164388Y0158193D01*
X0164388Y0158792D02*
X0161067Y0158792D01*
X0161188Y0159390D02*
X0164388Y0159390D01*
X0164388Y0159989D02*
X0161188Y0159989D01*
X0161188Y0160587D02*
X0164388Y0160587D01*
X0164388Y0161186D02*
X0161076Y0161186D01*
X0160828Y0161784D02*
X0164388Y0161784D01*
X0164388Y0162383D02*
X0160580Y0162383D01*
X0160113Y0162981D02*
X0164388Y0162981D01*
X0164388Y0163580D02*
X0159514Y0163580D01*
X0158522Y0164178D02*
X0164388Y0164178D01*
X0164388Y0164777D02*
X0152888Y0164777D01*
X0152888Y0165375D02*
X0154652Y0165375D01*
X0153624Y0165974D02*
X0152888Y0165974D01*
X0152888Y0166572D02*
X0152945Y0166572D01*
X0152888Y0164178D02*
X0154655Y0164178D01*
X0153663Y0163580D02*
X0152888Y0163580D01*
X0152888Y0162981D02*
X0153064Y0162981D01*
X0156288Y0165375D02*
X0156888Y0165375D01*
X0156888Y0165974D02*
X0156288Y0165974D01*
X0156288Y0166572D02*
X0156888Y0166572D01*
X0156888Y0167171D02*
X0156288Y0167171D01*
X0156288Y0167769D02*
X0156888Y0167769D01*
X0156888Y0168368D02*
X0156288Y0168368D01*
X0156288Y0168966D02*
X0156888Y0168966D01*
X0156888Y0169565D02*
X0156288Y0169565D01*
X0156888Y0170163D02*
X0164388Y0170163D01*
X0164388Y0169565D02*
X0161582Y0169565D01*
X0161487Y0168966D02*
X0164388Y0168966D01*
X0164388Y0168368D02*
X0161315Y0168368D01*
X0161063Y0167769D02*
X0164388Y0167769D01*
X0164388Y0167171D02*
X0160713Y0167171D01*
X0160232Y0166572D02*
X0164388Y0166572D01*
X0164388Y0165974D02*
X0159553Y0165974D01*
X0158525Y0165375D02*
X0164388Y0165375D01*
X0169288Y0165375D02*
X0171591Y0165375D01*
X0171743Y0164777D02*
X0169288Y0164777D01*
X0169288Y0164178D02*
X0171279Y0164178D01*
X0170998Y0163580D02*
X0169288Y0163580D01*
X0169288Y0162981D02*
X0170852Y0162981D01*
X0170898Y0161784D02*
X0169288Y0161784D01*
X0169288Y0161186D02*
X0171095Y0161186D01*
X0171436Y0160587D02*
X0169288Y0160587D01*
X0169288Y0159989D02*
X0171977Y0159989D01*
X0171922Y0159390D02*
X0169288Y0159390D01*
X0169288Y0158792D02*
X0171519Y0158792D01*
X0171271Y0158193D02*
X0169288Y0158193D01*
X0169288Y0157595D02*
X0171220Y0157595D01*
X0171220Y0156996D02*
X0169288Y0156996D01*
X0169288Y0156398D02*
X0171440Y0156398D01*
X0171733Y0155799D02*
X0169288Y0155799D01*
X0169288Y0155201D02*
X0172247Y0155201D01*
X0171568Y0154602D02*
X0169288Y0154602D01*
X0169288Y0154003D02*
X0171173Y0154003D01*
X0170936Y0153405D02*
X0169288Y0153405D01*
X0169288Y0152806D02*
X0170820Y0152806D01*
X0170820Y0152208D02*
X0169288Y0152208D01*
X0169288Y0151609D02*
X0170933Y0151609D01*
X0171167Y0151011D02*
X0169775Y0151011D01*
X0170373Y0150412D02*
X0171554Y0150412D01*
X0170972Y0149814D02*
X0172225Y0149814D01*
X0171570Y0149215D02*
X0180988Y0149215D01*
X0180988Y0148617D02*
X0172169Y0148617D01*
X0172767Y0148018D02*
X0180910Y0148018D01*
X0181088Y0146500D02*
X0183088Y0148500D01*
X0185188Y0148617D02*
X0185319Y0148617D01*
X0185319Y0149215D02*
X0185188Y0149215D01*
X0185319Y0149814D02*
X0184744Y0149814D01*
X0185319Y0150412D02*
X0184146Y0150412D01*
X0185319Y0151011D02*
X0181576Y0151011D01*
X0181824Y0151609D02*
X0185319Y0151609D01*
X0185319Y0152208D02*
X0181957Y0152208D01*
X0181957Y0152806D02*
X0185319Y0152806D01*
X0185319Y0153405D02*
X0181818Y0153405D01*
X0181570Y0154003D02*
X0185319Y0154003D01*
X0185319Y0154602D02*
X0181043Y0154602D01*
X0180846Y0155201D02*
X0185248Y0155201D01*
X0185319Y0155130D02*
X0185319Y0135427D01*
X0181991Y0132100D01*
X0180719Y0132100D01*
X0179488Y0130870D01*
X0179488Y0129130D01*
X0180719Y0127900D01*
X0182458Y0127900D01*
X0183688Y0129130D01*
X0183688Y0130403D01*
X0187719Y0134433D01*
X0187719Y0155130D01*
X0188619Y0156030D01*
X0188619Y0157770D01*
X0187388Y0159000D01*
X0185649Y0159000D01*
X0184419Y0157770D01*
X0184419Y0156030D01*
X0185319Y0155130D01*
X0184650Y0155799D02*
X0181444Y0155799D01*
X0181737Y0156398D02*
X0184419Y0156398D01*
X0184419Y0156996D02*
X0181957Y0156996D01*
X0181957Y0157595D02*
X0184419Y0157595D01*
X0184842Y0158193D02*
X0181906Y0158193D01*
X0181658Y0158792D02*
X0185440Y0158792D01*
X0187597Y0158792D02*
X0198600Y0158792D01*
X0198001Y0159390D02*
X0181255Y0159390D01*
X0180576Y0159989D02*
X0197403Y0159989D01*
X0196804Y0160587D02*
X0181232Y0160587D01*
X0181649Y0161186D02*
X0196206Y0161186D01*
X0196588Y0162500D02*
X0204188Y0154900D01*
X0208958Y0154900D01*
X0210058Y0156000D01*
X0211588Y0156000D01*
X0213160Y0154602D02*
X0213388Y0154602D01*
X0213388Y0154003D02*
X0212562Y0154003D01*
X0213388Y0153405D02*
X0187719Y0153405D01*
X0187719Y0154003D02*
X0203388Y0154003D01*
X0202789Y0154602D02*
X0187719Y0154602D01*
X0187789Y0155201D02*
X0202191Y0155201D01*
X0201592Y0155799D02*
X0188387Y0155799D01*
X0188619Y0156398D02*
X0200994Y0156398D01*
X0200395Y0156996D02*
X0188619Y0156996D01*
X0188619Y0157595D02*
X0199797Y0157595D01*
X0199198Y0158193D02*
X0188195Y0158193D01*
X0186519Y0156900D02*
X0186519Y0134930D01*
X0181588Y0130000D01*
X0179488Y0130063D02*
X0174722Y0130063D01*
X0174124Y0130662D02*
X0179488Y0130662D01*
X0179879Y0131260D02*
X0173525Y0131260D01*
X0172927Y0131859D02*
X0180477Y0131859D01*
X0182348Y0132457D02*
X0172328Y0132457D01*
X0171730Y0133056D02*
X0182947Y0133056D01*
X0183545Y0133654D02*
X0171131Y0133654D01*
X0170533Y0134253D02*
X0184144Y0134253D01*
X0184742Y0134851D02*
X0170288Y0134851D01*
X0170288Y0135450D02*
X0185319Y0135450D01*
X0185319Y0136048D02*
X0170288Y0136048D01*
X0170288Y0136647D02*
X0185319Y0136647D01*
X0185319Y0137245D02*
X0170288Y0137245D01*
X0170288Y0137844D02*
X0185319Y0137844D01*
X0185319Y0138442D02*
X0170288Y0138442D01*
X0170288Y0139041D02*
X0185319Y0139041D01*
X0185319Y0139639D02*
X0170288Y0139639D01*
X0170288Y0140238D02*
X0185319Y0140238D01*
X0185319Y0140836D02*
X0170288Y0140836D01*
X0170288Y0141435D02*
X0185319Y0141435D01*
X0185319Y0142033D02*
X0170288Y0142033D01*
X0170288Y0142632D02*
X0185319Y0142632D01*
X0185319Y0143230D02*
X0170288Y0143230D01*
X0170288Y0143829D02*
X0185319Y0143829D01*
X0185319Y0144427D02*
X0170288Y0144427D01*
X0170584Y0145026D02*
X0185319Y0145026D01*
X0185319Y0145624D02*
X0181910Y0145624D01*
X0182508Y0146223D02*
X0185319Y0146223D01*
X0185319Y0146821D02*
X0184380Y0146821D01*
X0184978Y0147420D02*
X0185319Y0147420D01*
X0185319Y0148018D02*
X0185188Y0148018D01*
X0187719Y0148018D02*
X0213388Y0148018D01*
X0213388Y0147420D02*
X0187719Y0147420D01*
X0187719Y0146821D02*
X0213388Y0146821D01*
X0213388Y0146223D02*
X0187719Y0146223D01*
X0187719Y0145624D02*
X0213016Y0145624D01*
X0212417Y0145026D02*
X0187719Y0145026D01*
X0187719Y0144427D02*
X0211819Y0144427D01*
X0211220Y0143829D02*
X0187719Y0143829D01*
X0187719Y0143230D02*
X0197622Y0143230D01*
X0197023Y0142632D02*
X0187719Y0142632D01*
X0187719Y0142033D02*
X0196425Y0142033D01*
X0195826Y0141435D02*
X0187719Y0141435D01*
X0187719Y0140836D02*
X0195228Y0140836D01*
X0194629Y0140238D02*
X0187719Y0140238D01*
X0187719Y0139639D02*
X0194031Y0139639D01*
X0193432Y0139041D02*
X0187719Y0139041D01*
X0187719Y0138442D02*
X0192834Y0138442D01*
X0192235Y0137844D02*
X0187719Y0137844D01*
X0187719Y0137245D02*
X0191637Y0137245D01*
X0189765Y0136647D02*
X0187719Y0136647D01*
X0187719Y0136048D02*
X0189167Y0136048D01*
X0188988Y0135450D02*
X0187719Y0135450D01*
X0187719Y0134851D02*
X0188988Y0134851D01*
X0188988Y0134253D02*
X0187538Y0134253D01*
X0186940Y0133654D02*
X0189464Y0133654D01*
X0190063Y0133056D02*
X0186341Y0133056D01*
X0185743Y0132457D02*
X0192445Y0132457D01*
X0192114Y0133056D02*
X0193043Y0133056D01*
X0192712Y0133654D02*
X0223488Y0133654D01*
X0223488Y0133056D02*
X0195133Y0133056D01*
X0195732Y0132457D02*
X0223488Y0132457D01*
X0223488Y0131859D02*
X0196188Y0131859D01*
X0196188Y0131260D02*
X0223488Y0131260D01*
X0223488Y0130662D02*
X0210397Y0130662D01*
X0209088Y0129000D02*
X0209088Y0124469D01*
X0211588Y0121969D01*
X0207888Y0124078D02*
X0197003Y0124078D01*
X0197003Y0124676D02*
X0207888Y0124676D01*
X0207888Y0125275D02*
X0197003Y0125275D01*
X0197003Y0125873D02*
X0207888Y0125873D01*
X0207888Y0126472D02*
X0192459Y0126472D01*
X0191859Y0126472D02*
X0184757Y0126472D01*
X0184159Y0125873D02*
X0187316Y0125873D01*
X0187316Y0125275D02*
X0183560Y0125275D01*
X0182588Y0126000D02*
X0177088Y0126000D01*
X0169088Y0134000D01*
X0169088Y0146500D01*
X0171183Y0145624D02*
X0171767Y0145624D01*
X0172588Y0146500D02*
X0168088Y0151000D01*
X0168088Y0174500D01*
X0180094Y0186506D01*
X0183088Y0184000D02*
X0186588Y0184000D01*
X0183088Y0184000D02*
X0181957Y0182869D01*
X0181957Y0171312D01*
X0179088Y0168443D01*
X0179088Y0167500D01*
X0183588Y0168000D02*
X0183588Y0168306D01*
X0190382Y0175100D01*
X0202958Y0175100D01*
X0203190Y0174869D01*
X0206088Y0174869D01*
X0208588Y0176000D02*
X0208588Y0173126D01*
X0208129Y0172666D01*
X0208588Y0176000D02*
X0205288Y0179300D01*
X0205288Y0183872D01*
X0206721Y0185306D01*
X0210980Y0185306D01*
X0212880Y0183406D01*
X0219077Y0183406D01*
X0226398Y0176085D01*
X0232588Y0176085D01*
X0231351Y0174353D02*
X0228130Y0174353D01*
X0227598Y0174885D02*
X0229485Y0172997D01*
X0230188Y0172294D01*
X0230188Y0164597D01*
X0233288Y0161497D01*
X0233288Y0161270D01*
X0234188Y0160370D01*
X0234188Y0158630D01*
X0232958Y0157400D01*
X0231219Y0157400D01*
X0229988Y0158630D01*
X0229988Y0160370D01*
X0230505Y0160886D01*
X0228491Y0162900D01*
X0228488Y0162903D01*
X0228488Y0144097D01*
X0230488Y0146097D01*
X0230488Y0147370D01*
X0231719Y0148600D01*
X0233458Y0148600D01*
X0234688Y0147370D01*
X0234688Y0146327D01*
X0235388Y0147027D01*
X0235388Y0158873D01*
X0235370Y0158891D01*
X0234667Y0159594D01*
X0234667Y0175194D01*
X0233458Y0173985D01*
X0231719Y0173985D01*
X0230819Y0174885D01*
X0227598Y0174885D01*
X0228728Y0173754D02*
X0234667Y0173754D01*
X0234667Y0173156D02*
X0229327Y0173156D01*
X0229925Y0172557D02*
X0234667Y0172557D01*
X0234667Y0171959D02*
X0230188Y0171959D01*
X0230188Y0171360D02*
X0234667Y0171360D01*
X0234667Y0170762D02*
X0230188Y0170762D01*
X0230188Y0170163D02*
X0234667Y0170163D01*
X0234667Y0169565D02*
X0230188Y0169565D01*
X0230188Y0168966D02*
X0234667Y0168966D01*
X0234667Y0168368D02*
X0230188Y0168368D01*
X0230188Y0167769D02*
X0234667Y0167769D01*
X0234667Y0167171D02*
X0230188Y0167171D01*
X0230188Y0166572D02*
X0234667Y0166572D01*
X0234667Y0165974D02*
X0230188Y0165974D01*
X0230188Y0165375D02*
X0234667Y0165375D01*
X0234667Y0164777D02*
X0230188Y0164777D01*
X0230607Y0164178D02*
X0234667Y0164178D01*
X0234667Y0163580D02*
X0231206Y0163580D01*
X0231804Y0162981D02*
X0234667Y0162981D01*
X0234667Y0162383D02*
X0232403Y0162383D01*
X0233001Y0161784D02*
X0234667Y0161784D01*
X0234667Y0161186D02*
X0233373Y0161186D01*
X0233971Y0160587D02*
X0234667Y0160587D01*
X0234667Y0159989D02*
X0234188Y0159989D01*
X0234188Y0159390D02*
X0234871Y0159390D01*
X0235388Y0158792D02*
X0234188Y0158792D01*
X0233751Y0158193D02*
X0235388Y0158193D01*
X0235388Y0157595D02*
X0233153Y0157595D01*
X0231024Y0157595D02*
X0228488Y0157595D01*
X0228488Y0158193D02*
X0230425Y0158193D01*
X0229988Y0158792D02*
X0228488Y0158792D01*
X0228488Y0159390D02*
X0229988Y0159390D01*
X0229988Y0159989D02*
X0228488Y0159989D01*
X0228488Y0160587D02*
X0230206Y0160587D01*
X0230206Y0161186D02*
X0228488Y0161186D01*
X0228488Y0161784D02*
X0229607Y0161784D01*
X0229009Y0162383D02*
X0228488Y0162383D01*
X0228988Y0164100D02*
X0232088Y0161000D01*
X0232088Y0159500D01*
X0235867Y0160091D02*
X0235867Y0176279D01*
X0228146Y0184000D01*
X0222588Y0184000D01*
X0218580Y0182206D02*
X0212383Y0182206D01*
X0210483Y0184106D01*
X0207219Y0184106D01*
X0206488Y0183375D01*
X0206488Y0179797D01*
X0212588Y0173697D01*
X0212588Y0172000D01*
X0210624Y0170035D01*
X0210624Y0167126D01*
X0206293Y0167913D02*
X0206293Y0159705D01*
X0205588Y0159000D01*
X0207688Y0158792D02*
X0208213Y0158792D01*
X0207688Y0159390D02*
X0223488Y0159390D01*
X0223488Y0158792D02*
X0214494Y0158792D01*
X0215092Y0158193D02*
X0223488Y0158193D01*
X0223488Y0157595D02*
X0215691Y0157595D01*
X0215788Y0156996D02*
X0223488Y0156996D01*
X0223488Y0156398D02*
X0215788Y0156398D01*
X0215788Y0155799D02*
X0223488Y0155799D01*
X0223488Y0155201D02*
X0215788Y0155201D01*
X0215788Y0154602D02*
X0223488Y0154602D01*
X0223488Y0154003D02*
X0215788Y0154003D01*
X0215788Y0153405D02*
X0223488Y0153405D01*
X0223488Y0152806D02*
X0215788Y0152806D01*
X0215788Y0152208D02*
X0223488Y0152208D01*
X0223488Y0151609D02*
X0215788Y0151609D01*
X0215788Y0151011D02*
X0223488Y0151011D01*
X0223488Y0150412D02*
X0215788Y0150412D01*
X0215788Y0149814D02*
X0223488Y0149814D01*
X0223488Y0149215D02*
X0215788Y0149215D01*
X0215788Y0148617D02*
X0223488Y0148617D01*
X0223488Y0148018D02*
X0215788Y0148018D01*
X0215788Y0147420D02*
X0223488Y0147420D01*
X0223488Y0146821D02*
X0215788Y0146821D01*
X0215788Y0146223D02*
X0223488Y0146223D01*
X0223488Y0145624D02*
X0215788Y0145624D01*
X0215788Y0145026D02*
X0223488Y0145026D01*
X0223488Y0144427D02*
X0215213Y0144427D01*
X0214614Y0143829D02*
X0223488Y0143829D01*
X0223488Y0143230D02*
X0214016Y0143230D01*
X0213417Y0142632D02*
X0223488Y0142632D01*
X0223488Y0142033D02*
X0212819Y0142033D01*
X0212220Y0141435D02*
X0223488Y0141435D01*
X0223488Y0140836D02*
X0198622Y0140836D01*
X0198023Y0140238D02*
X0223488Y0140238D01*
X0223488Y0139639D02*
X0197425Y0139639D01*
X0196826Y0139041D02*
X0223488Y0139041D01*
X0223488Y0138442D02*
X0196228Y0138442D01*
X0195629Y0137844D02*
X0223488Y0137844D01*
X0223488Y0137245D02*
X0195031Y0137245D01*
X0194432Y0136647D02*
X0223488Y0136647D01*
X0223488Y0136048D02*
X0193834Y0136048D01*
X0193235Y0135450D02*
X0223488Y0135450D01*
X0223488Y0134851D02*
X0193188Y0134851D01*
X0193188Y0134253D02*
X0223488Y0134253D01*
X0223488Y0130063D02*
X0221995Y0130063D01*
X0222594Y0129465D02*
X0223488Y0129465D01*
X0223488Y0128866D02*
X0222688Y0128866D01*
X0222688Y0128268D02*
X0223488Y0128268D01*
X0223488Y0127669D02*
X0222688Y0127669D01*
X0222129Y0127070D02*
X0223488Y0127070D01*
X0223488Y0126472D02*
X0221788Y0126472D01*
X0221788Y0125873D02*
X0223488Y0125873D01*
X0223488Y0125275D02*
X0221788Y0125275D01*
X0221788Y0124676D02*
X0223488Y0124676D01*
X0223488Y0124078D02*
X0221788Y0124078D01*
X0221788Y0123479D02*
X0223488Y0123479D01*
X0223488Y0122881D02*
X0221788Y0122881D01*
X0221973Y0122282D02*
X0223488Y0122282D01*
X0223488Y0121684D02*
X0222571Y0121684D01*
X0222888Y0121085D02*
X0223488Y0121085D01*
X0223488Y0120487D02*
X0222888Y0120487D01*
X0222888Y0119888D02*
X0223488Y0119888D01*
X0223488Y0119290D02*
X0222888Y0119290D01*
X0222888Y0118691D02*
X0223483Y0118691D01*
X0222884Y0118093D02*
X0222681Y0118093D01*
X0221688Y0118797D02*
X0221688Y0120870D01*
X0220588Y0121970D01*
X0220588Y0128500D01*
X0219182Y0130063D02*
X0218684Y0130063D01*
X0207780Y0130662D02*
X0196188Y0130662D01*
X0196781Y0130063D02*
X0207182Y0130063D01*
X0206988Y0129465D02*
X0197003Y0129465D01*
X0197003Y0128866D02*
X0206988Y0128866D01*
X0206988Y0128268D02*
X0197003Y0128268D01*
X0197003Y0127669D02*
X0207450Y0127669D01*
X0207888Y0127070D02*
X0197003Y0127070D01*
X0196957Y0123479D02*
X0199507Y0123479D01*
X0199507Y0122881D02*
X0196603Y0122881D01*
X0189503Y0122282D02*
X0180503Y0122282D01*
X0179905Y0122881D02*
X0187715Y0122881D01*
X0187361Y0123479D02*
X0179306Y0123479D01*
X0178708Y0124078D02*
X0187316Y0124078D01*
X0187316Y0124676D02*
X0178109Y0124676D01*
X0176510Y0122881D02*
X0166788Y0122881D01*
X0166788Y0123479D02*
X0175912Y0123479D01*
X0175313Y0124078D02*
X0166788Y0124078D01*
X0166788Y0124676D02*
X0174715Y0124676D01*
X0174116Y0125275D02*
X0166788Y0125275D01*
X0166788Y0125873D02*
X0173518Y0125873D01*
X0172919Y0126472D02*
X0166788Y0126472D01*
X0166788Y0127070D02*
X0172321Y0127070D01*
X0171722Y0127669D02*
X0166788Y0127669D01*
X0166788Y0128268D02*
X0171124Y0128268D01*
X0170525Y0128866D02*
X0166788Y0128866D01*
X0166788Y0129465D02*
X0169927Y0129465D01*
X0169328Y0130063D02*
X0166788Y0130063D01*
X0166788Y0130662D02*
X0168730Y0130662D01*
X0168131Y0131260D02*
X0166788Y0131260D01*
X0166788Y0131859D02*
X0167533Y0131859D01*
X0166934Y0132457D02*
X0166788Y0132457D01*
X0175321Y0129465D02*
X0179488Y0129465D01*
X0179753Y0128866D02*
X0175919Y0128866D01*
X0176518Y0128268D02*
X0180351Y0128268D01*
X0182560Y0127669D02*
X0177116Y0127669D01*
X0182588Y0126000D02*
X0187719Y0131131D01*
X0194088Y0131131D01*
X0191088Y0135000D02*
X0198588Y0142500D01*
X0211588Y0142500D01*
X0214588Y0145500D01*
X0214588Y0157000D01*
X0213488Y0158100D01*
X0209219Y0158100D01*
X0208019Y0156900D01*
X0204188Y0156900D01*
X0202462Y0158626D01*
X0202462Y0166626D01*
X0201962Y0167126D01*
X0201962Y0172626D01*
X0201588Y0173000D01*
X0199488Y0173156D02*
X0191824Y0173156D01*
X0192231Y0172749D02*
X0191080Y0173900D01*
X0199519Y0173900D01*
X0199488Y0173870D01*
X0199488Y0172136D01*
X0199378Y0172166D01*
X0197932Y0172166D01*
X0197932Y0168213D01*
X0197332Y0168213D01*
X0197332Y0172166D01*
X0195886Y0172166D01*
X0195555Y0172078D01*
X0195259Y0171906D01*
X0195017Y0171664D01*
X0194846Y0171368D01*
X0194757Y0171037D01*
X0194757Y0170979D01*
X0194501Y0170979D01*
X0194501Y0171284D01*
X0194038Y0171747D01*
X0193335Y0172450D01*
X0192231Y0172450D01*
X0192231Y0172749D01*
X0192231Y0172557D02*
X0199488Y0172557D01*
X0199488Y0173754D02*
X0191225Y0173754D01*
X0190131Y0171879D02*
X0190760Y0171250D01*
X0192838Y0171250D01*
X0193301Y0170787D01*
X0193301Y0167126D01*
X0197332Y0167171D02*
X0197932Y0167171D01*
X0197932Y0167613D02*
X0197932Y0163661D01*
X0199378Y0163661D01*
X0199575Y0163713D01*
X0200015Y0163273D01*
X0201262Y0163273D01*
X0201262Y0159523D01*
X0197125Y0163661D01*
X0197332Y0163661D01*
X0197332Y0167613D01*
X0197932Y0167613D01*
X0197932Y0168368D02*
X0197332Y0168368D01*
X0197332Y0168966D02*
X0197932Y0168966D01*
X0197932Y0169565D02*
X0197332Y0169565D01*
X0197332Y0170163D02*
X0197932Y0170163D01*
X0197932Y0170762D02*
X0197332Y0170762D01*
X0197332Y0171360D02*
X0197932Y0171360D01*
X0197932Y0171959D02*
X0197332Y0171959D01*
X0195350Y0171959D02*
X0193827Y0171959D01*
X0194425Y0171360D02*
X0194843Y0171360D01*
X0197332Y0166572D02*
X0197932Y0166572D01*
X0197932Y0165974D02*
X0197332Y0165974D01*
X0197332Y0165375D02*
X0197932Y0165375D01*
X0197932Y0164777D02*
X0197332Y0164777D01*
X0197332Y0164178D02*
X0197932Y0164178D01*
X0197206Y0163580D02*
X0199708Y0163580D01*
X0201262Y0162981D02*
X0197804Y0162981D01*
X0198403Y0162383D02*
X0201262Y0162383D01*
X0201262Y0161784D02*
X0199001Y0161784D01*
X0199600Y0161186D02*
X0201262Y0161186D01*
X0201262Y0160587D02*
X0200198Y0160587D01*
X0200797Y0159989D02*
X0201262Y0159989D01*
X0196588Y0162500D02*
X0179088Y0162500D01*
X0174288Y0162700D02*
X0174288Y0165768D01*
X0174288Y0167300D01*
X0173888Y0167300D01*
X0173888Y0162700D01*
X0174288Y0162700D01*
X0174288Y0162981D02*
X0173888Y0162981D01*
X0173888Y0162383D02*
X0169288Y0162383D01*
X0173888Y0163580D02*
X0174288Y0163580D01*
X0174288Y0164178D02*
X0173888Y0164178D01*
X0173888Y0164777D02*
X0174288Y0164777D01*
X0174288Y0165375D02*
X0173888Y0165375D01*
X0173888Y0165974D02*
X0174288Y0165974D01*
X0174288Y0166572D02*
X0173888Y0166572D01*
X0173888Y0167171D02*
X0174288Y0167171D01*
X0171183Y0165974D02*
X0169288Y0165974D01*
X0169288Y0166572D02*
X0170940Y0166572D01*
X0170821Y0167171D02*
X0169288Y0167171D01*
X0169288Y0167769D02*
X0170820Y0167769D01*
X0170928Y0168368D02*
X0169288Y0168368D01*
X0169288Y0168966D02*
X0171158Y0168966D01*
X0171537Y0169565D02*
X0169288Y0169565D01*
X0169288Y0170163D02*
X0172191Y0170163D01*
X0171770Y0170762D02*
X0169288Y0170762D01*
X0169288Y0171360D02*
X0171456Y0171360D01*
X0171220Y0171959D02*
X0169288Y0171959D01*
X0169288Y0172557D02*
X0171220Y0172557D01*
X0171255Y0173156D02*
X0169288Y0173156D01*
X0169288Y0173754D02*
X0171503Y0173754D01*
X0171885Y0174353D02*
X0169638Y0174353D01*
X0170237Y0174951D02*
X0172511Y0174951D01*
X0171434Y0176148D02*
X0180757Y0176148D01*
X0180757Y0175550D02*
X0170835Y0175550D01*
X0172032Y0176747D02*
X0180757Y0176747D01*
X0180757Y0177345D02*
X0172631Y0177345D01*
X0173229Y0177944D02*
X0180757Y0177944D01*
X0180757Y0178542D02*
X0173828Y0178542D01*
X0174426Y0179141D02*
X0180757Y0179141D01*
X0180757Y0179739D02*
X0175025Y0179739D01*
X0175623Y0180338D02*
X0180757Y0180338D01*
X0180666Y0174951D02*
X0180757Y0174951D01*
X0177511Y0174951D02*
X0175666Y0174951D01*
X0176292Y0174353D02*
X0176885Y0174353D01*
X0164388Y0174353D02*
X0159059Y0174353D01*
X0159209Y0174276D02*
X0158508Y0174634D01*
X0157759Y0174877D01*
X0156982Y0175000D01*
X0156888Y0175000D01*
X0156888Y0170300D01*
X0161588Y0170300D01*
X0161588Y0170394D01*
X0161465Y0171171D01*
X0161222Y0171919D01*
X0160865Y0172621D01*
X0160402Y0173257D01*
X0159846Y0173814D01*
X0159209Y0174276D01*
X0159905Y0173754D02*
X0164388Y0173754D01*
X0164388Y0173156D02*
X0160476Y0173156D01*
X0160897Y0172557D02*
X0164388Y0172557D01*
X0164388Y0171959D02*
X0161202Y0171959D01*
X0161404Y0171360D02*
X0164388Y0171360D01*
X0164388Y0170762D02*
X0161530Y0170762D01*
X0156888Y0170762D02*
X0156288Y0170762D01*
X0156288Y0171360D02*
X0156888Y0171360D01*
X0156888Y0171959D02*
X0156288Y0171959D01*
X0156288Y0172557D02*
X0156888Y0172557D01*
X0156888Y0173156D02*
X0156288Y0173156D01*
X0156288Y0173754D02*
X0156888Y0173754D01*
X0156888Y0174353D02*
X0156288Y0174353D01*
X0156288Y0174951D02*
X0156888Y0174951D01*
X0157289Y0174951D02*
X0164388Y0174951D01*
X0164388Y0175550D02*
X0152888Y0175550D01*
X0152888Y0176148D02*
X0164388Y0176148D01*
X0164441Y0176747D02*
X0164137Y0176747D01*
X0159040Y0176747D02*
X0152888Y0176747D01*
X0152888Y0177345D02*
X0157595Y0177345D01*
X0156717Y0177709D02*
X0156717Y0177709D01*
X0156482Y0177944D02*
X0152888Y0177944D01*
X0152888Y0178542D02*
X0155884Y0178542D01*
X0155285Y0179141D02*
X0152888Y0179141D01*
X0152888Y0179739D02*
X0154687Y0179739D01*
X0154298Y0180128D02*
X0154298Y0180128D01*
X0154211Y0180338D02*
X0152888Y0180338D01*
X0152888Y0180937D02*
X0153963Y0180937D01*
X0153715Y0181535D02*
X0152888Y0181535D01*
X0152888Y0182134D02*
X0153467Y0182134D01*
X0153219Y0182732D02*
X0152888Y0182732D01*
X0152888Y0183331D02*
X0152988Y0183331D01*
X0152988Y0183929D02*
X0152888Y0183929D01*
X0152888Y0184528D02*
X0152988Y0184528D01*
X0152988Y0185126D02*
X0152898Y0185126D01*
X0152945Y0185725D02*
X0152988Y0185725D01*
X0166418Y0192308D02*
X0169840Y0192308D01*
X0169241Y0191710D02*
X0167041Y0191710D01*
X0166460Y0192291D02*
X0166460Y0192291D01*
X0167639Y0191111D02*
X0168944Y0191111D01*
X0168720Y0190513D02*
X0168238Y0190513D01*
X0174233Y0191111D02*
X0175003Y0191111D01*
X0155888Y0174951D02*
X0152888Y0174951D01*
X0152888Y0174353D02*
X0154118Y0174353D01*
X0153272Y0173754D02*
X0152888Y0173754D01*
X0158943Y0154003D02*
X0164388Y0154003D01*
X0164388Y0153405D02*
X0159689Y0153405D01*
X0160287Y0152806D02*
X0164388Y0152806D01*
X0164388Y0152208D02*
X0160653Y0152208D01*
X0160901Y0151609D02*
X0164388Y0151609D01*
X0164388Y0151011D02*
X0161149Y0151011D01*
X0161188Y0150412D02*
X0164388Y0150412D01*
X0164388Y0149814D02*
X0161188Y0149814D01*
X0161188Y0149215D02*
X0164388Y0149215D01*
X0164388Y0148617D02*
X0160995Y0148617D01*
X0160747Y0148018D02*
X0164388Y0148018D01*
X0164388Y0147420D02*
X0160499Y0147420D01*
X0159915Y0146821D02*
X0164388Y0146821D01*
X0164388Y0146223D02*
X0159317Y0146223D01*
X0172588Y0146500D02*
X0181088Y0146500D01*
X0187719Y0148617D02*
X0213388Y0148617D01*
X0213388Y0149215D02*
X0187719Y0149215D01*
X0187719Y0149814D02*
X0213388Y0149814D01*
X0213388Y0150412D02*
X0187719Y0150412D01*
X0187719Y0151011D02*
X0213388Y0151011D01*
X0213388Y0151609D02*
X0187719Y0151609D01*
X0187719Y0152208D02*
X0213388Y0152208D01*
X0213388Y0152806D02*
X0187719Y0152806D01*
X0182031Y0150412D02*
X0181058Y0150412D01*
X0181432Y0149814D02*
X0180099Y0149814D01*
X0178077Y0149814D02*
X0175952Y0149814D01*
X0176623Y0150412D02*
X0177119Y0150412D01*
X0174288Y0150412D02*
X0173888Y0150412D01*
X0173888Y0149814D02*
X0174288Y0149814D01*
X0174288Y0151011D02*
X0173888Y0151011D01*
X0173888Y0151609D02*
X0174288Y0151609D01*
X0174288Y0152208D02*
X0173888Y0152208D01*
X0207570Y0159989D02*
X0223488Y0159989D01*
X0223488Y0160587D02*
X0207493Y0160587D01*
X0207493Y0161186D02*
X0223488Y0161186D01*
X0223488Y0161784D02*
X0216988Y0161784D01*
X0217429Y0162383D02*
X0223488Y0162383D01*
X0223488Y0162981D02*
X0217429Y0162981D01*
X0214955Y0165551D02*
X0214955Y0178439D01*
X0214588Y0178806D01*
X0218083Y0181006D02*
X0209588Y0181006D01*
X0208588Y0182006D01*
X0218083Y0181006D02*
X0227288Y0171800D01*
X0227288Y0118300D01*
X0230588Y0115000D01*
X0232588Y0115000D01*
X0234688Y0115100D02*
X0238988Y0115100D01*
X0238988Y0114502D02*
X0234688Y0114502D01*
X0234688Y0114130D02*
X0234688Y0115870D01*
X0234375Y0116183D01*
X0234670Y0116478D01*
X0234670Y0119585D01*
X0234255Y0120000D01*
X0234670Y0120415D01*
X0234670Y0123522D01*
X0234142Y0124050D01*
X0234108Y0124050D01*
X0234188Y0124130D01*
X0234188Y0125400D01*
X0234958Y0125400D01*
X0235588Y0126030D01*
X0235888Y0125730D01*
X0235888Y0120034D01*
X0236591Y0119331D01*
X0238388Y0117534D01*
X0239091Y0116831D01*
X0239507Y0116831D01*
X0239507Y0116478D01*
X0239552Y0116433D01*
X0238988Y0115870D01*
X0238988Y0114130D01*
X0240219Y0112900D01*
X0240888Y0112900D01*
X0240888Y0109503D01*
X0241488Y0108903D01*
X0241488Y0107630D01*
X0242719Y0106400D01*
X0244182Y0106400D01*
X0244196Y0106349D01*
X0244367Y0106052D01*
X0244609Y0105810D01*
X0244906Y0105639D01*
X0245236Y0105550D01*
X0246298Y0105550D01*
X0246298Y0107741D01*
X0246879Y0107741D01*
X0246879Y0108322D01*
X0249070Y0108322D01*
X0249070Y0109384D01*
X0248981Y0109714D01*
X0255388Y0109714D01*
X0255388Y0110312D02*
X0248567Y0110312D01*
X0248530Y0110275D02*
X0248670Y0110415D01*
X0248670Y0111359D01*
X0251004Y0111359D01*
X0251491Y0110872D01*
X0255190Y0110872D01*
X0255388Y0111071D01*
X0255388Y0108929D01*
X0255190Y0109128D01*
X0251491Y0109128D01*
X0250964Y0108601D01*
X0250964Y0106281D01*
X0251491Y0105754D01*
X0255190Y0105754D01*
X0255388Y0105952D01*
X0255388Y0093870D01*
X0246788Y0085270D01*
X0246788Y0091984D01*
X0246971Y0091800D01*
X0248026Y0091364D01*
X0249167Y0091364D01*
X0250221Y0091800D01*
X0251028Y0092607D01*
X0251465Y0093662D01*
X0251465Y0099134D01*
X0251028Y0100188D01*
X0250221Y0100995D01*
X0249167Y0101431D01*
X0248026Y0101431D01*
X0246971Y0100995D01*
X0246788Y0100812D01*
X0246788Y0101497D01*
X0244054Y0104231D01*
X0238670Y0104231D01*
X0238670Y0104585D01*
X0238255Y0105000D01*
X0238670Y0105415D01*
X0238670Y0108522D01*
X0238142Y0109050D01*
X0237236Y0109050D01*
X0233385Y0112900D01*
X0233458Y0112900D01*
X0234688Y0114130D01*
X0234461Y0113903D02*
X0239215Y0113903D01*
X0239814Y0113305D02*
X0233863Y0113305D01*
X0233579Y0112706D02*
X0240888Y0112706D01*
X0240888Y0112108D02*
X0234178Y0112108D01*
X0234776Y0111509D02*
X0240888Y0111509D01*
X0240888Y0110911D02*
X0235375Y0110911D01*
X0235973Y0110312D02*
X0240888Y0110312D01*
X0240888Y0109714D02*
X0236572Y0109714D01*
X0237170Y0109115D02*
X0241276Y0109115D01*
X0241488Y0108517D02*
X0238670Y0108517D01*
X0238670Y0107918D02*
X0241488Y0107918D01*
X0241799Y0107320D02*
X0238670Y0107320D01*
X0238670Y0106721D02*
X0242397Y0106721D01*
X0244326Y0106123D02*
X0238670Y0106123D01*
X0238670Y0105524D02*
X0255388Y0105524D01*
X0255388Y0104926D02*
X0238329Y0104926D01*
X0238670Y0104327D02*
X0255388Y0104327D01*
X0255388Y0103729D02*
X0244557Y0103729D01*
X0245155Y0103130D02*
X0255388Y0103130D01*
X0255388Y0102532D02*
X0245754Y0102532D01*
X0246352Y0101933D02*
X0255388Y0101933D01*
X0255388Y0101334D02*
X0249401Y0101334D01*
X0250480Y0100736D02*
X0255388Y0100736D01*
X0255388Y0100137D02*
X0251049Y0100137D01*
X0251297Y0099539D02*
X0255388Y0099539D01*
X0255388Y0098940D02*
X0251465Y0098940D01*
X0251465Y0098342D02*
X0255388Y0098342D01*
X0255388Y0097743D02*
X0251465Y0097743D01*
X0251465Y0097145D02*
X0255388Y0097145D01*
X0255388Y0096546D02*
X0251465Y0096546D01*
X0251465Y0095948D02*
X0255388Y0095948D01*
X0255388Y0095349D02*
X0251465Y0095349D01*
X0251465Y0094751D02*
X0255388Y0094751D01*
X0255388Y0094152D02*
X0251465Y0094152D01*
X0251420Y0093554D02*
X0255072Y0093554D01*
X0254474Y0092955D02*
X0251172Y0092955D01*
X0250777Y0092357D02*
X0253875Y0092357D01*
X0253277Y0091758D02*
X0250119Y0091758D01*
X0251481Y0089963D02*
X0246788Y0089963D01*
X0246788Y0090561D02*
X0252080Y0090561D01*
X0252678Y0091160D02*
X0246788Y0091160D01*
X0246788Y0091758D02*
X0247073Y0091758D01*
X0246788Y0089364D02*
X0250883Y0089364D01*
X0250284Y0088766D02*
X0246788Y0088766D01*
X0246788Y0088167D02*
X0249686Y0088167D01*
X0249087Y0087569D02*
X0246788Y0087569D01*
X0246788Y0086970D02*
X0248489Y0086970D01*
X0247890Y0086372D02*
X0246788Y0086372D01*
X0246788Y0085773D02*
X0247292Y0085773D01*
X0245588Y0084500D02*
X0244120Y0083031D01*
X0240447Y0083031D01*
X0240447Y0085000D02*
X0237178Y0085000D01*
X0240447Y0085000D01*
X0243715Y0085000D01*
X0243715Y0085762D01*
X0243627Y0086092D01*
X0243455Y0086389D01*
X0243315Y0086529D01*
X0243315Y0087932D01*
X0243294Y0087953D01*
X0243315Y0087974D01*
X0243315Y0089900D01*
X0242788Y0090428D01*
X0238105Y0090428D01*
X0237815Y0090137D01*
X0236688Y0090137D01*
X0236688Y0090370D01*
X0235458Y0091600D01*
X0233719Y0091600D01*
X0232488Y0090370D01*
X0232488Y0089570D01*
X0232458Y0089600D01*
X0230719Y0089600D01*
X0229488Y0088370D01*
X0229488Y0086630D01*
X0230719Y0085400D01*
X0232458Y0085400D01*
X0232827Y0085769D01*
X0237180Y0085769D01*
X0237178Y0085762D01*
X0237178Y0085000D01*
X0237178Y0084238D01*
X0237267Y0083908D01*
X0237438Y0083611D01*
X0237578Y0083471D01*
X0237578Y0082068D01*
X0237599Y0082047D01*
X0237578Y0082026D01*
X0237578Y0080100D01*
X0237905Y0079772D01*
X0225271Y0079772D01*
X0225599Y0080100D01*
X0225599Y0081831D01*
X0226617Y0081831D01*
X0228239Y0083454D01*
X0228942Y0084156D01*
X0228942Y0092131D01*
X0231280Y0092131D01*
X0231807Y0092659D01*
X0231807Y0097341D01*
X0231280Y0097868D01*
X0226204Y0097868D01*
X0226070Y0097734D01*
X0226070Y0098321D01*
X0225981Y0098651D01*
X0225810Y0098948D01*
X0225568Y0099190D01*
X0225271Y0099361D01*
X0224941Y0099450D01*
X0223879Y0099450D01*
X0223879Y0097259D01*
X0223298Y0097259D01*
X0223298Y0099450D01*
X0222236Y0099450D01*
X0221906Y0099361D01*
X0221609Y0099190D01*
X0221367Y0098948D01*
X0221196Y0098651D01*
X0221107Y0098321D01*
X0221107Y0097259D01*
X0223298Y0097259D01*
X0223298Y0096678D01*
X0221107Y0096678D01*
X0221107Y0096491D01*
X0219308Y0096491D01*
X0218649Y0095832D01*
X0218649Y0100636D01*
X0217946Y0101339D01*
X0215288Y0103997D01*
X0215288Y0106973D01*
X0219716Y0111400D01*
X0224119Y0111400D01*
X0224888Y0110630D01*
X0224888Y0108903D01*
X0224507Y0108522D01*
X0224507Y0105415D01*
X0224922Y0105000D01*
X0224507Y0104585D01*
X0224507Y0104231D01*
X0223670Y0104231D01*
X0223670Y0104585D01*
X0223530Y0104725D01*
X0223568Y0104747D01*
X0223810Y0104989D01*
X0223981Y0105286D01*
X0224070Y0105616D01*
X0224070Y0106678D01*
X0221879Y0106678D01*
X0221879Y0107259D01*
X0224070Y0107259D01*
X0224070Y0108321D01*
X0223981Y0108651D01*
X0223810Y0108948D01*
X0223568Y0109190D01*
X0223271Y0109361D01*
X0222941Y0109450D01*
X0221879Y0109450D01*
X0221879Y0107259D01*
X0221298Y0107259D01*
X0221298Y0109450D01*
X0220236Y0109450D01*
X0219906Y0109361D01*
X0219609Y0109190D01*
X0219367Y0108948D01*
X0219196Y0108651D01*
X0219107Y0108321D01*
X0219107Y0107259D01*
X0221298Y0107259D01*
X0221298Y0106678D01*
X0219107Y0106678D01*
X0219107Y0105616D01*
X0219196Y0105286D01*
X0219367Y0104989D01*
X0219609Y0104747D01*
X0219647Y0104725D01*
X0219507Y0104585D01*
X0219507Y0101478D01*
X0220035Y0100950D01*
X0223142Y0100950D01*
X0223670Y0101478D01*
X0223670Y0101831D01*
X0224507Y0101831D01*
X0224507Y0101478D01*
X0225035Y0100950D01*
X0228142Y0100950D01*
X0228670Y0101478D01*
X0228670Y0102353D01*
X0229507Y0103190D01*
X0229507Y0101478D01*
X0230035Y0100950D01*
X0233142Y0100950D01*
X0233670Y0101478D01*
X0233670Y0101831D01*
X0234507Y0101831D01*
X0234507Y0101478D01*
X0235035Y0100950D01*
X0238142Y0100950D01*
X0238670Y0101478D01*
X0238670Y0101831D01*
X0243060Y0101831D01*
X0244388Y0100503D01*
X0244388Y0095971D01*
X0243869Y0096491D01*
X0242064Y0096491D01*
X0240787Y0095214D01*
X0240787Y0093408D01*
X0242064Y0092131D01*
X0243869Y0092131D01*
X0244388Y0092651D01*
X0244388Y0084997D01*
X0243715Y0084324D01*
X0243715Y0085000D01*
X0240447Y0085000D01*
X0240447Y0085000D01*
X0240447Y0085000D01*
X0240447Y0086969D02*
X0232120Y0086969D01*
X0231588Y0087500D01*
X0229488Y0087569D02*
X0228942Y0087569D01*
X0228942Y0088167D02*
X0229488Y0088167D01*
X0229884Y0088766D02*
X0228942Y0088766D01*
X0228942Y0089364D02*
X0230483Y0089364D01*
X0228942Y0089963D02*
X0232488Y0089963D01*
X0232680Y0090561D02*
X0228942Y0090561D01*
X0228942Y0091160D02*
X0233278Y0091160D01*
X0233098Y0091731D02*
X0235135Y0091731D01*
X0235135Y0094700D01*
X0235735Y0094700D01*
X0235735Y0095300D01*
X0238900Y0095300D01*
X0238900Y0097140D01*
X0238812Y0097470D01*
X0238640Y0097767D01*
X0238398Y0098009D01*
X0238102Y0098180D01*
X0237771Y0098268D01*
X0235735Y0098268D01*
X0235735Y0095300D01*
X0235135Y0095300D01*
X0235135Y0098268D01*
X0233098Y0098268D01*
X0232768Y0098180D01*
X0232471Y0098009D01*
X0232229Y0097767D01*
X0232058Y0097470D01*
X0231970Y0097140D01*
X0231970Y0095300D01*
X0235135Y0095300D01*
X0235135Y0094700D01*
X0231970Y0094700D01*
X0231970Y0092860D01*
X0232058Y0092530D01*
X0232229Y0092233D01*
X0232471Y0091991D01*
X0232768Y0091820D01*
X0233098Y0091731D01*
X0232998Y0091758D02*
X0228942Y0091758D01*
X0226773Y0093031D02*
X0228742Y0095000D01*
X0227742Y0094000D01*
X0227742Y0089000D01*
X0222793Y0089000D01*
X0222730Y0088937D01*
X0222730Y0086969D02*
X0216817Y0086969D01*
X0210788Y0092997D01*
X0210788Y0106200D01*
X0220088Y0115500D01*
X0221988Y0115500D01*
X0224688Y0118200D01*
X0224688Y0167900D01*
X0217088Y0175500D01*
X0220088Y0175906D02*
X0226088Y0169906D01*
X0226088Y0117803D01*
X0230391Y0113500D01*
X0231088Y0113500D01*
X0236588Y0108000D01*
X0236588Y0106969D01*
X0242088Y0110000D02*
X0243588Y0108500D01*
X0242088Y0110000D02*
X0242088Y0114000D01*
X0241088Y0115000D01*
X0239416Y0116297D02*
X0234489Y0116297D01*
X0234670Y0116896D02*
X0239027Y0116896D01*
X0238429Y0117494D02*
X0234670Y0117494D01*
X0234670Y0118093D02*
X0237830Y0118093D01*
X0237232Y0118691D02*
X0234670Y0118691D01*
X0234670Y0119290D02*
X0236633Y0119290D01*
X0236034Y0119888D02*
X0234367Y0119888D01*
X0234670Y0120487D02*
X0235888Y0120487D01*
X0235888Y0121085D02*
X0234670Y0121085D01*
X0234670Y0121684D02*
X0235888Y0121684D01*
X0235888Y0122282D02*
X0234670Y0122282D01*
X0234670Y0122881D02*
X0235888Y0122881D01*
X0235888Y0123479D02*
X0234670Y0123479D01*
X0234136Y0124078D02*
X0235888Y0124078D01*
X0235888Y0124676D02*
X0234188Y0124676D01*
X0234188Y0125275D02*
X0235888Y0125275D01*
X0235745Y0125873D02*
X0235432Y0125873D01*
X0234088Y0127500D02*
X0230788Y0130800D01*
X0230788Y0141100D01*
X0233088Y0143400D01*
X0233458Y0143400D01*
X0236588Y0146530D01*
X0236588Y0159370D01*
X0235867Y0160091D01*
X0238839Y0157500D02*
X0246088Y0157500D01*
X0248088Y0156500D02*
X0246588Y0155000D01*
X0246588Y0154500D01*
X0246588Y0146969D01*
X0239087Y0146969D01*
X0234488Y0142370D01*
X0234488Y0137070D01*
X0238688Y0132870D01*
X0238688Y0131900D01*
X0240588Y0130000D01*
X0244620Y0130000D01*
X0244620Y0124331D01*
X0244620Y0113937D01*
X0246588Y0111969D01*
X0247179Y0112559D01*
X0253340Y0112559D01*
X0253340Y0120252D01*
X0254620Y0121531D01*
X0254620Y0124331D01*
X0254620Y0130000D01*
X0254603Y0130016D01*
X0254603Y0133015D01*
X0252651Y0134063D02*
X0248588Y0130000D01*
X0248557Y0130000D01*
X0248557Y0124331D01*
X0251588Y0121500D02*
X0251588Y0129530D01*
X0251538Y0129581D01*
X0248407Y0133000D02*
X0241588Y0133000D01*
X0239871Y0134253D02*
X0239003Y0134253D01*
X0239488Y0133870D02*
X0240719Y0135100D01*
X0242458Y0135100D01*
X0243358Y0134200D01*
X0246807Y0134200D01*
X0246807Y0134370D01*
X0248037Y0135600D01*
X0249777Y0135600D01*
X0251007Y0134370D01*
X0251007Y0134116D01*
X0251451Y0134560D01*
X0251451Y0137329D01*
X0251240Y0137541D01*
X0251240Y0139651D01*
X0249129Y0139651D01*
X0248602Y0140178D01*
X0248602Y0140844D01*
X0248568Y0140810D01*
X0248271Y0140639D01*
X0247941Y0140550D01*
X0246879Y0140550D01*
X0246879Y0142741D01*
X0246298Y0142741D01*
X0246298Y0140550D01*
X0245236Y0140550D01*
X0244906Y0140639D01*
X0244609Y0140810D01*
X0244367Y0141052D01*
X0244196Y0141349D01*
X0244107Y0141679D01*
X0244107Y0142741D01*
X0246298Y0142741D01*
X0246298Y0143322D01*
X0244107Y0143322D01*
X0244107Y0144384D01*
X0244196Y0144714D01*
X0244367Y0145011D01*
X0244609Y0145253D01*
X0244647Y0145275D01*
X0244507Y0145415D01*
X0244507Y0145769D01*
X0239584Y0145769D01*
X0235688Y0141873D01*
X0235688Y0137567D01*
X0239488Y0133767D01*
X0239488Y0133870D01*
X0240470Y0134851D02*
X0238404Y0134851D01*
X0237806Y0135450D02*
X0247887Y0135450D01*
X0247289Y0134851D02*
X0242707Y0134851D01*
X0243306Y0134253D02*
X0246807Y0134253D01*
X0248407Y0133000D02*
X0248907Y0133500D01*
X0250526Y0134851D02*
X0251451Y0134851D01*
X0251451Y0135450D02*
X0249927Y0135450D01*
X0251007Y0134253D02*
X0251144Y0134253D01*
X0252651Y0134063D02*
X0252651Y0138888D01*
X0251240Y0139041D02*
X0235688Y0139041D01*
X0235688Y0139639D02*
X0251240Y0139639D01*
X0251240Y0138442D02*
X0235688Y0138442D01*
X0235688Y0137844D02*
X0251240Y0137844D01*
X0251451Y0137245D02*
X0236010Y0137245D01*
X0236609Y0136647D02*
X0251451Y0136647D01*
X0251451Y0136048D02*
X0237207Y0136048D01*
X0235609Y0134253D02*
X0231988Y0134253D01*
X0231988Y0134851D02*
X0235010Y0134851D01*
X0234412Y0135450D02*
X0231988Y0135450D01*
X0231988Y0136048D02*
X0233813Y0136048D01*
X0233991Y0135870D02*
X0237488Y0132373D01*
X0237488Y0131403D01*
X0240091Y0128800D01*
X0240669Y0128800D01*
X0239739Y0127870D01*
X0239739Y0126130D01*
X0240388Y0125481D01*
X0240388Y0124050D01*
X0240035Y0124050D01*
X0239507Y0123522D01*
X0239507Y0120415D01*
X0239922Y0120000D01*
X0239619Y0119698D01*
X0238288Y0121029D01*
X0238288Y0125730D01*
X0239188Y0126630D01*
X0239188Y0128370D01*
X0237958Y0129600D01*
X0236219Y0129600D01*
X0235588Y0128970D01*
X0234958Y0129600D01*
X0233685Y0129600D01*
X0231988Y0131297D01*
X0231988Y0140603D01*
X0233288Y0141903D01*
X0233288Y0136573D01*
X0233991Y0135870D01*
X0233288Y0136647D02*
X0231988Y0136647D01*
X0231988Y0137245D02*
X0233288Y0137245D01*
X0233288Y0137844D02*
X0231988Y0137844D01*
X0231988Y0138442D02*
X0233288Y0138442D01*
X0233288Y0139041D02*
X0231988Y0139041D01*
X0231988Y0139639D02*
X0233288Y0139639D01*
X0233288Y0140238D02*
X0231988Y0140238D01*
X0232222Y0140836D02*
X0233288Y0140836D01*
X0233288Y0141435D02*
X0232820Y0141435D01*
X0235688Y0141435D02*
X0244173Y0141435D01*
X0244107Y0142033D02*
X0235849Y0142033D01*
X0236447Y0142632D02*
X0244107Y0142632D01*
X0244107Y0143829D02*
X0237644Y0143829D01*
X0237046Y0143230D02*
X0246298Y0143230D01*
X0246298Y0142632D02*
X0246879Y0142632D01*
X0246879Y0142033D02*
X0246298Y0142033D01*
X0246298Y0141435D02*
X0246879Y0141435D01*
X0246879Y0140836D02*
X0246298Y0140836D01*
X0244583Y0140836D02*
X0235688Y0140836D01*
X0235688Y0140238D02*
X0248602Y0140238D01*
X0248594Y0140836D02*
X0248602Y0140836D01*
X0252769Y0141181D02*
X0252769Y0141359D01*
X0252769Y0141930D01*
X0252764Y0141935D01*
X0252764Y0143348D01*
X0252764Y0148065D01*
X0252769Y0148070D01*
X0252769Y0148819D01*
X0253518Y0148819D01*
X0253523Y0148824D01*
X0259653Y0148824D01*
X0259658Y0148819D01*
X0260132Y0148819D01*
X0260229Y0148819D01*
X0260408Y0148819D01*
X0260408Y0148070D01*
X0260413Y0148065D01*
X0260413Y0141935D01*
X0260408Y0141930D01*
X0260408Y0141181D01*
X0260376Y0141181D01*
X0260241Y0141316D01*
X0259945Y0141487D01*
X0259614Y0141576D01*
X0258951Y0141576D01*
X0258951Y0139095D01*
X0258951Y0139095D01*
X0258951Y0141576D01*
X0258287Y0141576D01*
X0257957Y0141487D01*
X0257660Y0141316D01*
X0257520Y0141176D01*
X0253523Y0141176D01*
X0253518Y0141181D01*
X0252769Y0141181D01*
X0252769Y0141359D02*
X0252769Y0141359D01*
X0252769Y0141435D02*
X0257866Y0141435D01*
X0258951Y0141435D02*
X0258951Y0141435D01*
X0258951Y0141638D02*
X0258088Y0142500D01*
X0259525Y0141063D01*
X0262701Y0141063D01*
X0262764Y0141000D01*
X0265588Y0141000D01*
X0264975Y0141063D02*
X0264436Y0141063D01*
X0264975Y0141063D01*
X0264975Y0140836D02*
X0270288Y0140836D01*
X0270288Y0140238D02*
X0264932Y0140238D01*
X0264582Y0139639D02*
X0270288Y0139639D01*
X0270288Y0139041D02*
X0266018Y0139041D01*
X0266616Y0138442D02*
X0270288Y0138442D01*
X0270288Y0137844D02*
X0267188Y0137844D01*
X0267188Y0137245D02*
X0270288Y0137245D01*
X0270288Y0136647D02*
X0267607Y0136647D01*
X0268206Y0136048D02*
X0270288Y0136048D01*
X0270288Y0135450D02*
X0268804Y0135450D01*
X0269403Y0134851D02*
X0270288Y0134851D01*
X0270288Y0134253D02*
X0269757Y0134253D01*
X0269757Y0133654D02*
X0270288Y0133654D01*
X0270288Y0133056D02*
X0269757Y0133056D01*
X0269757Y0132457D02*
X0270288Y0132457D01*
X0268557Y0134000D02*
X0268557Y0130000D01*
X0268557Y0120669D01*
X0266588Y0118500D02*
X0266578Y0118490D01*
X0263342Y0118490D01*
X0260831Y0121000D01*
X0260588Y0121000D01*
X0264620Y0120669D02*
X0264620Y0130000D01*
X0264620Y0134469D01*
X0263088Y0136000D01*
X0256588Y0136000D01*
X0255801Y0136787D01*
X0255801Y0139094D01*
X0254226Y0139094D02*
X0254226Y0136362D01*
X0258557Y0132031D01*
X0258557Y0130000D01*
X0258557Y0124331D01*
X0256588Y0119803D02*
X0256588Y0093373D01*
X0241788Y0078572D01*
X0221016Y0078572D01*
X0217449Y0082139D01*
X0217449Y0082442D01*
X0207888Y0092003D01*
X0207888Y0101447D01*
X0202588Y0106747D01*
X0202588Y0109100D01*
X0200488Y0109115D02*
X0194645Y0109115D01*
X0194645Y0109277D02*
X0199442Y0109277D01*
X0199969Y0109804D01*
X0199969Y0110154D01*
X0200672Y0110154D01*
X0200488Y0109970D01*
X0200488Y0108230D01*
X0201388Y0107330D01*
X0201388Y0106250D01*
X0206688Y0100950D01*
X0206688Y0091506D01*
X0214204Y0083991D01*
X0214010Y0083991D01*
X0212956Y0083554D01*
X0212149Y0082747D01*
X0211712Y0081693D01*
X0211712Y0078189D01*
X0212149Y0077135D01*
X0212956Y0076328D01*
X0213023Y0076300D01*
X0199959Y0076300D01*
X0200402Y0076743D01*
X0200865Y0077379D01*
X0201222Y0078081D01*
X0201465Y0078829D01*
X0201588Y0079606D01*
X0201588Y0079700D01*
X0196888Y0079700D01*
X0196888Y0080300D01*
X0196288Y0080300D01*
X0196288Y0079700D01*
X0191588Y0079700D01*
X0191588Y0079606D01*
X0191712Y0078829D01*
X0191955Y0078081D01*
X0192312Y0077379D01*
X0192775Y0076743D01*
X0193217Y0076300D01*
X0189394Y0076300D01*
X0190488Y0077394D01*
X0192305Y0077394D01*
X0192000Y0077993D02*
X0190736Y0077993D01*
X0190984Y0078591D02*
X0191789Y0078591D01*
X0191654Y0079190D02*
X0191188Y0079190D01*
X0191188Y0079085D02*
X0191188Y0080915D01*
X0190488Y0082606D01*
X0189348Y0083746D01*
X0189348Y0087919D01*
X0191174Y0087919D01*
X0191314Y0088059D01*
X0191336Y0088021D01*
X0191578Y0087779D01*
X0191874Y0087607D01*
X0192205Y0087519D01*
X0193266Y0087519D01*
X0193266Y0089709D01*
X0193847Y0089709D01*
X0193847Y0087519D01*
X0194909Y0087519D01*
X0195240Y0087607D01*
X0195536Y0087779D01*
X0195778Y0088021D01*
X0195949Y0088317D01*
X0196038Y0088648D01*
X0196038Y0089709D01*
X0193848Y0089709D01*
X0193848Y0090291D01*
X0196038Y0090291D01*
X0196038Y0091352D01*
X0195966Y0091619D01*
X0196784Y0091619D01*
X0197311Y0092146D01*
X0197311Y0097616D01*
X0196784Y0098144D01*
X0196529Y0098144D01*
X0196529Y0099757D01*
X0194546Y0101740D01*
X0194546Y0101856D01*
X0196784Y0101856D01*
X0197311Y0102384D01*
X0197311Y0103919D01*
X0199903Y0103919D01*
X0199507Y0103522D01*
X0199507Y0100415D01*
X0199647Y0100275D01*
X0199609Y0100253D01*
X0199367Y0100011D01*
X0199196Y0099714D01*
X0199107Y0099384D01*
X0199107Y0098322D01*
X0201298Y0098322D01*
X0201298Y0097741D01*
X0201879Y0097741D01*
X0201879Y0098322D01*
X0204070Y0098322D01*
X0204070Y0099384D01*
X0203981Y0099714D01*
X0203810Y0100011D01*
X0203568Y0100253D01*
X0203530Y0100275D01*
X0203670Y0100415D01*
X0203670Y0103522D01*
X0203142Y0104050D01*
X0202788Y0104050D01*
X0202788Y0104497D01*
X0200967Y0106318D01*
X0197311Y0106318D01*
X0197311Y0107853D01*
X0196784Y0108381D01*
X0194645Y0108381D01*
X0194645Y0109277D01*
X0194645Y0108517D02*
X0200488Y0108517D01*
X0200800Y0107918D02*
X0197247Y0107918D01*
X0197311Y0107320D02*
X0201388Y0107320D01*
X0201388Y0106721D02*
X0197311Y0106721D01*
X0195329Y0105119D02*
X0200470Y0105119D01*
X0201588Y0104000D01*
X0201588Y0101969D01*
X0199507Y0101933D02*
X0196861Y0101933D01*
X0197311Y0102532D02*
X0199507Y0102532D01*
X0199507Y0103130D02*
X0197311Y0103130D01*
X0197311Y0103729D02*
X0199713Y0103729D01*
X0199507Y0101334D02*
X0194951Y0101334D01*
X0195549Y0100736D02*
X0199507Y0100736D01*
X0199494Y0100137D02*
X0196148Y0100137D01*
X0196529Y0099539D02*
X0199149Y0099539D01*
X0199107Y0098940D02*
X0196529Y0098940D01*
X0196529Y0098342D02*
X0199107Y0098342D01*
X0199107Y0097741D02*
X0199107Y0096679D01*
X0199196Y0096349D01*
X0199367Y0096052D01*
X0199609Y0095810D01*
X0199906Y0095639D01*
X0200236Y0095550D01*
X0201298Y0095550D01*
X0201298Y0097741D01*
X0199107Y0097741D01*
X0199107Y0097145D02*
X0197311Y0097145D01*
X0197311Y0096546D02*
X0199143Y0096546D01*
X0199471Y0095948D02*
X0197311Y0095948D01*
X0197311Y0095349D02*
X0206688Y0095349D01*
X0206688Y0094751D02*
X0197311Y0094751D01*
X0197311Y0094152D02*
X0206688Y0094152D01*
X0206688Y0093554D02*
X0197311Y0093554D01*
X0197311Y0092955D02*
X0206688Y0092955D01*
X0206688Y0092357D02*
X0197311Y0092357D01*
X0196923Y0091758D02*
X0206688Y0091758D01*
X0207034Y0091160D02*
X0196038Y0091160D01*
X0196038Y0090561D02*
X0207633Y0090561D01*
X0208231Y0089963D02*
X0193848Y0089963D01*
X0193847Y0089364D02*
X0193266Y0089364D01*
X0193266Y0088766D02*
X0193847Y0088766D01*
X0193847Y0088167D02*
X0193266Y0088167D01*
X0193266Y0087569D02*
X0193847Y0087569D01*
X0195095Y0087569D02*
X0210626Y0087569D01*
X0211224Y0086970D02*
X0189348Y0086970D01*
X0189348Y0086372D02*
X0211823Y0086372D01*
X0212421Y0085773D02*
X0189348Y0085773D01*
X0189348Y0085175D02*
X0213020Y0085175D01*
X0213618Y0084576D02*
X0198621Y0084576D01*
X0198508Y0084634D02*
X0197759Y0084877D01*
X0196982Y0085000D01*
X0196888Y0085000D01*
X0196888Y0080300D01*
X0201588Y0080300D01*
X0201588Y0080394D01*
X0201465Y0081171D01*
X0201222Y0081919D01*
X0200865Y0082621D01*
X0200402Y0083257D01*
X0199846Y0083814D01*
X0199209Y0084276D01*
X0198508Y0084634D01*
X0199620Y0083978D02*
X0213979Y0083978D01*
X0212781Y0083379D02*
X0200280Y0083379D01*
X0200748Y0082781D02*
X0212182Y0082781D01*
X0211915Y0082182D02*
X0201088Y0082182D01*
X0201331Y0081584D02*
X0211712Y0081584D01*
X0211712Y0080985D02*
X0201495Y0080985D01*
X0201588Y0080387D02*
X0211712Y0080387D01*
X0211712Y0079788D02*
X0196888Y0079788D01*
X0196888Y0080387D02*
X0196288Y0080387D01*
X0196288Y0080300D02*
X0196288Y0085000D01*
X0196195Y0085000D01*
X0195418Y0084877D01*
X0194669Y0084634D01*
X0193968Y0084276D01*
X0193331Y0083814D01*
X0192775Y0083257D01*
X0192312Y0082621D01*
X0191955Y0081919D01*
X0191712Y0081171D01*
X0191588Y0080394D01*
X0191588Y0080300D01*
X0196288Y0080300D01*
X0196288Y0079788D02*
X0191188Y0079788D01*
X0191188Y0080387D02*
X0191588Y0080387D01*
X0191682Y0080985D02*
X0191159Y0080985D01*
X0190911Y0081584D02*
X0191846Y0081584D01*
X0192089Y0082182D02*
X0190664Y0082182D01*
X0190313Y0082781D02*
X0192428Y0082781D01*
X0192897Y0083379D02*
X0189715Y0083379D01*
X0189348Y0083978D02*
X0193557Y0083978D01*
X0194556Y0084576D02*
X0189348Y0084576D01*
X0196288Y0084576D02*
X0196888Y0084576D01*
X0196888Y0083978D02*
X0196288Y0083978D01*
X0196288Y0083379D02*
X0196888Y0083379D01*
X0196888Y0082781D02*
X0196288Y0082781D01*
X0196288Y0082182D02*
X0196888Y0082182D01*
X0196888Y0081584D02*
X0196288Y0081584D01*
X0196288Y0080985D02*
X0196888Y0080985D01*
X0201522Y0079190D02*
X0211712Y0079190D01*
X0211712Y0078591D02*
X0201388Y0078591D01*
X0201177Y0077993D02*
X0211794Y0077993D01*
X0212041Y0077394D02*
X0200872Y0077394D01*
X0200441Y0076796D02*
X0212488Y0076796D01*
X0217088Y0085000D02*
X0209588Y0092500D01*
X0209588Y0106697D01*
X0221688Y0118797D01*
X0219588Y0120000D02*
X0217620Y0121969D01*
X0216588Y0121969D01*
X0216588Y0118031D02*
X0211588Y0118031D01*
X0211588Y0112000D01*
X0210388Y0113903D02*
X0209457Y0113903D01*
X0209147Y0114502D02*
X0210388Y0114502D01*
X0210388Y0115100D02*
X0209285Y0115100D01*
X0209774Y0115699D02*
X0210388Y0115699D01*
X0206935Y0112000D02*
X0206588Y0111654D01*
X0200488Y0109714D02*
X0199878Y0109714D01*
X0197101Y0111654D02*
X0196707Y0111260D01*
X0186228Y0115100D02*
X0179285Y0115100D01*
X0179147Y0114502D02*
X0182808Y0114502D01*
X0182808Y0113903D02*
X0179457Y0113903D01*
X0179457Y0113305D02*
X0182960Y0113305D01*
X0182808Y0115699D02*
X0179774Y0115699D01*
X0179857Y0116297D02*
X0182819Y0116297D01*
X0183082Y0116896D02*
X0179857Y0116896D01*
X0179857Y0117494D02*
X0183208Y0117494D01*
X0181299Y0118093D02*
X0176888Y0118093D01*
X0176888Y0117494D02*
X0176288Y0117494D01*
X0176288Y0116896D02*
X0176888Y0116896D01*
X0176888Y0116297D02*
X0176288Y0116297D01*
X0176288Y0115699D02*
X0176888Y0115699D01*
X0176888Y0115100D02*
X0176288Y0115100D01*
X0179857Y0118691D02*
X0180700Y0118691D01*
X0180102Y0119290D02*
X0179857Y0119290D01*
X0182299Y0120487D02*
X0183499Y0120487D01*
X0177109Y0122282D02*
X0166788Y0122282D01*
X0163583Y0118691D02*
X0161025Y0118691D01*
X0160777Y0118093D02*
X0162984Y0118093D01*
X0162386Y0117494D02*
X0160530Y0117494D01*
X0159990Y0116896D02*
X0161787Y0116896D01*
X0161189Y0116297D02*
X0159391Y0116297D01*
X0158225Y0115699D02*
X0160590Y0115699D01*
X0159992Y0115100D02*
X0152888Y0115100D01*
X0152888Y0114502D02*
X0155436Y0114502D01*
X0154952Y0115699D02*
X0152888Y0115699D01*
X0152888Y0116297D02*
X0153786Y0116297D01*
X0153187Y0116896D02*
X0152888Y0116896D01*
X0152888Y0113903D02*
X0153991Y0113903D01*
X0153388Y0113305D02*
X0152888Y0113305D01*
X0157741Y0114502D02*
X0159393Y0114502D01*
X0152964Y0122881D02*
X0152888Y0122881D01*
X0152888Y0123479D02*
X0153562Y0123479D01*
X0152888Y0124078D02*
X0154413Y0124078D01*
X0176588Y0111654D02*
X0176982Y0111260D01*
X0187257Y0104528D02*
X0187848Y0105119D01*
X0190080Y0103729D02*
X0192146Y0103729D01*
X0192146Y0104327D02*
X0190678Y0104327D01*
X0191277Y0104926D02*
X0192146Y0104926D01*
X0192146Y0105524D02*
X0191875Y0105524D01*
X0192146Y0103130D02*
X0189831Y0103130D01*
X0189831Y0102532D02*
X0192146Y0102532D01*
X0192146Y0101933D02*
X0189380Y0101933D01*
X0189348Y0098342D02*
X0189808Y0098342D01*
X0197184Y0097743D02*
X0201298Y0097743D01*
X0201879Y0097741D02*
X0201879Y0095550D01*
X0202941Y0095550D01*
X0203271Y0095639D01*
X0203568Y0095810D01*
X0203810Y0096052D01*
X0203981Y0096349D01*
X0204070Y0096679D01*
X0204070Y0097741D01*
X0201879Y0097741D01*
X0201879Y0097743D02*
X0206688Y0097743D01*
X0206688Y0097145D02*
X0204070Y0097145D01*
X0204034Y0096546D02*
X0206688Y0096546D01*
X0206688Y0095948D02*
X0203705Y0095948D01*
X0201879Y0095948D02*
X0201298Y0095948D01*
X0201298Y0096546D02*
X0201879Y0096546D01*
X0201879Y0097145D02*
X0201298Y0097145D01*
X0204070Y0098342D02*
X0206688Y0098342D01*
X0206688Y0098940D02*
X0204070Y0098940D01*
X0204028Y0099539D02*
X0206688Y0099539D01*
X0206688Y0100137D02*
X0203683Y0100137D01*
X0203670Y0100736D02*
X0206688Y0100736D01*
X0206304Y0101334D02*
X0203670Y0101334D01*
X0203670Y0101933D02*
X0205705Y0101933D01*
X0205107Y0102532D02*
X0203670Y0102532D01*
X0203670Y0103130D02*
X0204508Y0103130D01*
X0203910Y0103729D02*
X0203463Y0103729D01*
X0203311Y0104327D02*
X0202788Y0104327D01*
X0202713Y0104926D02*
X0202360Y0104926D01*
X0202114Y0105524D02*
X0201761Y0105524D01*
X0201516Y0106123D02*
X0201163Y0106123D01*
X0214088Y0107470D02*
X0214088Y0103500D01*
X0217449Y0100139D01*
X0217449Y0093990D01*
X0219308Y0092131D01*
X0221113Y0092131D01*
X0222013Y0093031D01*
X0223588Y0093031D01*
X0226773Y0093031D01*
X0231505Y0092357D02*
X0232158Y0092357D01*
X0231970Y0092955D02*
X0231807Y0092955D01*
X0231807Y0093554D02*
X0231970Y0093554D01*
X0231970Y0094152D02*
X0231807Y0094152D01*
X0231807Y0094751D02*
X0235135Y0094751D01*
X0235135Y0095349D02*
X0235735Y0095349D01*
X0235735Y0094751D02*
X0240787Y0094751D01*
X0240787Y0094152D02*
X0238900Y0094152D01*
X0238900Y0094700D02*
X0235735Y0094700D01*
X0235735Y0091731D01*
X0237771Y0091731D01*
X0238102Y0091820D01*
X0238398Y0091991D01*
X0238640Y0092233D01*
X0238812Y0092530D01*
X0238900Y0092860D01*
X0238900Y0094700D01*
X0238900Y0095349D02*
X0240922Y0095349D01*
X0241521Y0095948D02*
X0238900Y0095948D01*
X0238900Y0096546D02*
X0244388Y0096546D01*
X0244388Y0097145D02*
X0238899Y0097145D01*
X0238654Y0097743D02*
X0244388Y0097743D01*
X0244388Y0098342D02*
X0226064Y0098342D01*
X0226070Y0097743D02*
X0226079Y0097743D01*
X0225814Y0098940D02*
X0244388Y0098940D01*
X0244388Y0099539D02*
X0218649Y0099539D01*
X0218649Y0100137D02*
X0244388Y0100137D01*
X0244155Y0100736D02*
X0218549Y0100736D01*
X0217951Y0101334D02*
X0219650Y0101334D01*
X0219507Y0101933D02*
X0217352Y0101933D01*
X0216754Y0102532D02*
X0219507Y0102532D01*
X0219507Y0103130D02*
X0216155Y0103130D01*
X0215557Y0103729D02*
X0219507Y0103729D01*
X0219507Y0104327D02*
X0215288Y0104327D01*
X0215288Y0104926D02*
X0219431Y0104926D01*
X0219132Y0105524D02*
X0215288Y0105524D01*
X0215288Y0106123D02*
X0219107Y0106123D01*
X0219107Y0107320D02*
X0215635Y0107320D01*
X0215288Y0106721D02*
X0221298Y0106721D01*
X0221879Y0106721D02*
X0224507Y0106721D01*
X0224507Y0106123D02*
X0224070Y0106123D01*
X0224045Y0105524D02*
X0224507Y0105524D01*
X0224848Y0104926D02*
X0223746Y0104926D01*
X0223670Y0104327D02*
X0224507Y0104327D01*
X0226588Y0103031D02*
X0221588Y0103031D01*
X0223526Y0101334D02*
X0224650Y0101334D01*
X0223879Y0098940D02*
X0223298Y0098940D01*
X0223298Y0098342D02*
X0223879Y0098342D01*
X0223879Y0097743D02*
X0223298Y0097743D01*
X0223298Y0097145D02*
X0218649Y0097145D01*
X0218649Y0097743D02*
X0221107Y0097743D01*
X0221113Y0098342D02*
X0218649Y0098342D01*
X0218649Y0098940D02*
X0221363Y0098940D01*
X0221107Y0096546D02*
X0218649Y0096546D01*
X0218649Y0095948D02*
X0218765Y0095948D01*
X0226588Y0103031D02*
X0227651Y0103031D01*
X0231588Y0106969D01*
X0231565Y0106992D01*
X0231565Y0107900D01*
X0229565Y0109900D01*
X0226588Y0106969D02*
X0226088Y0107469D01*
X0226088Y0112400D01*
X0225888Y0112600D01*
X0219219Y0112600D01*
X0214088Y0107470D01*
X0216234Y0107918D02*
X0219107Y0107918D01*
X0219160Y0108517D02*
X0216832Y0108517D01*
X0217431Y0109115D02*
X0219534Y0109115D01*
X0218628Y0110312D02*
X0224888Y0110312D01*
X0224888Y0109714D02*
X0218029Y0109714D01*
X0219226Y0110911D02*
X0224608Y0110911D01*
X0224888Y0109115D02*
X0223642Y0109115D01*
X0224017Y0108517D02*
X0224507Y0108517D01*
X0224507Y0107918D02*
X0224070Y0107918D01*
X0224070Y0107320D02*
X0224507Y0107320D01*
X0221879Y0107320D02*
X0221298Y0107320D01*
X0221298Y0107918D02*
X0221879Y0107918D01*
X0221879Y0108517D02*
X0221298Y0108517D01*
X0221298Y0109115D02*
X0221879Y0109115D01*
X0228848Y0102532D02*
X0229507Y0102532D01*
X0229507Y0103130D02*
X0229447Y0103130D01*
X0229507Y0101933D02*
X0228670Y0101933D01*
X0228526Y0101334D02*
X0229650Y0101334D01*
X0231588Y0103031D02*
X0236588Y0103031D01*
X0243557Y0103031D01*
X0245588Y0101000D01*
X0245588Y0084500D01*
X0244388Y0085175D02*
X0243715Y0085175D01*
X0243712Y0085773D02*
X0244388Y0085773D01*
X0244388Y0086372D02*
X0243465Y0086372D01*
X0243315Y0086970D02*
X0244388Y0086970D01*
X0244388Y0087569D02*
X0243315Y0087569D01*
X0243315Y0088167D02*
X0244388Y0088167D01*
X0244388Y0088766D02*
X0243315Y0088766D01*
X0243315Y0089364D02*
X0244388Y0089364D01*
X0244388Y0089963D02*
X0243253Y0089963D01*
X0244388Y0090561D02*
X0236497Y0090561D01*
X0235898Y0091160D02*
X0244388Y0091160D01*
X0244388Y0091758D02*
X0237871Y0091758D01*
X0238712Y0092357D02*
X0241838Y0092357D01*
X0241240Y0092955D02*
X0238900Y0092955D01*
X0238900Y0093554D02*
X0240787Y0093554D01*
X0244094Y0092357D02*
X0244388Y0092357D01*
X0240447Y0088937D02*
X0235151Y0088937D01*
X0234588Y0089500D01*
X0235135Y0091758D02*
X0235735Y0091758D01*
X0235735Y0092357D02*
X0235135Y0092357D01*
X0235135Y0092955D02*
X0235735Y0092955D01*
X0235735Y0093554D02*
X0235135Y0093554D01*
X0235135Y0094152D02*
X0235735Y0094152D01*
X0235735Y0095948D02*
X0235135Y0095948D01*
X0235135Y0096546D02*
X0235735Y0096546D01*
X0235735Y0097145D02*
X0235135Y0097145D01*
X0235135Y0097743D02*
X0235735Y0097743D01*
X0232216Y0097743D02*
X0231405Y0097743D01*
X0231807Y0097145D02*
X0231971Y0097145D01*
X0231970Y0096546D02*
X0231807Y0096546D01*
X0231807Y0095948D02*
X0231970Y0095948D01*
X0231970Y0095349D02*
X0231807Y0095349D01*
X0233526Y0101334D02*
X0234650Y0101334D01*
X0238526Y0101334D02*
X0243557Y0101334D01*
X0246788Y0101334D02*
X0247792Y0101334D01*
X0247941Y0105550D02*
X0248271Y0105639D01*
X0248568Y0105810D01*
X0248810Y0106052D01*
X0248981Y0106349D01*
X0249070Y0106679D01*
X0249070Y0107741D01*
X0246879Y0107741D01*
X0246879Y0105550D01*
X0247941Y0105550D01*
X0248850Y0106123D02*
X0251122Y0106123D01*
X0250964Y0106721D02*
X0249070Y0106721D01*
X0249070Y0107320D02*
X0250964Y0107320D01*
X0250964Y0107918D02*
X0246879Y0107918D01*
X0246879Y0107320D02*
X0246298Y0107320D01*
X0246298Y0106721D02*
X0246879Y0106721D01*
X0246879Y0106123D02*
X0246298Y0106123D01*
X0249070Y0108517D02*
X0250964Y0108517D01*
X0251478Y0109115D02*
X0249070Y0109115D01*
X0248981Y0109714D02*
X0248810Y0110011D01*
X0248568Y0110253D01*
X0248530Y0110275D01*
X0248670Y0110911D02*
X0251452Y0110911D01*
X0255229Y0110911D02*
X0255388Y0110911D01*
X0255388Y0109115D02*
X0255203Y0109115D01*
X0259930Y0109906D02*
X0259930Y0110094D01*
X0262613Y0110094D01*
X0262613Y0110959D01*
X0262524Y0111289D01*
X0262484Y0111359D01*
X0262532Y0111359D01*
X0263123Y0110769D01*
X0264507Y0110769D01*
X0264507Y0109415D01*
X0264647Y0109275D01*
X0264609Y0109253D01*
X0264367Y0109011D01*
X0264196Y0108714D01*
X0264107Y0108384D01*
X0264107Y0107322D01*
X0266298Y0107322D01*
X0266298Y0106741D01*
X0266879Y0106741D01*
X0266879Y0107322D01*
X0269070Y0107322D01*
X0269070Y0108384D01*
X0268981Y0108714D01*
X0268810Y0109011D01*
X0268568Y0109253D01*
X0268530Y0109275D01*
X0268670Y0109415D01*
X0268670Y0112522D01*
X0268273Y0112919D01*
X0270111Y0112919D01*
X0270288Y0113097D01*
X0270288Y0085000D01*
X0270188Y0083729D01*
X0270188Y0086711D01*
X0268879Y0089871D01*
X0268879Y0089872D01*
X0266460Y0092291D01*
X0263299Y0093600D01*
X0259878Y0093600D01*
X0257547Y0092635D01*
X0257788Y0092876D01*
X0257788Y0100430D01*
X0257819Y0100400D01*
X0259558Y0100400D01*
X0260788Y0101630D01*
X0260788Y0103003D01*
X0261036Y0103251D01*
X0261036Y0105754D01*
X0261686Y0105754D01*
X0262213Y0106281D01*
X0262213Y0108274D01*
X0262353Y0108414D01*
X0262524Y0108711D01*
X0262613Y0109041D01*
X0262613Y0109906D01*
X0259930Y0109906D01*
X0259836Y0107441D02*
X0259836Y0103748D01*
X0258688Y0102600D01*
X0258688Y0102500D01*
X0260788Y0102532D02*
X0270288Y0102532D01*
X0270288Y0103130D02*
X0260915Y0103130D01*
X0261036Y0103729D02*
X0270288Y0103729D01*
X0270288Y0104327D02*
X0261036Y0104327D01*
X0261036Y0104926D02*
X0264494Y0104926D01*
X0264609Y0104810D02*
X0264906Y0104639D01*
X0265236Y0104550D01*
X0266298Y0104550D01*
X0266298Y0106741D01*
X0264107Y0106741D01*
X0264107Y0105679D01*
X0264196Y0105349D01*
X0264367Y0105052D01*
X0264609Y0104810D01*
X0264149Y0105524D02*
X0261036Y0105524D01*
X0262055Y0106123D02*
X0264107Y0106123D01*
X0264107Y0106721D02*
X0262213Y0106721D01*
X0262213Y0107320D02*
X0266298Y0107320D01*
X0266879Y0107320D02*
X0270288Y0107320D01*
X0270288Y0107918D02*
X0269070Y0107918D01*
X0269034Y0108517D02*
X0270288Y0108517D01*
X0270288Y0109115D02*
X0268705Y0109115D01*
X0268670Y0109714D02*
X0270288Y0109714D01*
X0270288Y0110312D02*
X0268670Y0110312D01*
X0268670Y0110911D02*
X0270288Y0110911D01*
X0270288Y0111509D02*
X0268670Y0111509D01*
X0268670Y0112108D02*
X0270288Y0112108D01*
X0270288Y0112706D02*
X0268486Y0112706D01*
X0266588Y0110969D02*
X0265557Y0112000D01*
X0264620Y0112000D01*
X0264588Y0111969D01*
X0263620Y0111969D01*
X0263029Y0112559D01*
X0259836Y0112559D01*
X0259836Y0116752D01*
X0259588Y0117000D01*
X0264620Y0115000D02*
X0264620Y0112000D01*
X0264507Y0110312D02*
X0262613Y0110312D01*
X0262613Y0109714D02*
X0264507Y0109714D01*
X0264471Y0109115D02*
X0262613Y0109115D01*
X0262412Y0108517D02*
X0264143Y0108517D01*
X0264107Y0107918D02*
X0262213Y0107918D01*
X0266298Y0106721D02*
X0266879Y0106721D01*
X0266879Y0106741D02*
X0266879Y0104550D01*
X0267941Y0104550D01*
X0268271Y0104639D01*
X0268568Y0104810D01*
X0268810Y0105052D01*
X0268981Y0105349D01*
X0269070Y0105679D01*
X0269070Y0106741D01*
X0266879Y0106741D01*
X0266879Y0106123D02*
X0266298Y0106123D01*
X0266298Y0105524D02*
X0266879Y0105524D01*
X0266879Y0104926D02*
X0266298Y0104926D01*
X0268683Y0104926D02*
X0270288Y0104926D01*
X0270288Y0105524D02*
X0269028Y0105524D01*
X0269070Y0106123D02*
X0270288Y0106123D01*
X0270288Y0106721D02*
X0269070Y0106721D01*
X0262981Y0110911D02*
X0262613Y0110911D01*
X0268557Y0115000D02*
X0266588Y0116969D01*
X0266588Y0118500D01*
X0266588Y0125197D01*
X0251588Y0121500D02*
X0249892Y0119803D01*
X0246588Y0119803D01*
X0241588Y0118031D02*
X0239588Y0118031D01*
X0237088Y0120531D01*
X0237088Y0127500D01*
X0238692Y0128866D02*
X0240025Y0128866D01*
X0240136Y0128268D02*
X0239188Y0128268D01*
X0239188Y0127669D02*
X0239739Y0127669D01*
X0239739Y0127070D02*
X0239188Y0127070D01*
X0239030Y0126472D02*
X0239739Y0126472D01*
X0239995Y0125873D02*
X0238432Y0125873D01*
X0238288Y0125275D02*
X0240388Y0125275D01*
X0240388Y0124676D02*
X0238288Y0124676D01*
X0238288Y0124078D02*
X0240388Y0124078D01*
X0239507Y0123479D02*
X0238288Y0123479D01*
X0238288Y0122881D02*
X0239507Y0122881D01*
X0239507Y0122282D02*
X0238288Y0122282D01*
X0238288Y0121684D02*
X0239507Y0121684D01*
X0239507Y0121085D02*
X0238288Y0121085D01*
X0238830Y0120487D02*
X0239507Y0120487D01*
X0239429Y0119888D02*
X0239810Y0119888D01*
X0241588Y0121969D02*
X0241588Y0126750D01*
X0241839Y0127000D01*
X0239427Y0129465D02*
X0238094Y0129465D01*
X0238828Y0130063D02*
X0233222Y0130063D01*
X0232624Y0130662D02*
X0238230Y0130662D01*
X0237631Y0131260D02*
X0232025Y0131260D01*
X0231988Y0131859D02*
X0237488Y0131859D01*
X0237404Y0132457D02*
X0231988Y0132457D01*
X0231988Y0133056D02*
X0236806Y0133056D01*
X0236207Y0133654D02*
X0231988Y0133654D01*
X0235094Y0129465D02*
X0236083Y0129465D01*
X0232088Y0125000D02*
X0232088Y0122469D01*
X0232588Y0121969D01*
X0230620Y0120000D02*
X0229588Y0120000D01*
X0229588Y0143500D01*
X0232588Y0146500D01*
X0231137Y0148018D02*
X0228488Y0148018D01*
X0228488Y0147420D02*
X0230538Y0147420D01*
X0230488Y0146821D02*
X0228488Y0146821D01*
X0228488Y0146223D02*
X0230488Y0146223D01*
X0230016Y0145624D02*
X0228488Y0145624D01*
X0228488Y0145026D02*
X0229417Y0145026D01*
X0228819Y0144427D02*
X0228488Y0144427D01*
X0228488Y0148617D02*
X0235388Y0148617D01*
X0235388Y0149215D02*
X0228488Y0149215D01*
X0228488Y0149814D02*
X0235388Y0149814D01*
X0235388Y0150412D02*
X0228488Y0150412D01*
X0228488Y0151011D02*
X0235388Y0151011D01*
X0235388Y0151609D02*
X0228488Y0151609D01*
X0228488Y0152208D02*
X0235388Y0152208D01*
X0235388Y0152806D02*
X0228488Y0152806D01*
X0228488Y0153405D02*
X0235388Y0153405D01*
X0235388Y0154003D02*
X0228488Y0154003D01*
X0228488Y0154602D02*
X0235388Y0154602D01*
X0235388Y0155201D02*
X0228488Y0155201D01*
X0228488Y0155799D02*
X0235388Y0155799D01*
X0235388Y0156398D02*
X0228488Y0156398D01*
X0228488Y0156996D02*
X0235388Y0156996D01*
X0248088Y0156500D02*
X0249588Y0156500D01*
X0249620Y0156531D01*
X0249620Y0159000D01*
X0249620Y0169331D01*
X0255362Y0170163D02*
X0257728Y0170163D01*
X0257130Y0170762D02*
X0255362Y0170762D01*
X0256588Y0170000D02*
X0256588Y0166969D01*
X0256298Y0167769D02*
X0256879Y0167769D01*
X0256879Y0168368D02*
X0256298Y0168368D01*
X0256298Y0168966D02*
X0256879Y0168966D01*
X0259392Y0170197D02*
X0261588Y0170197D01*
X0264423Y0170197D01*
X0266588Y0168031D01*
X0268670Y0167769D02*
X0270288Y0167769D01*
X0270288Y0167171D02*
X0268670Y0167171D01*
X0268670Y0166572D02*
X0270288Y0166572D01*
X0270288Y0165974D02*
X0268166Y0165974D01*
X0270288Y0165375D02*
X0265362Y0165375D01*
X0265362Y0164777D02*
X0270288Y0164777D01*
X0270288Y0164178D02*
X0265362Y0164178D01*
X0264925Y0163580D02*
X0270288Y0163580D01*
X0270288Y0162981D02*
X0267791Y0162981D01*
X0268368Y0162383D02*
X0270288Y0162383D01*
X0270288Y0161784D02*
X0268616Y0161784D01*
X0268760Y0161186D02*
X0270288Y0161186D01*
X0270288Y0160587D02*
X0268760Y0160587D01*
X0268600Y0159989D02*
X0270288Y0159989D01*
X0270288Y0159390D02*
X0268351Y0159390D01*
X0267753Y0158792D02*
X0270288Y0158792D01*
X0270288Y0158193D02*
X0265638Y0158193D01*
X0265638Y0157595D02*
X0270288Y0157595D01*
X0270288Y0156996D02*
X0265638Y0156996D01*
X0265638Y0156398D02*
X0270288Y0156398D01*
X0270288Y0155799D02*
X0265491Y0155799D01*
X0263901Y0155201D02*
X0270288Y0155201D01*
X0270288Y0154602D02*
X0263901Y0154602D01*
X0264555Y0154003D02*
X0270288Y0154003D01*
X0270288Y0153405D02*
X0265153Y0153405D01*
X0265188Y0152806D02*
X0270288Y0152806D01*
X0270288Y0152208D02*
X0265188Y0152208D01*
X0265168Y0151609D02*
X0265179Y0151609D01*
X0266998Y0151609D02*
X0270288Y0151609D01*
X0270288Y0151011D02*
X0267950Y0151011D01*
X0268434Y0150412D02*
X0270288Y0150412D01*
X0270288Y0149814D02*
X0268682Y0149814D01*
X0268760Y0149215D02*
X0270288Y0149215D01*
X0270288Y0148617D02*
X0268760Y0148617D01*
X0268534Y0148018D02*
X0270288Y0148018D01*
X0270288Y0147420D02*
X0268192Y0147420D01*
X0267582Y0146821D02*
X0270288Y0146821D01*
X0270288Y0146223D02*
X0264575Y0146223D01*
X0264575Y0146821D02*
X0264595Y0146821D01*
X0264575Y0145624D02*
X0270288Y0145624D01*
X0270288Y0145026D02*
X0264575Y0145026D01*
X0264575Y0144427D02*
X0270288Y0144427D01*
X0270288Y0143829D02*
X0264575Y0143829D01*
X0264575Y0143230D02*
X0270288Y0143230D01*
X0270288Y0142632D02*
X0264575Y0142632D01*
X0264893Y0142033D02*
X0270288Y0142033D01*
X0270288Y0141435D02*
X0264975Y0141435D01*
X0264436Y0141063D02*
X0264436Y0141063D01*
X0264159Y0139041D02*
X0261937Y0139041D01*
X0261937Y0138442D02*
X0263561Y0138442D01*
X0262988Y0137844D02*
X0261937Y0137844D01*
X0261642Y0137245D02*
X0262988Y0137245D01*
X0262701Y0139271D02*
X0262701Y0139651D01*
X0262701Y0139651D01*
X0262701Y0139271D01*
X0262701Y0139639D02*
X0262701Y0139639D01*
X0260408Y0141435D02*
X0260035Y0141435D01*
X0260413Y0142033D02*
X0252764Y0142033D01*
X0252764Y0142632D02*
X0260413Y0142632D01*
X0260413Y0143230D02*
X0252764Y0143230D01*
X0252764Y0143829D02*
X0260413Y0143829D01*
X0260413Y0144427D02*
X0252764Y0144427D01*
X0252764Y0145026D02*
X0260413Y0145026D01*
X0260413Y0145624D02*
X0252764Y0145624D01*
X0252764Y0146223D02*
X0260413Y0146223D01*
X0260413Y0146821D02*
X0252764Y0146821D01*
X0252764Y0147420D02*
X0260413Y0147420D01*
X0260413Y0148018D02*
X0252764Y0148018D01*
X0252769Y0148617D02*
X0260408Y0148617D01*
X0260229Y0148819D02*
X0260229Y0148819D01*
X0262701Y0148937D02*
X0262701Y0152112D01*
X0263088Y0152500D01*
X0262701Y0152888D01*
X0262701Y0156612D01*
X0263573Y0157484D01*
X0263557Y0157500D01*
X0263057Y0158000D01*
X0263057Y0165169D01*
X0263557Y0165669D01*
X0261751Y0165375D02*
X0261425Y0165375D01*
X0261425Y0164777D02*
X0261751Y0164777D01*
X0261751Y0164178D02*
X0261425Y0164178D01*
X0261857Y0163580D02*
X0260988Y0163580D01*
X0260820Y0162981D02*
X0261857Y0162981D01*
X0261857Y0162383D02*
X0260820Y0162383D01*
X0260820Y0161784D02*
X0261857Y0161784D01*
X0261857Y0161186D02*
X0260820Y0161186D01*
X0260820Y0160587D02*
X0261857Y0160587D01*
X0261857Y0159989D02*
X0260820Y0159989D01*
X0261365Y0159390D02*
X0261812Y0159390D01*
X0260088Y0157500D02*
X0260525Y0157063D01*
X0260525Y0151112D01*
X0254226Y0150906D02*
X0254226Y0154862D01*
X0252588Y0156500D01*
X0249588Y0156500D01*
X0259620Y0157500D02*
X0259620Y0165669D01*
X0261425Y0165974D02*
X0261751Y0165974D01*
X0261751Y0166572D02*
X0261425Y0166572D01*
X0261425Y0167171D02*
X0261751Y0167171D01*
X0262199Y0167769D02*
X0260978Y0167769D01*
X0263217Y0168368D02*
X0264507Y0168368D01*
X0263957Y0168966D02*
X0263394Y0168966D01*
X0268418Y0170163D02*
X0270288Y0170163D01*
X0270288Y0169565D02*
X0268670Y0169565D01*
X0268670Y0168966D02*
X0270288Y0168966D01*
X0270288Y0168368D02*
X0268670Y0168368D01*
X0268670Y0170762D02*
X0270288Y0170762D01*
X0270288Y0171360D02*
X0268670Y0171360D01*
X0264739Y0173754D02*
X0263186Y0173754D01*
X0255070Y0176148D02*
X0254757Y0176148D01*
X0246088Y0176500D02*
X0244588Y0176500D01*
X0239588Y0171500D01*
X0234667Y0174353D02*
X0233826Y0174353D01*
X0234425Y0174951D02*
X0234667Y0174951D01*
X0228988Y0171797D02*
X0228988Y0164100D01*
X0223488Y0164178D02*
X0221760Y0164178D01*
X0221760Y0164777D02*
X0223488Y0164777D01*
X0223488Y0165375D02*
X0221760Y0165375D01*
X0221760Y0165974D02*
X0223488Y0165974D01*
X0223488Y0166572D02*
X0221760Y0166572D01*
X0221760Y0167171D02*
X0223488Y0167171D01*
X0223122Y0167769D02*
X0221760Y0167769D01*
X0221760Y0168368D02*
X0222524Y0168368D01*
X0221925Y0168966D02*
X0221760Y0168966D01*
X0228988Y0171797D02*
X0218580Y0182206D01*
X0221539Y0163580D02*
X0223488Y0163580D01*
X0212921Y0161784D02*
X0207493Y0161784D01*
X0207493Y0162383D02*
X0212480Y0162383D01*
X0212480Y0162981D02*
X0207493Y0162981D01*
X0207493Y0163580D02*
X0208370Y0163580D01*
X0209759Y0154003D02*
X0210615Y0154003D01*
X0234040Y0148018D02*
X0235388Y0148018D01*
X0235388Y0147420D02*
X0234638Y0147420D01*
X0234688Y0146821D02*
X0235183Y0146821D01*
X0238841Y0145026D02*
X0244382Y0145026D01*
X0244507Y0145624D02*
X0239440Y0145624D01*
X0238243Y0144427D02*
X0244119Y0144427D01*
X0258951Y0141638D02*
X0258951Y0139094D01*
X0258951Y0139639D02*
X0258951Y0139639D01*
X0258951Y0140238D02*
X0258951Y0140238D01*
X0258951Y0140836D02*
X0258951Y0140836D01*
X0265088Y0137000D02*
X0265557Y0137000D01*
X0268557Y0134000D01*
X0232588Y0118031D02*
X0230620Y0120000D01*
X0234688Y0115699D02*
X0238988Y0115699D01*
X0257788Y0100137D02*
X0270288Y0100137D01*
X0270288Y0099539D02*
X0257788Y0099539D01*
X0257788Y0098940D02*
X0270288Y0098940D01*
X0270288Y0098342D02*
X0257788Y0098342D01*
X0257788Y0097743D02*
X0270288Y0097743D01*
X0270288Y0097145D02*
X0257788Y0097145D01*
X0257788Y0096546D02*
X0270288Y0096546D01*
X0270288Y0095948D02*
X0257788Y0095948D01*
X0257788Y0095349D02*
X0270288Y0095349D01*
X0270288Y0094751D02*
X0257788Y0094751D01*
X0257788Y0094152D02*
X0270288Y0094152D01*
X0270288Y0093554D02*
X0263410Y0093554D01*
X0264855Y0092955D02*
X0270288Y0092955D01*
X0270288Y0092357D02*
X0266300Y0092357D01*
X0266460Y0092291D02*
X0266460Y0092291D01*
X0266992Y0091758D02*
X0270288Y0091758D01*
X0270288Y0091160D02*
X0267591Y0091160D01*
X0268189Y0090561D02*
X0270288Y0090561D01*
X0270288Y0089963D02*
X0268788Y0089963D01*
X0269089Y0089364D02*
X0270288Y0089364D01*
X0270288Y0088766D02*
X0269337Y0088766D01*
X0269585Y0088167D02*
X0270288Y0088167D01*
X0270288Y0087569D02*
X0269833Y0087569D01*
X0270081Y0086970D02*
X0270288Y0086970D01*
X0270288Y0086372D02*
X0270188Y0086372D01*
X0270188Y0085773D02*
X0270288Y0085773D01*
X0270288Y0085175D02*
X0270188Y0085175D01*
X0270188Y0084576D02*
X0270255Y0084576D01*
X0270208Y0083978D02*
X0270188Y0083978D01*
X0259766Y0093554D02*
X0257788Y0093554D01*
X0257788Y0092955D02*
X0258321Y0092955D01*
X0259894Y0100736D02*
X0270288Y0100736D01*
X0270288Y0101334D02*
X0260493Y0101334D01*
X0260788Y0101933D02*
X0270288Y0101933D01*
X0237178Y0085175D02*
X0228942Y0085175D01*
X0228942Y0085773D02*
X0230345Y0085773D01*
X0229747Y0086372D02*
X0228942Y0086372D01*
X0228942Y0086970D02*
X0229488Y0086970D01*
X0228942Y0084576D02*
X0237178Y0084576D01*
X0237248Y0083978D02*
X0228763Y0083978D01*
X0228165Y0083379D02*
X0237578Y0083379D01*
X0237578Y0082781D02*
X0227566Y0082781D01*
X0226968Y0082182D02*
X0237578Y0082182D01*
X0237578Y0081584D02*
X0225599Y0081584D01*
X0225599Y0080985D02*
X0237578Y0080985D01*
X0237578Y0080387D02*
X0225599Y0080387D01*
X0225287Y0079788D02*
X0237890Y0079788D01*
X0243715Y0084576D02*
X0243968Y0084576D01*
X0227742Y0084654D02*
X0227742Y0089000D01*
X0227742Y0084654D02*
X0226120Y0083031D01*
X0222730Y0083031D01*
X0222730Y0085000D02*
X0217088Y0085000D01*
X0210027Y0088167D02*
X0195863Y0088167D01*
X0196038Y0088766D02*
X0209429Y0088766D01*
X0208830Y0089364D02*
X0196038Y0089364D01*
X0192019Y0087569D02*
X0189348Y0087569D01*
X0181588Y0095472D02*
X0181616Y0095500D01*
X0191188Y0079085D02*
X0190488Y0077394D01*
X0189889Y0076796D02*
X0192736Y0076796D01*
X0187316Y0127070D02*
X0185356Y0127070D01*
X0185954Y0127669D02*
X0187316Y0127669D01*
X0187316Y0128268D02*
X0186553Y0128268D01*
X0187151Y0128866D02*
X0187316Y0128866D01*
X0185553Y0130662D02*
X0183947Y0130662D01*
X0183688Y0130063D02*
X0184954Y0130063D01*
X0184356Y0129465D02*
X0183688Y0129465D01*
X0183757Y0128866D02*
X0183424Y0128866D01*
X0183159Y0128268D02*
X0182826Y0128268D01*
X0184546Y0131260D02*
X0186151Y0131260D01*
X0186750Y0131859D02*
X0185144Y0131859D01*
X0259620Y0157500D02*
X0260088Y0157500D01*
X0264257Y0162981D02*
X0264386Y0162981D01*
D31*
X0256588Y0170000D03*
X0256588Y0173000D03*
X0246088Y0176500D03*
X0239588Y0171500D03*
X0233088Y0169000D03*
X0232588Y0176085D03*
X0220088Y0175906D03*
X0217088Y0175500D03*
X0214588Y0178806D03*
X0208588Y0182006D03*
X0206088Y0174869D03*
X0208129Y0172666D03*
X0212588Y0172000D03*
X0201588Y0173000D03*
X0190131Y0171879D03*
X0183588Y0168000D03*
X0200088Y0162000D03*
X0205588Y0159000D03*
X0211588Y0156000D03*
X0222588Y0163000D03*
X0232088Y0159500D03*
X0238839Y0157500D03*
X0246088Y0157500D03*
X0246588Y0154500D03*
X0232588Y0149500D03*
X0232588Y0146500D03*
X0236588Y0138500D03*
X0247088Y0139500D03*
X0250088Y0136500D03*
X0248907Y0133500D03*
X0241588Y0133000D03*
X0236588Y0132000D03*
X0237088Y0127500D03*
X0234088Y0127500D03*
X0232088Y0125000D03*
X0229588Y0120000D03*
X0232588Y0115000D03*
X0226088Y0112400D03*
X0229565Y0109900D03*
X0221988Y0115500D03*
X0219588Y0120000D03*
X0220588Y0128500D03*
X0216588Y0135000D03*
X0209088Y0129000D03*
X0194088Y0131131D03*
X0191088Y0135000D03*
X0181588Y0130000D03*
X0174088Y0132500D03*
X0175088Y0123000D03*
X0169088Y0122500D03*
X0162088Y0122000D03*
X0182088Y0115000D03*
X0192088Y0116500D03*
X0191603Y0121515D03*
X0186088Y0122000D03*
X0202588Y0109100D03*
X0211588Y0112000D03*
X0218588Y0109000D03*
X0218088Y0104000D03*
X0201588Y0095000D03*
X0197088Y0090000D03*
X0176588Y0094500D03*
X0183088Y0100000D03*
X0191588Y0100000D03*
X0231588Y0087500D03*
X0234588Y0089500D03*
X0235588Y0083000D03*
X0253588Y0102000D03*
X0258688Y0102500D03*
X0263088Y0104500D03*
X0250088Y0109500D03*
X0243588Y0108500D03*
X0241088Y0115000D03*
X0259588Y0117000D03*
X0260588Y0121000D03*
X0251538Y0129581D03*
X0254603Y0133015D03*
X0265088Y0137000D03*
X0265588Y0141000D03*
X0258088Y0142500D03*
X0263088Y0152500D03*
X0221588Y0143500D03*
X0202088Y0137000D03*
X0190088Y0148000D03*
X0183088Y0148500D03*
X0169088Y0146500D03*
X0186519Y0156900D03*
X0175588Y0178000D03*
X0170588Y0185000D03*
X0181588Y0192500D03*
X0189588Y0192500D03*
X0200088Y0192500D03*
X0186588Y0184000D03*
X0222588Y0184000D03*
X0223088Y0192500D03*
X0247088Y0187000D03*
X0249073Y0182985D03*
X0241839Y0127000D03*
D32*
X0211588Y0112000D02*
X0206935Y0112000D01*
X0206588Y0111654D02*
X0197101Y0111654D01*
X0192088Y0116500D02*
X0191588Y0116000D01*
X0191588Y0107359D01*
X0189348Y0105119D01*
X0187848Y0105119D01*
X0187257Y0104528D02*
X0181588Y0104528D01*
X0179147Y0104528D01*
X0176588Y0101969D01*
X0158557Y0101969D01*
X0156588Y0100000D01*
X0156588Y0110000D02*
X0171588Y0110000D01*
X0173242Y0111654D01*
X0176588Y0111654D01*
X0176982Y0111260D02*
X0186470Y0111260D01*
X0186588Y0100000D02*
X0187848Y0098740D01*
X0187848Y0094881D01*
X0184207Y0094881D01*
X0183588Y0095500D01*
X0181616Y0095500D01*
X0187848Y0094881D02*
X0187848Y0090000D01*
X0189620Y0090000D01*
X0187848Y0090000D02*
X0187848Y0081260D01*
X0186588Y0080000D01*
M02*
