%
M48
M72
T01C0.0120
T02C0.0200
T03C0.0256
T04C0.0354
T05C0.0400
T06C0.1300
%
T01
X17659Y9450
X18309Y10000
X19159Y10000
X20159Y9500
X19709Y9000
X21809Y10400
X21859Y10900
X21159Y11200
X20259Y10910
X19209Y11650
X18209Y11500
X18609Y12200
X19160Y12152
X19409Y13113
X19109Y13500
X18159Y13000
X17409Y13250
X17509Y12300
X16909Y12250
X16209Y12200
X20209Y13700
X21659Y13500
X22059Y12850
X23209Y12500
X23409Y12750
X23709Y12750
X24184Y12700
X25154Y12958
X25460Y13302
X25009Y13650
X24709Y13950
X23659Y13850
X23659Y13200
X24159Y13300
X24891Y13350
X26509Y13700
X26559Y14100
X25809Y14250
X26309Y15250
X24659Y15450
X24609Y15750
X23884Y15750
X23209Y15950
X22259Y16300
X23309Y16900
X23959Y17150
X24609Y17650
X25659Y17300
X25659Y17000
X23259Y17608
X22009Y17591
X21709Y17550
X21459Y17881
X20859Y18201
X20609Y17487
X20813Y17267
X21259Y17200
X20159Y17300
X19013Y17188
X18359Y16800
X20009Y16200
X20559Y15900
X21159Y15600
X23259Y14950
X23259Y14650
X22159Y14350
X20909Y12900
X21959Y12000
X22199Y11550
X22609Y11240
X22956Y10990
X23259Y11500
X22959Y12000
X24109Y11500
X24359Y10850
X25009Y10950
X25869Y10250
X26309Y10450
X25359Y10200
X23459Y8950
X23159Y8750
X23559Y8300
X25959Y11700
X26059Y12100
X19009Y14800
X18309Y14850
X16909Y14650
X18652Y15690
X17559Y17800
X17059Y18500
X18159Y19250
X18959Y19250
X20009Y19250
X18659Y18400
X22259Y18400
X22309Y19250
X24709Y18700
X24907Y18298
T02
X17909Y17250
X17409Y17250
X17409Y16750
X17909Y16750
X17909Y16250
X17409Y16250
X17409Y15750
X17909Y15750
X17909Y15250
X17409Y15250
T03
X22021Y9431
X24297Y9431
T04
X26609Y14909
X26609Y16091
T05
X15659Y16000
X15659Y17000
X15659Y15000
X15659Y14000
X15659Y13000
X15659Y12000
X15659Y11000
X15659Y10000
X18659Y8000
X19659Y8000
T06
X16159Y8500
X26159Y8500
X26159Y18500
X16159Y18500
M30
