G75*
%MOIN*%
%OFA0B0*%
%FSLAX25Y25*%
%IPPOS*%
%LPD*%
%AMOC8*
5,1,8,0,0,1.08239X$1,22.5*
%
%ADD10C,0.13800*%
%ADD11C,0.01990*%
%ADD12C,0.04737*%
%ADD13R,0.04737X0.07887*%
%ADD14R,0.04343X0.04146*%
%ADD15R,0.03162X0.02375*%
%ADD16R,0.03162X0.03162*%
%ADD17R,0.02375X0.03162*%
%ADD18R,0.04737X0.05131*%
%ADD19R,0.04737X0.04343*%
%ADD20R,0.08674X0.05524*%
%ADD21R,0.06115X0.03162*%
%ADD22R,0.04737X0.18910*%
%ADD23R,0.07099X0.14186*%
%ADD24C,0.08200*%
%ADD25R,0.05800X0.03300*%
%ADD26C,0.00500*%
%ADD27R,0.06706X0.03556*%
%ADD28R,0.03162X0.04737*%
%ADD29R,0.03950X0.04737*%
%ADD30C,0.04343*%
%ADD31R,0.01981X0.04737*%
%ADD32C,0.03359*%
%ADD33C,0.00039*%
D10*
X0161588Y0085000D03*
X0261588Y0085000D03*
X0261588Y0185000D03*
X0161588Y0185000D03*
D11*
X0195215Y0122080D02*
X0197961Y0122080D01*
X0195215Y0122080D02*
X0195215Y0124826D01*
X0197961Y0124826D01*
X0197961Y0122080D01*
X0197961Y0123970D02*
X0195215Y0123970D01*
X0205215Y0122080D02*
X0207961Y0122080D01*
X0205215Y0122080D02*
X0205215Y0124826D01*
X0207961Y0124826D01*
X0207961Y0122080D01*
X0207961Y0123970D02*
X0205215Y0123970D01*
X0215215Y0122080D02*
X0217961Y0122080D01*
X0215215Y0122080D02*
X0215215Y0124826D01*
X0217961Y0124826D01*
X0217961Y0122080D01*
X0217961Y0123970D02*
X0215215Y0123970D01*
X0225215Y0124826D02*
X0227961Y0124826D01*
X0227961Y0122080D01*
X0225215Y0122080D01*
X0225215Y0124826D01*
X0225215Y0123970D02*
X0227961Y0123970D01*
X0235215Y0124826D02*
X0237961Y0124826D01*
X0237961Y0122080D01*
X0235215Y0122080D01*
X0235215Y0124826D01*
X0235215Y0123970D02*
X0237961Y0123970D01*
X0237961Y0117920D02*
X0235215Y0117920D01*
X0237961Y0117920D02*
X0237961Y0115174D01*
X0235215Y0115174D01*
X0235215Y0117920D01*
X0235215Y0117064D02*
X0237961Y0117064D01*
X0227961Y0117920D02*
X0225215Y0117920D01*
X0227961Y0117920D02*
X0227961Y0115174D01*
X0225215Y0115174D01*
X0225215Y0117920D01*
X0225215Y0117064D02*
X0227961Y0117064D01*
X0217961Y0115174D02*
X0215215Y0115174D01*
X0215215Y0117920D01*
X0217961Y0117920D01*
X0217961Y0115174D01*
X0217961Y0117064D02*
X0215215Y0117064D01*
X0207961Y0115174D02*
X0205215Y0115174D01*
X0205215Y0117920D01*
X0207961Y0117920D01*
X0207961Y0115174D01*
X0207961Y0117064D02*
X0205215Y0117064D01*
X0197961Y0115174D02*
X0195215Y0115174D01*
X0195215Y0117920D01*
X0197961Y0117920D01*
X0197961Y0115174D01*
X0197961Y0117064D02*
X0195215Y0117064D01*
D12*
X0179088Y0152500D03*
X0174088Y0152500D03*
X0174088Y0157500D03*
X0179088Y0157500D03*
X0179088Y0162500D03*
X0174088Y0162500D03*
X0174088Y0167500D03*
X0179088Y0167500D03*
X0179088Y0172500D03*
X0174088Y0172500D03*
X0171588Y0190000D03*
X0266588Y0095000D03*
D13*
X0221510Y0135000D03*
X0211667Y0135000D03*
D14*
X0206088Y0132717D03*
X0206088Y0137283D03*
X0226588Y0137283D03*
X0226588Y0132717D03*
D15*
X0229305Y0153346D03*
X0226155Y0155315D03*
X0229305Y0157283D03*
X0226155Y0159252D03*
X0229305Y0161220D03*
X0226155Y0163189D03*
X0229305Y0165157D03*
X0226155Y0167126D03*
X0229305Y0169094D03*
X0226155Y0171063D03*
X0229305Y0173031D03*
X0226155Y0175000D03*
X0229305Y0176969D03*
X0226155Y0178937D03*
X0229305Y0180906D03*
X0226155Y0182874D03*
X0229305Y0184843D03*
X0226155Y0186811D03*
X0229305Y0188780D03*
X0226155Y0190748D03*
X0229305Y0192717D03*
X0197021Y0190748D03*
X0193872Y0188780D03*
X0197021Y0186811D03*
X0193872Y0184843D03*
X0197021Y0182874D03*
X0193872Y0180906D03*
X0197021Y0178937D03*
X0193872Y0176969D03*
X0197021Y0175000D03*
X0193872Y0173031D03*
X0197021Y0171063D03*
X0193872Y0169094D03*
X0197021Y0167126D03*
X0193872Y0165157D03*
X0197021Y0163189D03*
X0193872Y0161220D03*
X0197021Y0159252D03*
X0193872Y0157283D03*
X0197021Y0155315D03*
X0193872Y0153346D03*
X0193872Y0192717D03*
D16*
X0186588Y0151969D03*
X0186588Y0148031D03*
X0193872Y0149409D03*
X0224620Y0143500D03*
X0228557Y0143500D03*
X0232620Y0143500D03*
X0236557Y0143500D03*
X0229305Y0149409D03*
X0213557Y0105000D03*
X0209620Y0105000D03*
X0245620Y0105000D03*
X0249557Y0105000D03*
D17*
X0225368Y0149409D03*
X0223399Y0152559D03*
X0221431Y0149409D03*
X0219462Y0152559D03*
X0217494Y0149409D03*
X0215525Y0152559D03*
X0213557Y0149409D03*
X0211588Y0152559D03*
X0209620Y0149409D03*
X0207651Y0152559D03*
X0205683Y0149409D03*
X0203714Y0152559D03*
X0201746Y0149409D03*
X0199777Y0152559D03*
X0197809Y0149409D03*
D18*
X0232588Y0138346D03*
X0232588Y0131654D03*
X0181588Y0181654D03*
X0181588Y0188346D03*
D19*
X0243439Y0163071D03*
X0249738Y0163071D03*
X0249738Y0146929D03*
X0243439Y0146929D03*
D20*
X0266057Y0131024D03*
X0266057Y0108976D03*
D21*
X0251588Y0114094D03*
X0251588Y0118031D03*
X0251588Y0121969D03*
X0251588Y0125906D03*
D22*
X0195525Y0104567D03*
X0187651Y0104567D03*
D23*
X0178203Y0084094D03*
X0204974Y0084094D03*
D24*
X0196588Y0080000D03*
X0186588Y0080000D03*
X0156588Y0100000D03*
X0156588Y0110000D03*
X0156588Y0120000D03*
X0156588Y0130000D03*
X0156588Y0140000D03*
X0156588Y0150000D03*
X0156588Y0160000D03*
X0156588Y0170000D03*
D25*
X0176088Y0117000D03*
X0176088Y0113000D03*
X0156588Y0107000D03*
X0156588Y0103000D03*
D26*
X0157688Y0104250D02*
X0155488Y0104250D01*
X0155488Y0105750D01*
X0157688Y0105750D01*
X0157688Y0104250D01*
X0157688Y0104412D02*
X0155488Y0104412D01*
X0155488Y0104911D02*
X0157688Y0104911D01*
X0157688Y0105409D02*
X0155488Y0105409D01*
X0175588Y0114250D02*
X0176588Y0114250D01*
X0176588Y0115750D01*
X0175588Y0115750D01*
X0175588Y0114250D01*
X0175588Y0114382D02*
X0176588Y0114382D01*
X0176588Y0114881D02*
X0175588Y0114881D01*
X0175588Y0115379D02*
X0176588Y0115379D01*
D27*
X0259199Y0146142D03*
X0259199Y0157953D03*
X0259199Y0163858D03*
D28*
X0270025Y0169370D03*
X0270025Y0140630D03*
X0244285Y0098661D03*
X0241234Y0098661D03*
X0221943Y0098661D03*
X0218892Y0098661D03*
D29*
X0261758Y0140630D03*
X0261758Y0169370D03*
D30*
X0266088Y0160906D03*
X0266088Y0149094D03*
D31*
X0238478Y0098661D03*
X0236510Y0098661D03*
X0234541Y0098661D03*
X0232573Y0098661D03*
X0230604Y0098661D03*
X0228636Y0098661D03*
X0226667Y0098661D03*
X0224699Y0098661D03*
D32*
X0220210Y0094311D03*
X0242966Y0094311D03*
D33*
X0246234Y0094320D02*
X0250958Y0094320D01*
X0250958Y0094357D02*
X0246234Y0094357D01*
X0246234Y0094395D02*
X0250958Y0094395D01*
X0250958Y0094433D02*
X0246234Y0094433D01*
X0246234Y0094471D02*
X0250958Y0094471D01*
X0250958Y0094509D02*
X0246234Y0094509D01*
X0246234Y0094547D02*
X0250958Y0094547D01*
X0250958Y0094585D02*
X0246234Y0094585D01*
X0246234Y0094623D02*
X0250958Y0094623D01*
X0250958Y0094660D02*
X0246234Y0094660D01*
X0246234Y0094698D02*
X0250958Y0094698D01*
X0250958Y0094736D02*
X0246234Y0094736D01*
X0246234Y0094774D02*
X0250958Y0094774D01*
X0250958Y0094812D02*
X0246234Y0094812D01*
X0246234Y0094850D02*
X0250958Y0094850D01*
X0250958Y0094888D02*
X0246234Y0094888D01*
X0246234Y0094926D02*
X0250958Y0094926D01*
X0250958Y0094963D02*
X0246234Y0094963D01*
X0246234Y0095001D02*
X0250958Y0095001D01*
X0250958Y0095039D02*
X0246234Y0095039D01*
X0246234Y0095077D02*
X0250958Y0095077D01*
X0250958Y0095115D02*
X0246234Y0095115D01*
X0246234Y0095153D02*
X0250958Y0095153D01*
X0250958Y0095191D02*
X0246234Y0095191D01*
X0246234Y0095229D02*
X0250958Y0095229D01*
X0250958Y0095267D02*
X0246234Y0095267D01*
X0246234Y0095304D02*
X0250958Y0095304D01*
X0250958Y0095342D02*
X0246234Y0095342D01*
X0246234Y0095380D02*
X0250958Y0095380D01*
X0250958Y0095418D02*
X0246234Y0095418D01*
X0246234Y0095456D02*
X0250958Y0095456D01*
X0250958Y0095494D02*
X0246234Y0095494D01*
X0246234Y0095532D02*
X0250958Y0095532D01*
X0250958Y0095570D02*
X0246234Y0095570D01*
X0246234Y0095607D02*
X0250958Y0095607D01*
X0250958Y0095645D02*
X0246234Y0095645D01*
X0246234Y0095683D02*
X0250958Y0095683D01*
X0250958Y0095721D02*
X0246234Y0095721D01*
X0246234Y0095759D02*
X0250958Y0095759D01*
X0250958Y0095797D02*
X0246234Y0095797D01*
X0246234Y0095835D02*
X0250958Y0095835D01*
X0250958Y0095873D02*
X0246234Y0095873D01*
X0246234Y0095911D02*
X0250958Y0095911D01*
X0250958Y0095948D02*
X0246234Y0095948D01*
X0246234Y0095986D02*
X0250958Y0095986D01*
X0250958Y0096024D02*
X0246234Y0096024D01*
X0246234Y0096062D02*
X0250958Y0096062D01*
X0250958Y0096100D02*
X0246234Y0096100D01*
X0246234Y0096138D02*
X0250958Y0096138D01*
X0250958Y0096176D02*
X0246234Y0096176D01*
X0246234Y0096214D02*
X0250958Y0096214D01*
X0250958Y0096251D02*
X0246234Y0096251D01*
X0246234Y0096289D02*
X0250958Y0096289D01*
X0250958Y0096327D02*
X0246234Y0096327D01*
X0246234Y0096365D02*
X0250958Y0096365D01*
X0250958Y0096403D02*
X0246234Y0096403D01*
X0246234Y0096441D02*
X0250958Y0096441D01*
X0250958Y0096479D02*
X0246234Y0096479D01*
X0246234Y0096517D02*
X0250958Y0096517D01*
X0250958Y0096555D02*
X0246234Y0096555D01*
X0246234Y0096592D02*
X0250958Y0096592D01*
X0250958Y0096630D02*
X0246234Y0096630D01*
X0246234Y0096668D02*
X0250958Y0096668D01*
X0250958Y0096706D02*
X0246234Y0096706D01*
X0246234Y0096744D02*
X0250958Y0096744D01*
X0250958Y0096782D02*
X0246234Y0096782D01*
X0246234Y0096820D02*
X0250958Y0096820D01*
X0250958Y0096858D02*
X0246234Y0096858D01*
X0246234Y0096895D02*
X0250958Y0096895D01*
X0250958Y0096933D02*
X0246234Y0096933D01*
X0246234Y0096971D02*
X0250958Y0096971D01*
X0250958Y0097009D02*
X0246234Y0097009D01*
X0246234Y0097047D02*
X0250958Y0097047D01*
X0250958Y0097085D02*
X0246234Y0097085D01*
X0246234Y0097123D02*
X0250958Y0097123D01*
X0250958Y0097161D02*
X0246234Y0097161D01*
X0246234Y0097198D02*
X0250958Y0097198D01*
X0250958Y0097236D02*
X0246234Y0097236D01*
X0246234Y0097274D02*
X0250958Y0097274D01*
X0250958Y0097312D02*
X0246234Y0097312D01*
X0246234Y0097350D02*
X0250958Y0097350D01*
X0250958Y0097388D02*
X0246234Y0097388D01*
X0246234Y0097426D02*
X0250958Y0097426D01*
X0250958Y0097464D02*
X0246234Y0097464D01*
X0246234Y0097502D02*
X0250958Y0097502D01*
X0250958Y0097539D02*
X0246234Y0097539D01*
X0246234Y0097577D02*
X0250958Y0097577D01*
X0250958Y0097615D02*
X0246234Y0097615D01*
X0246234Y0097653D02*
X0250958Y0097653D01*
X0250958Y0097691D02*
X0246234Y0097691D01*
X0246234Y0097729D02*
X0250958Y0097729D01*
X0250958Y0097767D02*
X0246234Y0097767D01*
X0246234Y0097805D02*
X0250958Y0097805D01*
X0250958Y0097842D02*
X0246234Y0097842D01*
X0246234Y0097880D02*
X0250958Y0097880D01*
X0250958Y0097918D02*
X0246234Y0097918D01*
X0246234Y0097956D02*
X0250958Y0097956D01*
X0250958Y0097994D02*
X0246234Y0097994D01*
X0246234Y0098032D02*
X0250958Y0098032D01*
X0250958Y0098070D02*
X0246234Y0098070D01*
X0246234Y0098108D02*
X0250958Y0098108D01*
X0250958Y0098146D02*
X0246234Y0098146D01*
X0246234Y0098183D02*
X0250958Y0098183D01*
X0250958Y0098221D02*
X0246234Y0098221D01*
X0246234Y0098259D02*
X0250958Y0098259D01*
X0250958Y0098297D02*
X0246234Y0098297D01*
X0246234Y0098335D02*
X0250958Y0098335D01*
X0250958Y0098373D02*
X0246234Y0098373D01*
X0246234Y0098411D02*
X0250958Y0098411D01*
X0250958Y0098449D02*
X0246234Y0098449D01*
X0246234Y0098486D02*
X0250958Y0098486D01*
X0250958Y0098524D02*
X0246234Y0098524D01*
X0246234Y0098562D02*
X0250958Y0098562D01*
X0250958Y0098600D02*
X0246234Y0098600D01*
X0246234Y0098638D02*
X0250958Y0098638D01*
X0250958Y0098676D02*
X0246234Y0098676D01*
X0246234Y0098714D02*
X0250958Y0098714D01*
X0250958Y0098740D02*
X0250958Y0094016D01*
X0250878Y0093517D01*
X0250688Y0093049D01*
X0250399Y0092634D01*
X0250025Y0092294D01*
X0249585Y0092046D01*
X0249101Y0091902D01*
X0248596Y0091870D01*
X0248092Y0091902D01*
X0247608Y0092046D01*
X0247167Y0092294D01*
X0246793Y0092634D01*
X0246504Y0093049D01*
X0246315Y0093517D01*
X0246234Y0094016D01*
X0246234Y0098740D01*
X0246295Y0099182D01*
X0246441Y0099603D01*
X0246666Y0099988D01*
X0246963Y0100322D01*
X0247318Y0100591D01*
X0247719Y0100786D01*
X0248151Y0100899D01*
X0248596Y0100925D01*
X0249042Y0100899D01*
X0249473Y0100786D01*
X0249874Y0100591D01*
X0250230Y0100322D01*
X0250526Y0099988D01*
X0250752Y0099603D01*
X0250898Y0099182D01*
X0250958Y0098740D01*
X0250957Y0098752D02*
X0246236Y0098752D01*
X0246241Y0098790D02*
X0250952Y0098790D01*
X0250946Y0098827D02*
X0246246Y0098827D01*
X0246251Y0098865D02*
X0250941Y0098865D01*
X0250936Y0098903D02*
X0246257Y0098903D01*
X0246262Y0098941D02*
X0250931Y0098941D01*
X0250926Y0098979D02*
X0246267Y0098979D01*
X0246272Y0099017D02*
X0250920Y0099017D01*
X0250915Y0099055D02*
X0246277Y0099055D01*
X0246283Y0099093D02*
X0250910Y0099093D01*
X0250905Y0099130D02*
X0246288Y0099130D01*
X0246293Y0099168D02*
X0250899Y0099168D01*
X0250889Y0099206D02*
X0246303Y0099206D01*
X0246317Y0099244D02*
X0250876Y0099244D01*
X0250863Y0099282D02*
X0246330Y0099282D01*
X0246343Y0099320D02*
X0250850Y0099320D01*
X0250837Y0099358D02*
X0246356Y0099358D01*
X0246369Y0099396D02*
X0250824Y0099396D01*
X0250810Y0099434D02*
X0246382Y0099434D01*
X0246395Y0099471D02*
X0250797Y0099471D01*
X0250784Y0099509D02*
X0246408Y0099509D01*
X0246422Y0099547D02*
X0250771Y0099547D01*
X0250758Y0099585D02*
X0246435Y0099585D01*
X0246452Y0099623D02*
X0250740Y0099623D01*
X0250718Y0099661D02*
X0246475Y0099661D01*
X0246497Y0099699D02*
X0250696Y0099699D01*
X0250674Y0099737D02*
X0246519Y0099737D01*
X0246541Y0099774D02*
X0250651Y0099774D01*
X0250629Y0099812D02*
X0246563Y0099812D01*
X0246586Y0099850D02*
X0250607Y0099850D01*
X0250585Y0099888D02*
X0246608Y0099888D01*
X0246630Y0099926D02*
X0250563Y0099926D01*
X0250540Y0099964D02*
X0246652Y0099964D01*
X0246678Y0100002D02*
X0250514Y0100002D01*
X0250481Y0100040D02*
X0246712Y0100040D01*
X0246746Y0100077D02*
X0250447Y0100077D01*
X0250413Y0100115D02*
X0246779Y0100115D01*
X0246813Y0100153D02*
X0250380Y0100153D01*
X0250346Y0100191D02*
X0246847Y0100191D01*
X0246880Y0100229D02*
X0250312Y0100229D01*
X0250279Y0100267D02*
X0246914Y0100267D01*
X0246947Y0100305D02*
X0250245Y0100305D01*
X0250203Y0100343D02*
X0246990Y0100343D01*
X0247040Y0100381D02*
X0250153Y0100381D01*
X0250103Y0100418D02*
X0247090Y0100418D01*
X0247140Y0100456D02*
X0250053Y0100456D01*
X0250002Y0100494D02*
X0247190Y0100494D01*
X0247240Y0100532D02*
X0249952Y0100532D01*
X0249902Y0100570D02*
X0247290Y0100570D01*
X0247352Y0100608D02*
X0249840Y0100608D01*
X0249762Y0100646D02*
X0247430Y0100646D01*
X0247508Y0100684D02*
X0249684Y0100684D01*
X0249606Y0100721D02*
X0247586Y0100721D01*
X0247665Y0100759D02*
X0249528Y0100759D01*
X0249430Y0100797D02*
X0247762Y0100797D01*
X0247907Y0100835D02*
X0249285Y0100835D01*
X0249140Y0100873D02*
X0248052Y0100873D01*
X0248355Y0100911D02*
X0248838Y0100911D01*
X0250958Y0094282D02*
X0246234Y0094282D01*
X0246234Y0094244D02*
X0250958Y0094244D01*
X0250958Y0094206D02*
X0246234Y0094206D01*
X0246234Y0094168D02*
X0250958Y0094168D01*
X0250958Y0094130D02*
X0246234Y0094130D01*
X0246234Y0094092D02*
X0250958Y0094092D01*
X0250958Y0094054D02*
X0246234Y0094054D01*
X0246234Y0094016D02*
X0250958Y0094016D01*
X0250952Y0093979D02*
X0246240Y0093979D01*
X0246246Y0093941D02*
X0250946Y0093941D01*
X0250940Y0093903D02*
X0246252Y0093903D01*
X0246258Y0093865D02*
X0250934Y0093865D01*
X0250928Y0093827D02*
X0246265Y0093827D01*
X0246271Y0093789D02*
X0250922Y0093789D01*
X0250916Y0093751D02*
X0246277Y0093751D01*
X0246283Y0093713D02*
X0250910Y0093713D01*
X0250904Y0093676D02*
X0246289Y0093676D01*
X0246295Y0093638D02*
X0250897Y0093638D01*
X0250891Y0093600D02*
X0246301Y0093600D01*
X0246307Y0093562D02*
X0250885Y0093562D01*
X0250879Y0093524D02*
X0246314Y0093524D01*
X0246327Y0093486D02*
X0250865Y0093486D01*
X0250850Y0093448D02*
X0246342Y0093448D01*
X0246358Y0093410D02*
X0250835Y0093410D01*
X0250819Y0093372D02*
X0246373Y0093372D01*
X0246388Y0093335D02*
X0250804Y0093335D01*
X0250789Y0093297D02*
X0246404Y0093297D01*
X0246419Y0093259D02*
X0250773Y0093259D01*
X0250758Y0093221D02*
X0246434Y0093221D01*
X0246450Y0093183D02*
X0250743Y0093183D01*
X0250727Y0093145D02*
X0246465Y0093145D01*
X0246480Y0093107D02*
X0250712Y0093107D01*
X0250697Y0093069D02*
X0246496Y0093069D01*
X0246516Y0093032D02*
X0250676Y0093032D01*
X0250650Y0092994D02*
X0246543Y0092994D01*
X0246569Y0092956D02*
X0250624Y0092956D01*
X0250597Y0092918D02*
X0246595Y0092918D01*
X0246622Y0092880D02*
X0250571Y0092880D01*
X0250544Y0092842D02*
X0246648Y0092842D01*
X0246675Y0092804D02*
X0250518Y0092804D01*
X0250492Y0092766D02*
X0246701Y0092766D01*
X0246727Y0092728D02*
X0250465Y0092728D01*
X0250439Y0092691D02*
X0246754Y0092691D01*
X0246780Y0092653D02*
X0250412Y0092653D01*
X0250378Y0092615D02*
X0246814Y0092615D01*
X0246856Y0092577D02*
X0250336Y0092577D01*
X0250295Y0092539D02*
X0246898Y0092539D01*
X0246940Y0092501D02*
X0250253Y0092501D01*
X0250211Y0092463D02*
X0246981Y0092463D01*
X0247023Y0092425D02*
X0250170Y0092425D01*
X0250128Y0092388D02*
X0247065Y0092388D01*
X0247106Y0092350D02*
X0250086Y0092350D01*
X0250044Y0092312D02*
X0247148Y0092312D01*
X0247204Y0092274D02*
X0249989Y0092274D01*
X0249922Y0092236D02*
X0247271Y0092236D01*
X0247338Y0092198D02*
X0249855Y0092198D01*
X0249787Y0092160D02*
X0247405Y0092160D01*
X0247473Y0092122D02*
X0249720Y0092122D01*
X0249653Y0092085D02*
X0247540Y0092085D01*
X0247607Y0092047D02*
X0249586Y0092047D01*
X0249458Y0092009D02*
X0247734Y0092009D01*
X0247862Y0091971D02*
X0249331Y0091971D01*
X0249203Y0091933D02*
X0247989Y0091933D01*
X0248207Y0091895D02*
X0248986Y0091895D01*
X0248596Y0083484D02*
X0249059Y0083437D01*
X0249503Y0083300D01*
X0249912Y0083079D01*
X0250271Y0082783D01*
X0250564Y0082422D01*
X0250782Y0082011D01*
X0250915Y0081565D01*
X0250958Y0081102D01*
X0250958Y0078740D01*
X0250911Y0078281D01*
X0250776Y0077841D01*
X0246429Y0077841D01*
X0246442Y0077803D02*
X0250755Y0077803D01*
X0250735Y0077765D02*
X0246455Y0077765D01*
X0246469Y0077727D02*
X0250715Y0077727D01*
X0250694Y0077690D02*
X0246491Y0077690D01*
X0246471Y0077720D02*
X0246295Y0078217D01*
X0246234Y0078740D01*
X0246234Y0081102D01*
X0246291Y0081630D01*
X0246465Y0082133D01*
X0246745Y0082583D01*
X0247119Y0082961D01*
X0247568Y0083245D01*
X0248069Y0083423D01*
X0248596Y0083484D01*
X0248282Y0083448D02*
X0248954Y0083448D01*
X0249147Y0083410D02*
X0248032Y0083410D01*
X0247925Y0083372D02*
X0249270Y0083372D01*
X0249393Y0083334D02*
X0247819Y0083334D01*
X0247712Y0083296D02*
X0249510Y0083296D01*
X0249581Y0083258D02*
X0247605Y0083258D01*
X0247529Y0083220D02*
X0249651Y0083220D01*
X0249721Y0083182D02*
X0247469Y0083182D01*
X0247409Y0083145D02*
X0249791Y0083145D01*
X0249861Y0083107D02*
X0247350Y0083107D01*
X0247290Y0083069D02*
X0249925Y0083069D01*
X0249971Y0083031D02*
X0247230Y0083031D01*
X0247171Y0082993D02*
X0250016Y0082993D01*
X0250062Y0082955D02*
X0247114Y0082955D01*
X0247076Y0082917D02*
X0250108Y0082917D01*
X0250154Y0082879D02*
X0247039Y0082879D01*
X0247001Y0082841D02*
X0250200Y0082841D01*
X0250245Y0082804D02*
X0246964Y0082804D01*
X0246926Y0082766D02*
X0250284Y0082766D01*
X0250315Y0082728D02*
X0246889Y0082728D01*
X0246851Y0082690D02*
X0250346Y0082690D01*
X0250377Y0082652D02*
X0246813Y0082652D01*
X0246776Y0082614D02*
X0250408Y0082614D01*
X0250439Y0082576D02*
X0246741Y0082576D01*
X0246717Y0082538D02*
X0250469Y0082538D01*
X0250500Y0082501D02*
X0246694Y0082501D01*
X0246670Y0082463D02*
X0250531Y0082463D01*
X0250562Y0082425D02*
X0246647Y0082425D01*
X0246623Y0082387D02*
X0250583Y0082387D01*
X0250603Y0082349D02*
X0246599Y0082349D01*
X0246576Y0082311D02*
X0250623Y0082311D01*
X0250643Y0082273D02*
X0246552Y0082273D01*
X0246529Y0082235D02*
X0250663Y0082235D01*
X0250683Y0082197D02*
X0246505Y0082197D01*
X0246482Y0082160D02*
X0250703Y0082160D01*
X0250723Y0082122D02*
X0246461Y0082122D01*
X0246448Y0082084D02*
X0250743Y0082084D01*
X0250763Y0082046D02*
X0246435Y0082046D01*
X0246422Y0082008D02*
X0250783Y0082008D01*
X0250794Y0081970D02*
X0246409Y0081970D01*
X0246396Y0081932D02*
X0250805Y0081932D01*
X0250816Y0081894D02*
X0246382Y0081894D01*
X0246369Y0081857D02*
X0250828Y0081857D01*
X0250839Y0081819D02*
X0246356Y0081819D01*
X0246343Y0081781D02*
X0250850Y0081781D01*
X0250862Y0081743D02*
X0246330Y0081743D01*
X0246317Y0081705D02*
X0250873Y0081705D01*
X0250884Y0081667D02*
X0246304Y0081667D01*
X0246291Y0081629D02*
X0250896Y0081629D01*
X0250907Y0081591D02*
X0246287Y0081591D01*
X0246283Y0081553D02*
X0250916Y0081553D01*
X0250920Y0081516D02*
X0246279Y0081516D01*
X0246275Y0081478D02*
X0250923Y0081478D01*
X0250927Y0081440D02*
X0246271Y0081440D01*
X0246267Y0081402D02*
X0250930Y0081402D01*
X0250934Y0081364D02*
X0246262Y0081364D01*
X0246258Y0081326D02*
X0250937Y0081326D01*
X0250941Y0081288D02*
X0246254Y0081288D01*
X0246250Y0081250D02*
X0250945Y0081250D01*
X0250948Y0081213D02*
X0246246Y0081213D01*
X0246242Y0081175D02*
X0250952Y0081175D01*
X0250955Y0081137D02*
X0246238Y0081137D01*
X0246234Y0081099D02*
X0250958Y0081099D01*
X0250958Y0081061D02*
X0246234Y0081061D01*
X0246234Y0081023D02*
X0250958Y0081023D01*
X0250958Y0080985D02*
X0246234Y0080985D01*
X0246234Y0080947D02*
X0250958Y0080947D01*
X0250958Y0080909D02*
X0246234Y0080909D01*
X0246234Y0080872D02*
X0250958Y0080872D01*
X0250958Y0080834D02*
X0246234Y0080834D01*
X0246234Y0080796D02*
X0250958Y0080796D01*
X0250958Y0080758D02*
X0246234Y0080758D01*
X0246234Y0080720D02*
X0250958Y0080720D01*
X0250958Y0080682D02*
X0246234Y0080682D01*
X0246234Y0080644D02*
X0250958Y0080644D01*
X0250958Y0080606D02*
X0246234Y0080606D01*
X0246234Y0080569D02*
X0250958Y0080569D01*
X0250958Y0080531D02*
X0246234Y0080531D01*
X0246234Y0080493D02*
X0250958Y0080493D01*
X0250958Y0080455D02*
X0246234Y0080455D01*
X0246234Y0080417D02*
X0250958Y0080417D01*
X0250958Y0080379D02*
X0246234Y0080379D01*
X0246234Y0080341D02*
X0250958Y0080341D01*
X0250958Y0080303D02*
X0246234Y0080303D01*
X0246234Y0080266D02*
X0250958Y0080266D01*
X0250958Y0080228D02*
X0246234Y0080228D01*
X0246234Y0080190D02*
X0250958Y0080190D01*
X0250958Y0080152D02*
X0246234Y0080152D01*
X0246234Y0080114D02*
X0250958Y0080114D01*
X0250958Y0080076D02*
X0246234Y0080076D01*
X0246234Y0080038D02*
X0250958Y0080038D01*
X0250958Y0080000D02*
X0246234Y0080000D01*
X0246234Y0079962D02*
X0250958Y0079962D01*
X0250958Y0079925D02*
X0246234Y0079925D01*
X0246234Y0079887D02*
X0250958Y0079887D01*
X0250958Y0079849D02*
X0246234Y0079849D01*
X0246234Y0079811D02*
X0250958Y0079811D01*
X0250958Y0079773D02*
X0246234Y0079773D01*
X0246234Y0079735D02*
X0250958Y0079735D01*
X0250958Y0079697D02*
X0246234Y0079697D01*
X0246234Y0079659D02*
X0250958Y0079659D01*
X0250958Y0079622D02*
X0246234Y0079622D01*
X0246234Y0079584D02*
X0250958Y0079584D01*
X0250958Y0079546D02*
X0246234Y0079546D01*
X0246234Y0079508D02*
X0250958Y0079508D01*
X0250958Y0079470D02*
X0246234Y0079470D01*
X0246234Y0079432D02*
X0250958Y0079432D01*
X0250958Y0079394D02*
X0246234Y0079394D01*
X0246234Y0079356D02*
X0250958Y0079356D01*
X0250958Y0079318D02*
X0246234Y0079318D01*
X0246234Y0079281D02*
X0250958Y0079281D01*
X0250958Y0079243D02*
X0246234Y0079243D01*
X0246234Y0079205D02*
X0250958Y0079205D01*
X0250958Y0079167D02*
X0246234Y0079167D01*
X0246234Y0079129D02*
X0250958Y0079129D01*
X0250958Y0079091D02*
X0246234Y0079091D01*
X0246234Y0079053D02*
X0250958Y0079053D01*
X0250958Y0079015D02*
X0246234Y0079015D01*
X0246234Y0078978D02*
X0250958Y0078978D01*
X0250958Y0078940D02*
X0246234Y0078940D01*
X0246234Y0078902D02*
X0250958Y0078902D01*
X0250958Y0078864D02*
X0246234Y0078864D01*
X0246234Y0078826D02*
X0250958Y0078826D01*
X0250958Y0078788D02*
X0246234Y0078788D01*
X0246234Y0078750D02*
X0250958Y0078750D01*
X0250956Y0078712D02*
X0246237Y0078712D01*
X0246242Y0078674D02*
X0250952Y0078674D01*
X0250948Y0078637D02*
X0246246Y0078637D01*
X0246251Y0078599D02*
X0250944Y0078599D01*
X0250940Y0078561D02*
X0246255Y0078561D01*
X0246259Y0078523D02*
X0250936Y0078523D01*
X0250932Y0078485D02*
X0246264Y0078485D01*
X0246268Y0078447D02*
X0250928Y0078447D01*
X0250925Y0078409D02*
X0246273Y0078409D01*
X0246277Y0078371D02*
X0250921Y0078371D01*
X0250917Y0078334D02*
X0246282Y0078334D01*
X0246286Y0078296D02*
X0250913Y0078296D01*
X0250904Y0078258D02*
X0246290Y0078258D01*
X0246295Y0078220D02*
X0250892Y0078220D01*
X0250881Y0078182D02*
X0246308Y0078182D01*
X0246321Y0078144D02*
X0250869Y0078144D01*
X0250857Y0078106D02*
X0246335Y0078106D01*
X0246348Y0078068D02*
X0250846Y0078068D01*
X0250834Y0078031D02*
X0246361Y0078031D01*
X0246375Y0077993D02*
X0250822Y0077993D01*
X0250811Y0077955D02*
X0246388Y0077955D01*
X0246402Y0077917D02*
X0250799Y0077917D01*
X0250787Y0077879D02*
X0246415Y0077879D01*
X0246471Y0077720D02*
X0246753Y0077276D01*
X0247127Y0076905D01*
X0247575Y0076626D01*
X0248073Y0076454D01*
X0248596Y0076398D01*
X0249055Y0076441D01*
X0249497Y0076573D01*
X0249905Y0076789D01*
X0250263Y0077080D01*
X0250557Y0077435D01*
X0250776Y0077841D01*
X0250674Y0077652D02*
X0246515Y0077652D01*
X0246539Y0077614D02*
X0250653Y0077614D01*
X0250633Y0077576D02*
X0246563Y0077576D01*
X0246587Y0077538D02*
X0250612Y0077538D01*
X0250592Y0077500D02*
X0246611Y0077500D01*
X0246635Y0077462D02*
X0250571Y0077462D01*
X0250548Y0077424D02*
X0246659Y0077424D01*
X0246683Y0077387D02*
X0250517Y0077387D01*
X0250485Y0077349D02*
X0246707Y0077349D01*
X0246731Y0077311D02*
X0250454Y0077311D01*
X0250422Y0077273D02*
X0246756Y0077273D01*
X0246794Y0077235D02*
X0250391Y0077235D01*
X0250360Y0077197D02*
X0246833Y0077197D01*
X0246871Y0077159D02*
X0250328Y0077159D01*
X0250297Y0077121D02*
X0246909Y0077121D01*
X0246947Y0077083D02*
X0250266Y0077083D01*
X0250221Y0077046D02*
X0246985Y0077046D01*
X0247024Y0077008D02*
X0250174Y0077008D01*
X0250128Y0076970D02*
X0247062Y0076970D01*
X0247100Y0076932D02*
X0250081Y0076932D01*
X0250034Y0076894D02*
X0247145Y0076894D01*
X0247205Y0076856D02*
X0249988Y0076856D01*
X0249941Y0076818D02*
X0247266Y0076818D01*
X0247327Y0076780D02*
X0249889Y0076780D01*
X0249818Y0076743D02*
X0247388Y0076743D01*
X0247449Y0076705D02*
X0249746Y0076705D01*
X0249675Y0076667D02*
X0247510Y0076667D01*
X0247571Y0076629D02*
X0249603Y0076629D01*
X0249531Y0076591D02*
X0247677Y0076591D01*
X0247787Y0076553D02*
X0249431Y0076553D01*
X0249304Y0076515D02*
X0247896Y0076515D01*
X0248006Y0076477D02*
X0249177Y0076477D01*
X0249040Y0076439D02*
X0248210Y0076439D01*
X0248560Y0076402D02*
X0248638Y0076402D01*
X0216943Y0078740D02*
X0216896Y0078281D01*
X0216760Y0077841D01*
X0212413Y0077841D01*
X0212426Y0077803D02*
X0216740Y0077803D01*
X0216760Y0077841D02*
X0216541Y0077435D01*
X0216247Y0077080D01*
X0215889Y0076789D01*
X0215481Y0076573D01*
X0215040Y0076441D01*
X0214581Y0076398D01*
X0214057Y0076454D01*
X0213559Y0076626D01*
X0213112Y0076905D01*
X0212738Y0077276D01*
X0212456Y0077720D01*
X0212280Y0078217D01*
X0212218Y0078740D01*
X0212218Y0081102D01*
X0212276Y0081630D01*
X0212449Y0082133D01*
X0212730Y0082583D01*
X0213104Y0082961D01*
X0213552Y0083245D01*
X0214053Y0083423D01*
X0214581Y0083484D01*
X0215043Y0083437D01*
X0215488Y0083300D01*
X0215897Y0083079D01*
X0216255Y0082783D01*
X0216548Y0082422D01*
X0216766Y0082011D01*
X0216899Y0081565D01*
X0216943Y0081102D01*
X0216943Y0078740D01*
X0216943Y0078750D02*
X0212218Y0078750D01*
X0212222Y0078712D02*
X0216940Y0078712D01*
X0216936Y0078674D02*
X0212226Y0078674D01*
X0212230Y0078637D02*
X0216932Y0078637D01*
X0216928Y0078599D02*
X0212235Y0078599D01*
X0212239Y0078561D02*
X0216924Y0078561D01*
X0216920Y0078523D02*
X0212244Y0078523D01*
X0212248Y0078485D02*
X0216917Y0078485D01*
X0216913Y0078447D02*
X0212253Y0078447D01*
X0212257Y0078409D02*
X0216909Y0078409D01*
X0216905Y0078371D02*
X0212261Y0078371D01*
X0212266Y0078334D02*
X0216901Y0078334D01*
X0216897Y0078296D02*
X0212270Y0078296D01*
X0212275Y0078258D02*
X0216888Y0078258D01*
X0216877Y0078220D02*
X0212279Y0078220D01*
X0212292Y0078182D02*
X0216865Y0078182D01*
X0216853Y0078144D02*
X0212305Y0078144D01*
X0212319Y0078106D02*
X0216842Y0078106D01*
X0216830Y0078068D02*
X0212332Y0078068D01*
X0212346Y0078031D02*
X0216818Y0078031D01*
X0216807Y0077993D02*
X0212359Y0077993D01*
X0212372Y0077955D02*
X0216795Y0077955D01*
X0216783Y0077917D02*
X0212386Y0077917D01*
X0212399Y0077879D02*
X0216772Y0077879D01*
X0216719Y0077765D02*
X0212440Y0077765D01*
X0212453Y0077727D02*
X0216699Y0077727D01*
X0216678Y0077690D02*
X0212475Y0077690D01*
X0212499Y0077652D02*
X0216658Y0077652D01*
X0216637Y0077614D02*
X0212523Y0077614D01*
X0212547Y0077576D02*
X0216617Y0077576D01*
X0216597Y0077538D02*
X0212571Y0077538D01*
X0212595Y0077500D02*
X0216576Y0077500D01*
X0216556Y0077462D02*
X0212619Y0077462D01*
X0212643Y0077424D02*
X0216532Y0077424D01*
X0216501Y0077387D02*
X0212667Y0077387D01*
X0212691Y0077349D02*
X0216469Y0077349D01*
X0216438Y0077311D02*
X0212715Y0077311D01*
X0212740Y0077273D02*
X0216407Y0077273D01*
X0216375Y0077235D02*
X0212779Y0077235D01*
X0212817Y0077197D02*
X0216344Y0077197D01*
X0216313Y0077159D02*
X0212855Y0077159D01*
X0212893Y0077121D02*
X0216281Y0077121D01*
X0216250Y0077083D02*
X0212931Y0077083D01*
X0212970Y0077046D02*
X0216205Y0077046D01*
X0216158Y0077008D02*
X0213008Y0077008D01*
X0213046Y0076970D02*
X0216112Y0076970D01*
X0216065Y0076932D02*
X0213084Y0076932D01*
X0213129Y0076894D02*
X0216019Y0076894D01*
X0215972Y0076856D02*
X0213190Y0076856D01*
X0213251Y0076818D02*
X0215926Y0076818D01*
X0215874Y0076780D02*
X0213311Y0076780D01*
X0213372Y0076743D02*
X0215802Y0076743D01*
X0215730Y0076705D02*
X0213433Y0076705D01*
X0213494Y0076667D02*
X0215659Y0076667D01*
X0215587Y0076629D02*
X0213555Y0076629D01*
X0213661Y0076591D02*
X0215516Y0076591D01*
X0215415Y0076553D02*
X0213771Y0076553D01*
X0213881Y0076515D02*
X0215288Y0076515D01*
X0215162Y0076477D02*
X0213990Y0076477D01*
X0214195Y0076439D02*
X0215025Y0076439D01*
X0214623Y0076402D02*
X0214544Y0076402D01*
X0212218Y0078788D02*
X0216943Y0078788D01*
X0216943Y0078826D02*
X0212218Y0078826D01*
X0212218Y0078864D02*
X0216943Y0078864D01*
X0216943Y0078902D02*
X0212218Y0078902D01*
X0212218Y0078940D02*
X0216943Y0078940D01*
X0216943Y0078978D02*
X0212218Y0078978D01*
X0212218Y0079015D02*
X0216943Y0079015D01*
X0216943Y0079053D02*
X0212218Y0079053D01*
X0212218Y0079091D02*
X0216943Y0079091D01*
X0216943Y0079129D02*
X0212218Y0079129D01*
X0212218Y0079167D02*
X0216943Y0079167D01*
X0216943Y0079205D02*
X0212218Y0079205D01*
X0212218Y0079243D02*
X0216943Y0079243D01*
X0216943Y0079281D02*
X0212218Y0079281D01*
X0212218Y0079318D02*
X0216943Y0079318D01*
X0216943Y0079356D02*
X0212218Y0079356D01*
X0212218Y0079394D02*
X0216943Y0079394D01*
X0216943Y0079432D02*
X0212218Y0079432D01*
X0212218Y0079470D02*
X0216943Y0079470D01*
X0216943Y0079508D02*
X0212218Y0079508D01*
X0212218Y0079546D02*
X0216943Y0079546D01*
X0216943Y0079584D02*
X0212218Y0079584D01*
X0212218Y0079622D02*
X0216943Y0079622D01*
X0216943Y0079659D02*
X0212218Y0079659D01*
X0212218Y0079697D02*
X0216943Y0079697D01*
X0216943Y0079735D02*
X0212218Y0079735D01*
X0212218Y0079773D02*
X0216943Y0079773D01*
X0216943Y0079811D02*
X0212218Y0079811D01*
X0212218Y0079849D02*
X0216943Y0079849D01*
X0216943Y0079887D02*
X0212218Y0079887D01*
X0212218Y0079925D02*
X0216943Y0079925D01*
X0216943Y0079962D02*
X0212218Y0079962D01*
X0212218Y0080000D02*
X0216943Y0080000D01*
X0216943Y0080038D02*
X0212218Y0080038D01*
X0212218Y0080076D02*
X0216943Y0080076D01*
X0216943Y0080114D02*
X0212218Y0080114D01*
X0212218Y0080152D02*
X0216943Y0080152D01*
X0216943Y0080190D02*
X0212218Y0080190D01*
X0212218Y0080228D02*
X0216943Y0080228D01*
X0216943Y0080266D02*
X0212218Y0080266D01*
X0212218Y0080303D02*
X0216943Y0080303D01*
X0216943Y0080341D02*
X0212218Y0080341D01*
X0212218Y0080379D02*
X0216943Y0080379D01*
X0216943Y0080417D02*
X0212218Y0080417D01*
X0212218Y0080455D02*
X0216943Y0080455D01*
X0216943Y0080493D02*
X0212218Y0080493D01*
X0212218Y0080531D02*
X0216943Y0080531D01*
X0216943Y0080569D02*
X0212218Y0080569D01*
X0212218Y0080606D02*
X0216943Y0080606D01*
X0216943Y0080644D02*
X0212218Y0080644D01*
X0212218Y0080682D02*
X0216943Y0080682D01*
X0216943Y0080720D02*
X0212218Y0080720D01*
X0212218Y0080758D02*
X0216943Y0080758D01*
X0216943Y0080796D02*
X0212218Y0080796D01*
X0212218Y0080834D02*
X0216943Y0080834D01*
X0216943Y0080872D02*
X0212218Y0080872D01*
X0212218Y0080909D02*
X0216943Y0080909D01*
X0216943Y0080947D02*
X0212218Y0080947D01*
X0212218Y0080985D02*
X0216943Y0080985D01*
X0216943Y0081023D02*
X0212218Y0081023D01*
X0212218Y0081061D02*
X0216943Y0081061D01*
X0216943Y0081099D02*
X0212218Y0081099D01*
X0212222Y0081137D02*
X0216939Y0081137D01*
X0216936Y0081175D02*
X0212226Y0081175D01*
X0212230Y0081213D02*
X0216932Y0081213D01*
X0216929Y0081250D02*
X0212234Y0081250D01*
X0212238Y0081288D02*
X0216925Y0081288D01*
X0216922Y0081326D02*
X0212243Y0081326D01*
X0212247Y0081364D02*
X0216918Y0081364D01*
X0216914Y0081402D02*
X0212251Y0081402D01*
X0212255Y0081440D02*
X0216911Y0081440D01*
X0216907Y0081478D02*
X0212259Y0081478D01*
X0212263Y0081516D02*
X0216904Y0081516D01*
X0216900Y0081553D02*
X0212267Y0081553D01*
X0212271Y0081591D02*
X0216891Y0081591D01*
X0216880Y0081629D02*
X0212275Y0081629D01*
X0212288Y0081667D02*
X0216869Y0081667D01*
X0216857Y0081705D02*
X0212301Y0081705D01*
X0212314Y0081743D02*
X0216846Y0081743D01*
X0216835Y0081781D02*
X0212328Y0081781D01*
X0212341Y0081819D02*
X0216823Y0081819D01*
X0216812Y0081857D02*
X0212354Y0081857D01*
X0212367Y0081894D02*
X0216801Y0081894D01*
X0216789Y0081932D02*
X0212380Y0081932D01*
X0212393Y0081970D02*
X0216778Y0081970D01*
X0216767Y0082008D02*
X0212406Y0082008D01*
X0212419Y0082046D02*
X0216747Y0082046D01*
X0216727Y0082084D02*
X0212432Y0082084D01*
X0212445Y0082122D02*
X0216707Y0082122D01*
X0216687Y0082160D02*
X0212466Y0082160D01*
X0212489Y0082197D02*
X0216667Y0082197D01*
X0216647Y0082235D02*
X0212513Y0082235D01*
X0212537Y0082273D02*
X0216627Y0082273D01*
X0216607Y0082311D02*
X0212560Y0082311D01*
X0212584Y0082349D02*
X0216587Y0082349D01*
X0216567Y0082387D02*
X0212607Y0082387D01*
X0212631Y0082425D02*
X0216546Y0082425D01*
X0216515Y0082463D02*
X0212654Y0082463D01*
X0212678Y0082501D02*
X0216484Y0082501D01*
X0216454Y0082538D02*
X0212702Y0082538D01*
X0212725Y0082576D02*
X0216423Y0082576D01*
X0216392Y0082614D02*
X0212760Y0082614D01*
X0212798Y0082652D02*
X0216361Y0082652D01*
X0216330Y0082690D02*
X0212835Y0082690D01*
X0212873Y0082728D02*
X0216299Y0082728D01*
X0216269Y0082766D02*
X0212910Y0082766D01*
X0212948Y0082804D02*
X0216230Y0082804D01*
X0216184Y0082841D02*
X0212986Y0082841D01*
X0213023Y0082879D02*
X0216138Y0082879D01*
X0216092Y0082917D02*
X0213061Y0082917D01*
X0213098Y0082955D02*
X0216046Y0082955D01*
X0216001Y0082993D02*
X0213155Y0082993D01*
X0213215Y0083031D02*
X0215955Y0083031D01*
X0215909Y0083069D02*
X0213274Y0083069D01*
X0213334Y0083107D02*
X0215846Y0083107D01*
X0215775Y0083145D02*
X0213394Y0083145D01*
X0213453Y0083182D02*
X0215705Y0083182D01*
X0215635Y0083220D02*
X0213513Y0083220D01*
X0213589Y0083258D02*
X0215565Y0083258D01*
X0215495Y0083296D02*
X0213696Y0083296D01*
X0213803Y0083334D02*
X0215377Y0083334D01*
X0215254Y0083372D02*
X0213910Y0083372D01*
X0214017Y0083410D02*
X0215131Y0083410D01*
X0214938Y0083448D02*
X0214267Y0083448D01*
X0214581Y0091870D02*
X0214076Y0091902D01*
X0213592Y0092046D01*
X0213152Y0092294D01*
X0212778Y0092634D01*
X0212489Y0093049D01*
X0212299Y0093517D01*
X0212218Y0094016D01*
X0212218Y0098740D01*
X0212279Y0099182D01*
X0212425Y0099603D01*
X0212651Y0099988D01*
X0212947Y0100322D01*
X0213302Y0100591D01*
X0213704Y0100786D01*
X0214135Y0100899D01*
X0214581Y0100925D01*
X0215026Y0100899D01*
X0215457Y0100786D01*
X0215859Y0100591D01*
X0216214Y0100322D01*
X0216510Y0099988D01*
X0216736Y0099603D01*
X0216882Y0099182D01*
X0216943Y0098740D01*
X0216943Y0094016D01*
X0216862Y0093517D01*
X0216673Y0093049D01*
X0216384Y0092634D01*
X0216009Y0092294D01*
X0215569Y0092046D01*
X0215085Y0091902D01*
X0214581Y0091870D01*
X0214970Y0091895D02*
X0214191Y0091895D01*
X0213974Y0091933D02*
X0215187Y0091933D01*
X0215315Y0091971D02*
X0213846Y0091971D01*
X0213718Y0092009D02*
X0215443Y0092009D01*
X0215570Y0092047D02*
X0213591Y0092047D01*
X0213524Y0092085D02*
X0215637Y0092085D01*
X0215704Y0092122D02*
X0213457Y0092122D01*
X0213390Y0092160D02*
X0215772Y0092160D01*
X0215839Y0092198D02*
X0213322Y0092198D01*
X0213255Y0092236D02*
X0215906Y0092236D01*
X0215973Y0092274D02*
X0213188Y0092274D01*
X0213132Y0092312D02*
X0216029Y0092312D01*
X0216070Y0092350D02*
X0213091Y0092350D01*
X0213049Y0092388D02*
X0216112Y0092388D01*
X0216154Y0092425D02*
X0213007Y0092425D01*
X0212966Y0092463D02*
X0216196Y0092463D01*
X0216237Y0092501D02*
X0212924Y0092501D01*
X0212882Y0092539D02*
X0216279Y0092539D01*
X0216321Y0092577D02*
X0212840Y0092577D01*
X0212799Y0092615D02*
X0216362Y0092615D01*
X0216397Y0092653D02*
X0212765Y0092653D01*
X0212738Y0092691D02*
X0216423Y0092691D01*
X0216449Y0092728D02*
X0212712Y0092728D01*
X0212685Y0092766D02*
X0216476Y0092766D01*
X0216502Y0092804D02*
X0212659Y0092804D01*
X0212632Y0092842D02*
X0216529Y0092842D01*
X0216555Y0092880D02*
X0212606Y0092880D01*
X0212580Y0092918D02*
X0216581Y0092918D01*
X0216608Y0092956D02*
X0212553Y0092956D01*
X0212527Y0092994D02*
X0216634Y0092994D01*
X0216661Y0093032D02*
X0212500Y0093032D01*
X0212480Y0093069D02*
X0216681Y0093069D01*
X0216696Y0093107D02*
X0212465Y0093107D01*
X0212449Y0093145D02*
X0216712Y0093145D01*
X0216727Y0093183D02*
X0212434Y0093183D01*
X0212419Y0093221D02*
X0216742Y0093221D01*
X0216758Y0093259D02*
X0212403Y0093259D01*
X0212388Y0093297D02*
X0216773Y0093297D01*
X0216788Y0093335D02*
X0212373Y0093335D01*
X0212357Y0093372D02*
X0216804Y0093372D01*
X0216819Y0093410D02*
X0212342Y0093410D01*
X0212327Y0093448D02*
X0216834Y0093448D01*
X0216850Y0093486D02*
X0212311Y0093486D01*
X0212298Y0093524D02*
X0216863Y0093524D01*
X0216869Y0093562D02*
X0212292Y0093562D01*
X0212286Y0093600D02*
X0216876Y0093600D01*
X0216882Y0093638D02*
X0212279Y0093638D01*
X0212273Y0093676D02*
X0216888Y0093676D01*
X0216894Y0093713D02*
X0212267Y0093713D01*
X0212261Y0093751D02*
X0216900Y0093751D01*
X0216906Y0093789D02*
X0212255Y0093789D01*
X0212249Y0093827D02*
X0216912Y0093827D01*
X0216918Y0093865D02*
X0212243Y0093865D01*
X0212237Y0093903D02*
X0216924Y0093903D01*
X0216931Y0093941D02*
X0212230Y0093941D01*
X0212224Y0093979D02*
X0216937Y0093979D01*
X0216943Y0094016D02*
X0212218Y0094016D01*
X0212218Y0094054D02*
X0216943Y0094054D01*
X0216943Y0094092D02*
X0212218Y0094092D01*
X0212218Y0094130D02*
X0216943Y0094130D01*
X0216943Y0094168D02*
X0212218Y0094168D01*
X0212218Y0094206D02*
X0216943Y0094206D01*
X0216943Y0094244D02*
X0212218Y0094244D01*
X0212218Y0094282D02*
X0216943Y0094282D01*
X0216943Y0094320D02*
X0212218Y0094320D01*
X0212218Y0094357D02*
X0216943Y0094357D01*
X0216943Y0094395D02*
X0212218Y0094395D01*
X0212218Y0094433D02*
X0216943Y0094433D01*
X0216943Y0094471D02*
X0212218Y0094471D01*
X0212218Y0094509D02*
X0216943Y0094509D01*
X0216943Y0094547D02*
X0212218Y0094547D01*
X0212218Y0094585D02*
X0216943Y0094585D01*
X0216943Y0094623D02*
X0212218Y0094623D01*
X0212218Y0094660D02*
X0216943Y0094660D01*
X0216943Y0094698D02*
X0212218Y0094698D01*
X0212218Y0094736D02*
X0216943Y0094736D01*
X0216943Y0094774D02*
X0212218Y0094774D01*
X0212218Y0094812D02*
X0216943Y0094812D01*
X0216943Y0094850D02*
X0212218Y0094850D01*
X0212218Y0094888D02*
X0216943Y0094888D01*
X0216943Y0094926D02*
X0212218Y0094926D01*
X0212218Y0094963D02*
X0216943Y0094963D01*
X0216943Y0095001D02*
X0212218Y0095001D01*
X0212218Y0095039D02*
X0216943Y0095039D01*
X0216943Y0095077D02*
X0212218Y0095077D01*
X0212218Y0095115D02*
X0216943Y0095115D01*
X0216943Y0095153D02*
X0212218Y0095153D01*
X0212218Y0095191D02*
X0216943Y0095191D01*
X0216943Y0095229D02*
X0212218Y0095229D01*
X0212218Y0095267D02*
X0216943Y0095267D01*
X0216943Y0095304D02*
X0212218Y0095304D01*
X0212218Y0095342D02*
X0216943Y0095342D01*
X0216943Y0095380D02*
X0212218Y0095380D01*
X0212218Y0095418D02*
X0216943Y0095418D01*
X0216943Y0095456D02*
X0212218Y0095456D01*
X0212218Y0095494D02*
X0216943Y0095494D01*
X0216943Y0095532D02*
X0212218Y0095532D01*
X0212218Y0095570D02*
X0216943Y0095570D01*
X0216943Y0095607D02*
X0212218Y0095607D01*
X0212218Y0095645D02*
X0216943Y0095645D01*
X0216943Y0095683D02*
X0212218Y0095683D01*
X0212218Y0095721D02*
X0216943Y0095721D01*
X0216943Y0095759D02*
X0212218Y0095759D01*
X0212218Y0095797D02*
X0216943Y0095797D01*
X0216943Y0095835D02*
X0212218Y0095835D01*
X0212218Y0095873D02*
X0216943Y0095873D01*
X0216943Y0095911D02*
X0212218Y0095911D01*
X0212218Y0095948D02*
X0216943Y0095948D01*
X0216943Y0095986D02*
X0212218Y0095986D01*
X0212218Y0096024D02*
X0216943Y0096024D01*
X0216943Y0096062D02*
X0212218Y0096062D01*
X0212218Y0096100D02*
X0216943Y0096100D01*
X0216943Y0096138D02*
X0212218Y0096138D01*
X0212218Y0096176D02*
X0216943Y0096176D01*
X0216943Y0096214D02*
X0212218Y0096214D01*
X0212218Y0096251D02*
X0216943Y0096251D01*
X0216943Y0096289D02*
X0212218Y0096289D01*
X0212218Y0096327D02*
X0216943Y0096327D01*
X0216943Y0096365D02*
X0212218Y0096365D01*
X0212218Y0096403D02*
X0216943Y0096403D01*
X0216943Y0096441D02*
X0212218Y0096441D01*
X0212218Y0096479D02*
X0216943Y0096479D01*
X0216943Y0096517D02*
X0212218Y0096517D01*
X0212218Y0096555D02*
X0216943Y0096555D01*
X0216943Y0096592D02*
X0212218Y0096592D01*
X0212218Y0096630D02*
X0216943Y0096630D01*
X0216943Y0096668D02*
X0212218Y0096668D01*
X0212218Y0096706D02*
X0216943Y0096706D01*
X0216943Y0096744D02*
X0212218Y0096744D01*
X0212218Y0096782D02*
X0216943Y0096782D01*
X0216943Y0096820D02*
X0212218Y0096820D01*
X0212218Y0096858D02*
X0216943Y0096858D01*
X0216943Y0096895D02*
X0212218Y0096895D01*
X0212218Y0096933D02*
X0216943Y0096933D01*
X0216943Y0096971D02*
X0212218Y0096971D01*
X0212218Y0097009D02*
X0216943Y0097009D01*
X0216943Y0097047D02*
X0212218Y0097047D01*
X0212218Y0097085D02*
X0216943Y0097085D01*
X0216943Y0097123D02*
X0212218Y0097123D01*
X0212218Y0097161D02*
X0216943Y0097161D01*
X0216943Y0097198D02*
X0212218Y0097198D01*
X0212218Y0097236D02*
X0216943Y0097236D01*
X0216943Y0097274D02*
X0212218Y0097274D01*
X0212218Y0097312D02*
X0216943Y0097312D01*
X0216943Y0097350D02*
X0212218Y0097350D01*
X0212218Y0097388D02*
X0216943Y0097388D01*
X0216943Y0097426D02*
X0212218Y0097426D01*
X0212218Y0097464D02*
X0216943Y0097464D01*
X0216943Y0097502D02*
X0212218Y0097502D01*
X0212218Y0097539D02*
X0216943Y0097539D01*
X0216943Y0097577D02*
X0212218Y0097577D01*
X0212218Y0097615D02*
X0216943Y0097615D01*
X0216943Y0097653D02*
X0212218Y0097653D01*
X0212218Y0097691D02*
X0216943Y0097691D01*
X0216943Y0097729D02*
X0212218Y0097729D01*
X0212218Y0097767D02*
X0216943Y0097767D01*
X0216943Y0097805D02*
X0212218Y0097805D01*
X0212218Y0097842D02*
X0216943Y0097842D01*
X0216943Y0097880D02*
X0212218Y0097880D01*
X0212218Y0097918D02*
X0216943Y0097918D01*
X0216943Y0097956D02*
X0212218Y0097956D01*
X0212218Y0097994D02*
X0216943Y0097994D01*
X0216943Y0098032D02*
X0212218Y0098032D01*
X0212218Y0098070D02*
X0216943Y0098070D01*
X0216943Y0098108D02*
X0212218Y0098108D01*
X0212218Y0098146D02*
X0216943Y0098146D01*
X0216943Y0098183D02*
X0212218Y0098183D01*
X0212218Y0098221D02*
X0216943Y0098221D01*
X0216943Y0098259D02*
X0212218Y0098259D01*
X0212218Y0098297D02*
X0216943Y0098297D01*
X0216943Y0098335D02*
X0212218Y0098335D01*
X0212218Y0098373D02*
X0216943Y0098373D01*
X0216943Y0098411D02*
X0212218Y0098411D01*
X0212218Y0098449D02*
X0216943Y0098449D01*
X0216943Y0098486D02*
X0212218Y0098486D01*
X0212218Y0098524D02*
X0216943Y0098524D01*
X0216943Y0098562D02*
X0212218Y0098562D01*
X0212218Y0098600D02*
X0216943Y0098600D01*
X0216943Y0098638D02*
X0212218Y0098638D01*
X0212218Y0098676D02*
X0216943Y0098676D01*
X0216943Y0098714D02*
X0212218Y0098714D01*
X0212220Y0098752D02*
X0216941Y0098752D01*
X0216936Y0098790D02*
X0212225Y0098790D01*
X0212230Y0098827D02*
X0216931Y0098827D01*
X0216925Y0098865D02*
X0212236Y0098865D01*
X0212241Y0098903D02*
X0216920Y0098903D01*
X0216915Y0098941D02*
X0212246Y0098941D01*
X0212251Y0098979D02*
X0216910Y0098979D01*
X0216905Y0099017D02*
X0212256Y0099017D01*
X0212262Y0099055D02*
X0216899Y0099055D01*
X0216894Y0099093D02*
X0212267Y0099093D01*
X0212272Y0099130D02*
X0216889Y0099130D01*
X0216884Y0099168D02*
X0212277Y0099168D01*
X0212288Y0099206D02*
X0216873Y0099206D01*
X0216860Y0099244D02*
X0212301Y0099244D01*
X0212314Y0099282D02*
X0216847Y0099282D01*
X0216834Y0099320D02*
X0212327Y0099320D01*
X0212340Y0099358D02*
X0216821Y0099358D01*
X0216808Y0099396D02*
X0212353Y0099396D01*
X0212366Y0099434D02*
X0216795Y0099434D01*
X0216782Y0099471D02*
X0212380Y0099471D01*
X0212393Y0099509D02*
X0216768Y0099509D01*
X0216755Y0099547D02*
X0212406Y0099547D01*
X0212419Y0099585D02*
X0216742Y0099585D01*
X0216724Y0099623D02*
X0212437Y0099623D01*
X0212459Y0099661D02*
X0216702Y0099661D01*
X0216680Y0099699D02*
X0212481Y0099699D01*
X0212503Y0099737D02*
X0216658Y0099737D01*
X0216636Y0099774D02*
X0212525Y0099774D01*
X0212548Y0099812D02*
X0216613Y0099812D01*
X0216591Y0099850D02*
X0212570Y0099850D01*
X0212592Y0099888D02*
X0216569Y0099888D01*
X0216547Y0099926D02*
X0212614Y0099926D01*
X0212636Y0099964D02*
X0216525Y0099964D01*
X0216498Y0100002D02*
X0212663Y0100002D01*
X0212696Y0100040D02*
X0216465Y0100040D01*
X0216431Y0100077D02*
X0212730Y0100077D01*
X0212763Y0100115D02*
X0216398Y0100115D01*
X0216364Y0100153D02*
X0212797Y0100153D01*
X0212831Y0100191D02*
X0216330Y0100191D01*
X0216297Y0100229D02*
X0212864Y0100229D01*
X0212898Y0100267D02*
X0216263Y0100267D01*
X0216229Y0100305D02*
X0212932Y0100305D01*
X0212974Y0100343D02*
X0216187Y0100343D01*
X0216137Y0100381D02*
X0213024Y0100381D01*
X0213074Y0100418D02*
X0216087Y0100418D01*
X0216037Y0100456D02*
X0213124Y0100456D01*
X0213174Y0100494D02*
X0215987Y0100494D01*
X0215937Y0100532D02*
X0213224Y0100532D01*
X0213274Y0100570D02*
X0215887Y0100570D01*
X0215824Y0100608D02*
X0213337Y0100608D01*
X0213415Y0100646D02*
X0215746Y0100646D01*
X0215668Y0100684D02*
X0213493Y0100684D01*
X0213571Y0100721D02*
X0215590Y0100721D01*
X0215512Y0100759D02*
X0213649Y0100759D01*
X0213747Y0100797D02*
X0215414Y0100797D01*
X0215269Y0100835D02*
X0213892Y0100835D01*
X0214037Y0100873D02*
X0215125Y0100873D01*
X0214822Y0100911D02*
X0214339Y0100911D01*
M02*
