G75*
%MOIN*%
%OFA0B0*%
%FSLAX25Y25*%
%IPPOS*%
%LPD*%
%AMOC8*
5,1,8,0,0,1.08239X$1,22.5*
%
%ADD10C,0.01000*%
%ADD11C,0.00800*%
%ADD12C,0.00500*%
%ADD13R,0.00157X0.17480*%
%ADD14R,0.00157X0.18425*%
%ADD15R,0.00157X0.19055*%
%ADD16R,0.00157X0.19685*%
%ADD17R,0.00157X0.20000*%
%ADD18R,0.00157X0.20315*%
%ADD19R,0.00157X0.20630*%
%ADD20R,0.00157X0.16378*%
%ADD21R,0.00157X0.03780*%
%ADD22R,0.00157X0.02992*%
%ADD23R,0.00157X0.02677*%
%ADD24R,0.00157X0.00630*%
%ADD25R,0.00157X0.02047*%
%ADD26R,0.00157X0.02520*%
%ADD27R,0.00157X0.03465*%
%ADD28R,0.00157X0.02835*%
%ADD29R,0.00157X0.02362*%
%ADD30R,0.00157X0.00472*%
%ADD31R,0.00157X0.01890*%
%ADD32R,0.00157X0.03150*%
%ADD33R,0.00157X0.01732*%
%ADD34R,0.00157X0.01575*%
%ADD35R,0.00157X0.03307*%
%ADD36R,0.00157X0.01417*%
%ADD37R,0.00157X0.01102*%
%ADD38R,0.00157X0.00945*%
%ADD39R,0.00157X0.03622*%
%ADD40R,0.00157X0.05197*%
%ADD41R,0.00157X0.00787*%
%ADD42R,0.00157X0.01260*%
%ADD43R,0.00157X0.05039*%
%ADD44R,0.00157X0.04724*%
%ADD45R,0.00157X0.00157*%
%ADD46R,0.00157X0.04094*%
%ADD47R,0.00157X0.00315*%
%ADD48R,0.00157X0.02205*%
%ADD49R,0.11772X0.00039*%
%ADD50R,0.12480X0.00079*%
%ADD51R,0.12874X0.00039*%
%ADD52R,0.13189X0.00079*%
%ADD53R,0.13504X0.00039*%
%ADD54R,0.13740X0.00039*%
%ADD55R,0.13976X0.00079*%
%ADD56R,0.14094X0.00039*%
%ADD57R,0.14291X0.00079*%
%ADD58R,0.14449X0.00039*%
%ADD59R,0.14567X0.00079*%
%ADD60R,0.14764X0.00039*%
%ADD61R,0.14843X0.00079*%
%ADD62R,0.15000X0.00039*%
%ADD63R,0.15079X0.00079*%
%ADD64R,0.15236X0.00039*%
%ADD65R,0.15315X0.00079*%
%ADD66R,0.15394X0.00039*%
%ADD67R,0.15512X0.00079*%
%ADD68R,0.15551X0.00039*%
%ADD69R,0.01772X0.00079*%
%ADD70R,0.00591X0.00079*%
%ADD71R,0.00157X0.00079*%
%ADD72R,0.01220X0.00079*%
%ADD73R,0.00118X0.00079*%
%ADD74R,0.00236X0.00079*%
%ADD75R,0.01339X0.00079*%
%ADD76R,0.01654X0.00079*%
%ADD77R,0.01575X0.00039*%
%ADD78R,0.00433X0.00039*%
%ADD79R,0.00118X0.00039*%
%ADD80R,0.01220X0.00039*%
%ADD81R,0.01181X0.00039*%
%ADD82R,0.00236X0.00039*%
%ADD83R,0.01693X0.00039*%
%ADD84R,0.01496X0.00079*%
%ADD85R,0.00315X0.00079*%
%ADD86R,0.00197X0.00079*%
%ADD87R,0.01102X0.00079*%
%ADD88R,0.01181X0.00079*%
%ADD89R,0.00984X0.00079*%
%ADD90R,0.01693X0.00079*%
%ADD91R,0.01457X0.00039*%
%ADD92R,0.00197X0.00039*%
%ADD93R,0.01102X0.00039*%
%ADD94R,0.00866X0.00039*%
%ADD95R,0.01772X0.00039*%
%ADD96R,0.01417X0.00079*%
%ADD97R,0.01024X0.00079*%
%ADD98R,0.00827X0.00079*%
%ADD99R,0.01811X0.00079*%
%ADD100R,0.01339X0.00039*%
%ADD101R,0.00079X0.00039*%
%ADD102R,0.00984X0.00039*%
%ADD103R,0.01024X0.00039*%
%ADD104R,0.00748X0.00039*%
%ADD105R,0.01811X0.00039*%
%ADD106R,0.01260X0.00079*%
%ADD107R,0.00709X0.00079*%
%ADD108R,0.01890X0.00079*%
%ADD109R,0.01299X0.00039*%
%ADD110R,0.00315X0.00039*%
%ADD111R,0.00591X0.00039*%
%ADD112R,0.01890X0.00039*%
%ADD113R,0.01299X0.00079*%
%ADD114R,0.00945X0.00079*%
%ADD115R,0.01929X0.00079*%
%ADD116R,0.00906X0.00039*%
%ADD117R,0.00512X0.00039*%
%ADD118R,0.01929X0.00039*%
%ADD119R,0.00354X0.00079*%
%ADD120R,0.00906X0.00079*%
%ADD121R,0.00866X0.00079*%
%ADD122R,0.00472X0.00079*%
%ADD123R,0.00354X0.00039*%
%ADD124R,0.00827X0.00039*%
%ADD125R,0.00394X0.00039*%
%ADD126R,0.02008X0.00039*%
%ADD127R,0.01142X0.00039*%
%ADD128R,0.00433X0.00079*%
%ADD129R,0.00748X0.00079*%
%ADD130R,0.00787X0.00079*%
%ADD131R,0.02008X0.00079*%
%ADD132R,0.00787X0.00039*%
%ADD133R,0.02323X0.00039*%
%ADD134R,0.00630X0.00079*%
%ADD135R,0.00669X0.00079*%
%ADD136R,0.00276X0.00079*%
%ADD137R,0.02441X0.00079*%
%ADD138R,0.00472X0.00039*%
%ADD139R,0.00669X0.00039*%
%ADD140R,0.00630X0.00039*%
%ADD141R,0.00276X0.00039*%
%ADD142R,0.02559X0.00039*%
%ADD143R,0.01142X0.00079*%
%ADD144R,0.02638X0.00079*%
%ADD145R,0.00551X0.00039*%
%ADD146R,0.02717X0.00039*%
%ADD147R,0.00551X0.00079*%
%ADD148R,0.00512X0.00079*%
%ADD149R,0.02756X0.00079*%
%ADD150R,0.02835X0.00039*%
%ADD151R,0.02835X0.00079*%
%ADD152R,0.00157X0.00039*%
%ADD153R,0.00079X0.00079*%
%ADD154R,0.00394X0.00079*%
%ADD155R,0.02874X0.00039*%
%ADD156R,0.02874X0.00079*%
%ADD157R,0.00709X0.00039*%
%ADD158R,0.01260X0.00039*%
%ADD159R,0.00039X0.00039*%
%ADD160R,0.00039X0.00079*%
%ADD161R,0.02677X0.00039*%
%ADD162R,0.02677X0.00079*%
%ADD163R,0.02638X0.00039*%
%ADD164R,0.02559X0.00079*%
%ADD165R,0.00945X0.00039*%
%ADD166R,0.02441X0.00039*%
%ADD167R,0.02283X0.00039*%
%ADD168R,0.01063X0.00039*%
%ADD169R,0.01063X0.00079*%
%ADD170R,0.01457X0.00079*%
%ADD171R,0.01378X0.00039*%
%ADD172R,0.02992X0.00079*%
%ADD173R,0.11496X0.00079*%
%ADD174R,0.02913X0.00039*%
%ADD175R,0.11457X0.00039*%
%ADD176R,0.11378X0.00079*%
%ADD177R,0.02795X0.00039*%
%ADD178R,0.11339X0.00039*%
%ADD179R,0.02795X0.00079*%
%ADD180R,0.11260X0.00079*%
%ADD181R,0.02756X0.00039*%
%ADD182R,0.11220X0.00039*%
%ADD183R,0.11142X0.00079*%
%ADD184R,0.11102X0.00039*%
%ADD185R,0.02520X0.00079*%
%ADD186R,0.11024X0.00079*%
%ADD187R,0.10906X0.00039*%
%ADD188R,0.02362X0.00079*%
%ADD189R,0.10866X0.00079*%
%ADD190R,0.10748X0.00039*%
%ADD191R,0.02165X0.00039*%
%ADD192R,0.10709X0.00039*%
%ADD193R,0.02047X0.00079*%
%ADD194R,0.10591X0.00079*%
%ADD195R,0.10472X0.00039*%
%ADD196R,0.10354X0.00079*%
%ADD197R,0.01654X0.00039*%
%ADD198R,0.10157X0.00039*%
%ADD199R,0.09882X0.00079*%
%ADD200R,0.00669X0.00118*%
%ADD201R,0.00276X0.00118*%
%ADD202R,0.00945X0.00118*%
%ADD203R,0.01535X0.00157*%
%ADD204R,0.00827X0.00157*%
%ADD205R,0.01654X0.00157*%
%ADD206R,0.02087X0.00118*%
%ADD207R,0.00827X0.00118*%
%ADD208R,0.02205X0.00118*%
%ADD209R,0.02480X0.00157*%
%ADD210R,0.00984X0.00157*%
%ADD211R,0.02598X0.00118*%
%ADD212R,0.00984X0.00118*%
%ADD213R,0.02756X0.00157*%
%ADD214R,0.02756X0.00118*%
%ADD215R,0.01220X0.00157*%
%ADD216R,0.00709X0.00157*%
%ADD217R,0.01102X0.00157*%
%ADD218R,0.01102X0.00118*%
%ADD219R,0.00157X0.00118*%
%ADD220R,0.03031X0.00157*%
%ADD221R,0.00945X0.00157*%
%ADD222R,0.01378X0.00157*%
%ADD223R,0.03031X0.00118*%
%ADD224R,0.01654X0.00118*%
%ADD225R,0.01378X0.00118*%
%ADD226R,0.00551X0.00157*%
%ADD227R,0.02913X0.00157*%
%ADD228R,0.02913X0.00118*%
%ADD229R,0.02323X0.00118*%
%ADD230R,0.02480X0.00118*%
%ADD231R,0.01929X0.00157*%
%ADD232R,0.00551X0.00118*%
%ADD233R,0.01535X0.00118*%
%ADD234R,0.00118X0.00157*%
%ADD235R,0.00276X0.00157*%
%ADD236R,0.01260X0.00118*%
%ADD237R,0.00433X0.00118*%
%ADD238R,0.02087X0.00157*%
%ADD239R,0.02362X0.00118*%
%ADD240R,0.02638X0.00118*%
%ADD241R,0.02638X0.00157*%
%ADD242R,0.01220X0.00118*%
%ADD243R,0.01772X0.00118*%
%ADD244R,0.03858X0.00157*%
%ADD245R,0.02874X0.00157*%
%ADD246R,0.03858X0.00118*%
%ADD247R,0.01811X0.00157*%
%ADD248R,0.02362X0.00157*%
%ADD249R,0.02598X0.00157*%
%ADD250R,0.00709X0.00118*%
%ADD251R,0.00669X0.00157*%
%ADD252R,0.01260X0.00157*%
%ADD253R,0.02205X0.00157*%
%ADD254R,0.02047X0.00118*%
%ADD255R,0.01496X0.00118*%
%ADD256R,0.01929X0.00118*%
%ADD257R,0.03425X0.00157*%
%ADD258R,0.03583X0.00157*%
%ADD259R,0.03583X0.00118*%
%ADD260R,0.03425X0.00118*%
%ADD261R,0.03307X0.00157*%
%ADD262R,0.01496X0.00157*%
%ADD263R,0.01772X0.00157*%
%ADD264R,0.02047X0.00157*%
%ADD265R,0.03150X0.00157*%
%ADD266R,0.03307X0.00118*%
%ADD267R,0.03465X0.00157*%
%ADD268R,0.02323X0.00157*%
%ADD269R,0.00394X0.00118*%
%ADD270R,0.00630X0.00157*%
%ADD271R,0.00787X0.00157*%
%ADD272R,0.00315X0.00157*%
%ADD273R,0.01417X0.00157*%
%ADD274R,0.01575X0.00157*%
%ADD275R,0.01732X0.00157*%
%ADD276R,0.01890X0.00157*%
%ADD277R,0.02520X0.00157*%
%ADD278R,0.04252X0.00157*%
%ADD279R,0.02835X0.00157*%
%ADD280R,0.04409X0.00157*%
%ADD281R,0.02992X0.00157*%
%ADD282R,0.03622X0.00157*%
%ADD283R,0.02677X0.00157*%
%ADD284R,0.03937X0.00157*%
%ADD285R,0.00472X0.00157*%
%ADD286R,0.04094X0.00157*%
%ADD287R,0.03780X0.00157*%
%ADD288R,0.00157X0.03937*%
%ADD289C,0.00039*%
%ADD290R,0.00118X0.00118*%
%ADD291R,0.02874X0.00118*%
D10*
X0182288Y0104000D02*
X0182288Y0108000D01*
X0180288Y0106000D02*
X0184288Y0106000D01*
X0198888Y0106000D02*
X0202888Y0106000D01*
X0175569Y0175898D02*
X0172569Y0175898D01*
D11*
X0183714Y0078189D02*
X0199462Y0078189D01*
X0214581Y0084252D02*
X0214581Y0091339D01*
X0207336Y0093937D02*
X0207336Y0107717D01*
X0204187Y0107717D01*
X0204187Y0097874D01*
X0199462Y0097874D01*
X0183714Y0097874D02*
X0178990Y0097874D01*
X0178990Y0107717D01*
X0175840Y0107717D01*
X0175840Y0093937D01*
X0160088Y0103000D02*
X0160088Y0107000D01*
X0153088Y0107000D02*
X0153088Y0103000D01*
X0172088Y0112000D02*
X0172088Y0118000D01*
X0172090Y0118083D01*
X0172096Y0118166D01*
X0172105Y0118249D01*
X0172119Y0118331D01*
X0172136Y0118412D01*
X0172157Y0118493D01*
X0172181Y0118572D01*
X0172210Y0118650D01*
X0172241Y0118727D01*
X0172277Y0118802D01*
X0172315Y0118876D01*
X0172358Y0118948D01*
X0172403Y0119017D01*
X0172452Y0119085D01*
X0172503Y0119150D01*
X0172558Y0119213D01*
X0172615Y0119273D01*
X0172675Y0119330D01*
X0172738Y0119385D01*
X0172803Y0119436D01*
X0172871Y0119485D01*
X0172940Y0119530D01*
X0173012Y0119573D01*
X0173086Y0119611D01*
X0173161Y0119647D01*
X0173238Y0119678D01*
X0173316Y0119707D01*
X0173395Y0119731D01*
X0173476Y0119752D01*
X0173557Y0119769D01*
X0173639Y0119783D01*
X0173722Y0119792D01*
X0173805Y0119798D01*
X0173888Y0119800D01*
X0178288Y0119800D01*
X0178371Y0119798D01*
X0178454Y0119792D01*
X0178537Y0119783D01*
X0178619Y0119769D01*
X0178700Y0119752D01*
X0178781Y0119731D01*
X0178860Y0119707D01*
X0178938Y0119678D01*
X0179015Y0119647D01*
X0179090Y0119611D01*
X0179164Y0119573D01*
X0179236Y0119530D01*
X0179305Y0119485D01*
X0179373Y0119436D01*
X0179438Y0119385D01*
X0179501Y0119330D01*
X0179561Y0119273D01*
X0179618Y0119213D01*
X0179673Y0119150D01*
X0179724Y0119085D01*
X0179773Y0119017D01*
X0179818Y0118948D01*
X0179861Y0118876D01*
X0179899Y0118802D01*
X0179935Y0118727D01*
X0179966Y0118650D01*
X0179995Y0118572D01*
X0180019Y0118493D01*
X0180040Y0118412D01*
X0180057Y0118331D01*
X0180071Y0118249D01*
X0180080Y0118166D01*
X0180086Y0118083D01*
X0180088Y0118000D01*
X0180088Y0112000D01*
X0180086Y0111917D01*
X0180080Y0111834D01*
X0180071Y0111751D01*
X0180057Y0111669D01*
X0180040Y0111588D01*
X0180019Y0111507D01*
X0179995Y0111428D01*
X0179966Y0111350D01*
X0179935Y0111273D01*
X0179899Y0111198D01*
X0179861Y0111124D01*
X0179818Y0111052D01*
X0179773Y0110983D01*
X0179724Y0110915D01*
X0179673Y0110850D01*
X0179618Y0110787D01*
X0179561Y0110727D01*
X0179501Y0110670D01*
X0179438Y0110615D01*
X0179373Y0110564D01*
X0179305Y0110515D01*
X0179236Y0110470D01*
X0179164Y0110427D01*
X0179090Y0110389D01*
X0179015Y0110353D01*
X0178938Y0110322D01*
X0178860Y0110293D01*
X0178781Y0110269D01*
X0178700Y0110248D01*
X0178619Y0110231D01*
X0178537Y0110217D01*
X0178454Y0110208D01*
X0178371Y0110202D01*
X0178288Y0110200D01*
X0173888Y0110200D01*
X0173805Y0110202D01*
X0173722Y0110208D01*
X0173639Y0110217D01*
X0173557Y0110231D01*
X0173476Y0110248D01*
X0173395Y0110269D01*
X0173316Y0110293D01*
X0173238Y0110322D01*
X0173161Y0110353D01*
X0173086Y0110389D01*
X0173012Y0110427D01*
X0172940Y0110470D01*
X0172871Y0110515D01*
X0172803Y0110564D01*
X0172738Y0110615D01*
X0172675Y0110670D01*
X0172615Y0110727D01*
X0172558Y0110787D01*
X0172503Y0110850D01*
X0172452Y0110915D01*
X0172403Y0110983D01*
X0172358Y0111052D01*
X0172315Y0111124D01*
X0172277Y0111198D01*
X0172241Y0111273D01*
X0172210Y0111350D01*
X0172181Y0111428D01*
X0172157Y0111507D01*
X0172136Y0111588D01*
X0172119Y0111669D01*
X0172105Y0111751D01*
X0172096Y0111834D01*
X0172090Y0111917D01*
X0172088Y0112000D01*
X0194713Y0126250D02*
X0198463Y0126250D01*
X0204713Y0126250D02*
X0208463Y0126250D01*
X0214713Y0126250D02*
X0218463Y0126250D01*
X0218557Y0131654D02*
X0214620Y0131654D01*
X0214620Y0138346D02*
X0218557Y0138346D01*
X0241077Y0149732D02*
X0241077Y0160268D01*
X0246077Y0163268D02*
X0247100Y0163268D01*
X0252100Y0160268D02*
X0252100Y0149732D01*
X0247100Y0146732D02*
X0246077Y0146732D01*
X0260470Y0148594D02*
X0260470Y0155500D01*
X0271707Y0165630D02*
X0271707Y0144370D01*
X0267770Y0141311D02*
X0264407Y0141311D01*
X0259462Y0131811D02*
X0252966Y0131811D01*
X0252966Y0128858D01*
X0269699Y0125906D02*
X0269699Y0114094D01*
X0259462Y0108189D02*
X0252966Y0108189D01*
X0252966Y0111142D01*
X0250007Y0110157D02*
X0250009Y0110197D01*
X0250015Y0110236D01*
X0250025Y0110275D01*
X0250038Y0110312D01*
X0250056Y0110348D01*
X0250077Y0110382D01*
X0250101Y0110414D01*
X0250128Y0110443D01*
X0250158Y0110470D01*
X0250190Y0110493D01*
X0250225Y0110513D01*
X0250261Y0110529D01*
X0250299Y0110542D01*
X0250338Y0110551D01*
X0250377Y0110556D01*
X0250417Y0110557D01*
X0250457Y0110554D01*
X0250496Y0110547D01*
X0250534Y0110536D01*
X0250572Y0110522D01*
X0250607Y0110503D01*
X0250640Y0110482D01*
X0250672Y0110457D01*
X0250700Y0110429D01*
X0250726Y0110399D01*
X0250748Y0110366D01*
X0250767Y0110331D01*
X0250783Y0110294D01*
X0250795Y0110256D01*
X0250803Y0110217D01*
X0250807Y0110177D01*
X0250807Y0110137D01*
X0250803Y0110097D01*
X0250795Y0110058D01*
X0250783Y0110020D01*
X0250767Y0109983D01*
X0250748Y0109948D01*
X0250726Y0109915D01*
X0250700Y0109885D01*
X0250672Y0109857D01*
X0250640Y0109832D01*
X0250607Y0109811D01*
X0250572Y0109792D01*
X0250534Y0109778D01*
X0250496Y0109767D01*
X0250457Y0109760D01*
X0250417Y0109757D01*
X0250377Y0109758D01*
X0250338Y0109763D01*
X0250299Y0109772D01*
X0250261Y0109785D01*
X0250225Y0109801D01*
X0250190Y0109821D01*
X0250158Y0109844D01*
X0250128Y0109871D01*
X0250101Y0109900D01*
X0250077Y0109932D01*
X0250056Y0109966D01*
X0250038Y0110002D01*
X0250025Y0110039D01*
X0250015Y0110078D01*
X0250009Y0110117D01*
X0250007Y0110157D01*
X0238463Y0113750D02*
X0234713Y0113750D01*
X0228463Y0113750D02*
X0224713Y0113750D01*
X0248596Y0091339D02*
X0248596Y0084252D01*
X0264407Y0168689D02*
X0267770Y0168689D01*
D12*
X0243419Y0155000D02*
X0243421Y0155112D01*
X0243427Y0155225D01*
X0243437Y0155337D01*
X0243451Y0155448D01*
X0243469Y0155560D01*
X0243491Y0155670D01*
X0243516Y0155779D01*
X0243546Y0155888D01*
X0243579Y0155995D01*
X0243617Y0156101D01*
X0243658Y0156206D01*
X0243702Y0156309D01*
X0243750Y0156411D01*
X0243802Y0156511D01*
X0243858Y0156609D01*
X0243917Y0156705D01*
X0243979Y0156798D01*
X0244044Y0156890D01*
X0244113Y0156979D01*
X0244185Y0157066D01*
X0244260Y0157150D01*
X0244337Y0157231D01*
X0244418Y0157309D01*
X0244501Y0157385D01*
X0244587Y0157457D01*
X0244676Y0157527D01*
X0244766Y0157593D01*
X0244860Y0157656D01*
X0244955Y0157716D01*
X0245052Y0157772D01*
X0245152Y0157825D01*
X0245253Y0157874D01*
X0245356Y0157920D01*
X0245460Y0157962D01*
X0245566Y0158000D01*
X0245673Y0158034D01*
X0245781Y0158065D01*
X0245891Y0158091D01*
X0246001Y0158114D01*
X0246112Y0158133D01*
X0246223Y0158148D01*
X0246335Y0158159D01*
X0246447Y0158166D01*
X0246560Y0158169D01*
X0246672Y0158168D01*
X0246785Y0158163D01*
X0246897Y0158154D01*
X0247009Y0158141D01*
X0247120Y0158124D01*
X0247230Y0158103D01*
X0247340Y0158078D01*
X0247449Y0158050D01*
X0247557Y0158017D01*
X0247663Y0157981D01*
X0247768Y0157941D01*
X0247872Y0157897D01*
X0247974Y0157850D01*
X0248074Y0157799D01*
X0248172Y0157744D01*
X0248269Y0157686D01*
X0248363Y0157625D01*
X0248455Y0157560D01*
X0248545Y0157493D01*
X0248632Y0157422D01*
X0248717Y0157347D01*
X0248799Y0157270D01*
X0248878Y0157191D01*
X0248954Y0157108D01*
X0249028Y0157023D01*
X0249098Y0156935D01*
X0249165Y0156844D01*
X0249229Y0156752D01*
X0249289Y0156657D01*
X0249346Y0156560D01*
X0249400Y0156461D01*
X0249450Y0156360D01*
X0249497Y0156258D01*
X0249539Y0156154D01*
X0249579Y0156049D01*
X0249614Y0155942D01*
X0249645Y0155834D01*
X0249673Y0155725D01*
X0249697Y0155615D01*
X0249717Y0155504D01*
X0249733Y0155393D01*
X0249745Y0155281D01*
X0249753Y0155169D01*
X0249757Y0155056D01*
X0249757Y0154944D01*
X0249753Y0154831D01*
X0249745Y0154719D01*
X0249733Y0154607D01*
X0249717Y0154496D01*
X0249697Y0154385D01*
X0249673Y0154275D01*
X0249645Y0154166D01*
X0249614Y0154058D01*
X0249579Y0153951D01*
X0249539Y0153846D01*
X0249497Y0153742D01*
X0249450Y0153640D01*
X0249400Y0153539D01*
X0249346Y0153440D01*
X0249289Y0153343D01*
X0249229Y0153248D01*
X0249165Y0153156D01*
X0249098Y0153065D01*
X0249028Y0152977D01*
X0248954Y0152892D01*
X0248878Y0152809D01*
X0248799Y0152730D01*
X0248717Y0152653D01*
X0248632Y0152578D01*
X0248545Y0152507D01*
X0248455Y0152440D01*
X0248363Y0152375D01*
X0248269Y0152314D01*
X0248173Y0152256D01*
X0248074Y0152201D01*
X0247974Y0152150D01*
X0247872Y0152103D01*
X0247768Y0152059D01*
X0247663Y0152019D01*
X0247557Y0151983D01*
X0247449Y0151950D01*
X0247340Y0151922D01*
X0247230Y0151897D01*
X0247120Y0151876D01*
X0247009Y0151859D01*
X0246897Y0151846D01*
X0246785Y0151837D01*
X0246672Y0151832D01*
X0246560Y0151831D01*
X0246447Y0151834D01*
X0246335Y0151841D01*
X0246223Y0151852D01*
X0246112Y0151867D01*
X0246001Y0151886D01*
X0245891Y0151909D01*
X0245781Y0151935D01*
X0245673Y0151966D01*
X0245566Y0152000D01*
X0245460Y0152038D01*
X0245356Y0152080D01*
X0245253Y0152126D01*
X0245152Y0152175D01*
X0245052Y0152228D01*
X0244955Y0152284D01*
X0244860Y0152344D01*
X0244766Y0152407D01*
X0244676Y0152473D01*
X0244587Y0152543D01*
X0244501Y0152615D01*
X0244418Y0152691D01*
X0244337Y0152769D01*
X0244260Y0152850D01*
X0244185Y0152934D01*
X0244113Y0153021D01*
X0244044Y0153110D01*
X0243979Y0153202D01*
X0243917Y0153295D01*
X0243858Y0153391D01*
X0243802Y0153489D01*
X0243750Y0153589D01*
X0243702Y0153691D01*
X0243658Y0153794D01*
X0243617Y0153899D01*
X0243579Y0154005D01*
X0243546Y0154112D01*
X0243516Y0154221D01*
X0243491Y0154330D01*
X0243469Y0154440D01*
X0243451Y0154552D01*
X0243437Y0154663D01*
X0243427Y0154775D01*
X0243421Y0154888D01*
X0243419Y0155000D01*
X0232750Y0145965D02*
X0190427Y0145965D01*
X0190427Y0207972D01*
X0232750Y0207972D01*
X0232750Y0145965D01*
X0183340Y0150000D02*
X0169836Y0150000D01*
X0169836Y0175000D01*
X0183340Y0175000D01*
X0183340Y0150000D01*
D13*
X0167738Y0105425D03*
X0161439Y0105425D03*
D14*
X0161596Y0105425D03*
X0167581Y0105425D03*
D15*
X0167423Y0105425D03*
X0161754Y0105425D03*
D16*
X0161911Y0105425D03*
X0167266Y0105425D03*
D17*
X0167108Y0105425D03*
X0162069Y0105425D03*
D18*
X0162226Y0105425D03*
X0166951Y0105425D03*
D19*
X0166793Y0105425D03*
X0162384Y0105425D03*
D20*
X0166636Y0107709D03*
D21*
X0165533Y0105346D03*
X0166636Y0096843D03*
X0164848Y0142488D03*
D22*
X0164691Y0151594D03*
X0162329Y0151594D03*
X0162171Y0151594D03*
X0162171Y0155350D03*
X0162329Y0155350D03*
X0164691Y0155350D03*
X0164691Y0163224D03*
X0162329Y0163224D03*
X0162171Y0163224D03*
X0162014Y0167563D03*
X0165163Y0167563D03*
X0162014Y0175122D03*
X0162644Y0132724D03*
X0162801Y0132724D03*
X0163116Y0132724D03*
X0163273Y0132724D03*
X0165006Y0132724D03*
X0166006Y0114717D03*
X0166163Y0114717D03*
X0166478Y0114559D03*
X0163171Y0114717D03*
X0163014Y0114717D03*
X0162699Y0114559D03*
X0163958Y0105740D03*
X0163171Y0096134D03*
D23*
X0163486Y0105898D03*
X0162699Y0110937D03*
X0162541Y0110937D03*
X0166478Y0110937D03*
X0165321Y0132882D03*
X0164218Y0138315D03*
X0162486Y0148287D03*
X0162014Y0151594D03*
X0164848Y0151594D03*
X0165006Y0151594D03*
X0165006Y0155350D03*
X0164848Y0155350D03*
X0162014Y0155350D03*
X0162014Y0163224D03*
X0164848Y0163224D03*
X0165006Y0163224D03*
X0165321Y0167720D03*
X0161856Y0175122D03*
D24*
X0164533Y0174256D03*
X0164218Y0164091D03*
X0161541Y0159209D03*
X0164218Y0156217D03*
X0164218Y0152461D03*
X0161541Y0136819D03*
X0161541Y0130126D03*
X0161541Y0127291D03*
X0165636Y0127291D03*
X0163958Y0111803D03*
X0163958Y0110071D03*
X0162699Y0108496D03*
X0162541Y0108496D03*
X0166478Y0108496D03*
X0162541Y0104874D03*
X0164273Y0102669D03*
X0162699Y0100307D03*
X0165691Y0099047D03*
D25*
X0166321Y0101173D03*
X0166478Y0104008D03*
X0162856Y0102748D03*
X0166163Y0110937D03*
X0164376Y0118992D03*
X0164218Y0118992D03*
X0164061Y0118992D03*
X0164218Y0121354D03*
X0164376Y0121354D03*
X0163903Y0128787D03*
X0163903Y0138315D03*
X0163273Y0138315D03*
X0165321Y0148130D03*
X0165321Y0151594D03*
X0161699Y0151594D03*
X0161699Y0155350D03*
X0165321Y0155350D03*
X0162801Y0159287D03*
X0161699Y0163224D03*
X0165321Y0163224D03*
X0161541Y0167878D03*
X0162801Y0170398D03*
X0162958Y0170398D03*
X0164061Y0172130D03*
D26*
X0165321Y0175201D03*
X0161699Y0167799D03*
X0161856Y0163303D03*
X0161856Y0155429D03*
X0161856Y0151673D03*
X0165006Y0148209D03*
X0162958Y0138236D03*
X0162958Y0128709D03*
X0164218Y0128709D03*
X0166478Y0101094D03*
X0163958Y0099835D03*
D27*
X0162541Y0096685D03*
X0164588Y0096055D03*
X0165691Y0096213D03*
X0166478Y0096528D03*
X0165061Y0105504D03*
X0165636Y0142488D03*
X0162486Y0167327D03*
X0162329Y0175201D03*
D28*
X0165163Y0175201D03*
X0161856Y0167642D03*
X0161541Y0148051D03*
X0164691Y0148209D03*
X0164848Y0148209D03*
X0162801Y0138236D03*
X0162958Y0132803D03*
X0165163Y0132803D03*
X0162801Y0128709D03*
X0162856Y0114638D03*
X0162541Y0114480D03*
X0166321Y0114638D03*
X0163801Y0105819D03*
X0163644Y0105819D03*
D29*
X0162541Y0102748D03*
X0162856Y0110937D03*
X0163014Y0110937D03*
X0163171Y0110937D03*
X0163329Y0110937D03*
X0163486Y0110937D03*
X0166321Y0110937D03*
X0164061Y0128787D03*
X0164061Y0138315D03*
X0165163Y0148130D03*
X0165163Y0151594D03*
X0165163Y0155350D03*
X0165163Y0163224D03*
X0163273Y0170555D03*
X0163746Y0171972D03*
X0161699Y0175122D03*
D30*
X0161384Y0163224D03*
X0161384Y0155350D03*
X0161384Y0151594D03*
X0161541Y0139732D03*
X0165636Y0139732D03*
X0165636Y0136898D03*
X0165636Y0130205D03*
X0164116Y0111882D03*
X0165061Y0110937D03*
X0164273Y0109992D03*
X0164116Y0109992D03*
X0164116Y0108417D03*
X0164273Y0108417D03*
X0164431Y0108417D03*
X0164588Y0108417D03*
X0164746Y0108417D03*
X0164903Y0108417D03*
X0165061Y0108417D03*
X0165218Y0108417D03*
X0165376Y0108417D03*
X0165533Y0108417D03*
X0165691Y0108417D03*
X0165848Y0108417D03*
X0166006Y0108417D03*
X0166163Y0108417D03*
X0166321Y0108417D03*
X0163958Y0108417D03*
X0163801Y0108417D03*
X0163644Y0108417D03*
X0163486Y0108417D03*
X0163329Y0108417D03*
X0163171Y0108417D03*
X0163014Y0108417D03*
X0162856Y0108417D03*
X0163329Y0104795D03*
X0164431Y0102748D03*
X0163644Y0100701D03*
X0163486Y0100701D03*
D31*
X0163014Y0102669D03*
X0164903Y0104717D03*
X0166321Y0104087D03*
X0166163Y0101252D03*
X0166006Y0111016D03*
X0164533Y0118913D03*
X0163903Y0118913D03*
X0164061Y0121276D03*
X0164533Y0121276D03*
X0163273Y0128709D03*
X0162801Y0148366D03*
X0162644Y0148524D03*
X0163273Y0151043D03*
X0164061Y0151043D03*
X0164061Y0154799D03*
X0163273Y0154799D03*
X0162644Y0159209D03*
X0163273Y0162673D03*
X0164061Y0162673D03*
X0162644Y0170319D03*
X0164218Y0172209D03*
X0164376Y0172209D03*
X0163431Y0174413D03*
X0163273Y0174413D03*
X0163588Y0174571D03*
X0165478Y0175201D03*
D32*
X0165006Y0175201D03*
X0164848Y0175358D03*
X0164691Y0175358D03*
X0162171Y0175201D03*
X0162171Y0167484D03*
X0165006Y0167484D03*
X0162329Y0148051D03*
X0161699Y0148051D03*
X0163431Y0132646D03*
X0163588Y0132646D03*
X0164691Y0132646D03*
X0164848Y0132646D03*
X0165533Y0114795D03*
X0165691Y0114795D03*
X0165848Y0114795D03*
X0163644Y0114795D03*
X0163486Y0114795D03*
X0163329Y0114795D03*
X0162856Y0096370D03*
X0163014Y0096213D03*
X0163329Y0096055D03*
X0163486Y0096055D03*
X0163644Y0096055D03*
X0163801Y0095898D03*
X0166006Y0096213D03*
X0166163Y0096213D03*
X0166321Y0096370D03*
D33*
X0164273Y0100386D03*
X0166006Y0101173D03*
X0166006Y0104165D03*
X0166163Y0104165D03*
X0165691Y0104323D03*
X0164746Y0104795D03*
X0164588Y0104795D03*
X0163171Y0102748D03*
X0165848Y0110937D03*
X0164691Y0118835D03*
X0164691Y0121197D03*
X0163903Y0121197D03*
X0163746Y0128787D03*
X0163746Y0138315D03*
X0163431Y0138315D03*
X0163116Y0147972D03*
X0162958Y0148130D03*
X0163431Y0151122D03*
X0163588Y0151280D03*
X0163746Y0151280D03*
X0163903Y0151122D03*
X0165478Y0151594D03*
X0163903Y0154878D03*
X0163746Y0155035D03*
X0163588Y0155035D03*
X0163431Y0154878D03*
X0165478Y0155350D03*
X0162486Y0159287D03*
X0163431Y0162752D03*
X0163588Y0162909D03*
X0163746Y0162909D03*
X0163903Y0162752D03*
X0165478Y0163224D03*
X0162486Y0170240D03*
X0164533Y0172287D03*
X0163903Y0174492D03*
X0163746Y0174492D03*
X0161541Y0175122D03*
D34*
X0163116Y0174256D03*
X0164691Y0172366D03*
X0162329Y0170161D03*
X0162171Y0170161D03*
X0164533Y0166382D03*
X0161541Y0163303D03*
X0162329Y0159209D03*
X0161541Y0155429D03*
X0161541Y0151673D03*
X0163273Y0147736D03*
X0165478Y0148209D03*
X0163588Y0128709D03*
X0163431Y0128709D03*
X0164848Y0121118D03*
X0164848Y0118756D03*
X0164116Y0105031D03*
X0164273Y0104874D03*
X0164431Y0104874D03*
X0165848Y0104244D03*
X0163329Y0102669D03*
X0165848Y0101252D03*
D35*
X0165848Y0096134D03*
X0164431Y0095976D03*
X0164273Y0095976D03*
X0164116Y0095976D03*
X0163958Y0095976D03*
X0162699Y0096449D03*
X0163801Y0114874D03*
X0163958Y0114874D03*
X0164116Y0114874D03*
X0164273Y0114874D03*
X0164431Y0114874D03*
X0164588Y0114874D03*
X0164746Y0114874D03*
X0164903Y0114874D03*
X0165061Y0114874D03*
X0165218Y0114874D03*
X0165376Y0114874D03*
X0162171Y0148130D03*
X0162014Y0148130D03*
X0161856Y0148130D03*
X0162329Y0167406D03*
X0164691Y0167406D03*
X0164848Y0167406D03*
D36*
X0162014Y0170083D03*
X0164848Y0172445D03*
X0165006Y0172445D03*
X0164533Y0176382D03*
X0162486Y0176224D03*
X0162171Y0159287D03*
X0162014Y0159287D03*
X0163431Y0147500D03*
X0162171Y0139575D03*
X0162329Y0139417D03*
X0162486Y0139260D03*
X0162644Y0139102D03*
X0163588Y0138315D03*
X0164376Y0139102D03*
X0164691Y0139260D03*
X0164848Y0139417D03*
X0165006Y0139575D03*
X0164376Y0137528D03*
X0164533Y0137370D03*
X0164691Y0137213D03*
X0164848Y0137055D03*
X0165163Y0136898D03*
X0162644Y0137370D03*
X0162329Y0137213D03*
X0162171Y0137055D03*
X0162014Y0136898D03*
X0165636Y0133039D03*
X0165006Y0130047D03*
X0164848Y0129890D03*
X0164691Y0129732D03*
X0164533Y0129575D03*
X0164376Y0128000D03*
X0164533Y0127843D03*
X0164691Y0127685D03*
X0164848Y0127528D03*
X0165006Y0127370D03*
X0162644Y0127843D03*
X0162486Y0127685D03*
X0162329Y0127528D03*
X0162171Y0127528D03*
X0162014Y0127370D03*
X0162644Y0129575D03*
X0162486Y0129732D03*
X0162329Y0129890D03*
X0162171Y0130047D03*
X0165006Y0121039D03*
X0165006Y0118677D03*
X0165691Y0110937D03*
X0165691Y0101173D03*
X0165533Y0101173D03*
X0165376Y0101173D03*
X0164431Y0100701D03*
D37*
X0163644Y0099126D03*
X0165533Y0110937D03*
X0165321Y0118520D03*
X0163746Y0118520D03*
X0163588Y0118520D03*
X0163431Y0118520D03*
X0163273Y0118520D03*
X0163116Y0118520D03*
X0162958Y0118520D03*
X0162801Y0118520D03*
X0162644Y0118520D03*
X0162486Y0118520D03*
X0162329Y0118520D03*
X0162171Y0118520D03*
X0162014Y0118520D03*
X0161856Y0118520D03*
X0161699Y0118520D03*
X0161856Y0120882D03*
X0162014Y0120882D03*
X0162171Y0120882D03*
X0162329Y0120882D03*
X0162486Y0120882D03*
X0162644Y0120882D03*
X0162801Y0120882D03*
X0162958Y0120882D03*
X0163116Y0120882D03*
X0163273Y0120882D03*
X0163431Y0120882D03*
X0163588Y0120882D03*
X0163746Y0120882D03*
X0165321Y0120882D03*
X0165321Y0130205D03*
X0164376Y0131465D03*
X0164218Y0131465D03*
X0164061Y0131465D03*
X0163903Y0131465D03*
X0162329Y0131622D03*
X0162014Y0131465D03*
X0161856Y0131465D03*
X0161856Y0130205D03*
X0161856Y0133669D03*
X0161699Y0133669D03*
X0162014Y0133669D03*
X0162171Y0133669D03*
X0162329Y0133669D03*
X0162486Y0133669D03*
X0163746Y0133669D03*
X0163903Y0133669D03*
X0164061Y0133669D03*
X0164218Y0133669D03*
X0164376Y0133669D03*
X0164533Y0133669D03*
X0165321Y0136898D03*
X0165321Y0139732D03*
X0164691Y0142409D03*
X0164533Y0142409D03*
X0164376Y0142409D03*
X0164218Y0142409D03*
X0164061Y0142409D03*
X0163903Y0142409D03*
X0163746Y0142409D03*
X0163588Y0142409D03*
X0163431Y0142409D03*
X0163273Y0142409D03*
X0163116Y0142409D03*
X0162958Y0142409D03*
X0162801Y0142409D03*
X0162644Y0142409D03*
X0162486Y0142409D03*
X0162329Y0142409D03*
X0162171Y0142409D03*
X0162014Y0142409D03*
X0161856Y0139732D03*
X0163903Y0147185D03*
X0164061Y0147185D03*
X0164218Y0147185D03*
X0164376Y0147185D03*
X0164533Y0149075D03*
X0164376Y0149232D03*
X0164218Y0149232D03*
X0164061Y0149232D03*
X0163903Y0149232D03*
X0164218Y0150650D03*
X0164376Y0150650D03*
X0164533Y0150650D03*
X0165636Y0151594D03*
X0164533Y0152539D03*
X0162801Y0152697D03*
X0162644Y0152697D03*
X0162644Y0154248D03*
X0162801Y0154248D03*
X0162486Y0154406D03*
X0164218Y0154406D03*
X0164376Y0154406D03*
X0164533Y0154406D03*
X0165636Y0155350D03*
X0164533Y0156295D03*
X0165006Y0157713D03*
X0165163Y0157713D03*
X0164691Y0157870D03*
X0164376Y0158028D03*
X0164061Y0158185D03*
X0163903Y0158185D03*
X0163746Y0158343D03*
X0163588Y0158343D03*
X0163431Y0158500D03*
X0163273Y0158500D03*
X0163116Y0158657D03*
X0163116Y0159917D03*
X0163273Y0159917D03*
X0163431Y0160075D03*
X0163588Y0160075D03*
X0163746Y0160232D03*
X0163903Y0160232D03*
X0164061Y0160390D03*
X0164218Y0160390D03*
X0164376Y0160547D03*
X0164533Y0160547D03*
X0164691Y0160705D03*
X0164848Y0160705D03*
X0165006Y0160862D03*
X0165163Y0160862D03*
X0165321Y0160862D03*
X0164533Y0162280D03*
X0164376Y0162280D03*
X0164218Y0162280D03*
X0162801Y0162122D03*
X0162644Y0162122D03*
X0162486Y0162280D03*
X0162644Y0164327D03*
X0162801Y0164327D03*
X0162958Y0165988D03*
X0163116Y0165988D03*
X0163588Y0165831D03*
X0163903Y0165988D03*
X0164061Y0165988D03*
X0164533Y0164169D03*
X0165636Y0163224D03*
X0161856Y0159287D03*
X0161699Y0159287D03*
X0162644Y0156453D03*
X0162801Y0156453D03*
X0162486Y0150650D03*
X0162644Y0150492D03*
X0162801Y0150492D03*
X0162801Y0168508D03*
X0162644Y0168508D03*
X0162958Y0168508D03*
X0163116Y0168508D03*
X0163273Y0168508D03*
X0163431Y0168508D03*
X0163588Y0168508D03*
X0163746Y0168508D03*
X0163903Y0168508D03*
X0164061Y0168508D03*
X0164218Y0168508D03*
X0164376Y0168508D03*
X0164533Y0168508D03*
X0164533Y0169925D03*
X0164376Y0169925D03*
X0164218Y0169925D03*
X0164061Y0169925D03*
X0163903Y0169925D03*
X0163746Y0169925D03*
X0163588Y0169925D03*
X0163431Y0169925D03*
X0164691Y0169925D03*
X0164848Y0169925D03*
X0165006Y0169925D03*
X0165163Y0169925D03*
X0163588Y0171343D03*
X0163588Y0172602D03*
X0163431Y0172602D03*
X0163273Y0172602D03*
X0163116Y0172602D03*
X0162958Y0172602D03*
X0162801Y0172602D03*
X0162644Y0172602D03*
X0162486Y0172602D03*
X0162329Y0172602D03*
X0162171Y0172602D03*
X0162014Y0172602D03*
X0161856Y0172602D03*
X0161699Y0172602D03*
X0162644Y0174020D03*
X0162801Y0174020D03*
X0162958Y0174020D03*
X0165321Y0172602D03*
X0165636Y0175122D03*
X0164061Y0176697D03*
X0163903Y0176697D03*
X0163746Y0176697D03*
X0163588Y0176697D03*
X0163431Y0176697D03*
X0163273Y0176697D03*
X0163116Y0176697D03*
X0162801Y0176539D03*
D38*
X0161699Y0170004D03*
X0165321Y0170004D03*
X0165478Y0170004D03*
X0163746Y0165909D03*
X0163431Y0165909D03*
X0163273Y0165909D03*
X0164376Y0164091D03*
X0165321Y0157634D03*
X0164376Y0156217D03*
X0164376Y0152461D03*
X0165636Y0148209D03*
X0161856Y0142488D03*
X0161699Y0142488D03*
X0161699Y0139811D03*
X0161699Y0136819D03*
X0165478Y0136819D03*
X0161699Y0131386D03*
X0161699Y0130126D03*
X0161699Y0127291D03*
X0165478Y0127291D03*
X0165478Y0120803D03*
X0165478Y0118441D03*
X0161699Y0120803D03*
X0163644Y0111646D03*
X0163644Y0110228D03*
X0165376Y0111016D03*
X0165533Y0099047D03*
X0163486Y0099047D03*
D39*
X0164746Y0096134D03*
X0165533Y0096291D03*
X0165376Y0105425D03*
X0165218Y0105425D03*
D40*
X0165376Y0096921D03*
D41*
X0163801Y0100701D03*
X0163801Y0110150D03*
X0163801Y0111724D03*
X0165218Y0110937D03*
X0161541Y0118520D03*
X0161541Y0120882D03*
X0165478Y0130205D03*
X0161541Y0131465D03*
X0161541Y0133669D03*
X0165478Y0139732D03*
X0161541Y0142409D03*
X0163746Y0149232D03*
X0162958Y0152697D03*
X0162958Y0156453D03*
X0165478Y0157713D03*
X0165478Y0160862D03*
X0162958Y0164327D03*
X0161541Y0169925D03*
X0161541Y0172602D03*
X0165478Y0172602D03*
D42*
X0165163Y0172524D03*
X0163431Y0171264D03*
X0161856Y0170004D03*
X0162644Y0166224D03*
X0162801Y0166067D03*
X0164218Y0166067D03*
X0164376Y0166224D03*
X0165636Y0167957D03*
X0162486Y0164248D03*
X0163116Y0162358D03*
X0162958Y0162201D03*
X0164218Y0158106D03*
X0164533Y0157949D03*
X0164848Y0157791D03*
X0162486Y0156374D03*
X0163116Y0154484D03*
X0162958Y0154327D03*
X0162486Y0152618D03*
X0163116Y0150728D03*
X0162958Y0150571D03*
X0163588Y0147421D03*
X0163746Y0147264D03*
X0164533Y0147264D03*
X0165163Y0139654D03*
X0164533Y0139181D03*
X0165006Y0136976D03*
X0162486Y0137291D03*
X0161856Y0136819D03*
X0162014Y0139654D03*
X0162486Y0131701D03*
X0162171Y0131543D03*
X0162014Y0130126D03*
X0163746Y0131543D03*
X0164533Y0131543D03*
X0165163Y0130126D03*
X0164376Y0129496D03*
X0165163Y0127291D03*
X0165321Y0127291D03*
X0161856Y0127291D03*
X0165163Y0120961D03*
X0165163Y0118598D03*
X0165218Y0101094D03*
X0165061Y0101094D03*
X0164903Y0100937D03*
X0164746Y0100937D03*
X0164588Y0100780D03*
X0163801Y0099205D03*
X0162541Y0100307D03*
X0162486Y0174098D03*
X0162644Y0176461D03*
X0162958Y0176618D03*
X0164218Y0176618D03*
X0164376Y0176461D03*
D43*
X0165218Y0096843D03*
D44*
X0165061Y0096685D03*
D45*
X0164588Y0109835D03*
X0164903Y0110937D03*
X0164588Y0112039D03*
X0165636Y0118520D03*
X0163746Y0119465D03*
X0163746Y0121827D03*
X0194159Y0133295D03*
X0196447Y0138795D03*
X0195659Y0139898D03*
X0182588Y0140843D03*
X0178336Y0143047D03*
X0165636Y0169925D03*
X0165636Y0172602D03*
X0164376Y0174177D03*
X0246329Y0165795D03*
X0268848Y0176547D03*
D46*
X0165321Y0142488D03*
X0165163Y0142488D03*
X0164903Y0096370D03*
D47*
X0163014Y0100465D03*
X0162856Y0100465D03*
X0163171Y0100622D03*
X0163329Y0100622D03*
X0164588Y0102669D03*
X0164746Y0102669D03*
X0163171Y0104874D03*
X0163014Y0104874D03*
X0162856Y0104874D03*
X0162699Y0104874D03*
X0164431Y0109913D03*
X0164431Y0111961D03*
X0164273Y0111961D03*
X0165636Y0120803D03*
X0165636Y0157791D03*
X0165636Y0160783D03*
X0161384Y0175201D03*
D48*
X0163903Y0172051D03*
X0163116Y0170476D03*
X0165478Y0167799D03*
X0162958Y0159209D03*
X0163116Y0138236D03*
X0165478Y0132961D03*
X0163116Y0128709D03*
X0162699Y0102669D03*
X0164116Y0100150D03*
D49*
X0262187Y0105618D03*
D50*
X0262187Y0105559D03*
D51*
X0262147Y0105500D03*
D52*
X0262187Y0105441D03*
D53*
X0262147Y0105382D03*
D54*
X0262147Y0105343D03*
D55*
X0262147Y0105283D03*
D56*
X0262167Y0105224D03*
D57*
X0262147Y0105165D03*
D58*
X0262187Y0105106D03*
D59*
X0262167Y0105047D03*
D60*
X0262147Y0104988D03*
D61*
X0262147Y0104929D03*
D62*
X0262147Y0104870D03*
D63*
X0262147Y0104811D03*
D64*
X0262147Y0104752D03*
D65*
X0262147Y0104693D03*
D66*
X0262187Y0104634D03*
D67*
X0262167Y0104575D03*
D68*
X0262147Y0104516D03*
D69*
X0255179Y0104457D03*
X0269234Y0101661D03*
D70*
X0266675Y0103984D03*
X0263880Y0103236D03*
X0263880Y0103118D03*
X0262423Y0103354D03*
X0258722Y0103236D03*
X0258722Y0103118D03*
X0257108Y0104457D03*
D71*
X0258466Y0104457D03*
X0266458Y0103118D03*
X0266458Y0103000D03*
X0266458Y0102882D03*
X0266458Y0102764D03*
X0266458Y0102646D03*
D72*
X0262423Y0104457D03*
X0260218Y0104457D03*
X0256714Y0103236D03*
X0256714Y0102646D03*
X0256714Y0102528D03*
X0254667Y0101898D03*
X0254628Y0102016D03*
X0254549Y0103709D03*
X0254628Y0103866D03*
D73*
X0257344Y0101661D03*
X0262423Y0102646D03*
X0264116Y0104457D03*
D74*
X0264057Y0104102D03*
X0265277Y0104102D03*
X0265277Y0103984D03*
X0265277Y0103866D03*
X0265277Y0103709D03*
X0265277Y0103591D03*
X0265277Y0103472D03*
X0265277Y0103354D03*
X0265277Y0103236D03*
X0265277Y0103118D03*
X0265277Y0103000D03*
X0265277Y0102882D03*
X0265277Y0102764D03*
X0265277Y0102646D03*
X0265277Y0102528D03*
X0265277Y0102409D03*
X0265277Y0102291D03*
X0265277Y0102134D03*
X0265277Y0102016D03*
X0265277Y0101898D03*
X0265277Y0101780D03*
X0265277Y0101661D03*
X0265277Y0101543D03*
X0265277Y0101425D03*
X0266498Y0102409D03*
X0266498Y0102528D03*
X0266498Y0103236D03*
X0266498Y0103354D03*
X0265277Y0104220D03*
X0265277Y0104339D03*
X0265277Y0104457D03*
X0262403Y0102764D03*
X0261301Y0102882D03*
X0258545Y0104102D03*
X0257285Y0101543D03*
D75*
X0256734Y0102764D03*
X0256734Y0102882D03*
X0256734Y0103000D03*
X0254844Y0101661D03*
X0267049Y0104457D03*
D76*
X0269175Y0104457D03*
X0269175Y0101425D03*
D77*
X0269136Y0101366D03*
X0255081Y0104398D03*
D78*
X0257187Y0104398D03*
X0258644Y0103650D03*
X0260218Y0103177D03*
X0260218Y0103059D03*
X0263958Y0103650D03*
D79*
X0264116Y0104398D03*
X0262423Y0102587D03*
X0258486Y0104398D03*
D80*
X0260218Y0104398D03*
X0256714Y0103177D03*
X0256714Y0102587D03*
X0254746Y0101839D03*
X0254667Y0101957D03*
X0254628Y0102075D03*
X0254549Y0102193D03*
X0254628Y0103807D03*
X0254667Y0103925D03*
D81*
X0254529Y0103650D03*
X0254529Y0103531D03*
X0254411Y0102941D03*
X0254529Y0102350D03*
X0254529Y0102232D03*
X0256695Y0103295D03*
X0259018Y0101602D03*
X0261301Y0101366D03*
X0263584Y0101602D03*
X0262403Y0104398D03*
X0266970Y0104398D03*
D82*
X0266498Y0103413D03*
X0266498Y0103295D03*
X0266498Y0102587D03*
X0266498Y0102469D03*
X0265277Y0102469D03*
X0265277Y0102587D03*
X0265277Y0102705D03*
X0265277Y0102823D03*
X0265277Y0102941D03*
X0265277Y0103059D03*
X0265277Y0103177D03*
X0265277Y0103295D03*
X0265277Y0103413D03*
X0265277Y0103531D03*
X0265277Y0103650D03*
X0265277Y0103768D03*
X0265277Y0103807D03*
X0265277Y0103925D03*
X0265277Y0104043D03*
X0265277Y0104161D03*
X0265277Y0104280D03*
X0265277Y0104398D03*
X0264057Y0104161D03*
X0262403Y0102823D03*
X0261301Y0102823D03*
X0261301Y0102941D03*
X0258545Y0104161D03*
X0257285Y0104280D03*
X0265277Y0102350D03*
X0265277Y0102232D03*
X0265277Y0102193D03*
X0265277Y0102075D03*
X0265277Y0101957D03*
X0265277Y0101839D03*
X0265277Y0101720D03*
X0265277Y0101602D03*
X0265277Y0101484D03*
X0265277Y0101366D03*
D83*
X0269195Y0101484D03*
X0269195Y0104398D03*
X0255218Y0101366D03*
D84*
X0255120Y0101425D03*
X0255002Y0104339D03*
D85*
X0257246Y0104339D03*
X0258584Y0103984D03*
X0261301Y0102764D03*
X0261301Y0102646D03*
X0262443Y0102882D03*
X0264018Y0103984D03*
D86*
X0264077Y0104220D03*
X0264077Y0104339D03*
X0260218Y0102764D03*
X0260218Y0102646D03*
X0258525Y0104220D03*
X0258525Y0104339D03*
X0257305Y0104220D03*
D87*
X0256734Y0103354D03*
X0254451Y0103236D03*
X0254451Y0103118D03*
X0254451Y0102764D03*
X0254451Y0102646D03*
X0260238Y0104220D03*
X0260238Y0104339D03*
D88*
X0262403Y0104339D03*
X0263584Y0101661D03*
X0263584Y0101543D03*
X0261301Y0101425D03*
X0259018Y0101543D03*
X0259018Y0101661D03*
X0254529Y0102291D03*
X0254411Y0102882D03*
X0254411Y0103000D03*
X0254529Y0103591D03*
X0266970Y0101425D03*
D89*
X0262423Y0104102D03*
X0260218Y0104102D03*
X0256714Y0103472D03*
X0266872Y0104339D03*
D90*
X0269195Y0104339D03*
X0269195Y0101543D03*
D91*
X0255021Y0101484D03*
X0254903Y0104280D03*
D92*
X0258525Y0104280D03*
X0260218Y0102705D03*
X0257305Y0101602D03*
X0264077Y0104280D03*
D93*
X0262443Y0104280D03*
X0260238Y0104280D03*
X0256734Y0102469D03*
X0254451Y0102705D03*
X0254451Y0102823D03*
X0254451Y0103059D03*
X0254451Y0103177D03*
D94*
X0262443Y0103925D03*
X0266813Y0104280D03*
D95*
X0269234Y0104280D03*
X0269234Y0101602D03*
D96*
X0256695Y0100323D03*
X0254884Y0104220D03*
D97*
X0256695Y0102409D03*
X0258939Y0102134D03*
X0258939Y0102016D03*
X0261301Y0101543D03*
X0263663Y0102016D03*
X0263663Y0102134D03*
X0262403Y0104220D03*
D98*
X0263762Y0102528D03*
X0266793Y0104220D03*
X0258840Y0102528D03*
D99*
X0256498Y0100441D03*
X0269254Y0101780D03*
X0269254Y0104220D03*
D100*
X0256734Y0103059D03*
X0256734Y0102941D03*
X0256734Y0102823D03*
X0254923Y0101602D03*
X0254805Y0104161D03*
D101*
X0257364Y0104161D03*
X0261301Y0103059D03*
X0262443Y0102469D03*
D102*
X0262423Y0104043D03*
X0260218Y0104043D03*
X0260218Y0104161D03*
X0256714Y0103413D03*
X0256714Y0102350D03*
D103*
X0258939Y0102075D03*
X0261301Y0101602D03*
X0261301Y0101484D03*
X0263663Y0102075D03*
X0262403Y0104161D03*
D104*
X0260218Y0103768D03*
X0260218Y0103650D03*
X0266754Y0104161D03*
D105*
X0269254Y0104161D03*
X0269254Y0101720D03*
D106*
X0263545Y0101425D03*
X0259057Y0101425D03*
X0256695Y0103118D03*
X0254766Y0104102D03*
X0254766Y0101780D03*
D107*
X0258781Y0102882D03*
X0261301Y0102134D03*
X0262403Y0103591D03*
X0263821Y0102882D03*
X0266734Y0104102D03*
D108*
X0269293Y0104102D03*
X0269293Y0101898D03*
D109*
X0263525Y0101366D03*
X0254825Y0101720D03*
X0254707Y0104043D03*
D110*
X0257246Y0101484D03*
X0258584Y0103925D03*
X0258584Y0104043D03*
X0261301Y0102705D03*
X0262443Y0102941D03*
X0264018Y0103925D03*
X0264018Y0104043D03*
D111*
X0263880Y0103177D03*
X0262423Y0103413D03*
X0260258Y0103413D03*
X0258722Y0103177D03*
X0257108Y0101366D03*
X0266675Y0101839D03*
X0266675Y0104043D03*
D112*
X0269293Y0104043D03*
X0269293Y0101839D03*
D113*
X0254707Y0103984D03*
D114*
X0258899Y0102291D03*
X0260199Y0103984D03*
X0262403Y0103984D03*
X0263703Y0102291D03*
X0261301Y0101780D03*
X0261301Y0101661D03*
X0266852Y0101543D03*
D115*
X0269313Y0102016D03*
X0269313Y0103866D03*
X0269313Y0103984D03*
D116*
X0263722Y0102350D03*
X0260218Y0103807D03*
X0260218Y0103925D03*
X0258880Y0102350D03*
D117*
X0260218Y0103295D03*
X0256714Y0102193D03*
X0266636Y0103925D03*
D118*
X0269313Y0103925D03*
X0269313Y0101957D03*
X0256439Y0100500D03*
D119*
X0258604Y0103866D03*
X0260258Y0103000D03*
X0262423Y0103000D03*
X0263998Y0103866D03*
X0266557Y0103709D03*
X0266557Y0102134D03*
D120*
X0263722Y0102409D03*
X0260218Y0103866D03*
X0258880Y0102409D03*
D121*
X0256734Y0102291D03*
X0262443Y0103866D03*
D122*
X0262403Y0103236D03*
X0261301Y0102528D03*
X0258663Y0103472D03*
X0258663Y0103591D03*
X0263939Y0103472D03*
X0266616Y0103866D03*
D123*
X0266557Y0103650D03*
X0266557Y0102193D03*
X0263998Y0103768D03*
X0263998Y0103807D03*
X0262423Y0103059D03*
X0258604Y0103768D03*
X0258604Y0103807D03*
D124*
X0258840Y0102587D03*
X0258840Y0102469D03*
X0262423Y0103768D03*
X0262423Y0103807D03*
X0263762Y0102587D03*
X0263762Y0102469D03*
X0266793Y0101602D03*
D125*
X0266577Y0102075D03*
X0266577Y0103768D03*
X0266577Y0103807D03*
X0261340Y0102587D03*
X0256734Y0103650D03*
D126*
X0269352Y0103768D03*
X0269352Y0103807D03*
X0269352Y0102075D03*
D127*
X0263604Y0101720D03*
X0258998Y0101720D03*
X0254470Y0102469D03*
X0254470Y0102587D03*
X0254470Y0103295D03*
X0254470Y0103413D03*
X0254588Y0103768D03*
D128*
X0257187Y0101425D03*
X0258644Y0103709D03*
X0260218Y0103118D03*
X0263958Y0103591D03*
X0263958Y0103709D03*
D129*
X0266754Y0101661D03*
X0260218Y0103709D03*
D130*
X0258821Y0102764D03*
X0258821Y0102646D03*
X0261301Y0102016D03*
X0261301Y0101898D03*
X0262443Y0103709D03*
X0263781Y0102764D03*
X0263781Y0102646D03*
D131*
X0269352Y0102134D03*
X0269352Y0103709D03*
D132*
X0263781Y0102705D03*
X0262443Y0103650D03*
X0261301Y0101957D03*
X0258821Y0102705D03*
X0256695Y0103531D03*
D133*
X0269234Y0103650D03*
D134*
X0266695Y0101780D03*
X0262443Y0103472D03*
X0256734Y0103591D03*
D135*
X0258762Y0103000D03*
X0260218Y0103472D03*
X0260218Y0103591D03*
X0263840Y0103000D03*
D136*
X0266518Y0103472D03*
X0266518Y0103591D03*
X0266518Y0102291D03*
X0260218Y0102882D03*
D137*
X0269175Y0103591D03*
D138*
X0266616Y0101957D03*
X0263939Y0103531D03*
X0262403Y0103177D03*
X0261301Y0102469D03*
X0258663Y0103531D03*
D139*
X0258762Y0103059D03*
X0260218Y0103531D03*
X0263840Y0103059D03*
D140*
X0262443Y0103531D03*
X0256734Y0102232D03*
D141*
X0260218Y0102823D03*
X0260218Y0102941D03*
X0266518Y0103531D03*
X0266518Y0102350D03*
X0266518Y0102232D03*
D142*
X0269116Y0103531D03*
X0256124Y0100894D03*
D143*
X0254588Y0102134D03*
X0254470Y0102409D03*
X0254470Y0102528D03*
X0254470Y0103354D03*
X0254470Y0103472D03*
X0258998Y0101780D03*
X0263604Y0101780D03*
D144*
X0269077Y0103472D03*
X0256084Y0100953D03*
D145*
X0258703Y0103295D03*
X0258703Y0103413D03*
X0261301Y0102350D03*
X0261301Y0102232D03*
X0262443Y0103295D03*
X0263899Y0103295D03*
X0263899Y0103413D03*
D146*
X0269116Y0103413D03*
D147*
X0263899Y0103354D03*
X0261301Y0102291D03*
X0258703Y0103354D03*
D148*
X0260218Y0103354D03*
X0260218Y0103236D03*
X0261321Y0102409D03*
X0266636Y0101898D03*
D149*
X0269096Y0103354D03*
D150*
X0269057Y0103295D03*
X0269057Y0103177D03*
X0269057Y0102587D03*
D151*
X0269057Y0102646D03*
X0269057Y0102528D03*
X0269057Y0103118D03*
X0269057Y0103236D03*
D152*
X0266458Y0103177D03*
X0266458Y0103059D03*
X0266458Y0102941D03*
X0266458Y0102823D03*
X0266458Y0102705D03*
X0262443Y0102705D03*
D153*
X0262443Y0102528D03*
X0261301Y0103000D03*
X0261301Y0103118D03*
D154*
X0262443Y0103118D03*
X0266577Y0102016D03*
D155*
X0269037Y0102705D03*
X0269037Y0102823D03*
X0269037Y0102941D03*
X0269037Y0103059D03*
D156*
X0269037Y0103000D03*
X0269037Y0102882D03*
X0269037Y0102764D03*
X0255966Y0101189D03*
D157*
X0258781Y0102823D03*
X0258781Y0102941D03*
X0261301Y0102193D03*
X0261301Y0102075D03*
X0263821Y0102823D03*
X0263821Y0102941D03*
X0266734Y0101720D03*
D158*
X0263545Y0101484D03*
X0259057Y0101484D03*
X0259057Y0101366D03*
X0256695Y0102705D03*
D159*
X0260218Y0102587D03*
X0260218Y0102469D03*
D160*
X0260218Y0102528D03*
D161*
X0269057Y0102469D03*
D162*
X0269057Y0102409D03*
D163*
X0269077Y0102350D03*
D164*
X0269116Y0102291D03*
D165*
X0263703Y0102232D03*
X0263703Y0102193D03*
X0261301Y0101839D03*
X0261301Y0101720D03*
X0258899Y0102193D03*
X0258899Y0102232D03*
D166*
X0256183Y0100776D03*
X0269175Y0102232D03*
D167*
X0269214Y0102193D03*
X0256262Y0100657D03*
D168*
X0258958Y0101839D03*
X0258958Y0101957D03*
X0263644Y0101957D03*
X0263644Y0101839D03*
X0266911Y0101484D03*
D169*
X0263644Y0101898D03*
X0258958Y0101898D03*
D170*
X0254982Y0101543D03*
D171*
X0267069Y0101366D03*
D172*
X0255907Y0101307D03*
D173*
X0264175Y0101307D03*
D174*
X0255947Y0101248D03*
D175*
X0264155Y0101248D03*
D176*
X0264116Y0101189D03*
D177*
X0256006Y0101130D03*
D178*
X0264096Y0101130D03*
D179*
X0256006Y0101071D03*
D180*
X0264057Y0101071D03*
D181*
X0256025Y0101012D03*
D182*
X0264037Y0101012D03*
D183*
X0263998Y0100953D03*
D184*
X0263978Y0100894D03*
D185*
X0256144Y0100835D03*
D186*
X0263939Y0100835D03*
D187*
X0263880Y0100776D03*
D188*
X0256222Y0100717D03*
D189*
X0263860Y0100717D03*
D190*
X0263801Y0100657D03*
D191*
X0256321Y0100618D03*
D192*
X0263781Y0100618D03*
D193*
X0256380Y0100559D03*
D194*
X0263722Y0100559D03*
D195*
X0263663Y0100500D03*
D196*
X0263604Y0100441D03*
D197*
X0256577Y0100382D03*
D198*
X0263506Y0100382D03*
D199*
X0263368Y0100323D03*
D200*
X0224490Y0109209D03*
X0235246Y0125709D03*
X0215817Y0127209D03*
X0213888Y0127209D03*
X0197899Y0127209D03*
X0193766Y0130791D03*
D201*
X0194514Y0129689D03*
X0195773Y0130791D03*
X0197978Y0130791D03*
X0204840Y0112791D03*
D202*
X0204781Y0112240D03*
X0204781Y0111965D03*
X0205057Y0111413D03*
X0205057Y0111138D03*
X0203679Y0111138D03*
X0203679Y0111689D03*
X0208364Y0111689D03*
X0209742Y0111689D03*
X0209742Y0111413D03*
X0209742Y0111138D03*
X0209742Y0110035D03*
X0209742Y0109760D03*
X0209742Y0109484D03*
X0211671Y0109484D03*
X0211671Y0111413D03*
X0211671Y0111689D03*
X0226833Y0112516D03*
X0229313Y0112516D03*
X0226833Y0109484D03*
X0236762Y0125984D03*
X0237588Y0127638D03*
X0239518Y0125984D03*
X0200518Y0130791D03*
X0199140Y0129138D03*
X0199140Y0128862D03*
X0180793Y0122638D03*
X0180793Y0122362D03*
X0175281Y0121811D03*
X0175281Y0123189D03*
D203*
X0193766Y0130654D03*
X0206573Y0111551D03*
X0232214Y0129154D03*
D204*
X0235167Y0125846D03*
X0236821Y0125846D03*
X0239577Y0125846D03*
X0240955Y0125846D03*
X0240955Y0126122D03*
X0240955Y0126398D03*
X0240955Y0126673D03*
X0240955Y0126949D03*
X0240955Y0127224D03*
X0240955Y0127500D03*
X0240955Y0127776D03*
X0240955Y0128051D03*
X0240955Y0128327D03*
X0219478Y0127346D03*
X0216998Y0127346D03*
X0215895Y0127346D03*
X0219478Y0130654D03*
X0197978Y0130654D03*
X0195773Y0130654D03*
X0195773Y0130378D03*
X0195773Y0130102D03*
X0195773Y0129827D03*
X0195773Y0129551D03*
X0195773Y0128449D03*
X0195773Y0128173D03*
X0195773Y0127898D03*
X0195773Y0127622D03*
X0195773Y0127346D03*
X0197978Y0127346D03*
X0192309Y0128724D03*
X0180734Y0122776D03*
X0201809Y0111827D03*
X0201809Y0111551D03*
X0201809Y0111276D03*
X0201809Y0109898D03*
X0201809Y0109622D03*
X0201809Y0109346D03*
X0203738Y0111551D03*
X0204722Y0112654D03*
X0205667Y0109346D03*
X0207596Y0109346D03*
X0208581Y0112654D03*
X0211730Y0109346D03*
X0224411Y0109346D03*
X0226773Y0109346D03*
X0229372Y0109346D03*
X0229372Y0112654D03*
D205*
X0207616Y0110724D03*
X0207616Y0110449D03*
X0206632Y0111276D03*
X0205687Y0110449D03*
X0201147Y0128724D03*
X0201147Y0129000D03*
X0200596Y0130654D03*
X0218238Y0128724D03*
D206*
X0232214Y0125984D03*
X0228073Y0111413D03*
X0202439Y0110311D03*
X0193766Y0130516D03*
D207*
X0192309Y0129138D03*
X0192309Y0128862D03*
X0194395Y0128035D03*
X0195773Y0128035D03*
X0195773Y0127760D03*
X0195773Y0127484D03*
X0195773Y0128311D03*
X0195773Y0129413D03*
X0195773Y0129689D03*
X0195773Y0129965D03*
X0195773Y0130240D03*
X0195773Y0130516D03*
X0197978Y0130516D03*
X0232844Y0128465D03*
X0235167Y0125984D03*
X0238199Y0129016D03*
X0240955Y0128465D03*
X0240955Y0128189D03*
X0240955Y0127913D03*
X0240955Y0127638D03*
X0240955Y0127362D03*
X0240955Y0127087D03*
X0240955Y0126811D03*
X0240955Y0126535D03*
X0240955Y0126260D03*
X0240955Y0125984D03*
X0224411Y0109484D03*
X0208581Y0112516D03*
X0206651Y0112516D03*
X0203738Y0111413D03*
X0201809Y0111413D03*
X0201809Y0111138D03*
X0201809Y0111689D03*
X0201809Y0110035D03*
X0201809Y0109760D03*
X0201809Y0109484D03*
X0205667Y0109484D03*
X0207596Y0109484D03*
D208*
X0176305Y0124291D03*
X0175911Y0122087D03*
X0200596Y0130516D03*
D209*
X0200577Y0130378D03*
X0193687Y0130378D03*
X0193687Y0127622D03*
X0214636Y0128449D03*
X0214636Y0130378D03*
X0210510Y0112378D03*
X0202636Y0112378D03*
D210*
X0204644Y0112378D03*
X0204919Y0111827D03*
X0204919Y0111551D03*
X0206573Y0112378D03*
X0208502Y0112102D03*
X0208226Y0111276D03*
X0211533Y0109898D03*
X0224490Y0109898D03*
X0224490Y0110173D03*
X0224490Y0110449D03*
X0224490Y0110724D03*
X0224490Y0111000D03*
X0224490Y0111276D03*
X0224490Y0111551D03*
X0224490Y0111827D03*
X0224490Y0109622D03*
X0233041Y0126673D03*
X0233041Y0126949D03*
X0231388Y0128327D03*
X0235246Y0128327D03*
X0235246Y0128051D03*
X0235246Y0127776D03*
X0235246Y0127500D03*
X0235246Y0127224D03*
X0235246Y0126949D03*
X0235246Y0126673D03*
X0235246Y0126398D03*
X0235246Y0126122D03*
X0236899Y0126122D03*
X0238829Y0127500D03*
X0215817Y0127622D03*
X0215817Y0129276D03*
X0215817Y0129551D03*
X0213888Y0129551D03*
X0213888Y0129276D03*
X0213888Y0129827D03*
X0213888Y0127898D03*
X0213888Y0127622D03*
X0213888Y0127346D03*
X0201482Y0128173D03*
X0201482Y0128449D03*
X0199277Y0128449D03*
X0199277Y0129551D03*
X0197899Y0129551D03*
X0197899Y0129827D03*
X0197899Y0130102D03*
X0197899Y0130378D03*
X0197899Y0128449D03*
X0197899Y0128173D03*
X0197899Y0127898D03*
X0197899Y0127622D03*
X0192388Y0128449D03*
X0192388Y0129276D03*
X0180655Y0121949D03*
X0178451Y0121949D03*
X0178451Y0122224D03*
X0178451Y0122500D03*
X0178451Y0122776D03*
X0178451Y0123051D03*
X0178451Y0123327D03*
X0178451Y0121673D03*
X0172388Y0121673D03*
X0172388Y0121949D03*
X0172388Y0122224D03*
X0172388Y0122500D03*
X0172388Y0122776D03*
X0172388Y0123051D03*
X0172388Y0123327D03*
X0172388Y0123602D03*
X0172388Y0123878D03*
D211*
X0176108Y0121535D03*
X0193628Y0127760D03*
X0193628Y0130240D03*
X0200518Y0130240D03*
X0210569Y0112240D03*
X0210569Y0110587D03*
X0210569Y0110311D03*
D212*
X0211533Y0110035D03*
X0208226Y0111138D03*
X0208226Y0111413D03*
X0208502Y0111965D03*
X0208502Y0112240D03*
X0204919Y0111689D03*
X0204644Y0112516D03*
X0224490Y0111965D03*
X0224490Y0111689D03*
X0224490Y0111413D03*
X0224490Y0111138D03*
X0224490Y0110862D03*
X0224490Y0110587D03*
X0224490Y0110311D03*
X0224490Y0110035D03*
X0224490Y0109760D03*
X0231388Y0126535D03*
X0233041Y0126535D03*
X0233041Y0126811D03*
X0231388Y0128189D03*
X0232214Y0129291D03*
X0235246Y0128465D03*
X0235246Y0128189D03*
X0235246Y0127913D03*
X0235246Y0127638D03*
X0235246Y0127362D03*
X0235246Y0127087D03*
X0235246Y0126811D03*
X0235246Y0126535D03*
X0235246Y0126260D03*
X0236899Y0126260D03*
X0237451Y0127362D03*
X0216919Y0127484D03*
X0215817Y0127484D03*
X0215817Y0129413D03*
X0215817Y0129689D03*
X0216919Y0130516D03*
X0213888Y0129689D03*
X0213888Y0129413D03*
X0213888Y0129138D03*
X0213888Y0128035D03*
X0213888Y0127760D03*
X0213888Y0127484D03*
X0201482Y0128311D03*
X0199277Y0128587D03*
X0199277Y0129413D03*
X0197899Y0129413D03*
X0197899Y0129689D03*
X0197899Y0129965D03*
X0197899Y0130240D03*
X0197899Y0128311D03*
X0197899Y0128035D03*
X0197899Y0127760D03*
X0197899Y0127484D03*
X0192388Y0128587D03*
X0192388Y0129413D03*
X0180655Y0122913D03*
X0180655Y0122087D03*
X0178451Y0122087D03*
X0178451Y0122362D03*
X0178451Y0122638D03*
X0178451Y0122913D03*
X0178451Y0123189D03*
X0178451Y0121811D03*
X0172388Y0121811D03*
X0172388Y0121535D03*
X0172388Y0122087D03*
X0172388Y0122362D03*
X0172388Y0122638D03*
X0172388Y0122913D03*
X0172388Y0123189D03*
X0172388Y0123465D03*
X0172388Y0123740D03*
X0172388Y0124016D03*
D213*
X0176305Y0124154D03*
X0193549Y0127898D03*
X0193549Y0130102D03*
X0200439Y0130102D03*
X0200596Y0127622D03*
X0214773Y0129000D03*
X0214773Y0130102D03*
X0210647Y0112102D03*
X0210647Y0110724D03*
X0202773Y0111000D03*
D214*
X0202773Y0111965D03*
X0210647Y0111965D03*
X0210647Y0110862D03*
X0238218Y0127087D03*
X0214773Y0128862D03*
X0214773Y0129965D03*
X0200321Y0129965D03*
X0193549Y0129965D03*
X0179336Y0123740D03*
X0179336Y0121260D03*
X0176187Y0123465D03*
D215*
X0192663Y0129827D03*
X0217195Y0130102D03*
X0217470Y0129827D03*
X0217470Y0128173D03*
X0217195Y0127898D03*
X0219399Y0127622D03*
X0229175Y0112102D03*
X0228899Y0111827D03*
X0228073Y0111000D03*
X0228899Y0110173D03*
D216*
X0226833Y0112654D03*
X0238140Y0129154D03*
X0201344Y0129827D03*
X0194455Y0129827D03*
D217*
X0192447Y0129551D03*
X0192604Y0128173D03*
X0199494Y0128173D03*
X0199494Y0129827D03*
X0198254Y0133138D03*
X0198411Y0133295D03*
X0198411Y0133453D03*
X0198411Y0134713D03*
X0198411Y0134870D03*
X0198411Y0135028D03*
X0196521Y0135185D03*
X0196521Y0134713D03*
X0196521Y0134555D03*
X0195104Y0134555D03*
X0195104Y0134713D03*
X0195104Y0135185D03*
X0193057Y0135028D03*
X0193057Y0134870D03*
X0193057Y0134713D03*
X0188333Y0134713D03*
X0188333Y0134870D03*
X0188333Y0135028D03*
X0188333Y0135185D03*
X0188333Y0134555D03*
X0188333Y0134398D03*
X0188333Y0134240D03*
X0188333Y0134083D03*
X0188333Y0133925D03*
X0188333Y0133768D03*
X0186443Y0135028D03*
X0186443Y0135185D03*
X0185025Y0135185D03*
X0185025Y0135343D03*
X0183136Y0135185D03*
X0183136Y0134398D03*
X0181718Y0134713D03*
X0181718Y0134870D03*
X0181718Y0135028D03*
X0181718Y0135185D03*
X0179829Y0135185D03*
X0179829Y0135028D03*
X0179829Y0134870D03*
X0179829Y0134713D03*
X0179829Y0133453D03*
X0179829Y0133295D03*
X0179829Y0133138D03*
X0179829Y0132980D03*
X0179829Y0132823D03*
X0179829Y0132665D03*
X0179829Y0132508D03*
X0178254Y0134713D03*
X0178411Y0134870D03*
X0178411Y0135028D03*
X0178411Y0135185D03*
X0178411Y0135343D03*
X0178411Y0135500D03*
X0178411Y0135657D03*
X0178411Y0135815D03*
X0178411Y0135972D03*
X0175419Y0135972D03*
X0175419Y0135815D03*
X0175419Y0135657D03*
X0175419Y0135500D03*
X0175419Y0135343D03*
X0175419Y0135185D03*
X0175419Y0135028D03*
X0175419Y0134870D03*
X0176762Y0139268D03*
X0176919Y0139583D03*
X0177549Y0140843D03*
X0177707Y0141157D03*
X0179124Y0141000D03*
X0179124Y0140843D03*
X0179281Y0140685D03*
X0179754Y0139583D03*
X0179911Y0139268D03*
X0179911Y0139110D03*
X0181329Y0140843D03*
X0184163Y0140685D03*
X0184163Y0140528D03*
X0184163Y0140370D03*
X0184163Y0140213D03*
X0184163Y0140055D03*
X0184793Y0138953D03*
X0186210Y0140685D03*
X0184163Y0141945D03*
X0184163Y0142102D03*
X0184163Y0142260D03*
X0184163Y0142417D03*
X0178336Y0142575D03*
X0189518Y0140685D03*
X0189518Y0140528D03*
X0189518Y0140370D03*
X0189518Y0140213D03*
X0189518Y0140055D03*
X0189518Y0139898D03*
X0189518Y0139740D03*
X0189518Y0139583D03*
X0189518Y0139425D03*
X0189518Y0139268D03*
X0189518Y0139110D03*
X0191250Y0139268D03*
X0191250Y0139425D03*
X0191250Y0139583D03*
X0191250Y0139740D03*
X0191250Y0139898D03*
X0191250Y0140055D03*
X0191250Y0140213D03*
X0191250Y0140370D03*
X0191250Y0140528D03*
X0192825Y0140528D03*
X0192825Y0140685D03*
X0192825Y0140370D03*
X0192825Y0140213D03*
X0192825Y0140055D03*
X0192825Y0139898D03*
X0192825Y0139740D03*
X0192825Y0139583D03*
X0192825Y0139425D03*
X0195817Y0140843D03*
X0197234Y0139740D03*
X0215758Y0129827D03*
X0216978Y0130378D03*
X0219458Y0130378D03*
X0216978Y0127622D03*
X0231447Y0128051D03*
X0237392Y0127224D03*
X0237510Y0127500D03*
X0260419Y0135528D03*
X0260419Y0135685D03*
X0260419Y0135843D03*
X0260419Y0136000D03*
X0260419Y0136157D03*
X0260419Y0136315D03*
X0260577Y0136472D03*
X0260577Y0136630D03*
X0260577Y0135370D03*
X0263411Y0135370D03*
X0263569Y0135685D03*
X0263569Y0135843D03*
X0263569Y0136000D03*
X0263569Y0136157D03*
X0263569Y0136315D03*
X0263411Y0136472D03*
X0263411Y0136630D03*
X0264986Y0136630D03*
X0264986Y0136787D03*
X0264986Y0136945D03*
X0264986Y0135370D03*
X0264986Y0135213D03*
X0264986Y0135055D03*
X0264986Y0134898D03*
X0264986Y0134740D03*
X0264986Y0134583D03*
X0264986Y0134425D03*
X0264986Y0134268D03*
X0268608Y0134268D03*
X0268608Y0134425D03*
X0268608Y0134583D03*
X0268608Y0134740D03*
X0268608Y0134898D03*
X0268608Y0135055D03*
X0268608Y0135213D03*
X0268608Y0135370D03*
X0268608Y0136630D03*
X0268608Y0136787D03*
X0268608Y0136945D03*
X0227305Y0111827D03*
X0226911Y0112378D03*
X0226911Y0109622D03*
X0211592Y0111827D03*
X0207616Y0109898D03*
X0207616Y0109622D03*
X0205687Y0109622D03*
X0205687Y0109898D03*
X0206632Y0112102D03*
X0203600Y0111827D03*
X0180596Y0123051D03*
X0180439Y0121673D03*
X0241919Y0166268D03*
X0241919Y0166425D03*
X0241919Y0166583D03*
X0241919Y0166740D03*
X0241919Y0166898D03*
X0241919Y0168157D03*
X0241919Y0168315D03*
X0241919Y0168472D03*
X0241919Y0168630D03*
X0241919Y0168787D03*
X0241919Y0168945D03*
X0243966Y0168787D03*
X0244124Y0168630D03*
X0244124Y0168472D03*
X0244124Y0168315D03*
X0243966Y0168157D03*
X0243809Y0166898D03*
X0243966Y0166740D03*
X0243966Y0166583D03*
X0244124Y0166268D03*
X0245384Y0166898D03*
X0245384Y0168787D03*
X0245384Y0168945D03*
X0246329Y0170047D03*
X0247273Y0167370D03*
X0247273Y0167213D03*
X0247273Y0167055D03*
X0247273Y0166898D03*
X0249793Y0166898D03*
X0249793Y0167055D03*
X0249793Y0167213D03*
X0249793Y0167370D03*
X0249793Y0167528D03*
X0249793Y0167685D03*
X0249793Y0167843D03*
X0249793Y0168000D03*
X0249793Y0168157D03*
X0249793Y0168315D03*
X0249793Y0168472D03*
X0249793Y0168630D03*
X0249793Y0168787D03*
X0249793Y0168945D03*
X0249793Y0169102D03*
X0249793Y0166740D03*
X0249793Y0166583D03*
X0249793Y0166425D03*
X0261762Y0174028D03*
X0261762Y0174185D03*
X0261762Y0174343D03*
X0261762Y0174500D03*
X0261762Y0174657D03*
X0261762Y0174815D03*
X0261919Y0174972D03*
X0261919Y0175130D03*
X0261919Y0173870D03*
X0264754Y0173870D03*
X0264911Y0174185D03*
X0264911Y0174343D03*
X0264911Y0174500D03*
X0264911Y0174657D03*
X0264911Y0174815D03*
X0264754Y0174972D03*
X0264754Y0175130D03*
X0266329Y0174343D03*
X0266329Y0174185D03*
X0266329Y0174028D03*
X0266329Y0173870D03*
X0266329Y0173713D03*
X0266329Y0173555D03*
X0266329Y0173398D03*
X0266329Y0173240D03*
X0266329Y0173083D03*
X0266329Y0172925D03*
X0268848Y0172768D03*
X0268848Y0172610D03*
X0268848Y0174500D03*
X0268848Y0174657D03*
X0268848Y0174815D03*
X0268848Y0174972D03*
X0268848Y0175130D03*
X0268848Y0175287D03*
X0268848Y0175445D03*
X0268848Y0175602D03*
X0268848Y0175760D03*
X0268848Y0175917D03*
X0268848Y0176075D03*
X0266329Y0176232D03*
D218*
X0219458Y0130516D03*
X0217529Y0129689D03*
X0215758Y0129138D03*
X0215600Y0128035D03*
X0215758Y0127760D03*
X0219458Y0127484D03*
X0231447Y0128465D03*
X0238218Y0128740D03*
X0238770Y0127638D03*
X0238888Y0127362D03*
X0239439Y0126260D03*
X0229234Y0112240D03*
X0228958Y0110035D03*
X0229392Y0109484D03*
X0211592Y0109760D03*
X0211592Y0111138D03*
X0207616Y0109760D03*
X0205687Y0109760D03*
X0206632Y0112240D03*
X0180596Y0121811D03*
X0178943Y0124291D03*
X0192447Y0128311D03*
X0192604Y0129689D03*
X0199336Y0129689D03*
X0199336Y0128311D03*
X0201423Y0128035D03*
D219*
X0201344Y0129689D03*
X0238140Y0129291D03*
D220*
X0196876Y0129276D03*
X0196876Y0129000D03*
X0196876Y0128724D03*
D221*
X0199140Y0128724D03*
X0199140Y0129000D03*
X0199140Y0129276D03*
X0192250Y0129000D03*
X0188411Y0133610D03*
X0189829Y0134398D03*
X0189829Y0134555D03*
X0189829Y0134713D03*
X0189829Y0134870D03*
X0189829Y0135028D03*
X0189829Y0135185D03*
X0189829Y0135343D03*
X0189829Y0135500D03*
X0189829Y0135657D03*
X0189829Y0135815D03*
X0189829Y0135972D03*
X0189829Y0136130D03*
X0189829Y0136287D03*
X0189829Y0136445D03*
X0189829Y0136602D03*
X0189829Y0136760D03*
X0189829Y0136917D03*
X0189829Y0137075D03*
X0189829Y0137232D03*
X0189829Y0137390D03*
X0191171Y0139110D03*
X0192903Y0139110D03*
X0192903Y0139268D03*
X0194321Y0139268D03*
X0194321Y0139425D03*
X0194321Y0139583D03*
X0194321Y0139740D03*
X0194321Y0139898D03*
X0194321Y0140055D03*
X0194321Y0140213D03*
X0194321Y0140370D03*
X0194321Y0140528D03*
X0194321Y0140685D03*
X0194321Y0140843D03*
X0194321Y0141000D03*
X0194321Y0141157D03*
X0194321Y0141315D03*
X0194321Y0141472D03*
X0194321Y0141630D03*
X0194321Y0142417D03*
X0194321Y0142575D03*
X0194321Y0142732D03*
X0194321Y0142890D03*
X0194321Y0143047D03*
X0195738Y0141000D03*
X0194321Y0139110D03*
X0189439Y0141630D03*
X0188179Y0140843D03*
X0188179Y0140685D03*
X0184242Y0139898D03*
X0181250Y0139898D03*
X0181250Y0140055D03*
X0181250Y0140213D03*
X0181250Y0140370D03*
X0181250Y0140528D03*
X0181250Y0140685D03*
X0181250Y0139740D03*
X0181250Y0139583D03*
X0181250Y0139425D03*
X0181250Y0139268D03*
X0181250Y0139110D03*
X0176840Y0139110D03*
X0176915Y0137547D03*
X0179750Y0132350D03*
X0186364Y0133610D03*
X0186364Y0133768D03*
X0186364Y0133925D03*
X0186364Y0134083D03*
X0186364Y0134240D03*
X0186364Y0134398D03*
X0186364Y0134555D03*
X0186364Y0134713D03*
X0186364Y0134870D03*
X0187624Y0136287D03*
X0195183Y0135028D03*
X0195183Y0134870D03*
X0196443Y0134870D03*
X0196443Y0135028D03*
X0184242Y0142575D03*
X0184242Y0142732D03*
X0178415Y0142732D03*
X0215679Y0127898D03*
X0238140Y0128878D03*
X0238966Y0127224D03*
X0239518Y0126122D03*
X0261915Y0138047D03*
X0263490Y0135528D03*
X0264907Y0134110D03*
X0268529Y0134110D03*
X0211671Y0111551D03*
X0211671Y0111276D03*
X0211671Y0109622D03*
X0209742Y0109622D03*
X0209742Y0109346D03*
X0209742Y0109898D03*
X0209742Y0111276D03*
X0209742Y0111551D03*
X0209742Y0111827D03*
X0208640Y0112378D03*
X0208364Y0111827D03*
X0208364Y0111551D03*
X0205057Y0111276D03*
X0204781Y0112102D03*
X0203679Y0111276D03*
X0180793Y0122224D03*
X0180793Y0122500D03*
X0175281Y0121949D03*
X0175281Y0121673D03*
X0175281Y0123051D03*
X0175281Y0123327D03*
X0241840Y0166110D03*
X0244045Y0166110D03*
X0247037Y0169102D03*
X0249714Y0166268D03*
X0249714Y0166110D03*
X0264833Y0174028D03*
X0266250Y0172768D03*
X0266250Y0172610D03*
X0266250Y0176390D03*
X0268927Y0176390D03*
X0268927Y0176232D03*
X0263258Y0176547D03*
D222*
X0218218Y0129000D03*
X0201128Y0129276D03*
X0180301Y0123327D03*
X0205667Y0110173D03*
X0206651Y0111827D03*
X0207596Y0110173D03*
D223*
X0224411Y0112791D03*
X0238199Y0126811D03*
X0240955Y0129291D03*
X0235167Y0129291D03*
X0196876Y0129138D03*
X0196876Y0128862D03*
X0196876Y0128587D03*
X0179474Y0123465D03*
X0179474Y0121535D03*
D224*
X0201147Y0128862D03*
X0201147Y0129138D03*
X0206632Y0111413D03*
X0205687Y0110587D03*
X0207616Y0110587D03*
X0238218Y0128189D03*
D225*
X0238199Y0128465D03*
X0232844Y0127087D03*
X0231584Y0127913D03*
X0218218Y0128862D03*
X0201285Y0128587D03*
X0199632Y0128035D03*
X0193687Y0127209D03*
X0192742Y0128035D03*
X0206651Y0111689D03*
X0207596Y0110311D03*
X0207596Y0110035D03*
X0205667Y0110035D03*
X0205667Y0110311D03*
D226*
X0206632Y0112654D03*
X0194533Y0128173D03*
X0232825Y0128327D03*
D227*
X0238140Y0126949D03*
X0200518Y0127898D03*
X0179415Y0123602D03*
X0179415Y0121398D03*
D228*
X0200518Y0127760D03*
D229*
X0193766Y0127484D03*
X0175970Y0122638D03*
X0175970Y0122362D03*
X0210431Y0112516D03*
X0232214Y0128740D03*
D230*
X0232136Y0126260D03*
X0218218Y0128311D03*
X0200577Y0127484D03*
X0179199Y0120984D03*
X0173293Y0120709D03*
X0202636Y0110587D03*
X0228151Y0110311D03*
D231*
X0200577Y0127346D03*
X0193687Y0127346D03*
X0179081Y0124154D03*
X0214518Y0130654D03*
D232*
X0216978Y0127209D03*
X0219458Y0127209D03*
X0219458Y0130791D03*
X0236840Y0125709D03*
X0240974Y0125709D03*
X0229392Y0109209D03*
X0207616Y0109209D03*
X0205687Y0109209D03*
X0201829Y0109209D03*
X0195754Y0127209D03*
D233*
X0200655Y0127209D03*
X0228073Y0111138D03*
X0228073Y0110862D03*
D234*
X0232214Y0125571D03*
X0193766Y0127071D03*
D235*
X0200577Y0127071D03*
D236*
X0217057Y0127760D03*
X0217333Y0128035D03*
X0217333Y0129965D03*
X0217057Y0130240D03*
X0219262Y0127760D03*
X0210293Y0112791D03*
X0202301Y0112791D03*
X0227384Y0111689D03*
X0228762Y0111689D03*
X0229037Y0111965D03*
X0180518Y0123189D03*
D237*
X0208502Y0112791D03*
X0231388Y0126811D03*
X0216919Y0130791D03*
D238*
X0232214Y0128878D03*
X0210431Y0112654D03*
X0202439Y0112654D03*
D239*
X0202577Y0112516D03*
X0179140Y0124016D03*
X0214577Y0130516D03*
D240*
X0214714Y0130240D03*
X0214714Y0128587D03*
X0214714Y0128311D03*
X0202714Y0112240D03*
X0202714Y0110862D03*
X0176246Y0120709D03*
X0173214Y0120984D03*
X0173214Y0121260D03*
D241*
X0173214Y0121122D03*
X0173214Y0120846D03*
X0179277Y0121122D03*
X0179277Y0123878D03*
X0202714Y0112102D03*
X0202714Y0110724D03*
X0232214Y0126398D03*
X0214714Y0128173D03*
X0214714Y0128724D03*
D242*
X0214439Y0130791D03*
X0218848Y0129689D03*
X0219124Y0129965D03*
X0219399Y0130240D03*
X0219124Y0128035D03*
X0232214Y0125709D03*
X0226970Y0112240D03*
X0227246Y0111965D03*
X0227246Y0110035D03*
X0226970Y0109760D03*
X0229175Y0109760D03*
X0206573Y0111965D03*
D243*
X0206573Y0111138D03*
X0179002Y0120709D03*
D244*
X0206632Y0111000D03*
D245*
X0210707Y0111000D03*
X0176246Y0120846D03*
X0176246Y0121122D03*
X0176246Y0121398D03*
X0176246Y0123602D03*
X0176246Y0123878D03*
D246*
X0206632Y0110862D03*
D247*
X0205608Y0110724D03*
X0202301Y0110173D03*
X0232628Y0127224D03*
X0238140Y0128051D03*
X0218159Y0129276D03*
D248*
X0197781Y0136130D03*
X0196447Y0139268D03*
X0196447Y0139425D03*
X0196447Y0141315D03*
X0187313Y0141472D03*
X0187313Y0139268D03*
X0187073Y0136130D03*
X0184081Y0135972D03*
X0180458Y0136130D03*
X0178336Y0141315D03*
X0184321Y0141630D03*
X0194159Y0135972D03*
X0173077Y0121398D03*
X0179140Y0120846D03*
X0202577Y0110449D03*
X0261994Y0134110D03*
X0261994Y0137732D03*
X0246329Y0166268D03*
X0246171Y0168157D03*
X0246329Y0169575D03*
X0242549Y0169890D03*
X0263336Y0172610D03*
X0263336Y0176232D03*
X0266958Y0174500D03*
X0268218Y0174343D03*
D249*
X0210569Y0110449D03*
X0210569Y0110173D03*
D250*
X0209742Y0109209D03*
X0211671Y0109209D03*
X0239518Y0125709D03*
D251*
X0231388Y0126673D03*
X0216919Y0130654D03*
X0172388Y0124154D03*
D252*
X0175655Y0134555D03*
X0175498Y0134713D03*
X0175498Y0136130D03*
X0175655Y0136287D03*
X0178175Y0136287D03*
X0178333Y0136130D03*
X0178175Y0134555D03*
X0179907Y0134555D03*
X0181640Y0134555D03*
X0181640Y0135343D03*
X0183214Y0135343D03*
X0184714Y0139110D03*
X0186289Y0139898D03*
X0186447Y0139740D03*
X0186289Y0140843D03*
X0184084Y0140843D03*
X0179833Y0139425D03*
X0179045Y0141157D03*
X0178415Y0142417D03*
X0177628Y0141000D03*
X0177470Y0140685D03*
X0176840Y0139425D03*
X0190699Y0141630D03*
X0191171Y0140685D03*
X0193293Y0135343D03*
X0193136Y0135185D03*
X0193136Y0134555D03*
X0193293Y0134398D03*
X0195025Y0134398D03*
X0195025Y0135343D03*
X0196600Y0135343D03*
X0198333Y0135185D03*
X0198333Y0134555D03*
X0218986Y0129827D03*
X0219262Y0130102D03*
X0218986Y0128173D03*
X0219262Y0127898D03*
X0238140Y0128602D03*
X0260655Y0135213D03*
X0260655Y0136787D03*
X0263333Y0136787D03*
X0263333Y0135213D03*
X0229313Y0112378D03*
X0227108Y0112102D03*
X0227384Y0110173D03*
X0227108Y0109898D03*
X0229037Y0109898D03*
X0229313Y0109622D03*
X0244045Y0166425D03*
X0243888Y0168945D03*
X0245462Y0169102D03*
X0245462Y0168630D03*
X0261998Y0173713D03*
X0261998Y0175287D03*
X0264675Y0175287D03*
X0264675Y0173713D03*
X0266407Y0175917D03*
X0266407Y0176075D03*
X0268770Y0172925D03*
D253*
X0268297Y0174028D03*
X0268297Y0174185D03*
X0266880Y0174657D03*
X0266880Y0174815D03*
X0246407Y0169732D03*
X0246565Y0167843D03*
X0196525Y0141472D03*
X0196368Y0141157D03*
X0196525Y0140370D03*
X0196368Y0139110D03*
X0187392Y0139110D03*
X0184399Y0141000D03*
X0184399Y0141787D03*
X0181880Y0141630D03*
X0181880Y0141472D03*
X0181880Y0141315D03*
X0181880Y0141157D03*
X0181880Y0141000D03*
X0178415Y0141472D03*
X0176915Y0137232D03*
X0176915Y0133610D03*
X0180380Y0133610D03*
X0184159Y0133610D03*
X0194081Y0133768D03*
X0197388Y0132508D03*
X0197860Y0133610D03*
X0218238Y0129551D03*
X0218238Y0128449D03*
X0232155Y0128602D03*
X0232273Y0127500D03*
X0265537Y0136472D03*
X0269159Y0136472D03*
X0228132Y0110449D03*
D254*
X0232077Y0127638D03*
X0218159Y0129413D03*
X0175833Y0122913D03*
D255*
X0218159Y0129138D03*
D256*
X0218218Y0128587D03*
X0232293Y0129016D03*
X0232411Y0127362D03*
X0238199Y0127913D03*
X0228151Y0110587D03*
D257*
X0224490Y0112654D03*
X0235246Y0129154D03*
D258*
X0235167Y0128878D03*
X0240955Y0128878D03*
X0240955Y0129154D03*
X0224411Y0112378D03*
D259*
X0224411Y0112516D03*
X0235167Y0129016D03*
X0240955Y0129016D03*
X0240955Y0128740D03*
D260*
X0235246Y0128740D03*
X0224490Y0112240D03*
D261*
X0224431Y0112102D03*
X0235187Y0128602D03*
X0240974Y0128602D03*
X0261994Y0134583D03*
X0261994Y0137260D03*
X0266088Y0137260D03*
X0266088Y0137417D03*
X0266088Y0137575D03*
X0266088Y0137732D03*
X0269710Y0137732D03*
X0269710Y0137575D03*
X0269710Y0137417D03*
X0269710Y0137260D03*
X0263336Y0173083D03*
X0263336Y0175760D03*
X0178336Y0140370D03*
X0178336Y0140213D03*
D262*
X0238140Y0128327D03*
D263*
X0232214Y0125846D03*
X0231939Y0127776D03*
X0228073Y0111276D03*
X0228073Y0110724D03*
D264*
X0238140Y0127776D03*
X0196604Y0140213D03*
X0196447Y0140528D03*
X0196604Y0141630D03*
X0187313Y0141630D03*
X0184081Y0136130D03*
X0178336Y0141630D03*
X0246329Y0166110D03*
X0246801Y0167685D03*
X0246014Y0168315D03*
X0266801Y0174972D03*
X0268376Y0173870D03*
D265*
X0242943Y0169102D03*
X0242943Y0168000D03*
X0242943Y0167843D03*
X0266010Y0137890D03*
X0266010Y0137102D03*
X0269632Y0137102D03*
X0269632Y0137890D03*
X0238140Y0126673D03*
X0176915Y0134083D03*
X0176915Y0136917D03*
D266*
X0238218Y0126535D03*
D267*
X0238140Y0126398D03*
X0261915Y0134740D03*
X0249714Y0170047D03*
X0263258Y0173240D03*
X0176915Y0136760D03*
X0176915Y0136602D03*
X0176915Y0134240D03*
D268*
X0175970Y0122776D03*
X0175970Y0122500D03*
X0175970Y0122224D03*
X0228073Y0111551D03*
X0232214Y0126122D03*
D269*
X0229313Y0112791D03*
X0226833Y0112791D03*
X0226833Y0109209D03*
D270*
X0196758Y0133138D03*
X0184947Y0134240D03*
X0187392Y0138795D03*
X0179833Y0138953D03*
X0176840Y0138953D03*
X0176915Y0133295D03*
X0195738Y0139740D03*
X0194321Y0143205D03*
X0244045Y0165953D03*
X0247037Y0168945D03*
D271*
X0245384Y0167055D03*
X0241919Y0165953D03*
X0249793Y0165953D03*
X0266329Y0172453D03*
X0268848Y0172453D03*
X0198411Y0136287D03*
X0197309Y0136287D03*
X0194399Y0138953D03*
X0192825Y0138953D03*
X0191250Y0138953D03*
X0189518Y0138953D03*
X0189518Y0141787D03*
X0190620Y0141787D03*
X0192352Y0141787D03*
X0194399Y0141787D03*
X0186443Y0136287D03*
X0180931Y0136287D03*
X0179829Y0136287D03*
X0181171Y0138953D03*
X0181171Y0141787D03*
X0182431Y0141787D03*
X0178336Y0142890D03*
X0184238Y0133295D03*
X0186443Y0133453D03*
X0188333Y0133453D03*
X0264986Y0133953D03*
X0268608Y0133953D03*
D272*
X0197230Y0133453D03*
X0194081Y0136445D03*
X0189829Y0137547D03*
X0187234Y0141945D03*
X0185029Y0140843D03*
X0184242Y0142890D03*
X0184159Y0136445D03*
X0194321Y0142260D03*
X0196525Y0141945D03*
X0197155Y0141000D03*
X0266250Y0176547D03*
D273*
X0266486Y0175760D03*
X0264439Y0175445D03*
X0264596Y0173555D03*
X0264439Y0173398D03*
X0262234Y0173398D03*
X0262077Y0173555D03*
X0262234Y0175445D03*
X0268691Y0173083D03*
X0246329Y0165953D03*
X0197077Y0139898D03*
X0194159Y0136287D03*
X0198254Y0135343D03*
X0194159Y0133453D03*
X0183293Y0134240D03*
X0179986Y0135343D03*
X0178096Y0136445D03*
X0175734Y0136445D03*
X0178336Y0142260D03*
X0187313Y0141787D03*
X0192352Y0141630D03*
X0260734Y0135055D03*
X0260892Y0134898D03*
X0260892Y0136945D03*
X0263096Y0136945D03*
X0263254Y0135055D03*
X0263096Y0134898D03*
D274*
X0247037Y0167528D03*
X0245620Y0168472D03*
X0242470Y0170047D03*
X0266565Y0175602D03*
X0268612Y0173240D03*
X0196525Y0141787D03*
X0196368Y0138953D03*
X0184714Y0139268D03*
X0184557Y0139740D03*
X0184159Y0136287D03*
X0178018Y0134398D03*
X0176915Y0133453D03*
X0175813Y0134398D03*
X0178415Y0142102D03*
D275*
X0178336Y0141945D03*
X0184636Y0139583D03*
X0184636Y0139425D03*
X0184238Y0133453D03*
X0246329Y0169890D03*
X0263336Y0172453D03*
X0263336Y0176390D03*
X0266644Y0175445D03*
X0266644Y0175287D03*
X0268533Y0173555D03*
X0268533Y0173398D03*
X0261994Y0137890D03*
X0261994Y0133953D03*
D276*
X0197388Y0132350D03*
X0194081Y0133610D03*
X0194081Y0136130D03*
X0196840Y0140055D03*
X0196210Y0140685D03*
X0187392Y0138953D03*
X0178415Y0141787D03*
X0176915Y0137390D03*
X0266722Y0175130D03*
X0268455Y0173713D03*
D277*
X0246250Y0169260D03*
X0246407Y0168000D03*
X0196525Y0139583D03*
X0197703Y0135972D03*
X0197703Y0133768D03*
X0197545Y0132980D03*
X0197545Y0132823D03*
X0197388Y0132665D03*
X0194081Y0133925D03*
X0194081Y0135815D03*
X0190616Y0134240D03*
X0187151Y0135972D03*
X0183844Y0134555D03*
X0184002Y0134083D03*
X0184159Y0133768D03*
X0180537Y0133768D03*
X0180537Y0135972D03*
X0176915Y0133768D03*
X0187234Y0139425D03*
X0187234Y0141315D03*
X0184399Y0141315D03*
X0184399Y0141472D03*
X0184399Y0141157D03*
X0265695Y0136315D03*
X0265695Y0135528D03*
X0266010Y0138047D03*
X0269632Y0138047D03*
X0269317Y0136315D03*
X0269317Y0135528D03*
D278*
X0191092Y0141315D03*
X0191092Y0141472D03*
D279*
X0187234Y0141157D03*
X0187234Y0141000D03*
X0187077Y0140213D03*
X0187309Y0135657D03*
X0187309Y0135500D03*
X0184002Y0134713D03*
X0180695Y0134398D03*
X0180695Y0134240D03*
X0180695Y0135500D03*
X0180695Y0135657D03*
X0176915Y0137075D03*
X0176915Y0133925D03*
X0190773Y0134083D03*
X0190773Y0133453D03*
X0197545Y0134083D03*
X0197545Y0134240D03*
X0197545Y0135500D03*
X0197545Y0135657D03*
X0242785Y0167370D03*
X0242785Y0167528D03*
X0242785Y0169575D03*
X0246250Y0166583D03*
D280*
X0191171Y0141157D03*
X0191171Y0141000D03*
X0191171Y0140843D03*
D281*
X0187155Y0140528D03*
X0187155Y0140370D03*
X0178336Y0140528D03*
X0184081Y0135500D03*
X0184081Y0135028D03*
X0183923Y0134870D03*
X0187388Y0135343D03*
X0190852Y0133925D03*
X0190852Y0133768D03*
X0190852Y0133610D03*
X0194159Y0134240D03*
X0194159Y0135500D03*
X0197466Y0134398D03*
X0242864Y0167055D03*
X0242864Y0167213D03*
X0242864Y0167685D03*
X0242864Y0169260D03*
X0242864Y0169417D03*
X0246329Y0166740D03*
X0263336Y0172925D03*
X0263336Y0175917D03*
X0261994Y0137417D03*
X0261994Y0134425D03*
D282*
X0261994Y0137102D03*
X0263336Y0175602D03*
X0178336Y0140055D03*
X0178336Y0139898D03*
D283*
X0180616Y0135815D03*
X0180616Y0134083D03*
X0180616Y0133925D03*
X0184081Y0133925D03*
X0184081Y0135657D03*
X0184081Y0135815D03*
X0187230Y0135815D03*
X0187155Y0139583D03*
X0186998Y0140055D03*
X0194159Y0135657D03*
X0194159Y0134083D03*
X0197624Y0133925D03*
X0197624Y0135815D03*
X0246329Y0166425D03*
X0246329Y0169417D03*
X0242707Y0169732D03*
X0263336Y0172768D03*
X0263336Y0176075D03*
X0261994Y0137575D03*
X0261994Y0134268D03*
X0265773Y0135685D03*
X0265773Y0135843D03*
X0265773Y0136000D03*
X0265773Y0136157D03*
X0269395Y0136157D03*
X0269395Y0136000D03*
X0269395Y0135843D03*
X0269395Y0135685D03*
D284*
X0249793Y0169417D03*
X0249793Y0169890D03*
X0178336Y0139740D03*
D285*
X0188100Y0139740D03*
X0180931Y0133453D03*
X0245384Y0167213D03*
X0263336Y0172295D03*
X0261994Y0133795D03*
D286*
X0249714Y0169575D03*
X0249714Y0169732D03*
D287*
X0249714Y0169260D03*
D288*
X0165478Y0142409D03*
X0165006Y0142409D03*
D289*
X0236588Y0174509D02*
X0250405Y0174509D01*
X0254588Y0174509D01*
X0254588Y0176757D01*
X0253079Y0176757D01*
X0253737Y0175792D01*
X0253112Y0175792D01*
X0252571Y0176620D01*
X0252025Y0175792D01*
X0251422Y0175792D01*
X0252085Y0176757D01*
X0250567Y0176757D01*
X0250567Y0174971D01*
X0250405Y0174971D01*
X0250405Y0174509D01*
X0250405Y0174971D01*
X0237051Y0174971D01*
X0237051Y0179029D01*
X0250567Y0179029D01*
X0250567Y0176757D01*
X0252085Y0176757D01*
X0252265Y0177020D01*
X0251458Y0178206D01*
X0252079Y0178206D01*
X0252587Y0177423D01*
X0253098Y0178206D01*
X0253701Y0178206D01*
X0252895Y0177027D01*
X0253079Y0176757D01*
X0254588Y0176757D01*
X0254588Y0179491D01*
X0236588Y0179491D01*
X0236588Y0174509D01*
X0236588Y0174514D02*
X0250405Y0174514D01*
X0254588Y0174514D01*
X0254588Y0174552D02*
X0250405Y0174552D01*
X0236588Y0174552D01*
X0236588Y0174590D02*
X0250405Y0174590D01*
X0254588Y0174590D01*
X0254588Y0174628D02*
X0250405Y0174628D01*
X0236588Y0174628D01*
X0236588Y0174666D02*
X0250405Y0174666D01*
X0254588Y0174666D01*
X0254588Y0174704D02*
X0250405Y0174704D01*
X0236588Y0174704D01*
X0236588Y0174742D02*
X0250405Y0174742D01*
X0254588Y0174742D01*
X0254588Y0174780D02*
X0250405Y0174780D01*
X0236588Y0174780D01*
X0236588Y0174817D02*
X0250405Y0174817D01*
X0254588Y0174817D01*
X0254588Y0174855D02*
X0250405Y0174855D01*
X0236588Y0174855D01*
X0236588Y0174893D02*
X0250405Y0174893D01*
X0254588Y0174893D01*
X0254588Y0174931D02*
X0250405Y0174931D01*
X0236588Y0174931D01*
X0236588Y0174969D02*
X0250405Y0174969D01*
X0254588Y0174969D01*
X0254588Y0175007D02*
X0250567Y0175007D01*
X0250567Y0175045D02*
X0254588Y0175045D01*
X0254588Y0175083D02*
X0250567Y0175083D01*
X0250567Y0175121D02*
X0254588Y0175121D01*
X0254588Y0175158D02*
X0250567Y0175158D01*
X0250567Y0175196D02*
X0254588Y0175196D01*
X0254588Y0175234D02*
X0250567Y0175234D01*
X0250567Y0175272D02*
X0254588Y0175272D01*
X0254588Y0175310D02*
X0250567Y0175310D01*
X0250567Y0175348D02*
X0254588Y0175348D01*
X0254588Y0175386D02*
X0250567Y0175386D01*
X0250567Y0175424D02*
X0254588Y0175424D01*
X0254588Y0175461D02*
X0250567Y0175461D01*
X0250567Y0175499D02*
X0254588Y0175499D01*
X0254588Y0175537D02*
X0250567Y0175537D01*
X0250567Y0175575D02*
X0254588Y0175575D01*
X0254588Y0175613D02*
X0250567Y0175613D01*
X0250567Y0175651D02*
X0254588Y0175651D01*
X0254588Y0175689D02*
X0250567Y0175689D01*
X0250567Y0175727D02*
X0254588Y0175727D01*
X0254588Y0175765D02*
X0250567Y0175765D01*
X0250567Y0175802D02*
X0251429Y0175802D01*
X0251455Y0175840D02*
X0250567Y0175840D01*
X0250567Y0175878D02*
X0251481Y0175878D01*
X0251507Y0175916D02*
X0250567Y0175916D01*
X0250567Y0175954D02*
X0251533Y0175954D01*
X0251559Y0175992D02*
X0250567Y0175992D01*
X0250567Y0176030D02*
X0251585Y0176030D01*
X0251611Y0176068D02*
X0250567Y0176068D01*
X0250567Y0176105D02*
X0251637Y0176105D01*
X0251663Y0176143D02*
X0250567Y0176143D01*
X0250567Y0176181D02*
X0251689Y0176181D01*
X0251715Y0176219D02*
X0250567Y0176219D01*
X0250567Y0176257D02*
X0251741Y0176257D01*
X0251767Y0176295D02*
X0250567Y0176295D01*
X0250567Y0176333D02*
X0251793Y0176333D01*
X0251819Y0176371D02*
X0250567Y0176371D01*
X0250567Y0176409D02*
X0251845Y0176409D01*
X0251871Y0176446D02*
X0250567Y0176446D01*
X0250567Y0176484D02*
X0251897Y0176484D01*
X0251923Y0176522D02*
X0250567Y0176522D01*
X0250567Y0176560D02*
X0251949Y0176560D01*
X0251975Y0176598D02*
X0250567Y0176598D01*
X0250567Y0176636D02*
X0252001Y0176636D01*
X0252027Y0176674D02*
X0250567Y0176674D01*
X0250567Y0176712D02*
X0252053Y0176712D01*
X0252079Y0176749D02*
X0250567Y0176749D01*
X0250567Y0176787D02*
X0252105Y0176787D01*
X0252131Y0176825D02*
X0250567Y0176825D01*
X0250567Y0176863D02*
X0252157Y0176863D01*
X0252183Y0176901D02*
X0250567Y0176901D01*
X0250567Y0176939D02*
X0252209Y0176939D01*
X0252235Y0176977D02*
X0250567Y0176977D01*
X0250567Y0177015D02*
X0252261Y0177015D01*
X0252242Y0177052D02*
X0250567Y0177052D01*
X0250567Y0177090D02*
X0252217Y0177090D01*
X0252191Y0177128D02*
X0250567Y0177128D01*
X0250567Y0177166D02*
X0252165Y0177166D01*
X0252139Y0177204D02*
X0250567Y0177204D01*
X0250567Y0177242D02*
X0252114Y0177242D01*
X0252088Y0177280D02*
X0250567Y0177280D01*
X0250567Y0177318D02*
X0252062Y0177318D01*
X0252036Y0177356D02*
X0250567Y0177356D01*
X0250567Y0177393D02*
X0252011Y0177393D01*
X0251985Y0177431D02*
X0250567Y0177431D01*
X0250567Y0177469D02*
X0251959Y0177469D01*
X0251933Y0177507D02*
X0250567Y0177507D01*
X0250567Y0177545D02*
X0251908Y0177545D01*
X0251882Y0177583D02*
X0250567Y0177583D01*
X0250567Y0177621D02*
X0251856Y0177621D01*
X0251830Y0177659D02*
X0250567Y0177659D01*
X0250567Y0177696D02*
X0251805Y0177696D01*
X0251779Y0177734D02*
X0250567Y0177734D01*
X0250567Y0177772D02*
X0251753Y0177772D01*
X0251727Y0177810D02*
X0250567Y0177810D01*
X0250567Y0177848D02*
X0251702Y0177848D01*
X0251676Y0177886D02*
X0250567Y0177886D01*
X0250567Y0177924D02*
X0251650Y0177924D01*
X0251624Y0177962D02*
X0250567Y0177962D01*
X0250567Y0178000D02*
X0251599Y0178000D01*
X0251573Y0178037D02*
X0250567Y0178037D01*
X0250567Y0178075D02*
X0251547Y0178075D01*
X0251521Y0178113D02*
X0250567Y0178113D01*
X0250567Y0178151D02*
X0251496Y0178151D01*
X0251470Y0178189D02*
X0250567Y0178189D01*
X0250567Y0178227D02*
X0254588Y0178227D01*
X0254588Y0178265D02*
X0250567Y0178265D01*
X0250567Y0178303D02*
X0254588Y0178303D01*
X0254588Y0178340D02*
X0250567Y0178340D01*
X0250567Y0178378D02*
X0254588Y0178378D01*
X0254588Y0178416D02*
X0250567Y0178416D01*
X0250567Y0178454D02*
X0254588Y0178454D01*
X0254588Y0178492D02*
X0250567Y0178492D01*
X0250567Y0178530D02*
X0254588Y0178530D01*
X0254588Y0178568D02*
X0250567Y0178568D01*
X0250567Y0178606D02*
X0254588Y0178606D01*
X0254588Y0178644D02*
X0250567Y0178644D01*
X0250567Y0178681D02*
X0254588Y0178681D01*
X0254588Y0178719D02*
X0250567Y0178719D01*
X0250567Y0178757D02*
X0254588Y0178757D01*
X0254588Y0178795D02*
X0250567Y0178795D01*
X0250567Y0178833D02*
X0254588Y0178833D01*
X0254588Y0178871D02*
X0250567Y0178871D01*
X0250567Y0178909D02*
X0254588Y0178909D01*
X0254588Y0178947D02*
X0250567Y0178947D01*
X0250567Y0178984D02*
X0254588Y0178984D01*
X0254588Y0179022D02*
X0250567Y0179022D01*
X0249845Y0178206D02*
X0249205Y0178206D01*
X0248634Y0177592D01*
X0249256Y0177592D01*
X0249845Y0178206D01*
X0249829Y0178189D02*
X0249189Y0178189D01*
X0249154Y0178151D02*
X0249793Y0178151D01*
X0249756Y0178113D02*
X0249118Y0178113D01*
X0249083Y0178075D02*
X0249720Y0178075D01*
X0249684Y0178037D02*
X0249048Y0178037D01*
X0249013Y0178000D02*
X0249647Y0178000D01*
X0249611Y0177962D02*
X0248978Y0177962D01*
X0248943Y0177924D02*
X0249575Y0177924D01*
X0249538Y0177886D02*
X0248907Y0177886D01*
X0248872Y0177848D02*
X0249502Y0177848D01*
X0249466Y0177810D02*
X0248837Y0177810D01*
X0248802Y0177772D02*
X0249429Y0177772D01*
X0249393Y0177734D02*
X0248767Y0177734D01*
X0248732Y0177696D02*
X0249356Y0177696D01*
X0249320Y0177659D02*
X0248696Y0177659D01*
X0248661Y0177621D02*
X0249284Y0177621D01*
X0249256Y0177592D02*
X0248863Y0177182D01*
X0249890Y0175792D01*
X0249253Y0175792D01*
X0248504Y0176820D01*
X0248225Y0176530D01*
X0248225Y0175792D01*
X0247694Y0175792D01*
X0247694Y0177592D01*
X0248225Y0177592D01*
X0248225Y0178206D01*
X0247694Y0178206D01*
X0247694Y0177592D01*
X0248225Y0177592D01*
X0248225Y0177151D01*
X0248634Y0177592D01*
X0249256Y0177592D01*
X0249247Y0177583D02*
X0248626Y0177583D01*
X0248591Y0177545D02*
X0249211Y0177545D01*
X0249175Y0177507D02*
X0248556Y0177507D01*
X0248521Y0177469D02*
X0249138Y0177469D01*
X0249102Y0177431D02*
X0248485Y0177431D01*
X0248450Y0177393D02*
X0249066Y0177393D01*
X0249029Y0177356D02*
X0248415Y0177356D01*
X0248380Y0177318D02*
X0248993Y0177318D01*
X0248957Y0177280D02*
X0248345Y0177280D01*
X0248310Y0177242D02*
X0248920Y0177242D01*
X0248884Y0177204D02*
X0248274Y0177204D01*
X0248225Y0177204D02*
X0247694Y0177204D01*
X0247694Y0177166D02*
X0248225Y0177166D01*
X0248239Y0177166D02*
X0248874Y0177166D01*
X0248902Y0177128D02*
X0247694Y0177128D01*
X0247694Y0177090D02*
X0248930Y0177090D01*
X0248958Y0177052D02*
X0247694Y0177052D01*
X0247694Y0177015D02*
X0248986Y0177015D01*
X0249014Y0176977D02*
X0247694Y0176977D01*
X0247694Y0176939D02*
X0249042Y0176939D01*
X0249070Y0176901D02*
X0247694Y0176901D01*
X0247694Y0176863D02*
X0249098Y0176863D01*
X0249126Y0176825D02*
X0247694Y0176825D01*
X0247694Y0176787D02*
X0248473Y0176787D01*
X0248436Y0176749D02*
X0247694Y0176749D01*
X0247694Y0176712D02*
X0248400Y0176712D01*
X0248364Y0176674D02*
X0247694Y0176674D01*
X0247694Y0176636D02*
X0248327Y0176636D01*
X0248291Y0176598D02*
X0247694Y0176598D01*
X0247694Y0176560D02*
X0248254Y0176560D01*
X0248225Y0176522D02*
X0247694Y0176522D01*
X0247694Y0176484D02*
X0248225Y0176484D01*
X0248225Y0176446D02*
X0247694Y0176446D01*
X0247694Y0176409D02*
X0248225Y0176409D01*
X0248225Y0176371D02*
X0247694Y0176371D01*
X0247694Y0176333D02*
X0248225Y0176333D01*
X0248225Y0176295D02*
X0247694Y0176295D01*
X0247694Y0176257D02*
X0248225Y0176257D01*
X0248225Y0176219D02*
X0247694Y0176219D01*
X0247694Y0176181D02*
X0248225Y0176181D01*
X0248225Y0176143D02*
X0247694Y0176143D01*
X0247694Y0176105D02*
X0248225Y0176105D01*
X0248225Y0176068D02*
X0247694Y0176068D01*
X0247694Y0176030D02*
X0248225Y0176030D01*
X0248225Y0175992D02*
X0247694Y0175992D01*
X0247694Y0175954D02*
X0248225Y0175954D01*
X0248225Y0175916D02*
X0247694Y0175916D01*
X0247694Y0175878D02*
X0248225Y0175878D01*
X0248225Y0175840D02*
X0247694Y0175840D01*
X0247694Y0175802D02*
X0248225Y0175802D01*
X0248887Y0176295D02*
X0249519Y0176295D01*
X0249547Y0176257D02*
X0248915Y0176257D01*
X0248942Y0176219D02*
X0249575Y0176219D01*
X0249603Y0176181D02*
X0248970Y0176181D01*
X0248997Y0176143D02*
X0249631Y0176143D01*
X0249659Y0176105D02*
X0249025Y0176105D01*
X0249053Y0176068D02*
X0249687Y0176068D01*
X0249715Y0176030D02*
X0249080Y0176030D01*
X0249108Y0175992D02*
X0249743Y0175992D01*
X0249771Y0175954D02*
X0249135Y0175954D01*
X0249163Y0175916D02*
X0249799Y0175916D01*
X0249827Y0175878D02*
X0249191Y0175878D01*
X0249218Y0175840D02*
X0249855Y0175840D01*
X0249883Y0175802D02*
X0249246Y0175802D01*
X0249491Y0176333D02*
X0248859Y0176333D01*
X0248832Y0176371D02*
X0249463Y0176371D01*
X0249435Y0176409D02*
X0248804Y0176409D01*
X0248777Y0176446D02*
X0249407Y0176446D01*
X0249379Y0176484D02*
X0248749Y0176484D01*
X0248721Y0176522D02*
X0249351Y0176522D01*
X0249323Y0176560D02*
X0248694Y0176560D01*
X0248666Y0176598D02*
X0249294Y0176598D01*
X0249266Y0176636D02*
X0248639Y0176636D01*
X0248611Y0176674D02*
X0249238Y0176674D01*
X0249210Y0176712D02*
X0248583Y0176712D01*
X0248556Y0176749D02*
X0249182Y0176749D01*
X0249154Y0176787D02*
X0248528Y0176787D01*
X0248225Y0177242D02*
X0247694Y0177242D01*
X0247694Y0177280D02*
X0248225Y0177280D01*
X0248225Y0177318D02*
X0247694Y0177318D01*
X0247694Y0177356D02*
X0248225Y0177356D01*
X0248225Y0177393D02*
X0247694Y0177393D01*
X0247694Y0177431D02*
X0248225Y0177431D01*
X0248225Y0177469D02*
X0247694Y0177469D01*
X0247694Y0177507D02*
X0248225Y0177507D01*
X0248225Y0177545D02*
X0247694Y0177545D01*
X0247694Y0177583D02*
X0248225Y0177583D01*
X0248225Y0177621D02*
X0247694Y0177621D01*
X0247694Y0177659D02*
X0248225Y0177659D01*
X0248225Y0177696D02*
X0247694Y0177696D01*
X0247694Y0177734D02*
X0248225Y0177734D01*
X0248225Y0177772D02*
X0247694Y0177772D01*
X0247694Y0177810D02*
X0248225Y0177810D01*
X0248225Y0177848D02*
X0247694Y0177848D01*
X0247694Y0177886D02*
X0248225Y0177886D01*
X0248225Y0177924D02*
X0247694Y0177924D01*
X0247694Y0177962D02*
X0248225Y0177962D01*
X0248225Y0178000D02*
X0247694Y0178000D01*
X0247694Y0178037D02*
X0248225Y0178037D01*
X0248225Y0178075D02*
X0247694Y0178075D01*
X0247694Y0178113D02*
X0248225Y0178113D01*
X0248225Y0178151D02*
X0247694Y0178151D01*
X0247694Y0178189D02*
X0248225Y0178189D01*
X0247154Y0177743D02*
X0247079Y0177880D01*
X0246974Y0177995D01*
X0246842Y0178088D01*
X0246687Y0178153D01*
X0246507Y0178193D01*
X0246303Y0178206D01*
X0245200Y0178206D01*
X0245200Y0177592D01*
X0245731Y0177592D01*
X0245731Y0177727D01*
X0246258Y0177727D01*
X0246434Y0177706D01*
X0246566Y0177641D01*
X0246603Y0177592D01*
X0247197Y0177592D01*
X0247154Y0177743D01*
X0247157Y0177734D02*
X0245200Y0177734D01*
X0245200Y0177696D02*
X0245731Y0177696D01*
X0245731Y0177659D02*
X0245200Y0177659D01*
X0245200Y0177621D02*
X0245731Y0177621D01*
X0245731Y0177592D02*
X0245200Y0177592D01*
X0245200Y0175792D01*
X0245731Y0175792D01*
X0245731Y0176564D01*
X0246148Y0176564D01*
X0246665Y0175792D01*
X0247286Y0175792D01*
X0246695Y0176654D01*
X0246905Y0176765D01*
X0247070Y0176924D01*
X0247178Y0177136D01*
X0247214Y0177401D01*
X0247214Y0177409D01*
X0247199Y0177586D01*
X0247197Y0177592D01*
X0246603Y0177592D01*
X0246648Y0177533D01*
X0246676Y0177382D01*
X0246676Y0177376D01*
X0246650Y0177237D01*
X0246571Y0177128D01*
X0246443Y0177058D01*
X0246269Y0177034D01*
X0245731Y0177034D01*
X0245731Y0177592D01*
X0245731Y0177583D02*
X0245200Y0177583D01*
X0245200Y0177545D02*
X0245731Y0177545D01*
X0245731Y0177507D02*
X0245200Y0177507D01*
X0245200Y0177469D02*
X0245731Y0177469D01*
X0245731Y0177431D02*
X0245200Y0177431D01*
X0245200Y0177393D02*
X0245731Y0177393D01*
X0245731Y0177356D02*
X0245200Y0177356D01*
X0245200Y0177318D02*
X0245731Y0177318D01*
X0245731Y0177280D02*
X0245200Y0177280D01*
X0245200Y0177242D02*
X0245731Y0177242D01*
X0245731Y0177204D02*
X0245200Y0177204D01*
X0245200Y0177166D02*
X0245731Y0177166D01*
X0245731Y0177128D02*
X0245200Y0177128D01*
X0245200Y0177090D02*
X0245731Y0177090D01*
X0245731Y0177052D02*
X0245200Y0177052D01*
X0245200Y0177015D02*
X0247116Y0177015D01*
X0247135Y0177052D02*
X0246403Y0177052D01*
X0246502Y0177090D02*
X0247154Y0177090D01*
X0247174Y0177128D02*
X0246572Y0177128D01*
X0246599Y0177166D02*
X0247182Y0177166D01*
X0247187Y0177204D02*
X0246626Y0177204D01*
X0246651Y0177242D02*
X0247192Y0177242D01*
X0247197Y0177280D02*
X0246658Y0177280D01*
X0246665Y0177318D02*
X0247202Y0177318D01*
X0247208Y0177356D02*
X0246672Y0177356D01*
X0246673Y0177393D02*
X0247213Y0177393D01*
X0247212Y0177431D02*
X0246667Y0177431D01*
X0246660Y0177469D02*
X0247209Y0177469D01*
X0247206Y0177507D02*
X0246653Y0177507D01*
X0246639Y0177545D02*
X0247202Y0177545D01*
X0247199Y0177583D02*
X0246610Y0177583D01*
X0246581Y0177621D02*
X0247189Y0177621D01*
X0247178Y0177659D02*
X0246530Y0177659D01*
X0246452Y0177696D02*
X0247167Y0177696D01*
X0247138Y0177772D02*
X0245200Y0177772D01*
X0245200Y0177810D02*
X0247118Y0177810D01*
X0247097Y0177848D02*
X0245200Y0177848D01*
X0245200Y0177886D02*
X0247074Y0177886D01*
X0247039Y0177924D02*
X0245200Y0177924D01*
X0245200Y0177962D02*
X0247005Y0177962D01*
X0246969Y0178000D02*
X0245200Y0178000D01*
X0245200Y0178037D02*
X0246914Y0178037D01*
X0246860Y0178075D02*
X0245200Y0178075D01*
X0245200Y0178113D02*
X0246782Y0178113D01*
X0246692Y0178151D02*
X0245200Y0178151D01*
X0245200Y0178189D02*
X0246525Y0178189D01*
X0247096Y0176977D02*
X0245200Y0176977D01*
X0245200Y0176939D02*
X0247077Y0176939D01*
X0247046Y0176901D02*
X0245200Y0176901D01*
X0245200Y0176863D02*
X0247006Y0176863D01*
X0246967Y0176825D02*
X0245200Y0176825D01*
X0245200Y0176787D02*
X0246928Y0176787D01*
X0246875Y0176749D02*
X0245200Y0176749D01*
X0245200Y0176712D02*
X0246803Y0176712D01*
X0246732Y0176674D02*
X0245200Y0176674D01*
X0245200Y0176636D02*
X0246708Y0176636D01*
X0246734Y0176598D02*
X0245200Y0176598D01*
X0245200Y0176560D02*
X0245731Y0176560D01*
X0245731Y0176522D02*
X0245200Y0176522D01*
X0245200Y0176484D02*
X0245731Y0176484D01*
X0245731Y0176446D02*
X0245200Y0176446D01*
X0245200Y0176409D02*
X0245731Y0176409D01*
X0245731Y0176371D02*
X0245200Y0176371D01*
X0245200Y0176333D02*
X0245731Y0176333D01*
X0245731Y0176295D02*
X0245200Y0176295D01*
X0245200Y0176257D02*
X0245731Y0176257D01*
X0245731Y0176219D02*
X0245200Y0176219D01*
X0245200Y0176181D02*
X0245731Y0176181D01*
X0245731Y0176143D02*
X0245200Y0176143D01*
X0245200Y0176105D02*
X0245731Y0176105D01*
X0245731Y0176068D02*
X0245200Y0176068D01*
X0245200Y0176030D02*
X0245731Y0176030D01*
X0245731Y0175992D02*
X0245200Y0175992D01*
X0245200Y0175954D02*
X0245731Y0175954D01*
X0245731Y0175916D02*
X0245200Y0175916D01*
X0245200Y0175878D02*
X0245731Y0175878D01*
X0245731Y0175840D02*
X0245200Y0175840D01*
X0245200Y0175802D02*
X0245731Y0175802D01*
X0246379Y0176219D02*
X0246994Y0176219D01*
X0247019Y0176181D02*
X0246405Y0176181D01*
X0246430Y0176143D02*
X0247045Y0176143D01*
X0247071Y0176105D02*
X0246455Y0176105D01*
X0246481Y0176068D02*
X0247097Y0176068D01*
X0247123Y0176030D02*
X0246506Y0176030D01*
X0246531Y0175992D02*
X0247149Y0175992D01*
X0247175Y0175954D02*
X0246557Y0175954D01*
X0246582Y0175916D02*
X0247201Y0175916D01*
X0247227Y0175878D02*
X0246607Y0175878D01*
X0246633Y0175840D02*
X0247253Y0175840D01*
X0247279Y0175802D02*
X0246658Y0175802D01*
X0246354Y0176257D02*
X0246968Y0176257D01*
X0246942Y0176295D02*
X0246329Y0176295D01*
X0246303Y0176333D02*
X0246916Y0176333D01*
X0246890Y0176371D02*
X0246278Y0176371D01*
X0246252Y0176409D02*
X0246864Y0176409D01*
X0246838Y0176446D02*
X0246227Y0176446D01*
X0246202Y0176484D02*
X0246812Y0176484D01*
X0246786Y0176522D02*
X0246176Y0176522D01*
X0246151Y0176560D02*
X0246760Y0176560D01*
X0244827Y0175792D02*
X0244061Y0177592D01*
X0243033Y0177592D01*
X0243302Y0178224D01*
X0243792Y0178224D01*
X0244061Y0177592D01*
X0243033Y0177592D01*
X0242267Y0175792D01*
X0242809Y0175792D01*
X0243540Y0177585D01*
X0244271Y0175792D01*
X0244827Y0175792D01*
X0244823Y0175802D02*
X0244267Y0175802D01*
X0244251Y0175840D02*
X0244807Y0175840D01*
X0244790Y0175878D02*
X0244236Y0175878D01*
X0244220Y0175916D02*
X0244774Y0175916D01*
X0244758Y0175954D02*
X0244205Y0175954D01*
X0244189Y0175992D02*
X0244742Y0175992D01*
X0244726Y0176030D02*
X0244174Y0176030D01*
X0244159Y0176068D02*
X0244710Y0176068D01*
X0244694Y0176105D02*
X0244143Y0176105D01*
X0244128Y0176143D02*
X0244678Y0176143D01*
X0244661Y0176181D02*
X0244112Y0176181D01*
X0244097Y0176219D02*
X0244645Y0176219D01*
X0244629Y0176257D02*
X0244081Y0176257D01*
X0244066Y0176295D02*
X0244613Y0176295D01*
X0244597Y0176333D02*
X0244050Y0176333D01*
X0244035Y0176371D02*
X0244581Y0176371D01*
X0244565Y0176409D02*
X0244020Y0176409D01*
X0244004Y0176446D02*
X0244549Y0176446D01*
X0244532Y0176484D02*
X0243989Y0176484D01*
X0243973Y0176522D02*
X0244516Y0176522D01*
X0244500Y0176560D02*
X0243958Y0176560D01*
X0243942Y0176598D02*
X0244484Y0176598D01*
X0244468Y0176636D02*
X0243927Y0176636D01*
X0243911Y0176674D02*
X0244452Y0176674D01*
X0244436Y0176712D02*
X0243896Y0176712D01*
X0243881Y0176749D02*
X0244420Y0176749D01*
X0244403Y0176787D02*
X0243865Y0176787D01*
X0243850Y0176825D02*
X0244387Y0176825D01*
X0244371Y0176863D02*
X0243834Y0176863D01*
X0243819Y0176901D02*
X0244355Y0176901D01*
X0244339Y0176939D02*
X0243803Y0176939D01*
X0243788Y0176977D02*
X0244323Y0176977D01*
X0244307Y0177015D02*
X0243773Y0177015D01*
X0243757Y0177052D02*
X0244291Y0177052D01*
X0244274Y0177090D02*
X0243742Y0177090D01*
X0243726Y0177128D02*
X0244258Y0177128D01*
X0244242Y0177166D02*
X0243711Y0177166D01*
X0243695Y0177204D02*
X0244226Y0177204D01*
X0244210Y0177242D02*
X0243680Y0177242D01*
X0243664Y0177280D02*
X0244194Y0177280D01*
X0244178Y0177318D02*
X0243649Y0177318D01*
X0243634Y0177356D02*
X0244162Y0177356D01*
X0244145Y0177393D02*
X0243618Y0177393D01*
X0243603Y0177431D02*
X0244129Y0177431D01*
X0244113Y0177469D02*
X0243587Y0177469D01*
X0243572Y0177507D02*
X0244097Y0177507D01*
X0244081Y0177545D02*
X0243556Y0177545D01*
X0243524Y0177545D02*
X0243013Y0177545D01*
X0242997Y0177507D02*
X0243508Y0177507D01*
X0243493Y0177469D02*
X0242981Y0177469D01*
X0242965Y0177431D02*
X0243477Y0177431D01*
X0243462Y0177393D02*
X0242949Y0177393D01*
X0242933Y0177356D02*
X0243446Y0177356D01*
X0243431Y0177318D02*
X0242917Y0177318D01*
X0242900Y0177280D02*
X0243416Y0177280D01*
X0243400Y0177242D02*
X0242884Y0177242D01*
X0242868Y0177204D02*
X0243385Y0177204D01*
X0243369Y0177166D02*
X0242852Y0177166D01*
X0242836Y0177128D02*
X0243354Y0177128D01*
X0243338Y0177090D02*
X0242820Y0177090D01*
X0242804Y0177052D02*
X0243323Y0177052D01*
X0243307Y0177015D02*
X0242788Y0177015D01*
X0242771Y0176977D02*
X0243292Y0176977D01*
X0243277Y0176939D02*
X0242755Y0176939D01*
X0242739Y0176901D02*
X0243261Y0176901D01*
X0243246Y0176863D02*
X0242723Y0176863D01*
X0242707Y0176825D02*
X0243230Y0176825D01*
X0243215Y0176787D02*
X0242691Y0176787D01*
X0242675Y0176749D02*
X0243199Y0176749D01*
X0243184Y0176712D02*
X0242659Y0176712D01*
X0242643Y0176674D02*
X0243169Y0176674D01*
X0243153Y0176636D02*
X0242626Y0176636D01*
X0242610Y0176598D02*
X0243138Y0176598D01*
X0243122Y0176560D02*
X0242594Y0176560D01*
X0242578Y0176522D02*
X0243107Y0176522D01*
X0243091Y0176484D02*
X0242562Y0176484D01*
X0242546Y0176446D02*
X0243076Y0176446D01*
X0243060Y0176409D02*
X0242530Y0176409D01*
X0242514Y0176371D02*
X0243045Y0176371D01*
X0243030Y0176333D02*
X0242497Y0176333D01*
X0242481Y0176295D02*
X0243014Y0176295D01*
X0242999Y0176257D02*
X0242465Y0176257D01*
X0242449Y0176219D02*
X0242983Y0176219D01*
X0242968Y0176181D02*
X0242433Y0176181D01*
X0242417Y0176143D02*
X0242952Y0176143D01*
X0242937Y0176105D02*
X0242401Y0176105D01*
X0242385Y0176068D02*
X0242921Y0176068D01*
X0242906Y0176030D02*
X0242368Y0176030D01*
X0242352Y0175992D02*
X0242891Y0175992D01*
X0242875Y0175954D02*
X0242336Y0175954D01*
X0242320Y0175916D02*
X0242860Y0175916D01*
X0242844Y0175878D02*
X0242304Y0175878D01*
X0242288Y0175840D02*
X0242829Y0175840D01*
X0242813Y0175802D02*
X0242272Y0175802D01*
X0241703Y0176674D02*
X0240170Y0176674D01*
X0240170Y0176712D02*
X0241762Y0176712D01*
X0241796Y0176734D02*
X0241914Y0176854D01*
X0242005Y0177000D01*
X0242061Y0177172D01*
X0242080Y0177369D01*
X0242082Y0177365D01*
X0242082Y0177373D01*
X0242066Y0177551D01*
X0242054Y0177592D01*
X0241460Y0177592D01*
X0241429Y0177634D01*
X0241293Y0177704D01*
X0241114Y0177727D01*
X0240703Y0177727D01*
X0240703Y0177592D01*
X0240170Y0177592D01*
X0240170Y0178210D01*
X0241157Y0178210D01*
X0241363Y0178194D01*
X0241546Y0178148D01*
X0241703Y0178075D01*
X0240170Y0178075D01*
X0240170Y0178037D02*
X0241754Y0178037D01*
X0241703Y0178075D02*
X0241835Y0177977D01*
X0241941Y0177856D01*
X0242019Y0177713D01*
X0242054Y0177592D01*
X0241460Y0177592D01*
X0241515Y0177519D01*
X0241544Y0177362D01*
X0241544Y0177355D01*
X0241517Y0177212D01*
X0241434Y0177094D01*
X0241301Y0177015D01*
X0241124Y0176989D01*
X0240703Y0176989D01*
X0240703Y0177592D01*
X0240170Y0177592D01*
X0240170Y0175796D01*
X0240701Y0175796D01*
X0240701Y0176519D01*
X0241105Y0176519D01*
X0241301Y0176533D01*
X0241486Y0176573D01*
X0241652Y0176641D01*
X0241796Y0176734D01*
X0241811Y0176749D02*
X0240170Y0176749D01*
X0240170Y0176787D02*
X0241849Y0176787D01*
X0241886Y0176825D02*
X0240170Y0176825D01*
X0240170Y0176863D02*
X0241920Y0176863D01*
X0241943Y0176901D02*
X0240170Y0176901D01*
X0240170Y0176939D02*
X0241967Y0176939D01*
X0241990Y0176977D02*
X0240170Y0176977D01*
X0240170Y0177015D02*
X0240703Y0177015D01*
X0240703Y0177052D02*
X0240170Y0177052D01*
X0240170Y0177090D02*
X0240703Y0177090D01*
X0240703Y0177128D02*
X0240170Y0177128D01*
X0240170Y0177166D02*
X0240703Y0177166D01*
X0240703Y0177204D02*
X0240170Y0177204D01*
X0240170Y0177242D02*
X0240703Y0177242D01*
X0240703Y0177280D02*
X0240170Y0177280D01*
X0240170Y0177318D02*
X0240703Y0177318D01*
X0240703Y0177356D02*
X0240170Y0177356D01*
X0240170Y0177393D02*
X0240703Y0177393D01*
X0240703Y0177431D02*
X0240170Y0177431D01*
X0240170Y0177469D02*
X0240703Y0177469D01*
X0240703Y0177507D02*
X0240170Y0177507D01*
X0240170Y0177545D02*
X0240703Y0177545D01*
X0240703Y0177583D02*
X0240170Y0177583D01*
X0240170Y0177621D02*
X0240703Y0177621D01*
X0240703Y0177659D02*
X0240170Y0177659D01*
X0240170Y0177696D02*
X0240703Y0177696D01*
X0240170Y0177734D02*
X0242007Y0177734D01*
X0242024Y0177696D02*
X0241307Y0177696D01*
X0241380Y0177659D02*
X0242035Y0177659D01*
X0242046Y0177621D02*
X0241438Y0177621D01*
X0241467Y0177583D02*
X0242057Y0177583D01*
X0242067Y0177545D02*
X0241496Y0177545D01*
X0241517Y0177507D02*
X0242070Y0177507D01*
X0242073Y0177469D02*
X0241524Y0177469D01*
X0241531Y0177431D02*
X0242077Y0177431D01*
X0242080Y0177393D02*
X0241538Y0177393D01*
X0241544Y0177356D02*
X0242079Y0177356D01*
X0242075Y0177318D02*
X0241537Y0177318D01*
X0241530Y0177280D02*
X0242072Y0177280D01*
X0242068Y0177242D02*
X0241522Y0177242D01*
X0241511Y0177204D02*
X0242064Y0177204D01*
X0242059Y0177166D02*
X0241485Y0177166D01*
X0241458Y0177128D02*
X0242047Y0177128D01*
X0242034Y0177090D02*
X0241429Y0177090D01*
X0241365Y0177052D02*
X0242022Y0177052D01*
X0242009Y0177015D02*
X0241299Y0177015D01*
X0241425Y0176560D02*
X0240170Y0176560D01*
X0240170Y0176522D02*
X0241144Y0176522D01*
X0241547Y0176598D02*
X0240170Y0176598D01*
X0240170Y0176636D02*
X0241641Y0176636D01*
X0240701Y0176484D02*
X0240170Y0176484D01*
X0240170Y0176446D02*
X0240701Y0176446D01*
X0240701Y0176409D02*
X0240170Y0176409D01*
X0240170Y0176371D02*
X0240701Y0176371D01*
X0240701Y0176333D02*
X0240170Y0176333D01*
X0240170Y0176295D02*
X0240701Y0176295D01*
X0240701Y0176257D02*
X0240170Y0176257D01*
X0240170Y0176219D02*
X0240701Y0176219D01*
X0240701Y0176181D02*
X0240170Y0176181D01*
X0240170Y0176143D02*
X0240701Y0176143D01*
X0240701Y0176105D02*
X0240170Y0176105D01*
X0240170Y0176068D02*
X0240701Y0176068D01*
X0240701Y0176030D02*
X0240170Y0176030D01*
X0240170Y0175992D02*
X0240701Y0175992D01*
X0240701Y0175954D02*
X0240170Y0175954D01*
X0240170Y0175916D02*
X0240701Y0175916D01*
X0240701Y0175878D02*
X0240170Y0175878D01*
X0240170Y0175840D02*
X0240701Y0175840D01*
X0240701Y0175802D02*
X0240170Y0175802D01*
X0239622Y0176143D02*
X0237805Y0176143D01*
X0237802Y0176140D02*
X0238031Y0175968D01*
X0238284Y0175848D01*
X0238552Y0175777D01*
X0238826Y0175753D01*
X0239014Y0175765D01*
X0239184Y0175803D01*
X0239334Y0175864D01*
X0239463Y0175947D01*
X0239567Y0176053D01*
X0239645Y0176181D01*
X0239693Y0176331D01*
X0239710Y0176500D01*
X0239710Y0176514D01*
X0239697Y0176661D01*
X0239659Y0176786D01*
X0239597Y0176892D01*
X0239510Y0176984D01*
X0239269Y0177128D01*
X0238941Y0177236D01*
X0238684Y0177308D01*
X0238523Y0177373D01*
X0238442Y0177450D01*
X0238421Y0177553D01*
X0238421Y0177560D01*
X0238428Y0177592D01*
X0237903Y0177592D01*
X0237895Y0177511D01*
X0237895Y0177504D01*
X0237910Y0177340D01*
X0237953Y0177203D01*
X0238021Y0177092D01*
X0238113Y0177002D01*
X0238365Y0176865D01*
X0238698Y0176764D01*
X0238945Y0176692D01*
X0239094Y0176624D01*
X0239166Y0176550D01*
X0239186Y0176458D01*
X0239186Y0176451D01*
X0239163Y0176355D01*
X0239094Y0176284D01*
X0238984Y0176238D01*
X0238837Y0176222D01*
X0238638Y0176242D01*
X0238455Y0176302D01*
X0238283Y0176395D01*
X0238115Y0176516D01*
X0237802Y0176140D01*
X0237836Y0176181D02*
X0239645Y0176181D01*
X0239657Y0176219D02*
X0237868Y0176219D01*
X0237899Y0176257D02*
X0238593Y0176257D01*
X0238476Y0176295D02*
X0237931Y0176295D01*
X0237962Y0176333D02*
X0238397Y0176333D01*
X0238327Y0176371D02*
X0237994Y0176371D01*
X0238025Y0176409D02*
X0238264Y0176409D01*
X0238211Y0176446D02*
X0238057Y0176446D01*
X0238089Y0176484D02*
X0238159Y0176484D01*
X0238371Y0176863D02*
X0239614Y0176863D01*
X0239636Y0176825D02*
X0238496Y0176825D01*
X0238622Y0176787D02*
X0239658Y0176787D01*
X0239670Y0176749D02*
X0238749Y0176749D01*
X0238878Y0176712D02*
X0239682Y0176712D01*
X0239693Y0176674D02*
X0238985Y0176674D01*
X0239068Y0176636D02*
X0239699Y0176636D01*
X0239703Y0176598D02*
X0239119Y0176598D01*
X0239156Y0176560D02*
X0239706Y0176560D01*
X0239709Y0176522D02*
X0239172Y0176522D01*
X0239180Y0176484D02*
X0239708Y0176484D01*
X0239704Y0176446D02*
X0239185Y0176446D01*
X0239176Y0176409D02*
X0239701Y0176409D01*
X0239697Y0176371D02*
X0239167Y0176371D01*
X0239141Y0176333D02*
X0239694Y0176333D01*
X0239682Y0176295D02*
X0239105Y0176295D01*
X0239030Y0176257D02*
X0239669Y0176257D01*
X0239599Y0176105D02*
X0237847Y0176105D01*
X0237898Y0176068D02*
X0239576Y0176068D01*
X0239544Y0176030D02*
X0237948Y0176030D01*
X0237999Y0175992D02*
X0239507Y0175992D01*
X0239470Y0175954D02*
X0238061Y0175954D01*
X0238141Y0175916D02*
X0239415Y0175916D01*
X0239356Y0175878D02*
X0238220Y0175878D01*
X0238313Y0175840D02*
X0239276Y0175840D01*
X0239181Y0175802D02*
X0238455Y0175802D01*
X0238690Y0175765D02*
X0239006Y0175765D01*
X0239588Y0176901D02*
X0238299Y0176901D01*
X0238229Y0176939D02*
X0239552Y0176939D01*
X0239517Y0176977D02*
X0238159Y0176977D01*
X0238100Y0177015D02*
X0239458Y0177015D01*
X0239395Y0177052D02*
X0238062Y0177052D01*
X0238023Y0177090D02*
X0239331Y0177090D01*
X0239267Y0177128D02*
X0237999Y0177128D01*
X0237976Y0177166D02*
X0239152Y0177166D01*
X0239037Y0177204D02*
X0237953Y0177204D01*
X0237941Y0177242D02*
X0238919Y0177242D01*
X0238784Y0177280D02*
X0237929Y0177280D01*
X0237917Y0177318D02*
X0238659Y0177318D01*
X0238566Y0177356D02*
X0237908Y0177356D01*
X0237905Y0177393D02*
X0238502Y0177393D01*
X0238462Y0177431D02*
X0237902Y0177431D01*
X0237898Y0177469D02*
X0238438Y0177469D01*
X0238430Y0177507D02*
X0237895Y0177507D01*
X0237898Y0177545D02*
X0238422Y0177545D01*
X0238426Y0177583D02*
X0237902Y0177583D01*
X0237903Y0177592D02*
X0238428Y0177592D01*
X0238440Y0177642D01*
X0238498Y0177709D01*
X0238595Y0177755D01*
X0238730Y0177770D01*
X0238885Y0177754D01*
X0239040Y0177707D01*
X0239250Y0177592D01*
X0239357Y0177533D01*
X0239397Y0177592D01*
X0239250Y0177592D01*
X0239397Y0177592D01*
X0239632Y0177932D01*
X0239437Y0178063D01*
X0239224Y0178159D01*
X0238991Y0178218D01*
X0238736Y0178238D01*
X0238558Y0178225D01*
X0238396Y0178186D01*
X0238252Y0178123D01*
X0238129Y0178039D01*
X0238031Y0177933D01*
X0237956Y0177810D01*
X0237910Y0177669D01*
X0237903Y0177592D01*
X0237906Y0177621D02*
X0238435Y0177621D01*
X0238454Y0177659D02*
X0237909Y0177659D01*
X0237919Y0177696D02*
X0238487Y0177696D01*
X0238552Y0177734D02*
X0237932Y0177734D01*
X0237944Y0177772D02*
X0239522Y0177772D01*
X0239496Y0177734D02*
X0238951Y0177734D01*
X0239060Y0177696D02*
X0239470Y0177696D01*
X0239443Y0177659D02*
X0239129Y0177659D01*
X0239197Y0177621D02*
X0239417Y0177621D01*
X0239391Y0177583D02*
X0239266Y0177583D01*
X0239335Y0177545D02*
X0239365Y0177545D01*
X0239548Y0177810D02*
X0237956Y0177810D01*
X0237979Y0177848D02*
X0239574Y0177848D01*
X0239600Y0177886D02*
X0238002Y0177886D01*
X0238025Y0177924D02*
X0239626Y0177924D01*
X0239589Y0177962D02*
X0238057Y0177962D01*
X0238093Y0178000D02*
X0239532Y0178000D01*
X0239475Y0178037D02*
X0238128Y0178037D01*
X0238182Y0178075D02*
X0239410Y0178075D01*
X0239326Y0178113D02*
X0238237Y0178113D01*
X0238315Y0178151D02*
X0239242Y0178151D01*
X0239107Y0178189D02*
X0238407Y0178189D01*
X0238579Y0178227D02*
X0238884Y0178227D01*
X0240170Y0178189D02*
X0241383Y0178189D01*
X0241535Y0178151D02*
X0240170Y0178151D01*
X0240170Y0178113D02*
X0241621Y0178113D01*
X0241805Y0178000D02*
X0240170Y0178000D01*
X0240170Y0177962D02*
X0241849Y0177962D01*
X0241882Y0177924D02*
X0240170Y0177924D01*
X0240170Y0177886D02*
X0241915Y0177886D01*
X0241946Y0177848D02*
X0240170Y0177848D01*
X0240170Y0177810D02*
X0241966Y0177810D01*
X0241987Y0177772D02*
X0240170Y0177772D01*
X0243029Y0177583D02*
X0243539Y0177583D01*
X0243541Y0177583D02*
X0244065Y0177583D01*
X0244049Y0177621D02*
X0243046Y0177621D01*
X0243062Y0177659D02*
X0244033Y0177659D01*
X0244016Y0177696D02*
X0243078Y0177696D01*
X0243094Y0177734D02*
X0244000Y0177734D01*
X0243984Y0177772D02*
X0243110Y0177772D01*
X0243126Y0177810D02*
X0243968Y0177810D01*
X0243952Y0177848D02*
X0243142Y0177848D01*
X0243158Y0177886D02*
X0243936Y0177886D01*
X0243920Y0177924D02*
X0243175Y0177924D01*
X0243191Y0177962D02*
X0243904Y0177962D01*
X0243888Y0178000D02*
X0243207Y0178000D01*
X0243223Y0178037D02*
X0243871Y0178037D01*
X0243855Y0178075D02*
X0243239Y0178075D01*
X0243255Y0178113D02*
X0243839Y0178113D01*
X0243823Y0178151D02*
X0243271Y0178151D01*
X0243287Y0178189D02*
X0243807Y0178189D01*
X0237051Y0178189D02*
X0236588Y0178189D01*
X0236588Y0178227D02*
X0237051Y0178227D01*
X0237051Y0178265D02*
X0236588Y0178265D01*
X0236588Y0178303D02*
X0237051Y0178303D01*
X0237051Y0178340D02*
X0236588Y0178340D01*
X0236588Y0178378D02*
X0237051Y0178378D01*
X0237051Y0178416D02*
X0236588Y0178416D01*
X0236588Y0178454D02*
X0237051Y0178454D01*
X0237051Y0178492D02*
X0236588Y0178492D01*
X0236588Y0178530D02*
X0237051Y0178530D01*
X0237051Y0178568D02*
X0236588Y0178568D01*
X0236588Y0178606D02*
X0237051Y0178606D01*
X0237051Y0178644D02*
X0236588Y0178644D01*
X0236588Y0178681D02*
X0237051Y0178681D01*
X0237051Y0178719D02*
X0236588Y0178719D01*
X0236588Y0178757D02*
X0237051Y0178757D01*
X0237051Y0178795D02*
X0236588Y0178795D01*
X0236588Y0178833D02*
X0237051Y0178833D01*
X0237051Y0178871D02*
X0236588Y0178871D01*
X0236588Y0178909D02*
X0237051Y0178909D01*
X0237051Y0178947D02*
X0236588Y0178947D01*
X0236588Y0178984D02*
X0237051Y0178984D01*
X0237051Y0179022D02*
X0236588Y0179022D01*
X0236588Y0179060D02*
X0254588Y0179060D01*
X0254588Y0179098D02*
X0236588Y0179098D01*
X0236588Y0179136D02*
X0254588Y0179136D01*
X0254588Y0179174D02*
X0236588Y0179174D01*
X0236588Y0179212D02*
X0254588Y0179212D01*
X0254588Y0179250D02*
X0236588Y0179250D01*
X0236588Y0179287D02*
X0254588Y0179287D01*
X0254588Y0179325D02*
X0236588Y0179325D01*
X0236588Y0179363D02*
X0254588Y0179363D01*
X0254588Y0179401D02*
X0236588Y0179401D01*
X0236588Y0179439D02*
X0254588Y0179439D01*
X0254588Y0179477D02*
X0236588Y0179477D01*
X0236588Y0178151D02*
X0237051Y0178151D01*
X0237051Y0178113D02*
X0236588Y0178113D01*
X0236588Y0178075D02*
X0237051Y0178075D01*
X0237051Y0178037D02*
X0236588Y0178037D01*
X0236588Y0178000D02*
X0237051Y0178000D01*
X0237051Y0177962D02*
X0236588Y0177962D01*
X0236588Y0177924D02*
X0237051Y0177924D01*
X0237051Y0177886D02*
X0236588Y0177886D01*
X0236588Y0177848D02*
X0237051Y0177848D01*
X0237051Y0177810D02*
X0236588Y0177810D01*
X0236588Y0177772D02*
X0237051Y0177772D01*
X0237051Y0177734D02*
X0236588Y0177734D01*
X0236588Y0177696D02*
X0237051Y0177696D01*
X0237051Y0177659D02*
X0236588Y0177659D01*
X0236588Y0177621D02*
X0237051Y0177621D01*
X0237051Y0177583D02*
X0236588Y0177583D01*
X0236588Y0177545D02*
X0237051Y0177545D01*
X0237051Y0177507D02*
X0236588Y0177507D01*
X0236588Y0177469D02*
X0237051Y0177469D01*
X0237051Y0177431D02*
X0236588Y0177431D01*
X0236588Y0177393D02*
X0237051Y0177393D01*
X0237051Y0177356D02*
X0236588Y0177356D01*
X0236588Y0177318D02*
X0237051Y0177318D01*
X0237051Y0177280D02*
X0236588Y0177280D01*
X0236588Y0177242D02*
X0237051Y0177242D01*
X0237051Y0177204D02*
X0236588Y0177204D01*
X0236588Y0177166D02*
X0237051Y0177166D01*
X0237051Y0177128D02*
X0236588Y0177128D01*
X0236588Y0177090D02*
X0237051Y0177090D01*
X0237051Y0177052D02*
X0236588Y0177052D01*
X0236588Y0177015D02*
X0237051Y0177015D01*
X0237051Y0176977D02*
X0236588Y0176977D01*
X0236588Y0176939D02*
X0237051Y0176939D01*
X0237051Y0176901D02*
X0236588Y0176901D01*
X0236588Y0176863D02*
X0237051Y0176863D01*
X0237051Y0176825D02*
X0236588Y0176825D01*
X0236588Y0176787D02*
X0237051Y0176787D01*
X0237051Y0176749D02*
X0236588Y0176749D01*
X0236588Y0176712D02*
X0237051Y0176712D01*
X0237051Y0176674D02*
X0236588Y0176674D01*
X0236588Y0176636D02*
X0237051Y0176636D01*
X0237051Y0176598D02*
X0236588Y0176598D01*
X0236588Y0176560D02*
X0237051Y0176560D01*
X0237051Y0176522D02*
X0236588Y0176522D01*
X0236588Y0176484D02*
X0237051Y0176484D01*
X0237051Y0176446D02*
X0236588Y0176446D01*
X0236588Y0176409D02*
X0237051Y0176409D01*
X0237051Y0176371D02*
X0236588Y0176371D01*
X0236588Y0176333D02*
X0237051Y0176333D01*
X0237051Y0176295D02*
X0236588Y0176295D01*
X0236588Y0176257D02*
X0237051Y0176257D01*
X0237051Y0176219D02*
X0236588Y0176219D01*
X0236588Y0176181D02*
X0237051Y0176181D01*
X0237051Y0176143D02*
X0236588Y0176143D01*
X0236588Y0176105D02*
X0237051Y0176105D01*
X0237051Y0176068D02*
X0236588Y0176068D01*
X0236588Y0176030D02*
X0237051Y0176030D01*
X0237051Y0175992D02*
X0236588Y0175992D01*
X0236588Y0175954D02*
X0237051Y0175954D01*
X0237051Y0175916D02*
X0236588Y0175916D01*
X0236588Y0175878D02*
X0237051Y0175878D01*
X0237051Y0175840D02*
X0236588Y0175840D01*
X0236588Y0175802D02*
X0237051Y0175802D01*
X0237051Y0175765D02*
X0236588Y0175765D01*
X0236588Y0175727D02*
X0237051Y0175727D01*
X0237051Y0175689D02*
X0236588Y0175689D01*
X0236588Y0175651D02*
X0237051Y0175651D01*
X0237051Y0175613D02*
X0236588Y0175613D01*
X0236588Y0175575D02*
X0237051Y0175575D01*
X0237051Y0175537D02*
X0236588Y0175537D01*
X0236588Y0175499D02*
X0237051Y0175499D01*
X0237051Y0175461D02*
X0236588Y0175461D01*
X0236588Y0175424D02*
X0237051Y0175424D01*
X0237051Y0175386D02*
X0236588Y0175386D01*
X0236588Y0175348D02*
X0237051Y0175348D01*
X0237051Y0175310D02*
X0236588Y0175310D01*
X0236588Y0175272D02*
X0237051Y0175272D01*
X0237051Y0175234D02*
X0236588Y0175234D01*
X0236588Y0175196D02*
X0237051Y0175196D01*
X0237051Y0175158D02*
X0236588Y0175158D01*
X0236588Y0175121D02*
X0237051Y0175121D01*
X0237051Y0175083D02*
X0236588Y0175083D01*
X0236588Y0175045D02*
X0237051Y0175045D01*
X0237051Y0175007D02*
X0236588Y0175007D01*
X0252032Y0175802D02*
X0253106Y0175802D01*
X0253081Y0175840D02*
X0252057Y0175840D01*
X0252082Y0175878D02*
X0253056Y0175878D01*
X0253031Y0175916D02*
X0252107Y0175916D01*
X0252132Y0175954D02*
X0253007Y0175954D01*
X0252982Y0175992D02*
X0252157Y0175992D01*
X0252182Y0176030D02*
X0252957Y0176030D01*
X0252932Y0176068D02*
X0252207Y0176068D01*
X0252232Y0176105D02*
X0252907Y0176105D01*
X0252883Y0176143D02*
X0252257Y0176143D01*
X0252281Y0176181D02*
X0252858Y0176181D01*
X0252833Y0176219D02*
X0252306Y0176219D01*
X0252331Y0176257D02*
X0252808Y0176257D01*
X0252784Y0176295D02*
X0252356Y0176295D01*
X0252381Y0176333D02*
X0252759Y0176333D01*
X0252734Y0176371D02*
X0252406Y0176371D01*
X0252431Y0176409D02*
X0252709Y0176409D01*
X0252684Y0176446D02*
X0252456Y0176446D01*
X0252481Y0176484D02*
X0252660Y0176484D01*
X0252635Y0176522D02*
X0252506Y0176522D01*
X0252531Y0176560D02*
X0252610Y0176560D01*
X0252585Y0176598D02*
X0252556Y0176598D01*
X0252981Y0176901D02*
X0254588Y0176901D01*
X0254588Y0176939D02*
X0252955Y0176939D01*
X0252929Y0176977D02*
X0254588Y0176977D01*
X0254588Y0177015D02*
X0252903Y0177015D01*
X0252912Y0177052D02*
X0254588Y0177052D01*
X0254588Y0177090D02*
X0252938Y0177090D01*
X0252964Y0177128D02*
X0254588Y0177128D01*
X0254588Y0177166D02*
X0252990Y0177166D01*
X0253016Y0177204D02*
X0254588Y0177204D01*
X0254588Y0177242D02*
X0253042Y0177242D01*
X0253068Y0177280D02*
X0254588Y0177280D01*
X0254588Y0177318D02*
X0253093Y0177318D01*
X0253119Y0177356D02*
X0254588Y0177356D01*
X0254588Y0177393D02*
X0253145Y0177393D01*
X0253171Y0177431D02*
X0254588Y0177431D01*
X0254588Y0177469D02*
X0253197Y0177469D01*
X0253223Y0177507D02*
X0254588Y0177507D01*
X0254588Y0177545D02*
X0253249Y0177545D01*
X0253275Y0177583D02*
X0254588Y0177583D01*
X0254588Y0177621D02*
X0253301Y0177621D01*
X0253327Y0177659D02*
X0254588Y0177659D01*
X0254588Y0177696D02*
X0253353Y0177696D01*
X0253378Y0177734D02*
X0254588Y0177734D01*
X0254588Y0177772D02*
X0253404Y0177772D01*
X0253430Y0177810D02*
X0254588Y0177810D01*
X0254588Y0177848D02*
X0253456Y0177848D01*
X0253482Y0177886D02*
X0254588Y0177886D01*
X0254588Y0177924D02*
X0253508Y0177924D01*
X0253534Y0177962D02*
X0254588Y0177962D01*
X0254588Y0178000D02*
X0253560Y0178000D01*
X0253586Y0178037D02*
X0254588Y0178037D01*
X0254588Y0178075D02*
X0253612Y0178075D01*
X0253638Y0178113D02*
X0254588Y0178113D01*
X0254588Y0178151D02*
X0253663Y0178151D01*
X0253689Y0178189D02*
X0254588Y0178189D01*
X0254588Y0176863D02*
X0253006Y0176863D01*
X0253032Y0176825D02*
X0254588Y0176825D01*
X0254588Y0176787D02*
X0253058Y0176787D01*
X0253084Y0176749D02*
X0254588Y0176749D01*
X0254588Y0176712D02*
X0253110Y0176712D01*
X0253136Y0176674D02*
X0254588Y0176674D01*
X0254588Y0176636D02*
X0253162Y0176636D01*
X0253187Y0176598D02*
X0254588Y0176598D01*
X0254588Y0176560D02*
X0253213Y0176560D01*
X0253239Y0176522D02*
X0254588Y0176522D01*
X0254588Y0176484D02*
X0253265Y0176484D01*
X0253291Y0176446D02*
X0254588Y0176446D01*
X0254588Y0176409D02*
X0253317Y0176409D01*
X0253342Y0176371D02*
X0254588Y0176371D01*
X0254588Y0176333D02*
X0253368Y0176333D01*
X0253394Y0176295D02*
X0254588Y0176295D01*
X0254588Y0176257D02*
X0253420Y0176257D01*
X0253446Y0176219D02*
X0254588Y0176219D01*
X0254588Y0176181D02*
X0253472Y0176181D01*
X0253497Y0176143D02*
X0254588Y0176143D01*
X0254588Y0176105D02*
X0253523Y0176105D01*
X0253549Y0176068D02*
X0254588Y0176068D01*
X0254588Y0176030D02*
X0253575Y0176030D01*
X0253601Y0175992D02*
X0254588Y0175992D01*
X0254588Y0175954D02*
X0253627Y0175954D01*
X0253653Y0175916D02*
X0254588Y0175916D01*
X0254588Y0175878D02*
X0253678Y0175878D01*
X0253704Y0175840D02*
X0254588Y0175840D01*
X0254588Y0175802D02*
X0253730Y0175802D01*
X0252592Y0177431D02*
X0252581Y0177431D01*
X0252557Y0177469D02*
X0252617Y0177469D01*
X0252642Y0177507D02*
X0252532Y0177507D01*
X0252508Y0177545D02*
X0252666Y0177545D01*
X0252691Y0177583D02*
X0252483Y0177583D01*
X0252459Y0177621D02*
X0252716Y0177621D01*
X0252741Y0177659D02*
X0252434Y0177659D01*
X0252410Y0177696D02*
X0252765Y0177696D01*
X0252790Y0177734D02*
X0252385Y0177734D01*
X0252360Y0177772D02*
X0252815Y0177772D01*
X0252840Y0177810D02*
X0252336Y0177810D01*
X0252311Y0177848D02*
X0252864Y0177848D01*
X0252889Y0177886D02*
X0252287Y0177886D01*
X0252262Y0177924D02*
X0252914Y0177924D01*
X0252938Y0177962D02*
X0252238Y0177962D01*
X0252213Y0178000D02*
X0252963Y0178000D01*
X0252988Y0178037D02*
X0252188Y0178037D01*
X0252164Y0178075D02*
X0253013Y0178075D01*
X0253037Y0178113D02*
X0252139Y0178113D01*
X0252115Y0178151D02*
X0253062Y0178151D01*
X0253087Y0178189D02*
X0252090Y0178189D01*
D290*
X0172388Y0124291D03*
D291*
X0176246Y0124016D03*
X0176246Y0123740D03*
X0176246Y0121260D03*
X0176246Y0120984D03*
M02*
