G04 EAGLE Gerber RS-274X export*
G75*
%MOMM*%
%FSLAX34Y34*%
%LPD*%
%INSolderpaste Bottom*%
%IPPOS*%
%AMOC8*
5,1,8,0,0,1.08239X$1,22.5*%
G01*
%ADD10R,0.550000X1.200000*%
%ADD11R,0.600000X0.600000*%
%ADD12R,0.875000X0.250000*%
%ADD13R,0.450000X0.250000*%
%ADD14R,0.250000X0.450000*%
%ADD15R,0.750000X0.400000*%
%ADD16R,0.685800X0.330200*%
%ADD17R,0.460000X0.650000*%
%ADD18R,0.650000X0.460000*%
%ADD19R,1.200000X0.550000*%
%ADD20R,0.830000X0.630000*%
%ADD21R,1.800000X1.400000*%
%ADD22R,1.400000X1.900000*%
%ADD23R,0.800000X1.500000*%


D10*
X111100Y50499D03*
X101600Y50499D03*
X92100Y50499D03*
X92100Y76501D03*
X111100Y76501D03*
D11*
X127000Y58500D03*
X127000Y68500D03*
X96600Y38100D03*
X106600Y38100D03*
X58420Y68500D03*
X58420Y58500D03*
X127000Y109300D03*
X127000Y119300D03*
X152400Y119300D03*
X152400Y109300D03*
X220980Y109300D03*
X220980Y119300D03*
X210900Y50800D03*
X220900Y50800D03*
X165100Y119300D03*
X165100Y109300D03*
X195500Y50800D03*
X185500Y50800D03*
X205740Y119300D03*
X205740Y109300D03*
D12*
X225825Y35400D03*
X225825Y30400D03*
X225825Y25400D03*
X225825Y20400D03*
X225825Y15400D03*
X180575Y15400D03*
X180575Y20400D03*
X180575Y25400D03*
X180575Y30400D03*
X180575Y35400D03*
D11*
X190500Y71200D03*
X190500Y81200D03*
X203200Y71200D03*
X203200Y81200D03*
X215900Y71200D03*
X215900Y81200D03*
X177800Y71200D03*
X177800Y81200D03*
D13*
X251700Y171800D03*
X251700Y167800D03*
X251700Y175800D03*
X251700Y179800D03*
X251700Y183800D03*
X251700Y187800D03*
D14*
X256700Y192800D03*
X260700Y192800D03*
X264700Y192800D03*
X268700Y192800D03*
X272700Y192800D03*
X276700Y192800D03*
D13*
X281700Y187800D03*
X281700Y183800D03*
X281700Y175800D03*
X281700Y179800D03*
X281700Y171800D03*
X281700Y167800D03*
D14*
X276700Y162800D03*
X272700Y162800D03*
X268700Y162800D03*
X264700Y162800D03*
X260700Y162800D03*
X256700Y162800D03*
D11*
X264160Y223600D03*
X264160Y233600D03*
X241300Y83740D03*
X241300Y73740D03*
X241300Y182800D03*
X241300Y172800D03*
D15*
X258450Y85240D03*
X258450Y72240D03*
D16*
X274955Y85471D03*
X274955Y78740D03*
X274955Y72009D03*
D11*
X287100Y77470D03*
X297100Y77470D03*
D17*
X256620Y129110D03*
X266620Y129110D03*
X261620Y117610D03*
D11*
X271700Y139700D03*
X261700Y139700D03*
D17*
X236300Y125300D03*
X246300Y125300D03*
X241300Y113800D03*
D11*
X246300Y139700D03*
X236300Y139700D03*
D17*
X284400Y226490D03*
X274400Y226490D03*
X279400Y237990D03*
D11*
X274400Y209550D03*
X284400Y209550D03*
X293370Y229950D03*
X293370Y239950D03*
D18*
X277290Y119460D03*
X277290Y129460D03*
X288790Y124460D03*
D11*
X287100Y139700D03*
X297100Y139700D03*
X297180Y97710D03*
X297180Y87710D03*
D17*
X243920Y239600D03*
X253920Y239600D03*
X248920Y228100D03*
D11*
X262810Y213360D03*
X252810Y213360D03*
X243920Y248920D03*
X253920Y248920D03*
D19*
X88599Y92100D03*
X88599Y101600D03*
X88599Y111100D03*
X114601Y111100D03*
X114601Y92100D03*
D11*
X44450Y68500D03*
X44450Y58500D03*
X139700Y109300D03*
X139700Y119300D03*
D20*
X76200Y75000D03*
X76200Y52000D03*
D21*
X160050Y131000D03*
X103050Y131000D03*
D22*
X87050Y262500D03*
X218550Y272500D03*
D23*
X171950Y234000D03*
X160950Y230000D03*
X149950Y234000D03*
X138950Y236000D03*
X127950Y234000D03*
X116950Y236000D03*
X105950Y234000D03*
X94950Y234000D03*
D11*
X43260Y166370D03*
X53260Y166370D03*
X53260Y146050D03*
X43260Y146050D03*
D10*
X420980Y50499D03*
X411480Y50499D03*
X401980Y50499D03*
X401980Y76501D03*
X420980Y76501D03*
D11*
X436880Y58500D03*
X436880Y68500D03*
X406480Y38100D03*
X416480Y38100D03*
X368300Y68500D03*
X368300Y58500D03*
X436880Y109300D03*
X436880Y119300D03*
X462280Y119300D03*
X462280Y109300D03*
X530860Y109300D03*
X530860Y119300D03*
X520780Y50800D03*
X530780Y50800D03*
X474980Y119300D03*
X474980Y109300D03*
X505380Y50800D03*
X495380Y50800D03*
X515620Y119300D03*
X515620Y109300D03*
D12*
X535705Y35400D03*
X535705Y30400D03*
X535705Y25400D03*
X535705Y20400D03*
X535705Y15400D03*
X490455Y15400D03*
X490455Y20400D03*
X490455Y25400D03*
X490455Y30400D03*
X490455Y35400D03*
D11*
X500380Y71200D03*
X500380Y81200D03*
X513080Y71200D03*
X513080Y81200D03*
X525780Y71200D03*
X525780Y81200D03*
X487680Y71200D03*
X487680Y81200D03*
D13*
X561580Y171800D03*
X561580Y167800D03*
X561580Y175800D03*
X561580Y179800D03*
X561580Y183800D03*
X561580Y187800D03*
D14*
X566580Y192800D03*
X570580Y192800D03*
X574580Y192800D03*
X578580Y192800D03*
X582580Y192800D03*
X586580Y192800D03*
D13*
X591580Y187800D03*
X591580Y183800D03*
X591580Y175800D03*
X591580Y179800D03*
X591580Y171800D03*
X591580Y167800D03*
D14*
X586580Y162800D03*
X582580Y162800D03*
X578580Y162800D03*
X574580Y162800D03*
X570580Y162800D03*
X566580Y162800D03*
D11*
X574040Y223600D03*
X574040Y233600D03*
X551180Y83740D03*
X551180Y73740D03*
X551180Y182800D03*
X551180Y172800D03*
D15*
X568330Y85240D03*
X568330Y72240D03*
D16*
X584835Y85471D03*
X584835Y78740D03*
X584835Y72009D03*
D11*
X596980Y77470D03*
X606980Y77470D03*
D17*
X566500Y129110D03*
X576500Y129110D03*
X571500Y117610D03*
D11*
X581580Y139700D03*
X571580Y139700D03*
D17*
X546180Y125300D03*
X556180Y125300D03*
X551180Y113800D03*
D11*
X556180Y139700D03*
X546180Y139700D03*
D17*
X594280Y226490D03*
X584280Y226490D03*
X589280Y237990D03*
D11*
X584280Y209550D03*
X594280Y209550D03*
X603250Y229950D03*
X603250Y239950D03*
D18*
X587170Y119460D03*
X587170Y129460D03*
X598670Y124460D03*
D11*
X596980Y139700D03*
X606980Y139700D03*
X607060Y97710D03*
X607060Y87710D03*
D17*
X553800Y239600D03*
X563800Y239600D03*
X558800Y228100D03*
D11*
X572690Y213360D03*
X562690Y213360D03*
X553800Y248920D03*
X563800Y248920D03*
D19*
X398479Y92100D03*
X398479Y101600D03*
X398479Y111100D03*
X424481Y111100D03*
X424481Y92100D03*
D11*
X354330Y68500D03*
X354330Y58500D03*
X449580Y109300D03*
X449580Y119300D03*
D20*
X386080Y75000D03*
X386080Y52000D03*
D21*
X469930Y131000D03*
X412930Y131000D03*
D22*
X396930Y262500D03*
X528430Y272500D03*
D23*
X481830Y234000D03*
X470830Y230000D03*
X459830Y234000D03*
X448830Y236000D03*
X437830Y234000D03*
X426830Y236000D03*
X415830Y234000D03*
X404830Y234000D03*
D11*
X353140Y166370D03*
X363140Y166370D03*
X363140Y146050D03*
X353140Y146050D03*
D10*
X730860Y50499D03*
X721360Y50499D03*
X711860Y50499D03*
X711860Y76501D03*
X730860Y76501D03*
D11*
X746760Y58500D03*
X746760Y68500D03*
X716360Y38100D03*
X726360Y38100D03*
X678180Y68500D03*
X678180Y58500D03*
X746760Y109300D03*
X746760Y119300D03*
X772160Y119300D03*
X772160Y109300D03*
X840740Y109300D03*
X840740Y119300D03*
X830660Y50800D03*
X840660Y50800D03*
X784860Y119300D03*
X784860Y109300D03*
X815260Y50800D03*
X805260Y50800D03*
X825500Y119300D03*
X825500Y109300D03*
D12*
X845585Y35400D03*
X845585Y30400D03*
X845585Y25400D03*
X845585Y20400D03*
X845585Y15400D03*
X800335Y15400D03*
X800335Y20400D03*
X800335Y25400D03*
X800335Y30400D03*
X800335Y35400D03*
D11*
X810260Y71200D03*
X810260Y81200D03*
X822960Y71200D03*
X822960Y81200D03*
X835660Y71200D03*
X835660Y81200D03*
X797560Y71200D03*
X797560Y81200D03*
D13*
X871460Y171800D03*
X871460Y167800D03*
X871460Y175800D03*
X871460Y179800D03*
X871460Y183800D03*
X871460Y187800D03*
D14*
X876460Y192800D03*
X880460Y192800D03*
X884460Y192800D03*
X888460Y192800D03*
X892460Y192800D03*
X896460Y192800D03*
D13*
X901460Y187800D03*
X901460Y183800D03*
X901460Y175800D03*
X901460Y179800D03*
X901460Y171800D03*
X901460Y167800D03*
D14*
X896460Y162800D03*
X892460Y162800D03*
X888460Y162800D03*
X884460Y162800D03*
X880460Y162800D03*
X876460Y162800D03*
D11*
X883920Y223600D03*
X883920Y233600D03*
X861060Y83740D03*
X861060Y73740D03*
X861060Y182800D03*
X861060Y172800D03*
D15*
X878210Y85240D03*
X878210Y72240D03*
D16*
X894715Y85471D03*
X894715Y78740D03*
X894715Y72009D03*
D11*
X906860Y77470D03*
X916860Y77470D03*
D17*
X876380Y129110D03*
X886380Y129110D03*
X881380Y117610D03*
D11*
X891460Y139700D03*
X881460Y139700D03*
D17*
X856060Y125300D03*
X866060Y125300D03*
X861060Y113800D03*
D11*
X866060Y139700D03*
X856060Y139700D03*
D17*
X904160Y226490D03*
X894160Y226490D03*
X899160Y237990D03*
D11*
X894160Y209550D03*
X904160Y209550D03*
X913130Y229950D03*
X913130Y239950D03*
D18*
X897050Y119460D03*
X897050Y129460D03*
X908550Y124460D03*
D11*
X906860Y139700D03*
X916860Y139700D03*
X916940Y97710D03*
X916940Y87710D03*
D17*
X863680Y239600D03*
X873680Y239600D03*
X868680Y228100D03*
D11*
X882570Y213360D03*
X872570Y213360D03*
X863680Y248920D03*
X873680Y248920D03*
D19*
X708359Y92100D03*
X708359Y101600D03*
X708359Y111100D03*
X734361Y111100D03*
X734361Y92100D03*
D11*
X664210Y68500D03*
X664210Y58500D03*
X759460Y109300D03*
X759460Y119300D03*
D20*
X695960Y75000D03*
X695960Y52000D03*
D21*
X779810Y131000D03*
X722810Y131000D03*
D22*
X706810Y262500D03*
X838310Y272500D03*
D23*
X791710Y234000D03*
X780710Y230000D03*
X769710Y234000D03*
X758710Y236000D03*
X747710Y234000D03*
X736710Y236000D03*
X725710Y234000D03*
X714710Y234000D03*
D11*
X663020Y166370D03*
X673020Y166370D03*
X673020Y146050D03*
X663020Y146050D03*
D10*
X111100Y411179D03*
X101600Y411179D03*
X92100Y411179D03*
X92100Y437181D03*
X111100Y437181D03*
D11*
X127000Y419180D03*
X127000Y429180D03*
X96600Y398780D03*
X106600Y398780D03*
X58420Y429180D03*
X58420Y419180D03*
X127000Y469980D03*
X127000Y479980D03*
X152400Y479980D03*
X152400Y469980D03*
X220980Y469980D03*
X220980Y479980D03*
X210900Y411480D03*
X220900Y411480D03*
X165100Y479980D03*
X165100Y469980D03*
X195500Y411480D03*
X185500Y411480D03*
X205740Y479980D03*
X205740Y469980D03*
D12*
X225825Y396080D03*
X225825Y391080D03*
X225825Y386080D03*
X225825Y381080D03*
X225825Y376080D03*
X180575Y376080D03*
X180575Y381080D03*
X180575Y386080D03*
X180575Y391080D03*
X180575Y396080D03*
D11*
X190500Y431880D03*
X190500Y441880D03*
X203200Y431880D03*
X203200Y441880D03*
X215900Y431880D03*
X215900Y441880D03*
X177800Y431880D03*
X177800Y441880D03*
D13*
X251700Y532480D03*
X251700Y528480D03*
X251700Y536480D03*
X251700Y540480D03*
X251700Y544480D03*
X251700Y548480D03*
D14*
X256700Y553480D03*
X260700Y553480D03*
X264700Y553480D03*
X268700Y553480D03*
X272700Y553480D03*
X276700Y553480D03*
D13*
X281700Y548480D03*
X281700Y544480D03*
X281700Y536480D03*
X281700Y540480D03*
X281700Y532480D03*
X281700Y528480D03*
D14*
X276700Y523480D03*
X272700Y523480D03*
X268700Y523480D03*
X264700Y523480D03*
X260700Y523480D03*
X256700Y523480D03*
D11*
X264160Y584280D03*
X264160Y594280D03*
X241300Y444420D03*
X241300Y434420D03*
X241300Y543480D03*
X241300Y533480D03*
D15*
X258450Y445920D03*
X258450Y432920D03*
D16*
X274955Y446151D03*
X274955Y439420D03*
X274955Y432689D03*
D11*
X287100Y438150D03*
X297100Y438150D03*
D17*
X256620Y489790D03*
X266620Y489790D03*
X261620Y478290D03*
D11*
X271700Y500380D03*
X261700Y500380D03*
D17*
X236300Y485980D03*
X246300Y485980D03*
X241300Y474480D03*
D11*
X246300Y500380D03*
X236300Y500380D03*
D17*
X284400Y587170D03*
X274400Y587170D03*
X279400Y598670D03*
D11*
X274400Y570230D03*
X284400Y570230D03*
X293370Y590630D03*
X293370Y600630D03*
D18*
X277290Y480140D03*
X277290Y490140D03*
X288790Y485140D03*
D11*
X287100Y500380D03*
X297100Y500380D03*
X297180Y458390D03*
X297180Y448390D03*
D17*
X243920Y600280D03*
X253920Y600280D03*
X248920Y588780D03*
D11*
X262810Y574040D03*
X252810Y574040D03*
X243920Y609600D03*
X253920Y609600D03*
D19*
X88599Y452780D03*
X88599Y462280D03*
X88599Y471780D03*
X114601Y471780D03*
X114601Y452780D03*
D11*
X44450Y429180D03*
X44450Y419180D03*
X139700Y469980D03*
X139700Y479980D03*
D20*
X76200Y435680D03*
X76200Y412680D03*
D21*
X160050Y491680D03*
X103050Y491680D03*
D22*
X87050Y623180D03*
X218550Y633180D03*
D23*
X171950Y594680D03*
X160950Y590680D03*
X149950Y594680D03*
X138950Y596680D03*
X127950Y594680D03*
X116950Y596680D03*
X105950Y594680D03*
X94950Y594680D03*
D11*
X43260Y527050D03*
X53260Y527050D03*
X53260Y506730D03*
X43260Y506730D03*
D10*
X420980Y411179D03*
X411480Y411179D03*
X401980Y411179D03*
X401980Y437181D03*
X420980Y437181D03*
D11*
X436880Y419180D03*
X436880Y429180D03*
X406480Y398780D03*
X416480Y398780D03*
X368300Y429180D03*
X368300Y419180D03*
X436880Y469980D03*
X436880Y479980D03*
X462280Y479980D03*
X462280Y469980D03*
X530860Y469980D03*
X530860Y479980D03*
X520780Y411480D03*
X530780Y411480D03*
X474980Y479980D03*
X474980Y469980D03*
X505380Y411480D03*
X495380Y411480D03*
X515620Y479980D03*
X515620Y469980D03*
D12*
X535705Y396080D03*
X535705Y391080D03*
X535705Y386080D03*
X535705Y381080D03*
X535705Y376080D03*
X490455Y376080D03*
X490455Y381080D03*
X490455Y386080D03*
X490455Y391080D03*
X490455Y396080D03*
D11*
X500380Y431880D03*
X500380Y441880D03*
X513080Y431880D03*
X513080Y441880D03*
X525780Y431880D03*
X525780Y441880D03*
X487680Y431880D03*
X487680Y441880D03*
D13*
X561580Y532480D03*
X561580Y528480D03*
X561580Y536480D03*
X561580Y540480D03*
X561580Y544480D03*
X561580Y548480D03*
D14*
X566580Y553480D03*
X570580Y553480D03*
X574580Y553480D03*
X578580Y553480D03*
X582580Y553480D03*
X586580Y553480D03*
D13*
X591580Y548480D03*
X591580Y544480D03*
X591580Y536480D03*
X591580Y540480D03*
X591580Y532480D03*
X591580Y528480D03*
D14*
X586580Y523480D03*
X582580Y523480D03*
X578580Y523480D03*
X574580Y523480D03*
X570580Y523480D03*
X566580Y523480D03*
D11*
X574040Y584280D03*
X574040Y594280D03*
X551180Y444420D03*
X551180Y434420D03*
X551180Y543480D03*
X551180Y533480D03*
D15*
X568330Y445920D03*
X568330Y432920D03*
D16*
X584835Y446151D03*
X584835Y439420D03*
X584835Y432689D03*
D11*
X596980Y438150D03*
X606980Y438150D03*
D17*
X566500Y489790D03*
X576500Y489790D03*
X571500Y478290D03*
D11*
X581580Y500380D03*
X571580Y500380D03*
D17*
X546180Y485980D03*
X556180Y485980D03*
X551180Y474480D03*
D11*
X556180Y500380D03*
X546180Y500380D03*
D17*
X594280Y587170D03*
X584280Y587170D03*
X589280Y598670D03*
D11*
X584280Y570230D03*
X594280Y570230D03*
X603250Y590630D03*
X603250Y600630D03*
D18*
X587170Y480140D03*
X587170Y490140D03*
X598670Y485140D03*
D11*
X596980Y500380D03*
X606980Y500380D03*
X607060Y458390D03*
X607060Y448390D03*
D17*
X553800Y600280D03*
X563800Y600280D03*
X558800Y588780D03*
D11*
X572690Y574040D03*
X562690Y574040D03*
X553800Y609600D03*
X563800Y609600D03*
D19*
X398479Y452780D03*
X398479Y462280D03*
X398479Y471780D03*
X424481Y471780D03*
X424481Y452780D03*
D11*
X354330Y429180D03*
X354330Y419180D03*
X449580Y469980D03*
X449580Y479980D03*
D20*
X386080Y435680D03*
X386080Y412680D03*
D21*
X469930Y491680D03*
X412930Y491680D03*
D22*
X396930Y623180D03*
X528430Y633180D03*
D23*
X481830Y594680D03*
X470830Y590680D03*
X459830Y594680D03*
X448830Y596680D03*
X437830Y594680D03*
X426830Y596680D03*
X415830Y594680D03*
X404830Y594680D03*
D11*
X353140Y527050D03*
X363140Y527050D03*
X363140Y506730D03*
X353140Y506730D03*
D10*
X730860Y411179D03*
X721360Y411179D03*
X711860Y411179D03*
X711860Y437181D03*
X730860Y437181D03*
D11*
X746760Y419180D03*
X746760Y429180D03*
X716360Y398780D03*
X726360Y398780D03*
X678180Y429180D03*
X678180Y419180D03*
X746760Y469980D03*
X746760Y479980D03*
X772160Y479980D03*
X772160Y469980D03*
X840740Y469980D03*
X840740Y479980D03*
X830660Y411480D03*
X840660Y411480D03*
X784860Y479980D03*
X784860Y469980D03*
X815260Y411480D03*
X805260Y411480D03*
X825500Y479980D03*
X825500Y469980D03*
D12*
X845585Y396080D03*
X845585Y391080D03*
X845585Y386080D03*
X845585Y381080D03*
X845585Y376080D03*
X800335Y376080D03*
X800335Y381080D03*
X800335Y386080D03*
X800335Y391080D03*
X800335Y396080D03*
D11*
X810260Y431880D03*
X810260Y441880D03*
X822960Y431880D03*
X822960Y441880D03*
X835660Y431880D03*
X835660Y441880D03*
X797560Y431880D03*
X797560Y441880D03*
D13*
X871460Y532480D03*
X871460Y528480D03*
X871460Y536480D03*
X871460Y540480D03*
X871460Y544480D03*
X871460Y548480D03*
D14*
X876460Y553480D03*
X880460Y553480D03*
X884460Y553480D03*
X888460Y553480D03*
X892460Y553480D03*
X896460Y553480D03*
D13*
X901460Y548480D03*
X901460Y544480D03*
X901460Y536480D03*
X901460Y540480D03*
X901460Y532480D03*
X901460Y528480D03*
D14*
X896460Y523480D03*
X892460Y523480D03*
X888460Y523480D03*
X884460Y523480D03*
X880460Y523480D03*
X876460Y523480D03*
D11*
X883920Y584280D03*
X883920Y594280D03*
X861060Y444420D03*
X861060Y434420D03*
X861060Y543480D03*
X861060Y533480D03*
D15*
X878210Y445920D03*
X878210Y432920D03*
D16*
X894715Y446151D03*
X894715Y439420D03*
X894715Y432689D03*
D11*
X906860Y438150D03*
X916860Y438150D03*
D17*
X876380Y489790D03*
X886380Y489790D03*
X881380Y478290D03*
D11*
X891460Y500380D03*
X881460Y500380D03*
D17*
X856060Y485980D03*
X866060Y485980D03*
X861060Y474480D03*
D11*
X866060Y500380D03*
X856060Y500380D03*
D17*
X904160Y587170D03*
X894160Y587170D03*
X899160Y598670D03*
D11*
X894160Y570230D03*
X904160Y570230D03*
X913130Y590630D03*
X913130Y600630D03*
D18*
X897050Y480140D03*
X897050Y490140D03*
X908550Y485140D03*
D11*
X906860Y500380D03*
X916860Y500380D03*
X916940Y458390D03*
X916940Y448390D03*
D17*
X863680Y600280D03*
X873680Y600280D03*
X868680Y588780D03*
D11*
X882570Y574040D03*
X872570Y574040D03*
X863680Y609600D03*
X873680Y609600D03*
D19*
X708359Y452780D03*
X708359Y462280D03*
X708359Y471780D03*
X734361Y471780D03*
X734361Y452780D03*
D11*
X664210Y429180D03*
X664210Y419180D03*
X759460Y469980D03*
X759460Y479980D03*
D20*
X695960Y435680D03*
X695960Y412680D03*
D21*
X779810Y491680D03*
X722810Y491680D03*
D22*
X706810Y623180D03*
X838310Y633180D03*
D23*
X791710Y594680D03*
X780710Y590680D03*
X769710Y594680D03*
X758710Y596680D03*
X747710Y594680D03*
X736710Y596680D03*
X725710Y594680D03*
X714710Y594680D03*
D11*
X663020Y527050D03*
X673020Y527050D03*
X673020Y506730D03*
X663020Y506730D03*
D10*
X111100Y771859D03*
X101600Y771859D03*
X92100Y771859D03*
X92100Y797861D03*
X111100Y797861D03*
D11*
X127000Y779860D03*
X127000Y789860D03*
X96600Y759460D03*
X106600Y759460D03*
X58420Y789860D03*
X58420Y779860D03*
X127000Y830660D03*
X127000Y840660D03*
X152400Y840660D03*
X152400Y830660D03*
X220980Y830660D03*
X220980Y840660D03*
X210900Y772160D03*
X220900Y772160D03*
X165100Y840660D03*
X165100Y830660D03*
X195500Y772160D03*
X185500Y772160D03*
X205740Y840660D03*
X205740Y830660D03*
D12*
X225825Y756760D03*
X225825Y751760D03*
X225825Y746760D03*
X225825Y741760D03*
X225825Y736760D03*
X180575Y736760D03*
X180575Y741760D03*
X180575Y746760D03*
X180575Y751760D03*
X180575Y756760D03*
D11*
X190500Y792560D03*
X190500Y802560D03*
X203200Y792560D03*
X203200Y802560D03*
X215900Y792560D03*
X215900Y802560D03*
X177800Y792560D03*
X177800Y802560D03*
D13*
X251700Y893160D03*
X251700Y889160D03*
X251700Y897160D03*
X251700Y901160D03*
X251700Y905160D03*
X251700Y909160D03*
D14*
X256700Y914160D03*
X260700Y914160D03*
X264700Y914160D03*
X268700Y914160D03*
X272700Y914160D03*
X276700Y914160D03*
D13*
X281700Y909160D03*
X281700Y905160D03*
X281700Y897160D03*
X281700Y901160D03*
X281700Y893160D03*
X281700Y889160D03*
D14*
X276700Y884160D03*
X272700Y884160D03*
X268700Y884160D03*
X264700Y884160D03*
X260700Y884160D03*
X256700Y884160D03*
D11*
X264160Y944960D03*
X264160Y954960D03*
X241300Y805100D03*
X241300Y795100D03*
X241300Y904160D03*
X241300Y894160D03*
D15*
X258450Y806600D03*
X258450Y793600D03*
D16*
X274955Y806831D03*
X274955Y800100D03*
X274955Y793369D03*
D11*
X287100Y798830D03*
X297100Y798830D03*
D17*
X256620Y850470D03*
X266620Y850470D03*
X261620Y838970D03*
D11*
X271700Y861060D03*
X261700Y861060D03*
D17*
X236300Y846660D03*
X246300Y846660D03*
X241300Y835160D03*
D11*
X246300Y861060D03*
X236300Y861060D03*
D17*
X284400Y947850D03*
X274400Y947850D03*
X279400Y959350D03*
D11*
X274400Y930910D03*
X284400Y930910D03*
X293370Y951310D03*
X293370Y961310D03*
D18*
X277290Y840820D03*
X277290Y850820D03*
X288790Y845820D03*
D11*
X287100Y861060D03*
X297100Y861060D03*
X297180Y819070D03*
X297180Y809070D03*
D17*
X243920Y960960D03*
X253920Y960960D03*
X248920Y949460D03*
D11*
X262810Y934720D03*
X252810Y934720D03*
X243920Y970280D03*
X253920Y970280D03*
D19*
X88599Y813460D03*
X88599Y822960D03*
X88599Y832460D03*
X114601Y832460D03*
X114601Y813460D03*
D11*
X44450Y789860D03*
X44450Y779860D03*
X139700Y830660D03*
X139700Y840660D03*
D20*
X76200Y796360D03*
X76200Y773360D03*
D21*
X160050Y852360D03*
X103050Y852360D03*
D22*
X87050Y983860D03*
X218550Y993860D03*
D23*
X171950Y955360D03*
X160950Y951360D03*
X149950Y955360D03*
X138950Y957360D03*
X127950Y955360D03*
X116950Y957360D03*
X105950Y955360D03*
X94950Y955360D03*
D11*
X43260Y887730D03*
X53260Y887730D03*
X53260Y867410D03*
X43260Y867410D03*
D10*
X420980Y771859D03*
X411480Y771859D03*
X401980Y771859D03*
X401980Y797861D03*
X420980Y797861D03*
D11*
X436880Y779860D03*
X436880Y789860D03*
X406480Y759460D03*
X416480Y759460D03*
X368300Y789860D03*
X368300Y779860D03*
X436880Y830660D03*
X436880Y840660D03*
X462280Y840660D03*
X462280Y830660D03*
X530860Y830660D03*
X530860Y840660D03*
X520780Y772160D03*
X530780Y772160D03*
X474980Y840660D03*
X474980Y830660D03*
X505380Y772160D03*
X495380Y772160D03*
X515620Y840660D03*
X515620Y830660D03*
D12*
X535705Y756760D03*
X535705Y751760D03*
X535705Y746760D03*
X535705Y741760D03*
X535705Y736760D03*
X490455Y736760D03*
X490455Y741760D03*
X490455Y746760D03*
X490455Y751760D03*
X490455Y756760D03*
D11*
X500380Y792560D03*
X500380Y802560D03*
X513080Y792560D03*
X513080Y802560D03*
X525780Y792560D03*
X525780Y802560D03*
X487680Y792560D03*
X487680Y802560D03*
D13*
X561580Y893160D03*
X561580Y889160D03*
X561580Y897160D03*
X561580Y901160D03*
X561580Y905160D03*
X561580Y909160D03*
D14*
X566580Y914160D03*
X570580Y914160D03*
X574580Y914160D03*
X578580Y914160D03*
X582580Y914160D03*
X586580Y914160D03*
D13*
X591580Y909160D03*
X591580Y905160D03*
X591580Y897160D03*
X591580Y901160D03*
X591580Y893160D03*
X591580Y889160D03*
D14*
X586580Y884160D03*
X582580Y884160D03*
X578580Y884160D03*
X574580Y884160D03*
X570580Y884160D03*
X566580Y884160D03*
D11*
X574040Y944960D03*
X574040Y954960D03*
X551180Y805100D03*
X551180Y795100D03*
X551180Y904160D03*
X551180Y894160D03*
D15*
X568330Y806600D03*
X568330Y793600D03*
D16*
X584835Y806831D03*
X584835Y800100D03*
X584835Y793369D03*
D11*
X596980Y798830D03*
X606980Y798830D03*
D17*
X566500Y850470D03*
X576500Y850470D03*
X571500Y838970D03*
D11*
X581580Y861060D03*
X571580Y861060D03*
D17*
X546180Y846660D03*
X556180Y846660D03*
X551180Y835160D03*
D11*
X556180Y861060D03*
X546180Y861060D03*
D17*
X594280Y947850D03*
X584280Y947850D03*
X589280Y959350D03*
D11*
X584280Y930910D03*
X594280Y930910D03*
X603250Y951310D03*
X603250Y961310D03*
D18*
X587170Y840820D03*
X587170Y850820D03*
X598670Y845820D03*
D11*
X596980Y861060D03*
X606980Y861060D03*
X607060Y819070D03*
X607060Y809070D03*
D17*
X553800Y960960D03*
X563800Y960960D03*
X558800Y949460D03*
D11*
X572690Y934720D03*
X562690Y934720D03*
X553800Y970280D03*
X563800Y970280D03*
D19*
X398479Y813460D03*
X398479Y822960D03*
X398479Y832460D03*
X424481Y832460D03*
X424481Y813460D03*
D11*
X354330Y789860D03*
X354330Y779860D03*
X449580Y830660D03*
X449580Y840660D03*
D20*
X386080Y796360D03*
X386080Y773360D03*
D21*
X469930Y852360D03*
X412930Y852360D03*
D22*
X396930Y983860D03*
X528430Y993860D03*
D23*
X481830Y955360D03*
X470830Y951360D03*
X459830Y955360D03*
X448830Y957360D03*
X437830Y955360D03*
X426830Y957360D03*
X415830Y955360D03*
X404830Y955360D03*
D11*
X353140Y887730D03*
X363140Y887730D03*
X363140Y867410D03*
X353140Y867410D03*
D10*
X730860Y771859D03*
X721360Y771859D03*
X711860Y771859D03*
X711860Y797861D03*
X730860Y797861D03*
D11*
X746760Y779860D03*
X746760Y789860D03*
X716360Y759460D03*
X726360Y759460D03*
X678180Y789860D03*
X678180Y779860D03*
X746760Y830660D03*
X746760Y840660D03*
X772160Y840660D03*
X772160Y830660D03*
X840740Y830660D03*
X840740Y840660D03*
X830660Y772160D03*
X840660Y772160D03*
X784860Y840660D03*
X784860Y830660D03*
X815260Y772160D03*
X805260Y772160D03*
X825500Y840660D03*
X825500Y830660D03*
D12*
X845585Y756760D03*
X845585Y751760D03*
X845585Y746760D03*
X845585Y741760D03*
X845585Y736760D03*
X800335Y736760D03*
X800335Y741760D03*
X800335Y746760D03*
X800335Y751760D03*
X800335Y756760D03*
D11*
X810260Y792560D03*
X810260Y802560D03*
X822960Y792560D03*
X822960Y802560D03*
X835660Y792560D03*
X835660Y802560D03*
X797560Y792560D03*
X797560Y802560D03*
D13*
X871460Y893160D03*
X871460Y889160D03*
X871460Y897160D03*
X871460Y901160D03*
X871460Y905160D03*
X871460Y909160D03*
D14*
X876460Y914160D03*
X880460Y914160D03*
X884460Y914160D03*
X888460Y914160D03*
X892460Y914160D03*
X896460Y914160D03*
D13*
X901460Y909160D03*
X901460Y905160D03*
X901460Y897160D03*
X901460Y901160D03*
X901460Y893160D03*
X901460Y889160D03*
D14*
X896460Y884160D03*
X892460Y884160D03*
X888460Y884160D03*
X884460Y884160D03*
X880460Y884160D03*
X876460Y884160D03*
D11*
X883920Y944960D03*
X883920Y954960D03*
X861060Y805100D03*
X861060Y795100D03*
X861060Y904160D03*
X861060Y894160D03*
D15*
X878210Y806600D03*
X878210Y793600D03*
D16*
X894715Y806831D03*
X894715Y800100D03*
X894715Y793369D03*
D11*
X906860Y798830D03*
X916860Y798830D03*
D17*
X876380Y850470D03*
X886380Y850470D03*
X881380Y838970D03*
D11*
X891460Y861060D03*
X881460Y861060D03*
D17*
X856060Y846660D03*
X866060Y846660D03*
X861060Y835160D03*
D11*
X866060Y861060D03*
X856060Y861060D03*
D17*
X904160Y947850D03*
X894160Y947850D03*
X899160Y959350D03*
D11*
X894160Y930910D03*
X904160Y930910D03*
X913130Y951310D03*
X913130Y961310D03*
D18*
X897050Y840820D03*
X897050Y850820D03*
X908550Y845820D03*
D11*
X906860Y861060D03*
X916860Y861060D03*
X916940Y819070D03*
X916940Y809070D03*
D17*
X863680Y960960D03*
X873680Y960960D03*
X868680Y949460D03*
D11*
X882570Y934720D03*
X872570Y934720D03*
X863680Y970280D03*
X873680Y970280D03*
D19*
X708359Y813460D03*
X708359Y822960D03*
X708359Y832460D03*
X734361Y832460D03*
X734361Y813460D03*
D11*
X664210Y789860D03*
X664210Y779860D03*
X759460Y830660D03*
X759460Y840660D03*
D20*
X695960Y796360D03*
X695960Y773360D03*
D21*
X779810Y852360D03*
X722810Y852360D03*
D22*
X706810Y983860D03*
X838310Y993860D03*
D23*
X791710Y955360D03*
X780710Y951360D03*
X769710Y955360D03*
X758710Y957360D03*
X747710Y955360D03*
X736710Y957360D03*
X725710Y955360D03*
X714710Y955360D03*
D11*
X663020Y887730D03*
X673020Y887730D03*
X673020Y867410D03*
X663020Y867410D03*
D10*
X111100Y1132539D03*
X101600Y1132539D03*
X92100Y1132539D03*
X92100Y1158541D03*
X111100Y1158541D03*
D11*
X127000Y1140540D03*
X127000Y1150540D03*
X96600Y1120140D03*
X106600Y1120140D03*
X58420Y1150540D03*
X58420Y1140540D03*
X127000Y1191340D03*
X127000Y1201340D03*
X152400Y1201340D03*
X152400Y1191340D03*
X220980Y1191340D03*
X220980Y1201340D03*
X210900Y1132840D03*
X220900Y1132840D03*
X165100Y1201340D03*
X165100Y1191340D03*
X195500Y1132840D03*
X185500Y1132840D03*
X205740Y1201340D03*
X205740Y1191340D03*
D12*
X225825Y1117440D03*
X225825Y1112440D03*
X225825Y1107440D03*
X225825Y1102440D03*
X225825Y1097440D03*
X180575Y1097440D03*
X180575Y1102440D03*
X180575Y1107440D03*
X180575Y1112440D03*
X180575Y1117440D03*
D11*
X190500Y1153240D03*
X190500Y1163240D03*
X203200Y1153240D03*
X203200Y1163240D03*
X215900Y1153240D03*
X215900Y1163240D03*
X177800Y1153240D03*
X177800Y1163240D03*
D13*
X251700Y1253840D03*
X251700Y1249840D03*
X251700Y1257840D03*
X251700Y1261840D03*
X251700Y1265840D03*
X251700Y1269840D03*
D14*
X256700Y1274840D03*
X260700Y1274840D03*
X264700Y1274840D03*
X268700Y1274840D03*
X272700Y1274840D03*
X276700Y1274840D03*
D13*
X281700Y1269840D03*
X281700Y1265840D03*
X281700Y1257840D03*
X281700Y1261840D03*
X281700Y1253840D03*
X281700Y1249840D03*
D14*
X276700Y1244840D03*
X272700Y1244840D03*
X268700Y1244840D03*
X264700Y1244840D03*
X260700Y1244840D03*
X256700Y1244840D03*
D11*
X264160Y1305640D03*
X264160Y1315640D03*
X241300Y1165780D03*
X241300Y1155780D03*
X241300Y1264840D03*
X241300Y1254840D03*
D15*
X258450Y1167280D03*
X258450Y1154280D03*
D16*
X274955Y1167511D03*
X274955Y1160780D03*
X274955Y1154049D03*
D11*
X287100Y1159510D03*
X297100Y1159510D03*
D17*
X256620Y1211150D03*
X266620Y1211150D03*
X261620Y1199650D03*
D11*
X271700Y1221740D03*
X261700Y1221740D03*
D17*
X236300Y1207340D03*
X246300Y1207340D03*
X241300Y1195840D03*
D11*
X246300Y1221740D03*
X236300Y1221740D03*
D17*
X284400Y1308530D03*
X274400Y1308530D03*
X279400Y1320030D03*
D11*
X274400Y1291590D03*
X284400Y1291590D03*
X293370Y1311990D03*
X293370Y1321990D03*
D18*
X277290Y1201500D03*
X277290Y1211500D03*
X288790Y1206500D03*
D11*
X287100Y1221740D03*
X297100Y1221740D03*
X297180Y1179750D03*
X297180Y1169750D03*
D17*
X243920Y1321640D03*
X253920Y1321640D03*
X248920Y1310140D03*
D11*
X262810Y1295400D03*
X252810Y1295400D03*
X243920Y1330960D03*
X253920Y1330960D03*
D19*
X88599Y1174140D03*
X88599Y1183640D03*
X88599Y1193140D03*
X114601Y1193140D03*
X114601Y1174140D03*
D11*
X44450Y1150540D03*
X44450Y1140540D03*
X139700Y1191340D03*
X139700Y1201340D03*
D20*
X76200Y1157040D03*
X76200Y1134040D03*
D21*
X160050Y1213040D03*
X103050Y1213040D03*
D22*
X87050Y1344540D03*
X218550Y1354540D03*
D23*
X171950Y1316040D03*
X160950Y1312040D03*
X149950Y1316040D03*
X138950Y1318040D03*
X127950Y1316040D03*
X116950Y1318040D03*
X105950Y1316040D03*
X94950Y1316040D03*
D11*
X43260Y1248410D03*
X53260Y1248410D03*
X53260Y1228090D03*
X43260Y1228090D03*
D10*
X420980Y1132539D03*
X411480Y1132539D03*
X401980Y1132539D03*
X401980Y1158541D03*
X420980Y1158541D03*
D11*
X436880Y1140540D03*
X436880Y1150540D03*
X406480Y1120140D03*
X416480Y1120140D03*
X368300Y1150540D03*
X368300Y1140540D03*
X436880Y1191340D03*
X436880Y1201340D03*
X462280Y1201340D03*
X462280Y1191340D03*
X530860Y1191340D03*
X530860Y1201340D03*
X520780Y1132840D03*
X530780Y1132840D03*
X474980Y1201340D03*
X474980Y1191340D03*
X505380Y1132840D03*
X495380Y1132840D03*
X515620Y1201340D03*
X515620Y1191340D03*
D12*
X535705Y1117440D03*
X535705Y1112440D03*
X535705Y1107440D03*
X535705Y1102440D03*
X535705Y1097440D03*
X490455Y1097440D03*
X490455Y1102440D03*
X490455Y1107440D03*
X490455Y1112440D03*
X490455Y1117440D03*
D11*
X500380Y1153240D03*
X500380Y1163240D03*
X513080Y1153240D03*
X513080Y1163240D03*
X525780Y1153240D03*
X525780Y1163240D03*
X487680Y1153240D03*
X487680Y1163240D03*
D13*
X561580Y1253840D03*
X561580Y1249840D03*
X561580Y1257840D03*
X561580Y1261840D03*
X561580Y1265840D03*
X561580Y1269840D03*
D14*
X566580Y1274840D03*
X570580Y1274840D03*
X574580Y1274840D03*
X578580Y1274840D03*
X582580Y1274840D03*
X586580Y1274840D03*
D13*
X591580Y1269840D03*
X591580Y1265840D03*
X591580Y1257840D03*
X591580Y1261840D03*
X591580Y1253840D03*
X591580Y1249840D03*
D14*
X586580Y1244840D03*
X582580Y1244840D03*
X578580Y1244840D03*
X574580Y1244840D03*
X570580Y1244840D03*
X566580Y1244840D03*
D11*
X574040Y1305640D03*
X574040Y1315640D03*
X551180Y1165780D03*
X551180Y1155780D03*
X551180Y1264840D03*
X551180Y1254840D03*
D15*
X568330Y1167280D03*
X568330Y1154280D03*
D16*
X584835Y1167511D03*
X584835Y1160780D03*
X584835Y1154049D03*
D11*
X596980Y1159510D03*
X606980Y1159510D03*
D17*
X566500Y1211150D03*
X576500Y1211150D03*
X571500Y1199650D03*
D11*
X581580Y1221740D03*
X571580Y1221740D03*
D17*
X546180Y1207340D03*
X556180Y1207340D03*
X551180Y1195840D03*
D11*
X556180Y1221740D03*
X546180Y1221740D03*
D17*
X594280Y1308530D03*
X584280Y1308530D03*
X589280Y1320030D03*
D11*
X584280Y1291590D03*
X594280Y1291590D03*
X603250Y1311990D03*
X603250Y1321990D03*
D18*
X587170Y1201500D03*
X587170Y1211500D03*
X598670Y1206500D03*
D11*
X596980Y1221740D03*
X606980Y1221740D03*
X607060Y1179750D03*
X607060Y1169750D03*
D17*
X553800Y1321640D03*
X563800Y1321640D03*
X558800Y1310140D03*
D11*
X572690Y1295400D03*
X562690Y1295400D03*
X553800Y1330960D03*
X563800Y1330960D03*
D19*
X398479Y1174140D03*
X398479Y1183640D03*
X398479Y1193140D03*
X424481Y1193140D03*
X424481Y1174140D03*
D11*
X354330Y1150540D03*
X354330Y1140540D03*
X449580Y1191340D03*
X449580Y1201340D03*
D20*
X386080Y1157040D03*
X386080Y1134040D03*
D21*
X469930Y1213040D03*
X412930Y1213040D03*
D22*
X396930Y1344540D03*
X528430Y1354540D03*
D23*
X481830Y1316040D03*
X470830Y1312040D03*
X459830Y1316040D03*
X448830Y1318040D03*
X437830Y1316040D03*
X426830Y1318040D03*
X415830Y1316040D03*
X404830Y1316040D03*
D11*
X353140Y1248410D03*
X363140Y1248410D03*
X363140Y1228090D03*
X353140Y1228090D03*
D10*
X730860Y1132539D03*
X721360Y1132539D03*
X711860Y1132539D03*
X711860Y1158541D03*
X730860Y1158541D03*
D11*
X746760Y1140540D03*
X746760Y1150540D03*
X716360Y1120140D03*
X726360Y1120140D03*
X678180Y1150540D03*
X678180Y1140540D03*
X746760Y1191340D03*
X746760Y1201340D03*
X772160Y1201340D03*
X772160Y1191340D03*
X840740Y1191340D03*
X840740Y1201340D03*
X830660Y1132840D03*
X840660Y1132840D03*
X784860Y1201340D03*
X784860Y1191340D03*
X815260Y1132840D03*
X805260Y1132840D03*
X825500Y1201340D03*
X825500Y1191340D03*
D12*
X845585Y1117440D03*
X845585Y1112440D03*
X845585Y1107440D03*
X845585Y1102440D03*
X845585Y1097440D03*
X800335Y1097440D03*
X800335Y1102440D03*
X800335Y1107440D03*
X800335Y1112440D03*
X800335Y1117440D03*
D11*
X810260Y1153240D03*
X810260Y1163240D03*
X822960Y1153240D03*
X822960Y1163240D03*
X835660Y1153240D03*
X835660Y1163240D03*
X797560Y1153240D03*
X797560Y1163240D03*
D13*
X871460Y1253840D03*
X871460Y1249840D03*
X871460Y1257840D03*
X871460Y1261840D03*
X871460Y1265840D03*
X871460Y1269840D03*
D14*
X876460Y1274840D03*
X880460Y1274840D03*
X884460Y1274840D03*
X888460Y1274840D03*
X892460Y1274840D03*
X896460Y1274840D03*
D13*
X901460Y1269840D03*
X901460Y1265840D03*
X901460Y1257840D03*
X901460Y1261840D03*
X901460Y1253840D03*
X901460Y1249840D03*
D14*
X896460Y1244840D03*
X892460Y1244840D03*
X888460Y1244840D03*
X884460Y1244840D03*
X880460Y1244840D03*
X876460Y1244840D03*
D11*
X883920Y1305640D03*
X883920Y1315640D03*
X861060Y1165780D03*
X861060Y1155780D03*
X861060Y1264840D03*
X861060Y1254840D03*
D15*
X878210Y1167280D03*
X878210Y1154280D03*
D16*
X894715Y1167511D03*
X894715Y1160780D03*
X894715Y1154049D03*
D11*
X906860Y1159510D03*
X916860Y1159510D03*
D17*
X876380Y1211150D03*
X886380Y1211150D03*
X881380Y1199650D03*
D11*
X891460Y1221740D03*
X881460Y1221740D03*
D17*
X856060Y1207340D03*
X866060Y1207340D03*
X861060Y1195840D03*
D11*
X866060Y1221740D03*
X856060Y1221740D03*
D17*
X904160Y1308530D03*
X894160Y1308530D03*
X899160Y1320030D03*
D11*
X894160Y1291590D03*
X904160Y1291590D03*
X913130Y1311990D03*
X913130Y1321990D03*
D18*
X897050Y1201500D03*
X897050Y1211500D03*
X908550Y1206500D03*
D11*
X906860Y1221740D03*
X916860Y1221740D03*
X916940Y1179750D03*
X916940Y1169750D03*
D17*
X863680Y1321640D03*
X873680Y1321640D03*
X868680Y1310140D03*
D11*
X882570Y1295400D03*
X872570Y1295400D03*
X863680Y1330960D03*
X873680Y1330960D03*
D19*
X708359Y1174140D03*
X708359Y1183640D03*
X708359Y1193140D03*
X734361Y1193140D03*
X734361Y1174140D03*
D11*
X664210Y1150540D03*
X664210Y1140540D03*
X759460Y1191340D03*
X759460Y1201340D03*
D20*
X695960Y1157040D03*
X695960Y1134040D03*
D21*
X779810Y1213040D03*
X722810Y1213040D03*
D22*
X706810Y1344540D03*
X838310Y1354540D03*
D23*
X791710Y1316040D03*
X780710Y1312040D03*
X769710Y1316040D03*
X758710Y1318040D03*
X747710Y1316040D03*
X736710Y1318040D03*
X725710Y1316040D03*
X714710Y1316040D03*
D11*
X663020Y1248410D03*
X673020Y1248410D03*
X673020Y1228090D03*
X663020Y1228090D03*
D10*
X111100Y1493219D03*
X101600Y1493219D03*
X92100Y1493219D03*
X92100Y1519221D03*
X111100Y1519221D03*
D11*
X127000Y1501220D03*
X127000Y1511220D03*
X96600Y1480820D03*
X106600Y1480820D03*
X58420Y1511220D03*
X58420Y1501220D03*
X127000Y1552020D03*
X127000Y1562020D03*
X152400Y1562020D03*
X152400Y1552020D03*
X220980Y1552020D03*
X220980Y1562020D03*
X210900Y1493520D03*
X220900Y1493520D03*
X165100Y1562020D03*
X165100Y1552020D03*
X195500Y1493520D03*
X185500Y1493520D03*
X205740Y1562020D03*
X205740Y1552020D03*
D12*
X225825Y1478120D03*
X225825Y1473120D03*
X225825Y1468120D03*
X225825Y1463120D03*
X225825Y1458120D03*
X180575Y1458120D03*
X180575Y1463120D03*
X180575Y1468120D03*
X180575Y1473120D03*
X180575Y1478120D03*
D11*
X190500Y1513920D03*
X190500Y1523920D03*
X203200Y1513920D03*
X203200Y1523920D03*
X215900Y1513920D03*
X215900Y1523920D03*
X177800Y1513920D03*
X177800Y1523920D03*
D13*
X251700Y1614520D03*
X251700Y1610520D03*
X251700Y1618520D03*
X251700Y1622520D03*
X251700Y1626520D03*
X251700Y1630520D03*
D14*
X256700Y1635520D03*
X260700Y1635520D03*
X264700Y1635520D03*
X268700Y1635520D03*
X272700Y1635520D03*
X276700Y1635520D03*
D13*
X281700Y1630520D03*
X281700Y1626520D03*
X281700Y1618520D03*
X281700Y1622520D03*
X281700Y1614520D03*
X281700Y1610520D03*
D14*
X276700Y1605520D03*
X272700Y1605520D03*
X268700Y1605520D03*
X264700Y1605520D03*
X260700Y1605520D03*
X256700Y1605520D03*
D11*
X264160Y1666320D03*
X264160Y1676320D03*
X241300Y1526460D03*
X241300Y1516460D03*
X241300Y1625520D03*
X241300Y1615520D03*
D15*
X258450Y1527960D03*
X258450Y1514960D03*
D16*
X274955Y1528191D03*
X274955Y1521460D03*
X274955Y1514729D03*
D11*
X287100Y1520190D03*
X297100Y1520190D03*
D17*
X256620Y1571830D03*
X266620Y1571830D03*
X261620Y1560330D03*
D11*
X271700Y1582420D03*
X261700Y1582420D03*
D17*
X236300Y1568020D03*
X246300Y1568020D03*
X241300Y1556520D03*
D11*
X246300Y1582420D03*
X236300Y1582420D03*
D17*
X284400Y1669210D03*
X274400Y1669210D03*
X279400Y1680710D03*
D11*
X274400Y1652270D03*
X284400Y1652270D03*
X293370Y1672670D03*
X293370Y1682670D03*
D18*
X277290Y1562180D03*
X277290Y1572180D03*
X288790Y1567180D03*
D11*
X287100Y1582420D03*
X297100Y1582420D03*
X297180Y1540430D03*
X297180Y1530430D03*
D17*
X243920Y1682320D03*
X253920Y1682320D03*
X248920Y1670820D03*
D11*
X262810Y1656080D03*
X252810Y1656080D03*
X243920Y1691640D03*
X253920Y1691640D03*
D19*
X88599Y1534820D03*
X88599Y1544320D03*
X88599Y1553820D03*
X114601Y1553820D03*
X114601Y1534820D03*
D11*
X44450Y1511220D03*
X44450Y1501220D03*
X139700Y1552020D03*
X139700Y1562020D03*
D20*
X76200Y1517720D03*
X76200Y1494720D03*
D21*
X160050Y1573720D03*
X103050Y1573720D03*
D22*
X87050Y1705220D03*
X218550Y1715220D03*
D23*
X171950Y1676720D03*
X160950Y1672720D03*
X149950Y1676720D03*
X138950Y1678720D03*
X127950Y1676720D03*
X116950Y1678720D03*
X105950Y1676720D03*
X94950Y1676720D03*
D11*
X43260Y1609090D03*
X53260Y1609090D03*
X53260Y1588770D03*
X43260Y1588770D03*
D10*
X420980Y1493219D03*
X411480Y1493219D03*
X401980Y1493219D03*
X401980Y1519221D03*
X420980Y1519221D03*
D11*
X436880Y1501220D03*
X436880Y1511220D03*
X406480Y1480820D03*
X416480Y1480820D03*
X368300Y1511220D03*
X368300Y1501220D03*
X436880Y1552020D03*
X436880Y1562020D03*
X462280Y1562020D03*
X462280Y1552020D03*
X530860Y1552020D03*
X530860Y1562020D03*
X520780Y1493520D03*
X530780Y1493520D03*
X474980Y1562020D03*
X474980Y1552020D03*
X505380Y1493520D03*
X495380Y1493520D03*
X515620Y1562020D03*
X515620Y1552020D03*
D12*
X535705Y1478120D03*
X535705Y1473120D03*
X535705Y1468120D03*
X535705Y1463120D03*
X535705Y1458120D03*
X490455Y1458120D03*
X490455Y1463120D03*
X490455Y1468120D03*
X490455Y1473120D03*
X490455Y1478120D03*
D11*
X500380Y1513920D03*
X500380Y1523920D03*
X513080Y1513920D03*
X513080Y1523920D03*
X525780Y1513920D03*
X525780Y1523920D03*
X487680Y1513920D03*
X487680Y1523920D03*
D13*
X561580Y1614520D03*
X561580Y1610520D03*
X561580Y1618520D03*
X561580Y1622520D03*
X561580Y1626520D03*
X561580Y1630520D03*
D14*
X566580Y1635520D03*
X570580Y1635520D03*
X574580Y1635520D03*
X578580Y1635520D03*
X582580Y1635520D03*
X586580Y1635520D03*
D13*
X591580Y1630520D03*
X591580Y1626520D03*
X591580Y1618520D03*
X591580Y1622520D03*
X591580Y1614520D03*
X591580Y1610520D03*
D14*
X586580Y1605520D03*
X582580Y1605520D03*
X578580Y1605520D03*
X574580Y1605520D03*
X570580Y1605520D03*
X566580Y1605520D03*
D11*
X574040Y1666320D03*
X574040Y1676320D03*
X551180Y1526460D03*
X551180Y1516460D03*
X551180Y1625520D03*
X551180Y1615520D03*
D15*
X568330Y1527960D03*
X568330Y1514960D03*
D16*
X584835Y1528191D03*
X584835Y1521460D03*
X584835Y1514729D03*
D11*
X596980Y1520190D03*
X606980Y1520190D03*
D17*
X566500Y1571830D03*
X576500Y1571830D03*
X571500Y1560330D03*
D11*
X581580Y1582420D03*
X571580Y1582420D03*
D17*
X546180Y1568020D03*
X556180Y1568020D03*
X551180Y1556520D03*
D11*
X556180Y1582420D03*
X546180Y1582420D03*
D17*
X594280Y1669210D03*
X584280Y1669210D03*
X589280Y1680710D03*
D11*
X584280Y1652270D03*
X594280Y1652270D03*
X603250Y1672670D03*
X603250Y1682670D03*
D18*
X587170Y1562180D03*
X587170Y1572180D03*
X598670Y1567180D03*
D11*
X596980Y1582420D03*
X606980Y1582420D03*
X607060Y1540430D03*
X607060Y1530430D03*
D17*
X553800Y1682320D03*
X563800Y1682320D03*
X558800Y1670820D03*
D11*
X572690Y1656080D03*
X562690Y1656080D03*
X553800Y1691640D03*
X563800Y1691640D03*
D19*
X398479Y1534820D03*
X398479Y1544320D03*
X398479Y1553820D03*
X424481Y1553820D03*
X424481Y1534820D03*
D11*
X354330Y1511220D03*
X354330Y1501220D03*
X449580Y1552020D03*
X449580Y1562020D03*
D20*
X386080Y1517720D03*
X386080Y1494720D03*
D21*
X469930Y1573720D03*
X412930Y1573720D03*
D22*
X396930Y1705220D03*
X528430Y1715220D03*
D23*
X481830Y1676720D03*
X470830Y1672720D03*
X459830Y1676720D03*
X448830Y1678720D03*
X437830Y1676720D03*
X426830Y1678720D03*
X415830Y1676720D03*
X404830Y1676720D03*
D11*
X353140Y1609090D03*
X363140Y1609090D03*
X363140Y1588770D03*
X353140Y1588770D03*
D10*
X730860Y1493219D03*
X721360Y1493219D03*
X711860Y1493219D03*
X711860Y1519221D03*
X730860Y1519221D03*
D11*
X746760Y1501220D03*
X746760Y1511220D03*
X716360Y1480820D03*
X726360Y1480820D03*
X678180Y1511220D03*
X678180Y1501220D03*
X746760Y1552020D03*
X746760Y1562020D03*
X772160Y1562020D03*
X772160Y1552020D03*
X840740Y1552020D03*
X840740Y1562020D03*
X830660Y1493520D03*
X840660Y1493520D03*
X784860Y1562020D03*
X784860Y1552020D03*
X815260Y1493520D03*
X805260Y1493520D03*
X825500Y1562020D03*
X825500Y1552020D03*
D12*
X845585Y1478120D03*
X845585Y1473120D03*
X845585Y1468120D03*
X845585Y1463120D03*
X845585Y1458120D03*
X800335Y1458120D03*
X800335Y1463120D03*
X800335Y1468120D03*
X800335Y1473120D03*
X800335Y1478120D03*
D11*
X810260Y1513920D03*
X810260Y1523920D03*
X822960Y1513920D03*
X822960Y1523920D03*
X835660Y1513920D03*
X835660Y1523920D03*
X797560Y1513920D03*
X797560Y1523920D03*
D13*
X871460Y1614520D03*
X871460Y1610520D03*
X871460Y1618520D03*
X871460Y1622520D03*
X871460Y1626520D03*
X871460Y1630520D03*
D14*
X876460Y1635520D03*
X880460Y1635520D03*
X884460Y1635520D03*
X888460Y1635520D03*
X892460Y1635520D03*
X896460Y1635520D03*
D13*
X901460Y1630520D03*
X901460Y1626520D03*
X901460Y1618520D03*
X901460Y1622520D03*
X901460Y1614520D03*
X901460Y1610520D03*
D14*
X896460Y1605520D03*
X892460Y1605520D03*
X888460Y1605520D03*
X884460Y1605520D03*
X880460Y1605520D03*
X876460Y1605520D03*
D11*
X883920Y1666320D03*
X883920Y1676320D03*
X861060Y1526460D03*
X861060Y1516460D03*
X861060Y1625520D03*
X861060Y1615520D03*
D15*
X878210Y1527960D03*
X878210Y1514960D03*
D16*
X894715Y1528191D03*
X894715Y1521460D03*
X894715Y1514729D03*
D11*
X906860Y1520190D03*
X916860Y1520190D03*
D17*
X876380Y1571830D03*
X886380Y1571830D03*
X881380Y1560330D03*
D11*
X891460Y1582420D03*
X881460Y1582420D03*
D17*
X856060Y1568020D03*
X866060Y1568020D03*
X861060Y1556520D03*
D11*
X866060Y1582420D03*
X856060Y1582420D03*
D17*
X904160Y1669210D03*
X894160Y1669210D03*
X899160Y1680710D03*
D11*
X894160Y1652270D03*
X904160Y1652270D03*
X913130Y1672670D03*
X913130Y1682670D03*
D18*
X897050Y1562180D03*
X897050Y1572180D03*
X908550Y1567180D03*
D11*
X906860Y1582420D03*
X916860Y1582420D03*
X916940Y1540430D03*
X916940Y1530430D03*
D17*
X863680Y1682320D03*
X873680Y1682320D03*
X868680Y1670820D03*
D11*
X882570Y1656080D03*
X872570Y1656080D03*
X863680Y1691640D03*
X873680Y1691640D03*
D19*
X708359Y1534820D03*
X708359Y1544320D03*
X708359Y1553820D03*
X734361Y1553820D03*
X734361Y1534820D03*
D11*
X664210Y1511220D03*
X664210Y1501220D03*
X759460Y1552020D03*
X759460Y1562020D03*
D20*
X695960Y1517720D03*
X695960Y1494720D03*
D21*
X779810Y1573720D03*
X722810Y1573720D03*
D22*
X706810Y1705220D03*
X838310Y1715220D03*
D23*
X791710Y1676720D03*
X780710Y1672720D03*
X769710Y1676720D03*
X758710Y1678720D03*
X747710Y1676720D03*
X736710Y1678720D03*
X725710Y1676720D03*
X714710Y1676720D03*
D11*
X663020Y1609090D03*
X673020Y1609090D03*
X673020Y1588770D03*
X663020Y1588770D03*
M02*
