G75*
%MOIN*%
%OFA0B0*%
%FSLAX25Y25*%
%IPPOS*%
%LPD*%
%AMOC8*
5,1,8,0,0,1.08239X$1,22.5*
%
%ADD10R,0.02165X0.04724*%
%ADD11R,0.02362X0.02362*%
%ADD12R,0.04331X0.03937*%
%ADD13R,0.03445X0.00984*%
%ADD14R,0.07087X0.05512*%
%ADD15R,0.05512X0.07480*%
%ADD16R,0.03150X0.05906*%
%ADD17R,0.01772X0.00984*%
%ADD18R,0.00984X0.01772*%
%ADD19R,0.02953X0.01575*%
%ADD20R,0.02700X0.01300*%
%ADD21R,0.01811X0.02559*%
%ADD22R,0.04724X0.02165*%
%ADD23R,0.03937X0.04331*%
%ADD24R,0.03268X0.02480*%
D10*
X0064760Y0066631D03*
X0068500Y0066631D03*
X0072240Y0066631D03*
X0072240Y0076869D03*
X0064760Y0076869D03*
X0186760Y0076869D03*
X0194240Y0076869D03*
X0194240Y0066631D03*
X0190500Y0066631D03*
X0186760Y0066631D03*
X0308760Y0066631D03*
X0312500Y0066631D03*
X0316240Y0066631D03*
X0316240Y0076869D03*
X0308760Y0076869D03*
X0308760Y0206631D03*
X0312500Y0206631D03*
X0316240Y0206631D03*
X0316240Y0216869D03*
X0308760Y0216869D03*
X0194240Y0216869D03*
X0186760Y0216869D03*
X0186760Y0206631D03*
X0190500Y0206631D03*
X0194240Y0206631D03*
X0072240Y0206631D03*
X0068500Y0206631D03*
X0064760Y0206631D03*
X0064760Y0216869D03*
X0072240Y0216869D03*
D11*
X0066531Y0061750D03*
X0070469Y0061750D03*
X0078500Y0069781D03*
X0078500Y0073719D03*
X0078500Y0089781D03*
X0078500Y0093719D03*
X0088500Y0093719D03*
X0088500Y0089781D03*
X0093500Y0089781D03*
X0093500Y0093719D03*
X0098500Y0078719D03*
X0098500Y0074781D03*
X0103500Y0074781D03*
X0103500Y0078719D03*
X0108500Y0078719D03*
X0108500Y0074781D03*
X0113500Y0074781D03*
X0113500Y0078719D03*
X0123500Y0079781D03*
X0123500Y0083719D03*
X0115500Y0089781D03*
X0115500Y0093719D03*
X0109500Y0093719D03*
X0109500Y0089781D03*
X0121531Y0101750D03*
X0125469Y0101750D03*
X0131531Y0101750D03*
X0135469Y0101750D03*
X0141531Y0101750D03*
X0145469Y0101750D03*
X0145469Y0086750D03*
X0141531Y0086750D03*
X0143500Y0082719D03*
X0143500Y0078781D03*
X0175000Y0073719D03*
X0175000Y0069781D03*
X0188531Y0061750D03*
X0192469Y0061750D03*
X0200500Y0069781D03*
X0200500Y0073719D03*
X0200500Y0089781D03*
X0200500Y0093719D03*
X0210500Y0093719D03*
X0210500Y0089781D03*
X0215500Y0089781D03*
X0215500Y0093719D03*
X0220500Y0078719D03*
X0220500Y0074781D03*
X0225500Y0074781D03*
X0225500Y0078719D03*
X0230500Y0078719D03*
X0230500Y0074781D03*
X0235500Y0074781D03*
X0235500Y0078719D03*
X0237500Y0089781D03*
X0237500Y0093719D03*
X0231500Y0093719D03*
X0231500Y0089781D03*
X0245500Y0083719D03*
X0245500Y0079781D03*
X0263531Y0086750D03*
X0267469Y0086750D03*
X0265500Y0082719D03*
X0265500Y0078781D03*
X0263531Y0101750D03*
X0267469Y0101750D03*
X0257469Y0101750D03*
X0253531Y0101750D03*
X0247469Y0101750D03*
X0243531Y0101750D03*
X0245500Y0114781D03*
X0245500Y0118719D03*
X0248531Y0130750D03*
X0252469Y0130750D03*
X0255500Y0134781D03*
X0255500Y0138719D03*
X0252469Y0144750D03*
X0248531Y0144750D03*
X0265500Y0143719D03*
X0265500Y0139781D03*
X0262469Y0129250D03*
X0258531Y0129250D03*
X0297000Y0073719D03*
X0297000Y0069781D03*
X0310531Y0061750D03*
X0314469Y0061750D03*
X0322500Y0069781D03*
X0322500Y0073719D03*
X0322500Y0089781D03*
X0322500Y0093719D03*
X0332500Y0093719D03*
X0332500Y0089781D03*
X0337500Y0089781D03*
X0337500Y0093719D03*
X0342500Y0078719D03*
X0342500Y0074781D03*
X0347500Y0074781D03*
X0347500Y0078719D03*
X0352500Y0078719D03*
X0352500Y0074781D03*
X0357500Y0074781D03*
X0357500Y0078719D03*
X0359500Y0089781D03*
X0359500Y0093719D03*
X0353500Y0093719D03*
X0353500Y0089781D03*
X0365531Y0101750D03*
X0369469Y0101750D03*
X0375531Y0101750D03*
X0379469Y0101750D03*
X0385531Y0101750D03*
X0389469Y0101750D03*
X0389469Y0086750D03*
X0385531Y0086750D03*
X0387500Y0082719D03*
X0387500Y0078781D03*
X0367500Y0079781D03*
X0367500Y0083719D03*
X0344500Y0068719D03*
X0344500Y0064781D03*
X0367500Y0114781D03*
X0367500Y0118719D03*
X0370531Y0130750D03*
X0374469Y0130750D03*
X0377500Y0134781D03*
X0377500Y0138719D03*
X0374469Y0144750D03*
X0370531Y0144750D03*
X0387500Y0143719D03*
X0387500Y0139781D03*
X0384469Y0129250D03*
X0380531Y0129250D03*
X0314469Y0201750D03*
X0310531Y0201750D03*
X0322500Y0209781D03*
X0322500Y0213719D03*
X0322500Y0229781D03*
X0322500Y0233719D03*
X0332500Y0233719D03*
X0332500Y0229781D03*
X0337500Y0229781D03*
X0337500Y0233719D03*
X0353500Y0233719D03*
X0353500Y0229781D03*
X0359500Y0229781D03*
X0359500Y0233719D03*
X0365531Y0241750D03*
X0369469Y0241750D03*
X0375531Y0241750D03*
X0379469Y0241750D03*
X0385531Y0241750D03*
X0389469Y0241750D03*
X0389469Y0226750D03*
X0385531Y0226750D03*
X0387500Y0222719D03*
X0387500Y0218781D03*
X0367500Y0219781D03*
X0367500Y0223719D03*
X0357500Y0218719D03*
X0357500Y0214781D03*
X0352500Y0214781D03*
X0352500Y0218719D03*
X0347500Y0218719D03*
X0347500Y0214781D03*
X0342500Y0214781D03*
X0342500Y0218719D03*
X0344500Y0208719D03*
X0344500Y0204781D03*
X0297000Y0209781D03*
X0297000Y0213719D03*
X0267469Y0226750D03*
X0263531Y0226750D03*
X0265500Y0222719D03*
X0265500Y0218781D03*
X0245500Y0219781D03*
X0245500Y0223719D03*
X0237500Y0229781D03*
X0237500Y0233719D03*
X0231500Y0233719D03*
X0231500Y0229781D03*
X0230500Y0218719D03*
X0230500Y0214781D03*
X0225500Y0214781D03*
X0225500Y0218719D03*
X0220500Y0218719D03*
X0220500Y0214781D03*
X0222500Y0208719D03*
X0222500Y0204781D03*
X0235500Y0214781D03*
X0235500Y0218719D03*
X0215500Y0229781D03*
X0215500Y0233719D03*
X0210500Y0233719D03*
X0210500Y0229781D03*
X0200500Y0229781D03*
X0200500Y0233719D03*
X0200500Y0213719D03*
X0200500Y0209781D03*
X0192469Y0201750D03*
X0188531Y0201750D03*
X0175000Y0209781D03*
X0175000Y0213719D03*
X0145469Y0226750D03*
X0141531Y0226750D03*
X0143500Y0222719D03*
X0143500Y0218781D03*
X0123500Y0219781D03*
X0123500Y0223719D03*
X0115500Y0229781D03*
X0115500Y0233719D03*
X0109500Y0233719D03*
X0109500Y0229781D03*
X0108500Y0218719D03*
X0108500Y0214781D03*
X0103500Y0214781D03*
X0103500Y0218719D03*
X0098500Y0218719D03*
X0098500Y0214781D03*
X0100500Y0208719D03*
X0100500Y0204781D03*
X0113500Y0214781D03*
X0113500Y0218719D03*
X0093500Y0229781D03*
X0093500Y0233719D03*
X0088500Y0233719D03*
X0088500Y0229781D03*
X0078500Y0229781D03*
X0078500Y0233719D03*
X0078500Y0213719D03*
X0078500Y0209781D03*
X0070469Y0201750D03*
X0066531Y0201750D03*
X0053000Y0209781D03*
X0053000Y0213719D03*
X0121531Y0241750D03*
X0125469Y0241750D03*
X0131531Y0241750D03*
X0135469Y0241750D03*
X0141531Y0241750D03*
X0145469Y0241750D03*
X0123500Y0254781D03*
X0123500Y0258719D03*
X0126531Y0270750D03*
X0130469Y0270750D03*
X0133500Y0274781D03*
X0133500Y0278719D03*
X0130469Y0284750D03*
X0126531Y0284750D03*
X0143500Y0283719D03*
X0143500Y0279781D03*
X0140469Y0269250D03*
X0136531Y0269250D03*
X0243531Y0241750D03*
X0247469Y0241750D03*
X0253531Y0241750D03*
X0257469Y0241750D03*
X0263531Y0241750D03*
X0267469Y0241750D03*
X0245500Y0254781D03*
X0245500Y0258719D03*
X0248531Y0270750D03*
X0252469Y0270750D03*
X0255500Y0274781D03*
X0255500Y0278719D03*
X0252469Y0284750D03*
X0248531Y0284750D03*
X0265500Y0283719D03*
X0265500Y0279781D03*
X0262469Y0269250D03*
X0258531Y0269250D03*
X0367500Y0258719D03*
X0367500Y0254781D03*
X0370531Y0270750D03*
X0374469Y0270750D03*
X0377500Y0274781D03*
X0377500Y0278719D03*
X0374469Y0284750D03*
X0370531Y0284750D03*
X0387500Y0283719D03*
X0387500Y0279781D03*
X0384469Y0269250D03*
X0380531Y0269250D03*
X0222500Y0068719D03*
X0222500Y0064781D03*
X0140469Y0129250D03*
X0136531Y0129250D03*
X0130469Y0130750D03*
X0126531Y0130750D03*
X0133500Y0134781D03*
X0133500Y0138719D03*
X0130469Y0144750D03*
X0126531Y0144750D03*
X0143500Y0143719D03*
X0143500Y0139781D03*
X0123500Y0118719D03*
X0123500Y0114781D03*
X0100500Y0068719D03*
X0100500Y0064781D03*
X0053000Y0069781D03*
X0053000Y0073719D03*
D12*
X0105654Y0066750D03*
X0112346Y0066750D03*
X0227654Y0066750D03*
X0234346Y0066750D03*
X0349654Y0066750D03*
X0356346Y0066750D03*
X0356346Y0206750D03*
X0349654Y0206750D03*
X0234346Y0206750D03*
X0227654Y0206750D03*
X0112346Y0206750D03*
X0105654Y0206750D03*
D13*
X0099593Y0200687D03*
X0099593Y0198719D03*
X0099593Y0196750D03*
X0099593Y0194781D03*
X0099593Y0192813D03*
X0117407Y0192813D03*
X0117407Y0194781D03*
X0117407Y0196750D03*
X0117407Y0198719D03*
X0117407Y0200687D03*
X0221593Y0200687D03*
X0221593Y0198719D03*
X0221593Y0196750D03*
X0221593Y0194781D03*
X0221593Y0192813D03*
X0239407Y0192813D03*
X0239407Y0194781D03*
X0239407Y0196750D03*
X0239407Y0198719D03*
X0239407Y0200687D03*
X0343593Y0200687D03*
X0343593Y0198719D03*
X0343593Y0196750D03*
X0343593Y0194781D03*
X0343593Y0192813D03*
X0361407Y0192813D03*
X0361407Y0194781D03*
X0361407Y0196750D03*
X0361407Y0198719D03*
X0361407Y0200687D03*
X0361407Y0060687D03*
X0361407Y0058719D03*
X0361407Y0056750D03*
X0361407Y0054781D03*
X0361407Y0052813D03*
X0343593Y0052813D03*
X0343593Y0054781D03*
X0343593Y0056750D03*
X0343593Y0058719D03*
X0343593Y0060687D03*
X0239407Y0060687D03*
X0239407Y0058719D03*
X0239407Y0056750D03*
X0239407Y0054781D03*
X0239407Y0052813D03*
X0221593Y0052813D03*
X0221593Y0054781D03*
X0221593Y0056750D03*
X0221593Y0058719D03*
X0221593Y0060687D03*
X0117407Y0060687D03*
X0117407Y0058719D03*
X0117407Y0056750D03*
X0117407Y0054781D03*
X0117407Y0052813D03*
X0099593Y0052813D03*
X0099593Y0054781D03*
X0099593Y0056750D03*
X0099593Y0058719D03*
X0099593Y0060687D03*
D14*
X0091512Y0098325D03*
X0069071Y0098325D03*
X0191071Y0098325D03*
X0213512Y0098325D03*
X0313071Y0098325D03*
X0335512Y0098325D03*
X0335512Y0238325D03*
X0313071Y0238325D03*
X0213512Y0238325D03*
X0191071Y0238325D03*
X0091512Y0238325D03*
X0069071Y0238325D03*
D15*
X0062772Y0290096D03*
X0114543Y0294033D03*
X0184772Y0290096D03*
X0236543Y0294033D03*
X0306772Y0290096D03*
X0358543Y0294033D03*
X0358543Y0154033D03*
X0306772Y0150096D03*
X0236543Y0154033D03*
X0184772Y0150096D03*
X0114543Y0154033D03*
X0062772Y0150096D03*
D16*
X0065882Y0138876D03*
X0070213Y0138876D03*
X0074543Y0139663D03*
X0078874Y0138876D03*
X0083205Y0139663D03*
X0087535Y0138876D03*
X0091866Y0137301D03*
X0096197Y0138876D03*
X0187882Y0138876D03*
X0192213Y0138876D03*
X0196543Y0139663D03*
X0200874Y0138876D03*
X0205205Y0139663D03*
X0209535Y0138876D03*
X0213866Y0137301D03*
X0218197Y0138876D03*
X0309882Y0138876D03*
X0314213Y0138876D03*
X0318543Y0139663D03*
X0322874Y0138876D03*
X0327205Y0139663D03*
X0331535Y0138876D03*
X0335866Y0137301D03*
X0340197Y0138876D03*
X0335866Y0277301D03*
X0331535Y0278876D03*
X0327205Y0279663D03*
X0322874Y0278876D03*
X0318543Y0279663D03*
X0314213Y0278876D03*
X0309882Y0278876D03*
X0340197Y0278876D03*
X0218197Y0278876D03*
X0213866Y0277301D03*
X0209535Y0278876D03*
X0205205Y0279663D03*
X0200874Y0278876D03*
X0196543Y0279663D03*
X0192213Y0278876D03*
X0187882Y0278876D03*
X0096197Y0278876D03*
X0091866Y0277301D03*
X0087535Y0278876D03*
X0083205Y0279663D03*
X0078874Y0278876D03*
X0074543Y0279663D03*
X0070213Y0278876D03*
X0065882Y0278876D03*
D17*
X0127594Y0260687D03*
X0127594Y0259112D03*
X0127594Y0257537D03*
X0127594Y0255963D03*
X0127594Y0254388D03*
X0127594Y0252813D03*
X0139406Y0252813D03*
X0139406Y0254388D03*
X0139406Y0255963D03*
X0139406Y0257537D03*
X0139406Y0259112D03*
X0139406Y0260687D03*
X0249594Y0260687D03*
X0249594Y0259112D03*
X0249594Y0257537D03*
X0249594Y0255963D03*
X0249594Y0254388D03*
X0249594Y0252813D03*
X0261406Y0252813D03*
X0261406Y0254388D03*
X0261406Y0255963D03*
X0261406Y0257537D03*
X0261406Y0259112D03*
X0261406Y0260687D03*
X0371594Y0260687D03*
X0371594Y0259112D03*
X0371594Y0257537D03*
X0371594Y0255963D03*
X0371594Y0254388D03*
X0371594Y0252813D03*
X0383406Y0252813D03*
X0383406Y0254388D03*
X0383406Y0255963D03*
X0383406Y0257537D03*
X0383406Y0259112D03*
X0383406Y0260687D03*
X0383406Y0120687D03*
X0383406Y0119112D03*
X0383406Y0117537D03*
X0383406Y0115963D03*
X0383406Y0114388D03*
X0383406Y0112813D03*
X0371594Y0112813D03*
X0371594Y0114388D03*
X0371594Y0115963D03*
X0371594Y0117537D03*
X0371594Y0119112D03*
X0371594Y0120687D03*
X0261406Y0120687D03*
X0261406Y0119112D03*
X0261406Y0117537D03*
X0261406Y0115963D03*
X0261406Y0114388D03*
X0261406Y0112813D03*
X0249594Y0112813D03*
X0249594Y0114388D03*
X0249594Y0115963D03*
X0249594Y0117537D03*
X0249594Y0119112D03*
X0249594Y0120687D03*
X0139406Y0120687D03*
X0139406Y0119112D03*
X0139406Y0117537D03*
X0139406Y0115963D03*
X0139406Y0114388D03*
X0139406Y0112813D03*
X0127594Y0112813D03*
X0127594Y0114388D03*
X0127594Y0115963D03*
X0127594Y0117537D03*
X0127594Y0119112D03*
X0127594Y0120687D03*
D18*
X0129563Y0122656D03*
X0131138Y0122656D03*
X0132713Y0122656D03*
X0134287Y0122656D03*
X0135862Y0122656D03*
X0137437Y0122656D03*
X0137437Y0110844D03*
X0135862Y0110844D03*
X0134287Y0110844D03*
X0132713Y0110844D03*
X0131138Y0110844D03*
X0129563Y0110844D03*
X0251563Y0110844D03*
X0253138Y0110844D03*
X0254713Y0110844D03*
X0256287Y0110844D03*
X0257862Y0110844D03*
X0259437Y0110844D03*
X0259437Y0122656D03*
X0257862Y0122656D03*
X0256287Y0122656D03*
X0254713Y0122656D03*
X0253138Y0122656D03*
X0251563Y0122656D03*
X0373563Y0122656D03*
X0375138Y0122656D03*
X0376713Y0122656D03*
X0378287Y0122656D03*
X0379862Y0122656D03*
X0381437Y0122656D03*
X0381437Y0110844D03*
X0379862Y0110844D03*
X0378287Y0110844D03*
X0376713Y0110844D03*
X0375138Y0110844D03*
X0373563Y0110844D03*
X0373563Y0250844D03*
X0375138Y0250844D03*
X0376713Y0250844D03*
X0378287Y0250844D03*
X0379862Y0250844D03*
X0381437Y0250844D03*
X0381437Y0262656D03*
X0379862Y0262656D03*
X0378287Y0262656D03*
X0376713Y0262656D03*
X0375138Y0262656D03*
X0373563Y0262656D03*
X0259437Y0262656D03*
X0257862Y0262656D03*
X0256287Y0262656D03*
X0254713Y0262656D03*
X0253138Y0262656D03*
X0251563Y0262656D03*
X0251563Y0250844D03*
X0253138Y0250844D03*
X0254713Y0250844D03*
X0256287Y0250844D03*
X0257862Y0250844D03*
X0259437Y0250844D03*
X0137437Y0250844D03*
X0135862Y0250844D03*
X0134287Y0250844D03*
X0132713Y0250844D03*
X0131138Y0250844D03*
X0129563Y0250844D03*
X0129563Y0262656D03*
X0131138Y0262656D03*
X0132713Y0262656D03*
X0134287Y0262656D03*
X0135862Y0262656D03*
X0137437Y0262656D03*
D19*
X0130252Y0224309D03*
X0130252Y0219191D03*
X0252252Y0219191D03*
X0252252Y0224309D03*
X0374252Y0224309D03*
X0374252Y0219191D03*
X0374252Y0084309D03*
X0374252Y0079191D03*
X0252252Y0079191D03*
X0252252Y0084309D03*
X0130252Y0084309D03*
X0130252Y0079191D03*
D20*
X0136750Y0079100D03*
X0136750Y0081750D03*
X0136750Y0084400D03*
X0258750Y0084400D03*
X0258750Y0081750D03*
X0258750Y0079100D03*
X0380750Y0079100D03*
X0380750Y0081750D03*
X0380750Y0084400D03*
X0380750Y0219100D03*
X0380750Y0221750D03*
X0380750Y0224400D03*
X0258750Y0224400D03*
X0258750Y0221750D03*
X0258750Y0219100D03*
X0136750Y0219100D03*
X0136750Y0221750D03*
X0136750Y0224400D03*
D21*
X0133500Y0231553D03*
X0131531Y0236081D03*
X0135469Y0236081D03*
X0141531Y0232419D03*
X0145469Y0232419D03*
X0143500Y0236947D03*
X0125469Y0236081D03*
X0121531Y0236081D03*
X0123500Y0231553D03*
X0128500Y0276553D03*
X0126531Y0281081D03*
X0130469Y0281081D03*
X0136531Y0277419D03*
X0140469Y0277419D03*
X0138500Y0281947D03*
X0243531Y0236081D03*
X0247469Y0236081D03*
X0245500Y0231553D03*
X0253531Y0236081D03*
X0257469Y0236081D03*
X0255500Y0231553D03*
X0263531Y0232419D03*
X0267469Y0232419D03*
X0265500Y0236947D03*
X0262469Y0277419D03*
X0258531Y0277419D03*
X0260500Y0281947D03*
X0252469Y0281081D03*
X0248531Y0281081D03*
X0250500Y0276553D03*
X0365531Y0236081D03*
X0369469Y0236081D03*
X0367500Y0231553D03*
X0375531Y0236081D03*
X0379469Y0236081D03*
X0377500Y0231553D03*
X0385531Y0232419D03*
X0389469Y0232419D03*
X0387500Y0236947D03*
X0384469Y0277419D03*
X0380531Y0277419D03*
X0382500Y0281947D03*
X0374469Y0281081D03*
X0370531Y0281081D03*
X0372500Y0276553D03*
X0382500Y0141947D03*
X0380531Y0137419D03*
X0384469Y0137419D03*
X0374469Y0141081D03*
X0370531Y0141081D03*
X0372500Y0136553D03*
X0369469Y0096081D03*
X0365531Y0096081D03*
X0367500Y0091553D03*
X0375531Y0096081D03*
X0379469Y0096081D03*
X0377500Y0091553D03*
X0385531Y0092419D03*
X0389469Y0092419D03*
X0387500Y0096947D03*
X0267469Y0092419D03*
X0263531Y0092419D03*
X0265500Y0096947D03*
X0257469Y0096081D03*
X0253531Y0096081D03*
X0255500Y0091553D03*
X0247469Y0096081D03*
X0243531Y0096081D03*
X0245500Y0091553D03*
X0250500Y0136553D03*
X0248531Y0141081D03*
X0252469Y0141081D03*
X0258531Y0137419D03*
X0262469Y0137419D03*
X0260500Y0141947D03*
X0145469Y0092419D03*
X0141531Y0092419D03*
X0143500Y0096947D03*
X0135469Y0096081D03*
X0131531Y0096081D03*
X0133500Y0091553D03*
X0125469Y0096081D03*
X0121531Y0096081D03*
X0123500Y0091553D03*
X0128500Y0136553D03*
X0126531Y0141081D03*
X0130469Y0141081D03*
X0136531Y0137419D03*
X0140469Y0137419D03*
X0138500Y0141947D03*
D22*
X0185381Y0090490D03*
X0185381Y0086750D03*
X0185381Y0083010D03*
X0195619Y0083010D03*
X0195619Y0090490D03*
X0307381Y0090490D03*
X0307381Y0086750D03*
X0307381Y0083010D03*
X0317619Y0083010D03*
X0317619Y0090490D03*
X0317619Y0223010D03*
X0317619Y0230490D03*
X0307381Y0230490D03*
X0307381Y0226750D03*
X0307381Y0223010D03*
X0195619Y0223010D03*
X0195619Y0230490D03*
X0185381Y0230490D03*
X0185381Y0226750D03*
X0185381Y0223010D03*
X0073619Y0223010D03*
X0073619Y0230490D03*
X0063381Y0230490D03*
X0063381Y0226750D03*
X0063381Y0223010D03*
X0063381Y0090490D03*
X0063381Y0086750D03*
X0063381Y0083010D03*
X0073619Y0083010D03*
X0073619Y0090490D03*
D23*
X0083500Y0090096D03*
X0083500Y0083404D03*
X0048500Y0075096D03*
X0048500Y0068404D03*
X0170500Y0068404D03*
X0170500Y0075096D03*
X0205500Y0083404D03*
X0205500Y0090096D03*
X0292500Y0075096D03*
X0292500Y0068404D03*
X0327500Y0083404D03*
X0327500Y0090096D03*
X0292500Y0208404D03*
X0292500Y0215096D03*
X0327500Y0223404D03*
X0327500Y0230096D03*
X0205500Y0230096D03*
X0205500Y0223404D03*
X0170500Y0215096D03*
X0170500Y0208404D03*
X0083500Y0223404D03*
X0083500Y0230096D03*
X0048500Y0215096D03*
X0048500Y0208404D03*
D24*
X0058500Y0207222D03*
X0058500Y0216278D03*
X0180500Y0216278D03*
X0180500Y0207222D03*
X0302500Y0207222D03*
X0302500Y0216278D03*
X0302500Y0076278D03*
X0302500Y0067222D03*
X0180500Y0067222D03*
X0180500Y0076278D03*
X0058500Y0076278D03*
X0058500Y0067222D03*
M02*
