M48
;GenerationSoftware,Autodesk,EAGLE,9.5.2*%
;CreationDate,2020-01-30T21:11:58Z*%
FMAT,2
ICI,OFF
METRIC,TZ,000.000
T5C0.305
T4C0.508
T3C0.650
T2C1.016
T1C3.302
%
G90
M71
T1
X33528Y73914
X89916Y99314
X2540Y2540
X27940Y2540
X27940Y27940
X2540Y27940
X64516Y99314
X64516Y109601
X33528Y2540
X58928Y2540
X58928Y27940
X33528Y27940
X89916Y109601
X95504Y73914
X64516Y2540
X89916Y2540
X89916Y27940
X64516Y27940
X120904Y73914
X120904Y99314
X95504Y2540
X120904Y2540
X120904Y27940
X95504Y27940
X95504Y99314
X89916Y135001
X2540Y38227
X27940Y38227
X27940Y63627
X2540Y63627
X64516Y135001
X2540Y109601
X33528Y38227
X58928Y38227
X58928Y63627
X33528Y63627
X27940Y109601
X27940Y135001
X64516Y38227
X89916Y38227
X89916Y63627
X64516Y63627
X2540Y135001
X120904Y135001
X95504Y38227
X120904Y38227
X120904Y63627
X95504Y63627
X95504Y135001
X33528Y109601
X2540Y73914
X27940Y73914
X27940Y99314
X2540Y99314
X58928Y109601
X58928Y135001
X33528Y135001
X58928Y73914
X58928Y99314
X33528Y99314
X95504Y109601
X120904Y109601
X64516Y73914
X89916Y73914
T2
X94234Y24130
X1270Y80264
X1270Y82804
X1270Y85344
X1270Y87884
X1270Y90424
X1270Y92964
X1270Y95504
X5080Y84074
X5080Y81534
X39878Y72644
X42418Y72644
X32258Y77724
X32258Y80264
X32258Y82804
X32258Y85344
X32258Y87884
X32258Y90424
X32258Y92964
X98044Y117221
X32258Y95504
X36068Y84074
X36068Y81534
X70866Y72644
X73406Y72644
X63246Y77724
X63246Y80264
X63246Y82804
X63246Y85344
X63246Y87884
X63246Y90424
X63246Y92964
X63246Y95504
X67056Y84074
X67056Y81534
X101854Y72644
X104394Y72644
X94234Y77724
X94234Y80264
X94234Y82804
X94234Y85344
X94234Y87884
X94234Y90424
X94234Y92964
X8890Y1270
X11430Y1270
X1270Y6350
X1270Y8890
X1270Y11430
X1270Y13970
X1270Y16510
X1270Y19050
X1270Y21590
X1270Y24130
X5080Y12700
X5080Y10160
X94234Y95504
X98044Y84074
X98044Y81534
X8890Y108331
X11430Y108331
X1270Y113411
X1270Y115951
X1270Y118491
X1270Y121031
X1270Y123571
X39878Y1270
X42418Y1270
X32258Y6350
X32258Y8890
X32258Y11430
X32258Y13970
X32258Y16510
X32258Y19050
X32258Y21590
X32258Y24130
X36068Y12700
X36068Y10160
X1270Y126111
X1270Y128651
X1270Y131191
X5080Y119761
X5080Y117221
X39878Y108331
X42418Y108331
X32258Y113411
X32258Y115951
X32258Y118491
X70866Y1270
X73406Y1270
X63246Y6350
X63246Y8890
X63246Y11430
X63246Y13970
X63246Y16510
X63246Y19050
X63246Y21590
X63246Y24130
X67056Y12700
X67056Y10160
X32258Y121031
X32258Y123571
X32258Y126111
X32258Y128651
X32258Y54737
X32258Y131191
X36068Y119761
X36068Y117221
X70866Y108331
X73406Y108331
X101854Y1270
X104394Y1270
X94234Y6350
X94234Y8890
X94234Y11430
X94234Y13970
X94234Y16510
X94234Y19050
X94234Y21590
X98044Y12700
X98044Y10160
X63246Y113411
X63246Y115951
X63246Y118491
X63246Y121031
X63246Y123571
X63246Y126111
X63246Y128651
X63246Y131191
X67056Y119761
X67056Y117221
X8890Y36957
X11430Y36957
X1270Y42037
X1270Y44577
X1270Y47117
X1270Y49657
X1270Y52197
X1270Y54737
X1270Y57277
X1270Y59817
X5080Y48387
X5080Y45847
X101854Y108331
X104394Y108331
X94234Y113411
X94234Y115951
X94234Y118491
X94234Y121031
X94234Y123571
X94234Y126111
X94234Y128651
X94234Y131191
X39878Y36957
X42418Y36957
X32258Y42037
X32258Y44577
X32258Y47117
X32258Y49657
X32258Y52197
X98044Y119761
X32258Y57277
X32258Y59817
X36068Y48387
X36068Y45847
X70866Y36957
X73406Y36957
X63246Y42037
X63246Y44577
X63246Y47117
X63246Y49657
X63246Y52197
X63246Y54737
X63246Y57277
X63246Y59817
X67056Y48387
X67056Y45847
X101854Y36957
X104394Y36957
X94234Y42037
X94234Y44577
X94234Y47117
X94234Y49657
X94234Y52197
X94234Y54737
X94234Y57277
X94234Y59817
X98044Y48387
X98044Y45847
X8890Y72644
X11430Y72644
X1270Y77724
T3
X17430Y4905
X23210Y4905
X48418Y4905
X54198Y4905
X79406Y4905
X85186Y4905
X110394Y4905
X116174Y4905
X17430Y40592
X23210Y40592
X48418Y40592
X54198Y40592
X79406Y40592
X85186Y40592
X110394Y40592
X116174Y40592
X17430Y76279
X23210Y76279
X48418Y76279
X54198Y76279
X79406Y76279
X85186Y76279
X110394Y76279
X116174Y76279
X17430Y111966
X23210Y111966
X48418Y111966
X54198Y111966
X79406Y111966
X85186Y111966
X110394Y111966
X116174Y111966
T4
X6985Y20955
X6985Y22225
X6985Y23495
X6985Y24765
X6985Y19685
X5715Y20955
X5715Y22225
X5715Y23495
X5715Y24765
X5715Y19685
X37973Y20955
X37973Y22225
X37973Y23495
X37973Y24765
X37973Y19685
X36703Y20955
X36703Y22225
X36703Y23495
X36703Y24765
X36703Y19685
X68961Y20955
X68961Y22225
X68961Y23495
X68961Y24765
X68961Y19685
X67691Y20955
X67691Y22225
X67691Y23495
X67691Y24765
X67691Y19685
X99949Y20955
X99949Y22225
X99949Y23495
X99949Y24765
X98679Y20955
X98679Y22225
X98679Y23495
X98679Y24765
X98679Y19685
X6985Y56642
X6985Y57912
X6985Y59182
X6985Y60452
X6985Y55372
X5715Y56642
X5715Y57912
X5715Y59182
X5715Y60452
X5715Y55372
X37973Y56642
X37973Y57912
X37973Y59182
X37973Y60452
X37973Y55372
X36703Y56642
X36703Y57912
X36703Y59182
X36703Y60452
X36703Y55372
X98679Y96139
X98679Y91059
X98679Y60452
X98679Y55372
X68961Y59182
X68961Y60452
X68961Y55372
X67691Y56642
X37973Y92329
X37973Y93599
X37973Y94869
X37973Y96139
X37973Y91059
X36703Y92329
X6985Y128016
X6985Y129286
X6985Y130556
X6985Y131826
X6985Y126746
X5715Y128016
X5715Y129286
X5715Y130556
X5715Y131826
X5715Y126746
X36703Y93599
X36703Y94869
X36703Y96139
X36703Y91059
X67691Y57912
X67691Y59182
X67691Y60452
X67691Y55372
X68961Y56642
X68961Y57912
X99949Y56642
X99949Y57912
X37973Y128016
X37973Y129286
X37973Y130556
X37973Y131826
X37973Y126746
X36703Y128016
X36703Y129286
X36703Y130556
X99949Y19685
X36703Y126746
X6985Y92329
X6985Y93599
X6985Y94869
X6985Y96139
X68961Y92329
X68961Y93599
X68961Y94869
X68961Y96139
X68961Y91059
X67691Y92329
X67691Y93599
X67691Y94869
X68961Y128016
X68961Y129286
X68961Y130556
X68961Y131826
X68961Y126746
X67691Y128016
X67691Y129286
X67691Y130556
X67691Y131826
X67691Y126746
X67691Y96139
X67691Y91059
X6985Y91059
X5715Y92329
X5715Y93599
X5715Y94869
X5715Y96139
X5715Y91059
X99949Y59182
X99949Y60452
X99949Y55372
X98679Y56642
X99949Y128016
X99949Y129286
X99949Y130556
X99949Y131826
X99949Y126746
X98679Y128016
X98679Y129286
X98679Y130556
X98679Y131826
X98679Y126746
X98679Y57912
X98679Y59182
X99949Y92329
X99949Y93599
X99949Y94869
X99949Y96139
X99949Y91059
X98679Y92329
X98679Y93599
X98679Y94869
X36703Y131826
T5
X18161Y65532
X24130Y58420
X20574Y58928
X25019Y44577
X22987Y43434
X22733Y45974
X23876Y45974
X29845Y42672
X13716Y56134
X15240Y45085
X27432Y46355
X18923Y45187
X19812Y47117
X10795Y49944
X4445Y53848
X24994Y63989
X27051Y60579
X6858Y50165
X10164Y47502
X8128Y42037
X13843Y61054
X8128Y59309
X23368Y44196
X19806Y44552
X23114Y59182
X20819Y59715
X18183Y61973
X17399Y63373
X17526Y49276
X17175Y60609
X16637Y61214
X18009Y45847
X15240Y56261
X8890Y63373
X16256Y62079
X8357Y48895
X7297Y53188
X21331Y56007
X14605Y49403
X10287Y46228
X6731Y40259
X21463Y49022
X20447Y48387
X17272Y47117
X20320Y38862
X21082Y39370
X14361Y60494
X22733Y53340
X14478Y62866
X20574Y45847
X8872Y56490
X7620Y50165
X26543Y40640
X15494Y60325
X12700Y60579
X12954Y44348
X10033Y50546
X9790Y60294
X8001Y54356
X15240Y62054
X28321Y55753
X26928Y50423
X28829Y51435
X24900Y57785
X25011Y64889
X28067Y48768
X24257Y65278
X28956Y61379
X24079Y56134
X20574Y58039
X18898Y55430
X22987Y51689
X22111Y55245
X9652Y55753
X12443Y56144
X13970Y57658
X6477Y54356
X40767Y54229
X43307Y57785
X47498Y50927
X48641Y53086
X48514Y57785
X43307Y65532
X40640Y65532
X38608Y65532
X44069Y50673
X38735Y45593
X41148Y42037
X42545Y39497
X43688Y40767
X35052Y40894
X52324Y37719
X48006Y44323
X56769Y43180
X57150Y52959
X37084Y61849
X47879Y43053
X50800Y49022
X59944Y52451
X34290Y48133
X49149Y63373
X53594Y60071
X57658Y59817
X51562Y52959
X51689Y54991
X49149Y65532
X55118Y58420
X51562Y58928
X56007Y44577
X53975Y43434
X53721Y45974
X54864Y45974
X60833Y42672
X44704Y56134
X46228Y45085
X58420Y46355
X49911Y45187
X50800Y47117
X41783Y49944
X35433Y53848
X55982Y63989
X58039Y60579
X37846Y50165
X41152Y47502
X39116Y42037
X44831Y61054
X39116Y59309
X54356Y44196
X50794Y44552
X54102Y59182
X51807Y59715
X49171Y61973
X48387Y63373
X48514Y49276
X48163Y60609
X47625Y61214
X48997Y45847
X46228Y56261
X39878Y63373
X47244Y62079
X39345Y48895
X38285Y53188
X52319Y56007
X45593Y49403
X41275Y46228
X37719Y40259
X52451Y49022
X51435Y48387
X48260Y47117
X51308Y38862
X52070Y39370
X45349Y60494
X53721Y53340
X45466Y62866
X51562Y45847
X39860Y56490
X38608Y50165
X57531Y40640
X46482Y60325
X43688Y60579
X43942Y44348
X41021Y50546
X40778Y60294
X38989Y54356
X46228Y62054
X59309Y55753
X57916Y50423
X59817Y51435
X55888Y57785
X55999Y64889
X59055Y48768
X55245Y65278
X59944Y61379
X55067Y56134
X51562Y58039
X49886Y55430
X53975Y51689
X53099Y55245
X40640Y55753
X43431Y56144
X44958Y57658
X37465Y54356
X71755Y54229
X74295Y57785
X78486Y50927
X79629Y53086
X79502Y57785
X74295Y65532
X71628Y65532
X69596Y65532
X75057Y50673
X69723Y45593
X72136Y42037
X73533Y39497
X74676Y40767
X66040Y40894
X83312Y37719
X78994Y44323
X87757Y43180
X88138Y52959
X68072Y61849
X78867Y43053
X81788Y49022
X90932Y52451
X65278Y48133
X80137Y63373
X84582Y60071
X88646Y59817
X82550Y52959
X82677Y54991
X80137Y65532
X86106Y58420
X82550Y58928
X86995Y44577
X84963Y43434
X84709Y45974
X85852Y45974
X91821Y42672
X75692Y56134
X77216Y45085
X89408Y46355
X80899Y45187
X81788Y47117
X72771Y49944
X66421Y53848
X86970Y63989
X89027Y60579
X68834Y50165
X72140Y47502
X70104Y42037
X75819Y61054
X70104Y59309
X85344Y44196
X81782Y44552
X85090Y59182
X82795Y59715
X80159Y61973
X79375Y63373
X79502Y49276
X79151Y60609
X78613Y61214
X79985Y45847
X77216Y56261
X70866Y63373
X78232Y62079
X70333Y48895
X69273Y53188
X83307Y56007
X76581Y49403
X72263Y46228
X68707Y40259
X83439Y49022
X82423Y48387
X79248Y47117
X82296Y38862
X83058Y39370
X76337Y60494
X84709Y53340
X76454Y62866
X82550Y45847
X70848Y56490
X69596Y50165
X88519Y40640
X77470Y60325
X74676Y60579
X74930Y44348
X72009Y50546
X71766Y60294
X69977Y54356
X77216Y62054
X90297Y55753
X88904Y50423
X90805Y51435
X86876Y57785
X86987Y64889
X90043Y48768
X86233Y65278
X90932Y61379
X86055Y56134
X82550Y58039
X80874Y55430
X84963Y51689
X84087Y55245
X71628Y55753
X74419Y56144
X75946Y57658
X68453Y54356
X102743Y54229
X105283Y57785
X109474Y50927
X110617Y53086
X110490Y57785
X105283Y65532
X102616Y65532
X100584Y65532
X106045Y50673
X100711Y45593
X103124Y42037
X104521Y39497
X105664Y40767
X97028Y40894
X114300Y37719
X109982Y44323
X118745Y43180
X119126Y52959
X99060Y61849
X109855Y43053
X112776Y49022
X121920Y52451
X96266Y48133
X111125Y63373
X115570Y60071
X119634Y59817
X113538Y52959
X113665Y54991
X111125Y65532
X117094Y58420
X113538Y58928
X117983Y44577
X115951Y43434
X115697Y45974
X116840Y45974
X122809Y42672
X106680Y56134
X108204Y45085
X120396Y46355
X111887Y45187
X112776Y47117
X103759Y49944
X97409Y53848
X117958Y63989
X120015Y60579
X99822Y50165
X103128Y47502
X101092Y42037
X106807Y61054
X101092Y59309
X116332Y44196
X112770Y44552
X116078Y59182
X113783Y59715
X111147Y61973
X110363Y63373
X110490Y49276
X110139Y60609
X109601Y61214
X110973Y45847
X108204Y56261
X101854Y63373
X109220Y62079
X101321Y48895
X100261Y53188
X114295Y56007
X107569Y49403
X103251Y46228
X99695Y40259
X114427Y49022
X113411Y48387
X110236Y47117
X113284Y38862
X114046Y39370
X107325Y60494
X115697Y53340
X107442Y62866
X113538Y45847
X101836Y56490
X100584Y50165
X119507Y40640
X108458Y60325
X105664Y60579
X105918Y44348
X102997Y50546
X102754Y60294
X100965Y54356
X108204Y62054
X121285Y55753
X119892Y50423
X121793Y51435
X117864Y57785
X117975Y64889
X121031Y48768
X117221Y65278
X121920Y61379
X117043Y56134
X113538Y58039
X111862Y55430
X115951Y51689
X115075Y55245
X102616Y55753
X105407Y56144
X106934Y57658
X99441Y54356
X9779Y89916
X12319Y93472
X16510Y86614
X17653Y88773
X17526Y93472
X12319Y101219
X9652Y101219
X7620Y101219
X13081Y86360
X7747Y81280
X10160Y77724
X11557Y75184
X12700Y76454
X4064Y76581
X21336Y73406
X17018Y80010
X25781Y78867
X26162Y88646
X6096Y97536
X16891Y78740
X19812Y84709
X28956Y88138
X3302Y83820
X18161Y99060
X22606Y95758
X26670Y95504
X20574Y88646
X20701Y90678
X18161Y101219
X24130Y94107
X20574Y94615
X25019Y80264
X22987Y79121
X22733Y81661
X23876Y81661
X29845Y78359
X13716Y91821
X15240Y80772
X27432Y82042
X18923Y80874
X19812Y82804
X10795Y85631
X4445Y89535
X24994Y99676
X27051Y96266
X6858Y85852
X10164Y83189
X8128Y77724
X13843Y96741
X8128Y94996
X23368Y79883
X19806Y80239
X23114Y94869
X20819Y95402
X18183Y97660
X17399Y99060
X17526Y84963
X17175Y96296
X16637Y96901
X18009Y81534
X15240Y91948
X8890Y99060
X16256Y97766
X8357Y84582
X7297Y88875
X21331Y91694
X14605Y85090
X10287Y81915
X6731Y75946
X21463Y84709
X20447Y84074
X17272Y82804
X20320Y74549
X21082Y75057
X14361Y96181
X22733Y89027
X14478Y98553
X20574Y81534
X8872Y92177
X7620Y85852
X26543Y76327
X15494Y96012
X12700Y96266
X12954Y80035
X10033Y86233
X9790Y95981
X8001Y90043
X15240Y97741
X28321Y91440
X26928Y86110
X28829Y87122
X24900Y93472
X25011Y100576
X28067Y84455
X24257Y100965
X28956Y97066
X24079Y91821
X20574Y93726
X18898Y91117
X22987Y87376
X22111Y90932
X9652Y91440
X12443Y91831
X13970Y93345
X6477Y90043
X40767Y89916
X43307Y93472
X47498Y86614
X48641Y88773
X48514Y93472
X43307Y101219
X40640Y101219
X38608Y101219
X44069Y86360
X38735Y81280
X41148Y77724
X42545Y75184
X43688Y76454
X35052Y76581
X52324Y73406
X48006Y80010
X56769Y78867
X57150Y88646
X37084Y97536
X47879Y78740
X50800Y84709
X59944Y88138
X34290Y83820
X49149Y99060
X53594Y95758
X57658Y95504
X51562Y88646
X51689Y90678
X49149Y101219
X55118Y94107
X51562Y94615
X56007Y80264
X53975Y79121
X53721Y81661
X54864Y81661
X60833Y78359
X44704Y91821
X46228Y80772
X58420Y82042
X49911Y80874
X50800Y82804
X41783Y85631
X35433Y89535
X55982Y99676
X58039Y96266
X37846Y85852
X41152Y83189
X39116Y77724
X44831Y96741
X39116Y94996
X54356Y79883
X50794Y80239
X54102Y94869
X51807Y95402
X49171Y97660
X48387Y99060
X48514Y84963
X48163Y96296
X47625Y96901
X48997Y81534
X46228Y91948
X39878Y99060
X47244Y97766
X39345Y84582
X38285Y88875
X52319Y91694
X45593Y85090
X41275Y81915
X37719Y75946
X52451Y84709
X51435Y84074
X48260Y82804
X51308Y74549
X52070Y75057
X45349Y96181
X53721Y89027
X45466Y98553
X51562Y81534
X39860Y92177
X38608Y85852
X57531Y76327
X46482Y96012
X43688Y96266
X43942Y80035
X41021Y86233
X40778Y95981
X38989Y90043
X46228Y97741
X59309Y91440
X57916Y86110
X59817Y87122
X55888Y93472
X55999Y100576
X59055Y84455
X55245Y100965
X59944Y97066
X55067Y91821
X51562Y93726
X49886Y91117
X53975Y87376
X53099Y90932
X40640Y91440
X43431Y91831
X44958Y93345
X37465Y90043
X71755Y89916
X74295Y93472
X78486Y86614
X79629Y88773
X79502Y93472
X74295Y101219
X71628Y101219
X69596Y101219
X75057Y86360
X69723Y81280
X72136Y77724
X73533Y75184
X74676Y76454
X66040Y76581
X79502Y13589
X78994Y80010
X87757Y78867
X88138Y88646
X68072Y97536
X78867Y78740
X81788Y84709
X90932Y88138
X65278Y83820
X80137Y99060
X84582Y95758
X88646Y95504
X82550Y88646
X82677Y90678
X80137Y101219
X86106Y94107
X82550Y94615
X86995Y80264
X84963Y79121
X84709Y81661
X85852Y81661
X91821Y78359
X75692Y91821
X77216Y80772
X89408Y82042
X80899Y80874
X81788Y82804
X72771Y85631
X66421Y89535
X86970Y99676
X89027Y96266
X68834Y85852
X72140Y83189
X70104Y77724
X75819Y96741
X70104Y94996
X85344Y79883
X81782Y80239
X85090Y94869
X82795Y95402
X80159Y97660
X79375Y99060
X79502Y84963
X79151Y96296
X78613Y96901
X79985Y81534
X77216Y91948
X70866Y99060
X78232Y97766
X70333Y84582
X69273Y88875
X83307Y91694
X76581Y85090
X72263Y81915
X68707Y75946
X83439Y84709
X82423Y84074
X79248Y82804
X82296Y74549
X83058Y75057
X76337Y96181
X84709Y89027
X76454Y98553
X82550Y81534
X70848Y92177
X69596Y85852
X88519Y76327
X77470Y96012
X74676Y96266
X74930Y80035
X72009Y86233
X71766Y95981
X69977Y90043
X77216Y97741
X90297Y91440
X88904Y86110
X90805Y87122
X86876Y93472
X86987Y100576
X90043Y84455
X86233Y100965
X90932Y97066
X86055Y91821
X82550Y93726
X80874Y91117
X84963Y87376
X84087Y90932
X71628Y91440
X74419Y91831
X75946Y93345
X68453Y90043
X102743Y89916
X105283Y93472
X109474Y86614
X110617Y88773
X110490Y93472
X105283Y101219
X102616Y101219
X100584Y101219
X106045Y86360
X100711Y81280
X103124Y77724
X104521Y75184
X105664Y76454
X97028Y76581
X114300Y73406
X109982Y80010
X118745Y78867
X119126Y88646
X99060Y97536
X109855Y78740
X112776Y84709
X121920Y88138
X96266Y83820
X111125Y99060
X115570Y95758
X119634Y95504
X113538Y88646
X113665Y90678
X111125Y101219
X117094Y94107
X113538Y94615
X117983Y80264
X115951Y79121
X115697Y81661
X116840Y81661
X122809Y78359
X106680Y91821
X108204Y80772
X120396Y82042
X111887Y80874
X112776Y82804
X103759Y85631
X97409Y89535
X117958Y99676
X120015Y96266
X99822Y85852
X103128Y83189
X101092Y77724
X106807Y96741
X101092Y94996
X116332Y79883
X112770Y80239
X116078Y94869
X113783Y95402
X111147Y97660
X110363Y99060
X110490Y84963
X110139Y96296
X109601Y96901
X110973Y81534
X108204Y91948
X101854Y99060
X109220Y97766
X101321Y84582
X100261Y88875
X114295Y91694
X107569Y85090
X103251Y81915
X99695Y75946
X114427Y84709
X113411Y84074
X110236Y82804
X113284Y74549
X114046Y75057
X107325Y96181
X115697Y89027
X107442Y98553
X113538Y81534
X101836Y92177
X100584Y85852
X119507Y76327
X108458Y96012
X105664Y96266
X105918Y80035
X102997Y86233
X102754Y95981
X100965Y90043
X108204Y97741
X121285Y91440
X119892Y86110
X121793Y87122
X117864Y93472
X117975Y100576
X121031Y84455
X117221Y100965
X121920Y97066
X117043Y91821
X113538Y93726
X111862Y91117
X115951Y87376
X115075Y90932
X102616Y91440
X105407Y91831
X106934Y93345
X99441Y90043
X9779Y125603
X12319Y129159
X16510Y122301
X17653Y124460
X17526Y129159
X12319Y136906
X9652Y136906
X7620Y136906
X13081Y122047
X7747Y116967
X10160Y113411
X11557Y110871
X12700Y112141
X4064Y112268
X21336Y109093
X17018Y115697
X25781Y114554
X26162Y124333
X6096Y133223
X16891Y114427
X19812Y120396
X28956Y123825
X3302Y119507
X18161Y134747
X22606Y131445
X26670Y131191
X20574Y124333
X20701Y126365
X18161Y136906
X24130Y129794
X20574Y130302
X25019Y115951
X22987Y114808
X22733Y117348
X23876Y117348
X29845Y114046
X13716Y127508
X15240Y116459
X27432Y117729
X18923Y116561
X19812Y118491
X10795Y121318
X4445Y125222
X24994Y135363
X27051Y131953
X6858Y121539
X10164Y118876
X8128Y113411
X13843Y132428
X8128Y130683
X23368Y115570
X19806Y115926
X23114Y130556
X20819Y131089
X18183Y133347
X17399Y134747
X17526Y120650
X17175Y131983
X16637Y132588
X18009Y117221
X15240Y127635
X8890Y134747
X16256Y133453
X8357Y120269
X7297Y124562
X21331Y127381
X14605Y120777
X10287Y117602
X6731Y111633
X21463Y120396
X20447Y119761
X17272Y118491
X20320Y110236
X21082Y110744
X14361Y131868
X22733Y124714
X14478Y134240
X20574Y117221
X8872Y127864
X7620Y121539
X26543Y112014
X15494Y131699
X12700Y131953
X12954Y115722
X10033Y121920
X9790Y131668
X8001Y125730
X15240Y133428
X28321Y127127
X26928Y121797
X28829Y122809
X24900Y129159
X25011Y136263
X28067Y120142
X24257Y136652
X28956Y132753
X24079Y127508
X20574Y129413
X18898Y126804
X22987Y123063
X22111Y126619
X9652Y127127
X12443Y127518
X13970Y129032
X6477Y125730
X40767Y125603
X43307Y129159
X47498Y122301
X48641Y124460
X48514Y129159
X43307Y136906
X40640Y136906
X38608Y136906
X44069Y122047
X38735Y116967
X41148Y113411
X42545Y110871
X43688Y112141
X35052Y112268
X52324Y109093
X48006Y115697
X56769Y114554
X57150Y124333
X37084Y133223
X47879Y114427
X50800Y120396
X59944Y123825
X34290Y119507
X49149Y134747
X53594Y131445
X57658Y131191
X51562Y124333
X51689Y126365
X49149Y136906
X55118Y129794
X51562Y130302
X56007Y115951
X53975Y114808
X53721Y117348
X54864Y117348
X60833Y114046
X44704Y127508
X46228Y116459
X58420Y117729
X49911Y116561
X50800Y118491
X41783Y121318
X35433Y125222
X55982Y135363
X58039Y131953
X37846Y121539
X41152Y118876
X39116Y113411
X44831Y132428
X39116Y130683
X54356Y115570
X50794Y115926
X54102Y130556
X51807Y131089
X49171Y133347
X48387Y134747
X48514Y120650
X48163Y131983
X47625Y132588
X48997Y117221
X46228Y127635
X39878Y134747
X47244Y133453
X39345Y120269
X38285Y124562
X52319Y127381
X45593Y120777
X41275Y117602
X37719Y111633
X52451Y120396
X51435Y119761
X48260Y118491
X51308Y110236
X52070Y110744
X45349Y131868
X53721Y124714
X45466Y134240
X51562Y117221
X39860Y127864
X38608Y121539
X57531Y112014
X46482Y131699
X43688Y131953
X43942Y115722
X41021Y121920
X40778Y131668
X38989Y125730
X46228Y133428
X59309Y127127
X57916Y121797
X59817Y122809
X55888Y129159
X55999Y136263
X59055Y120142
X55245Y136652
X59944Y132753
X55067Y127508
X51562Y129413
X49886Y126804
X53975Y123063
X53099Y126619
X40640Y127127
X43431Y127518
X44958Y129032
X37465Y125730
X71755Y125603
X74295Y129159
X78486Y122301
X79629Y124460
X79502Y129159
X74295Y136906
X71628Y136906
X69596Y136906
X75057Y122047
X69723Y116967
X72136Y113411
X73533Y110871
X74676Y112141
X66040Y112268
X83312Y109093
X78994Y115697
X87757Y114554
X88138Y124333
X68072Y133223
X78867Y114427
X81788Y120396
X90932Y123825
X65278Y119507
X80137Y134747
X84582Y131445
X88646Y131191
X82550Y124333
X82677Y126365
X80137Y136906
X86106Y129794
X82550Y130302
X86995Y115951
X84963Y114808
X84709Y117348
X85852Y117348
X91821Y114046
X75692Y127508
X77216Y116459
X89408Y117729
X80899Y116561
X81788Y118491
X72771Y121318
X66421Y125222
X86970Y135363
X89027Y131953
X68834Y121539
X72140Y118876
X70104Y113411
X75819Y132428
X70104Y130683
X85344Y115570
X81782Y115926
X85090Y130556
X82795Y131089
X80159Y133347
X79375Y134747
X79502Y120650
X79151Y131983
X78613Y132588
X79985Y117221
X77216Y127635
X70866Y134747
X78232Y133453
X70333Y120269
X69273Y124562
X83307Y127381
X76581Y120777
X72263Y117602
X68707Y111633
X83439Y120396
X82423Y119761
X79248Y118491
X82296Y110236
X83058Y110744
X76337Y131868
X84709Y124714
X76454Y134240
X82550Y117221
X70848Y127864
X69596Y121539
X88519Y112014
X77470Y131699
X74676Y131953
X74930Y115722
X72009Y121920
X71766Y131668
X69977Y125730
X77216Y133428
X90297Y127127
X88904Y121797
X90805Y122809
X86876Y129159
X86987Y136263
X90043Y120142
X86233Y136652
X90932Y132753
X86055Y127508
X82550Y129413
X80874Y126804
X84963Y123063
X84087Y126619
X71628Y127127
X74419Y127518
X75946Y129032
X68453Y125730
X102743Y125603
X105283Y129159
X109474Y122301
X110617Y124460
X110490Y129159
X105283Y136906
X102616Y136906
X100584Y136906
X106045Y122047
X100711Y116967
X103124Y113411
X104521Y110871
X105664Y112141
X97028Y112268
X114300Y109093
X109982Y115697
X118745Y114554
X119126Y124333
X99060Y133223
X109855Y114427
X9779Y18542
X121920Y123825
X96266Y119507
X111125Y134747
X115570Y131445
X119634Y131191
X113538Y124333
X113665Y126365
X111125Y136906
X117094Y129794
X113538Y130302
X117983Y115951
X115951Y114808
X115697Y117348
X116840Y117348
X122809Y114046
X106680Y127508
X108204Y116459
X120396Y117729
X111887Y116561
X112776Y118491
X103759Y121318
X97409Y125222
X117958Y135363
X120015Y131953
X99822Y121539
X103128Y118876
X101092Y113411
X106807Y132428
X101092Y130683
X116332Y115570
X112770Y115926
X116078Y130556
X113783Y131089
X111147Y133347
X110363Y134747
X110490Y120650
X110139Y131983
X109601Y132588
X110973Y117221
X108204Y127635
X101854Y134747
X109220Y133453
X101321Y120269
X100261Y124562
X114295Y127381
X107569Y120777
X103251Y117602
X99695Y111633
X114427Y120396
X113411Y119761
X110236Y118491
X113284Y110236
X114046Y110744
X107325Y131868
X115697Y124714
X107442Y134240
X113538Y117221
X101836Y127864
X100584Y121539
X119507Y112014
X108458Y131699
X105664Y131953
X105918Y115722
X102997Y121920
X102754Y131668
X100965Y125730
X108204Y133428
X121285Y127127
X119892Y121797
X121793Y122809
X117864Y129159
X117975Y136263
X121031Y120142
X117221Y136652
X121920Y132753
X117043Y127508
X113538Y129413
X111862Y126804
X115951Y123063
X115075Y126619
X102616Y127127
X105407Y127518
X106934Y129032
X99441Y125730
X12319Y22098
X16510Y15240
X17653Y17399
X17526Y22098
X12319Y29845
X9652Y29845
X7620Y29845
X13081Y14986
X7747Y9906
X10160Y6350
X11557Y3810
X12700Y5080
X4064Y5207
X21336Y2032
X17018Y8636
X25781Y7493
X26162Y17272
X6096Y26162
X16891Y7366
X19812Y13335
X28956Y16764
X3302Y12446
X18161Y27686
X22606Y24384
X26670Y24130
X20574Y17272
X20701Y19304
X18161Y29845
X24130Y22733
X20574Y23241
X25019Y8890
X22987Y7747
X22733Y10287
X23876Y10287
X29845Y6985
X13716Y20447
X15240Y9398
X27432Y10668
X18923Y9500
X19812Y11430
X10795Y14257
X4445Y18161
X24994Y28302
X27051Y24892
X6858Y14478
X10164Y11815
X8128Y6350
X13843Y25367
X8128Y23622
X23368Y8509
X19806Y8865
X23114Y23495
X20819Y24028
X18183Y26286
X17399Y27686
X17526Y13589
X17175Y24922
X16637Y25527
X18009Y10160
X15240Y20574
X8890Y27686
X16256Y26392
X8357Y13208
X7297Y17501
X21331Y20320
X14605Y13716
X10287Y10541
X6731Y4572
X21463Y13335
X20447Y12700
X17272Y11430
X20320Y3175
X21082Y3683
X14361Y24807
X22733Y17653
X14478Y27179
X20574Y10160
X8872Y20803
X7620Y14478
X26543Y4953
X15494Y24638
X12700Y24892
X12954Y8661
X10033Y14859
X9790Y24607
X8001Y18669
X15240Y26367
X28321Y20066
X26928Y14736
X28829Y15748
X24900Y22098
X25011Y29202
X28067Y13081
X24257Y29591
X28956Y25692
X24079Y20447
X20574Y22352
X18898Y19743
X22987Y16002
X22111Y19558
X9652Y20066
X12443Y20457
X13970Y21971
X6477Y18669
X40767Y18542
X43307Y22098
X47498Y15240
X48641Y17399
X48514Y22098
X43307Y29845
X40640Y29845
X38608Y29845
X44069Y14986
X38735Y9906
X41148Y6350
X42545Y3810
X43688Y5080
X35052Y5207
X52324Y2032
X48006Y8636
X56769Y7493
X57150Y17272
X37084Y26162
X47879Y7366
X50800Y13335
X59944Y16764
X34290Y12446
X49149Y27686
X53594Y24384
X57658Y24130
X51562Y17272
X51689Y19304
X49149Y29845
X55118Y22733
X51562Y23241
X56007Y8890
X53975Y7747
X53721Y10287
X54864Y10287
X60833Y6985
X44704Y20447
X46228Y9398
X58420Y10668
X49911Y9500
X50800Y11430
X41783Y14257
X35433Y18161
X55982Y28302
X58039Y24892
X37846Y14478
X41152Y11815
X39116Y6350
X44831Y25367
X39116Y23622
X54356Y8509
X50794Y8865
X54102Y23495
X51807Y24028
X49171Y26286
X48387Y27686
X48514Y13589
X48163Y24922
X47625Y25527
X48997Y10160
X46228Y20574
X39878Y27686
X47244Y26392
X39345Y13208
X38285Y17501
X52319Y20320
X45593Y13716
X41275Y10541
X37719Y4572
X52451Y13335
X51435Y12700
X48260Y11430
X51308Y3175
X52070Y3683
X45349Y24807
X53721Y17653
X45466Y27179
X83312Y73406
X51562Y10160
X39860Y20803
X38608Y14478
X57531Y4953
X46482Y24638
X43688Y24892
X43942Y8661
X41021Y14859
X40778Y24607
X38989Y18669
X46228Y26367
X59309Y20066
X57916Y14736
X59817Y15748
X55888Y22098
X55999Y29202
X59055Y13081
X55245Y29591
X59944Y25692
X55067Y20447
X51562Y22352
X49886Y19743
X53975Y16002
X53099Y19558
X40640Y20066
X43431Y20457
X44958Y21971
X37465Y18669
X71755Y18542
X74295Y22098
X78486Y15240
X79629Y17399
X79502Y22098
X74295Y29845
X71628Y29845
X69596Y29845
X75057Y14986
X69723Y9906
X72136Y6350
X73533Y3810
X74676Y5080
X66040Y5207
X83312Y2032
X78994Y8636
X87757Y7493
X88138Y17272
X68072Y26162
X78867Y7366
X81788Y13335
X90932Y16764
X65278Y12446
X80137Y27686
X84582Y24384
X88646Y24130
X82550Y17272
X82677Y19304
X80137Y29845
X86106Y22733
X82550Y23241
X86995Y8890
X84963Y7747
X84709Y10287
X85852Y10287
X91821Y6985
X75692Y20447
X77216Y9398
X89408Y10668
X80899Y9500
X81788Y11430
X72771Y14257
X66421Y18161
X86970Y28302
X89027Y24892
X68834Y14478
X72140Y11815
X70104Y6350
X75819Y25367
X70104Y23622
X85344Y8509
X81782Y8865
X85090Y23495
X82795Y24028
X80159Y26286
X79375Y27686
X79151Y24922
X78613Y25527
X79985Y10160
X77216Y20574
X70866Y27686
X78232Y26392
X70333Y13208
X69273Y17501
X83307Y20320
X76581Y13716
X72263Y10541
X68707Y4572
X83439Y13335
X82423Y12700
X79248Y11430
X82296Y3175
X83058Y3683
X76337Y24807
X84709Y17653
X76454Y27179
X82550Y10160
X70848Y20803
X69596Y14478
X88519Y4953
X77470Y24638
X74676Y24892
X74930Y8661
X72009Y14859
X71766Y24607
X69977Y18669
X77216Y26367
X90297Y20066
X88904Y14736
X90805Y15748
X86876Y22098
X86987Y29202
X90043Y13081
X86233Y29591
X90932Y25692
X86055Y20447
X82550Y22352
X80874Y19743
X84963Y16002
X84087Y19558
X71628Y20066
X74419Y20457
X75946Y21971
X68453Y18669
X102743Y18542
X105283Y22098
X109474Y15240
X110617Y17399
X110490Y22098
X105283Y29845
X102616Y29845
X100584Y29845
X106045Y14986
X100711Y9906
X103124Y6350
X104521Y3810
X105664Y5080
X97028Y5207
X114300Y2032
X109982Y8636
X118745Y7493
X119126Y17272
X99060Y26162
X109855Y7366
X112776Y13335
X121920Y16764
X96266Y12446
X111125Y27686
X115570Y24384
X119634Y24130
X113538Y17272
X113665Y19304
X111125Y29845
X117094Y22733
X113538Y23241
X117983Y8890
X115951Y7747
X115697Y10287
X116840Y10287
X122809Y6985
X106680Y20447
X108204Y9398
X120396Y10668
X111887Y9500
X112776Y11430
X103759Y14257
X97409Y18161
X117958Y28302
X120015Y24892
X99822Y14478
X103128Y11815
X101092Y6350
X106807Y25367
X101092Y23622
X116332Y8509
X112770Y8865
X116078Y23495
X113783Y24028
X111147Y26286
X110363Y27686
X110490Y13589
X110139Y24922
X109601Y25527
X110973Y10160
X108204Y20574
X101854Y27686
X109220Y26392
X101321Y13208
X100261Y17501
X114295Y20320
X107569Y13716
X103251Y10541
X99695Y4572
X114427Y13335
X113411Y12700
X110236Y11430
X113284Y3175
X114046Y3683
X107325Y24807
X115697Y17653
X107442Y27179
X113538Y10160
X101836Y20803
X100584Y14478
X119507Y4953
X108458Y24638
X105664Y24892
X105918Y8661
X102997Y14859
X102754Y24607
X100965Y18669
X108204Y26367
X121285Y20066
X119892Y14736
X121793Y15748
X117864Y22098
X117975Y29202
X121031Y13081
X117221Y29591
X121920Y25692
X117043Y20447
X113538Y22352
X111862Y19743
X115951Y16002
X115075Y19558
X102616Y20066
X105407Y20457
X106934Y21971
X99441Y18669
X9779Y54229
X12319Y57785
X16510Y50927
X17653Y53086
X17526Y57785
X12319Y65532
X9652Y65532
X7620Y65532
X13081Y50673
X7747Y45593
X10160Y42037
X11557Y39497
X12700Y40767
X4064Y40894
X21336Y37719
X17018Y44323
X25781Y43180
X26162Y52959
X6096Y61849
X16891Y43053
X19812Y49022
X28956Y52451
X3302Y48133
X18161Y63373
X22606Y60071
X26670Y59817
X20574Y52959
X20701Y54991
X112776Y120396
M30