M48
;GenerationSoftware,Autodesk,EAGLE,9.6.0*%
;CreationDate,2020-06-22T11:31:44Z*%
FMAT,2
ICI,OFF
METRIC,TZ,000.000
T5C0.305
T4C0.508
T3C0.650
T2C1.016
T1C3.302
%
G90
M71
T1
X58928Y100076
X89916Y100076
X2540Y2540
X27940Y2540
X27940Y27940
X2540Y27940
X64516Y100076
X64516Y110744
X33528Y2540
X58928Y2540
X58928Y27940
X33528Y27940
X89916Y110744
X95504Y74676
X64516Y2540
X89916Y2540
X89916Y27940
X64516Y27940
X120904Y74676
X120904Y100076
X95504Y2540
X120904Y2540
X120904Y27940
X95504Y27940
X95504Y100076
X89916Y136144
X2540Y38608
X27940Y38608
X27940Y64008
X2540Y64008
X64516Y136144
X2540Y110744
X33528Y38608
X58928Y38608
X58928Y64008
X33528Y64008
X27940Y110744
X27940Y136144
X64516Y38608
X89916Y38608
X89916Y64008
X64516Y64008
X2540Y136144
X120904Y136144
X95504Y38608
X120904Y38608
X120904Y64008
X95504Y64008
X95504Y136144
X33528Y110744
X2540Y74676
X27940Y74676
X27940Y100076
X2540Y100076
X58928Y110744
X58928Y136144
X33528Y74676
X58928Y74676
X33528Y136144
X33528Y100076
X95504Y110744
X120904Y110744
X64516Y74676
X89916Y74676
T2
X94234Y6350
X5080Y82296
X6350Y101346
X39878Y73406
X42418Y73406
X32258Y78486
X32258Y81026
X32258Y83566
X32258Y86106
X32258Y88646
X32258Y91186
X32258Y93726
X32258Y96266
X36068Y84836
X36068Y82296
X37338Y101346
X70866Y73406
X73406Y73406
X63246Y78486
X99314Y137414
X63246Y81026
X63246Y83566
X63246Y86106
X63246Y88646
X63246Y91186
X63246Y93726
X63246Y96266
X67056Y84836
X67056Y82296
X68326Y101346
X101854Y73406
X104394Y73406
X94234Y78486
X94234Y81026
X94234Y83566
X94234Y86106
X94234Y88646
X94234Y91186
X94234Y93726
X94234Y96266
X98044Y84836
X98044Y82296
X99314Y101346
X8890Y109474
X8890Y1270
X11430Y1270
X1270Y6350
X1270Y8890
X1270Y11430
X1270Y13970
X1270Y16510
X1270Y19050
X1270Y21590
X1270Y24130
X5080Y12700
X5080Y10160
X6350Y29210
X11430Y109474
X1270Y114554
X1270Y117094
X1270Y119634
X1270Y122174
X1270Y124714
X1270Y127254
X1270Y129794
X1270Y132334
X5080Y120904
X39878Y1270
X42418Y1270
X32258Y6350
X32258Y8890
X32258Y11430
X32258Y13970
X32258Y16510
X32258Y19050
X32258Y21590
X32258Y24130
X36068Y12700
X36068Y10160
X37338Y29210
X5080Y118364
X6350Y137414
X39878Y109474
X42418Y109474
X32258Y114554
X32258Y117094
X32258Y119634
X32258Y122174
X32258Y124714
X32258Y127254
X70866Y1270
X73406Y1270
X63246Y6350
X63246Y8890
X63246Y11430
X63246Y13970
X63246Y16510
X63246Y19050
X63246Y21590
X63246Y24130
X67056Y12700
X67056Y10160
X68326Y29210
X32258Y129794
X32258Y132334
X36068Y120904
X36068Y118364
X37338Y137414
X70866Y109474
X73406Y109474
X36068Y48768
X63246Y114554
X63246Y117094
X101854Y1270
X104394Y1270
X94234Y8890
X94234Y11430
X94234Y13970
X94234Y16510
X94234Y19050
X94234Y21590
X94234Y24130
X98044Y12700
X98044Y10160
X99314Y29210
X63246Y119634
X63246Y122174
X63246Y124714
X63246Y127254
X63246Y129794
X63246Y132334
X67056Y120904
X67056Y118364
X68326Y137414
X101854Y109474
X8890Y37338
X11430Y37338
X1270Y42418
X1270Y44958
X1270Y47498
X1270Y50038
X1270Y52578
X1270Y55118
X1270Y57658
X1270Y60198
X5080Y48768
X5080Y46228
X6350Y65278
X104394Y109474
X94234Y114554
X94234Y117094
X94234Y119634
X94234Y122174
X94234Y124714
X94234Y127254
X94234Y129794
X94234Y132334
X98044Y120904
X39878Y37338
X42418Y37338
X32258Y42418
X32258Y44958
X32258Y47498
X32258Y50038
X32258Y52578
X32258Y55118
X32258Y57658
X32258Y60198
X98044Y118364
X36068Y46228
X37338Y65278
X70866Y37338
X73406Y37338
X63246Y42418
X63246Y44958
X63246Y47498
X63246Y50038
X63246Y52578
X63246Y55118
X63246Y57658
X63246Y60198
X67056Y48768
X67056Y46228
X68326Y65278
X101854Y37338
X104394Y37338
X94234Y42418
X94234Y44958
X94234Y47498
X94234Y50038
X94234Y52578
X94234Y55118
X94234Y57658
X94234Y60198
X98044Y48768
X98044Y46228
X99314Y65278
X8890Y73406
X11430Y73406
X1270Y78486
X1270Y81026
X1270Y83566
X1270Y86106
X1270Y88646
X1270Y91186
X1270Y93726
X1270Y96266
X5080Y84836
T3
X17430Y4905
X23210Y4905
X48418Y4905
X54198Y4905
X79406Y4905
X85186Y4905
X110394Y4905
X116174Y4905
X17430Y40973
X23210Y40973
X48418Y40973
X54198Y40973
X79406Y40973
X85186Y40973
X110394Y40973
X116174Y40973
X17430Y77041
X23210Y77041
X48418Y77041
X54198Y77041
X79406Y77041
X85186Y77041
X110394Y77041
X116174Y77041
X17430Y113109
X23210Y113109
X48418Y113109
X54198Y113109
X79406Y113109
X85186Y113109
X110394Y113109
X116174Y113109
T4
X6985Y20955
X6985Y22225
X6985Y23495
X6985Y24765
X6985Y19685
X5715Y20955
X5715Y22225
X5715Y23495
X5715Y24765
X5715Y19685
X37973Y20955
X37973Y22225
X37973Y23495
X37973Y24765
X37973Y19685
X36703Y20955
X36703Y22225
X36703Y23495
X36703Y24765
X36703Y19685
X68961Y20955
X68961Y22225
X68961Y23495
X68961Y24765
X68961Y19685
X67691Y20955
X67691Y22225
X67691Y23495
X67691Y24765
X67691Y19685
X99949Y20955
X99949Y22225
X99949Y23495
X99949Y24765
X99949Y19685
X98679Y20955
X98679Y22225
X98679Y24765
X98679Y19685
X6985Y57023
X6985Y58293
X6985Y59563
X6985Y60833
X6985Y55753
X5715Y57023
X5715Y58293
X5715Y59563
X5715Y60833
X5715Y55753
X37973Y57023
X37973Y58293
X37973Y59563
X37973Y60833
X37973Y55753
X36703Y57023
X36703Y58293
X36703Y59563
X36703Y60833
X36703Y55753
X67691Y60833
X37973Y93091
X37973Y94361
X37973Y95631
X37973Y96901
X37973Y91821
X36703Y93091
X36703Y94361
X36703Y95631
X36703Y96901
X6985Y129159
X6985Y130429
X6985Y131699
X6985Y132969
X6985Y127889
X5715Y129159
X5715Y130429
X5715Y131699
X5715Y132969
X5715Y127889
X36703Y91821
X67691Y55753
X68961Y57023
X68961Y58293
X68961Y59563
X99949Y57023
X99949Y58293
X99949Y59563
X6985Y93091
X6985Y94361
X6985Y95631
X6985Y96901
X6985Y91821
X37973Y129159
X37973Y130429
X37973Y131699
X37973Y132969
X37973Y127889
X36703Y129159
X36703Y130429
X36703Y131699
X36703Y132969
X98679Y23495
X5715Y93091
X68961Y93091
X68961Y94361
X68961Y95631
X68961Y96901
X68961Y91821
X67691Y93091
X67691Y94361
X67691Y95631
X67691Y96901
X67691Y91821
X5715Y94361
X5715Y95631
X68961Y129159
X68961Y130429
X68961Y131699
X68961Y132969
X68961Y127889
X67691Y129159
X67691Y130429
X67691Y131699
X67691Y132969
X67691Y127889
X5715Y96901
X5715Y91821
X99949Y60833
X99949Y55753
X98679Y57023
X98679Y58293
X98679Y59563
X98679Y60833
X98679Y55753
X68961Y60833
X68961Y55753
X99949Y93091
X99949Y94361
X99949Y129159
X99949Y130429
X99949Y131699
X99949Y132969
X99949Y127889
X98679Y129159
X98679Y130429
X98679Y131699
X98679Y132969
X98679Y127889
X99949Y95631
X99949Y96901
X99949Y91821
X98679Y93091
X98679Y94361
X98679Y95631
X98679Y96901
X98679Y91821
X67691Y57023
X67691Y58293
X67691Y59563
X36703Y127889
T5
X13335Y49911
X7747Y46228
X10160Y42418
X11557Y39878
X12700Y41148
X3302Y43053
X21336Y38100
X17018Y44831
X25781Y43561
X26543Y53340
X16510Y43053
X28956Y52832
X18034Y63754
X22606Y60452
X26124Y60198
X21971Y51689
X20701Y55372
X17018Y65024
X23495Y58928
X20574Y59309
X24130Y46228
X22860Y43815
X22606Y46101
X29845Y43053
X8509Y60833
X23876Y52070
X3048Y53721
X5334Y36957
X27813Y46482
X23978Y63354
X5588Y51689
X12192Y44450
X19558Y37846
X20574Y46228
X15621Y45847
X23520Y54985
X13970Y45339
X23864Y50795
X7747Y45212
X23356Y51430
X10164Y47883
X8128Y42418
X7493Y42418
X13843Y61435
X8128Y59690
X21336Y45593
X19806Y44933
X18183Y62354
X17526Y49657
X17175Y60990
X16637Y61595
X18009Y46228
X14732Y56769
X9652Y63754
X16256Y62460
X7297Y53569
X21331Y56388
X14605Y49784
X10287Y46609
X6731Y40640
X17018Y43688
X22733Y43053
X5842Y40640
X4953Y40640
X21463Y49403
X20447Y48768
X17272Y47498
X20320Y39243
X21082Y39751
X14361Y60875
X23373Y54007
X15748Y63247
X22479Y45212
X9761Y56109
X26162Y41529
X8136Y40496
X15494Y60706
X12700Y60960
X13081Y44348
X10033Y50927
X8001Y54737
X9966Y57972
X15113Y58039
X28321Y56134
X26928Y50804
X28829Y51816
X24138Y58166
X24249Y65270
X28067Y49149
X23368Y65659
X29591Y61125
X24235Y55499
X19177Y54229
X23600Y56134
X17526Y57150
X12443Y56652
X13970Y58039
X6477Y54483
X8890Y56769
X13716Y53975
X8636Y58632
X16860Y57754
X16764Y56769
X8973Y50927
X13267Y56652
X15273Y54102
X40767Y54610
X43307Y58166
X47498Y51308
X48641Y53467
X48514Y58166
X44831Y65151
X39878Y65151
X37338Y62230
X44323Y49911
X38735Y46228
X41148Y42418
X42545Y39878
X43688Y41148
X34290Y43053
X52324Y38100
X48006Y44831
X56769Y43561
X57531Y53340
X47498Y43053
X59944Y52832
X49022Y63754
X53594Y60452
X57112Y60198
X52959Y51689
X51689Y55372
X48006Y65024
X54483Y58928
X51562Y59309
X55118Y46228
X53848Y43815
X53594Y46101
X60833Y43053
X39497Y60833
X54864Y52070
X34036Y53721
X36322Y36957
X58801Y46482
X54966Y63354
X36576Y51689
X43180Y44450
X50546Y37846
X51562Y46228
X46609Y45847
X54508Y54985
X44958Y45339
X54852Y50795
X38735Y45212
X54344Y51430
X41152Y47883
X39116Y42418
X38481Y42418
X44831Y61435
X39116Y59690
X52324Y45593
X50794Y44933
X49171Y62354
X48514Y49657
X48163Y60990
X47625Y61595
X48997Y46228
X45720Y56769
X40640Y63754
X47244Y62460
X38285Y53569
X52319Y56388
X45593Y49784
X41275Y46609
X37719Y40640
X48006Y43688
X53721Y43053
X36830Y40640
X35941Y40640
X52451Y49403
X51435Y48768
X48260Y47498
X51308Y39243
X52070Y39751
X45349Y60875
X54361Y54007
X46736Y63247
X53467Y45212
X40749Y56109
X57150Y41529
X39124Y40496
X46482Y60706
X43688Y60960
X44069Y44348
X41021Y50927
X38989Y54737
X40954Y57972
X46101Y58039
X59309Y56134
X57916Y50804
X59817Y51816
X55126Y58166
X55237Y65270
X59055Y49149
X54356Y65659
X60579Y61125
X55223Y55499
X50165Y54229
X54588Y56134
X48514Y57150
X43431Y56652
X44958Y58039
X37465Y54483
X39878Y56769
X44704Y53975
X39624Y58632
X47848Y57754
X47752Y56769
X39961Y50927
X44255Y56652
X46261Y54102
X71755Y54610
X74295Y58166
X78486Y51308
X79629Y53467
X79502Y58166
X75819Y65151
X70866Y65151
X68326Y62230
X75311Y49911
X69723Y46228
X72136Y42418
X73533Y39878
X74676Y41148
X65278Y43053
X83312Y38100
X78994Y44831
X87757Y43561
X88519Y53340
X78486Y43053
X90932Y52832
X80010Y63754
X84582Y60452
X88100Y60198
X83947Y51689
X82677Y55372
X78994Y65024
X85471Y58928
X82550Y59309
X86106Y46228
X84836Y43815
X84582Y46101
X91821Y43053
X70485Y60833
X85852Y52070
X65024Y53721
X67310Y36957
X89789Y46482
X85954Y63354
X67564Y51689
X74168Y44450
X81534Y37846
X82550Y46228
X77597Y45847
X85496Y54985
X75946Y45339
X85840Y50795
X69723Y45212
X85332Y51430
X72140Y47883
X70104Y42418
X69469Y42418
X75819Y61435
X70104Y59690
X83312Y45593
X81782Y44933
X80159Y62354
X79502Y49657
X79151Y60990
X78613Y61595
X79985Y46228
X76708Y56769
X71628Y63754
X78232Y62460
X69273Y53569
X83307Y56388
X76581Y49784
X72263Y46609
X68707Y40640
X78994Y43688
X84709Y43053
X67818Y40640
X66929Y40640
X83439Y49403
X82423Y48768
X79248Y47498
X82296Y39243
X83058Y39751
X76337Y60875
X85349Y54007
X77724Y63247
X84455Y45212
X71737Y56109
X88138Y41529
X70112Y40496
X77470Y60706
X74676Y60960
X75057Y44348
X72009Y50927
X69977Y54737
X71942Y57972
X77089Y58039
X90297Y56134
X88904Y50804
X90805Y51816
X86114Y58166
X86225Y65270
X90043Y49149
X85344Y65659
X91567Y61125
X86211Y55499
X81153Y54229
X85576Y56134
X79502Y57150
X74419Y56652
X75946Y58039
X68453Y54483
X70866Y56769
X75692Y53975
X70612Y58632
X78836Y57754
X78740Y56769
X70949Y50927
X75243Y56652
X77249Y54102
X102743Y54610
X105283Y58166
X109474Y51308
X110617Y53467
X110490Y58166
X106807Y65151
X101854Y65151
X99314Y62230
X106299Y49911
X100711Y46228
X103124Y42418
X104521Y39878
X105664Y41148
X96266Y43053
X114300Y38100
X109982Y44831
X118745Y43561
X119507Y53340
X109474Y43053
X121920Y52832
X110998Y63754
X115570Y60452
X119088Y60198
X114935Y51689
X113665Y55372
X109982Y65024
X116459Y58928
X113538Y59309
X117094Y46228
X115824Y43815
X115570Y46101
X122809Y43053
X101473Y60833
X116840Y52070
X96012Y53721
X98298Y36957
X120777Y46482
X116942Y63354
X98552Y51689
X105156Y44450
X112522Y37846
X113538Y46228
X108585Y45847
X116484Y54985
X106934Y45339
X116828Y50795
X100711Y45212
X116320Y51430
X103128Y47883
X101092Y42418
X100457Y42418
X106807Y61435
X101092Y59690
X114300Y45593
X112770Y44933
X111147Y62354
X110490Y49657
X110139Y60990
X109601Y61595
X110973Y46228
X107696Y56769
X102616Y63754
X109220Y62460
X100261Y53569
X114295Y56388
X107569Y49784
X103251Y46609
X99695Y40640
X109982Y43688
X115697Y43053
X98806Y40640
X97917Y40640
X114427Y49403
X113411Y48768
X110236Y47498
X113284Y39243
X114046Y39751
X107325Y60875
X116337Y54007
X108712Y63247
X115443Y45212
X102725Y56109
X119126Y41529
X101100Y40496
X108458Y60706
X105664Y60960
X106045Y44348
X102997Y50927
X100965Y54737
X102930Y57972
X108077Y58039
X121285Y56134
X119892Y50804
X121793Y51816
X117102Y58166
X117213Y65270
X121031Y49149
X116332Y65659
X122555Y61125
X117199Y55499
X112141Y54229
X116564Y56134
X110490Y57150
X105407Y56652
X106934Y58039
X99441Y54483
X101854Y56769
X106680Y53975
X101600Y58632
X109824Y57754
X109728Y56769
X101937Y50927
X106231Y56652
X108237Y54102
X9779Y90678
X12319Y94234
X16510Y87376
X17653Y89535
X17526Y94234
X13843Y101219
X8890Y101219
X6350Y98298
X13335Y85979
X7747Y82296
X10160Y78486
X11557Y75946
X12700Y77216
X3302Y79121
X21336Y74168
X17018Y80899
X25781Y79629
X26543Y89408
X16510Y79121
X28956Y88900
X18034Y99822
X22606Y96520
X26124Y96266
X21971Y87757
X20701Y91440
X17018Y101092
X23495Y94996
X20574Y95377
X24130Y82296
X22860Y79883
X22606Y82169
X29845Y79121
X8509Y96901
X23876Y88138
X3048Y89789
X5334Y73025
X27813Y82550
X23978Y99422
X5588Y87757
X12192Y80518
X19558Y73914
X20574Y82296
X15621Y81915
X23520Y91053
X13970Y81407
X23864Y86863
X7747Y81280
X23356Y87498
X10164Y83951
X8128Y78486
X7493Y78486
X13843Y97503
X8128Y95758
X21336Y81661
X19806Y81001
X18183Y98422
X17526Y85725
X17175Y97058
X16637Y97663
X18009Y82296
X14732Y92837
X9652Y99822
X16256Y98528
X7297Y89637
X21331Y92456
X14605Y85852
X10287Y82677
X6731Y76708
X17018Y79756
X22733Y79121
X5842Y76708
X4953Y76708
X21463Y85471
X20447Y84836
X17272Y83566
X20320Y75311
X21082Y75819
X14361Y96943
X23373Y90075
X15748Y99315
X22479Y81280
X9761Y92177
X26162Y77597
X8136Y76564
X15494Y96774
X12700Y97028
X13081Y80416
X10033Y86995
X8001Y90805
X9966Y94040
X15113Y94107
X28321Y92202
X26928Y86872
X28829Y87884
X24138Y94234
X24249Y101338
X28067Y85217
X23368Y101727
X29591Y97193
X24235Y91567
X19177Y90297
X23600Y92202
X17526Y93218
X12443Y92720
X13970Y94107
X6477Y90551
X8890Y92837
X13716Y90043
X8636Y94700
X16860Y93822
X16764Y92837
X8973Y86995
X13267Y92720
X15273Y90170
X40767Y90678
X43307Y94234
X47498Y87376
X48641Y89535
X48514Y94234
X44831Y101219
X39878Y101219
X37338Y98298
X44323Y85979
X38735Y82296
X41148Y78486
X42545Y75946
X43688Y77216
X34290Y79121
X52324Y74168
X48006Y80899
X56769Y79629
X57531Y89408
X47498Y79121
X59944Y88900
X49022Y99822
X53594Y96520
X57112Y96266
X52959Y87757
X51689Y91440
X48006Y101092
X54483Y94996
X51562Y95377
X55118Y82296
X53848Y79883
X53594Y82169
X60833Y79121
X39497Y96901
X54864Y88138
X34036Y89789
X36322Y73025
X58801Y82550
X54966Y99422
X36576Y87757
X43180Y80518
X50546Y73914
X51562Y82296
X46609Y81915
X54508Y91053
X44958Y81407
X54852Y86863
X38735Y81280
X54344Y87498
X41152Y83951
X39116Y78486
X38481Y78486
X44831Y97503
X39116Y95758
X52324Y81661
X50794Y81001
X49171Y98422
X48514Y85725
X48163Y97058
X47625Y97663
X48997Y82296
X45720Y92837
X40640Y99822
X47244Y98528
X38285Y89637
X52319Y92456
X45593Y85852
X41275Y82677
X37719Y76708
X48006Y79756
X53721Y79121
X36830Y76708
X35941Y76708
X52451Y85471
X51435Y84836
X48260Y83566
X51308Y75311
X52070Y75819
X45349Y96943
X54361Y90075
X46736Y99315
X53467Y81280
X40749Y92177
X57150Y77597
X39124Y76564
X46482Y96774
X43688Y97028
X44069Y80416
X41021Y86995
X38989Y90805
X40954Y94040
X46101Y94107
X59309Y92202
X57916Y86872
X59817Y87884
X55126Y94234
X55237Y101338
X59055Y85217
X54356Y101727
X60579Y97193
X55223Y91567
X50165Y90297
X54588Y92202
X48514Y93218
X43431Y92720
X44958Y94107
X37465Y90551
X39878Y92837
X44704Y90043
X39624Y94700
X47848Y93822
X47752Y92837
X39961Y86995
X44255Y92720
X46261Y90170
X71755Y90678
X74295Y94234
X78486Y87376
X79629Y89535
X78613Y25527
X75819Y101219
X70866Y101219
X68326Y98298
X75311Y85979
X69723Y82296
X72136Y78486
X73533Y75946
X74676Y77216
X65278Y79121
X83312Y74168
X78994Y80899
X87757Y79629
X88519Y89408
X78486Y79121
X90932Y88900
X80010Y99822
X84582Y96520
X88100Y96266
X83947Y87757
X82677Y91440
X78994Y101092
X85471Y94996
X82550Y95377
X86106Y82296
X84836Y79883
X84582Y82169
X91821Y79121
X70485Y96901
X85852Y88138
X65024Y89789
X67310Y73025
X89789Y82550
X85954Y99422
X67564Y87757
X74168Y80518
X81534Y73914
X82550Y82296
X77597Y81915
X85496Y91053
X75946Y81407
X85840Y86863
X69723Y81280
X85332Y87498
X72140Y83951
X70104Y78486
X69469Y78486
X75819Y97503
X70104Y95758
X83312Y81661
X81782Y81001
X80159Y98422
X79502Y85725
X79151Y97058
X78613Y97663
X79985Y82296
X76708Y92837
X71628Y99822
X78232Y98528
X69273Y89637
X83307Y92456
X76581Y85852
X72263Y82677
X68707Y76708
X78994Y79756
X84709Y79121
X67818Y76708
X66929Y76708
X83439Y85471
X82423Y84836
X79248Y83566
X82296Y75311
X83058Y75819
X76337Y96943
X85349Y90075
X77724Y99315
X84455Y81280
X71737Y92177
X88138Y77597
X70112Y76564
X77470Y96774
X74676Y97028
X75057Y80416
X72009Y86995
X69977Y90805
X71942Y94040
X77089Y94107
X90297Y92202
X88904Y86872
X90805Y87884
X86114Y94234
X86225Y101338
X90043Y85217
X85344Y101727
X91567Y97193
X86211Y91567
X81153Y90297
X85576Y92202
X79502Y93218
X74419Y92720
X75946Y94107
X68453Y90551
X70866Y92837
X75692Y90043
X70612Y94700
X78836Y93822
X78740Y92837
X70949Y86995
X75243Y92720
X77249Y90170
X102743Y90678
X105283Y94234
X109474Y87376
X110617Y89535
X110490Y94234
X106807Y101219
X101854Y101219
X99314Y98298
X106299Y85979
X100711Y82296
X103124Y78486
X104521Y75946
X105664Y77216
X96266Y79121
X114300Y74168
X109982Y80899
X118745Y79629
X119507Y89408
X109474Y79121
X121920Y88900
X110998Y99822
X115570Y96520
X119088Y96266
X114935Y87757
X113665Y91440
X109982Y101092
X116459Y94996
X113538Y95377
X117094Y82296
X115824Y79883
X115570Y82169
X122809Y79121
X101473Y96901
X116840Y88138
X96012Y89789
X98298Y73025
X120777Y82550
X116942Y99422
X98552Y87757
X105156Y80518
X112522Y73914
X113538Y82296
X108585Y81915
X116484Y91053
X106934Y81407
X116828Y86863
X100711Y81280
X116320Y87498
X103128Y83951
X101092Y78486
X100457Y78486
X106807Y97503
X101092Y95758
X114300Y81661
X112770Y81001
X111147Y98422
X110490Y85725
X110139Y97058
X109601Y97663
X110973Y82296
X107696Y92837
X102616Y99822
X109220Y98528
X100261Y89637
X114295Y92456
X107569Y85852
X103251Y82677
X99695Y76708
X109982Y79756
X115697Y79121
X98806Y76708
X97917Y76708
X114427Y85471
X113411Y84836
X110236Y83566
X113284Y75311
X114046Y75819
X107325Y96943
X116337Y90075
X108712Y99315
X115443Y81280
X102725Y92177
X119126Y77597
X101100Y76564
X108458Y96774
X105664Y97028
X106045Y80416
X102997Y86995
X100965Y90805
X102930Y94040
X108077Y94107
X121285Y92202
X119892Y86872
X121793Y87884
X117102Y94234
X117213Y101338
X121031Y85217
X116332Y101727
X122555Y97193
X117199Y91567
X112141Y90297
X116564Y92202
X110490Y93218
X105407Y92720
X106934Y94107
X99441Y90551
X101854Y92837
X106680Y90043
X101600Y94700
X109824Y93822
X109728Y92837
X101937Y86995
X106231Y92720
X108237Y90170
X9779Y126746
X12319Y130302
X16510Y123444
X17653Y125603
X17526Y130302
X13843Y137287
X8890Y137287
X6350Y134366
X13335Y122047
X7747Y118364
X10160Y114554
X11557Y112014
X12700Y113284
X3302Y115189
X21336Y110236
X17018Y116967
X25781Y115697
X26543Y125476
X16510Y115189
X28956Y124968
X18034Y135890
X22606Y132588
X26124Y132334
X21971Y123825
X20701Y127508
X17018Y137160
X23495Y131064
X20574Y131445
X24130Y118364
X22860Y115951
X22606Y118237
X29845Y115189
X8509Y132969
X23876Y124206
X3048Y125857
X5334Y109093
X27813Y118618
X23978Y135490
X5588Y123825
X12192Y116586
X19558Y109982
X20574Y118364
X15621Y117983
X23520Y127121
X13970Y117475
X23864Y122931
X7747Y117348
X23356Y123566
X10164Y120019
X8128Y114554
X7493Y114554
X13843Y133571
X8128Y131826
X21336Y117729
X19806Y117069
X18183Y134490
X17526Y121793
X17175Y133126
X16637Y133731
X18009Y118364
X14732Y128905
X9652Y135890
X16256Y134596
X7297Y125705
X21331Y128524
X14605Y121920
X10287Y118745
X6731Y112776
X17018Y115824
X22733Y115189
X5842Y112776
X4953Y112776
X21463Y121539
X20447Y120904
X17272Y119634
X20320Y111379
X21082Y111887
X14361Y133011
X23373Y126143
X15748Y135383
X22479Y117348
X9761Y128245
X26162Y113665
X8136Y112632
X15494Y132842
X12700Y133096
X13081Y116484
X10033Y123063
X8001Y126873
X9966Y130108
X15113Y130175
X28321Y128270
X26928Y122940
X28829Y123952
X24138Y130302
X24249Y137406
X28067Y121285
X23368Y137795
X29591Y133261
X24235Y127635
X19177Y126365
X23600Y128270
X17526Y129286
X12443Y128788
X13970Y130175
X6477Y126619
X8890Y128905
X13716Y126111
X8636Y130768
X16860Y129890
X16764Y128905
X8973Y123063
X13267Y128788
X15273Y126238
X40767Y126746
X43307Y130302
X47498Y123444
X48641Y125603
X48514Y130302
X44831Y137287
X39878Y137287
X37338Y134366
X44323Y122047
X38735Y118364
X41148Y114554
X42545Y112014
X43688Y113284
X34290Y115189
X52324Y110236
X48006Y116967
X56769Y115697
X57531Y125476
X47498Y115189
X59944Y124968
X49022Y135890
X53594Y132588
X57112Y132334
X52959Y123825
X51689Y127508
X48006Y137160
X54483Y131064
X51562Y131445
X55118Y118364
X53848Y115951
X53594Y118237
X60833Y115189
X39497Y132969
X54864Y124206
X34036Y125857
X36322Y109093
X58801Y118618
X54966Y135490
X36576Y123825
X43180Y116586
X50546Y109982
X51562Y118364
X46609Y117983
X54508Y127121
X44958Y117475
X54852Y122931
X38735Y117348
X54344Y123566
X41152Y120019
X39116Y114554
X38481Y114554
X44831Y133571
X39116Y131826
X52324Y117729
X50794Y117069
X49171Y134490
X48514Y121793
X48163Y133126
X47625Y133731
X48997Y118364
X45720Y128905
X40640Y135890
X47244Y134596
X38285Y125705
X52319Y128524
X45593Y121920
X41275Y118745
X37719Y112776
X48006Y115824
X53721Y115189
X36830Y112776
X35941Y112776
X52451Y121539
X51435Y120904
X48260Y119634
X51308Y111379
X52070Y111887
X45349Y133011
X54361Y126143
X46736Y135383
X53467Y117348
X40749Y128245
X57150Y113665
X39124Y112632
X46482Y132842
X43688Y133096
X44069Y116484
X41021Y123063
X38989Y126873
X40954Y130108
X46101Y130175
X59309Y128270
X57916Y122940
X59817Y123952
X55126Y130302
X55237Y137406
X59055Y121285
X54356Y137795
X60579Y133261
X55223Y127635
X50165Y126365
X54588Y128270
X48514Y129286
X43431Y128788
X44958Y130175
X37465Y126619
X39878Y128905
X44704Y126111
X39624Y130768
X47848Y129890
X47752Y128905
X39961Y123063
X44255Y128788
X46261Y126238
X71755Y126746
X74295Y130302
X78486Y123444
X79629Y125603
X79502Y130302
X75819Y137287
X70866Y137287
X68326Y134366
X75311Y122047
X69723Y118364
X72136Y114554
X73533Y112014
X74676Y113284
X65278Y115189
X83312Y110236
X78994Y116967
X87757Y115697
X88519Y125476
X78486Y115189
X90932Y124968
X80010Y135890
X84582Y132588
X88100Y132334
X83947Y123825
X82677Y127508
X78994Y137160
X85471Y131064
X82550Y131445
X86106Y118364
X84836Y115951
X84582Y118237
X91821Y115189
X70485Y132969
X85852Y124206
X65024Y125857
X67310Y109093
X89789Y118618
X85954Y135490
X67564Y123825
X74168Y116586
X81534Y109982
X82550Y118364
X77597Y117983
X85496Y127121
X75946Y117475
X85840Y122931
X69723Y117348
X85332Y123566
X72140Y120019
X70104Y114554
X69469Y114554
X75819Y133571
X70104Y131826
X83312Y117729
X81782Y117069
X80159Y134490
X79502Y121793
X79151Y133126
X78613Y133731
X79985Y118364
X76708Y128905
X71628Y135890
X78232Y134596
X69273Y125705
X83307Y128524
X76581Y121920
X72263Y118745
X68707Y112776
X78994Y115824
X84709Y115189
X67818Y112776
X66929Y112776
X83439Y121539
X82423Y120904
X79248Y119634
X82296Y111379
X83058Y111887
X76337Y133011
X85349Y126143
X77724Y135383
X84455Y117348
X71737Y128245
X88138Y113665
X70112Y112632
X77470Y132842
X74676Y133096
X75057Y116484
X72009Y123063
X69977Y126873
X71942Y130108
X77089Y130175
X90297Y128270
X88904Y122940
X90805Y123952
X86114Y130302
X86225Y137406
X90043Y121285
X85344Y137795
X91567Y133261
X86211Y127635
X81153Y126365
X85576Y128270
X79502Y129286
X74419Y128788
X75946Y130175
X68453Y126619
X70866Y128905
X75692Y126111
X70612Y130768
X78836Y129890
X78740Y128905
X70949Y123063
X75243Y128788
X77249Y126238
X102743Y126746
X105283Y130302
X109474Y123444
X110617Y125603
X110490Y130302
X9779Y18542
X101854Y137287
X99314Y134366
X106299Y122047
X100711Y118364
X103124Y114554
X104521Y112014
X105664Y113284
X96266Y115189
X114300Y110236
X109982Y116967
X118745Y115697
X119507Y125476
X109474Y115189
X121920Y124968
X110998Y135890
X115570Y132588
X119088Y132334
X114935Y123825
X113665Y127508
X109982Y137160
X116459Y131064
X113538Y131445
X117094Y118364
X115824Y115951
X115570Y118237
X122809Y115189
X101473Y132969
X116840Y124206
X96012Y125857
X98298Y109093
X120777Y118618
X116942Y135490
X98552Y123825
X105156Y116586
X112522Y109982
X113538Y118364
X108585Y117983
X116484Y127121
X106934Y117475
X116828Y122931
X100711Y117348
X116320Y123566
X103128Y120019
X101092Y114554
X100457Y114554
X106807Y133571
X101092Y131826
X114300Y117729
X112770Y117069
X111147Y134490
X110490Y121793
X110139Y133126
X109601Y133731
X110973Y118364
X107696Y128905
X102616Y135890
X109220Y134596
X100261Y125705
X114295Y128524
X107569Y121920
X103251Y118745
X99695Y112776
X109982Y115824
X115697Y115189
X98806Y112776
X97917Y112776
X114427Y121539
X113411Y120904
X110236Y119634
X113284Y111379
X114046Y111887
X107325Y133011
X116337Y126143
X108712Y135383
X115443Y117348
X102725Y128245
X119126Y113665
X101100Y112632
X108458Y132842
X105664Y133096
X106045Y116484
X102997Y123063
X100965Y126873
X102930Y130108
X108077Y130175
X121285Y128270
X119892Y122940
X121793Y123952
X117102Y130302
X117213Y137406
X121031Y121285
X116332Y137795
X122555Y133261
X117199Y127635
X112141Y126365
X116564Y128270
X110490Y129286
X105407Y128788
X106934Y130175
X99441Y126619
X101854Y128905
X106680Y126111
X101600Y130768
X109824Y129890
X109728Y128905
X101937Y123063
X106231Y128788
X108237Y126238
X12319Y22098
X16510Y15240
X17653Y17399
X17526Y22098
X13843Y29083
X8890Y29083
X6350Y26162
X13335Y13843
X7747Y10160
X10160Y6350
X11557Y3810
X12700Y5080
X3302Y6985
X21336Y2032
X17018Y8763
X25781Y7493
X26543Y17272
X16510Y6985
X28956Y16764
X18034Y27686
X22606Y24384
X26124Y24130
X21971Y15621
X20701Y19304
X17018Y28956
X23495Y22860
X20574Y23241
X24130Y10160
X22860Y7747
X22606Y10033
X29845Y6985
X8509Y24765
X23876Y16002
X3048Y17653
X5334Y889
X27813Y10414
X23978Y27286
X5588Y15621
X12192Y8382
X19558Y1778
X20574Y10160
X15621Y9779
X23520Y18917
X13970Y9271
X23864Y14727
X7747Y9144
X23356Y15362
X10164Y11815
X8128Y6350
X7493Y6350
X13843Y25367
X8128Y23622
X21336Y9525
X19806Y8865
X18183Y26286
X17526Y13589
X17175Y24922
X16637Y25527
X18009Y10160
X14732Y20701
X9652Y27686
X16256Y26392
X7297Y17501
X21331Y20320
X14605Y13716
X10287Y10541
X6731Y4572
X17018Y7620
X22733Y6985
X5842Y4572
X4953Y4572
X21463Y13335
X20447Y12700
X17272Y11430
X20320Y3175
X21082Y3683
X14361Y24807
X23373Y17939
X15748Y27179
X22479Y9144
X9761Y20041
X26162Y5461
X8136Y4428
X15494Y24638
X12700Y24892
X13081Y8280
X10033Y14859
X8001Y18669
X9966Y21904
X15113Y21971
X28321Y20066
X26928Y14736
X28829Y15748
X24138Y22098
X24249Y29202
X28067Y13081
X23368Y29591
X29591Y25057
X24235Y19431
X19177Y18161
X23600Y20066
X17526Y21082
X12443Y20584
X13970Y21971
X6477Y18415
X8890Y20701
X13716Y17907
X8636Y22564
X16860Y21686
X16764Y20701
X8973Y14859
X13267Y20584
X15273Y18034
X40767Y18542
X43307Y22098
X47498Y15240
X48641Y17399
X48514Y22098
X44831Y29083
X39878Y29083
X37338Y26162
X44323Y13843
X38735Y10160
X41148Y6350
X42545Y3810
X43688Y5080
X34290Y6985
X52324Y2032
X48006Y8763
X56769Y7493
X57531Y17272
X47498Y6985
X59944Y16764
X49022Y27686
X53594Y24384
X57112Y24130
X52959Y15621
X51689Y19304
X48006Y28956
X54483Y22860
X51562Y23241
X55118Y10160
X53848Y7747
X53594Y10033
X60833Y6985
X39497Y24765
X54864Y16002
X34036Y17653
X36322Y889
X58801Y10414
X54966Y27286
X36576Y15621
X43180Y8382
X50546Y1778
X51562Y10160
X46609Y9779
X54508Y18917
X44958Y9271
X54852Y14727
X38735Y9144
X54344Y15362
X41152Y11815
X39116Y6350
X38481Y6350
X44831Y25367
X39116Y23622
X52324Y9525
X50794Y8865
X49171Y26286
X48514Y13589
X48163Y24922
X47625Y25527
X48997Y10160
X45720Y20701
X40640Y27686
X47244Y26392
X38285Y17501
X79502Y94234
X52319Y20320
X45593Y13716
X41275Y10541
X37719Y4572
X48006Y7620
X53721Y6985
X36830Y4572
X35941Y4572
X52451Y13335
X51435Y12700
X48260Y11430
X51308Y3175
X52070Y3683
X45349Y24807
X54361Y17939
X46736Y27179
X53467Y9144
X40749Y20041
X57150Y5461
X39124Y4428
X46482Y24638
X43688Y24892
X44069Y8280
X41021Y14859
X38989Y18669
X40954Y21904
X46101Y21971
X59309Y20066
X57916Y14736
X59817Y15748
X55126Y22098
X55237Y29202
X59055Y13081
X54356Y29591
X60579Y25057
X55223Y19431
X50165Y18161
X54588Y20066
X48514Y21082
X43431Y20584
X44958Y21971
X37465Y18415
X39878Y20701
X44704Y17907
X39624Y22564
X47848Y21686
X47752Y20701
X39961Y14859
X44255Y20584
X46261Y18034
X71755Y18542
X74295Y22098
X78486Y15240
X79629Y17399
X79502Y22098
X75819Y29083
X70866Y29083
X68326Y26162
X75311Y13843
X69723Y10160
X72136Y6350
X73533Y3810
X74676Y5080
X65278Y6985
X83312Y2032
X78994Y8763
X87757Y7493
X88519Y17272
X78486Y6985
X90932Y16764
X80010Y27686
X84582Y24384
X88100Y24130
X83947Y15621
X82677Y19304
X78994Y28956
X85471Y22860
X82550Y23241
X86106Y10160
X84836Y7747
X84582Y10033
X91821Y6985
X70485Y24765
X85852Y16002
X65024Y17653
X67310Y889
X89789Y10414
X85954Y27286
X67564Y15621
X74168Y8382
X81534Y1778
X82550Y10160
X77597Y9779
X85496Y18917
X75946Y9271
X85840Y14727
X69723Y9144
X85332Y15362
X72140Y11815
X70104Y6350
X69469Y6350
X75819Y25367
X70104Y23622
X83312Y9525
X81782Y8865
X80159Y26286
X79502Y13589
X79151Y24922
X79985Y10160
X76708Y20701
X71628Y27686
X78232Y26392
X69273Y17501
X83307Y20320
X76581Y13716
X72263Y10541
X68707Y4572
X78994Y7620
X84709Y6985
X67818Y4572
X66929Y4572
X83439Y13335
X82423Y12700
X79248Y11430
X82296Y3175
X83058Y3683
X76337Y24807
X85349Y17939
X77724Y27179
X84455Y9144
X71737Y20041
X88138Y5461
X70112Y4428
X77470Y24638
X74676Y24892
X75057Y8280
X72009Y14859
X69977Y18669
X71942Y21904
X77089Y21971
X90297Y20066
X88904Y14736
X90805Y15748
X86114Y22098
X86225Y29202
X90043Y13081
X85344Y29591
X91567Y25057
X86211Y19431
X81153Y18161
X85576Y20066
X79502Y21082
X74419Y20584
X75946Y21971
X68453Y18415
X70866Y20701
X75692Y17907
X70612Y22564
X78836Y21686
X78740Y20701
X70949Y14859
X75243Y20584
X77249Y18034
X102743Y18542
X105283Y22098
X109474Y15240
X110617Y17399
X110490Y22098
X106807Y29083
X101854Y29083
X99314Y26162
X106299Y13843
X100711Y10160
X103124Y6350
X104521Y3810
X105664Y5080
X96266Y6985
X114300Y2032
X109982Y8763
X118745Y7493
X119507Y17272
X109474Y6985
X121920Y16764
X110998Y27686
X115570Y24384
X119088Y24130
X114935Y15621
X113665Y19304
X109982Y28956
X116459Y22860
X113538Y23241
X117094Y10160
X115824Y7747
X115570Y10033
X122809Y6985
X101473Y24765
X116840Y16002
X96012Y17653
X98298Y889
X120777Y10414
X116942Y27286
X98552Y15621
X105156Y8382
X112522Y1778
X113538Y10160
X108585Y9779
X116484Y18917
X106934Y9271
X116828Y14727
X100711Y9144
X116320Y15362
X103128Y11815
X101092Y6350
X100457Y6350
X106807Y25367
X101092Y23622
X114300Y9525
X112770Y8865
X111147Y26286
X110490Y13589
X110139Y24922
X109601Y25527
X110973Y10160
X107696Y20701
X102616Y27686
X109220Y26392
X100261Y17501
X114295Y20320
X107569Y13716
X103251Y10541
X99695Y4572
X109982Y7620
X115697Y6985
X98806Y4572
X97917Y4572
X114427Y13335
X113411Y12700
X110236Y11430
X113284Y3175
X114046Y3683
X107325Y24807
X116337Y17939
X108712Y27179
X115443Y9144
X102725Y20041
X119126Y5461
X101100Y4428
X108458Y24638
X105664Y24892
X106045Y8280
X102997Y14859
X100965Y18669
X102930Y21904
X108077Y21971
X121285Y20066
X119892Y14736
X121793Y15748
X117102Y22098
X117213Y29202
X121031Y13081
X116332Y29591
X122555Y25057
X117199Y19431
X112141Y18161
X116564Y20066
X110490Y21082
X105407Y20584
X106934Y21971
X99441Y18415
X101854Y20701
X106680Y17907
X101600Y22564
X109824Y21686
X109728Y20701
X101937Y14859
X106231Y20584
X108237Y18034
X9779Y54610
X12319Y58166
X16510Y51308
X17653Y53467
X17526Y58166
X13843Y65151
X8890Y65151
X6350Y62230
X106807Y137287
M30