G04 EAGLE Gerber RS-274X export*
G75*
%MOMM*%
%FSLAX34Y34*%
%LPD*%
%INSolderpaste Bottom*%
%IPPOS*%
%AMOC8*
5,1,8,0,0,1.08239X$1,22.5*%
G01*
%ADD10R,0.550000X1.200000*%
%ADD11R,0.600000X0.600000*%
%ADD12R,0.875000X0.250000*%
%ADD13R,0.450000X0.250000*%
%ADD14R,0.250000X0.450000*%
%ADD15R,0.750000X0.400000*%
%ADD16R,0.685800X0.330200*%
%ADD17R,0.460000X0.650000*%
%ADD18R,1.200000X0.550000*%
%ADD19R,0.830000X0.630000*%
%ADD20R,1.800000X1.400000*%
%ADD21R,1.400000X1.900000*%
%ADD22R,0.800000X1.500000*%


D10*
X111100Y50499D03*
X101600Y50499D03*
X92100Y50499D03*
X92100Y76501D03*
X111100Y76501D03*
D11*
X127000Y58500D03*
X127000Y68500D03*
X96600Y38100D03*
X106600Y38100D03*
X58420Y68500D03*
X58420Y58500D03*
X127000Y109300D03*
X127000Y119300D03*
X152400Y119300D03*
X152400Y109300D03*
X220980Y109300D03*
X220980Y119300D03*
X210900Y50800D03*
X220900Y50800D03*
X165100Y119300D03*
X165100Y109300D03*
X195500Y50800D03*
X185500Y50800D03*
X205740Y119300D03*
X205740Y109300D03*
D12*
X225825Y35400D03*
X225825Y30400D03*
X225825Y25400D03*
X225825Y20400D03*
X225825Y15400D03*
X180575Y15400D03*
X180575Y20400D03*
X180575Y25400D03*
X180575Y30400D03*
X180575Y35400D03*
D11*
X190500Y71200D03*
X190500Y81200D03*
X203200Y71200D03*
X203200Y81200D03*
X215900Y71200D03*
X215900Y81200D03*
X177800Y71200D03*
X177800Y81200D03*
D13*
X251700Y171800D03*
X251700Y167800D03*
X251700Y175800D03*
X251700Y179800D03*
X251700Y183800D03*
X251700Y187800D03*
D14*
X256700Y192800D03*
X260700Y192800D03*
X264700Y192800D03*
X268700Y192800D03*
X272700Y192800D03*
X276700Y192800D03*
D13*
X281700Y187800D03*
X281700Y183800D03*
X281700Y175800D03*
X281700Y179800D03*
X281700Y171800D03*
X281700Y167800D03*
D14*
X276700Y162800D03*
X272700Y162800D03*
X268700Y162800D03*
X264700Y162800D03*
X260700Y162800D03*
X256700Y162800D03*
D11*
X264160Y223600D03*
X264160Y233600D03*
X241300Y93900D03*
X241300Y83900D03*
X241300Y182800D03*
X241300Y172800D03*
D15*
X258450Y95400D03*
X258450Y82400D03*
D16*
X274955Y95631D03*
X274955Y88900D03*
X274955Y82169D03*
D11*
X292100Y91360D03*
X292100Y81360D03*
D17*
X261700Y125300D03*
X271700Y125300D03*
X266700Y113800D03*
D11*
X271700Y139700D03*
X261700Y139700D03*
D17*
X236300Y125300D03*
X246300Y125300D03*
X241300Y113800D03*
D11*
X246300Y139700D03*
X236300Y139700D03*
D17*
X284400Y226490D03*
X274400Y226490D03*
X279400Y237990D03*
D11*
X274400Y209550D03*
X284400Y209550D03*
X293370Y229950D03*
X293370Y239950D03*
D17*
X297100Y116000D03*
X287100Y116000D03*
X292100Y127500D03*
D11*
X287100Y139700D03*
X297100Y139700D03*
X297100Y101600D03*
X287100Y101600D03*
D17*
X243920Y239600D03*
X253920Y239600D03*
X248920Y228100D03*
D11*
X259000Y213360D03*
X249000Y213360D03*
X243920Y248920D03*
X253920Y248920D03*
D18*
X88599Y92100D03*
X88599Y101600D03*
X88599Y111100D03*
X114601Y111100D03*
X114601Y92100D03*
D11*
X44450Y68500D03*
X44450Y58500D03*
X139700Y109300D03*
X139700Y119300D03*
D19*
X76200Y75000D03*
X76200Y52000D03*
D20*
X160050Y131000D03*
X103050Y131000D03*
D21*
X87050Y262500D03*
X218550Y272500D03*
D22*
X171950Y234000D03*
X160950Y230000D03*
X149950Y234000D03*
X138950Y236000D03*
X127950Y234000D03*
X116950Y236000D03*
X105950Y234000D03*
X94950Y234000D03*
D11*
X43260Y166370D03*
X53260Y166370D03*
X53260Y146050D03*
X43260Y146050D03*
D10*
X420980Y50499D03*
X411480Y50499D03*
X401980Y50499D03*
X401980Y76501D03*
X420980Y76501D03*
D11*
X436880Y58500D03*
X436880Y68500D03*
X406480Y38100D03*
X416480Y38100D03*
X368300Y68500D03*
X368300Y58500D03*
X436880Y109300D03*
X436880Y119300D03*
X462280Y119300D03*
X462280Y109300D03*
X530860Y109300D03*
X530860Y119300D03*
X520780Y50800D03*
X530780Y50800D03*
X474980Y119300D03*
X474980Y109300D03*
X505380Y50800D03*
X495380Y50800D03*
X515620Y119300D03*
X515620Y109300D03*
D12*
X535705Y35400D03*
X535705Y30400D03*
X535705Y25400D03*
X535705Y20400D03*
X535705Y15400D03*
X490455Y15400D03*
X490455Y20400D03*
X490455Y25400D03*
X490455Y30400D03*
X490455Y35400D03*
D11*
X500380Y71200D03*
X500380Y81200D03*
X513080Y71200D03*
X513080Y81200D03*
X525780Y71200D03*
X525780Y81200D03*
X487680Y71200D03*
X487680Y81200D03*
D13*
X561580Y171800D03*
X561580Y167800D03*
X561580Y175800D03*
X561580Y179800D03*
X561580Y183800D03*
X561580Y187800D03*
D14*
X566580Y192800D03*
X570580Y192800D03*
X574580Y192800D03*
X578580Y192800D03*
X582580Y192800D03*
X586580Y192800D03*
D13*
X591580Y187800D03*
X591580Y183800D03*
X591580Y175800D03*
X591580Y179800D03*
X591580Y171800D03*
X591580Y167800D03*
D14*
X586580Y162800D03*
X582580Y162800D03*
X578580Y162800D03*
X574580Y162800D03*
X570580Y162800D03*
X566580Y162800D03*
D11*
X574040Y223600D03*
X574040Y233600D03*
X551180Y93900D03*
X551180Y83900D03*
X551180Y182800D03*
X551180Y172800D03*
D15*
X568330Y95400D03*
X568330Y82400D03*
D16*
X584835Y95631D03*
X584835Y88900D03*
X584835Y82169D03*
D11*
X601980Y91360D03*
X601980Y81360D03*
D17*
X571580Y125300D03*
X581580Y125300D03*
X576580Y113800D03*
D11*
X581580Y139700D03*
X571580Y139700D03*
D17*
X546180Y125300D03*
X556180Y125300D03*
X551180Y113800D03*
D11*
X556180Y139700D03*
X546180Y139700D03*
D17*
X594280Y226490D03*
X584280Y226490D03*
X589280Y237990D03*
D11*
X584280Y209550D03*
X594280Y209550D03*
X603250Y229950D03*
X603250Y239950D03*
D17*
X606980Y116000D03*
X596980Y116000D03*
X601980Y127500D03*
D11*
X596980Y139700D03*
X606980Y139700D03*
X606980Y101600D03*
X596980Y101600D03*
D17*
X553800Y239600D03*
X563800Y239600D03*
X558800Y228100D03*
D11*
X568880Y213360D03*
X558880Y213360D03*
X553800Y248920D03*
X563800Y248920D03*
D18*
X398479Y92100D03*
X398479Y101600D03*
X398479Y111100D03*
X424481Y111100D03*
X424481Y92100D03*
D11*
X354330Y68500D03*
X354330Y58500D03*
X449580Y109300D03*
X449580Y119300D03*
D19*
X386080Y75000D03*
X386080Y52000D03*
D20*
X469930Y131000D03*
X412930Y131000D03*
D21*
X396930Y262500D03*
X528430Y272500D03*
D22*
X481830Y234000D03*
X470830Y230000D03*
X459830Y234000D03*
X448830Y236000D03*
X437830Y234000D03*
X426830Y236000D03*
X415830Y234000D03*
X404830Y234000D03*
D11*
X353140Y166370D03*
X363140Y166370D03*
X363140Y146050D03*
X353140Y146050D03*
D10*
X730860Y50499D03*
X721360Y50499D03*
X711860Y50499D03*
X711860Y76501D03*
X730860Y76501D03*
D11*
X746760Y58500D03*
X746760Y68500D03*
X716360Y38100D03*
X726360Y38100D03*
X678180Y68500D03*
X678180Y58500D03*
X746760Y109300D03*
X746760Y119300D03*
X772160Y119300D03*
X772160Y109300D03*
X840740Y109300D03*
X840740Y119300D03*
X830660Y50800D03*
X840660Y50800D03*
X784860Y119300D03*
X784860Y109300D03*
X815260Y50800D03*
X805260Y50800D03*
X825500Y119300D03*
X825500Y109300D03*
D12*
X845585Y35400D03*
X845585Y30400D03*
X845585Y25400D03*
X845585Y20400D03*
X845585Y15400D03*
X800335Y15400D03*
X800335Y20400D03*
X800335Y25400D03*
X800335Y30400D03*
X800335Y35400D03*
D11*
X810260Y71200D03*
X810260Y81200D03*
X822960Y71200D03*
X822960Y81200D03*
X835660Y71200D03*
X835660Y81200D03*
X797560Y71200D03*
X797560Y81200D03*
D13*
X871460Y171800D03*
X871460Y167800D03*
X871460Y175800D03*
X871460Y179800D03*
X871460Y183800D03*
X871460Y187800D03*
D14*
X876460Y192800D03*
X880460Y192800D03*
X884460Y192800D03*
X888460Y192800D03*
X892460Y192800D03*
X896460Y192800D03*
D13*
X901460Y187800D03*
X901460Y183800D03*
X901460Y175800D03*
X901460Y179800D03*
X901460Y171800D03*
X901460Y167800D03*
D14*
X896460Y162800D03*
X892460Y162800D03*
X888460Y162800D03*
X884460Y162800D03*
X880460Y162800D03*
X876460Y162800D03*
D11*
X883920Y223600D03*
X883920Y233600D03*
X861060Y93900D03*
X861060Y83900D03*
X861060Y182800D03*
X861060Y172800D03*
D15*
X878210Y95400D03*
X878210Y82400D03*
D16*
X894715Y95631D03*
X894715Y88900D03*
X894715Y82169D03*
D11*
X911860Y91360D03*
X911860Y81360D03*
D17*
X881460Y125300D03*
X891460Y125300D03*
X886460Y113800D03*
D11*
X891460Y139700D03*
X881460Y139700D03*
D17*
X856060Y125300D03*
X866060Y125300D03*
X861060Y113800D03*
D11*
X866060Y139700D03*
X856060Y139700D03*
D17*
X904160Y226490D03*
X894160Y226490D03*
X899160Y237990D03*
D11*
X894160Y209550D03*
X904160Y209550D03*
X913130Y229950D03*
X913130Y239950D03*
D17*
X916860Y116000D03*
X906860Y116000D03*
X911860Y127500D03*
D11*
X906860Y139700D03*
X916860Y139700D03*
X916860Y101600D03*
X906860Y101600D03*
D17*
X863680Y239600D03*
X873680Y239600D03*
X868680Y228100D03*
D11*
X878760Y213360D03*
X868760Y213360D03*
X863680Y248920D03*
X873680Y248920D03*
D18*
X708359Y92100D03*
X708359Y101600D03*
X708359Y111100D03*
X734361Y111100D03*
X734361Y92100D03*
D11*
X664210Y68500D03*
X664210Y58500D03*
X759460Y109300D03*
X759460Y119300D03*
D19*
X695960Y75000D03*
X695960Y52000D03*
D20*
X779810Y131000D03*
X722810Y131000D03*
D21*
X706810Y262500D03*
X838310Y272500D03*
D22*
X791710Y234000D03*
X780710Y230000D03*
X769710Y234000D03*
X758710Y236000D03*
X747710Y234000D03*
X736710Y236000D03*
X725710Y234000D03*
X714710Y234000D03*
D11*
X663020Y166370D03*
X673020Y166370D03*
X673020Y146050D03*
X663020Y146050D03*
D10*
X1040740Y50499D03*
X1031240Y50499D03*
X1021740Y50499D03*
X1021740Y76501D03*
X1040740Y76501D03*
D11*
X1056640Y58500D03*
X1056640Y68500D03*
X1026240Y38100D03*
X1036240Y38100D03*
X988060Y68500D03*
X988060Y58500D03*
X1056640Y109300D03*
X1056640Y119300D03*
X1082040Y119300D03*
X1082040Y109300D03*
X1150620Y109300D03*
X1150620Y119300D03*
X1140540Y50800D03*
X1150540Y50800D03*
X1094740Y119300D03*
X1094740Y109300D03*
X1125140Y50800D03*
X1115140Y50800D03*
X1135380Y119300D03*
X1135380Y109300D03*
D12*
X1155465Y35400D03*
X1155465Y30400D03*
X1155465Y25400D03*
X1155465Y20400D03*
X1155465Y15400D03*
X1110215Y15400D03*
X1110215Y20400D03*
X1110215Y25400D03*
X1110215Y30400D03*
X1110215Y35400D03*
D11*
X1120140Y71200D03*
X1120140Y81200D03*
X1132840Y71200D03*
X1132840Y81200D03*
X1145540Y71200D03*
X1145540Y81200D03*
X1107440Y71200D03*
X1107440Y81200D03*
D13*
X1181340Y171800D03*
X1181340Y167800D03*
X1181340Y175800D03*
X1181340Y179800D03*
X1181340Y183800D03*
X1181340Y187800D03*
D14*
X1186340Y192800D03*
X1190340Y192800D03*
X1194340Y192800D03*
X1198340Y192800D03*
X1202340Y192800D03*
X1206340Y192800D03*
D13*
X1211340Y187800D03*
X1211340Y183800D03*
X1211340Y175800D03*
X1211340Y179800D03*
X1211340Y171800D03*
X1211340Y167800D03*
D14*
X1206340Y162800D03*
X1202340Y162800D03*
X1198340Y162800D03*
X1194340Y162800D03*
X1190340Y162800D03*
X1186340Y162800D03*
D11*
X1193800Y223600D03*
X1193800Y233600D03*
X1170940Y93900D03*
X1170940Y83900D03*
X1170940Y182800D03*
X1170940Y172800D03*
D15*
X1188090Y95400D03*
X1188090Y82400D03*
D16*
X1204595Y95631D03*
X1204595Y88900D03*
X1204595Y82169D03*
D11*
X1221740Y91360D03*
X1221740Y81360D03*
D17*
X1191340Y125300D03*
X1201340Y125300D03*
X1196340Y113800D03*
D11*
X1201340Y139700D03*
X1191340Y139700D03*
D17*
X1165940Y125300D03*
X1175940Y125300D03*
X1170940Y113800D03*
D11*
X1175940Y139700D03*
X1165940Y139700D03*
D17*
X1214040Y226490D03*
X1204040Y226490D03*
X1209040Y237990D03*
D11*
X1204040Y209550D03*
X1214040Y209550D03*
X1223010Y229950D03*
X1223010Y239950D03*
D17*
X1226740Y116000D03*
X1216740Y116000D03*
X1221740Y127500D03*
D11*
X1216740Y139700D03*
X1226740Y139700D03*
X1226740Y101600D03*
X1216740Y101600D03*
D17*
X1173560Y239600D03*
X1183560Y239600D03*
X1178560Y228100D03*
D11*
X1188640Y213360D03*
X1178640Y213360D03*
X1173560Y248920D03*
X1183560Y248920D03*
D18*
X1018239Y92100D03*
X1018239Y101600D03*
X1018239Y111100D03*
X1044241Y111100D03*
X1044241Y92100D03*
D11*
X974090Y68500D03*
X974090Y58500D03*
X1069340Y109300D03*
X1069340Y119300D03*
D19*
X1005840Y75000D03*
X1005840Y52000D03*
D20*
X1089690Y131000D03*
X1032690Y131000D03*
D21*
X1016690Y262500D03*
X1148190Y272500D03*
D22*
X1101590Y234000D03*
X1090590Y230000D03*
X1079590Y234000D03*
X1068590Y236000D03*
X1057590Y234000D03*
X1046590Y236000D03*
X1035590Y234000D03*
X1024590Y234000D03*
D11*
X972900Y166370D03*
X982900Y166370D03*
X982900Y146050D03*
X972900Y146050D03*
D10*
X111100Y411179D03*
X101600Y411179D03*
X92100Y411179D03*
X92100Y437181D03*
X111100Y437181D03*
D11*
X127000Y419180D03*
X127000Y429180D03*
X96600Y398780D03*
X106600Y398780D03*
X58420Y429180D03*
X58420Y419180D03*
X127000Y469980D03*
X127000Y479980D03*
X152400Y479980D03*
X152400Y469980D03*
X220980Y469980D03*
X220980Y479980D03*
X210900Y411480D03*
X220900Y411480D03*
X165100Y479980D03*
X165100Y469980D03*
X195500Y411480D03*
X185500Y411480D03*
X205740Y479980D03*
X205740Y469980D03*
D12*
X225825Y396080D03*
X225825Y391080D03*
X225825Y386080D03*
X225825Y381080D03*
X225825Y376080D03*
X180575Y376080D03*
X180575Y381080D03*
X180575Y386080D03*
X180575Y391080D03*
X180575Y396080D03*
D11*
X190500Y431880D03*
X190500Y441880D03*
X203200Y431880D03*
X203200Y441880D03*
X215900Y431880D03*
X215900Y441880D03*
X177800Y431880D03*
X177800Y441880D03*
D13*
X251700Y532480D03*
X251700Y528480D03*
X251700Y536480D03*
X251700Y540480D03*
X251700Y544480D03*
X251700Y548480D03*
D14*
X256700Y553480D03*
X260700Y553480D03*
X264700Y553480D03*
X268700Y553480D03*
X272700Y553480D03*
X276700Y553480D03*
D13*
X281700Y548480D03*
X281700Y544480D03*
X281700Y536480D03*
X281700Y540480D03*
X281700Y532480D03*
X281700Y528480D03*
D14*
X276700Y523480D03*
X272700Y523480D03*
X268700Y523480D03*
X264700Y523480D03*
X260700Y523480D03*
X256700Y523480D03*
D11*
X264160Y584280D03*
X264160Y594280D03*
X241300Y454580D03*
X241300Y444580D03*
X241300Y543480D03*
X241300Y533480D03*
D15*
X258450Y456080D03*
X258450Y443080D03*
D16*
X274955Y456311D03*
X274955Y449580D03*
X274955Y442849D03*
D11*
X292100Y452040D03*
X292100Y442040D03*
D17*
X261700Y485980D03*
X271700Y485980D03*
X266700Y474480D03*
D11*
X271700Y500380D03*
X261700Y500380D03*
D17*
X236300Y485980D03*
X246300Y485980D03*
X241300Y474480D03*
D11*
X246300Y500380D03*
X236300Y500380D03*
D17*
X284400Y587170D03*
X274400Y587170D03*
X279400Y598670D03*
D11*
X274400Y570230D03*
X284400Y570230D03*
X293370Y590630D03*
X293370Y600630D03*
D17*
X297100Y476680D03*
X287100Y476680D03*
X292100Y488180D03*
D11*
X287100Y500380D03*
X297100Y500380D03*
X297100Y462280D03*
X287100Y462280D03*
D17*
X243920Y600280D03*
X253920Y600280D03*
X248920Y588780D03*
D11*
X259000Y574040D03*
X249000Y574040D03*
X243920Y609600D03*
X253920Y609600D03*
D18*
X88599Y452780D03*
X88599Y462280D03*
X88599Y471780D03*
X114601Y471780D03*
X114601Y452780D03*
D11*
X44450Y429180D03*
X44450Y419180D03*
X139700Y469980D03*
X139700Y479980D03*
D19*
X76200Y435680D03*
X76200Y412680D03*
D20*
X160050Y491680D03*
X103050Y491680D03*
D21*
X87050Y623180D03*
X218550Y633180D03*
D22*
X171950Y594680D03*
X160950Y590680D03*
X149950Y594680D03*
X138950Y596680D03*
X127950Y594680D03*
X116950Y596680D03*
X105950Y594680D03*
X94950Y594680D03*
D11*
X43260Y527050D03*
X53260Y527050D03*
X53260Y506730D03*
X43260Y506730D03*
D10*
X420980Y411179D03*
X411480Y411179D03*
X401980Y411179D03*
X401980Y437181D03*
X420980Y437181D03*
D11*
X436880Y419180D03*
X436880Y429180D03*
X406480Y398780D03*
X416480Y398780D03*
X368300Y429180D03*
X368300Y419180D03*
X436880Y469980D03*
X436880Y479980D03*
X462280Y479980D03*
X462280Y469980D03*
X530860Y469980D03*
X530860Y479980D03*
X520780Y411480D03*
X530780Y411480D03*
X474980Y479980D03*
X474980Y469980D03*
X505380Y411480D03*
X495380Y411480D03*
X515620Y479980D03*
X515620Y469980D03*
D12*
X535705Y396080D03*
X535705Y391080D03*
X535705Y386080D03*
X535705Y381080D03*
X535705Y376080D03*
X490455Y376080D03*
X490455Y381080D03*
X490455Y386080D03*
X490455Y391080D03*
X490455Y396080D03*
D11*
X500380Y431880D03*
X500380Y441880D03*
X513080Y431880D03*
X513080Y441880D03*
X525780Y431880D03*
X525780Y441880D03*
X487680Y431880D03*
X487680Y441880D03*
D13*
X561580Y532480D03*
X561580Y528480D03*
X561580Y536480D03*
X561580Y540480D03*
X561580Y544480D03*
X561580Y548480D03*
D14*
X566580Y553480D03*
X570580Y553480D03*
X574580Y553480D03*
X578580Y553480D03*
X582580Y553480D03*
X586580Y553480D03*
D13*
X591580Y548480D03*
X591580Y544480D03*
X591580Y536480D03*
X591580Y540480D03*
X591580Y532480D03*
X591580Y528480D03*
D14*
X586580Y523480D03*
X582580Y523480D03*
X578580Y523480D03*
X574580Y523480D03*
X570580Y523480D03*
X566580Y523480D03*
D11*
X574040Y584280D03*
X574040Y594280D03*
X551180Y454580D03*
X551180Y444580D03*
X551180Y543480D03*
X551180Y533480D03*
D15*
X568330Y456080D03*
X568330Y443080D03*
D16*
X584835Y456311D03*
X584835Y449580D03*
X584835Y442849D03*
D11*
X601980Y452040D03*
X601980Y442040D03*
D17*
X571580Y485980D03*
X581580Y485980D03*
X576580Y474480D03*
D11*
X581580Y500380D03*
X571580Y500380D03*
D17*
X546180Y485980D03*
X556180Y485980D03*
X551180Y474480D03*
D11*
X556180Y500380D03*
X546180Y500380D03*
D17*
X594280Y587170D03*
X584280Y587170D03*
X589280Y598670D03*
D11*
X584280Y570230D03*
X594280Y570230D03*
X603250Y590630D03*
X603250Y600630D03*
D17*
X606980Y476680D03*
X596980Y476680D03*
X601980Y488180D03*
D11*
X596980Y500380D03*
X606980Y500380D03*
X606980Y462280D03*
X596980Y462280D03*
D17*
X553800Y600280D03*
X563800Y600280D03*
X558800Y588780D03*
D11*
X568880Y574040D03*
X558880Y574040D03*
X553800Y609600D03*
X563800Y609600D03*
D18*
X398479Y452780D03*
X398479Y462280D03*
X398479Y471780D03*
X424481Y471780D03*
X424481Y452780D03*
D11*
X354330Y429180D03*
X354330Y419180D03*
X449580Y469980D03*
X449580Y479980D03*
D19*
X386080Y435680D03*
X386080Y412680D03*
D20*
X469930Y491680D03*
X412930Y491680D03*
D21*
X396930Y623180D03*
X528430Y633180D03*
D22*
X481830Y594680D03*
X470830Y590680D03*
X459830Y594680D03*
X448830Y596680D03*
X437830Y594680D03*
X426830Y596680D03*
X415830Y594680D03*
X404830Y594680D03*
D11*
X353140Y527050D03*
X363140Y527050D03*
X363140Y506730D03*
X353140Y506730D03*
D10*
X730860Y411179D03*
X721360Y411179D03*
X711860Y411179D03*
X711860Y437181D03*
X730860Y437181D03*
D11*
X746760Y419180D03*
X746760Y429180D03*
X716360Y398780D03*
X726360Y398780D03*
X678180Y429180D03*
X678180Y419180D03*
X746760Y469980D03*
X746760Y479980D03*
X772160Y479980D03*
X772160Y469980D03*
X840740Y469980D03*
X840740Y479980D03*
X830660Y411480D03*
X840660Y411480D03*
X784860Y479980D03*
X784860Y469980D03*
X815260Y411480D03*
X805260Y411480D03*
X825500Y479980D03*
X825500Y469980D03*
D12*
X845585Y396080D03*
X845585Y391080D03*
X845585Y386080D03*
X845585Y381080D03*
X845585Y376080D03*
X800335Y376080D03*
X800335Y381080D03*
X800335Y386080D03*
X800335Y391080D03*
X800335Y396080D03*
D11*
X810260Y431880D03*
X810260Y441880D03*
X822960Y431880D03*
X822960Y441880D03*
X835660Y431880D03*
X835660Y441880D03*
X797560Y431880D03*
X797560Y441880D03*
D13*
X871460Y532480D03*
X871460Y528480D03*
X871460Y536480D03*
X871460Y540480D03*
X871460Y544480D03*
X871460Y548480D03*
D14*
X876460Y553480D03*
X880460Y553480D03*
X884460Y553480D03*
X888460Y553480D03*
X892460Y553480D03*
X896460Y553480D03*
D13*
X901460Y548480D03*
X901460Y544480D03*
X901460Y536480D03*
X901460Y540480D03*
X901460Y532480D03*
X901460Y528480D03*
D14*
X896460Y523480D03*
X892460Y523480D03*
X888460Y523480D03*
X884460Y523480D03*
X880460Y523480D03*
X876460Y523480D03*
D11*
X883920Y584280D03*
X883920Y594280D03*
X861060Y454580D03*
X861060Y444580D03*
X861060Y543480D03*
X861060Y533480D03*
D15*
X878210Y456080D03*
X878210Y443080D03*
D16*
X894715Y456311D03*
X894715Y449580D03*
X894715Y442849D03*
D11*
X911860Y452040D03*
X911860Y442040D03*
D17*
X881460Y485980D03*
X891460Y485980D03*
X886460Y474480D03*
D11*
X891460Y500380D03*
X881460Y500380D03*
D17*
X856060Y485980D03*
X866060Y485980D03*
X861060Y474480D03*
D11*
X866060Y500380D03*
X856060Y500380D03*
D17*
X904160Y587170D03*
X894160Y587170D03*
X899160Y598670D03*
D11*
X894160Y570230D03*
X904160Y570230D03*
X913130Y590630D03*
X913130Y600630D03*
D17*
X916860Y476680D03*
X906860Y476680D03*
X911860Y488180D03*
D11*
X906860Y500380D03*
X916860Y500380D03*
X916860Y462280D03*
X906860Y462280D03*
D17*
X863680Y600280D03*
X873680Y600280D03*
X868680Y588780D03*
D11*
X878760Y574040D03*
X868760Y574040D03*
X863680Y609600D03*
X873680Y609600D03*
D18*
X708359Y452780D03*
X708359Y462280D03*
X708359Y471780D03*
X734361Y471780D03*
X734361Y452780D03*
D11*
X664210Y429180D03*
X664210Y419180D03*
X759460Y469980D03*
X759460Y479980D03*
D19*
X695960Y435680D03*
X695960Y412680D03*
D20*
X779810Y491680D03*
X722810Y491680D03*
D21*
X706810Y623180D03*
X838310Y633180D03*
D22*
X791710Y594680D03*
X780710Y590680D03*
X769710Y594680D03*
X758710Y596680D03*
X747710Y594680D03*
X736710Y596680D03*
X725710Y594680D03*
X714710Y594680D03*
D11*
X663020Y527050D03*
X673020Y527050D03*
X673020Y506730D03*
X663020Y506730D03*
D10*
X1040740Y411179D03*
X1031240Y411179D03*
X1021740Y411179D03*
X1021740Y437181D03*
X1040740Y437181D03*
D11*
X1056640Y419180D03*
X1056640Y429180D03*
X1026240Y398780D03*
X1036240Y398780D03*
X988060Y429180D03*
X988060Y419180D03*
X1056640Y469980D03*
X1056640Y479980D03*
X1082040Y479980D03*
X1082040Y469980D03*
X1150620Y469980D03*
X1150620Y479980D03*
X1140540Y411480D03*
X1150540Y411480D03*
X1094740Y479980D03*
X1094740Y469980D03*
X1125140Y411480D03*
X1115140Y411480D03*
X1135380Y479980D03*
X1135380Y469980D03*
D12*
X1155465Y396080D03*
X1155465Y391080D03*
X1155465Y386080D03*
X1155465Y381080D03*
X1155465Y376080D03*
X1110215Y376080D03*
X1110215Y381080D03*
X1110215Y386080D03*
X1110215Y391080D03*
X1110215Y396080D03*
D11*
X1120140Y431880D03*
X1120140Y441880D03*
X1132840Y431880D03*
X1132840Y441880D03*
X1145540Y431880D03*
X1145540Y441880D03*
X1107440Y431880D03*
X1107440Y441880D03*
D13*
X1181340Y532480D03*
X1181340Y528480D03*
X1181340Y536480D03*
X1181340Y540480D03*
X1181340Y544480D03*
X1181340Y548480D03*
D14*
X1186340Y553480D03*
X1190340Y553480D03*
X1194340Y553480D03*
X1198340Y553480D03*
X1202340Y553480D03*
X1206340Y553480D03*
D13*
X1211340Y548480D03*
X1211340Y544480D03*
X1211340Y536480D03*
X1211340Y540480D03*
X1211340Y532480D03*
X1211340Y528480D03*
D14*
X1206340Y523480D03*
X1202340Y523480D03*
X1198340Y523480D03*
X1194340Y523480D03*
X1190340Y523480D03*
X1186340Y523480D03*
D11*
X1193800Y584280D03*
X1193800Y594280D03*
X1170940Y454580D03*
X1170940Y444580D03*
X1170940Y543480D03*
X1170940Y533480D03*
D15*
X1188090Y456080D03*
X1188090Y443080D03*
D16*
X1204595Y456311D03*
X1204595Y449580D03*
X1204595Y442849D03*
D11*
X1221740Y452040D03*
X1221740Y442040D03*
D17*
X1191340Y485980D03*
X1201340Y485980D03*
X1196340Y474480D03*
D11*
X1201340Y500380D03*
X1191340Y500380D03*
D17*
X1165940Y485980D03*
X1175940Y485980D03*
X1170940Y474480D03*
D11*
X1175940Y500380D03*
X1165940Y500380D03*
D17*
X1214040Y587170D03*
X1204040Y587170D03*
X1209040Y598670D03*
D11*
X1204040Y570230D03*
X1214040Y570230D03*
X1223010Y590630D03*
X1223010Y600630D03*
D17*
X1226740Y476680D03*
X1216740Y476680D03*
X1221740Y488180D03*
D11*
X1216740Y500380D03*
X1226740Y500380D03*
X1226740Y462280D03*
X1216740Y462280D03*
D17*
X1173560Y600280D03*
X1183560Y600280D03*
X1178560Y588780D03*
D11*
X1188640Y574040D03*
X1178640Y574040D03*
X1173560Y609600D03*
X1183560Y609600D03*
D18*
X1018239Y452780D03*
X1018239Y462280D03*
X1018239Y471780D03*
X1044241Y471780D03*
X1044241Y452780D03*
D11*
X974090Y429180D03*
X974090Y419180D03*
X1069340Y469980D03*
X1069340Y479980D03*
D19*
X1005840Y435680D03*
X1005840Y412680D03*
D20*
X1089690Y491680D03*
X1032690Y491680D03*
D21*
X1016690Y623180D03*
X1148190Y633180D03*
D22*
X1101590Y594680D03*
X1090590Y590680D03*
X1079590Y594680D03*
X1068590Y596680D03*
X1057590Y594680D03*
X1046590Y596680D03*
X1035590Y594680D03*
X1024590Y594680D03*
D11*
X972900Y527050D03*
X982900Y527050D03*
X982900Y506730D03*
X972900Y506730D03*
D10*
X111100Y771859D03*
X101600Y771859D03*
X92100Y771859D03*
X92100Y797861D03*
X111100Y797861D03*
D11*
X127000Y779860D03*
X127000Y789860D03*
X96600Y759460D03*
X106600Y759460D03*
X58420Y789860D03*
X58420Y779860D03*
X127000Y830660D03*
X127000Y840660D03*
X152400Y840660D03*
X152400Y830660D03*
X220980Y830660D03*
X220980Y840660D03*
X210900Y772160D03*
X220900Y772160D03*
X165100Y840660D03*
X165100Y830660D03*
X195500Y772160D03*
X185500Y772160D03*
X205740Y840660D03*
X205740Y830660D03*
D12*
X225825Y756760D03*
X225825Y751760D03*
X225825Y746760D03*
X225825Y741760D03*
X225825Y736760D03*
X180575Y736760D03*
X180575Y741760D03*
X180575Y746760D03*
X180575Y751760D03*
X180575Y756760D03*
D11*
X190500Y792560D03*
X190500Y802560D03*
X203200Y792560D03*
X203200Y802560D03*
X215900Y792560D03*
X215900Y802560D03*
X177800Y792560D03*
X177800Y802560D03*
D13*
X251700Y893160D03*
X251700Y889160D03*
X251700Y897160D03*
X251700Y901160D03*
X251700Y905160D03*
X251700Y909160D03*
D14*
X256700Y914160D03*
X260700Y914160D03*
X264700Y914160D03*
X268700Y914160D03*
X272700Y914160D03*
X276700Y914160D03*
D13*
X281700Y909160D03*
X281700Y905160D03*
X281700Y897160D03*
X281700Y901160D03*
X281700Y893160D03*
X281700Y889160D03*
D14*
X276700Y884160D03*
X272700Y884160D03*
X268700Y884160D03*
X264700Y884160D03*
X260700Y884160D03*
X256700Y884160D03*
D11*
X264160Y944960D03*
X264160Y954960D03*
X241300Y815260D03*
X241300Y805260D03*
X241300Y904160D03*
X241300Y894160D03*
D15*
X258450Y816760D03*
X258450Y803760D03*
D16*
X274955Y816991D03*
X274955Y810260D03*
X274955Y803529D03*
D11*
X292100Y812720D03*
X292100Y802720D03*
D17*
X261700Y846660D03*
X271700Y846660D03*
X266700Y835160D03*
D11*
X271700Y861060D03*
X261700Y861060D03*
D17*
X236300Y846660D03*
X246300Y846660D03*
X241300Y835160D03*
D11*
X246300Y861060D03*
X236300Y861060D03*
D17*
X284400Y947850D03*
X274400Y947850D03*
X279400Y959350D03*
D11*
X274400Y930910D03*
X284400Y930910D03*
X293370Y951310D03*
X293370Y961310D03*
D17*
X297100Y837360D03*
X287100Y837360D03*
X292100Y848860D03*
D11*
X287100Y861060D03*
X297100Y861060D03*
X297100Y822960D03*
X287100Y822960D03*
D17*
X243920Y960960D03*
X253920Y960960D03*
X248920Y949460D03*
D11*
X259000Y934720D03*
X249000Y934720D03*
X243920Y970280D03*
X253920Y970280D03*
D18*
X88599Y813460D03*
X88599Y822960D03*
X88599Y832460D03*
X114601Y832460D03*
X114601Y813460D03*
D11*
X44450Y789860D03*
X44450Y779860D03*
X139700Y830660D03*
X139700Y840660D03*
D19*
X76200Y796360D03*
X76200Y773360D03*
D20*
X160050Y852360D03*
X103050Y852360D03*
D21*
X87050Y983860D03*
X218550Y993860D03*
D22*
X171950Y955360D03*
X160950Y951360D03*
X149950Y955360D03*
X138950Y957360D03*
X127950Y955360D03*
X116950Y957360D03*
X105950Y955360D03*
X94950Y955360D03*
D11*
X43260Y887730D03*
X53260Y887730D03*
X53260Y867410D03*
X43260Y867410D03*
D10*
X420980Y771859D03*
X411480Y771859D03*
X401980Y771859D03*
X401980Y797861D03*
X420980Y797861D03*
D11*
X436880Y779860D03*
X436880Y789860D03*
X406480Y759460D03*
X416480Y759460D03*
X368300Y789860D03*
X368300Y779860D03*
X436880Y830660D03*
X436880Y840660D03*
X462280Y840660D03*
X462280Y830660D03*
X530860Y830660D03*
X530860Y840660D03*
X520780Y772160D03*
X530780Y772160D03*
X474980Y840660D03*
X474980Y830660D03*
X505380Y772160D03*
X495380Y772160D03*
X515620Y840660D03*
X515620Y830660D03*
D12*
X535705Y756760D03*
X535705Y751760D03*
X535705Y746760D03*
X535705Y741760D03*
X535705Y736760D03*
X490455Y736760D03*
X490455Y741760D03*
X490455Y746760D03*
X490455Y751760D03*
X490455Y756760D03*
D11*
X500380Y792560D03*
X500380Y802560D03*
X513080Y792560D03*
X513080Y802560D03*
X525780Y792560D03*
X525780Y802560D03*
X487680Y792560D03*
X487680Y802560D03*
D13*
X561580Y893160D03*
X561580Y889160D03*
X561580Y897160D03*
X561580Y901160D03*
X561580Y905160D03*
X561580Y909160D03*
D14*
X566580Y914160D03*
X570580Y914160D03*
X574580Y914160D03*
X578580Y914160D03*
X582580Y914160D03*
X586580Y914160D03*
D13*
X591580Y909160D03*
X591580Y905160D03*
X591580Y897160D03*
X591580Y901160D03*
X591580Y893160D03*
X591580Y889160D03*
D14*
X586580Y884160D03*
X582580Y884160D03*
X578580Y884160D03*
X574580Y884160D03*
X570580Y884160D03*
X566580Y884160D03*
D11*
X574040Y944960D03*
X574040Y954960D03*
X551180Y815260D03*
X551180Y805260D03*
X551180Y904160D03*
X551180Y894160D03*
D15*
X568330Y816760D03*
X568330Y803760D03*
D16*
X584835Y816991D03*
X584835Y810260D03*
X584835Y803529D03*
D11*
X601980Y812720D03*
X601980Y802720D03*
D17*
X571580Y846660D03*
X581580Y846660D03*
X576580Y835160D03*
D11*
X581580Y861060D03*
X571580Y861060D03*
D17*
X546180Y846660D03*
X556180Y846660D03*
X551180Y835160D03*
D11*
X556180Y861060D03*
X546180Y861060D03*
D17*
X594280Y947850D03*
X584280Y947850D03*
X589280Y959350D03*
D11*
X584280Y930910D03*
X594280Y930910D03*
X603250Y951310D03*
X603250Y961310D03*
D17*
X606980Y837360D03*
X596980Y837360D03*
X601980Y848860D03*
D11*
X596980Y861060D03*
X606980Y861060D03*
X606980Y822960D03*
X596980Y822960D03*
D17*
X553800Y960960D03*
X563800Y960960D03*
X558800Y949460D03*
D11*
X568880Y934720D03*
X558880Y934720D03*
X553800Y970280D03*
X563800Y970280D03*
D18*
X398479Y813460D03*
X398479Y822960D03*
X398479Y832460D03*
X424481Y832460D03*
X424481Y813460D03*
D11*
X354330Y789860D03*
X354330Y779860D03*
X449580Y830660D03*
X449580Y840660D03*
D19*
X386080Y796360D03*
X386080Y773360D03*
D20*
X469930Y852360D03*
X412930Y852360D03*
D21*
X396930Y983860D03*
X528430Y993860D03*
D22*
X481830Y955360D03*
X470830Y951360D03*
X459830Y955360D03*
X448830Y957360D03*
X437830Y955360D03*
X426830Y957360D03*
X415830Y955360D03*
X404830Y955360D03*
D11*
X353140Y887730D03*
X363140Y887730D03*
X363140Y867410D03*
X353140Y867410D03*
D10*
X730860Y771859D03*
X721360Y771859D03*
X711860Y771859D03*
X711860Y797861D03*
X730860Y797861D03*
D11*
X746760Y779860D03*
X746760Y789860D03*
X716360Y759460D03*
X726360Y759460D03*
X678180Y789860D03*
X678180Y779860D03*
X746760Y830660D03*
X746760Y840660D03*
X772160Y840660D03*
X772160Y830660D03*
X840740Y830660D03*
X840740Y840660D03*
X830660Y772160D03*
X840660Y772160D03*
X784860Y840660D03*
X784860Y830660D03*
X815260Y772160D03*
X805260Y772160D03*
X825500Y840660D03*
X825500Y830660D03*
D12*
X845585Y756760D03*
X845585Y751760D03*
X845585Y746760D03*
X845585Y741760D03*
X845585Y736760D03*
X800335Y736760D03*
X800335Y741760D03*
X800335Y746760D03*
X800335Y751760D03*
X800335Y756760D03*
D11*
X810260Y792560D03*
X810260Y802560D03*
X822960Y792560D03*
X822960Y802560D03*
X835660Y792560D03*
X835660Y802560D03*
X797560Y792560D03*
X797560Y802560D03*
D13*
X871460Y893160D03*
X871460Y889160D03*
X871460Y897160D03*
X871460Y901160D03*
X871460Y905160D03*
X871460Y909160D03*
D14*
X876460Y914160D03*
X880460Y914160D03*
X884460Y914160D03*
X888460Y914160D03*
X892460Y914160D03*
X896460Y914160D03*
D13*
X901460Y909160D03*
X901460Y905160D03*
X901460Y897160D03*
X901460Y901160D03*
X901460Y893160D03*
X901460Y889160D03*
D14*
X896460Y884160D03*
X892460Y884160D03*
X888460Y884160D03*
X884460Y884160D03*
X880460Y884160D03*
X876460Y884160D03*
D11*
X883920Y944960D03*
X883920Y954960D03*
X861060Y815260D03*
X861060Y805260D03*
X861060Y904160D03*
X861060Y894160D03*
D15*
X878210Y816760D03*
X878210Y803760D03*
D16*
X894715Y816991D03*
X894715Y810260D03*
X894715Y803529D03*
D11*
X911860Y812720D03*
X911860Y802720D03*
D17*
X881460Y846660D03*
X891460Y846660D03*
X886460Y835160D03*
D11*
X891460Y861060D03*
X881460Y861060D03*
D17*
X856060Y846660D03*
X866060Y846660D03*
X861060Y835160D03*
D11*
X866060Y861060D03*
X856060Y861060D03*
D17*
X904160Y947850D03*
X894160Y947850D03*
X899160Y959350D03*
D11*
X894160Y930910D03*
X904160Y930910D03*
X913130Y951310D03*
X913130Y961310D03*
D17*
X916860Y837360D03*
X906860Y837360D03*
X911860Y848860D03*
D11*
X906860Y861060D03*
X916860Y861060D03*
X916860Y822960D03*
X906860Y822960D03*
D17*
X863680Y960960D03*
X873680Y960960D03*
X868680Y949460D03*
D11*
X878760Y934720D03*
X868760Y934720D03*
X863680Y970280D03*
X873680Y970280D03*
D18*
X708359Y813460D03*
X708359Y822960D03*
X708359Y832460D03*
X734361Y832460D03*
X734361Y813460D03*
D11*
X664210Y789860D03*
X664210Y779860D03*
X759460Y830660D03*
X759460Y840660D03*
D19*
X695960Y796360D03*
X695960Y773360D03*
D20*
X779810Y852360D03*
X722810Y852360D03*
D21*
X706810Y983860D03*
X838310Y993860D03*
D22*
X791710Y955360D03*
X780710Y951360D03*
X769710Y955360D03*
X758710Y957360D03*
X747710Y955360D03*
X736710Y957360D03*
X725710Y955360D03*
X714710Y955360D03*
D11*
X663020Y887730D03*
X673020Y887730D03*
X673020Y867410D03*
X663020Y867410D03*
D10*
X1040740Y771859D03*
X1031240Y771859D03*
X1021740Y771859D03*
X1021740Y797861D03*
X1040740Y797861D03*
D11*
X1056640Y779860D03*
X1056640Y789860D03*
X1026240Y759460D03*
X1036240Y759460D03*
X988060Y789860D03*
X988060Y779860D03*
X1056640Y830660D03*
X1056640Y840660D03*
X1082040Y840660D03*
X1082040Y830660D03*
X1150620Y830660D03*
X1150620Y840660D03*
X1140540Y772160D03*
X1150540Y772160D03*
X1094740Y840660D03*
X1094740Y830660D03*
X1125140Y772160D03*
X1115140Y772160D03*
X1135380Y840660D03*
X1135380Y830660D03*
D12*
X1155465Y756760D03*
X1155465Y751760D03*
X1155465Y746760D03*
X1155465Y741760D03*
X1155465Y736760D03*
X1110215Y736760D03*
X1110215Y741760D03*
X1110215Y746760D03*
X1110215Y751760D03*
X1110215Y756760D03*
D11*
X1120140Y792560D03*
X1120140Y802560D03*
X1132840Y792560D03*
X1132840Y802560D03*
X1145540Y792560D03*
X1145540Y802560D03*
X1107440Y792560D03*
X1107440Y802560D03*
D13*
X1181340Y893160D03*
X1181340Y889160D03*
X1181340Y897160D03*
X1181340Y901160D03*
X1181340Y905160D03*
X1181340Y909160D03*
D14*
X1186340Y914160D03*
X1190340Y914160D03*
X1194340Y914160D03*
X1198340Y914160D03*
X1202340Y914160D03*
X1206340Y914160D03*
D13*
X1211340Y909160D03*
X1211340Y905160D03*
X1211340Y897160D03*
X1211340Y901160D03*
X1211340Y893160D03*
X1211340Y889160D03*
D14*
X1206340Y884160D03*
X1202340Y884160D03*
X1198340Y884160D03*
X1194340Y884160D03*
X1190340Y884160D03*
X1186340Y884160D03*
D11*
X1193800Y944960D03*
X1193800Y954960D03*
X1170940Y815260D03*
X1170940Y805260D03*
X1170940Y904160D03*
X1170940Y894160D03*
D15*
X1188090Y816760D03*
X1188090Y803760D03*
D16*
X1204595Y816991D03*
X1204595Y810260D03*
X1204595Y803529D03*
D11*
X1221740Y812720D03*
X1221740Y802720D03*
D17*
X1191340Y846660D03*
X1201340Y846660D03*
X1196340Y835160D03*
D11*
X1201340Y861060D03*
X1191340Y861060D03*
D17*
X1165940Y846660D03*
X1175940Y846660D03*
X1170940Y835160D03*
D11*
X1175940Y861060D03*
X1165940Y861060D03*
D17*
X1214040Y947850D03*
X1204040Y947850D03*
X1209040Y959350D03*
D11*
X1204040Y930910D03*
X1214040Y930910D03*
X1223010Y951310D03*
X1223010Y961310D03*
D17*
X1226740Y837360D03*
X1216740Y837360D03*
X1221740Y848860D03*
D11*
X1216740Y861060D03*
X1226740Y861060D03*
X1226740Y822960D03*
X1216740Y822960D03*
D17*
X1173560Y960960D03*
X1183560Y960960D03*
X1178560Y949460D03*
D11*
X1188640Y934720D03*
X1178640Y934720D03*
X1173560Y970280D03*
X1183560Y970280D03*
D18*
X1018239Y813460D03*
X1018239Y822960D03*
X1018239Y832460D03*
X1044241Y832460D03*
X1044241Y813460D03*
D11*
X974090Y789860D03*
X974090Y779860D03*
X1069340Y830660D03*
X1069340Y840660D03*
D19*
X1005840Y796360D03*
X1005840Y773360D03*
D20*
X1089690Y852360D03*
X1032690Y852360D03*
D21*
X1016690Y983860D03*
X1148190Y993860D03*
D22*
X1101590Y955360D03*
X1090590Y951360D03*
X1079590Y955360D03*
X1068590Y957360D03*
X1057590Y955360D03*
X1046590Y957360D03*
X1035590Y955360D03*
X1024590Y955360D03*
D11*
X972900Y887730D03*
X982900Y887730D03*
X982900Y867410D03*
X972900Y867410D03*
D10*
X111100Y1132539D03*
X101600Y1132539D03*
X92100Y1132539D03*
X92100Y1158541D03*
X111100Y1158541D03*
D11*
X127000Y1140540D03*
X127000Y1150540D03*
X96600Y1120140D03*
X106600Y1120140D03*
X58420Y1150540D03*
X58420Y1140540D03*
X127000Y1191340D03*
X127000Y1201340D03*
X152400Y1201340D03*
X152400Y1191340D03*
X220980Y1191340D03*
X220980Y1201340D03*
X210900Y1132840D03*
X220900Y1132840D03*
X165100Y1201340D03*
X165100Y1191340D03*
X195500Y1132840D03*
X185500Y1132840D03*
X205740Y1201340D03*
X205740Y1191340D03*
D12*
X225825Y1117440D03*
X225825Y1112440D03*
X225825Y1107440D03*
X225825Y1102440D03*
X225825Y1097440D03*
X180575Y1097440D03*
X180575Y1102440D03*
X180575Y1107440D03*
X180575Y1112440D03*
X180575Y1117440D03*
D11*
X190500Y1153240D03*
X190500Y1163240D03*
X203200Y1153240D03*
X203200Y1163240D03*
X215900Y1153240D03*
X215900Y1163240D03*
X177800Y1153240D03*
X177800Y1163240D03*
D13*
X251700Y1253840D03*
X251700Y1249840D03*
X251700Y1257840D03*
X251700Y1261840D03*
X251700Y1265840D03*
X251700Y1269840D03*
D14*
X256700Y1274840D03*
X260700Y1274840D03*
X264700Y1274840D03*
X268700Y1274840D03*
X272700Y1274840D03*
X276700Y1274840D03*
D13*
X281700Y1269840D03*
X281700Y1265840D03*
X281700Y1257840D03*
X281700Y1261840D03*
X281700Y1253840D03*
X281700Y1249840D03*
D14*
X276700Y1244840D03*
X272700Y1244840D03*
X268700Y1244840D03*
X264700Y1244840D03*
X260700Y1244840D03*
X256700Y1244840D03*
D11*
X264160Y1305640D03*
X264160Y1315640D03*
X241300Y1175940D03*
X241300Y1165940D03*
X241300Y1264840D03*
X241300Y1254840D03*
D15*
X258450Y1177440D03*
X258450Y1164440D03*
D16*
X274955Y1177671D03*
X274955Y1170940D03*
X274955Y1164209D03*
D11*
X292100Y1173400D03*
X292100Y1163400D03*
D17*
X261700Y1207340D03*
X271700Y1207340D03*
X266700Y1195840D03*
D11*
X271700Y1221740D03*
X261700Y1221740D03*
D17*
X236300Y1207340D03*
X246300Y1207340D03*
X241300Y1195840D03*
D11*
X246300Y1221740D03*
X236300Y1221740D03*
D17*
X284400Y1308530D03*
X274400Y1308530D03*
X279400Y1320030D03*
D11*
X274400Y1291590D03*
X284400Y1291590D03*
X293370Y1311990D03*
X293370Y1321990D03*
D17*
X297100Y1198040D03*
X287100Y1198040D03*
X292100Y1209540D03*
D11*
X287100Y1221740D03*
X297100Y1221740D03*
X297100Y1183640D03*
X287100Y1183640D03*
D17*
X243920Y1321640D03*
X253920Y1321640D03*
X248920Y1310140D03*
D11*
X259000Y1295400D03*
X249000Y1295400D03*
X243920Y1330960D03*
X253920Y1330960D03*
D18*
X88599Y1174140D03*
X88599Y1183640D03*
X88599Y1193140D03*
X114601Y1193140D03*
X114601Y1174140D03*
D11*
X44450Y1150540D03*
X44450Y1140540D03*
X139700Y1191340D03*
X139700Y1201340D03*
D19*
X76200Y1157040D03*
X76200Y1134040D03*
D20*
X160050Y1213040D03*
X103050Y1213040D03*
D21*
X87050Y1344540D03*
X218550Y1354540D03*
D22*
X171950Y1316040D03*
X160950Y1312040D03*
X149950Y1316040D03*
X138950Y1318040D03*
X127950Y1316040D03*
X116950Y1318040D03*
X105950Y1316040D03*
X94950Y1316040D03*
D11*
X43260Y1248410D03*
X53260Y1248410D03*
X53260Y1228090D03*
X43260Y1228090D03*
D10*
X420980Y1132539D03*
X411480Y1132539D03*
X401980Y1132539D03*
X401980Y1158541D03*
X420980Y1158541D03*
D11*
X436880Y1140540D03*
X436880Y1150540D03*
X406480Y1120140D03*
X416480Y1120140D03*
X368300Y1150540D03*
X368300Y1140540D03*
X436880Y1191340D03*
X436880Y1201340D03*
X462280Y1201340D03*
X462280Y1191340D03*
X530860Y1191340D03*
X530860Y1201340D03*
X520780Y1132840D03*
X530780Y1132840D03*
X474980Y1201340D03*
X474980Y1191340D03*
X505380Y1132840D03*
X495380Y1132840D03*
X515620Y1201340D03*
X515620Y1191340D03*
D12*
X535705Y1117440D03*
X535705Y1112440D03*
X535705Y1107440D03*
X535705Y1102440D03*
X535705Y1097440D03*
X490455Y1097440D03*
X490455Y1102440D03*
X490455Y1107440D03*
X490455Y1112440D03*
X490455Y1117440D03*
D11*
X500380Y1153240D03*
X500380Y1163240D03*
X513080Y1153240D03*
X513080Y1163240D03*
X525780Y1153240D03*
X525780Y1163240D03*
X487680Y1153240D03*
X487680Y1163240D03*
D13*
X561580Y1253840D03*
X561580Y1249840D03*
X561580Y1257840D03*
X561580Y1261840D03*
X561580Y1265840D03*
X561580Y1269840D03*
D14*
X566580Y1274840D03*
X570580Y1274840D03*
X574580Y1274840D03*
X578580Y1274840D03*
X582580Y1274840D03*
X586580Y1274840D03*
D13*
X591580Y1269840D03*
X591580Y1265840D03*
X591580Y1257840D03*
X591580Y1261840D03*
X591580Y1253840D03*
X591580Y1249840D03*
D14*
X586580Y1244840D03*
X582580Y1244840D03*
X578580Y1244840D03*
X574580Y1244840D03*
X570580Y1244840D03*
X566580Y1244840D03*
D11*
X574040Y1305640D03*
X574040Y1315640D03*
X551180Y1175940D03*
X551180Y1165940D03*
X551180Y1264840D03*
X551180Y1254840D03*
D15*
X568330Y1177440D03*
X568330Y1164440D03*
D16*
X584835Y1177671D03*
X584835Y1170940D03*
X584835Y1164209D03*
D11*
X601980Y1173400D03*
X601980Y1163400D03*
D17*
X571580Y1207340D03*
X581580Y1207340D03*
X576580Y1195840D03*
D11*
X581580Y1221740D03*
X571580Y1221740D03*
D17*
X546180Y1207340D03*
X556180Y1207340D03*
X551180Y1195840D03*
D11*
X556180Y1221740D03*
X546180Y1221740D03*
D17*
X594280Y1308530D03*
X584280Y1308530D03*
X589280Y1320030D03*
D11*
X584280Y1291590D03*
X594280Y1291590D03*
X603250Y1311990D03*
X603250Y1321990D03*
D17*
X606980Y1198040D03*
X596980Y1198040D03*
X601980Y1209540D03*
D11*
X596980Y1221740D03*
X606980Y1221740D03*
X606980Y1183640D03*
X596980Y1183640D03*
D17*
X553800Y1321640D03*
X563800Y1321640D03*
X558800Y1310140D03*
D11*
X568880Y1295400D03*
X558880Y1295400D03*
X553800Y1330960D03*
X563800Y1330960D03*
D18*
X398479Y1174140D03*
X398479Y1183640D03*
X398479Y1193140D03*
X424481Y1193140D03*
X424481Y1174140D03*
D11*
X354330Y1150540D03*
X354330Y1140540D03*
X449580Y1191340D03*
X449580Y1201340D03*
D19*
X386080Y1157040D03*
X386080Y1134040D03*
D20*
X469930Y1213040D03*
X412930Y1213040D03*
D21*
X396930Y1344540D03*
X528430Y1354540D03*
D22*
X481830Y1316040D03*
X470830Y1312040D03*
X459830Y1316040D03*
X448830Y1318040D03*
X437830Y1316040D03*
X426830Y1318040D03*
X415830Y1316040D03*
X404830Y1316040D03*
D11*
X353140Y1248410D03*
X363140Y1248410D03*
X363140Y1228090D03*
X353140Y1228090D03*
D10*
X730860Y1132539D03*
X721360Y1132539D03*
X711860Y1132539D03*
X711860Y1158541D03*
X730860Y1158541D03*
D11*
X746760Y1140540D03*
X746760Y1150540D03*
X716360Y1120140D03*
X726360Y1120140D03*
X678180Y1150540D03*
X678180Y1140540D03*
X746760Y1191340D03*
X746760Y1201340D03*
X772160Y1201340D03*
X772160Y1191340D03*
X840740Y1191340D03*
X840740Y1201340D03*
X830660Y1132840D03*
X840660Y1132840D03*
X784860Y1201340D03*
X784860Y1191340D03*
X815260Y1132840D03*
X805260Y1132840D03*
X825500Y1201340D03*
X825500Y1191340D03*
D12*
X845585Y1117440D03*
X845585Y1112440D03*
X845585Y1107440D03*
X845585Y1102440D03*
X845585Y1097440D03*
X800335Y1097440D03*
X800335Y1102440D03*
X800335Y1107440D03*
X800335Y1112440D03*
X800335Y1117440D03*
D11*
X810260Y1153240D03*
X810260Y1163240D03*
X822960Y1153240D03*
X822960Y1163240D03*
X835660Y1153240D03*
X835660Y1163240D03*
X797560Y1153240D03*
X797560Y1163240D03*
D13*
X871460Y1253840D03*
X871460Y1249840D03*
X871460Y1257840D03*
X871460Y1261840D03*
X871460Y1265840D03*
X871460Y1269840D03*
D14*
X876460Y1274840D03*
X880460Y1274840D03*
X884460Y1274840D03*
X888460Y1274840D03*
X892460Y1274840D03*
X896460Y1274840D03*
D13*
X901460Y1269840D03*
X901460Y1265840D03*
X901460Y1257840D03*
X901460Y1261840D03*
X901460Y1253840D03*
X901460Y1249840D03*
D14*
X896460Y1244840D03*
X892460Y1244840D03*
X888460Y1244840D03*
X884460Y1244840D03*
X880460Y1244840D03*
X876460Y1244840D03*
D11*
X883920Y1305640D03*
X883920Y1315640D03*
X861060Y1175940D03*
X861060Y1165940D03*
X861060Y1264840D03*
X861060Y1254840D03*
D15*
X878210Y1177440D03*
X878210Y1164440D03*
D16*
X894715Y1177671D03*
X894715Y1170940D03*
X894715Y1164209D03*
D11*
X911860Y1173400D03*
X911860Y1163400D03*
D17*
X881460Y1207340D03*
X891460Y1207340D03*
X886460Y1195840D03*
D11*
X891460Y1221740D03*
X881460Y1221740D03*
D17*
X856060Y1207340D03*
X866060Y1207340D03*
X861060Y1195840D03*
D11*
X866060Y1221740D03*
X856060Y1221740D03*
D17*
X904160Y1308530D03*
X894160Y1308530D03*
X899160Y1320030D03*
D11*
X894160Y1291590D03*
X904160Y1291590D03*
X913130Y1311990D03*
X913130Y1321990D03*
D17*
X916860Y1198040D03*
X906860Y1198040D03*
X911860Y1209540D03*
D11*
X906860Y1221740D03*
X916860Y1221740D03*
X916860Y1183640D03*
X906860Y1183640D03*
D17*
X863680Y1321640D03*
X873680Y1321640D03*
X868680Y1310140D03*
D11*
X878760Y1295400D03*
X868760Y1295400D03*
X863680Y1330960D03*
X873680Y1330960D03*
D18*
X708359Y1174140D03*
X708359Y1183640D03*
X708359Y1193140D03*
X734361Y1193140D03*
X734361Y1174140D03*
D11*
X664210Y1150540D03*
X664210Y1140540D03*
X759460Y1191340D03*
X759460Y1201340D03*
D19*
X695960Y1157040D03*
X695960Y1134040D03*
D20*
X779810Y1213040D03*
X722810Y1213040D03*
D21*
X706810Y1344540D03*
X838310Y1354540D03*
D22*
X791710Y1316040D03*
X780710Y1312040D03*
X769710Y1316040D03*
X758710Y1318040D03*
X747710Y1316040D03*
X736710Y1318040D03*
X725710Y1316040D03*
X714710Y1316040D03*
D11*
X663020Y1248410D03*
X673020Y1248410D03*
X673020Y1228090D03*
X663020Y1228090D03*
D10*
X1040740Y1132539D03*
X1031240Y1132539D03*
X1021740Y1132539D03*
X1021740Y1158541D03*
X1040740Y1158541D03*
D11*
X1056640Y1140540D03*
X1056640Y1150540D03*
X1026240Y1120140D03*
X1036240Y1120140D03*
X988060Y1150540D03*
X988060Y1140540D03*
X1056640Y1191340D03*
X1056640Y1201340D03*
X1082040Y1201340D03*
X1082040Y1191340D03*
X1150620Y1191340D03*
X1150620Y1201340D03*
X1140540Y1132840D03*
X1150540Y1132840D03*
X1094740Y1201340D03*
X1094740Y1191340D03*
X1125140Y1132840D03*
X1115140Y1132840D03*
X1135380Y1201340D03*
X1135380Y1191340D03*
D12*
X1155465Y1117440D03*
X1155465Y1112440D03*
X1155465Y1107440D03*
X1155465Y1102440D03*
X1155465Y1097440D03*
X1110215Y1097440D03*
X1110215Y1102440D03*
X1110215Y1107440D03*
X1110215Y1112440D03*
X1110215Y1117440D03*
D11*
X1120140Y1153240D03*
X1120140Y1163240D03*
X1132840Y1153240D03*
X1132840Y1163240D03*
X1145540Y1153240D03*
X1145540Y1163240D03*
X1107440Y1153240D03*
X1107440Y1163240D03*
D13*
X1181340Y1253840D03*
X1181340Y1249840D03*
X1181340Y1257840D03*
X1181340Y1261840D03*
X1181340Y1265840D03*
X1181340Y1269840D03*
D14*
X1186340Y1274840D03*
X1190340Y1274840D03*
X1194340Y1274840D03*
X1198340Y1274840D03*
X1202340Y1274840D03*
X1206340Y1274840D03*
D13*
X1211340Y1269840D03*
X1211340Y1265840D03*
X1211340Y1257840D03*
X1211340Y1261840D03*
X1211340Y1253840D03*
X1211340Y1249840D03*
D14*
X1206340Y1244840D03*
X1202340Y1244840D03*
X1198340Y1244840D03*
X1194340Y1244840D03*
X1190340Y1244840D03*
X1186340Y1244840D03*
D11*
X1193800Y1305640D03*
X1193800Y1315640D03*
X1170940Y1175940D03*
X1170940Y1165940D03*
X1170940Y1264840D03*
X1170940Y1254840D03*
D15*
X1188090Y1177440D03*
X1188090Y1164440D03*
D16*
X1204595Y1177671D03*
X1204595Y1170940D03*
X1204595Y1164209D03*
D11*
X1221740Y1173400D03*
X1221740Y1163400D03*
D17*
X1191340Y1207340D03*
X1201340Y1207340D03*
X1196340Y1195840D03*
D11*
X1201340Y1221740D03*
X1191340Y1221740D03*
D17*
X1165940Y1207340D03*
X1175940Y1207340D03*
X1170940Y1195840D03*
D11*
X1175940Y1221740D03*
X1165940Y1221740D03*
D17*
X1214040Y1308530D03*
X1204040Y1308530D03*
X1209040Y1320030D03*
D11*
X1204040Y1291590D03*
X1214040Y1291590D03*
X1223010Y1311990D03*
X1223010Y1321990D03*
D17*
X1226740Y1198040D03*
X1216740Y1198040D03*
X1221740Y1209540D03*
D11*
X1216740Y1221740D03*
X1226740Y1221740D03*
X1226740Y1183640D03*
X1216740Y1183640D03*
D17*
X1173560Y1321640D03*
X1183560Y1321640D03*
X1178560Y1310140D03*
D11*
X1188640Y1295400D03*
X1178640Y1295400D03*
X1173560Y1330960D03*
X1183560Y1330960D03*
D18*
X1018239Y1174140D03*
X1018239Y1183640D03*
X1018239Y1193140D03*
X1044241Y1193140D03*
X1044241Y1174140D03*
D11*
X974090Y1150540D03*
X974090Y1140540D03*
X1069340Y1191340D03*
X1069340Y1201340D03*
D19*
X1005840Y1157040D03*
X1005840Y1134040D03*
D20*
X1089690Y1213040D03*
X1032690Y1213040D03*
D21*
X1016690Y1344540D03*
X1148190Y1354540D03*
D22*
X1101590Y1316040D03*
X1090590Y1312040D03*
X1079590Y1316040D03*
X1068590Y1318040D03*
X1057590Y1316040D03*
X1046590Y1318040D03*
X1035590Y1316040D03*
X1024590Y1316040D03*
D11*
X972900Y1248410D03*
X982900Y1248410D03*
X982900Y1228090D03*
X972900Y1228090D03*
M02*
