G04 EAGLE Gerber RS-274X export*
G75*
%MOMM*%
%FSLAX34Y34*%
%LPD*%
%INSolderpaste Bottom*%
%IPPOS*%
%AMOC8*
5,1,8,0,0,1.08239X$1,22.5*%
G01*
%ADD10R,0.550000X1.200000*%
%ADD11R,0.600000X0.600000*%
%ADD12R,1.100000X1.000000*%
%ADD13R,0.875000X0.250000*%
%ADD14R,1.800000X1.400000*%
%ADD15R,1.400000X1.900000*%
%ADD16R,0.800000X1.500000*%
%ADD17R,0.450000X0.250000*%
%ADD18R,0.250000X0.450000*%
%ADD19R,0.750000X0.400000*%
%ADD20R,0.685800X0.330200*%
%ADD21R,0.460000X0.650000*%
%ADD22R,1.200000X0.550000*%
%ADD23R,1.000000X1.100000*%
%ADD24R,0.830000X0.630000*%


D10*
X111100Y50499D03*
X101600Y50499D03*
X92100Y50499D03*
X92100Y76501D03*
X111100Y76501D03*
D11*
X127000Y58500D03*
X127000Y68500D03*
X96600Y38100D03*
X106600Y38100D03*
X62230Y68500D03*
X62230Y58500D03*
X127000Y109300D03*
X127000Y119300D03*
X152400Y119300D03*
X152400Y109300D03*
X220980Y109300D03*
X220980Y119300D03*
D12*
X195970Y50800D03*
X212970Y50800D03*
D11*
X165100Y119300D03*
X165100Y109300D03*
X182880Y45800D03*
X182880Y55800D03*
X205740Y119300D03*
X205740Y109300D03*
D13*
X225825Y35400D03*
X225825Y30400D03*
X225825Y25400D03*
X225825Y20400D03*
X225825Y15400D03*
X180575Y15400D03*
X180575Y20400D03*
X180575Y25400D03*
X180575Y30400D03*
X180575Y35400D03*
D11*
X190500Y71200D03*
X190500Y81200D03*
X203200Y71200D03*
X203200Y81200D03*
X215900Y71200D03*
X215900Y81200D03*
X177800Y71200D03*
X177800Y81200D03*
D14*
X160050Y131000D03*
X103050Y131000D03*
D15*
X87050Y262500D03*
X218550Y272500D03*
D16*
X171950Y234000D03*
X160950Y230000D03*
X149950Y234000D03*
X138950Y236000D03*
X127950Y234000D03*
X116950Y236000D03*
X105950Y234000D03*
X94950Y234000D03*
D17*
X251700Y171800D03*
X251700Y167800D03*
X251700Y175800D03*
X251700Y179800D03*
X251700Y183800D03*
X251700Y187800D03*
D18*
X256700Y192800D03*
X260700Y192800D03*
X264700Y192800D03*
X268700Y192800D03*
X272700Y192800D03*
X276700Y192800D03*
D17*
X281700Y187800D03*
X281700Y183800D03*
X281700Y175800D03*
X281700Y179800D03*
X281700Y171800D03*
X281700Y167800D03*
D18*
X276700Y162800D03*
X272700Y162800D03*
X268700Y162800D03*
X264700Y162800D03*
X260700Y162800D03*
X256700Y162800D03*
D11*
X266700Y223600D03*
X266700Y233600D03*
X241300Y93900D03*
X241300Y83900D03*
X241300Y182800D03*
X241300Y172800D03*
D19*
X258450Y95400D03*
X258450Y82400D03*
D20*
X274955Y95631D03*
X274955Y88900D03*
X274955Y82169D03*
D11*
X292100Y91360D03*
X292100Y81360D03*
D21*
X261700Y125300D03*
X271700Y125300D03*
X266700Y113800D03*
D11*
X271700Y139700D03*
X261700Y139700D03*
D21*
X236300Y125300D03*
X246300Y125300D03*
X241300Y113800D03*
D11*
X246300Y139700D03*
X236300Y139700D03*
D21*
X284400Y230300D03*
X274400Y230300D03*
X279400Y241800D03*
D11*
X274400Y209550D03*
X284400Y209550D03*
X292100Y236300D03*
X292100Y246300D03*
D21*
X297100Y116000D03*
X287100Y116000D03*
X292100Y127500D03*
D11*
X287100Y139700D03*
X297100Y139700D03*
X297100Y101600D03*
X287100Y101600D03*
D21*
X249000Y239600D03*
X259000Y239600D03*
X254000Y228100D03*
D11*
X259000Y213360D03*
X249000Y213360D03*
X249000Y248920D03*
X259000Y248920D03*
D22*
X88599Y92100D03*
X88599Y101600D03*
X88599Y111100D03*
X114601Y111100D03*
X114601Y92100D03*
D23*
X50800Y72000D03*
X50800Y55000D03*
X139700Y93100D03*
X139700Y110100D03*
D24*
X76200Y75000D03*
X76200Y52000D03*
D10*
X420980Y50499D03*
X411480Y50499D03*
X401980Y50499D03*
X401980Y76501D03*
X420980Y76501D03*
D11*
X436880Y58500D03*
X436880Y68500D03*
X406480Y38100D03*
X416480Y38100D03*
X372110Y68500D03*
X372110Y58500D03*
X436880Y109300D03*
X436880Y119300D03*
X462280Y119300D03*
X462280Y109300D03*
X530860Y109300D03*
X530860Y119300D03*
D12*
X505850Y50800D03*
X522850Y50800D03*
D11*
X474980Y119300D03*
X474980Y109300D03*
X492760Y45800D03*
X492760Y55800D03*
X515620Y119300D03*
X515620Y109300D03*
D13*
X535705Y35400D03*
X535705Y30400D03*
X535705Y25400D03*
X535705Y20400D03*
X535705Y15400D03*
X490455Y15400D03*
X490455Y20400D03*
X490455Y25400D03*
X490455Y30400D03*
X490455Y35400D03*
D11*
X500380Y71200D03*
X500380Y81200D03*
X513080Y71200D03*
X513080Y81200D03*
X525780Y71200D03*
X525780Y81200D03*
X487680Y71200D03*
X487680Y81200D03*
D14*
X469930Y131000D03*
X412930Y131000D03*
D15*
X396930Y262500D03*
X528430Y272500D03*
D16*
X481830Y234000D03*
X470830Y230000D03*
X459830Y234000D03*
X448830Y236000D03*
X437830Y234000D03*
X426830Y236000D03*
X415830Y234000D03*
X404830Y234000D03*
D17*
X561580Y171800D03*
X561580Y167800D03*
X561580Y175800D03*
X561580Y179800D03*
X561580Y183800D03*
X561580Y187800D03*
D18*
X566580Y192800D03*
X570580Y192800D03*
X574580Y192800D03*
X578580Y192800D03*
X582580Y192800D03*
X586580Y192800D03*
D17*
X591580Y187800D03*
X591580Y183800D03*
X591580Y175800D03*
X591580Y179800D03*
X591580Y171800D03*
X591580Y167800D03*
D18*
X586580Y162800D03*
X582580Y162800D03*
X578580Y162800D03*
X574580Y162800D03*
X570580Y162800D03*
X566580Y162800D03*
D11*
X576580Y223600D03*
X576580Y233600D03*
X551180Y93900D03*
X551180Y83900D03*
X551180Y182800D03*
X551180Y172800D03*
D19*
X568330Y95400D03*
X568330Y82400D03*
D20*
X584835Y95631D03*
X584835Y88900D03*
X584835Y82169D03*
D11*
X601980Y91360D03*
X601980Y81360D03*
D21*
X571580Y125300D03*
X581580Y125300D03*
X576580Y113800D03*
D11*
X581580Y139700D03*
X571580Y139700D03*
D21*
X546180Y125300D03*
X556180Y125300D03*
X551180Y113800D03*
D11*
X556180Y139700D03*
X546180Y139700D03*
D21*
X594280Y230300D03*
X584280Y230300D03*
X589280Y241800D03*
D11*
X584280Y209550D03*
X594280Y209550D03*
X601980Y236300D03*
X601980Y246300D03*
D21*
X606980Y116000D03*
X596980Y116000D03*
X601980Y127500D03*
D11*
X596980Y139700D03*
X606980Y139700D03*
X606980Y101600D03*
X596980Y101600D03*
D21*
X558880Y239600D03*
X568880Y239600D03*
X563880Y228100D03*
D11*
X568880Y213360D03*
X558880Y213360D03*
X558880Y248920D03*
X568880Y248920D03*
D22*
X398479Y92100D03*
X398479Y101600D03*
X398479Y111100D03*
X424481Y111100D03*
X424481Y92100D03*
D23*
X360680Y72000D03*
X360680Y55000D03*
X449580Y93100D03*
X449580Y110100D03*
D24*
X386080Y75000D03*
X386080Y52000D03*
D10*
X730860Y50499D03*
X721360Y50499D03*
X711860Y50499D03*
X711860Y76501D03*
X730860Y76501D03*
D11*
X746760Y58500D03*
X746760Y68500D03*
X716360Y38100D03*
X726360Y38100D03*
X681990Y68500D03*
X681990Y58500D03*
X746760Y109300D03*
X746760Y119300D03*
X772160Y119300D03*
X772160Y109300D03*
X840740Y109300D03*
X840740Y119300D03*
D12*
X815730Y50800D03*
X832730Y50800D03*
D11*
X784860Y119300D03*
X784860Y109300D03*
X802640Y45800D03*
X802640Y55800D03*
X825500Y119300D03*
X825500Y109300D03*
D13*
X845585Y35400D03*
X845585Y30400D03*
X845585Y25400D03*
X845585Y20400D03*
X845585Y15400D03*
X800335Y15400D03*
X800335Y20400D03*
X800335Y25400D03*
X800335Y30400D03*
X800335Y35400D03*
D11*
X810260Y71200D03*
X810260Y81200D03*
X822960Y71200D03*
X822960Y81200D03*
X835660Y71200D03*
X835660Y81200D03*
X797560Y71200D03*
X797560Y81200D03*
D14*
X779810Y131000D03*
X722810Y131000D03*
D15*
X706810Y262500D03*
X838310Y272500D03*
D16*
X791710Y234000D03*
X780710Y230000D03*
X769710Y234000D03*
X758710Y236000D03*
X747710Y234000D03*
X736710Y236000D03*
X725710Y234000D03*
X714710Y234000D03*
D17*
X871460Y171800D03*
X871460Y167800D03*
X871460Y175800D03*
X871460Y179800D03*
X871460Y183800D03*
X871460Y187800D03*
D18*
X876460Y192800D03*
X880460Y192800D03*
X884460Y192800D03*
X888460Y192800D03*
X892460Y192800D03*
X896460Y192800D03*
D17*
X901460Y187800D03*
X901460Y183800D03*
X901460Y175800D03*
X901460Y179800D03*
X901460Y171800D03*
X901460Y167800D03*
D18*
X896460Y162800D03*
X892460Y162800D03*
X888460Y162800D03*
X884460Y162800D03*
X880460Y162800D03*
X876460Y162800D03*
D11*
X886460Y223600D03*
X886460Y233600D03*
X861060Y93900D03*
X861060Y83900D03*
X861060Y182800D03*
X861060Y172800D03*
D19*
X878210Y95400D03*
X878210Y82400D03*
D20*
X894715Y95631D03*
X894715Y88900D03*
X894715Y82169D03*
D11*
X911860Y91360D03*
X911860Y81360D03*
D21*
X881460Y125300D03*
X891460Y125300D03*
X886460Y113800D03*
D11*
X891460Y139700D03*
X881460Y139700D03*
D21*
X856060Y125300D03*
X866060Y125300D03*
X861060Y113800D03*
D11*
X866060Y139700D03*
X856060Y139700D03*
D21*
X904160Y230300D03*
X894160Y230300D03*
X899160Y241800D03*
D11*
X894160Y209550D03*
X904160Y209550D03*
X911860Y236300D03*
X911860Y246300D03*
D21*
X916860Y116000D03*
X906860Y116000D03*
X911860Y127500D03*
D11*
X906860Y139700D03*
X916860Y139700D03*
X916860Y101600D03*
X906860Y101600D03*
D21*
X868760Y239600D03*
X878760Y239600D03*
X873760Y228100D03*
D11*
X878760Y213360D03*
X868760Y213360D03*
X868760Y248920D03*
X878760Y248920D03*
D22*
X708359Y92100D03*
X708359Y101600D03*
X708359Y111100D03*
X734361Y111100D03*
X734361Y92100D03*
D23*
X670560Y72000D03*
X670560Y55000D03*
X759460Y93100D03*
X759460Y110100D03*
D24*
X695960Y75000D03*
X695960Y52000D03*
D10*
X1040740Y50499D03*
X1031240Y50499D03*
X1021740Y50499D03*
X1021740Y76501D03*
X1040740Y76501D03*
D11*
X1056640Y58500D03*
X1056640Y68500D03*
X1026240Y38100D03*
X1036240Y38100D03*
X991870Y68500D03*
X991870Y58500D03*
X1056640Y109300D03*
X1056640Y119300D03*
X1082040Y119300D03*
X1082040Y109300D03*
X1150620Y109300D03*
X1150620Y119300D03*
D12*
X1125610Y50800D03*
X1142610Y50800D03*
D11*
X1094740Y119300D03*
X1094740Y109300D03*
X1112520Y45800D03*
X1112520Y55800D03*
X1135380Y119300D03*
X1135380Y109300D03*
D13*
X1155465Y35400D03*
X1155465Y30400D03*
X1155465Y25400D03*
X1155465Y20400D03*
X1155465Y15400D03*
X1110215Y15400D03*
X1110215Y20400D03*
X1110215Y25400D03*
X1110215Y30400D03*
X1110215Y35400D03*
D11*
X1120140Y71200D03*
X1120140Y81200D03*
X1132840Y71200D03*
X1132840Y81200D03*
X1145540Y71200D03*
X1145540Y81200D03*
X1107440Y71200D03*
X1107440Y81200D03*
D14*
X1089690Y131000D03*
X1032690Y131000D03*
D15*
X1016690Y262500D03*
X1148190Y272500D03*
D16*
X1101590Y234000D03*
X1090590Y230000D03*
X1079590Y234000D03*
X1068590Y236000D03*
X1057590Y234000D03*
X1046590Y236000D03*
X1035590Y234000D03*
X1024590Y234000D03*
D17*
X1181340Y171800D03*
X1181340Y167800D03*
X1181340Y175800D03*
X1181340Y179800D03*
X1181340Y183800D03*
X1181340Y187800D03*
D18*
X1186340Y192800D03*
X1190340Y192800D03*
X1194340Y192800D03*
X1198340Y192800D03*
X1202340Y192800D03*
X1206340Y192800D03*
D17*
X1211340Y187800D03*
X1211340Y183800D03*
X1211340Y175800D03*
X1211340Y179800D03*
X1211340Y171800D03*
X1211340Y167800D03*
D18*
X1206340Y162800D03*
X1202340Y162800D03*
X1198340Y162800D03*
X1194340Y162800D03*
X1190340Y162800D03*
X1186340Y162800D03*
D11*
X1196340Y223600D03*
X1196340Y233600D03*
X1170940Y93900D03*
X1170940Y83900D03*
X1170940Y182800D03*
X1170940Y172800D03*
D19*
X1188090Y95400D03*
X1188090Y82400D03*
D20*
X1204595Y95631D03*
X1204595Y88900D03*
X1204595Y82169D03*
D11*
X1221740Y91360D03*
X1221740Y81360D03*
D21*
X1191340Y125300D03*
X1201340Y125300D03*
X1196340Y113800D03*
D11*
X1201340Y139700D03*
X1191340Y139700D03*
D21*
X1165940Y125300D03*
X1175940Y125300D03*
X1170940Y113800D03*
D11*
X1175940Y139700D03*
X1165940Y139700D03*
D21*
X1214040Y230300D03*
X1204040Y230300D03*
X1209040Y241800D03*
D11*
X1204040Y209550D03*
X1214040Y209550D03*
X1221740Y236300D03*
X1221740Y246300D03*
D21*
X1226740Y116000D03*
X1216740Y116000D03*
X1221740Y127500D03*
D11*
X1216740Y139700D03*
X1226740Y139700D03*
X1226740Y101600D03*
X1216740Y101600D03*
D21*
X1178640Y239600D03*
X1188640Y239600D03*
X1183640Y228100D03*
D11*
X1188640Y213360D03*
X1178640Y213360D03*
X1178640Y248920D03*
X1188640Y248920D03*
D22*
X1018239Y92100D03*
X1018239Y101600D03*
X1018239Y111100D03*
X1044241Y111100D03*
X1044241Y92100D03*
D23*
X980440Y72000D03*
X980440Y55000D03*
X1069340Y93100D03*
X1069340Y110100D03*
D24*
X1005840Y75000D03*
X1005840Y52000D03*
D10*
X111100Y407369D03*
X101600Y407369D03*
X92100Y407369D03*
X92100Y433371D03*
X111100Y433371D03*
D11*
X127000Y415370D03*
X127000Y425370D03*
X96600Y394970D03*
X106600Y394970D03*
X62230Y425370D03*
X62230Y415370D03*
X127000Y466170D03*
X127000Y476170D03*
X152400Y476170D03*
X152400Y466170D03*
X220980Y466170D03*
X220980Y476170D03*
D12*
X195970Y407670D03*
X212970Y407670D03*
D11*
X165100Y476170D03*
X165100Y466170D03*
X182880Y402670D03*
X182880Y412670D03*
X205740Y476170D03*
X205740Y466170D03*
D13*
X225825Y392270D03*
X225825Y387270D03*
X225825Y382270D03*
X225825Y377270D03*
X225825Y372270D03*
X180575Y372270D03*
X180575Y377270D03*
X180575Y382270D03*
X180575Y387270D03*
X180575Y392270D03*
D11*
X190500Y428070D03*
X190500Y438070D03*
X203200Y428070D03*
X203200Y438070D03*
X215900Y428070D03*
X215900Y438070D03*
X177800Y428070D03*
X177800Y438070D03*
D14*
X160050Y487870D03*
X103050Y487870D03*
D15*
X87050Y619370D03*
X218550Y629370D03*
D16*
X171950Y590870D03*
X160950Y586870D03*
X149950Y590870D03*
X138950Y592870D03*
X127950Y590870D03*
X116950Y592870D03*
X105950Y590870D03*
X94950Y590870D03*
D17*
X251700Y528670D03*
X251700Y524670D03*
X251700Y532670D03*
X251700Y536670D03*
X251700Y540670D03*
X251700Y544670D03*
D18*
X256700Y549670D03*
X260700Y549670D03*
X264700Y549670D03*
X268700Y549670D03*
X272700Y549670D03*
X276700Y549670D03*
D17*
X281700Y544670D03*
X281700Y540670D03*
X281700Y532670D03*
X281700Y536670D03*
X281700Y528670D03*
X281700Y524670D03*
D18*
X276700Y519670D03*
X272700Y519670D03*
X268700Y519670D03*
X264700Y519670D03*
X260700Y519670D03*
X256700Y519670D03*
D11*
X266700Y580470D03*
X266700Y590470D03*
X241300Y450770D03*
X241300Y440770D03*
X241300Y539670D03*
X241300Y529670D03*
D19*
X258450Y452270D03*
X258450Y439270D03*
D20*
X274955Y452501D03*
X274955Y445770D03*
X274955Y439039D03*
D11*
X292100Y448230D03*
X292100Y438230D03*
D21*
X261700Y482170D03*
X271700Y482170D03*
X266700Y470670D03*
D11*
X271700Y496570D03*
X261700Y496570D03*
D21*
X236300Y482170D03*
X246300Y482170D03*
X241300Y470670D03*
D11*
X246300Y496570D03*
X236300Y496570D03*
D21*
X284400Y587170D03*
X274400Y587170D03*
X279400Y598670D03*
D11*
X274400Y566420D03*
X284400Y566420D03*
X292100Y593170D03*
X292100Y603170D03*
D21*
X297100Y472870D03*
X287100Y472870D03*
X292100Y484370D03*
D11*
X287100Y496570D03*
X297100Y496570D03*
X297100Y458470D03*
X287100Y458470D03*
D21*
X249000Y596470D03*
X259000Y596470D03*
X254000Y584970D03*
D11*
X259000Y570230D03*
X249000Y570230D03*
X249000Y605790D03*
X259000Y605790D03*
D22*
X88599Y448970D03*
X88599Y458470D03*
X88599Y467970D03*
X114601Y467970D03*
X114601Y448970D03*
D23*
X50800Y428870D03*
X50800Y411870D03*
X139700Y449970D03*
X139700Y466970D03*
D24*
X76200Y431870D03*
X76200Y408870D03*
D10*
X420980Y407369D03*
X411480Y407369D03*
X401980Y407369D03*
X401980Y433371D03*
X420980Y433371D03*
D11*
X436880Y415370D03*
X436880Y425370D03*
X406480Y394970D03*
X416480Y394970D03*
X372110Y425370D03*
X372110Y415370D03*
X436880Y466170D03*
X436880Y476170D03*
X462280Y476170D03*
X462280Y466170D03*
X530860Y466170D03*
X530860Y476170D03*
D12*
X505850Y407670D03*
X522850Y407670D03*
D11*
X474980Y476170D03*
X474980Y466170D03*
X492760Y402670D03*
X492760Y412670D03*
X515620Y476170D03*
X515620Y466170D03*
D13*
X535705Y392270D03*
X535705Y387270D03*
X535705Y382270D03*
X535705Y377270D03*
X535705Y372270D03*
X490455Y372270D03*
X490455Y377270D03*
X490455Y382270D03*
X490455Y387270D03*
X490455Y392270D03*
D11*
X500380Y428070D03*
X500380Y438070D03*
X513080Y428070D03*
X513080Y438070D03*
X525780Y428070D03*
X525780Y438070D03*
X487680Y428070D03*
X487680Y438070D03*
D14*
X469930Y487870D03*
X412930Y487870D03*
D15*
X396930Y619370D03*
X528430Y629370D03*
D16*
X481830Y590870D03*
X470830Y586870D03*
X459830Y590870D03*
X448830Y592870D03*
X437830Y590870D03*
X426830Y592870D03*
X415830Y590870D03*
X404830Y590870D03*
D17*
X561580Y528670D03*
X561580Y524670D03*
X561580Y532670D03*
X561580Y536670D03*
X561580Y540670D03*
X561580Y544670D03*
D18*
X566580Y549670D03*
X570580Y549670D03*
X574580Y549670D03*
X578580Y549670D03*
X582580Y549670D03*
X586580Y549670D03*
D17*
X591580Y544670D03*
X591580Y540670D03*
X591580Y532670D03*
X591580Y536670D03*
X591580Y528670D03*
X591580Y524670D03*
D18*
X586580Y519670D03*
X582580Y519670D03*
X578580Y519670D03*
X574580Y519670D03*
X570580Y519670D03*
X566580Y519670D03*
D11*
X576580Y580470D03*
X576580Y590470D03*
X551180Y450770D03*
X551180Y440770D03*
X551180Y539670D03*
X551180Y529670D03*
D19*
X568330Y452270D03*
X568330Y439270D03*
D20*
X584835Y452501D03*
X584835Y445770D03*
X584835Y439039D03*
D11*
X601980Y448230D03*
X601980Y438230D03*
D21*
X571580Y482170D03*
X581580Y482170D03*
X576580Y470670D03*
D11*
X581580Y496570D03*
X571580Y496570D03*
D21*
X546180Y482170D03*
X556180Y482170D03*
X551180Y470670D03*
D11*
X556180Y496570D03*
X546180Y496570D03*
D21*
X594280Y587170D03*
X584280Y587170D03*
X589280Y598670D03*
D11*
X584280Y566420D03*
X594280Y566420D03*
X601980Y593170D03*
X601980Y603170D03*
D21*
X606980Y472870D03*
X596980Y472870D03*
X601980Y484370D03*
D11*
X596980Y496570D03*
X606980Y496570D03*
X606980Y458470D03*
X596980Y458470D03*
D21*
X558880Y596470D03*
X568880Y596470D03*
X563880Y584970D03*
D11*
X568880Y570230D03*
X558880Y570230D03*
X558880Y605790D03*
X568880Y605790D03*
D22*
X398479Y448970D03*
X398479Y458470D03*
X398479Y467970D03*
X424481Y467970D03*
X424481Y448970D03*
D23*
X360680Y428870D03*
X360680Y411870D03*
X449580Y449970D03*
X449580Y466970D03*
D24*
X386080Y431870D03*
X386080Y408870D03*
D10*
X730860Y407369D03*
X721360Y407369D03*
X711860Y407369D03*
X711860Y433371D03*
X730860Y433371D03*
D11*
X746760Y415370D03*
X746760Y425370D03*
X716360Y394970D03*
X726360Y394970D03*
X681990Y425370D03*
X681990Y415370D03*
X746760Y466170D03*
X746760Y476170D03*
X772160Y476170D03*
X772160Y466170D03*
X840740Y466170D03*
X840740Y476170D03*
D12*
X815730Y407670D03*
X832730Y407670D03*
D11*
X784860Y476170D03*
X784860Y466170D03*
X802640Y402670D03*
X802640Y412670D03*
X825500Y476170D03*
X825500Y466170D03*
D13*
X845585Y392270D03*
X845585Y387270D03*
X845585Y382270D03*
X845585Y377270D03*
X845585Y372270D03*
X800335Y372270D03*
X800335Y377270D03*
X800335Y382270D03*
X800335Y387270D03*
X800335Y392270D03*
D11*
X810260Y428070D03*
X810260Y438070D03*
X822960Y428070D03*
X822960Y438070D03*
X835660Y428070D03*
X835660Y438070D03*
X797560Y428070D03*
X797560Y438070D03*
D14*
X779810Y487870D03*
X722810Y487870D03*
D15*
X706810Y619370D03*
X838310Y629370D03*
D16*
X791710Y590870D03*
X780710Y586870D03*
X769710Y590870D03*
X758710Y592870D03*
X747710Y590870D03*
X736710Y592870D03*
X725710Y590870D03*
X714710Y590870D03*
D17*
X871460Y528670D03*
X871460Y524670D03*
X871460Y532670D03*
X871460Y536670D03*
X871460Y540670D03*
X871460Y544670D03*
D18*
X876460Y549670D03*
X880460Y549670D03*
X884460Y549670D03*
X888460Y549670D03*
X892460Y549670D03*
X896460Y549670D03*
D17*
X901460Y544670D03*
X901460Y540670D03*
X901460Y532670D03*
X901460Y536670D03*
X901460Y528670D03*
X901460Y524670D03*
D18*
X896460Y519670D03*
X892460Y519670D03*
X888460Y519670D03*
X884460Y519670D03*
X880460Y519670D03*
X876460Y519670D03*
D11*
X886460Y580470D03*
X886460Y590470D03*
X861060Y450770D03*
X861060Y440770D03*
X861060Y539670D03*
X861060Y529670D03*
D19*
X878210Y452270D03*
X878210Y439270D03*
D20*
X894715Y452501D03*
X894715Y445770D03*
X894715Y439039D03*
D11*
X911860Y448230D03*
X911860Y438230D03*
D21*
X881460Y482170D03*
X891460Y482170D03*
X886460Y470670D03*
D11*
X891460Y496570D03*
X881460Y496570D03*
D21*
X856060Y482170D03*
X866060Y482170D03*
X861060Y470670D03*
D11*
X866060Y496570D03*
X856060Y496570D03*
D21*
X904160Y587170D03*
X894160Y587170D03*
X899160Y598670D03*
D11*
X894160Y566420D03*
X904160Y566420D03*
X911860Y593170D03*
X911860Y603170D03*
D21*
X916860Y472870D03*
X906860Y472870D03*
X911860Y484370D03*
D11*
X906860Y496570D03*
X916860Y496570D03*
X916860Y458470D03*
X906860Y458470D03*
D21*
X868760Y596470D03*
X878760Y596470D03*
X873760Y584970D03*
D11*
X878760Y570230D03*
X868760Y570230D03*
X868760Y605790D03*
X878760Y605790D03*
D22*
X708359Y448970D03*
X708359Y458470D03*
X708359Y467970D03*
X734361Y467970D03*
X734361Y448970D03*
D23*
X670560Y428870D03*
X670560Y411870D03*
X759460Y449970D03*
X759460Y466970D03*
D24*
X695960Y431870D03*
X695960Y408870D03*
D10*
X1040740Y407369D03*
X1031240Y407369D03*
X1021740Y407369D03*
X1021740Y433371D03*
X1040740Y433371D03*
D11*
X1056640Y415370D03*
X1056640Y425370D03*
X1026240Y394970D03*
X1036240Y394970D03*
X991870Y425370D03*
X991870Y415370D03*
X1056640Y466170D03*
X1056640Y476170D03*
X1082040Y476170D03*
X1082040Y466170D03*
X1150620Y466170D03*
X1150620Y476170D03*
D12*
X1125610Y407670D03*
X1142610Y407670D03*
D11*
X1094740Y476170D03*
X1094740Y466170D03*
X1112520Y402670D03*
X1112520Y412670D03*
X1135380Y476170D03*
X1135380Y466170D03*
D13*
X1155465Y392270D03*
X1155465Y387270D03*
X1155465Y382270D03*
X1155465Y377270D03*
X1155465Y372270D03*
X1110215Y372270D03*
X1110215Y377270D03*
X1110215Y382270D03*
X1110215Y387270D03*
X1110215Y392270D03*
D11*
X1120140Y428070D03*
X1120140Y438070D03*
X1132840Y428070D03*
X1132840Y438070D03*
X1145540Y428070D03*
X1145540Y438070D03*
X1107440Y428070D03*
X1107440Y438070D03*
D14*
X1089690Y487870D03*
X1032690Y487870D03*
D15*
X1016690Y619370D03*
X1148190Y629370D03*
D16*
X1101590Y590870D03*
X1090590Y586870D03*
X1079590Y590870D03*
X1068590Y592870D03*
X1057590Y590870D03*
X1046590Y592870D03*
X1035590Y590870D03*
X1024590Y590870D03*
D17*
X1181340Y528670D03*
X1181340Y524670D03*
X1181340Y532670D03*
X1181340Y536670D03*
X1181340Y540670D03*
X1181340Y544670D03*
D18*
X1186340Y549670D03*
X1190340Y549670D03*
X1194340Y549670D03*
X1198340Y549670D03*
X1202340Y549670D03*
X1206340Y549670D03*
D17*
X1211340Y544670D03*
X1211340Y540670D03*
X1211340Y532670D03*
X1211340Y536670D03*
X1211340Y528670D03*
X1211340Y524670D03*
D18*
X1206340Y519670D03*
X1202340Y519670D03*
X1198340Y519670D03*
X1194340Y519670D03*
X1190340Y519670D03*
X1186340Y519670D03*
D11*
X1196340Y580470D03*
X1196340Y590470D03*
X1170940Y450770D03*
X1170940Y440770D03*
X1170940Y539670D03*
X1170940Y529670D03*
D19*
X1188090Y452270D03*
X1188090Y439270D03*
D20*
X1204595Y452501D03*
X1204595Y445770D03*
X1204595Y439039D03*
D11*
X1221740Y448230D03*
X1221740Y438230D03*
D21*
X1191340Y482170D03*
X1201340Y482170D03*
X1196340Y470670D03*
D11*
X1201340Y496570D03*
X1191340Y496570D03*
D21*
X1165940Y482170D03*
X1175940Y482170D03*
X1170940Y470670D03*
D11*
X1175940Y496570D03*
X1165940Y496570D03*
D21*
X1214040Y587170D03*
X1204040Y587170D03*
X1209040Y598670D03*
D11*
X1204040Y566420D03*
X1214040Y566420D03*
X1221740Y593170D03*
X1221740Y603170D03*
D21*
X1226740Y472870D03*
X1216740Y472870D03*
X1221740Y484370D03*
D11*
X1216740Y496570D03*
X1226740Y496570D03*
X1226740Y458470D03*
X1216740Y458470D03*
D21*
X1178640Y596470D03*
X1188640Y596470D03*
X1183640Y584970D03*
D11*
X1188640Y570230D03*
X1178640Y570230D03*
X1178640Y605790D03*
X1188640Y605790D03*
D22*
X1018239Y448970D03*
X1018239Y458470D03*
X1018239Y467970D03*
X1044241Y467970D03*
X1044241Y448970D03*
D23*
X980440Y428870D03*
X980440Y411870D03*
X1069340Y449970D03*
X1069340Y466970D03*
D24*
X1005840Y431870D03*
X1005840Y408870D03*
D10*
X111100Y764239D03*
X101600Y764239D03*
X92100Y764239D03*
X92100Y790241D03*
X111100Y790241D03*
D11*
X127000Y772240D03*
X127000Y782240D03*
X96600Y751840D03*
X106600Y751840D03*
X62230Y782240D03*
X62230Y772240D03*
X127000Y823040D03*
X127000Y833040D03*
X152400Y833040D03*
X152400Y823040D03*
X220980Y823040D03*
X220980Y833040D03*
D12*
X195970Y764540D03*
X212970Y764540D03*
D11*
X165100Y833040D03*
X165100Y823040D03*
X182880Y759540D03*
X182880Y769540D03*
X205740Y833040D03*
X205740Y823040D03*
D13*
X225825Y749140D03*
X225825Y744140D03*
X225825Y739140D03*
X225825Y734140D03*
X225825Y729140D03*
X180575Y729140D03*
X180575Y734140D03*
X180575Y739140D03*
X180575Y744140D03*
X180575Y749140D03*
D11*
X190500Y784940D03*
X190500Y794940D03*
X203200Y784940D03*
X203200Y794940D03*
X215900Y784940D03*
X215900Y794940D03*
X177800Y784940D03*
X177800Y794940D03*
D14*
X160050Y844740D03*
X103050Y844740D03*
D15*
X87050Y976240D03*
X218550Y986240D03*
D16*
X171950Y947740D03*
X160950Y943740D03*
X149950Y947740D03*
X138950Y949740D03*
X127950Y947740D03*
X116950Y949740D03*
X105950Y947740D03*
X94950Y947740D03*
D17*
X251700Y885540D03*
X251700Y881540D03*
X251700Y889540D03*
X251700Y893540D03*
X251700Y897540D03*
X251700Y901540D03*
D18*
X256700Y906540D03*
X260700Y906540D03*
X264700Y906540D03*
X268700Y906540D03*
X272700Y906540D03*
X276700Y906540D03*
D17*
X281700Y901540D03*
X281700Y897540D03*
X281700Y889540D03*
X281700Y893540D03*
X281700Y885540D03*
X281700Y881540D03*
D18*
X276700Y876540D03*
X272700Y876540D03*
X268700Y876540D03*
X264700Y876540D03*
X260700Y876540D03*
X256700Y876540D03*
D11*
X266700Y937340D03*
X266700Y947340D03*
X241300Y807640D03*
X241300Y797640D03*
X241300Y896540D03*
X241300Y886540D03*
D19*
X258450Y809140D03*
X258450Y796140D03*
D20*
X274955Y809371D03*
X274955Y802640D03*
X274955Y795909D03*
D11*
X292100Y805100D03*
X292100Y795100D03*
D21*
X261700Y839040D03*
X271700Y839040D03*
X266700Y827540D03*
D11*
X271700Y853440D03*
X261700Y853440D03*
D21*
X236300Y839040D03*
X246300Y839040D03*
X241300Y827540D03*
D11*
X246300Y853440D03*
X236300Y853440D03*
D21*
X284400Y944040D03*
X274400Y944040D03*
X279400Y955540D03*
D11*
X274400Y923290D03*
X284400Y923290D03*
X292100Y950040D03*
X292100Y960040D03*
D21*
X297100Y829740D03*
X287100Y829740D03*
X292100Y841240D03*
D11*
X287100Y853440D03*
X297100Y853440D03*
X297100Y815340D03*
X287100Y815340D03*
D21*
X249000Y953340D03*
X259000Y953340D03*
X254000Y941840D03*
D11*
X259000Y927100D03*
X249000Y927100D03*
X249000Y962660D03*
X259000Y962660D03*
D22*
X88599Y805840D03*
X88599Y815340D03*
X88599Y824840D03*
X114601Y824840D03*
X114601Y805840D03*
D23*
X50800Y785740D03*
X50800Y768740D03*
X139700Y806840D03*
X139700Y823840D03*
D24*
X76200Y788740D03*
X76200Y765740D03*
D10*
X420980Y764239D03*
X411480Y764239D03*
X401980Y764239D03*
X401980Y790241D03*
X420980Y790241D03*
D11*
X436880Y772240D03*
X436880Y782240D03*
X406480Y751840D03*
X416480Y751840D03*
X372110Y782240D03*
X372110Y772240D03*
X436880Y823040D03*
X436880Y833040D03*
X462280Y833040D03*
X462280Y823040D03*
X530860Y823040D03*
X530860Y833040D03*
D12*
X505850Y764540D03*
X522850Y764540D03*
D11*
X474980Y833040D03*
X474980Y823040D03*
X492760Y759540D03*
X492760Y769540D03*
X515620Y833040D03*
X515620Y823040D03*
D13*
X535705Y749140D03*
X535705Y744140D03*
X535705Y739140D03*
X535705Y734140D03*
X535705Y729140D03*
X490455Y729140D03*
X490455Y734140D03*
X490455Y739140D03*
X490455Y744140D03*
X490455Y749140D03*
D11*
X500380Y784940D03*
X500380Y794940D03*
X513080Y784940D03*
X513080Y794940D03*
X525780Y784940D03*
X525780Y794940D03*
X487680Y784940D03*
X487680Y794940D03*
D14*
X469930Y844740D03*
X412930Y844740D03*
D15*
X396930Y976240D03*
X528430Y986240D03*
D16*
X481830Y947740D03*
X470830Y943740D03*
X459830Y947740D03*
X448830Y949740D03*
X437830Y947740D03*
X426830Y949740D03*
X415830Y947740D03*
X404830Y947740D03*
D17*
X561580Y885540D03*
X561580Y881540D03*
X561580Y889540D03*
X561580Y893540D03*
X561580Y897540D03*
X561580Y901540D03*
D18*
X566580Y906540D03*
X570580Y906540D03*
X574580Y906540D03*
X578580Y906540D03*
X582580Y906540D03*
X586580Y906540D03*
D17*
X591580Y901540D03*
X591580Y897540D03*
X591580Y889540D03*
X591580Y893540D03*
X591580Y885540D03*
X591580Y881540D03*
D18*
X586580Y876540D03*
X582580Y876540D03*
X578580Y876540D03*
X574580Y876540D03*
X570580Y876540D03*
X566580Y876540D03*
D11*
X576580Y937340D03*
X576580Y947340D03*
X551180Y807640D03*
X551180Y797640D03*
X551180Y896540D03*
X551180Y886540D03*
D19*
X568330Y809140D03*
X568330Y796140D03*
D20*
X584835Y809371D03*
X584835Y802640D03*
X584835Y795909D03*
D11*
X601980Y805100D03*
X601980Y795100D03*
D21*
X571580Y839040D03*
X581580Y839040D03*
X576580Y827540D03*
D11*
X581580Y853440D03*
X571580Y853440D03*
D21*
X546180Y839040D03*
X556180Y839040D03*
X551180Y827540D03*
D11*
X556180Y853440D03*
X546180Y853440D03*
D21*
X594280Y944040D03*
X584280Y944040D03*
X589280Y955540D03*
D11*
X584280Y923290D03*
X594280Y923290D03*
X601980Y950040D03*
X601980Y960040D03*
D21*
X606980Y829740D03*
X596980Y829740D03*
X601980Y841240D03*
D11*
X596980Y853440D03*
X606980Y853440D03*
X606980Y815340D03*
X596980Y815340D03*
D21*
X558880Y953340D03*
X568880Y953340D03*
X563880Y941840D03*
D11*
X568880Y927100D03*
X558880Y927100D03*
X558880Y962660D03*
X568880Y962660D03*
D22*
X398479Y805840D03*
X398479Y815340D03*
X398479Y824840D03*
X424481Y824840D03*
X424481Y805840D03*
D23*
X360680Y785740D03*
X360680Y768740D03*
X449580Y806840D03*
X449580Y823840D03*
D24*
X386080Y788740D03*
X386080Y765740D03*
D10*
X730860Y764239D03*
X721360Y764239D03*
X711860Y764239D03*
X711860Y790241D03*
X730860Y790241D03*
D11*
X746760Y772240D03*
X746760Y782240D03*
X716360Y751840D03*
X726360Y751840D03*
X681990Y782240D03*
X681990Y772240D03*
X746760Y823040D03*
X746760Y833040D03*
X772160Y833040D03*
X772160Y823040D03*
X840740Y823040D03*
X840740Y833040D03*
D12*
X815730Y764540D03*
X832730Y764540D03*
D11*
X784860Y833040D03*
X784860Y823040D03*
X802640Y759540D03*
X802640Y769540D03*
X825500Y833040D03*
X825500Y823040D03*
D13*
X845585Y749140D03*
X845585Y744140D03*
X845585Y739140D03*
X845585Y734140D03*
X845585Y729140D03*
X800335Y729140D03*
X800335Y734140D03*
X800335Y739140D03*
X800335Y744140D03*
X800335Y749140D03*
D11*
X810260Y784940D03*
X810260Y794940D03*
X822960Y784940D03*
X822960Y794940D03*
X835660Y784940D03*
X835660Y794940D03*
X797560Y784940D03*
X797560Y794940D03*
D14*
X779810Y844740D03*
X722810Y844740D03*
D15*
X706810Y976240D03*
X838310Y986240D03*
D16*
X791710Y947740D03*
X780710Y943740D03*
X769710Y947740D03*
X758710Y949740D03*
X747710Y947740D03*
X736710Y949740D03*
X725710Y947740D03*
X714710Y947740D03*
D17*
X871460Y885540D03*
X871460Y881540D03*
X871460Y889540D03*
X871460Y893540D03*
X871460Y897540D03*
X871460Y901540D03*
D18*
X876460Y906540D03*
X880460Y906540D03*
X884460Y906540D03*
X888460Y906540D03*
X892460Y906540D03*
X896460Y906540D03*
D17*
X901460Y901540D03*
X901460Y897540D03*
X901460Y889540D03*
X901460Y893540D03*
X901460Y885540D03*
X901460Y881540D03*
D18*
X896460Y876540D03*
X892460Y876540D03*
X888460Y876540D03*
X884460Y876540D03*
X880460Y876540D03*
X876460Y876540D03*
D11*
X886460Y937340D03*
X886460Y947340D03*
X861060Y807640D03*
X861060Y797640D03*
X861060Y896540D03*
X861060Y886540D03*
D19*
X878210Y809140D03*
X878210Y796140D03*
D20*
X894715Y809371D03*
X894715Y802640D03*
X894715Y795909D03*
D11*
X911860Y805100D03*
X911860Y795100D03*
D21*
X881460Y839040D03*
X891460Y839040D03*
X886460Y827540D03*
D11*
X891460Y853440D03*
X881460Y853440D03*
D21*
X856060Y839040D03*
X866060Y839040D03*
X861060Y827540D03*
D11*
X866060Y853440D03*
X856060Y853440D03*
D21*
X904160Y944040D03*
X894160Y944040D03*
X899160Y955540D03*
D11*
X894160Y923290D03*
X904160Y923290D03*
X911860Y950040D03*
X911860Y960040D03*
D21*
X916860Y829740D03*
X906860Y829740D03*
X911860Y841240D03*
D11*
X906860Y853440D03*
X916860Y853440D03*
X916860Y815340D03*
X906860Y815340D03*
D21*
X868760Y953340D03*
X878760Y953340D03*
X873760Y941840D03*
D11*
X878760Y927100D03*
X868760Y927100D03*
X868760Y962660D03*
X878760Y962660D03*
D22*
X708359Y805840D03*
X708359Y815340D03*
X708359Y824840D03*
X734361Y824840D03*
X734361Y805840D03*
D23*
X670560Y785740D03*
X670560Y768740D03*
X759460Y806840D03*
X759460Y823840D03*
D24*
X695960Y788740D03*
X695960Y765740D03*
D10*
X1040740Y764239D03*
X1031240Y764239D03*
X1021740Y764239D03*
X1021740Y790241D03*
X1040740Y790241D03*
D11*
X1056640Y772240D03*
X1056640Y782240D03*
X1026240Y751840D03*
X1036240Y751840D03*
X991870Y782240D03*
X991870Y772240D03*
X1056640Y823040D03*
X1056640Y833040D03*
X1082040Y833040D03*
X1082040Y823040D03*
X1150620Y823040D03*
X1150620Y833040D03*
D12*
X1125610Y764540D03*
X1142610Y764540D03*
D11*
X1094740Y833040D03*
X1094740Y823040D03*
X1112520Y759540D03*
X1112520Y769540D03*
X1135380Y833040D03*
X1135380Y823040D03*
D13*
X1155465Y749140D03*
X1155465Y744140D03*
X1155465Y739140D03*
X1155465Y734140D03*
X1155465Y729140D03*
X1110215Y729140D03*
X1110215Y734140D03*
X1110215Y739140D03*
X1110215Y744140D03*
X1110215Y749140D03*
D11*
X1120140Y784940D03*
X1120140Y794940D03*
X1132840Y784940D03*
X1132840Y794940D03*
X1145540Y784940D03*
X1145540Y794940D03*
X1107440Y784940D03*
X1107440Y794940D03*
D14*
X1089690Y844740D03*
X1032690Y844740D03*
D15*
X1016690Y976240D03*
X1148190Y986240D03*
D16*
X1101590Y947740D03*
X1090590Y943740D03*
X1079590Y947740D03*
X1068590Y949740D03*
X1057590Y947740D03*
X1046590Y949740D03*
X1035590Y947740D03*
X1024590Y947740D03*
D17*
X1181340Y885540D03*
X1181340Y881540D03*
X1181340Y889540D03*
X1181340Y893540D03*
X1181340Y897540D03*
X1181340Y901540D03*
D18*
X1186340Y906540D03*
X1190340Y906540D03*
X1194340Y906540D03*
X1198340Y906540D03*
X1202340Y906540D03*
X1206340Y906540D03*
D17*
X1211340Y901540D03*
X1211340Y897540D03*
X1211340Y889540D03*
X1211340Y893540D03*
X1211340Y885540D03*
X1211340Y881540D03*
D18*
X1206340Y876540D03*
X1202340Y876540D03*
X1198340Y876540D03*
X1194340Y876540D03*
X1190340Y876540D03*
X1186340Y876540D03*
D11*
X1196340Y937340D03*
X1196340Y947340D03*
X1170940Y807640D03*
X1170940Y797640D03*
X1170940Y896540D03*
X1170940Y886540D03*
D19*
X1188090Y809140D03*
X1188090Y796140D03*
D20*
X1204595Y809371D03*
X1204595Y802640D03*
X1204595Y795909D03*
D11*
X1221740Y805100D03*
X1221740Y795100D03*
D21*
X1191340Y839040D03*
X1201340Y839040D03*
X1196340Y827540D03*
D11*
X1201340Y853440D03*
X1191340Y853440D03*
D21*
X1165940Y839040D03*
X1175940Y839040D03*
X1170940Y827540D03*
D11*
X1175940Y853440D03*
X1165940Y853440D03*
D21*
X1214040Y944040D03*
X1204040Y944040D03*
X1209040Y955540D03*
D11*
X1204040Y923290D03*
X1214040Y923290D03*
X1221740Y950040D03*
X1221740Y960040D03*
D21*
X1226740Y829740D03*
X1216740Y829740D03*
X1221740Y841240D03*
D11*
X1216740Y853440D03*
X1226740Y853440D03*
X1226740Y815340D03*
X1216740Y815340D03*
D21*
X1178640Y953340D03*
X1188640Y953340D03*
X1183640Y941840D03*
D11*
X1188640Y927100D03*
X1178640Y927100D03*
X1178640Y962660D03*
X1188640Y962660D03*
D22*
X1018239Y805840D03*
X1018239Y815340D03*
X1018239Y824840D03*
X1044241Y824840D03*
X1044241Y805840D03*
D23*
X980440Y785740D03*
X980440Y768740D03*
X1069340Y806840D03*
X1069340Y823840D03*
D24*
X1005840Y788740D03*
X1005840Y765740D03*
D10*
X111100Y1121109D03*
X101600Y1121109D03*
X92100Y1121109D03*
X92100Y1147111D03*
X111100Y1147111D03*
D11*
X127000Y1129110D03*
X127000Y1139110D03*
X96600Y1108710D03*
X106600Y1108710D03*
X62230Y1139110D03*
X62230Y1129110D03*
X127000Y1179910D03*
X127000Y1189910D03*
X152400Y1189910D03*
X152400Y1179910D03*
X220980Y1179910D03*
X220980Y1189910D03*
D12*
X195970Y1121410D03*
X212970Y1121410D03*
D11*
X165100Y1189910D03*
X165100Y1179910D03*
X182880Y1116410D03*
X182880Y1126410D03*
X205740Y1189910D03*
X205740Y1179910D03*
D13*
X225825Y1106010D03*
X225825Y1101010D03*
X225825Y1096010D03*
X225825Y1091010D03*
X225825Y1086010D03*
X180575Y1086010D03*
X180575Y1091010D03*
X180575Y1096010D03*
X180575Y1101010D03*
X180575Y1106010D03*
D11*
X190500Y1141810D03*
X190500Y1151810D03*
X203200Y1141810D03*
X203200Y1151810D03*
X215900Y1141810D03*
X215900Y1151810D03*
X177800Y1141810D03*
X177800Y1151810D03*
D14*
X160050Y1201610D03*
X103050Y1201610D03*
D15*
X87050Y1333110D03*
X218550Y1343110D03*
D16*
X171950Y1304610D03*
X160950Y1300610D03*
X149950Y1304610D03*
X138950Y1306610D03*
X127950Y1304610D03*
X116950Y1306610D03*
X105950Y1304610D03*
X94950Y1304610D03*
D17*
X251700Y1242410D03*
X251700Y1238410D03*
X251700Y1246410D03*
X251700Y1250410D03*
X251700Y1254410D03*
X251700Y1258410D03*
D18*
X256700Y1263410D03*
X260700Y1263410D03*
X264700Y1263410D03*
X268700Y1263410D03*
X272700Y1263410D03*
X276700Y1263410D03*
D17*
X281700Y1258410D03*
X281700Y1254410D03*
X281700Y1246410D03*
X281700Y1250410D03*
X281700Y1242410D03*
X281700Y1238410D03*
D18*
X276700Y1233410D03*
X272700Y1233410D03*
X268700Y1233410D03*
X264700Y1233410D03*
X260700Y1233410D03*
X256700Y1233410D03*
D11*
X266700Y1294210D03*
X266700Y1304210D03*
X241300Y1164510D03*
X241300Y1154510D03*
X241300Y1253410D03*
X241300Y1243410D03*
D19*
X258450Y1166010D03*
X258450Y1153010D03*
D20*
X274955Y1166241D03*
X274955Y1159510D03*
X274955Y1152779D03*
D11*
X292100Y1161970D03*
X292100Y1151970D03*
D21*
X261700Y1195910D03*
X271700Y1195910D03*
X266700Y1184410D03*
D11*
X271700Y1210310D03*
X261700Y1210310D03*
D21*
X236300Y1195910D03*
X246300Y1195910D03*
X241300Y1184410D03*
D11*
X246300Y1210310D03*
X236300Y1210310D03*
D21*
X284400Y1300910D03*
X274400Y1300910D03*
X279400Y1312410D03*
D11*
X274400Y1280160D03*
X284400Y1280160D03*
X292100Y1306910D03*
X292100Y1316910D03*
D21*
X297100Y1186610D03*
X287100Y1186610D03*
X292100Y1198110D03*
D11*
X287100Y1210310D03*
X297100Y1210310D03*
X297100Y1172210D03*
X287100Y1172210D03*
D21*
X249000Y1310210D03*
X259000Y1310210D03*
X254000Y1298710D03*
D11*
X259000Y1283970D03*
X249000Y1283970D03*
X249000Y1319530D03*
X259000Y1319530D03*
D22*
X88599Y1162710D03*
X88599Y1172210D03*
X88599Y1181710D03*
X114601Y1181710D03*
X114601Y1162710D03*
D23*
X50800Y1142610D03*
X50800Y1125610D03*
X139700Y1163710D03*
X139700Y1180710D03*
D24*
X76200Y1145610D03*
X76200Y1122610D03*
D10*
X420980Y1121109D03*
X411480Y1121109D03*
X401980Y1121109D03*
X401980Y1147111D03*
X420980Y1147111D03*
D11*
X436880Y1129110D03*
X436880Y1139110D03*
X406480Y1108710D03*
X416480Y1108710D03*
X372110Y1139110D03*
X372110Y1129110D03*
X436880Y1179910D03*
X436880Y1189910D03*
X462280Y1189910D03*
X462280Y1179910D03*
X530860Y1179910D03*
X530860Y1189910D03*
D12*
X505850Y1121410D03*
X522850Y1121410D03*
D11*
X474980Y1189910D03*
X474980Y1179910D03*
X492760Y1116410D03*
X492760Y1126410D03*
X515620Y1189910D03*
X515620Y1179910D03*
D13*
X535705Y1106010D03*
X535705Y1101010D03*
X535705Y1096010D03*
X535705Y1091010D03*
X535705Y1086010D03*
X490455Y1086010D03*
X490455Y1091010D03*
X490455Y1096010D03*
X490455Y1101010D03*
X490455Y1106010D03*
D11*
X500380Y1141810D03*
X500380Y1151810D03*
X513080Y1141810D03*
X513080Y1151810D03*
X525780Y1141810D03*
X525780Y1151810D03*
X487680Y1141810D03*
X487680Y1151810D03*
D14*
X469930Y1201610D03*
X412930Y1201610D03*
D15*
X396930Y1333110D03*
X528430Y1343110D03*
D16*
X481830Y1304610D03*
X470830Y1300610D03*
X459830Y1304610D03*
X448830Y1306610D03*
X437830Y1304610D03*
X426830Y1306610D03*
X415830Y1304610D03*
X404830Y1304610D03*
D17*
X561580Y1242410D03*
X561580Y1238410D03*
X561580Y1246410D03*
X561580Y1250410D03*
X561580Y1254410D03*
X561580Y1258410D03*
D18*
X566580Y1263410D03*
X570580Y1263410D03*
X574580Y1263410D03*
X578580Y1263410D03*
X582580Y1263410D03*
X586580Y1263410D03*
D17*
X591580Y1258410D03*
X591580Y1254410D03*
X591580Y1246410D03*
X591580Y1250410D03*
X591580Y1242410D03*
X591580Y1238410D03*
D18*
X586580Y1233410D03*
X582580Y1233410D03*
X578580Y1233410D03*
X574580Y1233410D03*
X570580Y1233410D03*
X566580Y1233410D03*
D11*
X576580Y1294210D03*
X576580Y1304210D03*
X551180Y1164510D03*
X551180Y1154510D03*
X551180Y1253410D03*
X551180Y1243410D03*
D19*
X568330Y1166010D03*
X568330Y1153010D03*
D20*
X584835Y1166241D03*
X584835Y1159510D03*
X584835Y1152779D03*
D11*
X601980Y1161970D03*
X601980Y1151970D03*
D21*
X571580Y1195910D03*
X581580Y1195910D03*
X576580Y1184410D03*
D11*
X581580Y1210310D03*
X571580Y1210310D03*
D21*
X546180Y1195910D03*
X556180Y1195910D03*
X551180Y1184410D03*
D11*
X556180Y1210310D03*
X546180Y1210310D03*
D21*
X594280Y1300910D03*
X584280Y1300910D03*
X589280Y1312410D03*
D11*
X584280Y1280160D03*
X594280Y1280160D03*
X601980Y1306910D03*
X601980Y1316910D03*
D21*
X606980Y1186610D03*
X596980Y1186610D03*
X601980Y1198110D03*
D11*
X596980Y1210310D03*
X606980Y1210310D03*
X606980Y1172210D03*
X596980Y1172210D03*
D21*
X558880Y1310210D03*
X568880Y1310210D03*
X563880Y1298710D03*
D11*
X568880Y1283970D03*
X558880Y1283970D03*
X558880Y1319530D03*
X568880Y1319530D03*
D22*
X398479Y1162710D03*
X398479Y1172210D03*
X398479Y1181710D03*
X424481Y1181710D03*
X424481Y1162710D03*
D23*
X360680Y1142610D03*
X360680Y1125610D03*
X449580Y1163710D03*
X449580Y1180710D03*
D24*
X386080Y1145610D03*
X386080Y1122610D03*
D10*
X730860Y1121109D03*
X721360Y1121109D03*
X711860Y1121109D03*
X711860Y1147111D03*
X730860Y1147111D03*
D11*
X746760Y1129110D03*
X746760Y1139110D03*
X716360Y1108710D03*
X726360Y1108710D03*
X681990Y1139110D03*
X681990Y1129110D03*
X746760Y1179910D03*
X746760Y1189910D03*
X772160Y1189910D03*
X772160Y1179910D03*
X840740Y1179910D03*
X840740Y1189910D03*
D12*
X815730Y1121410D03*
X832730Y1121410D03*
D11*
X784860Y1189910D03*
X784860Y1179910D03*
X802640Y1116410D03*
X802640Y1126410D03*
X825500Y1189910D03*
X825500Y1179910D03*
D13*
X845585Y1106010D03*
X845585Y1101010D03*
X845585Y1096010D03*
X845585Y1091010D03*
X845585Y1086010D03*
X800335Y1086010D03*
X800335Y1091010D03*
X800335Y1096010D03*
X800335Y1101010D03*
X800335Y1106010D03*
D11*
X810260Y1141810D03*
X810260Y1151810D03*
X822960Y1141810D03*
X822960Y1151810D03*
X835660Y1141810D03*
X835660Y1151810D03*
X797560Y1141810D03*
X797560Y1151810D03*
D14*
X779810Y1201610D03*
X722810Y1201610D03*
D15*
X706810Y1333110D03*
X838310Y1343110D03*
D16*
X791710Y1304610D03*
X780710Y1300610D03*
X769710Y1304610D03*
X758710Y1306610D03*
X747710Y1304610D03*
X736710Y1306610D03*
X725710Y1304610D03*
X714710Y1304610D03*
D17*
X871460Y1242410D03*
X871460Y1238410D03*
X871460Y1246410D03*
X871460Y1250410D03*
X871460Y1254410D03*
X871460Y1258410D03*
D18*
X876460Y1263410D03*
X880460Y1263410D03*
X884460Y1263410D03*
X888460Y1263410D03*
X892460Y1263410D03*
X896460Y1263410D03*
D17*
X901460Y1258410D03*
X901460Y1254410D03*
X901460Y1246410D03*
X901460Y1250410D03*
X901460Y1242410D03*
X901460Y1238410D03*
D18*
X896460Y1233410D03*
X892460Y1233410D03*
X888460Y1233410D03*
X884460Y1233410D03*
X880460Y1233410D03*
X876460Y1233410D03*
D11*
X886460Y1294210D03*
X886460Y1304210D03*
X861060Y1164510D03*
X861060Y1154510D03*
X861060Y1253410D03*
X861060Y1243410D03*
D19*
X878210Y1166010D03*
X878210Y1153010D03*
D20*
X894715Y1166241D03*
X894715Y1159510D03*
X894715Y1152779D03*
D11*
X911860Y1161970D03*
X911860Y1151970D03*
D21*
X881460Y1195910D03*
X891460Y1195910D03*
X886460Y1184410D03*
D11*
X891460Y1210310D03*
X881460Y1210310D03*
D21*
X856060Y1195910D03*
X866060Y1195910D03*
X861060Y1184410D03*
D11*
X866060Y1210310D03*
X856060Y1210310D03*
D21*
X904160Y1300910D03*
X894160Y1300910D03*
X899160Y1312410D03*
D11*
X894160Y1280160D03*
X904160Y1280160D03*
X911860Y1306910D03*
X911860Y1316910D03*
D21*
X916860Y1186610D03*
X906860Y1186610D03*
X911860Y1198110D03*
D11*
X906860Y1210310D03*
X916860Y1210310D03*
X916860Y1172210D03*
X906860Y1172210D03*
D21*
X868760Y1310210D03*
X878760Y1310210D03*
X873760Y1298710D03*
D11*
X878760Y1283970D03*
X868760Y1283970D03*
X868760Y1319530D03*
X878760Y1319530D03*
D22*
X708359Y1162710D03*
X708359Y1172210D03*
X708359Y1181710D03*
X734361Y1181710D03*
X734361Y1162710D03*
D23*
X670560Y1142610D03*
X670560Y1125610D03*
X759460Y1163710D03*
X759460Y1180710D03*
D24*
X695960Y1145610D03*
X695960Y1122610D03*
D10*
X1040740Y1121109D03*
X1031240Y1121109D03*
X1021740Y1121109D03*
X1021740Y1147111D03*
X1040740Y1147111D03*
D11*
X1056640Y1129110D03*
X1056640Y1139110D03*
X1026240Y1108710D03*
X1036240Y1108710D03*
X991870Y1139110D03*
X991870Y1129110D03*
X1056640Y1179910D03*
X1056640Y1189910D03*
X1082040Y1189910D03*
X1082040Y1179910D03*
X1150620Y1179910D03*
X1150620Y1189910D03*
D12*
X1125610Y1121410D03*
X1142610Y1121410D03*
D11*
X1094740Y1189910D03*
X1094740Y1179910D03*
X1112520Y1116410D03*
X1112520Y1126410D03*
X1135380Y1189910D03*
X1135380Y1179910D03*
D13*
X1155465Y1106010D03*
X1155465Y1101010D03*
X1155465Y1096010D03*
X1155465Y1091010D03*
X1155465Y1086010D03*
X1110215Y1086010D03*
X1110215Y1091010D03*
X1110215Y1096010D03*
X1110215Y1101010D03*
X1110215Y1106010D03*
D11*
X1120140Y1141810D03*
X1120140Y1151810D03*
X1132840Y1141810D03*
X1132840Y1151810D03*
X1145540Y1141810D03*
X1145540Y1151810D03*
X1107440Y1141810D03*
X1107440Y1151810D03*
D14*
X1089690Y1201610D03*
X1032690Y1201610D03*
D15*
X1016690Y1333110D03*
X1148190Y1343110D03*
D16*
X1101590Y1304610D03*
X1090590Y1300610D03*
X1079590Y1304610D03*
X1068590Y1306610D03*
X1057590Y1304610D03*
X1046590Y1306610D03*
X1035590Y1304610D03*
X1024590Y1304610D03*
D17*
X1181340Y1242410D03*
X1181340Y1238410D03*
X1181340Y1246410D03*
X1181340Y1250410D03*
X1181340Y1254410D03*
X1181340Y1258410D03*
D18*
X1186340Y1263410D03*
X1190340Y1263410D03*
X1194340Y1263410D03*
X1198340Y1263410D03*
X1202340Y1263410D03*
X1206340Y1263410D03*
D17*
X1211340Y1258410D03*
X1211340Y1254410D03*
X1211340Y1246410D03*
X1211340Y1250410D03*
X1211340Y1242410D03*
X1211340Y1238410D03*
D18*
X1206340Y1233410D03*
X1202340Y1233410D03*
X1198340Y1233410D03*
X1194340Y1233410D03*
X1190340Y1233410D03*
X1186340Y1233410D03*
D11*
X1196340Y1294210D03*
X1196340Y1304210D03*
X1170940Y1164510D03*
X1170940Y1154510D03*
X1170940Y1253410D03*
X1170940Y1243410D03*
D19*
X1188090Y1166010D03*
X1188090Y1153010D03*
D20*
X1204595Y1166241D03*
X1204595Y1159510D03*
X1204595Y1152779D03*
D11*
X1221740Y1161970D03*
X1221740Y1151970D03*
D21*
X1191340Y1195910D03*
X1201340Y1195910D03*
X1196340Y1184410D03*
D11*
X1201340Y1210310D03*
X1191340Y1210310D03*
D21*
X1165940Y1195910D03*
X1175940Y1195910D03*
X1170940Y1184410D03*
D11*
X1175940Y1210310D03*
X1165940Y1210310D03*
D21*
X1214040Y1300910D03*
X1204040Y1300910D03*
X1209040Y1312410D03*
D11*
X1204040Y1280160D03*
X1214040Y1280160D03*
X1221740Y1306910D03*
X1221740Y1316910D03*
D21*
X1226740Y1186610D03*
X1216740Y1186610D03*
X1221740Y1198110D03*
D11*
X1216740Y1210310D03*
X1226740Y1210310D03*
X1226740Y1172210D03*
X1216740Y1172210D03*
D21*
X1178640Y1310210D03*
X1188640Y1310210D03*
X1183640Y1298710D03*
D11*
X1188640Y1283970D03*
X1178640Y1283970D03*
X1178640Y1319530D03*
X1188640Y1319530D03*
D22*
X1018239Y1162710D03*
X1018239Y1172210D03*
X1018239Y1181710D03*
X1044241Y1181710D03*
X1044241Y1162710D03*
D23*
X980440Y1142610D03*
X980440Y1125610D03*
X1069340Y1163710D03*
X1069340Y1180710D03*
D24*
X1005840Y1145610D03*
X1005840Y1122610D03*
M02*
