%
M48
M72
T01C0.0120
T02C0.0200
T03C0.0256
T04C0.0400
T05C0.1300
%
T01
X5500Y6475
X6050Y7175
X6850Y7175
X7850Y6675
X7400Y6175
X7950Y8085
X8850Y8375
X9550Y8075
X9500Y7575
X10300Y8415
X10648Y8165
X10950Y8675
X10650Y9175
X10900Y9675
X10650Y9925
X11300Y9925
X11900Y10975
X11800Y11625
X11555Y12375
X11248Y12675
X11000Y12275
X10290Y12448
X9800Y11525
X9350Y10675
X9750Y10025
X9650Y9175
X9940Y8675
X8600Y10075
X7900Y10875
X7100Y10288
X6800Y10675
X5850Y10175
X5100Y10425
X3900Y9375
X5900Y8575
X6900Y8825
X6852Y9327
X4450Y6725
X4600Y11825
X6000Y12025
X6700Y11975
X6343Y12865
X6050Y13975
X6704Y14363
X7850Y14475
X8300Y14662
X8504Y14442
X8950Y14375
X9400Y14725
X9612Y14487
X10009Y15024
X10000Y15575
X9700Y15575
X9250Y15066
X8850Y15056
X8550Y15376
X7700Y16425
X6650Y16425
X5850Y16425
X6350Y15575
X5250Y14975
X7700Y13375
X8250Y13075
X8850Y12775
X9750Y13375
X10950Y13475
X10950Y13825
X11047Y14135
X11750Y14275
X11950Y13925
X12350Y13625
X12653Y13375
X12330Y12725
X13150Y11475
X14250Y11275
X14200Y10875
X13452Y10477
X13900Y9825
X13650Y8875
X12700Y8175
X13000Y7625
X12050Y8025
X11900Y7725
X11800Y8725
X12250Y8725
X14600Y7425
X13300Y6625
X11150Y6125
X10850Y5925
X11250Y5475
X16100Y9375
X17300Y10425
X18050Y10175
X19000Y10675
X19300Y10288
X20100Y10875
X20800Y10075
X21550Y10675
X21950Y10025
X21850Y9175
X22140Y8675
X22500Y8415
X22848Y8165
X23150Y8675
X22850Y9175
X23100Y9675
X22850Y9925
X23500Y9925
X24100Y10975
X24000Y11625
X23150Y11475
X23200Y12275
X23448Y12675
X23755Y12375
X24530Y12725
X24853Y13375
X24550Y13625
X24150Y13925
X23950Y14275
X23247Y14135
X23150Y13825
X23150Y13475
X21950Y13375
X21050Y12775
X20450Y13075
X19900Y13375
X20050Y14475
X20500Y14662
X20704Y14442
X21150Y14375
X21600Y14725
X21812Y14487
X22209Y15024
X22200Y15575
X21900Y15575
X21450Y15066
X21050Y15056
X20750Y15376
X19900Y16425
X18850Y16425
X18050Y16425
X18550Y15575
X17450Y14975
X18250Y13975
X18904Y14363
X18543Y12865
X18200Y12025
X18900Y11975
X16800Y11825
X14000Y12575
X13350Y14175
X13500Y14475
X14250Y14790
X12690Y15817
X12697Y16172
X12400Y16325
X10000Y16425
X11250Y19475
X10850Y19925
X11150Y20125
X11900Y21725
X12050Y22025
X12700Y22175
X12250Y22725
X11800Y22725
X10950Y22675
X10650Y23175
X10900Y23675
X10650Y23925
X11300Y23925
X11900Y24975
X11800Y25625
X11555Y26375
X11248Y26675
X11000Y26275
X10290Y26448
X9750Y27375
X8850Y26775
X8250Y27075
X7700Y27375
X7850Y28475
X8300Y28662
X8504Y28442
X8950Y28375
X9400Y28725
X9612Y28487
X10009Y29024
X9250Y29066
X8850Y29056
X8550Y29376
X9700Y29575
X10000Y29575
X10000Y30425
X7700Y30425
X6650Y30425
X5850Y30425
X6350Y29575
X5250Y28975
X6050Y27975
X6704Y28363
X6343Y26865
X6000Y26025
X6700Y25975
X7900Y24875
X7100Y24288
X6800Y24675
X5850Y24175
X5100Y24425
X4600Y25825
X3900Y23375
X5900Y22575
X6900Y22825
X6852Y23327
X7950Y22085
X8850Y22375
X9550Y22075
X9940Y22675
X10300Y22415
X10648Y22165
X9650Y23175
X9750Y24025
X9350Y24675
X8600Y24075
X9800Y25525
X10950Y25475
X12330Y26725
X12653Y27375
X12350Y27625
X11950Y27925
X11750Y28275
X11047Y28135
X10950Y27825
X10950Y27475
X13350Y28175
X13500Y28475
X14250Y28790
X12690Y29817
X12697Y30172
X12400Y30325
X14000Y26575
X14250Y25275
X14200Y24875
X13452Y24477
X13900Y23825
X13650Y22875
X13000Y21625
X13300Y20625
X14600Y21425
X16650Y20725
X17700Y20475
X18250Y21175
X19050Y21175
X20050Y20675
X19600Y20175
X20150Y22085
X21050Y22375
X21750Y22075
X22140Y22675
X22500Y22415
X22848Y22165
X23150Y22675
X22850Y23175
X23100Y23675
X22850Y23925
X23500Y23925
X24100Y24975
X24000Y25625
X23150Y25475
X23200Y26275
X23448Y26675
X23755Y26375
X24530Y26725
X24853Y27375
X24550Y27625
X24150Y27925
X23950Y28275
X23247Y28135
X23150Y27825
X23150Y27475
X22490Y26448
X21950Y27375
X21050Y26775
X20450Y27075
X19900Y27375
X20050Y28475
X20500Y28662
X20704Y28442
X21150Y28375
X21600Y28725
X21812Y28487
X22209Y29024
X21450Y29066
X21050Y29056
X20750Y29376
X21900Y29575
X22200Y29575
X22200Y30425
X19900Y30425
X18850Y30425
X18050Y30425
X18550Y29575
X17450Y28975
X18250Y27975
X18904Y28363
X18543Y26865
X18200Y26025
X18900Y25975
X20100Y24875
X19300Y24288
X19000Y24675
X18050Y24175
X17300Y24425
X16800Y25825
X16100Y23375
X18100Y22575
X19100Y22825
X19052Y23327
X20800Y24075
X21550Y24675
X21950Y24025
X21850Y23175
X21700Y21575
X23050Y19925
X23350Y20125
X23450Y19475
X25500Y20625
X25200Y21625
X24900Y22175
X24450Y22725
X24000Y22725
X24250Y22025
X24100Y21725
X25850Y22875
X26100Y23825
X25652Y24477
X26400Y24875
X26450Y25275
X25350Y25475
X26200Y26575
X25550Y28175
X25700Y28475
X26450Y28790
X24890Y29817
X24897Y30172
X24600Y30325
X29650Y28975
X30450Y27975
X31104Y28363
X32250Y28475
X32700Y28662
X32904Y28442
X33350Y28375
X33800Y28725
X34012Y28487
X34409Y29024
X33650Y29066
X33250Y29056
X32950Y29376
X34100Y29575
X34400Y29575
X34400Y30425
X32100Y30425
X31050Y30425
X30250Y30425
X30750Y29575
X32100Y27375
X32650Y27075
X33250Y26775
X34150Y27375
X34690Y26448
X35400Y26275
X35648Y26675
X35955Y26375
X36200Y25625
X36300Y24975
X35350Y25475
X34200Y25525
X33750Y24675
X34150Y24025
X35050Y23925
X35300Y23675
X35700Y23925
X35050Y23175
X35350Y22675
X35048Y22165
X34700Y22415
X34340Y22675
X34050Y23175
X33950Y22075
X33250Y22375
X32350Y22085
X31300Y22825
X31252Y23327
X31500Y24288
X31200Y24675
X30250Y24175
X29500Y24425
X29000Y25825
X30400Y26025
X31100Y25975
X30743Y26865
X32300Y24875
X33000Y24075
X30300Y22575
X30450Y21175
X29900Y20475
X28850Y20725
X26800Y21425
X28300Y23375
X31250Y21175
X32250Y20675
X31800Y20175
X33900Y21575
X35250Y19925
X35550Y20125
X35650Y19475
X37700Y20625
X37400Y21625
X37100Y22175
X36450Y22025
X36300Y21725
X36200Y22725
X36650Y22725
X38050Y22875
X38300Y23825
X37852Y24477
X38600Y24875
X38650Y25275
X37550Y25475
X38400Y26575
X37053Y27375
X36750Y27625
X36350Y27925
X36150Y28275
X35447Y28135
X35350Y27825
X35350Y27475
X36730Y26725
X37750Y28175
X37900Y28475
X38650Y28790
X37097Y30172
X36800Y30325
X37090Y29817
X39000Y21425
X36800Y16325
X37097Y16172
X37090Y15817
X37900Y14475
X37750Y14175
X37053Y13375
X36750Y13625
X36350Y13925
X36150Y14275
X35447Y14135
X35350Y13825
X35350Y13475
X35648Y12675
X35955Y12375
X35400Y12275
X34690Y12448
X34200Y11525
X33750Y10675
X34150Y10025
X34050Y9175
X34340Y8675
X34700Y8415
X35048Y8165
X35350Y8675
X35050Y9175
X35300Y9675
X35050Y9925
X35700Y9925
X36300Y10975
X36200Y11625
X35350Y11475
X36730Y12725
X37550Y11475
X38650Y11275
X38600Y10875
X37852Y10477
X38300Y9825
X38050Y8875
X37100Y8175
X37400Y7625
X36450Y8025
X36300Y7725
X36200Y8725
X36650Y8725
X37700Y6625
X39000Y7425
X35550Y6125
X35250Y5925
X35650Y5475
X33900Y7575
X33950Y8075
X33250Y8375
X32350Y8085
X31300Y8825
X31252Y9327
X30300Y8575
X30450Y7175
X31250Y7175
X32250Y6675
X31800Y6175
X29900Y6475
X28850Y6725
X26800Y7425
X25500Y6625
X25200Y7625
X24900Y8175
X24250Y8025
X24100Y7725
X24000Y8725
X24450Y8725
X25850Y8875
X26100Y9825
X25652Y10477
X26400Y10875
X26450Y11275
X25350Y11475
X26200Y12575
X25550Y14175
X25700Y14475
X26450Y14790
X24890Y15817
X24897Y16172
X24600Y16325
X22200Y16425
X22490Y12448
X22000Y11525
X19052Y9327
X19100Y8825
X18100Y8575
X18250Y7175
X19050Y7175
X20050Y6675
X19600Y6175
X17700Y6475
X16650Y6725
X20150Y8085
X21050Y8375
X21750Y8075
X21700Y7575
X23050Y5925
X23350Y6125
X23450Y5475
X28300Y9375
X29500Y10425
X30250Y10175
X31200Y10675
X31500Y10288
X32300Y10875
X33000Y10075
X31100Y11975
X30400Y12025
X30743Y12865
X30450Y13975
X31104Y14363
X32250Y14475
X32700Y14662
X32904Y14442
X33350Y14375
X33800Y14725
X34012Y14487
X34409Y15024
X34400Y15575
X34100Y15575
X33650Y15066
X33250Y15056
X32950Y15376
X32100Y16425
X31050Y16425
X30250Y16425
X30750Y15575
X29650Y14975
X32100Y13375
X32650Y13075
X33250Y12775
X34150Y13375
X34400Y16425
X38650Y14790
X38400Y12575
X29000Y11825
X22000Y25525
X13150Y25475
X9500Y21575
X7850Y20675
X7400Y20175
X6850Y21175
X6050Y21175
X5500Y20475
X4450Y20725
X10950Y11475
T02
X5600Y12425
X5600Y12925
X5100Y12925
X5100Y12425
X5100Y13425
X5100Y13925
X5100Y14425
X5600Y14425
X5600Y13925
X5600Y13425
X17300Y13425
X17300Y13925
X17300Y14425
X17800Y14425
X17800Y13925
X17800Y13425
X17800Y12925
X17800Y12425
X17300Y12425
X17300Y12925
X29500Y12925
X29500Y12425
X30000Y12425
X30000Y12925
X30000Y13425
X30000Y13925
X30000Y14425
X29500Y14425
X29500Y13925
X29500Y13425
X29500Y26425
X29500Y26925
X29500Y27425
X29500Y27925
X30000Y27925
X30000Y27425
X30000Y26925
X30000Y26425
X30000Y28425
X29500Y28425
X17800Y28425
X17300Y28425
X17300Y27925
X17300Y27425
X17300Y26925
X17300Y26425
X17800Y26425
X17800Y26925
X17800Y27425
X17800Y27925
X5600Y27925
X5600Y27425
X5600Y26925
X5600Y26425
X5100Y26425
X5100Y26925
X5100Y27425
X5100Y27925
X5100Y28425
X5600Y28425
T03
X9712Y20606
X11988Y20606
X21912Y20606
X24188Y20606
X34112Y20606
X36388Y20606
X36388Y6606
X34112Y6606
X24188Y6606
X21912Y6606
X11988Y6606
X9712Y6606
T04
X7350Y5175
X6350Y5175
X3350Y7175
X3350Y8175
X3350Y9175
X3350Y10175
X3350Y11175
X3350Y12175
X3350Y13175
X3350Y14175
X4850Y9675
X4850Y8675
X15550Y8175
X15550Y7175
X17050Y8675
X17050Y9675
X15550Y9175
X15550Y10175
X15550Y11175
X15550Y12175
X15550Y13175
X15550Y14175
X18550Y19175
X19550Y19175
X17050Y22675
X17050Y23675
X15550Y23175
X15550Y22175
X15550Y21175
X15550Y24175
X15550Y25175
X15550Y26175
X15550Y27175
X15550Y28175
X7350Y19175
X6350Y19175
X3350Y21175
X3350Y22175
X3350Y23175
X3350Y24175
X3350Y25175
X3350Y26175
X3350Y27175
X3350Y28175
X4850Y23675
X4850Y22675
X18550Y5175
X19550Y5175
X27750Y7175
X27750Y8175
X27750Y9175
X27750Y10175
X27750Y11175
X27750Y12175
X27750Y13175
X27750Y14175
X29250Y9675
X29250Y8675
X30750Y5175
X31750Y5175
X31750Y19175
X30750Y19175
X27750Y21175
X27750Y22175
X27750Y23175
X27750Y24175
X27750Y25175
X27750Y26175
X27750Y27175
X27750Y28175
X29250Y23675
X29250Y22675
T05
X3850Y5675
X13850Y5675
X16050Y5675
X26050Y5675
X28250Y5675
X38250Y5675
X38250Y15675
X38250Y19675
X28250Y19675
X26050Y19675
X26050Y15675
X28250Y15675
X16050Y15675
X13850Y15675
X13850Y19675
X16050Y19675
X16050Y29675
X13850Y29675
X3850Y29675
X3850Y19675
X3850Y15675
X26050Y29675
X28250Y29675
X38250Y29675
M30
