G04 EAGLE Gerber RS-274X export*
G75*
%MOMM*%
%FSLAX34Y34*%
%LPD*%
%INSolderpaste Top*%
%IPPOS*%
%AMOC8*
5,1,8,0,0,1.08239X$1,22.5*%
G01*
%ADD10C,0.300000*%
%ADD11R,1.000000X1.800000*%
%ADD12R,0.600000X0.600000*%
%ADD13R,0.600000X0.400000*%
%ADD14R,0.400000X0.600000*%
%ADD15R,1.000000X0.900000*%
%ADD16R,2.000000X1.200000*%
%ADD17R,1.350000X0.600000*%
%ADD18R,1.000000X4.600000*%
%ADD19R,1.600000X3.400000*%
%ADD20R,0.300000X1.000000*%
%ADD21R,0.600000X1.000000*%
%ADD22R,4.200000X1.700000*%
%ADD23R,0.630000X0.830000*%
%ADD24R,0.900000X0.800000*%
%ADD25R,0.800000X0.900000*%
%ADD26R,1.200000X0.550000*%

G36*
X234732Y1654443D02*
X234732Y1654443D01*
X234776Y1654446D01*
X234798Y1654462D01*
X234824Y1654470D01*
X234853Y1654503D01*
X234888Y1654529D01*
X234898Y1654555D01*
X234916Y1654575D01*
X234923Y1654619D01*
X234938Y1654659D01*
X234933Y1654686D01*
X234937Y1654713D01*
X234919Y1654754D01*
X234910Y1654796D01*
X234884Y1654832D01*
X234880Y1654841D01*
X234875Y1654845D01*
X234866Y1654856D01*
X210866Y1678856D01*
X210828Y1678877D01*
X210795Y1678906D01*
X210768Y1678910D01*
X210744Y1678923D01*
X210700Y1678920D01*
X210657Y1678927D01*
X210632Y1678916D01*
X210604Y1678914D01*
X210569Y1678888D01*
X210529Y1678870D01*
X210514Y1678847D01*
X210492Y1678831D01*
X210476Y1678790D01*
X210452Y1678754D01*
X210445Y1678710D01*
X210442Y1678701D01*
X210443Y1678694D01*
X210441Y1678680D01*
X210441Y1654680D01*
X210446Y1654664D01*
X210443Y1654647D01*
X210465Y1654597D01*
X210480Y1654546D01*
X210493Y1654535D01*
X210500Y1654519D01*
X210545Y1654489D01*
X210585Y1654454D01*
X210602Y1654451D01*
X210617Y1654442D01*
X210690Y1654431D01*
X234690Y1654431D01*
X234732Y1654443D01*
G37*
G36*
X854492Y1654443D02*
X854492Y1654443D01*
X854536Y1654446D01*
X854558Y1654462D01*
X854584Y1654470D01*
X854613Y1654503D01*
X854648Y1654529D01*
X854658Y1654555D01*
X854676Y1654575D01*
X854683Y1654619D01*
X854698Y1654659D01*
X854693Y1654686D01*
X854697Y1654713D01*
X854679Y1654754D01*
X854670Y1654796D01*
X854644Y1654832D01*
X854640Y1654841D01*
X854635Y1654845D01*
X854626Y1654856D01*
X830626Y1678856D01*
X830588Y1678877D01*
X830555Y1678906D01*
X830528Y1678910D01*
X830504Y1678923D01*
X830460Y1678920D01*
X830417Y1678927D01*
X830392Y1678916D01*
X830364Y1678914D01*
X830329Y1678888D01*
X830289Y1678870D01*
X830274Y1678847D01*
X830252Y1678831D01*
X830236Y1678790D01*
X830212Y1678754D01*
X830205Y1678710D01*
X830202Y1678701D01*
X830203Y1678694D01*
X830201Y1678680D01*
X830201Y1654680D01*
X830206Y1654664D01*
X830203Y1654647D01*
X830225Y1654597D01*
X830240Y1654546D01*
X830253Y1654535D01*
X830260Y1654519D01*
X830305Y1654489D01*
X830345Y1654454D01*
X830362Y1654451D01*
X830377Y1654442D01*
X830450Y1654431D01*
X854450Y1654431D01*
X854492Y1654443D01*
G37*
G36*
X544612Y1654443D02*
X544612Y1654443D01*
X544656Y1654446D01*
X544678Y1654462D01*
X544704Y1654470D01*
X544733Y1654503D01*
X544768Y1654529D01*
X544778Y1654555D01*
X544796Y1654575D01*
X544803Y1654619D01*
X544818Y1654659D01*
X544813Y1654686D01*
X544817Y1654713D01*
X544799Y1654754D01*
X544790Y1654796D01*
X544764Y1654832D01*
X544760Y1654841D01*
X544755Y1654845D01*
X544746Y1654856D01*
X520746Y1678856D01*
X520708Y1678877D01*
X520675Y1678906D01*
X520648Y1678910D01*
X520624Y1678923D01*
X520580Y1678920D01*
X520537Y1678927D01*
X520512Y1678916D01*
X520484Y1678914D01*
X520449Y1678888D01*
X520409Y1678870D01*
X520394Y1678847D01*
X520372Y1678831D01*
X520356Y1678790D01*
X520332Y1678754D01*
X520325Y1678710D01*
X520322Y1678701D01*
X520323Y1678694D01*
X520321Y1678680D01*
X520321Y1654680D01*
X520326Y1654664D01*
X520323Y1654647D01*
X520345Y1654597D01*
X520360Y1654546D01*
X520373Y1654535D01*
X520380Y1654519D01*
X520425Y1654489D01*
X520465Y1654454D01*
X520482Y1654451D01*
X520497Y1654442D01*
X520570Y1654431D01*
X544570Y1654431D01*
X544612Y1654443D01*
G37*
G36*
X854492Y933083D02*
X854492Y933083D01*
X854536Y933086D01*
X854558Y933102D01*
X854584Y933110D01*
X854613Y933143D01*
X854648Y933169D01*
X854658Y933195D01*
X854676Y933215D01*
X854683Y933259D01*
X854698Y933299D01*
X854693Y933326D01*
X854697Y933353D01*
X854679Y933394D01*
X854670Y933436D01*
X854644Y933472D01*
X854640Y933481D01*
X854635Y933485D01*
X854626Y933496D01*
X830626Y957496D01*
X830588Y957517D01*
X830555Y957546D01*
X830528Y957550D01*
X830504Y957563D01*
X830460Y957560D01*
X830417Y957567D01*
X830392Y957556D01*
X830364Y957554D01*
X830329Y957528D01*
X830289Y957510D01*
X830274Y957487D01*
X830252Y957471D01*
X830236Y957430D01*
X830212Y957394D01*
X830205Y957350D01*
X830202Y957341D01*
X830203Y957334D01*
X830201Y957320D01*
X830201Y933320D01*
X830206Y933304D01*
X830203Y933287D01*
X830225Y933237D01*
X830240Y933186D01*
X830253Y933175D01*
X830260Y933159D01*
X830305Y933129D01*
X830345Y933094D01*
X830362Y933091D01*
X830377Y933082D01*
X830450Y933071D01*
X854450Y933071D01*
X854492Y933083D01*
G37*
G36*
X544612Y933083D02*
X544612Y933083D01*
X544656Y933086D01*
X544678Y933102D01*
X544704Y933110D01*
X544733Y933143D01*
X544768Y933169D01*
X544778Y933195D01*
X544796Y933215D01*
X544803Y933259D01*
X544818Y933299D01*
X544813Y933326D01*
X544817Y933353D01*
X544799Y933394D01*
X544790Y933436D01*
X544764Y933472D01*
X544760Y933481D01*
X544755Y933485D01*
X544746Y933496D01*
X520746Y957496D01*
X520708Y957517D01*
X520675Y957546D01*
X520648Y957550D01*
X520624Y957563D01*
X520580Y957560D01*
X520537Y957567D01*
X520512Y957556D01*
X520484Y957554D01*
X520449Y957528D01*
X520409Y957510D01*
X520394Y957487D01*
X520372Y957471D01*
X520356Y957430D01*
X520332Y957394D01*
X520325Y957350D01*
X520322Y957341D01*
X520323Y957334D01*
X520321Y957320D01*
X520321Y933320D01*
X520326Y933304D01*
X520323Y933287D01*
X520345Y933237D01*
X520360Y933186D01*
X520373Y933175D01*
X520380Y933159D01*
X520425Y933129D01*
X520465Y933094D01*
X520482Y933091D01*
X520497Y933082D01*
X520570Y933071D01*
X544570Y933071D01*
X544612Y933083D01*
G37*
G36*
X234732Y211723D02*
X234732Y211723D01*
X234776Y211726D01*
X234798Y211742D01*
X234824Y211750D01*
X234853Y211783D01*
X234888Y211809D01*
X234898Y211835D01*
X234916Y211855D01*
X234923Y211899D01*
X234938Y211939D01*
X234933Y211966D01*
X234937Y211993D01*
X234919Y212034D01*
X234910Y212076D01*
X234884Y212112D01*
X234880Y212121D01*
X234875Y212125D01*
X234866Y212136D01*
X210866Y236136D01*
X210828Y236157D01*
X210795Y236186D01*
X210768Y236190D01*
X210744Y236203D01*
X210700Y236200D01*
X210657Y236207D01*
X210632Y236196D01*
X210604Y236194D01*
X210569Y236168D01*
X210529Y236150D01*
X210514Y236127D01*
X210492Y236111D01*
X210476Y236070D01*
X210452Y236034D01*
X210445Y235990D01*
X210442Y235981D01*
X210443Y235974D01*
X210441Y235960D01*
X210441Y211960D01*
X210446Y211944D01*
X210443Y211927D01*
X210465Y211877D01*
X210480Y211826D01*
X210493Y211815D01*
X210500Y211799D01*
X210545Y211769D01*
X210585Y211734D01*
X210602Y211731D01*
X210617Y211722D01*
X210690Y211711D01*
X234690Y211711D01*
X234732Y211723D01*
G37*
G36*
X544612Y211723D02*
X544612Y211723D01*
X544656Y211726D01*
X544678Y211742D01*
X544704Y211750D01*
X544733Y211783D01*
X544768Y211809D01*
X544778Y211835D01*
X544796Y211855D01*
X544803Y211899D01*
X544818Y211939D01*
X544813Y211966D01*
X544817Y211993D01*
X544799Y212034D01*
X544790Y212076D01*
X544764Y212112D01*
X544760Y212121D01*
X544755Y212125D01*
X544746Y212136D01*
X520746Y236136D01*
X520708Y236157D01*
X520675Y236186D01*
X520648Y236190D01*
X520624Y236203D01*
X520580Y236200D01*
X520537Y236207D01*
X520512Y236196D01*
X520484Y236194D01*
X520449Y236168D01*
X520409Y236150D01*
X520394Y236127D01*
X520372Y236111D01*
X520356Y236070D01*
X520332Y236034D01*
X520325Y235990D01*
X520322Y235981D01*
X520323Y235974D01*
X520321Y235960D01*
X520321Y211960D01*
X520326Y211944D01*
X520323Y211927D01*
X520345Y211877D01*
X520360Y211826D01*
X520373Y211815D01*
X520380Y211799D01*
X520425Y211769D01*
X520465Y211734D01*
X520482Y211731D01*
X520497Y211722D01*
X520570Y211711D01*
X544570Y211711D01*
X544612Y211723D01*
G37*
G36*
X854492Y211723D02*
X854492Y211723D01*
X854536Y211726D01*
X854558Y211742D01*
X854584Y211750D01*
X854613Y211783D01*
X854648Y211809D01*
X854658Y211835D01*
X854676Y211855D01*
X854683Y211899D01*
X854698Y211939D01*
X854693Y211966D01*
X854697Y211993D01*
X854679Y212034D01*
X854670Y212076D01*
X854644Y212112D01*
X854640Y212121D01*
X854635Y212125D01*
X854626Y212136D01*
X830626Y236136D01*
X830588Y236157D01*
X830555Y236186D01*
X830528Y236190D01*
X830504Y236203D01*
X830460Y236200D01*
X830417Y236207D01*
X830392Y236196D01*
X830364Y236194D01*
X830329Y236168D01*
X830289Y236150D01*
X830274Y236127D01*
X830252Y236111D01*
X830236Y236070D01*
X830212Y236034D01*
X830205Y235990D01*
X830202Y235981D01*
X830203Y235974D01*
X830201Y235960D01*
X830201Y211960D01*
X830206Y211944D01*
X830203Y211927D01*
X830225Y211877D01*
X830240Y211826D01*
X830253Y211815D01*
X830260Y211799D01*
X830305Y211769D01*
X830345Y211734D01*
X830362Y211731D01*
X830377Y211722D01*
X830450Y211711D01*
X854450Y211711D01*
X854492Y211723D01*
G37*
G36*
X234732Y1293763D02*
X234732Y1293763D01*
X234776Y1293766D01*
X234798Y1293782D01*
X234824Y1293790D01*
X234853Y1293823D01*
X234888Y1293849D01*
X234898Y1293875D01*
X234916Y1293895D01*
X234923Y1293939D01*
X234938Y1293979D01*
X234933Y1294006D01*
X234937Y1294033D01*
X234919Y1294074D01*
X234910Y1294116D01*
X234884Y1294152D01*
X234880Y1294161D01*
X234875Y1294165D01*
X234866Y1294176D01*
X210866Y1318176D01*
X210828Y1318197D01*
X210795Y1318226D01*
X210768Y1318230D01*
X210744Y1318243D01*
X210700Y1318240D01*
X210657Y1318247D01*
X210632Y1318236D01*
X210604Y1318234D01*
X210569Y1318208D01*
X210529Y1318190D01*
X210514Y1318167D01*
X210492Y1318151D01*
X210476Y1318110D01*
X210452Y1318074D01*
X210445Y1318030D01*
X210442Y1318021D01*
X210443Y1318014D01*
X210441Y1318000D01*
X210441Y1294000D01*
X210446Y1293984D01*
X210443Y1293967D01*
X210465Y1293917D01*
X210480Y1293866D01*
X210493Y1293855D01*
X210500Y1293839D01*
X210545Y1293809D01*
X210585Y1293774D01*
X210602Y1293771D01*
X210617Y1293762D01*
X210690Y1293751D01*
X234690Y1293751D01*
X234732Y1293763D01*
G37*
G36*
X854492Y1293763D02*
X854492Y1293763D01*
X854536Y1293766D01*
X854558Y1293782D01*
X854584Y1293790D01*
X854613Y1293823D01*
X854648Y1293849D01*
X854658Y1293875D01*
X854676Y1293895D01*
X854683Y1293939D01*
X854698Y1293979D01*
X854693Y1294006D01*
X854697Y1294033D01*
X854679Y1294074D01*
X854670Y1294116D01*
X854644Y1294152D01*
X854640Y1294161D01*
X854635Y1294165D01*
X854626Y1294176D01*
X830626Y1318176D01*
X830588Y1318197D01*
X830555Y1318226D01*
X830528Y1318230D01*
X830504Y1318243D01*
X830460Y1318240D01*
X830417Y1318247D01*
X830392Y1318236D01*
X830364Y1318234D01*
X830329Y1318208D01*
X830289Y1318190D01*
X830274Y1318167D01*
X830252Y1318151D01*
X830236Y1318110D01*
X830212Y1318074D01*
X830205Y1318030D01*
X830202Y1318021D01*
X830203Y1318014D01*
X830201Y1318000D01*
X830201Y1294000D01*
X830206Y1293984D01*
X830203Y1293967D01*
X830225Y1293917D01*
X830240Y1293866D01*
X830253Y1293855D01*
X830260Y1293839D01*
X830305Y1293809D01*
X830345Y1293774D01*
X830362Y1293771D01*
X830377Y1293762D01*
X830450Y1293751D01*
X854450Y1293751D01*
X854492Y1293763D01*
G37*
G36*
X544612Y1293763D02*
X544612Y1293763D01*
X544656Y1293766D01*
X544678Y1293782D01*
X544704Y1293790D01*
X544733Y1293823D01*
X544768Y1293849D01*
X544778Y1293875D01*
X544796Y1293895D01*
X544803Y1293939D01*
X544818Y1293979D01*
X544813Y1294006D01*
X544817Y1294033D01*
X544799Y1294074D01*
X544790Y1294116D01*
X544764Y1294152D01*
X544760Y1294161D01*
X544755Y1294165D01*
X544746Y1294176D01*
X520746Y1318176D01*
X520708Y1318197D01*
X520675Y1318226D01*
X520648Y1318230D01*
X520624Y1318243D01*
X520580Y1318240D01*
X520537Y1318247D01*
X520512Y1318236D01*
X520484Y1318234D01*
X520449Y1318208D01*
X520409Y1318190D01*
X520394Y1318167D01*
X520372Y1318151D01*
X520356Y1318110D01*
X520332Y1318074D01*
X520325Y1318030D01*
X520322Y1318021D01*
X520323Y1318014D01*
X520321Y1318000D01*
X520321Y1294000D01*
X520326Y1293984D01*
X520323Y1293967D01*
X520345Y1293917D01*
X520360Y1293866D01*
X520373Y1293855D01*
X520380Y1293839D01*
X520425Y1293809D01*
X520465Y1293774D01*
X520482Y1293771D01*
X520497Y1293762D01*
X520570Y1293751D01*
X544570Y1293751D01*
X544612Y1293763D01*
G37*
G36*
X234732Y933083D02*
X234732Y933083D01*
X234776Y933086D01*
X234798Y933102D01*
X234824Y933110D01*
X234853Y933143D01*
X234888Y933169D01*
X234898Y933195D01*
X234916Y933215D01*
X234923Y933259D01*
X234938Y933299D01*
X234933Y933326D01*
X234937Y933353D01*
X234919Y933394D01*
X234910Y933436D01*
X234884Y933472D01*
X234880Y933481D01*
X234875Y933485D01*
X234866Y933496D01*
X210866Y957496D01*
X210828Y957517D01*
X210795Y957546D01*
X210768Y957550D01*
X210744Y957563D01*
X210700Y957560D01*
X210657Y957567D01*
X210632Y957556D01*
X210604Y957554D01*
X210569Y957528D01*
X210529Y957510D01*
X210514Y957487D01*
X210492Y957471D01*
X210476Y957430D01*
X210452Y957394D01*
X210445Y957350D01*
X210442Y957341D01*
X210443Y957334D01*
X210441Y957320D01*
X210441Y933320D01*
X210446Y933304D01*
X210443Y933287D01*
X210465Y933237D01*
X210480Y933186D01*
X210493Y933175D01*
X210500Y933159D01*
X210545Y933129D01*
X210585Y933094D01*
X210602Y933091D01*
X210617Y933082D01*
X210690Y933071D01*
X234690Y933071D01*
X234732Y933083D01*
G37*
G36*
X544612Y572403D02*
X544612Y572403D01*
X544656Y572406D01*
X544678Y572422D01*
X544704Y572430D01*
X544733Y572463D01*
X544768Y572489D01*
X544778Y572515D01*
X544796Y572535D01*
X544803Y572579D01*
X544818Y572619D01*
X544813Y572646D01*
X544817Y572673D01*
X544799Y572714D01*
X544790Y572756D01*
X544764Y572792D01*
X544760Y572801D01*
X544755Y572805D01*
X544746Y572816D01*
X520746Y596816D01*
X520708Y596837D01*
X520675Y596866D01*
X520648Y596870D01*
X520624Y596883D01*
X520580Y596880D01*
X520537Y596887D01*
X520512Y596876D01*
X520484Y596874D01*
X520449Y596848D01*
X520409Y596830D01*
X520394Y596807D01*
X520372Y596791D01*
X520356Y596750D01*
X520332Y596714D01*
X520325Y596670D01*
X520322Y596661D01*
X520323Y596654D01*
X520321Y596640D01*
X520321Y572640D01*
X520326Y572624D01*
X520323Y572607D01*
X520345Y572557D01*
X520360Y572506D01*
X520373Y572495D01*
X520380Y572479D01*
X520425Y572449D01*
X520465Y572414D01*
X520482Y572411D01*
X520497Y572402D01*
X520570Y572391D01*
X544570Y572391D01*
X544612Y572403D01*
G37*
G36*
X854492Y572403D02*
X854492Y572403D01*
X854536Y572406D01*
X854558Y572422D01*
X854584Y572430D01*
X854613Y572463D01*
X854648Y572489D01*
X854658Y572515D01*
X854676Y572535D01*
X854683Y572579D01*
X854698Y572619D01*
X854693Y572646D01*
X854697Y572673D01*
X854679Y572714D01*
X854670Y572756D01*
X854644Y572792D01*
X854640Y572801D01*
X854635Y572805D01*
X854626Y572816D01*
X830626Y596816D01*
X830588Y596837D01*
X830555Y596866D01*
X830528Y596870D01*
X830504Y596883D01*
X830460Y596880D01*
X830417Y596887D01*
X830392Y596876D01*
X830364Y596874D01*
X830329Y596848D01*
X830289Y596830D01*
X830274Y596807D01*
X830252Y596791D01*
X830236Y596750D01*
X830212Y596714D01*
X830205Y596670D01*
X830202Y596661D01*
X830203Y596654D01*
X830201Y596640D01*
X830201Y572640D01*
X830206Y572624D01*
X830203Y572607D01*
X830225Y572557D01*
X830240Y572506D01*
X830253Y572495D01*
X830260Y572479D01*
X830305Y572449D01*
X830345Y572414D01*
X830362Y572411D01*
X830377Y572402D01*
X830450Y572391D01*
X854450Y572391D01*
X854492Y572403D01*
G37*
G36*
X234732Y572403D02*
X234732Y572403D01*
X234776Y572406D01*
X234798Y572422D01*
X234824Y572430D01*
X234853Y572463D01*
X234888Y572489D01*
X234898Y572515D01*
X234916Y572535D01*
X234923Y572579D01*
X234938Y572619D01*
X234933Y572646D01*
X234937Y572673D01*
X234919Y572714D01*
X234910Y572756D01*
X234884Y572792D01*
X234880Y572801D01*
X234875Y572805D01*
X234866Y572816D01*
X210866Y596816D01*
X210828Y596837D01*
X210795Y596866D01*
X210768Y596870D01*
X210744Y596883D01*
X210700Y596880D01*
X210657Y596887D01*
X210632Y596876D01*
X210604Y596874D01*
X210569Y596848D01*
X210529Y596830D01*
X210514Y596807D01*
X210492Y596791D01*
X210476Y596750D01*
X210452Y596714D01*
X210445Y596670D01*
X210442Y596661D01*
X210443Y596654D01*
X210441Y596640D01*
X210441Y572640D01*
X210446Y572624D01*
X210443Y572607D01*
X210465Y572557D01*
X210480Y572506D01*
X210493Y572495D01*
X210500Y572479D01*
X210545Y572449D01*
X210585Y572414D01*
X210602Y572411D01*
X210617Y572402D01*
X210690Y572391D01*
X234690Y572391D01*
X234732Y572403D01*
G37*
G36*
X556080Y765311D02*
X556080Y765311D01*
X556081Y765311D01*
X557149Y765330D01*
X557156Y765335D01*
X557160Y765331D01*
X558197Y765587D01*
X558202Y765594D01*
X558208Y765591D01*
X559162Y766072D01*
X559166Y766079D01*
X559171Y766078D01*
X559995Y766759D01*
X559996Y766767D01*
X560002Y766767D01*
X560653Y767614D01*
X560653Y767622D01*
X560659Y767623D01*
X561106Y768594D01*
X561104Y768602D01*
X561109Y768604D01*
X561328Y769650D01*
X561325Y769657D01*
X561329Y769660D01*
X561329Y781660D01*
X561326Y781665D01*
X561329Y781668D01*
X561149Y782763D01*
X561143Y782769D01*
X561146Y782774D01*
X560727Y783802D01*
X560720Y783806D01*
X560722Y783811D01*
X560085Y784720D01*
X560077Y784723D01*
X560077Y784728D01*
X559254Y785472D01*
X559246Y785473D01*
X559245Y785479D01*
X558277Y786021D01*
X558268Y786020D01*
X558266Y786026D01*
X557202Y786339D01*
X557197Y786337D01*
X557193Y786337D01*
X557191Y786341D01*
X556083Y786409D01*
X556077Y786405D01*
X556073Y786409D01*
X554965Y786239D01*
X554959Y786233D01*
X554954Y786236D01*
X553912Y785824D01*
X553908Y785817D01*
X553903Y785819D01*
X552978Y785185D01*
X552976Y785177D01*
X552970Y785178D01*
X552210Y784355D01*
X552209Y784346D01*
X552203Y784346D01*
X551646Y783374D01*
X551647Y783366D01*
X551641Y783364D01*
X551314Y782292D01*
X551317Y782284D01*
X551312Y782281D01*
X551231Y781164D01*
X551232Y781161D01*
X551231Y781160D01*
X551231Y769160D01*
X551236Y769153D01*
X551232Y769149D01*
X551451Y768205D01*
X551457Y768199D01*
X551455Y768194D01*
X551879Y767322D01*
X551886Y767319D01*
X551884Y767313D01*
X552491Y766557D01*
X552499Y766555D01*
X552499Y766549D01*
X553259Y765948D01*
X553268Y765948D01*
X553269Y765942D01*
X554144Y765524D01*
X554152Y765526D01*
X554154Y765521D01*
X555100Y765309D01*
X555107Y765312D01*
X555111Y765307D01*
X556080Y765311D01*
G37*
G36*
X865960Y1486671D02*
X865960Y1486671D01*
X865961Y1486671D01*
X867029Y1486690D01*
X867036Y1486695D01*
X867040Y1486691D01*
X868077Y1486947D01*
X868082Y1486954D01*
X868088Y1486951D01*
X869042Y1487432D01*
X869046Y1487439D01*
X869051Y1487438D01*
X869875Y1488119D01*
X869876Y1488127D01*
X869882Y1488127D01*
X870533Y1488974D01*
X870533Y1488982D01*
X870539Y1488983D01*
X870986Y1489954D01*
X870984Y1489962D01*
X870989Y1489964D01*
X871208Y1491010D01*
X871205Y1491017D01*
X871209Y1491020D01*
X871209Y1503020D01*
X871206Y1503025D01*
X871209Y1503028D01*
X871029Y1504123D01*
X871023Y1504129D01*
X871026Y1504134D01*
X870607Y1505162D01*
X870600Y1505166D01*
X870602Y1505171D01*
X869965Y1506080D01*
X869957Y1506083D01*
X869957Y1506088D01*
X869134Y1506832D01*
X869126Y1506833D01*
X869125Y1506839D01*
X868157Y1507381D01*
X868148Y1507380D01*
X868146Y1507386D01*
X867082Y1507699D01*
X867077Y1507697D01*
X867073Y1507697D01*
X867071Y1507701D01*
X865963Y1507769D01*
X865957Y1507765D01*
X865953Y1507769D01*
X864845Y1507599D01*
X864839Y1507593D01*
X864834Y1507596D01*
X863792Y1507184D01*
X863788Y1507177D01*
X863783Y1507179D01*
X862858Y1506545D01*
X862856Y1506537D01*
X862850Y1506538D01*
X862090Y1505715D01*
X862089Y1505706D01*
X862083Y1505706D01*
X861526Y1504734D01*
X861527Y1504726D01*
X861521Y1504724D01*
X861194Y1503652D01*
X861197Y1503644D01*
X861192Y1503641D01*
X861111Y1502524D01*
X861112Y1502521D01*
X861111Y1502520D01*
X861111Y1490520D01*
X861116Y1490513D01*
X861112Y1490509D01*
X861331Y1489565D01*
X861337Y1489559D01*
X861335Y1489554D01*
X861759Y1488682D01*
X861766Y1488679D01*
X861764Y1488673D01*
X862371Y1487917D01*
X862379Y1487915D01*
X862379Y1487909D01*
X863139Y1487308D01*
X863148Y1487308D01*
X863149Y1487302D01*
X864024Y1486884D01*
X864032Y1486886D01*
X864034Y1486881D01*
X864980Y1486669D01*
X864987Y1486672D01*
X864991Y1486667D01*
X865960Y1486671D01*
G37*
G36*
X246200Y1486671D02*
X246200Y1486671D01*
X246201Y1486671D01*
X247269Y1486690D01*
X247276Y1486695D01*
X247280Y1486691D01*
X248317Y1486947D01*
X248322Y1486954D01*
X248328Y1486951D01*
X249282Y1487432D01*
X249286Y1487439D01*
X249291Y1487438D01*
X250115Y1488119D01*
X250116Y1488127D01*
X250122Y1488127D01*
X250773Y1488974D01*
X250773Y1488982D01*
X250779Y1488983D01*
X251226Y1489954D01*
X251224Y1489962D01*
X251229Y1489964D01*
X251448Y1491010D01*
X251445Y1491017D01*
X251449Y1491020D01*
X251449Y1503020D01*
X251446Y1503025D01*
X251449Y1503028D01*
X251269Y1504123D01*
X251263Y1504129D01*
X251266Y1504134D01*
X250847Y1505162D01*
X250840Y1505166D01*
X250842Y1505171D01*
X250205Y1506080D01*
X250197Y1506083D01*
X250197Y1506088D01*
X249374Y1506832D01*
X249366Y1506833D01*
X249365Y1506839D01*
X248397Y1507381D01*
X248388Y1507380D01*
X248386Y1507386D01*
X247322Y1507699D01*
X247317Y1507697D01*
X247313Y1507697D01*
X247311Y1507701D01*
X246203Y1507769D01*
X246197Y1507765D01*
X246193Y1507769D01*
X245085Y1507599D01*
X245079Y1507593D01*
X245074Y1507596D01*
X244032Y1507184D01*
X244028Y1507177D01*
X244023Y1507179D01*
X243098Y1506545D01*
X243096Y1506537D01*
X243090Y1506538D01*
X242330Y1505715D01*
X242329Y1505706D01*
X242323Y1505706D01*
X241766Y1504734D01*
X241767Y1504726D01*
X241761Y1504724D01*
X241434Y1503652D01*
X241437Y1503644D01*
X241432Y1503641D01*
X241351Y1502524D01*
X241352Y1502521D01*
X241351Y1502520D01*
X241351Y1490520D01*
X241356Y1490513D01*
X241352Y1490509D01*
X241571Y1489565D01*
X241577Y1489559D01*
X241575Y1489554D01*
X241999Y1488682D01*
X242006Y1488679D01*
X242004Y1488673D01*
X242611Y1487917D01*
X242619Y1487915D01*
X242619Y1487909D01*
X243379Y1487308D01*
X243388Y1487308D01*
X243389Y1487302D01*
X244264Y1486884D01*
X244272Y1486886D01*
X244274Y1486881D01*
X245220Y1486669D01*
X245227Y1486672D01*
X245231Y1486667D01*
X246200Y1486671D01*
G37*
G36*
X556080Y1486671D02*
X556080Y1486671D01*
X556081Y1486671D01*
X557149Y1486690D01*
X557156Y1486695D01*
X557160Y1486691D01*
X558197Y1486947D01*
X558202Y1486954D01*
X558208Y1486951D01*
X559162Y1487432D01*
X559166Y1487439D01*
X559171Y1487438D01*
X559995Y1488119D01*
X559996Y1488127D01*
X560002Y1488127D01*
X560653Y1488974D01*
X560653Y1488982D01*
X560659Y1488983D01*
X561106Y1489954D01*
X561104Y1489962D01*
X561109Y1489964D01*
X561328Y1491010D01*
X561325Y1491017D01*
X561329Y1491020D01*
X561329Y1503020D01*
X561326Y1503025D01*
X561329Y1503028D01*
X561149Y1504123D01*
X561143Y1504129D01*
X561146Y1504134D01*
X560727Y1505162D01*
X560720Y1505166D01*
X560722Y1505171D01*
X560085Y1506080D01*
X560077Y1506083D01*
X560077Y1506088D01*
X559254Y1506832D01*
X559246Y1506833D01*
X559245Y1506839D01*
X558277Y1507381D01*
X558268Y1507380D01*
X558266Y1507386D01*
X557202Y1507699D01*
X557197Y1507697D01*
X557193Y1507697D01*
X557191Y1507701D01*
X556083Y1507769D01*
X556077Y1507765D01*
X556073Y1507769D01*
X554965Y1507599D01*
X554959Y1507593D01*
X554954Y1507596D01*
X553912Y1507184D01*
X553908Y1507177D01*
X553903Y1507179D01*
X552978Y1506545D01*
X552976Y1506537D01*
X552970Y1506538D01*
X552210Y1505715D01*
X552209Y1505706D01*
X552203Y1505706D01*
X551646Y1504734D01*
X551647Y1504726D01*
X551641Y1504724D01*
X551314Y1503652D01*
X551317Y1503644D01*
X551312Y1503641D01*
X551231Y1502524D01*
X551232Y1502521D01*
X551231Y1502520D01*
X551231Y1490520D01*
X551236Y1490513D01*
X551232Y1490509D01*
X551451Y1489565D01*
X551457Y1489559D01*
X551455Y1489554D01*
X551879Y1488682D01*
X551886Y1488679D01*
X551884Y1488673D01*
X552491Y1487917D01*
X552499Y1487915D01*
X552499Y1487909D01*
X553259Y1487308D01*
X553268Y1487308D01*
X553269Y1487302D01*
X554144Y1486884D01*
X554152Y1486886D01*
X554154Y1486881D01*
X555100Y1486669D01*
X555107Y1486672D01*
X555111Y1486667D01*
X556080Y1486671D01*
G37*
G36*
X246200Y765311D02*
X246200Y765311D01*
X246201Y765311D01*
X247269Y765330D01*
X247276Y765335D01*
X247280Y765331D01*
X248317Y765587D01*
X248322Y765594D01*
X248328Y765591D01*
X249282Y766072D01*
X249286Y766079D01*
X249291Y766078D01*
X250115Y766759D01*
X250116Y766767D01*
X250122Y766767D01*
X250773Y767614D01*
X250773Y767622D01*
X250779Y767623D01*
X251226Y768594D01*
X251224Y768602D01*
X251229Y768604D01*
X251448Y769650D01*
X251445Y769657D01*
X251449Y769660D01*
X251449Y781660D01*
X251446Y781665D01*
X251449Y781668D01*
X251269Y782763D01*
X251263Y782769D01*
X251266Y782774D01*
X250847Y783802D01*
X250840Y783806D01*
X250842Y783811D01*
X250205Y784720D01*
X250197Y784723D01*
X250197Y784728D01*
X249374Y785472D01*
X249366Y785473D01*
X249365Y785479D01*
X248397Y786021D01*
X248388Y786020D01*
X248386Y786026D01*
X247322Y786339D01*
X247317Y786337D01*
X247313Y786337D01*
X247311Y786341D01*
X246203Y786409D01*
X246197Y786405D01*
X246193Y786409D01*
X245085Y786239D01*
X245079Y786233D01*
X245074Y786236D01*
X244032Y785824D01*
X244028Y785817D01*
X244023Y785819D01*
X243098Y785185D01*
X243096Y785177D01*
X243090Y785178D01*
X242330Y784355D01*
X242329Y784346D01*
X242323Y784346D01*
X241766Y783374D01*
X241767Y783366D01*
X241761Y783364D01*
X241434Y782292D01*
X241437Y782284D01*
X241432Y782281D01*
X241351Y781164D01*
X241352Y781161D01*
X241351Y781160D01*
X241351Y769160D01*
X241356Y769153D01*
X241352Y769149D01*
X241571Y768205D01*
X241577Y768199D01*
X241575Y768194D01*
X241999Y767322D01*
X242006Y767319D01*
X242004Y767313D01*
X242611Y766557D01*
X242619Y766555D01*
X242619Y766549D01*
X243379Y765948D01*
X243388Y765948D01*
X243389Y765942D01*
X244264Y765524D01*
X244272Y765526D01*
X244274Y765521D01*
X245220Y765309D01*
X245227Y765312D01*
X245231Y765307D01*
X246200Y765311D01*
G37*
G36*
X556080Y43951D02*
X556080Y43951D01*
X556081Y43951D01*
X557149Y43970D01*
X557156Y43975D01*
X557160Y43971D01*
X558197Y44227D01*
X558202Y44234D01*
X558208Y44231D01*
X559162Y44712D01*
X559166Y44719D01*
X559171Y44718D01*
X559995Y45399D01*
X559996Y45407D01*
X560002Y45407D01*
X560653Y46254D01*
X560653Y46262D01*
X560659Y46263D01*
X561106Y47234D01*
X561104Y47242D01*
X561109Y47244D01*
X561328Y48290D01*
X561325Y48297D01*
X561329Y48300D01*
X561329Y60300D01*
X561326Y60305D01*
X561329Y60308D01*
X561149Y61403D01*
X561143Y61409D01*
X561146Y61414D01*
X560727Y62442D01*
X560720Y62446D01*
X560722Y62451D01*
X560085Y63360D01*
X560077Y63363D01*
X560077Y63368D01*
X559254Y64112D01*
X559246Y64113D01*
X559245Y64119D01*
X558277Y64661D01*
X558268Y64660D01*
X558266Y64666D01*
X557202Y64979D01*
X557197Y64977D01*
X557193Y64977D01*
X557191Y64981D01*
X556083Y65049D01*
X556077Y65045D01*
X556073Y65049D01*
X554965Y64879D01*
X554959Y64873D01*
X554954Y64876D01*
X553912Y64464D01*
X553908Y64457D01*
X553903Y64459D01*
X552978Y63825D01*
X552976Y63817D01*
X552970Y63818D01*
X552210Y62995D01*
X552209Y62986D01*
X552203Y62986D01*
X551646Y62014D01*
X551647Y62006D01*
X551641Y62004D01*
X551314Y60932D01*
X551317Y60924D01*
X551312Y60921D01*
X551231Y59804D01*
X551232Y59801D01*
X551231Y59800D01*
X551231Y47800D01*
X551236Y47793D01*
X551232Y47789D01*
X551451Y46845D01*
X551457Y46839D01*
X551455Y46834D01*
X551879Y45962D01*
X551886Y45959D01*
X551884Y45953D01*
X552491Y45197D01*
X552499Y45195D01*
X552499Y45189D01*
X553259Y44588D01*
X553268Y44588D01*
X553269Y44582D01*
X554144Y44164D01*
X554152Y44166D01*
X554154Y44161D01*
X555100Y43949D01*
X555107Y43952D01*
X555111Y43947D01*
X556080Y43951D01*
G37*
G36*
X865960Y43951D02*
X865960Y43951D01*
X865961Y43951D01*
X867029Y43970D01*
X867036Y43975D01*
X867040Y43971D01*
X868077Y44227D01*
X868082Y44234D01*
X868088Y44231D01*
X869042Y44712D01*
X869046Y44719D01*
X869051Y44718D01*
X869875Y45399D01*
X869876Y45407D01*
X869882Y45407D01*
X870533Y46254D01*
X870533Y46262D01*
X870539Y46263D01*
X870986Y47234D01*
X870984Y47242D01*
X870989Y47244D01*
X871208Y48290D01*
X871205Y48297D01*
X871209Y48300D01*
X871209Y60300D01*
X871206Y60305D01*
X871209Y60308D01*
X871029Y61403D01*
X871023Y61409D01*
X871026Y61414D01*
X870607Y62442D01*
X870600Y62446D01*
X870602Y62451D01*
X869965Y63360D01*
X869957Y63363D01*
X869957Y63368D01*
X869134Y64112D01*
X869126Y64113D01*
X869125Y64119D01*
X868157Y64661D01*
X868148Y64660D01*
X868146Y64666D01*
X867082Y64979D01*
X867077Y64977D01*
X867073Y64977D01*
X867071Y64981D01*
X865963Y65049D01*
X865957Y65045D01*
X865953Y65049D01*
X864845Y64879D01*
X864839Y64873D01*
X864834Y64876D01*
X863792Y64464D01*
X863788Y64457D01*
X863783Y64459D01*
X862858Y63825D01*
X862856Y63817D01*
X862850Y63818D01*
X862090Y62995D01*
X862089Y62986D01*
X862083Y62986D01*
X861526Y62014D01*
X861527Y62006D01*
X861521Y62004D01*
X861194Y60932D01*
X861197Y60924D01*
X861192Y60921D01*
X861111Y59804D01*
X861112Y59801D01*
X861111Y59800D01*
X861111Y47800D01*
X861116Y47793D01*
X861112Y47789D01*
X861331Y46845D01*
X861337Y46839D01*
X861335Y46834D01*
X861759Y45962D01*
X861766Y45959D01*
X861764Y45953D01*
X862371Y45197D01*
X862379Y45195D01*
X862379Y45189D01*
X863139Y44588D01*
X863148Y44588D01*
X863149Y44582D01*
X864024Y44164D01*
X864032Y44166D01*
X864034Y44161D01*
X864980Y43949D01*
X864987Y43952D01*
X864991Y43947D01*
X865960Y43951D01*
G37*
G36*
X246200Y404631D02*
X246200Y404631D01*
X246201Y404631D01*
X247269Y404650D01*
X247276Y404655D01*
X247280Y404651D01*
X248317Y404907D01*
X248322Y404914D01*
X248328Y404911D01*
X249282Y405392D01*
X249286Y405399D01*
X249291Y405398D01*
X250115Y406079D01*
X250116Y406087D01*
X250122Y406087D01*
X250773Y406934D01*
X250773Y406942D01*
X250779Y406943D01*
X251226Y407914D01*
X251224Y407922D01*
X251229Y407924D01*
X251448Y408970D01*
X251445Y408977D01*
X251449Y408980D01*
X251449Y420980D01*
X251446Y420985D01*
X251449Y420988D01*
X251269Y422083D01*
X251263Y422089D01*
X251266Y422094D01*
X250847Y423122D01*
X250840Y423126D01*
X250842Y423131D01*
X250205Y424040D01*
X250197Y424043D01*
X250197Y424048D01*
X249374Y424792D01*
X249366Y424793D01*
X249365Y424799D01*
X248397Y425341D01*
X248388Y425340D01*
X248386Y425346D01*
X247322Y425659D01*
X247317Y425657D01*
X247313Y425657D01*
X247311Y425661D01*
X246203Y425729D01*
X246197Y425725D01*
X246193Y425729D01*
X245085Y425559D01*
X245079Y425553D01*
X245074Y425556D01*
X244032Y425144D01*
X244028Y425137D01*
X244023Y425139D01*
X243098Y424505D01*
X243096Y424497D01*
X243090Y424498D01*
X242330Y423675D01*
X242329Y423666D01*
X242323Y423666D01*
X241766Y422694D01*
X241767Y422686D01*
X241761Y422684D01*
X241434Y421612D01*
X241437Y421604D01*
X241432Y421601D01*
X241351Y420484D01*
X241352Y420481D01*
X241351Y420480D01*
X241351Y408480D01*
X241356Y408473D01*
X241352Y408469D01*
X241571Y407525D01*
X241577Y407519D01*
X241575Y407514D01*
X241999Y406642D01*
X242006Y406639D01*
X242004Y406633D01*
X242611Y405877D01*
X242619Y405875D01*
X242619Y405869D01*
X243379Y405268D01*
X243388Y405268D01*
X243389Y405262D01*
X244264Y404844D01*
X244272Y404846D01*
X244274Y404841D01*
X245220Y404629D01*
X245227Y404632D01*
X245231Y404627D01*
X246200Y404631D01*
G37*
G36*
X865960Y765311D02*
X865960Y765311D01*
X865961Y765311D01*
X867029Y765330D01*
X867036Y765335D01*
X867040Y765331D01*
X868077Y765587D01*
X868082Y765594D01*
X868088Y765591D01*
X869042Y766072D01*
X869046Y766079D01*
X869051Y766078D01*
X869875Y766759D01*
X869876Y766767D01*
X869882Y766767D01*
X870533Y767614D01*
X870533Y767622D01*
X870539Y767623D01*
X870986Y768594D01*
X870984Y768602D01*
X870989Y768604D01*
X871208Y769650D01*
X871205Y769657D01*
X871209Y769660D01*
X871209Y781660D01*
X871206Y781665D01*
X871209Y781668D01*
X871029Y782763D01*
X871023Y782769D01*
X871026Y782774D01*
X870607Y783802D01*
X870600Y783806D01*
X870602Y783811D01*
X869965Y784720D01*
X869957Y784723D01*
X869957Y784728D01*
X869134Y785472D01*
X869126Y785473D01*
X869125Y785479D01*
X868157Y786021D01*
X868148Y786020D01*
X868146Y786026D01*
X867082Y786339D01*
X867077Y786337D01*
X867073Y786337D01*
X867071Y786341D01*
X865963Y786409D01*
X865957Y786405D01*
X865953Y786409D01*
X864845Y786239D01*
X864839Y786233D01*
X864834Y786236D01*
X863792Y785824D01*
X863788Y785817D01*
X863783Y785819D01*
X862858Y785185D01*
X862856Y785177D01*
X862850Y785178D01*
X862090Y784355D01*
X862089Y784346D01*
X862083Y784346D01*
X861526Y783374D01*
X861527Y783366D01*
X861521Y783364D01*
X861194Y782292D01*
X861197Y782284D01*
X861192Y782281D01*
X861111Y781164D01*
X861112Y781161D01*
X861111Y781160D01*
X861111Y769160D01*
X861116Y769153D01*
X861112Y769149D01*
X861331Y768205D01*
X861337Y768199D01*
X861335Y768194D01*
X861759Y767322D01*
X861766Y767319D01*
X861764Y767313D01*
X862371Y766557D01*
X862379Y766555D01*
X862379Y766549D01*
X863139Y765948D01*
X863148Y765948D01*
X863149Y765942D01*
X864024Y765524D01*
X864032Y765526D01*
X864034Y765521D01*
X864980Y765309D01*
X864987Y765312D01*
X864991Y765307D01*
X865960Y765311D01*
G37*
G36*
X246200Y1125991D02*
X246200Y1125991D01*
X246201Y1125991D01*
X247269Y1126010D01*
X247276Y1126015D01*
X247280Y1126011D01*
X248317Y1126267D01*
X248322Y1126274D01*
X248328Y1126271D01*
X249282Y1126752D01*
X249286Y1126759D01*
X249291Y1126758D01*
X250115Y1127439D01*
X250116Y1127447D01*
X250122Y1127447D01*
X250773Y1128294D01*
X250773Y1128302D01*
X250779Y1128303D01*
X251226Y1129274D01*
X251224Y1129282D01*
X251229Y1129284D01*
X251448Y1130330D01*
X251445Y1130337D01*
X251449Y1130340D01*
X251449Y1142340D01*
X251446Y1142345D01*
X251449Y1142348D01*
X251269Y1143443D01*
X251263Y1143449D01*
X251266Y1143454D01*
X250847Y1144482D01*
X250840Y1144486D01*
X250842Y1144491D01*
X250205Y1145400D01*
X250197Y1145403D01*
X250197Y1145408D01*
X249374Y1146152D01*
X249366Y1146153D01*
X249365Y1146159D01*
X248397Y1146701D01*
X248388Y1146700D01*
X248386Y1146706D01*
X247322Y1147019D01*
X247317Y1147017D01*
X247313Y1147017D01*
X247311Y1147021D01*
X246203Y1147089D01*
X246197Y1147085D01*
X246193Y1147089D01*
X245085Y1146919D01*
X245079Y1146913D01*
X245074Y1146916D01*
X244032Y1146504D01*
X244028Y1146497D01*
X244023Y1146499D01*
X243098Y1145865D01*
X243096Y1145857D01*
X243090Y1145858D01*
X242330Y1145035D01*
X242329Y1145026D01*
X242323Y1145026D01*
X241766Y1144054D01*
X241767Y1144046D01*
X241761Y1144044D01*
X241434Y1142972D01*
X241437Y1142964D01*
X241432Y1142961D01*
X241351Y1141844D01*
X241352Y1141841D01*
X241351Y1141840D01*
X241351Y1129840D01*
X241356Y1129833D01*
X241352Y1129829D01*
X241571Y1128885D01*
X241577Y1128879D01*
X241575Y1128874D01*
X241999Y1128002D01*
X242006Y1127999D01*
X242004Y1127993D01*
X242611Y1127237D01*
X242619Y1127235D01*
X242619Y1127229D01*
X243379Y1126628D01*
X243388Y1126628D01*
X243389Y1126622D01*
X244264Y1126204D01*
X244272Y1126206D01*
X244274Y1126201D01*
X245220Y1125989D01*
X245227Y1125992D01*
X245231Y1125987D01*
X246200Y1125991D01*
G37*
G36*
X556080Y1125991D02*
X556080Y1125991D01*
X556081Y1125991D01*
X557149Y1126010D01*
X557156Y1126015D01*
X557160Y1126011D01*
X558197Y1126267D01*
X558202Y1126274D01*
X558208Y1126271D01*
X559162Y1126752D01*
X559166Y1126759D01*
X559171Y1126758D01*
X559995Y1127439D01*
X559996Y1127447D01*
X560002Y1127447D01*
X560653Y1128294D01*
X560653Y1128302D01*
X560659Y1128303D01*
X561106Y1129274D01*
X561104Y1129282D01*
X561109Y1129284D01*
X561328Y1130330D01*
X561325Y1130337D01*
X561329Y1130340D01*
X561329Y1142340D01*
X561326Y1142345D01*
X561329Y1142348D01*
X561149Y1143443D01*
X561143Y1143449D01*
X561146Y1143454D01*
X560727Y1144482D01*
X560720Y1144486D01*
X560722Y1144491D01*
X560085Y1145400D01*
X560077Y1145403D01*
X560077Y1145408D01*
X559254Y1146152D01*
X559246Y1146153D01*
X559245Y1146159D01*
X558277Y1146701D01*
X558268Y1146700D01*
X558266Y1146706D01*
X557202Y1147019D01*
X557197Y1147017D01*
X557193Y1147017D01*
X557191Y1147021D01*
X556083Y1147089D01*
X556077Y1147085D01*
X556073Y1147089D01*
X554965Y1146919D01*
X554959Y1146913D01*
X554954Y1146916D01*
X553912Y1146504D01*
X553908Y1146497D01*
X553903Y1146499D01*
X552978Y1145865D01*
X552976Y1145857D01*
X552970Y1145858D01*
X552210Y1145035D01*
X552209Y1145026D01*
X552203Y1145026D01*
X551646Y1144054D01*
X551647Y1144046D01*
X551641Y1144044D01*
X551314Y1142972D01*
X551317Y1142964D01*
X551312Y1142961D01*
X551231Y1141844D01*
X551232Y1141841D01*
X551231Y1141840D01*
X551231Y1129840D01*
X551236Y1129833D01*
X551232Y1129829D01*
X551451Y1128885D01*
X551457Y1128879D01*
X551455Y1128874D01*
X551879Y1128002D01*
X551886Y1127999D01*
X551884Y1127993D01*
X552491Y1127237D01*
X552499Y1127235D01*
X552499Y1127229D01*
X553259Y1126628D01*
X553268Y1126628D01*
X553269Y1126622D01*
X554144Y1126204D01*
X554152Y1126206D01*
X554154Y1126201D01*
X555100Y1125989D01*
X555107Y1125992D01*
X555111Y1125987D01*
X556080Y1125991D01*
G37*
G36*
X865960Y1125991D02*
X865960Y1125991D01*
X865961Y1125991D01*
X867029Y1126010D01*
X867036Y1126015D01*
X867040Y1126011D01*
X868077Y1126267D01*
X868082Y1126274D01*
X868088Y1126271D01*
X869042Y1126752D01*
X869046Y1126759D01*
X869051Y1126758D01*
X869875Y1127439D01*
X869876Y1127447D01*
X869882Y1127447D01*
X870533Y1128294D01*
X870533Y1128302D01*
X870539Y1128303D01*
X870986Y1129274D01*
X870984Y1129282D01*
X870989Y1129284D01*
X871208Y1130330D01*
X871205Y1130337D01*
X871209Y1130340D01*
X871209Y1142340D01*
X871206Y1142345D01*
X871209Y1142348D01*
X871029Y1143443D01*
X871023Y1143449D01*
X871026Y1143454D01*
X870607Y1144482D01*
X870600Y1144486D01*
X870602Y1144491D01*
X869965Y1145400D01*
X869957Y1145403D01*
X869957Y1145408D01*
X869134Y1146152D01*
X869126Y1146153D01*
X869125Y1146159D01*
X868157Y1146701D01*
X868148Y1146700D01*
X868146Y1146706D01*
X867082Y1147019D01*
X867077Y1147017D01*
X867073Y1147017D01*
X867071Y1147021D01*
X865963Y1147089D01*
X865957Y1147085D01*
X865953Y1147089D01*
X864845Y1146919D01*
X864839Y1146913D01*
X864834Y1146916D01*
X863792Y1146504D01*
X863788Y1146497D01*
X863783Y1146499D01*
X862858Y1145865D01*
X862856Y1145857D01*
X862850Y1145858D01*
X862090Y1145035D01*
X862089Y1145026D01*
X862083Y1145026D01*
X861526Y1144054D01*
X861527Y1144046D01*
X861521Y1144044D01*
X861194Y1142972D01*
X861197Y1142964D01*
X861192Y1142961D01*
X861111Y1141844D01*
X861112Y1141841D01*
X861111Y1141840D01*
X861111Y1129840D01*
X861116Y1129833D01*
X861112Y1129829D01*
X861331Y1128885D01*
X861337Y1128879D01*
X861335Y1128874D01*
X861759Y1128002D01*
X861766Y1127999D01*
X861764Y1127993D01*
X862371Y1127237D01*
X862379Y1127235D01*
X862379Y1127229D01*
X863139Y1126628D01*
X863148Y1126628D01*
X863149Y1126622D01*
X864024Y1126204D01*
X864032Y1126206D01*
X864034Y1126201D01*
X864980Y1125989D01*
X864987Y1125992D01*
X864991Y1125987D01*
X865960Y1125991D01*
G37*
G36*
X556080Y404631D02*
X556080Y404631D01*
X556081Y404631D01*
X557149Y404650D01*
X557156Y404655D01*
X557160Y404651D01*
X558197Y404907D01*
X558202Y404914D01*
X558208Y404911D01*
X559162Y405392D01*
X559166Y405399D01*
X559171Y405398D01*
X559995Y406079D01*
X559996Y406087D01*
X560002Y406087D01*
X560653Y406934D01*
X560653Y406942D01*
X560659Y406943D01*
X561106Y407914D01*
X561104Y407922D01*
X561109Y407924D01*
X561328Y408970D01*
X561325Y408977D01*
X561329Y408980D01*
X561329Y420980D01*
X561326Y420985D01*
X561329Y420988D01*
X561149Y422083D01*
X561143Y422089D01*
X561146Y422094D01*
X560727Y423122D01*
X560720Y423126D01*
X560722Y423131D01*
X560085Y424040D01*
X560077Y424043D01*
X560077Y424048D01*
X559254Y424792D01*
X559246Y424793D01*
X559245Y424799D01*
X558277Y425341D01*
X558268Y425340D01*
X558266Y425346D01*
X557202Y425659D01*
X557197Y425657D01*
X557193Y425657D01*
X557191Y425661D01*
X556083Y425729D01*
X556077Y425725D01*
X556073Y425729D01*
X554965Y425559D01*
X554959Y425553D01*
X554954Y425556D01*
X553912Y425144D01*
X553908Y425137D01*
X553903Y425139D01*
X552978Y424505D01*
X552976Y424497D01*
X552970Y424498D01*
X552210Y423675D01*
X552209Y423666D01*
X552203Y423666D01*
X551646Y422694D01*
X551647Y422686D01*
X551641Y422684D01*
X551314Y421612D01*
X551317Y421604D01*
X551312Y421601D01*
X551231Y420484D01*
X551232Y420481D01*
X551231Y420480D01*
X551231Y408480D01*
X551236Y408473D01*
X551232Y408469D01*
X551451Y407525D01*
X551457Y407519D01*
X551455Y407514D01*
X551879Y406642D01*
X551886Y406639D01*
X551884Y406633D01*
X552491Y405877D01*
X552499Y405875D01*
X552499Y405869D01*
X553259Y405268D01*
X553268Y405268D01*
X553269Y405262D01*
X554144Y404844D01*
X554152Y404846D01*
X554154Y404841D01*
X555100Y404629D01*
X555107Y404632D01*
X555111Y404627D01*
X556080Y404631D01*
G37*
G36*
X865960Y404631D02*
X865960Y404631D01*
X865961Y404631D01*
X867029Y404650D01*
X867036Y404655D01*
X867040Y404651D01*
X868077Y404907D01*
X868082Y404914D01*
X868088Y404911D01*
X869042Y405392D01*
X869046Y405399D01*
X869051Y405398D01*
X869875Y406079D01*
X869876Y406087D01*
X869882Y406087D01*
X870533Y406934D01*
X870533Y406942D01*
X870539Y406943D01*
X870986Y407914D01*
X870984Y407922D01*
X870989Y407924D01*
X871208Y408970D01*
X871205Y408977D01*
X871209Y408980D01*
X871209Y420980D01*
X871206Y420985D01*
X871209Y420988D01*
X871029Y422083D01*
X871023Y422089D01*
X871026Y422094D01*
X870607Y423122D01*
X870600Y423126D01*
X870602Y423131D01*
X869965Y424040D01*
X869957Y424043D01*
X869957Y424048D01*
X869134Y424792D01*
X869126Y424793D01*
X869125Y424799D01*
X868157Y425341D01*
X868148Y425340D01*
X868146Y425346D01*
X867082Y425659D01*
X867077Y425657D01*
X867073Y425657D01*
X867071Y425661D01*
X865963Y425729D01*
X865957Y425725D01*
X865953Y425729D01*
X864845Y425559D01*
X864839Y425553D01*
X864834Y425556D01*
X863792Y425144D01*
X863788Y425137D01*
X863783Y425139D01*
X862858Y424505D01*
X862856Y424497D01*
X862850Y424498D01*
X862090Y423675D01*
X862089Y423666D01*
X862083Y423666D01*
X861526Y422694D01*
X861527Y422686D01*
X861521Y422684D01*
X861194Y421612D01*
X861197Y421604D01*
X861192Y421601D01*
X861111Y420484D01*
X861112Y420481D01*
X861111Y420480D01*
X861111Y408480D01*
X861116Y408473D01*
X861112Y408469D01*
X861331Y407525D01*
X861337Y407519D01*
X861335Y407514D01*
X861759Y406642D01*
X861766Y406639D01*
X861764Y406633D01*
X862371Y405877D01*
X862379Y405875D01*
X862379Y405869D01*
X863139Y405268D01*
X863148Y405268D01*
X863149Y405262D01*
X864024Y404844D01*
X864032Y404846D01*
X864034Y404841D01*
X864980Y404629D01*
X864987Y404632D01*
X864991Y404627D01*
X865960Y404631D01*
G37*
G36*
X246200Y43951D02*
X246200Y43951D01*
X246201Y43951D01*
X247269Y43970D01*
X247276Y43975D01*
X247280Y43971D01*
X248317Y44227D01*
X248322Y44234D01*
X248328Y44231D01*
X249282Y44712D01*
X249286Y44719D01*
X249291Y44718D01*
X250115Y45399D01*
X250116Y45407D01*
X250122Y45407D01*
X250773Y46254D01*
X250773Y46262D01*
X250779Y46263D01*
X251226Y47234D01*
X251224Y47242D01*
X251229Y47244D01*
X251448Y48290D01*
X251445Y48297D01*
X251449Y48300D01*
X251449Y60300D01*
X251446Y60305D01*
X251449Y60308D01*
X251269Y61403D01*
X251263Y61409D01*
X251266Y61414D01*
X250847Y62442D01*
X250840Y62446D01*
X250842Y62451D01*
X250205Y63360D01*
X250197Y63363D01*
X250197Y63368D01*
X249374Y64112D01*
X249366Y64113D01*
X249365Y64119D01*
X248397Y64661D01*
X248388Y64660D01*
X248386Y64666D01*
X247322Y64979D01*
X247317Y64977D01*
X247313Y64977D01*
X247311Y64981D01*
X246203Y65049D01*
X246197Y65045D01*
X246193Y65049D01*
X245085Y64879D01*
X245079Y64873D01*
X245074Y64876D01*
X244032Y64464D01*
X244028Y64457D01*
X244023Y64459D01*
X243098Y63825D01*
X243096Y63817D01*
X243090Y63818D01*
X242330Y62995D01*
X242329Y62986D01*
X242323Y62986D01*
X241766Y62014D01*
X241767Y62006D01*
X241761Y62004D01*
X241434Y60932D01*
X241437Y60924D01*
X241432Y60921D01*
X241351Y59804D01*
X241352Y59801D01*
X241351Y59800D01*
X241351Y47800D01*
X241356Y47793D01*
X241352Y47789D01*
X241571Y46845D01*
X241577Y46839D01*
X241575Y46834D01*
X241999Y45962D01*
X242006Y45959D01*
X242004Y45953D01*
X242611Y45197D01*
X242619Y45195D01*
X242619Y45189D01*
X243379Y44588D01*
X243388Y44588D01*
X243389Y44582D01*
X244264Y44164D01*
X244272Y44166D01*
X244274Y44161D01*
X245220Y43949D01*
X245227Y43952D01*
X245231Y43947D01*
X246200Y43951D01*
G37*
G36*
X780541Y1486680D02*
X780541Y1486680D01*
X780548Y1486685D01*
X780552Y1486681D01*
X781604Y1486931D01*
X781609Y1486937D01*
X781614Y1486934D01*
X782584Y1487411D01*
X782587Y1487419D01*
X782593Y1487417D01*
X783432Y1488098D01*
X783434Y1488106D01*
X783440Y1488106D01*
X784106Y1488957D01*
X784107Y1488965D01*
X784112Y1488966D01*
X784573Y1489943D01*
X784571Y1489951D01*
X784577Y1489954D01*
X784808Y1491009D01*
X784805Y1491017D01*
X784809Y1491020D01*
X784809Y1503020D01*
X784805Y1503025D01*
X784809Y1503028D01*
X784616Y1504134D01*
X784610Y1504139D01*
X784613Y1504144D01*
X784180Y1505179D01*
X784173Y1505183D01*
X784175Y1505188D01*
X783522Y1506101D01*
X783514Y1506103D01*
X783515Y1506109D01*
X782676Y1506853D01*
X782667Y1506854D01*
X782667Y1506859D01*
X781683Y1507398D01*
X781675Y1507397D01*
X781673Y1507402D01*
X780594Y1507709D01*
X780586Y1507706D01*
X780583Y1507711D01*
X779463Y1507769D01*
X779458Y1507766D01*
X779455Y1507769D01*
X778409Y1507651D01*
X778403Y1507645D01*
X778398Y1507649D01*
X777404Y1507301D01*
X777400Y1507294D01*
X777395Y1507296D01*
X776503Y1506736D01*
X776501Y1506729D01*
X776495Y1506729D01*
X775751Y1505985D01*
X775749Y1505977D01*
X775744Y1505977D01*
X775184Y1505085D01*
X775184Y1505077D01*
X775179Y1505076D01*
X774831Y1504082D01*
X774834Y1504074D01*
X774829Y1504071D01*
X774711Y1503026D01*
X774713Y1503022D01*
X774711Y1503020D01*
X774711Y1491020D01*
X774714Y1491015D01*
X774711Y1491012D01*
X774869Y1490016D01*
X774875Y1490010D01*
X774872Y1490005D01*
X775247Y1489069D01*
X775254Y1489065D01*
X775252Y1489059D01*
X775826Y1488230D01*
X775834Y1488227D01*
X775833Y1488222D01*
X776577Y1487541D01*
X776586Y1487540D01*
X776586Y1487534D01*
X777463Y1487036D01*
X777472Y1487037D01*
X777474Y1487032D01*
X778439Y1486741D01*
X778447Y1486744D01*
X778450Y1486739D01*
X779457Y1486671D01*
X779459Y1486672D01*
X779460Y1486671D01*
X780541Y1486680D01*
G37*
G36*
X470661Y1486680D02*
X470661Y1486680D01*
X470668Y1486685D01*
X470672Y1486681D01*
X471724Y1486931D01*
X471729Y1486937D01*
X471734Y1486934D01*
X472704Y1487411D01*
X472707Y1487419D01*
X472713Y1487417D01*
X473552Y1488098D01*
X473554Y1488106D01*
X473560Y1488106D01*
X474226Y1488957D01*
X474227Y1488965D01*
X474232Y1488966D01*
X474693Y1489943D01*
X474691Y1489951D01*
X474697Y1489954D01*
X474928Y1491009D01*
X474925Y1491017D01*
X474929Y1491020D01*
X474929Y1503020D01*
X474925Y1503025D01*
X474929Y1503028D01*
X474736Y1504134D01*
X474730Y1504139D01*
X474733Y1504144D01*
X474300Y1505179D01*
X474293Y1505183D01*
X474295Y1505188D01*
X473642Y1506101D01*
X473634Y1506103D01*
X473635Y1506109D01*
X472796Y1506853D01*
X472787Y1506854D01*
X472787Y1506859D01*
X471803Y1507398D01*
X471795Y1507397D01*
X471793Y1507402D01*
X470714Y1507709D01*
X470706Y1507706D01*
X470703Y1507711D01*
X469583Y1507769D01*
X469578Y1507766D01*
X469575Y1507769D01*
X468529Y1507651D01*
X468523Y1507645D01*
X468518Y1507649D01*
X467524Y1507301D01*
X467520Y1507294D01*
X467515Y1507296D01*
X466623Y1506736D01*
X466621Y1506729D01*
X466615Y1506729D01*
X465871Y1505985D01*
X465869Y1505977D01*
X465864Y1505977D01*
X465304Y1505085D01*
X465304Y1505077D01*
X465299Y1505076D01*
X464951Y1504082D01*
X464954Y1504074D01*
X464949Y1504071D01*
X464831Y1503026D01*
X464833Y1503022D01*
X464831Y1503020D01*
X464831Y1491020D01*
X464834Y1491015D01*
X464831Y1491012D01*
X464989Y1490016D01*
X464995Y1490010D01*
X464992Y1490005D01*
X465367Y1489069D01*
X465374Y1489065D01*
X465372Y1489059D01*
X465946Y1488230D01*
X465954Y1488227D01*
X465953Y1488222D01*
X466697Y1487541D01*
X466706Y1487540D01*
X466706Y1487534D01*
X467583Y1487036D01*
X467592Y1487037D01*
X467594Y1487032D01*
X468559Y1486741D01*
X468567Y1486744D01*
X468570Y1486739D01*
X469577Y1486671D01*
X469579Y1486672D01*
X469580Y1486671D01*
X470661Y1486680D01*
G37*
G36*
X780541Y1126000D02*
X780541Y1126000D01*
X780548Y1126005D01*
X780552Y1126001D01*
X781604Y1126251D01*
X781609Y1126257D01*
X781614Y1126254D01*
X782584Y1126731D01*
X782587Y1126739D01*
X782593Y1126737D01*
X783432Y1127418D01*
X783434Y1127426D01*
X783440Y1127426D01*
X784106Y1128277D01*
X784107Y1128285D01*
X784112Y1128286D01*
X784573Y1129263D01*
X784571Y1129271D01*
X784577Y1129274D01*
X784808Y1130329D01*
X784805Y1130337D01*
X784809Y1130340D01*
X784809Y1142340D01*
X784805Y1142345D01*
X784809Y1142348D01*
X784616Y1143454D01*
X784610Y1143459D01*
X784613Y1143464D01*
X784180Y1144499D01*
X784173Y1144503D01*
X784175Y1144508D01*
X783522Y1145421D01*
X783514Y1145423D01*
X783515Y1145429D01*
X782676Y1146173D01*
X782667Y1146174D01*
X782667Y1146179D01*
X781683Y1146718D01*
X781675Y1146717D01*
X781673Y1146722D01*
X780594Y1147029D01*
X780586Y1147026D01*
X780583Y1147031D01*
X779463Y1147089D01*
X779458Y1147086D01*
X779455Y1147089D01*
X778409Y1146971D01*
X778403Y1146965D01*
X778398Y1146969D01*
X777404Y1146621D01*
X777400Y1146614D01*
X777395Y1146616D01*
X776503Y1146056D01*
X776501Y1146049D01*
X776495Y1146049D01*
X775751Y1145305D01*
X775749Y1145297D01*
X775744Y1145297D01*
X775184Y1144405D01*
X775184Y1144397D01*
X775179Y1144396D01*
X774831Y1143402D01*
X774834Y1143394D01*
X774829Y1143391D01*
X774711Y1142346D01*
X774713Y1142342D01*
X774711Y1142340D01*
X774711Y1130340D01*
X774714Y1130335D01*
X774711Y1130332D01*
X774869Y1129336D01*
X774875Y1129330D01*
X774872Y1129325D01*
X775247Y1128389D01*
X775254Y1128385D01*
X775252Y1128379D01*
X775826Y1127550D01*
X775834Y1127547D01*
X775833Y1127542D01*
X776577Y1126861D01*
X776586Y1126860D01*
X776586Y1126854D01*
X777463Y1126356D01*
X777472Y1126357D01*
X777474Y1126352D01*
X778439Y1126061D01*
X778447Y1126064D01*
X778450Y1126059D01*
X779457Y1125991D01*
X779459Y1125992D01*
X779460Y1125991D01*
X780541Y1126000D01*
G37*
G36*
X470661Y1126000D02*
X470661Y1126000D01*
X470668Y1126005D01*
X470672Y1126001D01*
X471724Y1126251D01*
X471729Y1126257D01*
X471734Y1126254D01*
X472704Y1126731D01*
X472707Y1126739D01*
X472713Y1126737D01*
X473552Y1127418D01*
X473554Y1127426D01*
X473560Y1127426D01*
X474226Y1128277D01*
X474227Y1128285D01*
X474232Y1128286D01*
X474693Y1129263D01*
X474691Y1129271D01*
X474697Y1129274D01*
X474928Y1130329D01*
X474925Y1130337D01*
X474929Y1130340D01*
X474929Y1142340D01*
X474925Y1142345D01*
X474929Y1142348D01*
X474736Y1143454D01*
X474730Y1143459D01*
X474733Y1143464D01*
X474300Y1144499D01*
X474293Y1144503D01*
X474295Y1144508D01*
X473642Y1145421D01*
X473634Y1145423D01*
X473635Y1145429D01*
X472796Y1146173D01*
X472787Y1146174D01*
X472787Y1146179D01*
X471803Y1146718D01*
X471795Y1146717D01*
X471793Y1146722D01*
X470714Y1147029D01*
X470706Y1147026D01*
X470703Y1147031D01*
X469583Y1147089D01*
X469578Y1147086D01*
X469575Y1147089D01*
X468529Y1146971D01*
X468523Y1146965D01*
X468518Y1146969D01*
X467524Y1146621D01*
X467520Y1146614D01*
X467515Y1146616D01*
X466623Y1146056D01*
X466621Y1146049D01*
X466615Y1146049D01*
X465871Y1145305D01*
X465869Y1145297D01*
X465864Y1145297D01*
X465304Y1144405D01*
X465304Y1144397D01*
X465299Y1144396D01*
X464951Y1143402D01*
X464954Y1143394D01*
X464949Y1143391D01*
X464831Y1142346D01*
X464833Y1142342D01*
X464831Y1142340D01*
X464831Y1130340D01*
X464834Y1130335D01*
X464831Y1130332D01*
X464989Y1129336D01*
X464995Y1129330D01*
X464992Y1129325D01*
X465367Y1128389D01*
X465374Y1128385D01*
X465372Y1128379D01*
X465946Y1127550D01*
X465954Y1127547D01*
X465953Y1127542D01*
X466697Y1126861D01*
X466706Y1126860D01*
X466706Y1126854D01*
X467583Y1126356D01*
X467592Y1126357D01*
X467594Y1126352D01*
X468559Y1126061D01*
X468567Y1126064D01*
X468570Y1126059D01*
X469577Y1125991D01*
X469579Y1125992D01*
X469580Y1125991D01*
X470661Y1126000D01*
G37*
G36*
X470661Y765320D02*
X470661Y765320D01*
X470668Y765325D01*
X470672Y765321D01*
X471724Y765571D01*
X471729Y765577D01*
X471734Y765574D01*
X472704Y766051D01*
X472707Y766059D01*
X472713Y766057D01*
X473552Y766738D01*
X473554Y766746D01*
X473560Y766746D01*
X474226Y767597D01*
X474227Y767605D01*
X474232Y767606D01*
X474693Y768583D01*
X474691Y768591D01*
X474697Y768594D01*
X474928Y769649D01*
X474925Y769657D01*
X474929Y769660D01*
X474929Y781660D01*
X474925Y781665D01*
X474929Y781668D01*
X474736Y782774D01*
X474730Y782779D01*
X474733Y782784D01*
X474300Y783819D01*
X474293Y783823D01*
X474295Y783828D01*
X473642Y784741D01*
X473634Y784743D01*
X473635Y784749D01*
X472796Y785493D01*
X472787Y785494D01*
X472787Y785499D01*
X471803Y786038D01*
X471795Y786037D01*
X471793Y786042D01*
X470714Y786349D01*
X470706Y786346D01*
X470703Y786351D01*
X469583Y786409D01*
X469578Y786406D01*
X469575Y786409D01*
X468529Y786291D01*
X468523Y786285D01*
X468518Y786289D01*
X467524Y785941D01*
X467520Y785934D01*
X467515Y785936D01*
X466623Y785376D01*
X466621Y785369D01*
X466615Y785369D01*
X465871Y784625D01*
X465869Y784617D01*
X465864Y784617D01*
X465304Y783725D01*
X465304Y783717D01*
X465299Y783716D01*
X464951Y782722D01*
X464954Y782714D01*
X464949Y782711D01*
X464831Y781666D01*
X464833Y781662D01*
X464831Y781660D01*
X464831Y769660D01*
X464834Y769655D01*
X464831Y769652D01*
X464989Y768656D01*
X464995Y768650D01*
X464992Y768645D01*
X465367Y767709D01*
X465374Y767705D01*
X465372Y767699D01*
X465946Y766870D01*
X465954Y766867D01*
X465953Y766862D01*
X466697Y766181D01*
X466706Y766180D01*
X466706Y766174D01*
X467583Y765676D01*
X467592Y765677D01*
X467594Y765672D01*
X468559Y765381D01*
X468567Y765384D01*
X468570Y765379D01*
X469577Y765311D01*
X469579Y765312D01*
X469580Y765311D01*
X470661Y765320D01*
G37*
G36*
X160781Y765320D02*
X160781Y765320D01*
X160788Y765325D01*
X160792Y765321D01*
X161844Y765571D01*
X161849Y765577D01*
X161854Y765574D01*
X162824Y766051D01*
X162827Y766059D01*
X162833Y766057D01*
X163672Y766738D01*
X163674Y766746D01*
X163680Y766746D01*
X164346Y767597D01*
X164347Y767605D01*
X164352Y767606D01*
X164813Y768583D01*
X164811Y768591D01*
X164817Y768594D01*
X165048Y769649D01*
X165045Y769657D01*
X165049Y769660D01*
X165049Y781660D01*
X165045Y781665D01*
X165049Y781668D01*
X164856Y782774D01*
X164850Y782779D01*
X164853Y782784D01*
X164420Y783819D01*
X164413Y783823D01*
X164415Y783828D01*
X163762Y784741D01*
X163754Y784743D01*
X163755Y784749D01*
X162916Y785493D01*
X162907Y785494D01*
X162907Y785499D01*
X161923Y786038D01*
X161915Y786037D01*
X161913Y786042D01*
X160834Y786349D01*
X160826Y786346D01*
X160823Y786351D01*
X159703Y786409D01*
X159698Y786406D01*
X159695Y786409D01*
X158649Y786291D01*
X158643Y786285D01*
X158638Y786289D01*
X157644Y785941D01*
X157640Y785934D01*
X157635Y785936D01*
X156743Y785376D01*
X156741Y785369D01*
X156735Y785369D01*
X155991Y784625D01*
X155989Y784617D01*
X155984Y784617D01*
X155424Y783725D01*
X155424Y783717D01*
X155419Y783716D01*
X155071Y782722D01*
X155074Y782714D01*
X155069Y782711D01*
X154951Y781666D01*
X154953Y781662D01*
X154951Y781660D01*
X154951Y769660D01*
X154954Y769655D01*
X154951Y769652D01*
X155109Y768656D01*
X155115Y768650D01*
X155112Y768645D01*
X155487Y767709D01*
X155494Y767705D01*
X155492Y767699D01*
X156066Y766870D01*
X156074Y766867D01*
X156073Y766862D01*
X156817Y766181D01*
X156826Y766180D01*
X156826Y766174D01*
X157703Y765676D01*
X157712Y765677D01*
X157714Y765672D01*
X158679Y765381D01*
X158687Y765384D01*
X158690Y765379D01*
X159697Y765311D01*
X159699Y765312D01*
X159700Y765311D01*
X160781Y765320D01*
G37*
G36*
X780541Y765320D02*
X780541Y765320D01*
X780548Y765325D01*
X780552Y765321D01*
X781604Y765571D01*
X781609Y765577D01*
X781614Y765574D01*
X782584Y766051D01*
X782587Y766059D01*
X782593Y766057D01*
X783432Y766738D01*
X783434Y766746D01*
X783440Y766746D01*
X784106Y767597D01*
X784107Y767605D01*
X784112Y767606D01*
X784573Y768583D01*
X784571Y768591D01*
X784577Y768594D01*
X784808Y769649D01*
X784805Y769657D01*
X784809Y769660D01*
X784809Y781660D01*
X784805Y781665D01*
X784809Y781668D01*
X784616Y782774D01*
X784610Y782779D01*
X784613Y782784D01*
X784180Y783819D01*
X784173Y783823D01*
X784175Y783828D01*
X783522Y784741D01*
X783514Y784743D01*
X783515Y784749D01*
X782676Y785493D01*
X782667Y785494D01*
X782667Y785499D01*
X781683Y786038D01*
X781675Y786037D01*
X781673Y786042D01*
X780594Y786349D01*
X780586Y786346D01*
X780583Y786351D01*
X779463Y786409D01*
X779458Y786406D01*
X779455Y786409D01*
X778409Y786291D01*
X778403Y786285D01*
X778398Y786289D01*
X777404Y785941D01*
X777400Y785934D01*
X777395Y785936D01*
X776503Y785376D01*
X776501Y785369D01*
X776495Y785369D01*
X775751Y784625D01*
X775749Y784617D01*
X775744Y784617D01*
X775184Y783725D01*
X775184Y783717D01*
X775179Y783716D01*
X774831Y782722D01*
X774834Y782714D01*
X774829Y782711D01*
X774711Y781666D01*
X774713Y781662D01*
X774711Y781660D01*
X774711Y769660D01*
X774714Y769655D01*
X774711Y769652D01*
X774869Y768656D01*
X774875Y768650D01*
X774872Y768645D01*
X775247Y767709D01*
X775254Y767705D01*
X775252Y767699D01*
X775826Y766870D01*
X775834Y766867D01*
X775833Y766862D01*
X776577Y766181D01*
X776586Y766180D01*
X776586Y766174D01*
X777463Y765676D01*
X777472Y765677D01*
X777474Y765672D01*
X778439Y765381D01*
X778447Y765384D01*
X778450Y765379D01*
X779457Y765311D01*
X779459Y765312D01*
X779460Y765311D01*
X780541Y765320D01*
G37*
G36*
X160781Y1126000D02*
X160781Y1126000D01*
X160788Y1126005D01*
X160792Y1126001D01*
X161844Y1126251D01*
X161849Y1126257D01*
X161854Y1126254D01*
X162824Y1126731D01*
X162827Y1126739D01*
X162833Y1126737D01*
X163672Y1127418D01*
X163674Y1127426D01*
X163680Y1127426D01*
X164346Y1128277D01*
X164347Y1128285D01*
X164352Y1128286D01*
X164813Y1129263D01*
X164811Y1129271D01*
X164817Y1129274D01*
X165048Y1130329D01*
X165045Y1130337D01*
X165049Y1130340D01*
X165049Y1142340D01*
X165045Y1142345D01*
X165049Y1142348D01*
X164856Y1143454D01*
X164850Y1143459D01*
X164853Y1143464D01*
X164420Y1144499D01*
X164413Y1144503D01*
X164415Y1144508D01*
X163762Y1145421D01*
X163754Y1145423D01*
X163755Y1145429D01*
X162916Y1146173D01*
X162907Y1146174D01*
X162907Y1146179D01*
X161923Y1146718D01*
X161915Y1146717D01*
X161913Y1146722D01*
X160834Y1147029D01*
X160826Y1147026D01*
X160823Y1147031D01*
X159703Y1147089D01*
X159698Y1147086D01*
X159695Y1147089D01*
X158649Y1146971D01*
X158643Y1146965D01*
X158638Y1146969D01*
X157644Y1146621D01*
X157640Y1146614D01*
X157635Y1146616D01*
X156743Y1146056D01*
X156741Y1146049D01*
X156735Y1146049D01*
X155991Y1145305D01*
X155989Y1145297D01*
X155984Y1145297D01*
X155424Y1144405D01*
X155424Y1144397D01*
X155419Y1144396D01*
X155071Y1143402D01*
X155074Y1143394D01*
X155069Y1143391D01*
X154951Y1142346D01*
X154953Y1142342D01*
X154951Y1142340D01*
X154951Y1130340D01*
X154954Y1130335D01*
X154951Y1130332D01*
X155109Y1129336D01*
X155115Y1129330D01*
X155112Y1129325D01*
X155487Y1128389D01*
X155494Y1128385D01*
X155492Y1128379D01*
X156066Y1127550D01*
X156074Y1127547D01*
X156073Y1127542D01*
X156817Y1126861D01*
X156826Y1126860D01*
X156826Y1126854D01*
X157703Y1126356D01*
X157712Y1126357D01*
X157714Y1126352D01*
X158679Y1126061D01*
X158687Y1126064D01*
X158690Y1126059D01*
X159697Y1125991D01*
X159699Y1125992D01*
X159700Y1125991D01*
X160781Y1126000D01*
G37*
G36*
X470661Y404640D02*
X470661Y404640D01*
X470668Y404645D01*
X470672Y404641D01*
X471724Y404891D01*
X471729Y404897D01*
X471734Y404894D01*
X472704Y405371D01*
X472707Y405379D01*
X472713Y405377D01*
X473552Y406058D01*
X473554Y406066D01*
X473560Y406066D01*
X474226Y406917D01*
X474227Y406925D01*
X474232Y406926D01*
X474693Y407903D01*
X474691Y407911D01*
X474697Y407914D01*
X474928Y408969D01*
X474925Y408977D01*
X474929Y408980D01*
X474929Y420980D01*
X474925Y420985D01*
X474929Y420988D01*
X474736Y422094D01*
X474730Y422099D01*
X474733Y422104D01*
X474300Y423139D01*
X474293Y423143D01*
X474295Y423148D01*
X473642Y424061D01*
X473634Y424063D01*
X473635Y424069D01*
X472796Y424813D01*
X472787Y424814D01*
X472787Y424819D01*
X471803Y425358D01*
X471795Y425357D01*
X471793Y425362D01*
X470714Y425669D01*
X470706Y425666D01*
X470703Y425671D01*
X469583Y425729D01*
X469578Y425726D01*
X469575Y425729D01*
X468529Y425611D01*
X468523Y425605D01*
X468518Y425609D01*
X467524Y425261D01*
X467520Y425254D01*
X467515Y425256D01*
X466623Y424696D01*
X466621Y424689D01*
X466615Y424689D01*
X465871Y423945D01*
X465869Y423937D01*
X465864Y423937D01*
X465304Y423045D01*
X465304Y423037D01*
X465299Y423036D01*
X464951Y422042D01*
X464954Y422034D01*
X464949Y422031D01*
X464831Y420986D01*
X464833Y420982D01*
X464831Y420980D01*
X464831Y408980D01*
X464834Y408975D01*
X464831Y408972D01*
X464989Y407976D01*
X464995Y407970D01*
X464992Y407965D01*
X465367Y407029D01*
X465374Y407025D01*
X465372Y407019D01*
X465946Y406190D01*
X465954Y406187D01*
X465953Y406182D01*
X466697Y405501D01*
X466706Y405500D01*
X466706Y405494D01*
X467583Y404996D01*
X467592Y404997D01*
X467594Y404992D01*
X468559Y404701D01*
X468567Y404704D01*
X468570Y404699D01*
X469577Y404631D01*
X469579Y404632D01*
X469580Y404631D01*
X470661Y404640D01*
G37*
G36*
X780541Y404640D02*
X780541Y404640D01*
X780548Y404645D01*
X780552Y404641D01*
X781604Y404891D01*
X781609Y404897D01*
X781614Y404894D01*
X782584Y405371D01*
X782587Y405379D01*
X782593Y405377D01*
X783432Y406058D01*
X783434Y406066D01*
X783440Y406066D01*
X784106Y406917D01*
X784107Y406925D01*
X784112Y406926D01*
X784573Y407903D01*
X784571Y407911D01*
X784577Y407914D01*
X784808Y408969D01*
X784805Y408977D01*
X784809Y408980D01*
X784809Y420980D01*
X784805Y420985D01*
X784809Y420988D01*
X784616Y422094D01*
X784610Y422099D01*
X784613Y422104D01*
X784180Y423139D01*
X784173Y423143D01*
X784175Y423148D01*
X783522Y424061D01*
X783514Y424063D01*
X783515Y424069D01*
X782676Y424813D01*
X782667Y424814D01*
X782667Y424819D01*
X781683Y425358D01*
X781675Y425357D01*
X781673Y425362D01*
X780594Y425669D01*
X780586Y425666D01*
X780583Y425671D01*
X779463Y425729D01*
X779458Y425726D01*
X779455Y425729D01*
X778409Y425611D01*
X778403Y425605D01*
X778398Y425609D01*
X777404Y425261D01*
X777400Y425254D01*
X777395Y425256D01*
X776503Y424696D01*
X776501Y424689D01*
X776495Y424689D01*
X775751Y423945D01*
X775749Y423937D01*
X775744Y423937D01*
X775184Y423045D01*
X775184Y423037D01*
X775179Y423036D01*
X774831Y422042D01*
X774834Y422034D01*
X774829Y422031D01*
X774711Y420986D01*
X774713Y420982D01*
X774711Y420980D01*
X774711Y408980D01*
X774714Y408975D01*
X774711Y408972D01*
X774869Y407976D01*
X774875Y407970D01*
X774872Y407965D01*
X775247Y407029D01*
X775254Y407025D01*
X775252Y407019D01*
X775826Y406190D01*
X775834Y406187D01*
X775833Y406182D01*
X776577Y405501D01*
X776586Y405500D01*
X776586Y405494D01*
X777463Y404996D01*
X777472Y404997D01*
X777474Y404992D01*
X778439Y404701D01*
X778447Y404704D01*
X778450Y404699D01*
X779457Y404631D01*
X779459Y404632D01*
X779460Y404631D01*
X780541Y404640D01*
G37*
G36*
X160781Y404640D02*
X160781Y404640D01*
X160788Y404645D01*
X160792Y404641D01*
X161844Y404891D01*
X161849Y404897D01*
X161854Y404894D01*
X162824Y405371D01*
X162827Y405379D01*
X162833Y405377D01*
X163672Y406058D01*
X163674Y406066D01*
X163680Y406066D01*
X164346Y406917D01*
X164347Y406925D01*
X164352Y406926D01*
X164813Y407903D01*
X164811Y407911D01*
X164817Y407914D01*
X165048Y408969D01*
X165045Y408977D01*
X165049Y408980D01*
X165049Y420980D01*
X165045Y420985D01*
X165049Y420988D01*
X164856Y422094D01*
X164850Y422099D01*
X164853Y422104D01*
X164420Y423139D01*
X164413Y423143D01*
X164415Y423148D01*
X163762Y424061D01*
X163754Y424063D01*
X163755Y424069D01*
X162916Y424813D01*
X162907Y424814D01*
X162907Y424819D01*
X161923Y425358D01*
X161915Y425357D01*
X161913Y425362D01*
X160834Y425669D01*
X160826Y425666D01*
X160823Y425671D01*
X159703Y425729D01*
X159698Y425726D01*
X159695Y425729D01*
X158649Y425611D01*
X158643Y425605D01*
X158638Y425609D01*
X157644Y425261D01*
X157640Y425254D01*
X157635Y425256D01*
X156743Y424696D01*
X156741Y424689D01*
X156735Y424689D01*
X155991Y423945D01*
X155989Y423937D01*
X155984Y423937D01*
X155424Y423045D01*
X155424Y423037D01*
X155419Y423036D01*
X155071Y422042D01*
X155074Y422034D01*
X155069Y422031D01*
X154951Y420986D01*
X154953Y420982D01*
X154951Y420980D01*
X154951Y408980D01*
X154954Y408975D01*
X154951Y408972D01*
X155109Y407976D01*
X155115Y407970D01*
X155112Y407965D01*
X155487Y407029D01*
X155494Y407025D01*
X155492Y407019D01*
X156066Y406190D01*
X156074Y406187D01*
X156073Y406182D01*
X156817Y405501D01*
X156826Y405500D01*
X156826Y405494D01*
X157703Y404996D01*
X157712Y404997D01*
X157714Y404992D01*
X158679Y404701D01*
X158687Y404704D01*
X158690Y404699D01*
X159697Y404631D01*
X159699Y404632D01*
X159700Y404631D01*
X160781Y404640D01*
G37*
G36*
X470661Y43960D02*
X470661Y43960D01*
X470668Y43965D01*
X470672Y43961D01*
X471724Y44211D01*
X471729Y44217D01*
X471734Y44214D01*
X472704Y44691D01*
X472707Y44699D01*
X472713Y44697D01*
X473552Y45378D01*
X473554Y45386D01*
X473560Y45386D01*
X474226Y46237D01*
X474227Y46245D01*
X474232Y46246D01*
X474693Y47223D01*
X474691Y47231D01*
X474697Y47234D01*
X474928Y48289D01*
X474925Y48297D01*
X474929Y48300D01*
X474929Y60300D01*
X474925Y60305D01*
X474929Y60308D01*
X474736Y61414D01*
X474730Y61419D01*
X474733Y61424D01*
X474300Y62459D01*
X474293Y62463D01*
X474295Y62468D01*
X473642Y63381D01*
X473634Y63383D01*
X473635Y63389D01*
X472796Y64133D01*
X472787Y64134D01*
X472787Y64139D01*
X471803Y64678D01*
X471795Y64677D01*
X471793Y64682D01*
X470714Y64989D01*
X470706Y64986D01*
X470703Y64991D01*
X469583Y65049D01*
X469578Y65046D01*
X469575Y65049D01*
X468529Y64931D01*
X468523Y64925D01*
X468518Y64929D01*
X467524Y64581D01*
X467520Y64574D01*
X467515Y64576D01*
X466623Y64016D01*
X466621Y64009D01*
X466615Y64009D01*
X465871Y63265D01*
X465869Y63257D01*
X465864Y63257D01*
X465304Y62365D01*
X465304Y62357D01*
X465299Y62356D01*
X464951Y61362D01*
X464954Y61354D01*
X464949Y61351D01*
X464831Y60306D01*
X464833Y60302D01*
X464831Y60300D01*
X464831Y48300D01*
X464834Y48295D01*
X464831Y48292D01*
X464989Y47296D01*
X464995Y47290D01*
X464992Y47285D01*
X465367Y46349D01*
X465374Y46345D01*
X465372Y46339D01*
X465946Y45510D01*
X465954Y45507D01*
X465953Y45502D01*
X466697Y44821D01*
X466706Y44820D01*
X466706Y44814D01*
X467583Y44316D01*
X467592Y44317D01*
X467594Y44312D01*
X468559Y44021D01*
X468567Y44024D01*
X468570Y44019D01*
X469577Y43951D01*
X469579Y43952D01*
X469580Y43951D01*
X470661Y43960D01*
G37*
G36*
X160781Y43960D02*
X160781Y43960D01*
X160788Y43965D01*
X160792Y43961D01*
X161844Y44211D01*
X161849Y44217D01*
X161854Y44214D01*
X162824Y44691D01*
X162827Y44699D01*
X162833Y44697D01*
X163672Y45378D01*
X163674Y45386D01*
X163680Y45386D01*
X164346Y46237D01*
X164347Y46245D01*
X164352Y46246D01*
X164813Y47223D01*
X164811Y47231D01*
X164817Y47234D01*
X165048Y48289D01*
X165045Y48297D01*
X165049Y48300D01*
X165049Y60300D01*
X165045Y60305D01*
X165049Y60308D01*
X164856Y61414D01*
X164850Y61419D01*
X164853Y61424D01*
X164420Y62459D01*
X164413Y62463D01*
X164415Y62468D01*
X163762Y63381D01*
X163754Y63383D01*
X163755Y63389D01*
X162916Y64133D01*
X162907Y64134D01*
X162907Y64139D01*
X161923Y64678D01*
X161915Y64677D01*
X161913Y64682D01*
X160834Y64989D01*
X160826Y64986D01*
X160823Y64991D01*
X159703Y65049D01*
X159698Y65046D01*
X159695Y65049D01*
X158649Y64931D01*
X158643Y64925D01*
X158638Y64929D01*
X157644Y64581D01*
X157640Y64574D01*
X157635Y64576D01*
X156743Y64016D01*
X156741Y64009D01*
X156735Y64009D01*
X155991Y63265D01*
X155989Y63257D01*
X155984Y63257D01*
X155424Y62365D01*
X155424Y62357D01*
X155419Y62356D01*
X155071Y61362D01*
X155074Y61354D01*
X155069Y61351D01*
X154951Y60306D01*
X154953Y60302D01*
X154951Y60300D01*
X154951Y48300D01*
X154954Y48295D01*
X154951Y48292D01*
X155109Y47296D01*
X155115Y47290D01*
X155112Y47285D01*
X155487Y46349D01*
X155494Y46345D01*
X155492Y46339D01*
X156066Y45510D01*
X156074Y45507D01*
X156073Y45502D01*
X156817Y44821D01*
X156826Y44820D01*
X156826Y44814D01*
X157703Y44316D01*
X157712Y44317D01*
X157714Y44312D01*
X158679Y44021D01*
X158687Y44024D01*
X158690Y44019D01*
X159697Y43951D01*
X159699Y43952D01*
X159700Y43951D01*
X160781Y43960D01*
G37*
G36*
X780541Y43960D02*
X780541Y43960D01*
X780548Y43965D01*
X780552Y43961D01*
X781604Y44211D01*
X781609Y44217D01*
X781614Y44214D01*
X782584Y44691D01*
X782587Y44699D01*
X782593Y44697D01*
X783432Y45378D01*
X783434Y45386D01*
X783440Y45386D01*
X784106Y46237D01*
X784107Y46245D01*
X784112Y46246D01*
X784573Y47223D01*
X784571Y47231D01*
X784577Y47234D01*
X784808Y48289D01*
X784805Y48297D01*
X784809Y48300D01*
X784809Y60300D01*
X784805Y60305D01*
X784809Y60308D01*
X784616Y61414D01*
X784610Y61419D01*
X784613Y61424D01*
X784180Y62459D01*
X784173Y62463D01*
X784175Y62468D01*
X783522Y63381D01*
X783514Y63383D01*
X783515Y63389D01*
X782676Y64133D01*
X782667Y64134D01*
X782667Y64139D01*
X781683Y64678D01*
X781675Y64677D01*
X781673Y64682D01*
X780594Y64989D01*
X780586Y64986D01*
X780583Y64991D01*
X779463Y65049D01*
X779458Y65046D01*
X779455Y65049D01*
X778409Y64931D01*
X778403Y64925D01*
X778398Y64929D01*
X777404Y64581D01*
X777400Y64574D01*
X777395Y64576D01*
X776503Y64016D01*
X776501Y64009D01*
X776495Y64009D01*
X775751Y63265D01*
X775749Y63257D01*
X775744Y63257D01*
X775184Y62365D01*
X775184Y62357D01*
X775179Y62356D01*
X774831Y61362D01*
X774834Y61354D01*
X774829Y61351D01*
X774711Y60306D01*
X774713Y60302D01*
X774711Y60300D01*
X774711Y48300D01*
X774714Y48295D01*
X774711Y48292D01*
X774869Y47296D01*
X774875Y47290D01*
X774872Y47285D01*
X775247Y46349D01*
X775254Y46345D01*
X775252Y46339D01*
X775826Y45510D01*
X775834Y45507D01*
X775833Y45502D01*
X776577Y44821D01*
X776586Y44820D01*
X776586Y44814D01*
X777463Y44316D01*
X777472Y44317D01*
X777474Y44312D01*
X778439Y44021D01*
X778447Y44024D01*
X778450Y44019D01*
X779457Y43951D01*
X779459Y43952D01*
X779460Y43951D01*
X780541Y43960D01*
G37*
G36*
X160781Y1486680D02*
X160781Y1486680D01*
X160788Y1486685D01*
X160792Y1486681D01*
X161844Y1486931D01*
X161849Y1486937D01*
X161854Y1486934D01*
X162824Y1487411D01*
X162827Y1487419D01*
X162833Y1487417D01*
X163672Y1488098D01*
X163674Y1488106D01*
X163680Y1488106D01*
X164346Y1488957D01*
X164347Y1488965D01*
X164352Y1488966D01*
X164813Y1489943D01*
X164811Y1489951D01*
X164817Y1489954D01*
X165048Y1491009D01*
X165045Y1491017D01*
X165049Y1491020D01*
X165049Y1503020D01*
X165045Y1503025D01*
X165049Y1503028D01*
X164856Y1504134D01*
X164850Y1504139D01*
X164853Y1504144D01*
X164420Y1505179D01*
X164413Y1505183D01*
X164415Y1505188D01*
X163762Y1506101D01*
X163754Y1506103D01*
X163755Y1506109D01*
X162916Y1506853D01*
X162907Y1506854D01*
X162907Y1506859D01*
X161923Y1507398D01*
X161915Y1507397D01*
X161913Y1507402D01*
X160834Y1507709D01*
X160826Y1507706D01*
X160823Y1507711D01*
X159703Y1507769D01*
X159698Y1507766D01*
X159695Y1507769D01*
X158649Y1507651D01*
X158643Y1507645D01*
X158638Y1507649D01*
X157644Y1507301D01*
X157640Y1507294D01*
X157635Y1507296D01*
X156743Y1506736D01*
X156741Y1506729D01*
X156735Y1506729D01*
X155991Y1505985D01*
X155989Y1505977D01*
X155984Y1505977D01*
X155424Y1505085D01*
X155424Y1505077D01*
X155419Y1505076D01*
X155071Y1504082D01*
X155074Y1504074D01*
X155069Y1504071D01*
X154951Y1503026D01*
X154953Y1503022D01*
X154951Y1503020D01*
X154951Y1491020D01*
X154954Y1491015D01*
X154951Y1491012D01*
X155109Y1490016D01*
X155115Y1490010D01*
X155112Y1490005D01*
X155487Y1489069D01*
X155494Y1489065D01*
X155492Y1489059D01*
X156066Y1488230D01*
X156074Y1488227D01*
X156073Y1488222D01*
X156817Y1487541D01*
X156826Y1487540D01*
X156826Y1487534D01*
X157703Y1487036D01*
X157712Y1487037D01*
X157714Y1487032D01*
X158679Y1486741D01*
X158687Y1486744D01*
X158690Y1486739D01*
X159697Y1486671D01*
X159699Y1486672D01*
X159700Y1486671D01*
X160781Y1486680D01*
G37*
G36*
X246704Y1086495D02*
X246704Y1086495D01*
X246707Y1086491D01*
X247783Y1086646D01*
X247788Y1086652D01*
X247793Y1086649D01*
X248807Y1087039D01*
X248811Y1087046D01*
X248817Y1087045D01*
X249719Y1087651D01*
X249721Y1087659D01*
X249727Y1087658D01*
X250471Y1088450D01*
X250472Y1088458D01*
X250478Y1088458D01*
X251027Y1089396D01*
X251026Y1089404D01*
X251032Y1089406D01*
X251359Y1090442D01*
X251356Y1090450D01*
X251361Y1090453D01*
X251449Y1091536D01*
X251447Y1091539D01*
X251449Y1091540D01*
X251449Y1097540D01*
X251446Y1097544D01*
X251449Y1097546D01*
X251299Y1098679D01*
X251293Y1098685D01*
X251296Y1098690D01*
X250898Y1099760D01*
X250891Y1099764D01*
X250893Y1099770D01*
X250266Y1100725D01*
X250258Y1100728D01*
X250259Y1100733D01*
X249436Y1101525D01*
X249428Y1101526D01*
X249427Y1101532D01*
X248448Y1102121D01*
X248440Y1102120D01*
X248438Y1102125D01*
X247353Y1102481D01*
X247345Y1102479D01*
X247342Y1102483D01*
X246205Y1102589D01*
X246196Y1102584D01*
X246191Y1102588D01*
X245054Y1102381D01*
X245048Y1102375D01*
X245043Y1102378D01*
X243981Y1101923D01*
X243977Y1101916D01*
X243971Y1101918D01*
X243036Y1101238D01*
X243034Y1101230D01*
X243028Y1101231D01*
X242268Y1100360D01*
X242268Y1100352D01*
X242262Y1100351D01*
X241715Y1099332D01*
X241716Y1099324D01*
X241711Y1099322D01*
X241707Y1099309D01*
X241694Y1099260D01*
X241693Y1099260D01*
X241694Y1099260D01*
X241680Y1099211D01*
X241666Y1099161D01*
X241653Y1099112D01*
X241639Y1099063D01*
X241626Y1099014D01*
X241612Y1098964D01*
X241599Y1098915D01*
X241585Y1098866D01*
X241571Y1098817D01*
X241558Y1098767D01*
X241544Y1098718D01*
X241531Y1098669D01*
X241517Y1098620D01*
X241504Y1098570D01*
X241490Y1098521D01*
X241477Y1098472D01*
X241476Y1098472D01*
X241463Y1098423D01*
X241449Y1098373D01*
X241404Y1098208D01*
X241407Y1098200D01*
X241402Y1098197D01*
X241351Y1097042D01*
X241352Y1097041D01*
X241351Y1097040D01*
X241351Y1091040D01*
X241355Y1091034D01*
X241352Y1091031D01*
X241564Y1089950D01*
X241570Y1089945D01*
X241567Y1089940D01*
X242014Y1088934D01*
X242021Y1088930D01*
X242019Y1088924D01*
X242679Y1088043D01*
X242687Y1088040D01*
X242687Y1088035D01*
X243526Y1087322D01*
X243534Y1087322D01*
X243535Y1087316D01*
X244512Y1086808D01*
X244520Y1086809D01*
X244522Y1086804D01*
X245587Y1086526D01*
X245595Y1086529D01*
X245598Y1086525D01*
X246699Y1086491D01*
X246704Y1086495D01*
G37*
G36*
X556584Y1086495D02*
X556584Y1086495D01*
X556587Y1086491D01*
X557663Y1086646D01*
X557668Y1086652D01*
X557673Y1086649D01*
X558687Y1087039D01*
X558691Y1087046D01*
X558697Y1087045D01*
X559599Y1087651D01*
X559601Y1087659D01*
X559607Y1087658D01*
X560351Y1088450D01*
X560352Y1088458D01*
X560358Y1088458D01*
X560907Y1089396D01*
X560906Y1089404D01*
X560912Y1089406D01*
X561239Y1090442D01*
X561236Y1090450D01*
X561241Y1090453D01*
X561329Y1091536D01*
X561327Y1091539D01*
X561329Y1091540D01*
X561329Y1097540D01*
X561326Y1097544D01*
X561329Y1097546D01*
X561179Y1098679D01*
X561173Y1098685D01*
X561176Y1098690D01*
X560778Y1099760D01*
X560771Y1099764D01*
X560773Y1099770D01*
X560146Y1100725D01*
X560138Y1100728D01*
X560139Y1100733D01*
X559316Y1101525D01*
X559308Y1101526D01*
X559307Y1101532D01*
X558328Y1102121D01*
X558320Y1102120D01*
X558318Y1102125D01*
X557233Y1102481D01*
X557225Y1102479D01*
X557222Y1102483D01*
X556085Y1102589D01*
X556076Y1102584D01*
X556071Y1102588D01*
X554934Y1102381D01*
X554928Y1102375D01*
X554923Y1102378D01*
X553861Y1101923D01*
X553857Y1101916D01*
X553851Y1101918D01*
X552916Y1101238D01*
X552914Y1101230D01*
X552908Y1101231D01*
X552148Y1100360D01*
X552148Y1100352D01*
X552142Y1100351D01*
X551595Y1099332D01*
X551596Y1099324D01*
X551591Y1099322D01*
X551587Y1099309D01*
X551574Y1099260D01*
X551573Y1099260D01*
X551574Y1099260D01*
X551560Y1099211D01*
X551546Y1099161D01*
X551533Y1099112D01*
X551519Y1099063D01*
X551506Y1099014D01*
X551492Y1098964D01*
X551479Y1098915D01*
X551465Y1098866D01*
X551451Y1098817D01*
X551438Y1098767D01*
X551424Y1098718D01*
X551411Y1098669D01*
X551397Y1098620D01*
X551384Y1098570D01*
X551370Y1098521D01*
X551357Y1098472D01*
X551356Y1098472D01*
X551343Y1098423D01*
X551329Y1098373D01*
X551284Y1098208D01*
X551287Y1098200D01*
X551282Y1098197D01*
X551231Y1097042D01*
X551232Y1097041D01*
X551231Y1097040D01*
X551231Y1091040D01*
X551235Y1091034D01*
X551232Y1091031D01*
X551444Y1089950D01*
X551450Y1089945D01*
X551447Y1089940D01*
X551894Y1088934D01*
X551901Y1088930D01*
X551899Y1088924D01*
X552559Y1088043D01*
X552567Y1088040D01*
X552567Y1088035D01*
X553406Y1087322D01*
X553414Y1087322D01*
X553415Y1087316D01*
X554392Y1086808D01*
X554400Y1086809D01*
X554402Y1086804D01*
X555467Y1086526D01*
X555475Y1086529D01*
X555478Y1086525D01*
X556579Y1086491D01*
X556584Y1086495D01*
G37*
G36*
X866464Y1086495D02*
X866464Y1086495D01*
X866467Y1086491D01*
X867543Y1086646D01*
X867548Y1086652D01*
X867553Y1086649D01*
X868567Y1087039D01*
X868571Y1087046D01*
X868577Y1087045D01*
X869479Y1087651D01*
X869481Y1087659D01*
X869487Y1087658D01*
X870231Y1088450D01*
X870232Y1088458D01*
X870238Y1088458D01*
X870787Y1089396D01*
X870786Y1089404D01*
X870792Y1089406D01*
X871119Y1090442D01*
X871116Y1090450D01*
X871121Y1090453D01*
X871209Y1091536D01*
X871207Y1091539D01*
X871209Y1091540D01*
X871209Y1097540D01*
X871206Y1097544D01*
X871209Y1097546D01*
X871059Y1098679D01*
X871053Y1098685D01*
X871056Y1098690D01*
X870658Y1099760D01*
X870651Y1099764D01*
X870653Y1099770D01*
X870026Y1100725D01*
X870018Y1100728D01*
X870019Y1100733D01*
X869196Y1101525D01*
X869188Y1101526D01*
X869187Y1101532D01*
X868208Y1102121D01*
X868200Y1102120D01*
X868198Y1102125D01*
X867113Y1102481D01*
X867105Y1102479D01*
X867102Y1102483D01*
X865965Y1102589D01*
X865956Y1102584D01*
X865951Y1102588D01*
X864814Y1102381D01*
X864808Y1102375D01*
X864803Y1102378D01*
X863741Y1101923D01*
X863737Y1101916D01*
X863731Y1101918D01*
X862796Y1101238D01*
X862794Y1101230D01*
X862788Y1101231D01*
X862028Y1100360D01*
X862028Y1100352D01*
X862022Y1100351D01*
X861475Y1099332D01*
X861476Y1099324D01*
X861471Y1099322D01*
X861467Y1099309D01*
X861454Y1099260D01*
X861453Y1099260D01*
X861454Y1099260D01*
X861440Y1099211D01*
X861426Y1099161D01*
X861413Y1099112D01*
X861399Y1099063D01*
X861386Y1099014D01*
X861372Y1098964D01*
X861359Y1098915D01*
X861345Y1098866D01*
X861331Y1098817D01*
X861318Y1098767D01*
X861304Y1098718D01*
X861291Y1098669D01*
X861277Y1098620D01*
X861264Y1098570D01*
X861250Y1098521D01*
X861237Y1098472D01*
X861236Y1098472D01*
X861223Y1098423D01*
X861209Y1098373D01*
X861164Y1098208D01*
X861167Y1098200D01*
X861162Y1098197D01*
X861111Y1097042D01*
X861112Y1097041D01*
X861111Y1097040D01*
X861111Y1091040D01*
X861115Y1091034D01*
X861112Y1091031D01*
X861324Y1089950D01*
X861330Y1089945D01*
X861327Y1089940D01*
X861774Y1088934D01*
X861781Y1088930D01*
X861779Y1088924D01*
X862439Y1088043D01*
X862447Y1088040D01*
X862447Y1088035D01*
X863286Y1087322D01*
X863294Y1087322D01*
X863295Y1087316D01*
X864272Y1086808D01*
X864280Y1086809D01*
X864282Y1086804D01*
X865347Y1086526D01*
X865355Y1086529D01*
X865358Y1086525D01*
X866459Y1086491D01*
X866464Y1086495D01*
G37*
G36*
X246704Y725815D02*
X246704Y725815D01*
X246707Y725811D01*
X247783Y725966D01*
X247788Y725972D01*
X247793Y725969D01*
X248807Y726359D01*
X248811Y726366D01*
X248817Y726365D01*
X249719Y726971D01*
X249721Y726979D01*
X249727Y726978D01*
X250471Y727770D01*
X250472Y727778D01*
X250478Y727778D01*
X251027Y728716D01*
X251026Y728724D01*
X251032Y728726D01*
X251359Y729762D01*
X251356Y729770D01*
X251361Y729773D01*
X251449Y730856D01*
X251447Y730859D01*
X251449Y730860D01*
X251449Y736860D01*
X251446Y736864D01*
X251449Y736866D01*
X251299Y737999D01*
X251293Y738005D01*
X251296Y738010D01*
X250898Y739080D01*
X250891Y739084D01*
X250893Y739090D01*
X250266Y740045D01*
X250258Y740048D01*
X250259Y740053D01*
X249436Y740845D01*
X249428Y740846D01*
X249427Y740852D01*
X248448Y741441D01*
X248440Y741440D01*
X248438Y741445D01*
X247353Y741801D01*
X247345Y741799D01*
X247342Y741803D01*
X246205Y741909D01*
X246196Y741904D01*
X246191Y741908D01*
X245054Y741701D01*
X245048Y741695D01*
X245043Y741698D01*
X243981Y741243D01*
X243977Y741236D01*
X243971Y741238D01*
X243036Y740558D01*
X243034Y740550D01*
X243028Y740551D01*
X242268Y739680D01*
X242268Y739672D01*
X242262Y739671D01*
X241715Y738652D01*
X241716Y738644D01*
X241711Y738642D01*
X241707Y738629D01*
X241694Y738580D01*
X241693Y738580D01*
X241694Y738580D01*
X241680Y738531D01*
X241666Y738481D01*
X241653Y738432D01*
X241639Y738383D01*
X241626Y738334D01*
X241612Y738284D01*
X241599Y738235D01*
X241585Y738186D01*
X241571Y738137D01*
X241558Y738087D01*
X241544Y738038D01*
X241531Y737989D01*
X241517Y737940D01*
X241504Y737890D01*
X241490Y737841D01*
X241477Y737792D01*
X241476Y737792D01*
X241463Y737743D01*
X241449Y737693D01*
X241404Y737528D01*
X241407Y737520D01*
X241402Y737517D01*
X241351Y736362D01*
X241352Y736361D01*
X241351Y736360D01*
X241351Y730360D01*
X241355Y730354D01*
X241352Y730351D01*
X241564Y729270D01*
X241570Y729265D01*
X241567Y729260D01*
X242014Y728254D01*
X242021Y728250D01*
X242019Y728244D01*
X242679Y727363D01*
X242687Y727360D01*
X242687Y727355D01*
X243526Y726642D01*
X243534Y726642D01*
X243535Y726636D01*
X244512Y726128D01*
X244520Y726129D01*
X244522Y726124D01*
X245587Y725846D01*
X245595Y725849D01*
X245598Y725845D01*
X246699Y725811D01*
X246704Y725815D01*
G37*
G36*
X866464Y725815D02*
X866464Y725815D01*
X866467Y725811D01*
X867543Y725966D01*
X867548Y725972D01*
X867553Y725969D01*
X868567Y726359D01*
X868571Y726366D01*
X868577Y726365D01*
X869479Y726971D01*
X869481Y726979D01*
X869487Y726978D01*
X870231Y727770D01*
X870232Y727778D01*
X870238Y727778D01*
X870787Y728716D01*
X870786Y728724D01*
X870792Y728726D01*
X871119Y729762D01*
X871116Y729770D01*
X871121Y729773D01*
X871209Y730856D01*
X871207Y730859D01*
X871209Y730860D01*
X871209Y736860D01*
X871206Y736864D01*
X871209Y736866D01*
X871059Y737999D01*
X871053Y738005D01*
X871056Y738010D01*
X870658Y739080D01*
X870651Y739084D01*
X870653Y739090D01*
X870026Y740045D01*
X870018Y740048D01*
X870019Y740053D01*
X869196Y740845D01*
X869188Y740846D01*
X869187Y740852D01*
X868208Y741441D01*
X868200Y741440D01*
X868198Y741445D01*
X867113Y741801D01*
X867105Y741799D01*
X867102Y741803D01*
X865965Y741909D01*
X865956Y741904D01*
X865951Y741908D01*
X864814Y741701D01*
X864808Y741695D01*
X864803Y741698D01*
X863741Y741243D01*
X863737Y741236D01*
X863731Y741238D01*
X862796Y740558D01*
X862794Y740550D01*
X862788Y740551D01*
X862028Y739680D01*
X862028Y739672D01*
X862022Y739671D01*
X861475Y738652D01*
X861476Y738644D01*
X861471Y738642D01*
X861467Y738629D01*
X861454Y738580D01*
X861453Y738580D01*
X861454Y738580D01*
X861440Y738531D01*
X861426Y738481D01*
X861413Y738432D01*
X861399Y738383D01*
X861386Y738334D01*
X861372Y738284D01*
X861359Y738235D01*
X861345Y738186D01*
X861331Y738137D01*
X861318Y738087D01*
X861304Y738038D01*
X861291Y737989D01*
X861277Y737940D01*
X861264Y737890D01*
X861250Y737841D01*
X861237Y737792D01*
X861236Y737792D01*
X861223Y737743D01*
X861209Y737693D01*
X861164Y737528D01*
X861167Y737520D01*
X861162Y737517D01*
X861111Y736362D01*
X861112Y736361D01*
X861111Y736360D01*
X861111Y730360D01*
X861115Y730354D01*
X861112Y730351D01*
X861324Y729270D01*
X861330Y729265D01*
X861327Y729260D01*
X861774Y728254D01*
X861781Y728250D01*
X861779Y728244D01*
X862439Y727363D01*
X862447Y727360D01*
X862447Y727355D01*
X863286Y726642D01*
X863294Y726642D01*
X863295Y726636D01*
X864272Y726128D01*
X864280Y726129D01*
X864282Y726124D01*
X865347Y725846D01*
X865355Y725849D01*
X865358Y725845D01*
X866459Y725811D01*
X866464Y725815D01*
G37*
G36*
X246704Y365135D02*
X246704Y365135D01*
X246707Y365131D01*
X247783Y365286D01*
X247788Y365292D01*
X247793Y365289D01*
X248807Y365679D01*
X248811Y365686D01*
X248817Y365685D01*
X249719Y366291D01*
X249721Y366299D01*
X249727Y366298D01*
X250471Y367090D01*
X250472Y367098D01*
X250478Y367098D01*
X251027Y368036D01*
X251026Y368044D01*
X251032Y368046D01*
X251359Y369082D01*
X251356Y369090D01*
X251361Y369093D01*
X251449Y370176D01*
X251447Y370179D01*
X251449Y370180D01*
X251449Y376180D01*
X251446Y376184D01*
X251449Y376186D01*
X251299Y377319D01*
X251293Y377325D01*
X251296Y377330D01*
X250898Y378400D01*
X250891Y378404D01*
X250893Y378410D01*
X250266Y379365D01*
X250258Y379368D01*
X250259Y379373D01*
X249436Y380165D01*
X249428Y380166D01*
X249427Y380172D01*
X248448Y380761D01*
X248440Y380760D01*
X248438Y380765D01*
X247353Y381121D01*
X247345Y381119D01*
X247342Y381123D01*
X246205Y381229D01*
X246196Y381224D01*
X246191Y381228D01*
X245054Y381021D01*
X245048Y381015D01*
X245043Y381018D01*
X243981Y380563D01*
X243977Y380556D01*
X243971Y380558D01*
X243036Y379878D01*
X243034Y379870D01*
X243028Y379871D01*
X242268Y379000D01*
X242268Y378992D01*
X242262Y378991D01*
X241715Y377972D01*
X241716Y377964D01*
X241711Y377962D01*
X241707Y377949D01*
X241694Y377900D01*
X241693Y377900D01*
X241694Y377900D01*
X241680Y377851D01*
X241666Y377801D01*
X241653Y377752D01*
X241639Y377703D01*
X241626Y377654D01*
X241612Y377604D01*
X241599Y377555D01*
X241585Y377506D01*
X241571Y377457D01*
X241558Y377407D01*
X241544Y377358D01*
X241531Y377309D01*
X241517Y377260D01*
X241504Y377210D01*
X241490Y377161D01*
X241477Y377112D01*
X241476Y377112D01*
X241463Y377063D01*
X241449Y377013D01*
X241404Y376848D01*
X241407Y376840D01*
X241402Y376837D01*
X241351Y375682D01*
X241352Y375681D01*
X241351Y375680D01*
X241351Y369680D01*
X241355Y369674D01*
X241352Y369671D01*
X241564Y368590D01*
X241570Y368585D01*
X241567Y368580D01*
X242014Y367574D01*
X242021Y367570D01*
X242019Y367564D01*
X242679Y366683D01*
X242687Y366680D01*
X242687Y366675D01*
X243526Y365962D01*
X243534Y365962D01*
X243535Y365956D01*
X244512Y365448D01*
X244520Y365449D01*
X244522Y365444D01*
X245587Y365166D01*
X245595Y365169D01*
X245598Y365165D01*
X246699Y365131D01*
X246704Y365135D01*
G37*
G36*
X556584Y365135D02*
X556584Y365135D01*
X556587Y365131D01*
X557663Y365286D01*
X557668Y365292D01*
X557673Y365289D01*
X558687Y365679D01*
X558691Y365686D01*
X558697Y365685D01*
X559599Y366291D01*
X559601Y366299D01*
X559607Y366298D01*
X560351Y367090D01*
X560352Y367098D01*
X560358Y367098D01*
X560907Y368036D01*
X560906Y368044D01*
X560912Y368046D01*
X561239Y369082D01*
X561236Y369090D01*
X561241Y369093D01*
X561329Y370176D01*
X561327Y370179D01*
X561329Y370180D01*
X561329Y376180D01*
X561326Y376184D01*
X561329Y376186D01*
X561179Y377319D01*
X561173Y377325D01*
X561176Y377330D01*
X560778Y378400D01*
X560771Y378404D01*
X560773Y378410D01*
X560146Y379365D01*
X560138Y379368D01*
X560139Y379373D01*
X559316Y380165D01*
X559308Y380166D01*
X559307Y380172D01*
X558328Y380761D01*
X558320Y380760D01*
X558318Y380765D01*
X557233Y381121D01*
X557225Y381119D01*
X557222Y381123D01*
X556085Y381229D01*
X556076Y381224D01*
X556071Y381228D01*
X554934Y381021D01*
X554928Y381015D01*
X554923Y381018D01*
X553861Y380563D01*
X553857Y380556D01*
X553851Y380558D01*
X552916Y379878D01*
X552914Y379870D01*
X552908Y379871D01*
X552148Y379000D01*
X552148Y378992D01*
X552142Y378991D01*
X551595Y377972D01*
X551596Y377964D01*
X551591Y377962D01*
X551587Y377949D01*
X551574Y377900D01*
X551573Y377900D01*
X551574Y377900D01*
X551560Y377851D01*
X551546Y377801D01*
X551533Y377752D01*
X551519Y377703D01*
X551506Y377654D01*
X551492Y377604D01*
X551479Y377555D01*
X551465Y377506D01*
X551451Y377457D01*
X551438Y377407D01*
X551424Y377358D01*
X551411Y377309D01*
X551397Y377260D01*
X551384Y377210D01*
X551370Y377161D01*
X551357Y377112D01*
X551356Y377112D01*
X551343Y377063D01*
X551329Y377013D01*
X551284Y376848D01*
X551287Y376840D01*
X551282Y376837D01*
X551231Y375682D01*
X551232Y375681D01*
X551231Y375680D01*
X551231Y369680D01*
X551235Y369674D01*
X551232Y369671D01*
X551444Y368590D01*
X551450Y368585D01*
X551447Y368580D01*
X551894Y367574D01*
X551901Y367570D01*
X551899Y367564D01*
X552559Y366683D01*
X552567Y366680D01*
X552567Y366675D01*
X553406Y365962D01*
X553414Y365962D01*
X553415Y365956D01*
X554392Y365448D01*
X554400Y365449D01*
X554402Y365444D01*
X555467Y365166D01*
X555475Y365169D01*
X555478Y365165D01*
X556579Y365131D01*
X556584Y365135D01*
G37*
G36*
X866464Y1447175D02*
X866464Y1447175D01*
X866467Y1447171D01*
X867543Y1447326D01*
X867548Y1447332D01*
X867553Y1447329D01*
X868567Y1447719D01*
X868571Y1447726D01*
X868577Y1447725D01*
X869479Y1448331D01*
X869481Y1448339D01*
X869487Y1448338D01*
X870231Y1449130D01*
X870232Y1449138D01*
X870238Y1449138D01*
X870787Y1450076D01*
X870786Y1450084D01*
X870792Y1450086D01*
X871119Y1451122D01*
X871116Y1451130D01*
X871121Y1451133D01*
X871209Y1452216D01*
X871207Y1452219D01*
X871209Y1452220D01*
X871209Y1458220D01*
X871206Y1458224D01*
X871209Y1458226D01*
X871059Y1459359D01*
X871053Y1459365D01*
X871056Y1459370D01*
X870658Y1460440D01*
X870651Y1460444D01*
X870653Y1460450D01*
X870026Y1461405D01*
X870018Y1461408D01*
X870019Y1461413D01*
X869196Y1462205D01*
X869188Y1462206D01*
X869187Y1462212D01*
X868208Y1462801D01*
X868200Y1462800D01*
X868198Y1462805D01*
X867113Y1463161D01*
X867105Y1463159D01*
X867102Y1463163D01*
X865965Y1463269D01*
X865956Y1463264D01*
X865951Y1463268D01*
X864814Y1463061D01*
X864808Y1463055D01*
X864803Y1463058D01*
X863741Y1462603D01*
X863737Y1462596D01*
X863731Y1462598D01*
X862796Y1461918D01*
X862794Y1461910D01*
X862788Y1461911D01*
X862028Y1461040D01*
X862028Y1461032D01*
X862022Y1461031D01*
X861475Y1460012D01*
X861476Y1460004D01*
X861471Y1460002D01*
X861467Y1459989D01*
X861454Y1459940D01*
X861453Y1459940D01*
X861454Y1459940D01*
X861440Y1459891D01*
X861426Y1459841D01*
X861413Y1459792D01*
X861399Y1459743D01*
X861386Y1459694D01*
X861372Y1459644D01*
X861359Y1459595D01*
X861345Y1459546D01*
X861331Y1459497D01*
X861318Y1459447D01*
X861304Y1459398D01*
X861291Y1459349D01*
X861277Y1459300D01*
X861264Y1459250D01*
X861250Y1459201D01*
X861237Y1459152D01*
X861236Y1459152D01*
X861223Y1459103D01*
X861209Y1459053D01*
X861164Y1458888D01*
X861167Y1458880D01*
X861162Y1458877D01*
X861111Y1457722D01*
X861112Y1457721D01*
X861111Y1457720D01*
X861111Y1451720D01*
X861115Y1451714D01*
X861112Y1451711D01*
X861324Y1450630D01*
X861330Y1450625D01*
X861327Y1450620D01*
X861774Y1449614D01*
X861781Y1449610D01*
X861779Y1449604D01*
X862439Y1448723D01*
X862447Y1448720D01*
X862447Y1448715D01*
X863286Y1448002D01*
X863294Y1448002D01*
X863295Y1447996D01*
X864272Y1447488D01*
X864280Y1447489D01*
X864282Y1447484D01*
X865347Y1447206D01*
X865355Y1447209D01*
X865358Y1447205D01*
X866459Y1447171D01*
X866464Y1447175D01*
G37*
G36*
X866464Y365135D02*
X866464Y365135D01*
X866467Y365131D01*
X867543Y365286D01*
X867548Y365292D01*
X867553Y365289D01*
X868567Y365679D01*
X868571Y365686D01*
X868577Y365685D01*
X869479Y366291D01*
X869481Y366299D01*
X869487Y366298D01*
X870231Y367090D01*
X870232Y367098D01*
X870238Y367098D01*
X870787Y368036D01*
X870786Y368044D01*
X870792Y368046D01*
X871119Y369082D01*
X871116Y369090D01*
X871121Y369093D01*
X871209Y370176D01*
X871207Y370179D01*
X871209Y370180D01*
X871209Y376180D01*
X871206Y376184D01*
X871209Y376186D01*
X871059Y377319D01*
X871053Y377325D01*
X871056Y377330D01*
X870658Y378400D01*
X870651Y378404D01*
X870653Y378410D01*
X870026Y379365D01*
X870018Y379368D01*
X870019Y379373D01*
X869196Y380165D01*
X869188Y380166D01*
X869187Y380172D01*
X868208Y380761D01*
X868200Y380760D01*
X868198Y380765D01*
X867113Y381121D01*
X867105Y381119D01*
X867102Y381123D01*
X865965Y381229D01*
X865956Y381224D01*
X865951Y381228D01*
X864814Y381021D01*
X864808Y381015D01*
X864803Y381018D01*
X863741Y380563D01*
X863737Y380556D01*
X863731Y380558D01*
X862796Y379878D01*
X862794Y379870D01*
X862788Y379871D01*
X862028Y379000D01*
X862028Y378992D01*
X862022Y378991D01*
X861475Y377972D01*
X861476Y377964D01*
X861471Y377962D01*
X861467Y377949D01*
X861454Y377900D01*
X861453Y377900D01*
X861454Y377900D01*
X861440Y377851D01*
X861426Y377801D01*
X861413Y377752D01*
X861399Y377703D01*
X861386Y377654D01*
X861372Y377604D01*
X861359Y377555D01*
X861345Y377506D01*
X861331Y377457D01*
X861318Y377407D01*
X861304Y377358D01*
X861291Y377309D01*
X861277Y377260D01*
X861264Y377210D01*
X861250Y377161D01*
X861237Y377112D01*
X861236Y377112D01*
X861223Y377063D01*
X861209Y377013D01*
X861164Y376848D01*
X861167Y376840D01*
X861162Y376837D01*
X861111Y375682D01*
X861112Y375681D01*
X861111Y375680D01*
X861111Y369680D01*
X861115Y369674D01*
X861112Y369671D01*
X861324Y368590D01*
X861330Y368585D01*
X861327Y368580D01*
X861774Y367574D01*
X861781Y367570D01*
X861779Y367564D01*
X862439Y366683D01*
X862447Y366680D01*
X862447Y366675D01*
X863286Y365962D01*
X863294Y365962D01*
X863295Y365956D01*
X864272Y365448D01*
X864280Y365449D01*
X864282Y365444D01*
X865347Y365166D01*
X865355Y365169D01*
X865358Y365165D01*
X866459Y365131D01*
X866464Y365135D01*
G37*
G36*
X556584Y1447175D02*
X556584Y1447175D01*
X556587Y1447171D01*
X557663Y1447326D01*
X557668Y1447332D01*
X557673Y1447329D01*
X558687Y1447719D01*
X558691Y1447726D01*
X558697Y1447725D01*
X559599Y1448331D01*
X559601Y1448339D01*
X559607Y1448338D01*
X560351Y1449130D01*
X560352Y1449138D01*
X560358Y1449138D01*
X560907Y1450076D01*
X560906Y1450084D01*
X560912Y1450086D01*
X561239Y1451122D01*
X561236Y1451130D01*
X561241Y1451133D01*
X561329Y1452216D01*
X561327Y1452219D01*
X561329Y1452220D01*
X561329Y1458220D01*
X561326Y1458224D01*
X561329Y1458226D01*
X561179Y1459359D01*
X561173Y1459365D01*
X561176Y1459370D01*
X560778Y1460440D01*
X560771Y1460444D01*
X560773Y1460450D01*
X560146Y1461405D01*
X560138Y1461408D01*
X560139Y1461413D01*
X559316Y1462205D01*
X559308Y1462206D01*
X559307Y1462212D01*
X558328Y1462801D01*
X558320Y1462800D01*
X558318Y1462805D01*
X557233Y1463161D01*
X557225Y1463159D01*
X557222Y1463163D01*
X556085Y1463269D01*
X556076Y1463264D01*
X556071Y1463268D01*
X554934Y1463061D01*
X554928Y1463055D01*
X554923Y1463058D01*
X553861Y1462603D01*
X553857Y1462596D01*
X553851Y1462598D01*
X552916Y1461918D01*
X552914Y1461910D01*
X552908Y1461911D01*
X552148Y1461040D01*
X552148Y1461032D01*
X552142Y1461031D01*
X551595Y1460012D01*
X551596Y1460004D01*
X551591Y1460002D01*
X551587Y1459989D01*
X551574Y1459940D01*
X551573Y1459940D01*
X551574Y1459940D01*
X551560Y1459891D01*
X551546Y1459841D01*
X551533Y1459792D01*
X551519Y1459743D01*
X551506Y1459694D01*
X551492Y1459644D01*
X551479Y1459595D01*
X551465Y1459546D01*
X551451Y1459497D01*
X551438Y1459447D01*
X551424Y1459398D01*
X551411Y1459349D01*
X551397Y1459300D01*
X551384Y1459250D01*
X551370Y1459201D01*
X551357Y1459152D01*
X551356Y1459152D01*
X551343Y1459103D01*
X551329Y1459053D01*
X551284Y1458888D01*
X551287Y1458880D01*
X551282Y1458877D01*
X551231Y1457722D01*
X551232Y1457721D01*
X551231Y1457720D01*
X551231Y1451720D01*
X551235Y1451714D01*
X551232Y1451711D01*
X551444Y1450630D01*
X551450Y1450625D01*
X551447Y1450620D01*
X551894Y1449614D01*
X551901Y1449610D01*
X551899Y1449604D01*
X552559Y1448723D01*
X552567Y1448720D01*
X552567Y1448715D01*
X553406Y1448002D01*
X553414Y1448002D01*
X553415Y1447996D01*
X554392Y1447488D01*
X554400Y1447489D01*
X554402Y1447484D01*
X555467Y1447206D01*
X555475Y1447209D01*
X555478Y1447205D01*
X556579Y1447171D01*
X556584Y1447175D01*
G37*
G36*
X246704Y1447175D02*
X246704Y1447175D01*
X246707Y1447171D01*
X247783Y1447326D01*
X247788Y1447332D01*
X247793Y1447329D01*
X248807Y1447719D01*
X248811Y1447726D01*
X248817Y1447725D01*
X249719Y1448331D01*
X249721Y1448339D01*
X249727Y1448338D01*
X250471Y1449130D01*
X250472Y1449138D01*
X250478Y1449138D01*
X251027Y1450076D01*
X251026Y1450084D01*
X251032Y1450086D01*
X251359Y1451122D01*
X251356Y1451130D01*
X251361Y1451133D01*
X251449Y1452216D01*
X251447Y1452219D01*
X251449Y1452220D01*
X251449Y1458220D01*
X251446Y1458224D01*
X251449Y1458226D01*
X251299Y1459359D01*
X251293Y1459365D01*
X251296Y1459370D01*
X250898Y1460440D01*
X250891Y1460444D01*
X250893Y1460450D01*
X250266Y1461405D01*
X250258Y1461408D01*
X250259Y1461413D01*
X249436Y1462205D01*
X249428Y1462206D01*
X249427Y1462212D01*
X248448Y1462801D01*
X248440Y1462800D01*
X248438Y1462805D01*
X247353Y1463161D01*
X247345Y1463159D01*
X247342Y1463163D01*
X246205Y1463269D01*
X246196Y1463264D01*
X246191Y1463268D01*
X245054Y1463061D01*
X245048Y1463055D01*
X245043Y1463058D01*
X243981Y1462603D01*
X243977Y1462596D01*
X243971Y1462598D01*
X243036Y1461918D01*
X243034Y1461910D01*
X243028Y1461911D01*
X242268Y1461040D01*
X242268Y1461032D01*
X242262Y1461031D01*
X241715Y1460012D01*
X241716Y1460004D01*
X241711Y1460002D01*
X241707Y1459989D01*
X241694Y1459940D01*
X241693Y1459940D01*
X241694Y1459940D01*
X241680Y1459891D01*
X241666Y1459841D01*
X241653Y1459792D01*
X241639Y1459743D01*
X241626Y1459694D01*
X241612Y1459644D01*
X241599Y1459595D01*
X241585Y1459546D01*
X241571Y1459497D01*
X241558Y1459447D01*
X241544Y1459398D01*
X241531Y1459349D01*
X241517Y1459300D01*
X241504Y1459250D01*
X241490Y1459201D01*
X241477Y1459152D01*
X241476Y1459152D01*
X241463Y1459103D01*
X241449Y1459053D01*
X241404Y1458888D01*
X241407Y1458880D01*
X241402Y1458877D01*
X241351Y1457722D01*
X241352Y1457721D01*
X241351Y1457720D01*
X241351Y1451720D01*
X241355Y1451714D01*
X241352Y1451711D01*
X241564Y1450630D01*
X241570Y1450625D01*
X241567Y1450620D01*
X242014Y1449614D01*
X242021Y1449610D01*
X242019Y1449604D01*
X242679Y1448723D01*
X242687Y1448720D01*
X242687Y1448715D01*
X243526Y1448002D01*
X243534Y1448002D01*
X243535Y1447996D01*
X244512Y1447488D01*
X244520Y1447489D01*
X244522Y1447484D01*
X245587Y1447206D01*
X245595Y1447209D01*
X245598Y1447205D01*
X246699Y1447171D01*
X246704Y1447175D01*
G37*
G36*
X556584Y725815D02*
X556584Y725815D01*
X556587Y725811D01*
X557663Y725966D01*
X557668Y725972D01*
X557673Y725969D01*
X558687Y726359D01*
X558691Y726366D01*
X558697Y726365D01*
X559599Y726971D01*
X559601Y726979D01*
X559607Y726978D01*
X560351Y727770D01*
X560352Y727778D01*
X560358Y727778D01*
X560907Y728716D01*
X560906Y728724D01*
X560912Y728726D01*
X561239Y729762D01*
X561236Y729770D01*
X561241Y729773D01*
X561329Y730856D01*
X561327Y730859D01*
X561329Y730860D01*
X561329Y736860D01*
X561326Y736864D01*
X561329Y736866D01*
X561179Y737999D01*
X561173Y738005D01*
X561176Y738010D01*
X560778Y739080D01*
X560771Y739084D01*
X560773Y739090D01*
X560146Y740045D01*
X560138Y740048D01*
X560139Y740053D01*
X559316Y740845D01*
X559308Y740846D01*
X559307Y740852D01*
X558328Y741441D01*
X558320Y741440D01*
X558318Y741445D01*
X557233Y741801D01*
X557225Y741799D01*
X557222Y741803D01*
X556085Y741909D01*
X556076Y741904D01*
X556071Y741908D01*
X554934Y741701D01*
X554928Y741695D01*
X554923Y741698D01*
X553861Y741243D01*
X553857Y741236D01*
X553851Y741238D01*
X552916Y740558D01*
X552914Y740550D01*
X552908Y740551D01*
X552148Y739680D01*
X552148Y739672D01*
X552142Y739671D01*
X551595Y738652D01*
X551596Y738644D01*
X551591Y738642D01*
X551587Y738629D01*
X551574Y738580D01*
X551573Y738580D01*
X551574Y738580D01*
X551560Y738531D01*
X551546Y738481D01*
X551533Y738432D01*
X551519Y738383D01*
X551506Y738334D01*
X551492Y738284D01*
X551479Y738235D01*
X551465Y738186D01*
X551451Y738137D01*
X551438Y738087D01*
X551424Y738038D01*
X551411Y737989D01*
X551397Y737940D01*
X551384Y737890D01*
X551370Y737841D01*
X551357Y737792D01*
X551356Y737792D01*
X551343Y737743D01*
X551329Y737693D01*
X551284Y737528D01*
X551287Y737520D01*
X551282Y737517D01*
X551231Y736362D01*
X551232Y736361D01*
X551231Y736360D01*
X551231Y730360D01*
X551235Y730354D01*
X551232Y730351D01*
X551444Y729270D01*
X551450Y729265D01*
X551447Y729260D01*
X551894Y728254D01*
X551901Y728250D01*
X551899Y728244D01*
X552559Y727363D01*
X552567Y727360D01*
X552567Y727355D01*
X553406Y726642D01*
X553414Y726642D01*
X553415Y726636D01*
X554392Y726128D01*
X554400Y726129D01*
X554402Y726124D01*
X555467Y725846D01*
X555475Y725849D01*
X555478Y725845D01*
X556579Y725811D01*
X556584Y725815D01*
G37*
G36*
X246704Y4455D02*
X246704Y4455D01*
X246707Y4451D01*
X247783Y4606D01*
X247788Y4612D01*
X247793Y4609D01*
X248807Y4999D01*
X248811Y5006D01*
X248817Y5005D01*
X249719Y5611D01*
X249721Y5619D01*
X249727Y5618D01*
X250471Y6410D01*
X250472Y6418D01*
X250478Y6418D01*
X251027Y7356D01*
X251026Y7364D01*
X251032Y7366D01*
X251359Y8402D01*
X251356Y8410D01*
X251361Y8413D01*
X251449Y9496D01*
X251447Y9499D01*
X251449Y9500D01*
X251449Y15500D01*
X251446Y15504D01*
X251449Y15506D01*
X251299Y16639D01*
X251293Y16645D01*
X251296Y16650D01*
X250898Y17720D01*
X250891Y17724D01*
X250893Y17730D01*
X250266Y18685D01*
X250258Y18688D01*
X250259Y18693D01*
X249436Y19485D01*
X249428Y19486D01*
X249427Y19492D01*
X248448Y20081D01*
X248440Y20080D01*
X248438Y20085D01*
X247353Y20441D01*
X247345Y20439D01*
X247342Y20443D01*
X246205Y20549D01*
X246196Y20544D01*
X246191Y20548D01*
X245054Y20341D01*
X245048Y20335D01*
X245043Y20338D01*
X243981Y19883D01*
X243977Y19876D01*
X243971Y19878D01*
X243036Y19198D01*
X243034Y19190D01*
X243028Y19191D01*
X242268Y18320D01*
X242268Y18312D01*
X242262Y18311D01*
X241715Y17292D01*
X241716Y17284D01*
X241711Y17282D01*
X241707Y17269D01*
X241694Y17220D01*
X241693Y17220D01*
X241694Y17220D01*
X241680Y17171D01*
X241666Y17121D01*
X241653Y17072D01*
X241639Y17023D01*
X241626Y16974D01*
X241612Y16924D01*
X241599Y16875D01*
X241585Y16826D01*
X241571Y16777D01*
X241558Y16727D01*
X241544Y16678D01*
X241531Y16629D01*
X241517Y16580D01*
X241504Y16530D01*
X241490Y16481D01*
X241477Y16432D01*
X241476Y16432D01*
X241463Y16383D01*
X241449Y16333D01*
X241404Y16168D01*
X241407Y16160D01*
X241402Y16157D01*
X241351Y15002D01*
X241352Y15001D01*
X241351Y15000D01*
X241351Y9000D01*
X241355Y8994D01*
X241352Y8991D01*
X241564Y7910D01*
X241570Y7905D01*
X241567Y7900D01*
X242014Y6894D01*
X242021Y6890D01*
X242019Y6884D01*
X242679Y6003D01*
X242687Y6000D01*
X242687Y5995D01*
X243526Y5282D01*
X243534Y5282D01*
X243535Y5276D01*
X244512Y4768D01*
X244520Y4769D01*
X244522Y4764D01*
X245587Y4486D01*
X245595Y4489D01*
X245598Y4485D01*
X246699Y4451D01*
X246704Y4455D01*
G37*
G36*
X866464Y4455D02*
X866464Y4455D01*
X866467Y4451D01*
X867543Y4606D01*
X867548Y4612D01*
X867553Y4609D01*
X868567Y4999D01*
X868571Y5006D01*
X868577Y5005D01*
X869479Y5611D01*
X869481Y5619D01*
X869487Y5618D01*
X870231Y6410D01*
X870232Y6418D01*
X870238Y6418D01*
X870787Y7356D01*
X870786Y7364D01*
X870792Y7366D01*
X871119Y8402D01*
X871116Y8410D01*
X871121Y8413D01*
X871209Y9496D01*
X871207Y9499D01*
X871209Y9500D01*
X871209Y15500D01*
X871206Y15504D01*
X871209Y15506D01*
X871059Y16639D01*
X871053Y16645D01*
X871056Y16650D01*
X870658Y17720D01*
X870651Y17724D01*
X870653Y17730D01*
X870026Y18685D01*
X870018Y18688D01*
X870019Y18693D01*
X869196Y19485D01*
X869188Y19486D01*
X869187Y19492D01*
X868208Y20081D01*
X868200Y20080D01*
X868198Y20085D01*
X867113Y20441D01*
X867105Y20439D01*
X867102Y20443D01*
X865965Y20549D01*
X865956Y20544D01*
X865951Y20548D01*
X864814Y20341D01*
X864808Y20335D01*
X864803Y20338D01*
X863741Y19883D01*
X863737Y19876D01*
X863731Y19878D01*
X862796Y19198D01*
X862794Y19190D01*
X862788Y19191D01*
X862028Y18320D01*
X862028Y18312D01*
X862022Y18311D01*
X861475Y17292D01*
X861476Y17284D01*
X861471Y17282D01*
X861467Y17269D01*
X861454Y17220D01*
X861453Y17220D01*
X861454Y17220D01*
X861440Y17171D01*
X861426Y17121D01*
X861413Y17072D01*
X861399Y17023D01*
X861386Y16974D01*
X861372Y16924D01*
X861359Y16875D01*
X861345Y16826D01*
X861331Y16777D01*
X861318Y16727D01*
X861304Y16678D01*
X861291Y16629D01*
X861277Y16580D01*
X861264Y16530D01*
X861250Y16481D01*
X861237Y16432D01*
X861236Y16432D01*
X861223Y16383D01*
X861209Y16333D01*
X861164Y16168D01*
X861167Y16160D01*
X861162Y16157D01*
X861111Y15002D01*
X861112Y15001D01*
X861111Y15000D01*
X861111Y9000D01*
X861115Y8994D01*
X861112Y8991D01*
X861324Y7910D01*
X861330Y7905D01*
X861327Y7900D01*
X861774Y6894D01*
X861781Y6890D01*
X861779Y6884D01*
X862439Y6003D01*
X862447Y6000D01*
X862447Y5995D01*
X863286Y5282D01*
X863294Y5282D01*
X863295Y5276D01*
X864272Y4768D01*
X864280Y4769D01*
X864282Y4764D01*
X865347Y4486D01*
X865355Y4489D01*
X865358Y4485D01*
X866459Y4451D01*
X866464Y4455D01*
G37*
G36*
X556584Y4455D02*
X556584Y4455D01*
X556587Y4451D01*
X557663Y4606D01*
X557668Y4612D01*
X557673Y4609D01*
X558687Y4999D01*
X558691Y5006D01*
X558697Y5005D01*
X559599Y5611D01*
X559601Y5619D01*
X559607Y5618D01*
X560351Y6410D01*
X560352Y6418D01*
X560358Y6418D01*
X560907Y7356D01*
X560906Y7364D01*
X560912Y7366D01*
X561239Y8402D01*
X561236Y8410D01*
X561241Y8413D01*
X561329Y9496D01*
X561327Y9499D01*
X561329Y9500D01*
X561329Y15500D01*
X561326Y15504D01*
X561329Y15506D01*
X561179Y16639D01*
X561173Y16645D01*
X561176Y16650D01*
X560778Y17720D01*
X560771Y17724D01*
X560773Y17730D01*
X560146Y18685D01*
X560138Y18688D01*
X560139Y18693D01*
X559316Y19485D01*
X559308Y19486D01*
X559307Y19492D01*
X558328Y20081D01*
X558320Y20080D01*
X558318Y20085D01*
X557233Y20441D01*
X557225Y20439D01*
X557222Y20443D01*
X556085Y20549D01*
X556076Y20544D01*
X556071Y20548D01*
X554934Y20341D01*
X554928Y20335D01*
X554923Y20338D01*
X553861Y19883D01*
X553857Y19876D01*
X553851Y19878D01*
X552916Y19198D01*
X552914Y19190D01*
X552908Y19191D01*
X552148Y18320D01*
X552148Y18312D01*
X552142Y18311D01*
X551595Y17292D01*
X551596Y17284D01*
X551591Y17282D01*
X551587Y17269D01*
X551574Y17220D01*
X551573Y17220D01*
X551574Y17220D01*
X551560Y17171D01*
X551546Y17121D01*
X551533Y17072D01*
X551519Y17023D01*
X551506Y16974D01*
X551492Y16924D01*
X551479Y16875D01*
X551465Y16826D01*
X551451Y16777D01*
X551438Y16727D01*
X551424Y16678D01*
X551411Y16629D01*
X551397Y16580D01*
X551384Y16530D01*
X551370Y16481D01*
X551357Y16432D01*
X551356Y16432D01*
X551343Y16383D01*
X551329Y16333D01*
X551284Y16168D01*
X551287Y16160D01*
X551282Y16157D01*
X551231Y15002D01*
X551232Y15001D01*
X551231Y15000D01*
X551231Y9000D01*
X551235Y8994D01*
X551232Y8991D01*
X551444Y7910D01*
X551450Y7905D01*
X551447Y7900D01*
X551894Y6894D01*
X551901Y6890D01*
X551899Y6884D01*
X552559Y6003D01*
X552567Y6000D01*
X552567Y5995D01*
X553406Y5282D01*
X553414Y5282D01*
X553415Y5276D01*
X554392Y4768D01*
X554400Y4769D01*
X554402Y4764D01*
X555467Y4486D01*
X555475Y4489D01*
X555478Y4485D01*
X556579Y4451D01*
X556584Y4455D01*
G37*
G36*
X779962Y1086495D02*
X779962Y1086495D01*
X779967Y1086491D01*
X781054Y1086636D01*
X781060Y1086642D01*
X781065Y1086639D01*
X782093Y1087023D01*
X782098Y1087029D01*
X782103Y1087028D01*
X783020Y1087630D01*
X783023Y1087638D01*
X783029Y1087637D01*
X783789Y1088429D01*
X783790Y1088437D01*
X783796Y1088438D01*
X784360Y1089379D01*
X784360Y1089382D01*
X784361Y1089383D01*
X784360Y1089385D01*
X784359Y1089387D01*
X784365Y1089389D01*
X784706Y1090432D01*
X784704Y1090440D01*
X784708Y1090443D01*
X784809Y1091536D01*
X784807Y1091538D01*
X784809Y1091540D01*
X784809Y1097540D01*
X784807Y1097543D01*
X784809Y1097545D01*
X784708Y1098637D01*
X784703Y1098643D01*
X784706Y1098648D01*
X784365Y1099691D01*
X784358Y1099696D01*
X784360Y1099701D01*
X783796Y1100642D01*
X783788Y1100645D01*
X783789Y1100651D01*
X783029Y1101443D01*
X783021Y1101444D01*
X783020Y1101450D01*
X782103Y1102053D01*
X782095Y1102052D01*
X782093Y1102058D01*
X781065Y1102441D01*
X781057Y1102439D01*
X781054Y1102444D01*
X779967Y1102589D01*
X779959Y1102585D01*
X779955Y1102589D01*
X778818Y1102483D01*
X778812Y1102478D01*
X778807Y1102481D01*
X777722Y1102125D01*
X777717Y1102118D01*
X777712Y1102121D01*
X776733Y1101532D01*
X776730Y1101524D01*
X776724Y1101525D01*
X775901Y1100733D01*
X775900Y1100725D01*
X775894Y1100725D01*
X775267Y1099770D01*
X775268Y1099762D01*
X775262Y1099760D01*
X774864Y1098690D01*
X774866Y1098682D01*
X774861Y1098679D01*
X774711Y1097546D01*
X774714Y1097542D01*
X774711Y1097540D01*
X774711Y1091540D01*
X774714Y1091536D01*
X774711Y1091534D01*
X774861Y1090401D01*
X774867Y1090395D01*
X774864Y1090390D01*
X775262Y1089320D01*
X775269Y1089316D01*
X775267Y1089310D01*
X775894Y1088355D01*
X775902Y1088352D01*
X775901Y1088347D01*
X776724Y1087555D01*
X776732Y1087554D01*
X776733Y1087548D01*
X777712Y1086959D01*
X777720Y1086960D01*
X777722Y1086955D01*
X778807Y1086599D01*
X778815Y1086602D01*
X778818Y1086597D01*
X779955Y1086491D01*
X779962Y1086495D01*
G37*
G36*
X160202Y1086495D02*
X160202Y1086495D01*
X160207Y1086491D01*
X161294Y1086636D01*
X161300Y1086642D01*
X161305Y1086639D01*
X162333Y1087023D01*
X162338Y1087029D01*
X162343Y1087028D01*
X163260Y1087630D01*
X163263Y1087638D01*
X163269Y1087637D01*
X164029Y1088429D01*
X164030Y1088437D01*
X164036Y1088438D01*
X164600Y1089379D01*
X164600Y1089382D01*
X164601Y1089383D01*
X164600Y1089385D01*
X164599Y1089387D01*
X164605Y1089389D01*
X164946Y1090432D01*
X164944Y1090440D01*
X164948Y1090443D01*
X165049Y1091536D01*
X165047Y1091538D01*
X165049Y1091540D01*
X165049Y1097540D01*
X165047Y1097543D01*
X165049Y1097545D01*
X164948Y1098637D01*
X164943Y1098643D01*
X164946Y1098648D01*
X164605Y1099691D01*
X164598Y1099696D01*
X164600Y1099701D01*
X164036Y1100642D01*
X164028Y1100645D01*
X164029Y1100651D01*
X163269Y1101443D01*
X163261Y1101444D01*
X163260Y1101450D01*
X162343Y1102053D01*
X162335Y1102052D01*
X162333Y1102058D01*
X161305Y1102441D01*
X161297Y1102439D01*
X161294Y1102444D01*
X160207Y1102589D01*
X160199Y1102585D01*
X160195Y1102589D01*
X159058Y1102483D01*
X159052Y1102478D01*
X159047Y1102481D01*
X157962Y1102125D01*
X157957Y1102118D01*
X157952Y1102121D01*
X156973Y1101532D01*
X156970Y1101524D01*
X156964Y1101525D01*
X156141Y1100733D01*
X156140Y1100725D01*
X156134Y1100725D01*
X155507Y1099770D01*
X155508Y1099762D01*
X155502Y1099760D01*
X155104Y1098690D01*
X155106Y1098682D01*
X155101Y1098679D01*
X154951Y1097546D01*
X154954Y1097542D01*
X154951Y1097540D01*
X154951Y1091540D01*
X154954Y1091536D01*
X154951Y1091534D01*
X155101Y1090401D01*
X155107Y1090395D01*
X155104Y1090390D01*
X155502Y1089320D01*
X155509Y1089316D01*
X155507Y1089310D01*
X156134Y1088355D01*
X156142Y1088352D01*
X156141Y1088347D01*
X156964Y1087555D01*
X156972Y1087554D01*
X156973Y1087548D01*
X157952Y1086959D01*
X157960Y1086960D01*
X157962Y1086955D01*
X159047Y1086599D01*
X159055Y1086602D01*
X159058Y1086597D01*
X160195Y1086491D01*
X160202Y1086495D01*
G37*
G36*
X470082Y1086495D02*
X470082Y1086495D01*
X470087Y1086491D01*
X471174Y1086636D01*
X471180Y1086642D01*
X471185Y1086639D01*
X472213Y1087023D01*
X472218Y1087029D01*
X472223Y1087028D01*
X473140Y1087630D01*
X473143Y1087638D01*
X473149Y1087637D01*
X473909Y1088429D01*
X473910Y1088437D01*
X473916Y1088438D01*
X474480Y1089379D01*
X474480Y1089382D01*
X474481Y1089383D01*
X474480Y1089385D01*
X474479Y1089387D01*
X474485Y1089389D01*
X474826Y1090432D01*
X474824Y1090440D01*
X474828Y1090443D01*
X474929Y1091536D01*
X474927Y1091538D01*
X474929Y1091540D01*
X474929Y1097540D01*
X474927Y1097543D01*
X474929Y1097545D01*
X474828Y1098637D01*
X474823Y1098643D01*
X474826Y1098648D01*
X474485Y1099691D01*
X474478Y1099696D01*
X474480Y1099701D01*
X473916Y1100642D01*
X473908Y1100645D01*
X473909Y1100651D01*
X473149Y1101443D01*
X473141Y1101444D01*
X473140Y1101450D01*
X472223Y1102053D01*
X472215Y1102052D01*
X472213Y1102058D01*
X471185Y1102441D01*
X471177Y1102439D01*
X471174Y1102444D01*
X470087Y1102589D01*
X470079Y1102585D01*
X470075Y1102589D01*
X468938Y1102483D01*
X468932Y1102478D01*
X468927Y1102481D01*
X467842Y1102125D01*
X467837Y1102118D01*
X467832Y1102121D01*
X466853Y1101532D01*
X466850Y1101524D01*
X466844Y1101525D01*
X466021Y1100733D01*
X466020Y1100725D01*
X466014Y1100725D01*
X465387Y1099770D01*
X465388Y1099762D01*
X465382Y1099760D01*
X464984Y1098690D01*
X464986Y1098682D01*
X464981Y1098679D01*
X464831Y1097546D01*
X464834Y1097542D01*
X464831Y1097540D01*
X464831Y1091540D01*
X464834Y1091536D01*
X464831Y1091534D01*
X464981Y1090401D01*
X464987Y1090395D01*
X464984Y1090390D01*
X465382Y1089320D01*
X465389Y1089316D01*
X465387Y1089310D01*
X466014Y1088355D01*
X466022Y1088352D01*
X466021Y1088347D01*
X466844Y1087555D01*
X466852Y1087554D01*
X466853Y1087548D01*
X467832Y1086959D01*
X467840Y1086960D01*
X467842Y1086955D01*
X468927Y1086599D01*
X468935Y1086602D01*
X468938Y1086597D01*
X470075Y1086491D01*
X470082Y1086495D01*
G37*
G36*
X160202Y1447175D02*
X160202Y1447175D01*
X160207Y1447171D01*
X161294Y1447316D01*
X161300Y1447322D01*
X161305Y1447319D01*
X162333Y1447703D01*
X162338Y1447709D01*
X162343Y1447708D01*
X163260Y1448310D01*
X163263Y1448318D01*
X163269Y1448317D01*
X164029Y1449109D01*
X164030Y1449117D01*
X164036Y1449118D01*
X164600Y1450059D01*
X164600Y1450062D01*
X164601Y1450063D01*
X164600Y1450065D01*
X164599Y1450067D01*
X164605Y1450069D01*
X164946Y1451112D01*
X164944Y1451120D01*
X164948Y1451123D01*
X165049Y1452216D01*
X165047Y1452218D01*
X165049Y1452220D01*
X165049Y1458220D01*
X165047Y1458223D01*
X165049Y1458225D01*
X164948Y1459317D01*
X164943Y1459323D01*
X164946Y1459328D01*
X164605Y1460371D01*
X164598Y1460376D01*
X164600Y1460381D01*
X164036Y1461322D01*
X164028Y1461325D01*
X164029Y1461331D01*
X163269Y1462123D01*
X163261Y1462124D01*
X163260Y1462130D01*
X162343Y1462733D01*
X162335Y1462732D01*
X162333Y1462738D01*
X161305Y1463121D01*
X161297Y1463119D01*
X161294Y1463124D01*
X160207Y1463269D01*
X160199Y1463265D01*
X160195Y1463269D01*
X159058Y1463163D01*
X159052Y1463158D01*
X159047Y1463161D01*
X157962Y1462805D01*
X157957Y1462798D01*
X157952Y1462801D01*
X156973Y1462212D01*
X156970Y1462204D01*
X156964Y1462205D01*
X156141Y1461413D01*
X156140Y1461405D01*
X156134Y1461405D01*
X155507Y1460450D01*
X155508Y1460442D01*
X155502Y1460440D01*
X155104Y1459370D01*
X155106Y1459362D01*
X155101Y1459359D01*
X154951Y1458226D01*
X154954Y1458222D01*
X154951Y1458220D01*
X154951Y1452220D01*
X154954Y1452216D01*
X154951Y1452214D01*
X155101Y1451081D01*
X155107Y1451075D01*
X155104Y1451070D01*
X155502Y1450000D01*
X155509Y1449996D01*
X155507Y1449990D01*
X156134Y1449035D01*
X156142Y1449032D01*
X156141Y1449027D01*
X156964Y1448235D01*
X156972Y1448234D01*
X156973Y1448228D01*
X157952Y1447639D01*
X157960Y1447640D01*
X157962Y1447635D01*
X159047Y1447279D01*
X159055Y1447282D01*
X159058Y1447277D01*
X160195Y1447171D01*
X160202Y1447175D01*
G37*
G36*
X779962Y365135D02*
X779962Y365135D01*
X779967Y365131D01*
X781054Y365276D01*
X781060Y365282D01*
X781065Y365279D01*
X782093Y365663D01*
X782098Y365669D01*
X782103Y365668D01*
X783020Y366270D01*
X783023Y366278D01*
X783029Y366277D01*
X783789Y367069D01*
X783790Y367077D01*
X783796Y367078D01*
X784360Y368019D01*
X784360Y368022D01*
X784361Y368023D01*
X784360Y368025D01*
X784359Y368027D01*
X784365Y368029D01*
X784706Y369072D01*
X784704Y369080D01*
X784708Y369083D01*
X784809Y370176D01*
X784807Y370178D01*
X784809Y370180D01*
X784809Y376180D01*
X784807Y376183D01*
X784809Y376185D01*
X784708Y377277D01*
X784703Y377283D01*
X784706Y377288D01*
X784365Y378331D01*
X784358Y378336D01*
X784360Y378341D01*
X783796Y379282D01*
X783788Y379285D01*
X783789Y379291D01*
X783029Y380083D01*
X783021Y380084D01*
X783020Y380090D01*
X782103Y380693D01*
X782095Y380692D01*
X782093Y380698D01*
X781065Y381081D01*
X781057Y381079D01*
X781054Y381084D01*
X779967Y381229D01*
X779959Y381225D01*
X779955Y381229D01*
X778818Y381123D01*
X778812Y381118D01*
X778807Y381121D01*
X777722Y380765D01*
X777717Y380758D01*
X777712Y380761D01*
X776733Y380172D01*
X776730Y380164D01*
X776724Y380165D01*
X775901Y379373D01*
X775900Y379365D01*
X775894Y379365D01*
X775267Y378410D01*
X775268Y378402D01*
X775262Y378400D01*
X774864Y377330D01*
X774866Y377322D01*
X774861Y377319D01*
X774711Y376186D01*
X774714Y376182D01*
X774711Y376180D01*
X774711Y370180D01*
X774714Y370176D01*
X774711Y370174D01*
X774861Y369041D01*
X774867Y369035D01*
X774864Y369030D01*
X775262Y367960D01*
X775269Y367956D01*
X775267Y367950D01*
X775894Y366995D01*
X775902Y366992D01*
X775901Y366987D01*
X776724Y366195D01*
X776732Y366194D01*
X776733Y366188D01*
X777712Y365599D01*
X777720Y365600D01*
X777722Y365595D01*
X778807Y365239D01*
X778815Y365242D01*
X778818Y365237D01*
X779955Y365131D01*
X779962Y365135D01*
G37*
G36*
X160202Y365135D02*
X160202Y365135D01*
X160207Y365131D01*
X161294Y365276D01*
X161300Y365282D01*
X161305Y365279D01*
X162333Y365663D01*
X162338Y365669D01*
X162343Y365668D01*
X163260Y366270D01*
X163263Y366278D01*
X163269Y366277D01*
X164029Y367069D01*
X164030Y367077D01*
X164036Y367078D01*
X164600Y368019D01*
X164600Y368022D01*
X164601Y368023D01*
X164600Y368025D01*
X164599Y368027D01*
X164605Y368029D01*
X164946Y369072D01*
X164944Y369080D01*
X164948Y369083D01*
X165049Y370176D01*
X165047Y370178D01*
X165049Y370180D01*
X165049Y376180D01*
X165047Y376183D01*
X165049Y376185D01*
X164948Y377277D01*
X164943Y377283D01*
X164946Y377288D01*
X164605Y378331D01*
X164598Y378336D01*
X164600Y378341D01*
X164036Y379282D01*
X164028Y379285D01*
X164029Y379291D01*
X163269Y380083D01*
X163261Y380084D01*
X163260Y380090D01*
X162343Y380693D01*
X162335Y380692D01*
X162333Y380698D01*
X161305Y381081D01*
X161297Y381079D01*
X161294Y381084D01*
X160207Y381229D01*
X160199Y381225D01*
X160195Y381229D01*
X159058Y381123D01*
X159052Y381118D01*
X159047Y381121D01*
X157962Y380765D01*
X157957Y380758D01*
X157952Y380761D01*
X156973Y380172D01*
X156970Y380164D01*
X156964Y380165D01*
X156141Y379373D01*
X156140Y379365D01*
X156134Y379365D01*
X155507Y378410D01*
X155508Y378402D01*
X155502Y378400D01*
X155104Y377330D01*
X155106Y377322D01*
X155101Y377319D01*
X154951Y376186D01*
X154954Y376182D01*
X154951Y376180D01*
X154951Y370180D01*
X154954Y370176D01*
X154951Y370174D01*
X155101Y369041D01*
X155107Y369035D01*
X155104Y369030D01*
X155502Y367960D01*
X155509Y367956D01*
X155507Y367950D01*
X156134Y366995D01*
X156142Y366992D01*
X156141Y366987D01*
X156964Y366195D01*
X156972Y366194D01*
X156973Y366188D01*
X157952Y365599D01*
X157960Y365600D01*
X157962Y365595D01*
X159047Y365239D01*
X159055Y365242D01*
X159058Y365237D01*
X160195Y365131D01*
X160202Y365135D01*
G37*
G36*
X160202Y725815D02*
X160202Y725815D01*
X160207Y725811D01*
X161294Y725956D01*
X161300Y725962D01*
X161305Y725959D01*
X162333Y726343D01*
X162338Y726349D01*
X162343Y726348D01*
X163260Y726950D01*
X163263Y726958D01*
X163269Y726957D01*
X164029Y727749D01*
X164030Y727757D01*
X164036Y727758D01*
X164600Y728699D01*
X164600Y728702D01*
X164601Y728703D01*
X164600Y728705D01*
X164599Y728707D01*
X164605Y728709D01*
X164946Y729752D01*
X164944Y729760D01*
X164948Y729763D01*
X165049Y730856D01*
X165047Y730858D01*
X165049Y730860D01*
X165049Y736860D01*
X165047Y736863D01*
X165049Y736865D01*
X164948Y737957D01*
X164943Y737963D01*
X164946Y737968D01*
X164605Y739011D01*
X164598Y739016D01*
X164600Y739021D01*
X164036Y739962D01*
X164028Y739965D01*
X164029Y739971D01*
X163269Y740763D01*
X163261Y740764D01*
X163260Y740770D01*
X162343Y741373D01*
X162335Y741372D01*
X162333Y741378D01*
X161305Y741761D01*
X161297Y741759D01*
X161294Y741764D01*
X160207Y741909D01*
X160199Y741905D01*
X160195Y741909D01*
X159058Y741803D01*
X159052Y741798D01*
X159047Y741801D01*
X157962Y741445D01*
X157957Y741438D01*
X157952Y741441D01*
X156973Y740852D01*
X156970Y740844D01*
X156964Y740845D01*
X156141Y740053D01*
X156140Y740045D01*
X156134Y740045D01*
X155507Y739090D01*
X155508Y739082D01*
X155502Y739080D01*
X155104Y738010D01*
X155106Y738002D01*
X155101Y737999D01*
X154951Y736866D01*
X154954Y736862D01*
X154951Y736860D01*
X154951Y730860D01*
X154954Y730856D01*
X154951Y730854D01*
X155101Y729721D01*
X155107Y729715D01*
X155104Y729710D01*
X155502Y728640D01*
X155509Y728636D01*
X155507Y728630D01*
X156134Y727675D01*
X156142Y727672D01*
X156141Y727667D01*
X156964Y726875D01*
X156972Y726874D01*
X156973Y726868D01*
X157952Y726279D01*
X157960Y726280D01*
X157962Y726275D01*
X159047Y725919D01*
X159055Y725922D01*
X159058Y725917D01*
X160195Y725811D01*
X160202Y725815D01*
G37*
G36*
X470082Y365135D02*
X470082Y365135D01*
X470087Y365131D01*
X471174Y365276D01*
X471180Y365282D01*
X471185Y365279D01*
X472213Y365663D01*
X472218Y365669D01*
X472223Y365668D01*
X473140Y366270D01*
X473143Y366278D01*
X473149Y366277D01*
X473909Y367069D01*
X473910Y367077D01*
X473916Y367078D01*
X474480Y368019D01*
X474480Y368022D01*
X474481Y368023D01*
X474480Y368025D01*
X474479Y368027D01*
X474485Y368029D01*
X474826Y369072D01*
X474824Y369080D01*
X474828Y369083D01*
X474929Y370176D01*
X474927Y370178D01*
X474929Y370180D01*
X474929Y376180D01*
X474927Y376183D01*
X474929Y376185D01*
X474828Y377277D01*
X474823Y377283D01*
X474826Y377288D01*
X474485Y378331D01*
X474478Y378336D01*
X474480Y378341D01*
X473916Y379282D01*
X473908Y379285D01*
X473909Y379291D01*
X473149Y380083D01*
X473141Y380084D01*
X473140Y380090D01*
X472223Y380693D01*
X472215Y380692D01*
X472213Y380698D01*
X471185Y381081D01*
X471177Y381079D01*
X471174Y381084D01*
X470087Y381229D01*
X470079Y381225D01*
X470075Y381229D01*
X468938Y381123D01*
X468932Y381118D01*
X468927Y381121D01*
X467842Y380765D01*
X467837Y380758D01*
X467832Y380761D01*
X466853Y380172D01*
X466850Y380164D01*
X466844Y380165D01*
X466021Y379373D01*
X466020Y379365D01*
X466014Y379365D01*
X465387Y378410D01*
X465388Y378402D01*
X465382Y378400D01*
X464984Y377330D01*
X464986Y377322D01*
X464981Y377319D01*
X464831Y376186D01*
X464834Y376182D01*
X464831Y376180D01*
X464831Y370180D01*
X464834Y370176D01*
X464831Y370174D01*
X464981Y369041D01*
X464987Y369035D01*
X464984Y369030D01*
X465382Y367960D01*
X465389Y367956D01*
X465387Y367950D01*
X466014Y366995D01*
X466022Y366992D01*
X466021Y366987D01*
X466844Y366195D01*
X466852Y366194D01*
X466853Y366188D01*
X467832Y365599D01*
X467840Y365600D01*
X467842Y365595D01*
X468927Y365239D01*
X468935Y365242D01*
X468938Y365237D01*
X470075Y365131D01*
X470082Y365135D01*
G37*
G36*
X470082Y1447175D02*
X470082Y1447175D01*
X470087Y1447171D01*
X471174Y1447316D01*
X471180Y1447322D01*
X471185Y1447319D01*
X472213Y1447703D01*
X472218Y1447709D01*
X472223Y1447708D01*
X473140Y1448310D01*
X473143Y1448318D01*
X473149Y1448317D01*
X473909Y1449109D01*
X473910Y1449117D01*
X473916Y1449118D01*
X474480Y1450059D01*
X474480Y1450062D01*
X474481Y1450063D01*
X474480Y1450065D01*
X474479Y1450067D01*
X474485Y1450069D01*
X474826Y1451112D01*
X474824Y1451120D01*
X474828Y1451123D01*
X474929Y1452216D01*
X474927Y1452218D01*
X474929Y1452220D01*
X474929Y1458220D01*
X474927Y1458223D01*
X474929Y1458225D01*
X474828Y1459317D01*
X474823Y1459323D01*
X474826Y1459328D01*
X474485Y1460371D01*
X474478Y1460376D01*
X474480Y1460381D01*
X473916Y1461322D01*
X473908Y1461325D01*
X473909Y1461331D01*
X473149Y1462123D01*
X473141Y1462124D01*
X473140Y1462130D01*
X472223Y1462733D01*
X472215Y1462732D01*
X472213Y1462738D01*
X471185Y1463121D01*
X471177Y1463119D01*
X471174Y1463124D01*
X470087Y1463269D01*
X470079Y1463265D01*
X470075Y1463269D01*
X468938Y1463163D01*
X468932Y1463158D01*
X468927Y1463161D01*
X467842Y1462805D01*
X467837Y1462798D01*
X467832Y1462801D01*
X466853Y1462212D01*
X466850Y1462204D01*
X466844Y1462205D01*
X466021Y1461413D01*
X466020Y1461405D01*
X466014Y1461405D01*
X465387Y1460450D01*
X465388Y1460442D01*
X465382Y1460440D01*
X464984Y1459370D01*
X464986Y1459362D01*
X464981Y1459359D01*
X464831Y1458226D01*
X464834Y1458222D01*
X464831Y1458220D01*
X464831Y1452220D01*
X464834Y1452216D01*
X464831Y1452214D01*
X464981Y1451081D01*
X464987Y1451075D01*
X464984Y1451070D01*
X465382Y1450000D01*
X465389Y1449996D01*
X465387Y1449990D01*
X466014Y1449035D01*
X466022Y1449032D01*
X466021Y1449027D01*
X466844Y1448235D01*
X466852Y1448234D01*
X466853Y1448228D01*
X467832Y1447639D01*
X467840Y1447640D01*
X467842Y1447635D01*
X468927Y1447279D01*
X468935Y1447282D01*
X468938Y1447277D01*
X470075Y1447171D01*
X470082Y1447175D01*
G37*
G36*
X779962Y1447175D02*
X779962Y1447175D01*
X779967Y1447171D01*
X781054Y1447316D01*
X781060Y1447322D01*
X781065Y1447319D01*
X782093Y1447703D01*
X782098Y1447709D01*
X782103Y1447708D01*
X783020Y1448310D01*
X783023Y1448318D01*
X783029Y1448317D01*
X783789Y1449109D01*
X783790Y1449117D01*
X783796Y1449118D01*
X784360Y1450059D01*
X784360Y1450062D01*
X784361Y1450063D01*
X784360Y1450065D01*
X784359Y1450067D01*
X784365Y1450069D01*
X784706Y1451112D01*
X784704Y1451120D01*
X784708Y1451123D01*
X784809Y1452216D01*
X784807Y1452218D01*
X784809Y1452220D01*
X784809Y1458220D01*
X784807Y1458223D01*
X784809Y1458225D01*
X784708Y1459317D01*
X784703Y1459323D01*
X784706Y1459328D01*
X784365Y1460371D01*
X784358Y1460376D01*
X784360Y1460381D01*
X783796Y1461322D01*
X783788Y1461325D01*
X783789Y1461331D01*
X783029Y1462123D01*
X783021Y1462124D01*
X783020Y1462130D01*
X782103Y1462733D01*
X782095Y1462732D01*
X782093Y1462738D01*
X781065Y1463121D01*
X781057Y1463119D01*
X781054Y1463124D01*
X779967Y1463269D01*
X779959Y1463265D01*
X779955Y1463269D01*
X778818Y1463163D01*
X778812Y1463158D01*
X778807Y1463161D01*
X777722Y1462805D01*
X777717Y1462798D01*
X777712Y1462801D01*
X776733Y1462212D01*
X776730Y1462204D01*
X776724Y1462205D01*
X775901Y1461413D01*
X775900Y1461405D01*
X775894Y1461405D01*
X775267Y1460450D01*
X775268Y1460442D01*
X775262Y1460440D01*
X774864Y1459370D01*
X774866Y1459362D01*
X774861Y1459359D01*
X774711Y1458226D01*
X774714Y1458222D01*
X774711Y1458220D01*
X774711Y1452220D01*
X774714Y1452216D01*
X774711Y1452214D01*
X774861Y1451081D01*
X774867Y1451075D01*
X774864Y1451070D01*
X775262Y1450000D01*
X775269Y1449996D01*
X775267Y1449990D01*
X775894Y1449035D01*
X775902Y1449032D01*
X775901Y1449027D01*
X776724Y1448235D01*
X776732Y1448234D01*
X776733Y1448228D01*
X777712Y1447639D01*
X777720Y1447640D01*
X777722Y1447635D01*
X778807Y1447279D01*
X778815Y1447282D01*
X778818Y1447277D01*
X779955Y1447171D01*
X779962Y1447175D01*
G37*
G36*
X779962Y725815D02*
X779962Y725815D01*
X779967Y725811D01*
X781054Y725956D01*
X781060Y725962D01*
X781065Y725959D01*
X782093Y726343D01*
X782098Y726349D01*
X782103Y726348D01*
X783020Y726950D01*
X783023Y726958D01*
X783029Y726957D01*
X783789Y727749D01*
X783790Y727757D01*
X783796Y727758D01*
X784360Y728699D01*
X784360Y728702D01*
X784361Y728703D01*
X784360Y728705D01*
X784359Y728707D01*
X784365Y728709D01*
X784706Y729752D01*
X784704Y729760D01*
X784708Y729763D01*
X784809Y730856D01*
X784807Y730858D01*
X784809Y730860D01*
X784809Y736860D01*
X784807Y736863D01*
X784809Y736865D01*
X784708Y737957D01*
X784703Y737963D01*
X784706Y737968D01*
X784365Y739011D01*
X784358Y739016D01*
X784360Y739021D01*
X783796Y739962D01*
X783788Y739965D01*
X783789Y739971D01*
X783029Y740763D01*
X783021Y740764D01*
X783020Y740770D01*
X782103Y741373D01*
X782095Y741372D01*
X782093Y741378D01*
X781065Y741761D01*
X781057Y741759D01*
X781054Y741764D01*
X779967Y741909D01*
X779959Y741905D01*
X779955Y741909D01*
X778818Y741803D01*
X778812Y741798D01*
X778807Y741801D01*
X777722Y741445D01*
X777717Y741438D01*
X777712Y741441D01*
X776733Y740852D01*
X776730Y740844D01*
X776724Y740845D01*
X775901Y740053D01*
X775900Y740045D01*
X775894Y740045D01*
X775267Y739090D01*
X775268Y739082D01*
X775262Y739080D01*
X774864Y738010D01*
X774866Y738002D01*
X774861Y737999D01*
X774711Y736866D01*
X774714Y736862D01*
X774711Y736860D01*
X774711Y730860D01*
X774714Y730856D01*
X774711Y730854D01*
X774861Y729721D01*
X774867Y729715D01*
X774864Y729710D01*
X775262Y728640D01*
X775269Y728636D01*
X775267Y728630D01*
X775894Y727675D01*
X775902Y727672D01*
X775901Y727667D01*
X776724Y726875D01*
X776732Y726874D01*
X776733Y726868D01*
X777712Y726279D01*
X777720Y726280D01*
X777722Y726275D01*
X778807Y725919D01*
X778815Y725922D01*
X778818Y725917D01*
X779955Y725811D01*
X779962Y725815D01*
G37*
G36*
X470082Y725815D02*
X470082Y725815D01*
X470087Y725811D01*
X471174Y725956D01*
X471180Y725962D01*
X471185Y725959D01*
X472213Y726343D01*
X472218Y726349D01*
X472223Y726348D01*
X473140Y726950D01*
X473143Y726958D01*
X473149Y726957D01*
X473909Y727749D01*
X473910Y727757D01*
X473916Y727758D01*
X474480Y728699D01*
X474480Y728702D01*
X474481Y728703D01*
X474480Y728705D01*
X474479Y728707D01*
X474485Y728709D01*
X474826Y729752D01*
X474824Y729760D01*
X474828Y729763D01*
X474929Y730856D01*
X474927Y730858D01*
X474929Y730860D01*
X474929Y736860D01*
X474927Y736863D01*
X474929Y736865D01*
X474828Y737957D01*
X474823Y737963D01*
X474826Y737968D01*
X474485Y739011D01*
X474478Y739016D01*
X474480Y739021D01*
X473916Y739962D01*
X473908Y739965D01*
X473909Y739971D01*
X473149Y740763D01*
X473141Y740764D01*
X473140Y740770D01*
X472223Y741373D01*
X472215Y741372D01*
X472213Y741378D01*
X471185Y741761D01*
X471177Y741759D01*
X471174Y741764D01*
X470087Y741909D01*
X470079Y741905D01*
X470075Y741909D01*
X468938Y741803D01*
X468932Y741798D01*
X468927Y741801D01*
X467842Y741445D01*
X467837Y741438D01*
X467832Y741441D01*
X466853Y740852D01*
X466850Y740844D01*
X466844Y740845D01*
X466021Y740053D01*
X466020Y740045D01*
X466014Y740045D01*
X465387Y739090D01*
X465388Y739082D01*
X465382Y739080D01*
X464984Y738010D01*
X464986Y738002D01*
X464981Y737999D01*
X464831Y736866D01*
X464834Y736862D01*
X464831Y736860D01*
X464831Y730860D01*
X464834Y730856D01*
X464831Y730854D01*
X464981Y729721D01*
X464987Y729715D01*
X464984Y729710D01*
X465382Y728640D01*
X465389Y728636D01*
X465387Y728630D01*
X466014Y727675D01*
X466022Y727672D01*
X466021Y727667D01*
X466844Y726875D01*
X466852Y726874D01*
X466853Y726868D01*
X467832Y726279D01*
X467840Y726280D01*
X467842Y726275D01*
X468927Y725919D01*
X468935Y725922D01*
X468938Y725917D01*
X470075Y725811D01*
X470082Y725815D01*
G37*
G36*
X779962Y4455D02*
X779962Y4455D01*
X779967Y4451D01*
X781054Y4596D01*
X781060Y4602D01*
X781065Y4599D01*
X782093Y4983D01*
X782098Y4989D01*
X782103Y4988D01*
X783020Y5590D01*
X783023Y5598D01*
X783029Y5597D01*
X783789Y6389D01*
X783790Y6397D01*
X783796Y6398D01*
X784360Y7339D01*
X784360Y7342D01*
X784361Y7343D01*
X784360Y7345D01*
X784359Y7347D01*
X784365Y7349D01*
X784706Y8392D01*
X784704Y8400D01*
X784708Y8403D01*
X784809Y9496D01*
X784807Y9498D01*
X784809Y9500D01*
X784809Y15500D01*
X784807Y15503D01*
X784809Y15505D01*
X784708Y16597D01*
X784703Y16603D01*
X784706Y16608D01*
X784365Y17651D01*
X784358Y17656D01*
X784360Y17661D01*
X783796Y18602D01*
X783788Y18605D01*
X783789Y18611D01*
X783029Y19403D01*
X783021Y19404D01*
X783020Y19410D01*
X782103Y20013D01*
X782095Y20012D01*
X782093Y20018D01*
X781065Y20401D01*
X781057Y20399D01*
X781054Y20404D01*
X779967Y20549D01*
X779959Y20545D01*
X779955Y20549D01*
X778818Y20443D01*
X778812Y20438D01*
X778807Y20441D01*
X777722Y20085D01*
X777717Y20078D01*
X777712Y20081D01*
X776733Y19492D01*
X776730Y19484D01*
X776724Y19485D01*
X775901Y18693D01*
X775900Y18685D01*
X775894Y18685D01*
X775267Y17730D01*
X775268Y17722D01*
X775262Y17720D01*
X774864Y16650D01*
X774866Y16642D01*
X774861Y16639D01*
X774711Y15506D01*
X774714Y15502D01*
X774711Y15500D01*
X774711Y9500D01*
X774714Y9496D01*
X774711Y9494D01*
X774861Y8361D01*
X774867Y8355D01*
X774864Y8350D01*
X775262Y7280D01*
X775269Y7276D01*
X775267Y7270D01*
X775894Y6315D01*
X775902Y6312D01*
X775901Y6307D01*
X776724Y5515D01*
X776732Y5514D01*
X776733Y5508D01*
X777712Y4919D01*
X777720Y4920D01*
X777722Y4915D01*
X778807Y4559D01*
X778815Y4562D01*
X778818Y4557D01*
X779955Y4451D01*
X779962Y4455D01*
G37*
G36*
X470082Y4455D02*
X470082Y4455D01*
X470087Y4451D01*
X471174Y4596D01*
X471180Y4602D01*
X471185Y4599D01*
X472213Y4983D01*
X472218Y4989D01*
X472223Y4988D01*
X473140Y5590D01*
X473143Y5598D01*
X473149Y5597D01*
X473909Y6389D01*
X473910Y6397D01*
X473916Y6398D01*
X474480Y7339D01*
X474480Y7342D01*
X474481Y7343D01*
X474480Y7345D01*
X474479Y7347D01*
X474485Y7349D01*
X474826Y8392D01*
X474824Y8400D01*
X474828Y8403D01*
X474929Y9496D01*
X474927Y9498D01*
X474929Y9500D01*
X474929Y15500D01*
X474927Y15503D01*
X474929Y15505D01*
X474828Y16597D01*
X474823Y16603D01*
X474826Y16608D01*
X474485Y17651D01*
X474478Y17656D01*
X474480Y17661D01*
X473916Y18602D01*
X473908Y18605D01*
X473909Y18611D01*
X473149Y19403D01*
X473141Y19404D01*
X473140Y19410D01*
X472223Y20013D01*
X472215Y20012D01*
X472213Y20018D01*
X471185Y20401D01*
X471177Y20399D01*
X471174Y20404D01*
X470087Y20549D01*
X470079Y20545D01*
X470075Y20549D01*
X468938Y20443D01*
X468932Y20438D01*
X468927Y20441D01*
X467842Y20085D01*
X467837Y20078D01*
X467832Y20081D01*
X466853Y19492D01*
X466850Y19484D01*
X466844Y19485D01*
X466021Y18693D01*
X466020Y18685D01*
X466014Y18685D01*
X465387Y17730D01*
X465388Y17722D01*
X465382Y17720D01*
X464984Y16650D01*
X464986Y16642D01*
X464981Y16639D01*
X464831Y15506D01*
X464834Y15502D01*
X464831Y15500D01*
X464831Y9500D01*
X464834Y9496D01*
X464831Y9494D01*
X464981Y8361D01*
X464987Y8355D01*
X464984Y8350D01*
X465382Y7280D01*
X465389Y7276D01*
X465387Y7270D01*
X466014Y6315D01*
X466022Y6312D01*
X466021Y6307D01*
X466844Y5515D01*
X466852Y5514D01*
X466853Y5508D01*
X467832Y4919D01*
X467840Y4920D01*
X467842Y4915D01*
X468927Y4559D01*
X468935Y4562D01*
X468938Y4557D01*
X470075Y4451D01*
X470082Y4455D01*
G37*
G36*
X160202Y4455D02*
X160202Y4455D01*
X160207Y4451D01*
X161294Y4596D01*
X161300Y4602D01*
X161305Y4599D01*
X162333Y4983D01*
X162338Y4989D01*
X162343Y4988D01*
X163260Y5590D01*
X163263Y5598D01*
X163269Y5597D01*
X164029Y6389D01*
X164030Y6397D01*
X164036Y6398D01*
X164600Y7339D01*
X164600Y7342D01*
X164601Y7343D01*
X164600Y7345D01*
X164599Y7347D01*
X164605Y7349D01*
X164946Y8392D01*
X164944Y8400D01*
X164948Y8403D01*
X165049Y9496D01*
X165047Y9498D01*
X165049Y9500D01*
X165049Y15500D01*
X165047Y15503D01*
X165049Y15505D01*
X164948Y16597D01*
X164943Y16603D01*
X164946Y16608D01*
X164605Y17651D01*
X164598Y17656D01*
X164600Y17661D01*
X164036Y18602D01*
X164028Y18605D01*
X164029Y18611D01*
X163269Y19403D01*
X163261Y19404D01*
X163260Y19410D01*
X162343Y20013D01*
X162335Y20012D01*
X162333Y20018D01*
X161305Y20401D01*
X161297Y20399D01*
X161294Y20404D01*
X160207Y20549D01*
X160199Y20545D01*
X160195Y20549D01*
X159058Y20443D01*
X159052Y20438D01*
X159047Y20441D01*
X157962Y20085D01*
X157957Y20078D01*
X157952Y20081D01*
X156973Y19492D01*
X156970Y19484D01*
X156964Y19485D01*
X156141Y18693D01*
X156140Y18685D01*
X156134Y18685D01*
X155507Y17730D01*
X155508Y17722D01*
X155502Y17720D01*
X155104Y16650D01*
X155106Y16642D01*
X155101Y16639D01*
X154951Y15506D01*
X154954Y15502D01*
X154951Y15500D01*
X154951Y9500D01*
X154954Y9496D01*
X154951Y9494D01*
X155101Y8361D01*
X155107Y8355D01*
X155104Y8350D01*
X155502Y7280D01*
X155509Y7276D01*
X155507Y7270D01*
X156134Y6315D01*
X156142Y6312D01*
X156141Y6307D01*
X156964Y5515D01*
X156972Y5514D01*
X156973Y5508D01*
X157952Y4919D01*
X157960Y4920D01*
X157962Y4915D01*
X159047Y4559D01*
X159055Y4562D01*
X159058Y4557D01*
X160195Y4451D01*
X160202Y4455D01*
G37*
D10*
X117800Y119570D02*
X110800Y119570D01*
X110800Y126570D01*
X117800Y126570D01*
X117800Y119570D01*
X117800Y122420D02*
X110800Y122420D01*
X110800Y125270D02*
X117800Y125270D01*
X117800Y102030D02*
X110800Y102030D01*
X110800Y109030D01*
X117800Y109030D01*
X117800Y102030D01*
X117800Y104880D02*
X110800Y104880D01*
X110800Y107730D02*
X117800Y107730D01*
D11*
X177600Y152400D03*
X152600Y152400D03*
D12*
X138430Y147400D03*
X138430Y157400D03*
X190500Y146130D03*
X190500Y156130D03*
D13*
X107400Y299000D03*
X115400Y294000D03*
X107400Y289000D03*
X115400Y284000D03*
X107400Y279000D03*
X115400Y274000D03*
X107400Y269000D03*
X115400Y264000D03*
X107400Y259000D03*
X115400Y254000D03*
X107400Y249000D03*
X115400Y244000D03*
X107400Y239000D03*
X115400Y234000D03*
X107400Y229000D03*
X115400Y224000D03*
X107400Y219000D03*
X115400Y214000D03*
X107400Y209000D03*
X115400Y204000D03*
X107400Y199000D03*
D12*
X107400Y189000D03*
D14*
X117400Y189000D03*
X122400Y197000D03*
X127400Y189000D03*
X132400Y197000D03*
X137400Y189000D03*
X142400Y197000D03*
X147400Y189000D03*
X152400Y197000D03*
X157400Y189000D03*
X162400Y197000D03*
X167400Y189000D03*
X172400Y197000D03*
X177400Y189000D03*
X182400Y197000D03*
X187400Y189000D03*
D12*
X197400Y189000D03*
D13*
X197400Y199000D03*
X189400Y204000D03*
X197400Y209000D03*
X189400Y214000D03*
X197400Y219000D03*
X189400Y224000D03*
X197400Y229000D03*
X189400Y234000D03*
X197400Y239000D03*
X189400Y244000D03*
X197400Y249000D03*
X189400Y254000D03*
X197400Y259000D03*
X189400Y264000D03*
X197400Y269000D03*
X189400Y274000D03*
X197400Y279000D03*
X189400Y284000D03*
X197400Y289000D03*
X189400Y294000D03*
X197400Y299000D03*
D12*
X185500Y173990D03*
X195500Y173990D03*
X205740Y157400D03*
X205740Y147400D03*
X204550Y173990D03*
X214550Y173990D03*
D10*
X143200Y119570D02*
X136200Y119570D01*
X136200Y126570D01*
X143200Y126570D01*
X143200Y119570D01*
X143200Y122420D02*
X136200Y122420D01*
X136200Y125270D02*
X143200Y125270D01*
X143200Y102030D02*
X136200Y102030D01*
X136200Y109030D01*
X143200Y109030D01*
X143200Y102030D01*
X143200Y104880D02*
X136200Y104880D01*
X136200Y107730D02*
X143200Y107730D01*
X212400Y109030D02*
X219400Y109030D01*
X219400Y102030D01*
X212400Y102030D01*
X212400Y109030D01*
X212400Y104880D02*
X219400Y104880D01*
X219400Y107730D02*
X212400Y107730D01*
X212400Y126570D02*
X219400Y126570D01*
X219400Y119570D01*
X212400Y119570D01*
X212400Y126570D01*
X212400Y122420D02*
X219400Y122420D01*
X219400Y125270D02*
X212400Y125270D01*
D15*
X271400Y223700D03*
X287400Y223700D03*
X287400Y182700D03*
X271400Y182700D03*
D10*
X168600Y119570D02*
X161600Y119570D01*
X161600Y126570D01*
X168600Y126570D01*
X168600Y119570D01*
X168600Y122420D02*
X161600Y122420D01*
X161600Y125270D02*
X168600Y125270D01*
X168600Y102030D02*
X161600Y102030D01*
X161600Y109030D01*
X168600Y109030D01*
X168600Y102030D01*
X168600Y104880D02*
X161600Y104880D01*
X161600Y107730D02*
X168600Y107730D01*
X187000Y109030D02*
X194000Y109030D01*
X194000Y102030D01*
X187000Y102030D01*
X187000Y109030D01*
X187000Y104880D02*
X194000Y104880D01*
X194000Y107730D02*
X187000Y107730D01*
X187000Y126570D02*
X194000Y126570D01*
X194000Y119570D01*
X187000Y119570D01*
X187000Y126570D01*
X187000Y122420D02*
X194000Y122420D01*
X194000Y125270D02*
X187000Y125270D01*
D12*
X238840Y83820D03*
X248840Y83820D03*
X157400Y76200D03*
X147400Y76200D03*
X78820Y262890D03*
X88820Y262890D03*
X88900Y195500D03*
X88900Y185500D03*
D16*
X290750Y86300D03*
X290750Y142300D03*
D17*
X254000Y99300D03*
X254000Y109300D03*
X254000Y119300D03*
X254000Y129300D03*
D18*
X111600Y75100D03*
X91600Y75100D03*
D19*
X135600Y23100D03*
X67600Y23100D03*
D20*
X210700Y60100D03*
X205700Y60100D03*
D21*
X235450Y60100D03*
X227700Y60100D03*
D20*
X220700Y60100D03*
X215700Y60100D03*
X195700Y60100D03*
X200700Y60100D03*
D21*
X170950Y60100D03*
X178700Y60100D03*
D20*
X185700Y60100D03*
X190700Y60100D03*
D22*
X231490Y257260D03*
D23*
X227260Y203200D03*
X250260Y203200D03*
D12*
X259080Y203120D03*
X259080Y193120D03*
D24*
X240870Y283210D03*
X219870Y273710D03*
X219870Y292710D03*
D12*
X50800Y71200D03*
X50800Y81200D03*
D23*
X227260Y186690D03*
X250260Y186690D03*
D12*
X233680Y109140D03*
X233680Y99140D03*
D25*
X46380Y155100D03*
X65380Y155100D03*
X55880Y176100D03*
D26*
X249221Y146710D03*
X249221Y156210D03*
X249221Y165710D03*
X223219Y165710D03*
X223219Y146710D03*
D12*
X233680Y119460D03*
X233680Y129460D03*
X214630Y183214D03*
X214630Y193214D03*
X238840Y73660D03*
X248840Y73660D03*
D10*
X420680Y119570D02*
X427680Y119570D01*
X420680Y119570D02*
X420680Y126570D01*
X427680Y126570D01*
X427680Y119570D01*
X427680Y122420D02*
X420680Y122420D01*
X420680Y125270D02*
X427680Y125270D01*
X427680Y102030D02*
X420680Y102030D01*
X420680Y109030D01*
X427680Y109030D01*
X427680Y102030D01*
X427680Y104880D02*
X420680Y104880D01*
X420680Y107730D02*
X427680Y107730D01*
D11*
X487480Y152400D03*
X462480Y152400D03*
D12*
X448310Y147400D03*
X448310Y157400D03*
X500380Y146130D03*
X500380Y156130D03*
D13*
X417280Y299000D03*
X425280Y294000D03*
X417280Y289000D03*
X425280Y284000D03*
X417280Y279000D03*
X425280Y274000D03*
X417280Y269000D03*
X425280Y264000D03*
X417280Y259000D03*
X425280Y254000D03*
X417280Y249000D03*
X425280Y244000D03*
X417280Y239000D03*
X425280Y234000D03*
X417280Y229000D03*
X425280Y224000D03*
X417280Y219000D03*
X425280Y214000D03*
X417280Y209000D03*
X425280Y204000D03*
X417280Y199000D03*
D12*
X417280Y189000D03*
D14*
X427280Y189000D03*
X432280Y197000D03*
X437280Y189000D03*
X442280Y197000D03*
X447280Y189000D03*
X452280Y197000D03*
X457280Y189000D03*
X462280Y197000D03*
X467280Y189000D03*
X472280Y197000D03*
X477280Y189000D03*
X482280Y197000D03*
X487280Y189000D03*
X492280Y197000D03*
X497280Y189000D03*
D12*
X507280Y189000D03*
D13*
X507280Y199000D03*
X499280Y204000D03*
X507280Y209000D03*
X499280Y214000D03*
X507280Y219000D03*
X499280Y224000D03*
X507280Y229000D03*
X499280Y234000D03*
X507280Y239000D03*
X499280Y244000D03*
X507280Y249000D03*
X499280Y254000D03*
X507280Y259000D03*
X499280Y264000D03*
X507280Y269000D03*
X499280Y274000D03*
X507280Y279000D03*
X499280Y284000D03*
X507280Y289000D03*
X499280Y294000D03*
X507280Y299000D03*
D12*
X495380Y173990D03*
X505380Y173990D03*
X515620Y157400D03*
X515620Y147400D03*
X514430Y173990D03*
X524430Y173990D03*
D10*
X453080Y119570D02*
X446080Y119570D01*
X446080Y126570D01*
X453080Y126570D01*
X453080Y119570D01*
X453080Y122420D02*
X446080Y122420D01*
X446080Y125270D02*
X453080Y125270D01*
X453080Y102030D02*
X446080Y102030D01*
X446080Y109030D01*
X453080Y109030D01*
X453080Y102030D01*
X453080Y104880D02*
X446080Y104880D01*
X446080Y107730D02*
X453080Y107730D01*
X522280Y109030D02*
X529280Y109030D01*
X529280Y102030D01*
X522280Y102030D01*
X522280Y109030D01*
X522280Y104880D02*
X529280Y104880D01*
X529280Y107730D02*
X522280Y107730D01*
X522280Y126570D02*
X529280Y126570D01*
X529280Y119570D01*
X522280Y119570D01*
X522280Y126570D01*
X522280Y122420D02*
X529280Y122420D01*
X529280Y125270D02*
X522280Y125270D01*
D15*
X581280Y223700D03*
X597280Y223700D03*
X597280Y182700D03*
X581280Y182700D03*
D10*
X478480Y119570D02*
X471480Y119570D01*
X471480Y126570D01*
X478480Y126570D01*
X478480Y119570D01*
X478480Y122420D02*
X471480Y122420D01*
X471480Y125270D02*
X478480Y125270D01*
X478480Y102030D02*
X471480Y102030D01*
X471480Y109030D01*
X478480Y109030D01*
X478480Y102030D01*
X478480Y104880D02*
X471480Y104880D01*
X471480Y107730D02*
X478480Y107730D01*
X496880Y109030D02*
X503880Y109030D01*
X503880Y102030D01*
X496880Y102030D01*
X496880Y109030D01*
X496880Y104880D02*
X503880Y104880D01*
X503880Y107730D02*
X496880Y107730D01*
X496880Y126570D02*
X503880Y126570D01*
X503880Y119570D01*
X496880Y119570D01*
X496880Y126570D01*
X496880Y122420D02*
X503880Y122420D01*
X503880Y125270D02*
X496880Y125270D01*
D12*
X548720Y83820D03*
X558720Y83820D03*
X467280Y76200D03*
X457280Y76200D03*
X388700Y262890D03*
X398700Y262890D03*
X398780Y195500D03*
X398780Y185500D03*
D16*
X600630Y86300D03*
X600630Y142300D03*
D17*
X563880Y99300D03*
X563880Y109300D03*
X563880Y119300D03*
X563880Y129300D03*
D18*
X421480Y75100D03*
X401480Y75100D03*
D19*
X445480Y23100D03*
X377480Y23100D03*
D20*
X520580Y60100D03*
X515580Y60100D03*
D21*
X545330Y60100D03*
X537580Y60100D03*
D20*
X530580Y60100D03*
X525580Y60100D03*
X505580Y60100D03*
X510580Y60100D03*
D21*
X480830Y60100D03*
X488580Y60100D03*
D20*
X495580Y60100D03*
X500580Y60100D03*
D22*
X541370Y257260D03*
D23*
X537140Y203200D03*
X560140Y203200D03*
D12*
X568960Y203120D03*
X568960Y193120D03*
D24*
X550750Y283210D03*
X529750Y273710D03*
X529750Y292710D03*
D12*
X360680Y71200D03*
X360680Y81200D03*
D23*
X537140Y186690D03*
X560140Y186690D03*
D12*
X543560Y109140D03*
X543560Y99140D03*
D25*
X356260Y155100D03*
X375260Y155100D03*
X365760Y176100D03*
D26*
X559101Y146710D03*
X559101Y156210D03*
X559101Y165710D03*
X533099Y165710D03*
X533099Y146710D03*
D12*
X543560Y119460D03*
X543560Y129460D03*
X524510Y183214D03*
X524510Y193214D03*
X548720Y73660D03*
X558720Y73660D03*
D10*
X730560Y119570D02*
X737560Y119570D01*
X730560Y119570D02*
X730560Y126570D01*
X737560Y126570D01*
X737560Y119570D01*
X737560Y122420D02*
X730560Y122420D01*
X730560Y125270D02*
X737560Y125270D01*
X737560Y102030D02*
X730560Y102030D01*
X730560Y109030D01*
X737560Y109030D01*
X737560Y102030D01*
X737560Y104880D02*
X730560Y104880D01*
X730560Y107730D02*
X737560Y107730D01*
D11*
X797360Y152400D03*
X772360Y152400D03*
D12*
X758190Y147400D03*
X758190Y157400D03*
X810260Y146130D03*
X810260Y156130D03*
D13*
X727160Y299000D03*
X735160Y294000D03*
X727160Y289000D03*
X735160Y284000D03*
X727160Y279000D03*
X735160Y274000D03*
X727160Y269000D03*
X735160Y264000D03*
X727160Y259000D03*
X735160Y254000D03*
X727160Y249000D03*
X735160Y244000D03*
X727160Y239000D03*
X735160Y234000D03*
X727160Y229000D03*
X735160Y224000D03*
X727160Y219000D03*
X735160Y214000D03*
X727160Y209000D03*
X735160Y204000D03*
X727160Y199000D03*
D12*
X727160Y189000D03*
D14*
X737160Y189000D03*
X742160Y197000D03*
X747160Y189000D03*
X752160Y197000D03*
X757160Y189000D03*
X762160Y197000D03*
X767160Y189000D03*
X772160Y197000D03*
X777160Y189000D03*
X782160Y197000D03*
X787160Y189000D03*
X792160Y197000D03*
X797160Y189000D03*
X802160Y197000D03*
X807160Y189000D03*
D12*
X817160Y189000D03*
D13*
X817160Y199000D03*
X809160Y204000D03*
X817160Y209000D03*
X809160Y214000D03*
X817160Y219000D03*
X809160Y224000D03*
X817160Y229000D03*
X809160Y234000D03*
X817160Y239000D03*
X809160Y244000D03*
X817160Y249000D03*
X809160Y254000D03*
X817160Y259000D03*
X809160Y264000D03*
X817160Y269000D03*
X809160Y274000D03*
X817160Y279000D03*
X809160Y284000D03*
X817160Y289000D03*
X809160Y294000D03*
X817160Y299000D03*
D12*
X805260Y173990D03*
X815260Y173990D03*
X825500Y157400D03*
X825500Y147400D03*
X824310Y173990D03*
X834310Y173990D03*
D10*
X762960Y119570D02*
X755960Y119570D01*
X755960Y126570D01*
X762960Y126570D01*
X762960Y119570D01*
X762960Y122420D02*
X755960Y122420D01*
X755960Y125270D02*
X762960Y125270D01*
X762960Y102030D02*
X755960Y102030D01*
X755960Y109030D01*
X762960Y109030D01*
X762960Y102030D01*
X762960Y104880D02*
X755960Y104880D01*
X755960Y107730D02*
X762960Y107730D01*
X832160Y109030D02*
X839160Y109030D01*
X839160Y102030D01*
X832160Y102030D01*
X832160Y109030D01*
X832160Y104880D02*
X839160Y104880D01*
X839160Y107730D02*
X832160Y107730D01*
X832160Y126570D02*
X839160Y126570D01*
X839160Y119570D01*
X832160Y119570D01*
X832160Y126570D01*
X832160Y122420D02*
X839160Y122420D01*
X839160Y125270D02*
X832160Y125270D01*
D15*
X891160Y223700D03*
X907160Y223700D03*
X907160Y182700D03*
X891160Y182700D03*
D10*
X788360Y119570D02*
X781360Y119570D01*
X781360Y126570D01*
X788360Y126570D01*
X788360Y119570D01*
X788360Y122420D02*
X781360Y122420D01*
X781360Y125270D02*
X788360Y125270D01*
X788360Y102030D02*
X781360Y102030D01*
X781360Y109030D01*
X788360Y109030D01*
X788360Y102030D01*
X788360Y104880D02*
X781360Y104880D01*
X781360Y107730D02*
X788360Y107730D01*
X806760Y109030D02*
X813760Y109030D01*
X813760Y102030D01*
X806760Y102030D01*
X806760Y109030D01*
X806760Y104880D02*
X813760Y104880D01*
X813760Y107730D02*
X806760Y107730D01*
X806760Y126570D02*
X813760Y126570D01*
X813760Y119570D01*
X806760Y119570D01*
X806760Y126570D01*
X806760Y122420D02*
X813760Y122420D01*
X813760Y125270D02*
X806760Y125270D01*
D12*
X858600Y83820D03*
X868600Y83820D03*
X777160Y76200D03*
X767160Y76200D03*
X698580Y262890D03*
X708580Y262890D03*
X708660Y195500D03*
X708660Y185500D03*
D16*
X910510Y86300D03*
X910510Y142300D03*
D17*
X873760Y99300D03*
X873760Y109300D03*
X873760Y119300D03*
X873760Y129300D03*
D18*
X731360Y75100D03*
X711360Y75100D03*
D19*
X755360Y23100D03*
X687360Y23100D03*
D20*
X830460Y60100D03*
X825460Y60100D03*
D21*
X855210Y60100D03*
X847460Y60100D03*
D20*
X840460Y60100D03*
X835460Y60100D03*
X815460Y60100D03*
X820460Y60100D03*
D21*
X790710Y60100D03*
X798460Y60100D03*
D20*
X805460Y60100D03*
X810460Y60100D03*
D22*
X851250Y257260D03*
D23*
X847020Y203200D03*
X870020Y203200D03*
D12*
X878840Y203120D03*
X878840Y193120D03*
D24*
X860630Y283210D03*
X839630Y273710D03*
X839630Y292710D03*
D12*
X670560Y71200D03*
X670560Y81200D03*
D23*
X847020Y186690D03*
X870020Y186690D03*
D12*
X853440Y109140D03*
X853440Y99140D03*
D25*
X666140Y155100D03*
X685140Y155100D03*
X675640Y176100D03*
D26*
X868981Y146710D03*
X868981Y156210D03*
X868981Y165710D03*
X842979Y165710D03*
X842979Y146710D03*
D12*
X853440Y119460D03*
X853440Y129460D03*
X834390Y183214D03*
X834390Y193214D03*
X858600Y73660D03*
X868600Y73660D03*
D10*
X117800Y480250D02*
X110800Y480250D01*
X110800Y487250D01*
X117800Y487250D01*
X117800Y480250D01*
X117800Y483100D02*
X110800Y483100D01*
X110800Y485950D02*
X117800Y485950D01*
X117800Y462710D02*
X110800Y462710D01*
X110800Y469710D01*
X117800Y469710D01*
X117800Y462710D01*
X117800Y465560D02*
X110800Y465560D01*
X110800Y468410D02*
X117800Y468410D01*
D11*
X177600Y513080D03*
X152600Y513080D03*
D12*
X138430Y508080D03*
X138430Y518080D03*
X190500Y506810D03*
X190500Y516810D03*
D13*
X107400Y659680D03*
X115400Y654680D03*
X107400Y649680D03*
X115400Y644680D03*
X107400Y639680D03*
X115400Y634680D03*
X107400Y629680D03*
X115400Y624680D03*
X107400Y619680D03*
X115400Y614680D03*
X107400Y609680D03*
X115400Y604680D03*
X107400Y599680D03*
X115400Y594680D03*
X107400Y589680D03*
X115400Y584680D03*
X107400Y579680D03*
X115400Y574680D03*
X107400Y569680D03*
X115400Y564680D03*
X107400Y559680D03*
D12*
X107400Y549680D03*
D14*
X117400Y549680D03*
X122400Y557680D03*
X127400Y549680D03*
X132400Y557680D03*
X137400Y549680D03*
X142400Y557680D03*
X147400Y549680D03*
X152400Y557680D03*
X157400Y549680D03*
X162400Y557680D03*
X167400Y549680D03*
X172400Y557680D03*
X177400Y549680D03*
X182400Y557680D03*
X187400Y549680D03*
D12*
X197400Y549680D03*
D13*
X197400Y559680D03*
X189400Y564680D03*
X197400Y569680D03*
X189400Y574680D03*
X197400Y579680D03*
X189400Y584680D03*
X197400Y589680D03*
X189400Y594680D03*
X197400Y599680D03*
X189400Y604680D03*
X197400Y609680D03*
X189400Y614680D03*
X197400Y619680D03*
X189400Y624680D03*
X197400Y629680D03*
X189400Y634680D03*
X197400Y639680D03*
X189400Y644680D03*
X197400Y649680D03*
X189400Y654680D03*
X197400Y659680D03*
D12*
X185500Y534670D03*
X195500Y534670D03*
X205740Y518080D03*
X205740Y508080D03*
X204550Y534670D03*
X214550Y534670D03*
D10*
X143200Y480250D02*
X136200Y480250D01*
X136200Y487250D01*
X143200Y487250D01*
X143200Y480250D01*
X143200Y483100D02*
X136200Y483100D01*
X136200Y485950D02*
X143200Y485950D01*
X143200Y462710D02*
X136200Y462710D01*
X136200Y469710D01*
X143200Y469710D01*
X143200Y462710D01*
X143200Y465560D02*
X136200Y465560D01*
X136200Y468410D02*
X143200Y468410D01*
X212400Y469710D02*
X219400Y469710D01*
X219400Y462710D01*
X212400Y462710D01*
X212400Y469710D01*
X212400Y465560D02*
X219400Y465560D01*
X219400Y468410D02*
X212400Y468410D01*
X212400Y487250D02*
X219400Y487250D01*
X219400Y480250D01*
X212400Y480250D01*
X212400Y487250D01*
X212400Y483100D02*
X219400Y483100D01*
X219400Y485950D02*
X212400Y485950D01*
D15*
X271400Y584380D03*
X287400Y584380D03*
X287400Y543380D03*
X271400Y543380D03*
D10*
X168600Y480250D02*
X161600Y480250D01*
X161600Y487250D01*
X168600Y487250D01*
X168600Y480250D01*
X168600Y483100D02*
X161600Y483100D01*
X161600Y485950D02*
X168600Y485950D01*
X168600Y462710D02*
X161600Y462710D01*
X161600Y469710D01*
X168600Y469710D01*
X168600Y462710D01*
X168600Y465560D02*
X161600Y465560D01*
X161600Y468410D02*
X168600Y468410D01*
X187000Y469710D02*
X194000Y469710D01*
X194000Y462710D01*
X187000Y462710D01*
X187000Y469710D01*
X187000Y465560D02*
X194000Y465560D01*
X194000Y468410D02*
X187000Y468410D01*
X187000Y487250D02*
X194000Y487250D01*
X194000Y480250D01*
X187000Y480250D01*
X187000Y487250D01*
X187000Y483100D02*
X194000Y483100D01*
X194000Y485950D02*
X187000Y485950D01*
D12*
X238840Y444500D03*
X248840Y444500D03*
X157400Y436880D03*
X147400Y436880D03*
X78820Y623570D03*
X88820Y623570D03*
X88900Y556180D03*
X88900Y546180D03*
D16*
X290750Y446980D03*
X290750Y502980D03*
D17*
X254000Y459980D03*
X254000Y469980D03*
X254000Y479980D03*
X254000Y489980D03*
D18*
X111600Y435780D03*
X91600Y435780D03*
D19*
X135600Y383780D03*
X67600Y383780D03*
D20*
X210700Y420780D03*
X205700Y420780D03*
D21*
X235450Y420780D03*
X227700Y420780D03*
D20*
X220700Y420780D03*
X215700Y420780D03*
X195700Y420780D03*
X200700Y420780D03*
D21*
X170950Y420780D03*
X178700Y420780D03*
D20*
X185700Y420780D03*
X190700Y420780D03*
D22*
X231490Y617940D03*
D23*
X227260Y563880D03*
X250260Y563880D03*
D12*
X259080Y563800D03*
X259080Y553800D03*
D24*
X240870Y643890D03*
X219870Y634390D03*
X219870Y653390D03*
D12*
X50800Y431880D03*
X50800Y441880D03*
D23*
X227260Y547370D03*
X250260Y547370D03*
D12*
X233680Y469820D03*
X233680Y459820D03*
D25*
X46380Y515780D03*
X65380Y515780D03*
X55880Y536780D03*
D26*
X249221Y507390D03*
X249221Y516890D03*
X249221Y526390D03*
X223219Y526390D03*
X223219Y507390D03*
D12*
X233680Y480140D03*
X233680Y490140D03*
X214630Y543894D03*
X214630Y553894D03*
X238840Y434340D03*
X248840Y434340D03*
D10*
X420680Y480250D02*
X427680Y480250D01*
X420680Y480250D02*
X420680Y487250D01*
X427680Y487250D01*
X427680Y480250D01*
X427680Y483100D02*
X420680Y483100D01*
X420680Y485950D02*
X427680Y485950D01*
X427680Y462710D02*
X420680Y462710D01*
X420680Y469710D01*
X427680Y469710D01*
X427680Y462710D01*
X427680Y465560D02*
X420680Y465560D01*
X420680Y468410D02*
X427680Y468410D01*
D11*
X487480Y513080D03*
X462480Y513080D03*
D12*
X448310Y508080D03*
X448310Y518080D03*
X500380Y506810D03*
X500380Y516810D03*
D13*
X417280Y659680D03*
X425280Y654680D03*
X417280Y649680D03*
X425280Y644680D03*
X417280Y639680D03*
X425280Y634680D03*
X417280Y629680D03*
X425280Y624680D03*
X417280Y619680D03*
X425280Y614680D03*
X417280Y609680D03*
X425280Y604680D03*
X417280Y599680D03*
X425280Y594680D03*
X417280Y589680D03*
X425280Y584680D03*
X417280Y579680D03*
X425280Y574680D03*
X417280Y569680D03*
X425280Y564680D03*
X417280Y559680D03*
D12*
X417280Y549680D03*
D14*
X427280Y549680D03*
X432280Y557680D03*
X437280Y549680D03*
X442280Y557680D03*
X447280Y549680D03*
X452280Y557680D03*
X457280Y549680D03*
X462280Y557680D03*
X467280Y549680D03*
X472280Y557680D03*
X477280Y549680D03*
X482280Y557680D03*
X487280Y549680D03*
X492280Y557680D03*
X497280Y549680D03*
D12*
X507280Y549680D03*
D13*
X507280Y559680D03*
X499280Y564680D03*
X507280Y569680D03*
X499280Y574680D03*
X507280Y579680D03*
X499280Y584680D03*
X507280Y589680D03*
X499280Y594680D03*
X507280Y599680D03*
X499280Y604680D03*
X507280Y609680D03*
X499280Y614680D03*
X507280Y619680D03*
X499280Y624680D03*
X507280Y629680D03*
X499280Y634680D03*
X507280Y639680D03*
X499280Y644680D03*
X507280Y649680D03*
X499280Y654680D03*
X507280Y659680D03*
D12*
X495380Y534670D03*
X505380Y534670D03*
X515620Y518080D03*
X515620Y508080D03*
X514430Y534670D03*
X524430Y534670D03*
D10*
X453080Y480250D02*
X446080Y480250D01*
X446080Y487250D01*
X453080Y487250D01*
X453080Y480250D01*
X453080Y483100D02*
X446080Y483100D01*
X446080Y485950D02*
X453080Y485950D01*
X453080Y462710D02*
X446080Y462710D01*
X446080Y469710D01*
X453080Y469710D01*
X453080Y462710D01*
X453080Y465560D02*
X446080Y465560D01*
X446080Y468410D02*
X453080Y468410D01*
X522280Y469710D02*
X529280Y469710D01*
X529280Y462710D01*
X522280Y462710D01*
X522280Y469710D01*
X522280Y465560D02*
X529280Y465560D01*
X529280Y468410D02*
X522280Y468410D01*
X522280Y487250D02*
X529280Y487250D01*
X529280Y480250D01*
X522280Y480250D01*
X522280Y487250D01*
X522280Y483100D02*
X529280Y483100D01*
X529280Y485950D02*
X522280Y485950D01*
D15*
X581280Y584380D03*
X597280Y584380D03*
X597280Y543380D03*
X581280Y543380D03*
D10*
X478480Y480250D02*
X471480Y480250D01*
X471480Y487250D01*
X478480Y487250D01*
X478480Y480250D01*
X478480Y483100D02*
X471480Y483100D01*
X471480Y485950D02*
X478480Y485950D01*
X478480Y462710D02*
X471480Y462710D01*
X471480Y469710D01*
X478480Y469710D01*
X478480Y462710D01*
X478480Y465560D02*
X471480Y465560D01*
X471480Y468410D02*
X478480Y468410D01*
X496880Y469710D02*
X503880Y469710D01*
X503880Y462710D01*
X496880Y462710D01*
X496880Y469710D01*
X496880Y465560D02*
X503880Y465560D01*
X503880Y468410D02*
X496880Y468410D01*
X496880Y487250D02*
X503880Y487250D01*
X503880Y480250D01*
X496880Y480250D01*
X496880Y487250D01*
X496880Y483100D02*
X503880Y483100D01*
X503880Y485950D02*
X496880Y485950D01*
D12*
X548720Y444500D03*
X558720Y444500D03*
X467280Y436880D03*
X457280Y436880D03*
X388700Y623570D03*
X398700Y623570D03*
X398780Y556180D03*
X398780Y546180D03*
D16*
X600630Y446980D03*
X600630Y502980D03*
D17*
X563880Y459980D03*
X563880Y469980D03*
X563880Y479980D03*
X563880Y489980D03*
D18*
X421480Y435780D03*
X401480Y435780D03*
D19*
X445480Y383780D03*
X377480Y383780D03*
D20*
X520580Y420780D03*
X515580Y420780D03*
D21*
X545330Y420780D03*
X537580Y420780D03*
D20*
X530580Y420780D03*
X525580Y420780D03*
X505580Y420780D03*
X510580Y420780D03*
D21*
X480830Y420780D03*
X488580Y420780D03*
D20*
X495580Y420780D03*
X500580Y420780D03*
D22*
X541370Y617940D03*
D23*
X537140Y563880D03*
X560140Y563880D03*
D12*
X568960Y563800D03*
X568960Y553800D03*
D24*
X550750Y643890D03*
X529750Y634390D03*
X529750Y653390D03*
D12*
X360680Y431880D03*
X360680Y441880D03*
D23*
X537140Y547370D03*
X560140Y547370D03*
D12*
X543560Y469820D03*
X543560Y459820D03*
D25*
X356260Y515780D03*
X375260Y515780D03*
X365760Y536780D03*
D26*
X559101Y507390D03*
X559101Y516890D03*
X559101Y526390D03*
X533099Y526390D03*
X533099Y507390D03*
D12*
X543560Y480140D03*
X543560Y490140D03*
X524510Y543894D03*
X524510Y553894D03*
X548720Y434340D03*
X558720Y434340D03*
D10*
X730560Y480250D02*
X737560Y480250D01*
X730560Y480250D02*
X730560Y487250D01*
X737560Y487250D01*
X737560Y480250D01*
X737560Y483100D02*
X730560Y483100D01*
X730560Y485950D02*
X737560Y485950D01*
X737560Y462710D02*
X730560Y462710D01*
X730560Y469710D01*
X737560Y469710D01*
X737560Y462710D01*
X737560Y465560D02*
X730560Y465560D01*
X730560Y468410D02*
X737560Y468410D01*
D11*
X797360Y513080D03*
X772360Y513080D03*
D12*
X758190Y508080D03*
X758190Y518080D03*
X810260Y506810D03*
X810260Y516810D03*
D13*
X727160Y659680D03*
X735160Y654680D03*
X727160Y649680D03*
X735160Y644680D03*
X727160Y639680D03*
X735160Y634680D03*
X727160Y629680D03*
X735160Y624680D03*
X727160Y619680D03*
X735160Y614680D03*
X727160Y609680D03*
X735160Y604680D03*
X727160Y599680D03*
X735160Y594680D03*
X727160Y589680D03*
X735160Y584680D03*
X727160Y579680D03*
X735160Y574680D03*
X727160Y569680D03*
X735160Y564680D03*
X727160Y559680D03*
D12*
X727160Y549680D03*
D14*
X737160Y549680D03*
X742160Y557680D03*
X747160Y549680D03*
X752160Y557680D03*
X757160Y549680D03*
X762160Y557680D03*
X767160Y549680D03*
X772160Y557680D03*
X777160Y549680D03*
X782160Y557680D03*
X787160Y549680D03*
X792160Y557680D03*
X797160Y549680D03*
X802160Y557680D03*
X807160Y549680D03*
D12*
X817160Y549680D03*
D13*
X817160Y559680D03*
X809160Y564680D03*
X817160Y569680D03*
X809160Y574680D03*
X817160Y579680D03*
X809160Y584680D03*
X817160Y589680D03*
X809160Y594680D03*
X817160Y599680D03*
X809160Y604680D03*
X817160Y609680D03*
X809160Y614680D03*
X817160Y619680D03*
X809160Y624680D03*
X817160Y629680D03*
X809160Y634680D03*
X817160Y639680D03*
X809160Y644680D03*
X817160Y649680D03*
X809160Y654680D03*
X817160Y659680D03*
D12*
X805260Y534670D03*
X815260Y534670D03*
X825500Y518080D03*
X825500Y508080D03*
X824310Y534670D03*
X834310Y534670D03*
D10*
X762960Y480250D02*
X755960Y480250D01*
X755960Y487250D01*
X762960Y487250D01*
X762960Y480250D01*
X762960Y483100D02*
X755960Y483100D01*
X755960Y485950D02*
X762960Y485950D01*
X762960Y462710D02*
X755960Y462710D01*
X755960Y469710D01*
X762960Y469710D01*
X762960Y462710D01*
X762960Y465560D02*
X755960Y465560D01*
X755960Y468410D02*
X762960Y468410D01*
X832160Y469710D02*
X839160Y469710D01*
X839160Y462710D01*
X832160Y462710D01*
X832160Y469710D01*
X832160Y465560D02*
X839160Y465560D01*
X839160Y468410D02*
X832160Y468410D01*
X832160Y487250D02*
X839160Y487250D01*
X839160Y480250D01*
X832160Y480250D01*
X832160Y487250D01*
X832160Y483100D02*
X839160Y483100D01*
X839160Y485950D02*
X832160Y485950D01*
D15*
X891160Y584380D03*
X907160Y584380D03*
X907160Y543380D03*
X891160Y543380D03*
D10*
X788360Y480250D02*
X781360Y480250D01*
X781360Y487250D01*
X788360Y487250D01*
X788360Y480250D01*
X788360Y483100D02*
X781360Y483100D01*
X781360Y485950D02*
X788360Y485950D01*
X788360Y462710D02*
X781360Y462710D01*
X781360Y469710D01*
X788360Y469710D01*
X788360Y462710D01*
X788360Y465560D02*
X781360Y465560D01*
X781360Y468410D02*
X788360Y468410D01*
X806760Y469710D02*
X813760Y469710D01*
X813760Y462710D01*
X806760Y462710D01*
X806760Y469710D01*
X806760Y465560D02*
X813760Y465560D01*
X813760Y468410D02*
X806760Y468410D01*
X806760Y487250D02*
X813760Y487250D01*
X813760Y480250D01*
X806760Y480250D01*
X806760Y487250D01*
X806760Y483100D02*
X813760Y483100D01*
X813760Y485950D02*
X806760Y485950D01*
D12*
X858600Y444500D03*
X868600Y444500D03*
X777160Y436880D03*
X767160Y436880D03*
X698580Y623570D03*
X708580Y623570D03*
X708660Y556180D03*
X708660Y546180D03*
D16*
X910510Y446980D03*
X910510Y502980D03*
D17*
X873760Y459980D03*
X873760Y469980D03*
X873760Y479980D03*
X873760Y489980D03*
D18*
X731360Y435780D03*
X711360Y435780D03*
D19*
X755360Y383780D03*
X687360Y383780D03*
D20*
X830460Y420780D03*
X825460Y420780D03*
D21*
X855210Y420780D03*
X847460Y420780D03*
D20*
X840460Y420780D03*
X835460Y420780D03*
X815460Y420780D03*
X820460Y420780D03*
D21*
X790710Y420780D03*
X798460Y420780D03*
D20*
X805460Y420780D03*
X810460Y420780D03*
D22*
X851250Y617940D03*
D23*
X847020Y563880D03*
X870020Y563880D03*
D12*
X878840Y563800D03*
X878840Y553800D03*
D24*
X860630Y643890D03*
X839630Y634390D03*
X839630Y653390D03*
D12*
X670560Y431880D03*
X670560Y441880D03*
D23*
X847020Y547370D03*
X870020Y547370D03*
D12*
X853440Y469820D03*
X853440Y459820D03*
D25*
X666140Y515780D03*
X685140Y515780D03*
X675640Y536780D03*
D26*
X868981Y507390D03*
X868981Y516890D03*
X868981Y526390D03*
X842979Y526390D03*
X842979Y507390D03*
D12*
X853440Y480140D03*
X853440Y490140D03*
X834390Y543894D03*
X834390Y553894D03*
X858600Y434340D03*
X868600Y434340D03*
D10*
X117800Y840930D02*
X110800Y840930D01*
X110800Y847930D01*
X117800Y847930D01*
X117800Y840930D01*
X117800Y843780D02*
X110800Y843780D01*
X110800Y846630D02*
X117800Y846630D01*
X117800Y823390D02*
X110800Y823390D01*
X110800Y830390D01*
X117800Y830390D01*
X117800Y823390D01*
X117800Y826240D02*
X110800Y826240D01*
X110800Y829090D02*
X117800Y829090D01*
D11*
X177600Y873760D03*
X152600Y873760D03*
D12*
X138430Y868760D03*
X138430Y878760D03*
X190500Y867490D03*
X190500Y877490D03*
D13*
X107400Y1020360D03*
X115400Y1015360D03*
X107400Y1010360D03*
X115400Y1005360D03*
X107400Y1000360D03*
X115400Y995360D03*
X107400Y990360D03*
X115400Y985360D03*
X107400Y980360D03*
X115400Y975360D03*
X107400Y970360D03*
X115400Y965360D03*
X107400Y960360D03*
X115400Y955360D03*
X107400Y950360D03*
X115400Y945360D03*
X107400Y940360D03*
X115400Y935360D03*
X107400Y930360D03*
X115400Y925360D03*
X107400Y920360D03*
D12*
X107400Y910360D03*
D14*
X117400Y910360D03*
X122400Y918360D03*
X127400Y910360D03*
X132400Y918360D03*
X137400Y910360D03*
X142400Y918360D03*
X147400Y910360D03*
X152400Y918360D03*
X157400Y910360D03*
X162400Y918360D03*
X167400Y910360D03*
X172400Y918360D03*
X177400Y910360D03*
X182400Y918360D03*
X187400Y910360D03*
D12*
X197400Y910360D03*
D13*
X197400Y920360D03*
X189400Y925360D03*
X197400Y930360D03*
X189400Y935360D03*
X197400Y940360D03*
X189400Y945360D03*
X197400Y950360D03*
X189400Y955360D03*
X197400Y960360D03*
X189400Y965360D03*
X197400Y970360D03*
X189400Y975360D03*
X197400Y980360D03*
X189400Y985360D03*
X197400Y990360D03*
X189400Y995360D03*
X197400Y1000360D03*
X189400Y1005360D03*
X197400Y1010360D03*
X189400Y1015360D03*
X197400Y1020360D03*
D12*
X185500Y895350D03*
X195500Y895350D03*
X205740Y878760D03*
X205740Y868760D03*
X204550Y895350D03*
X214550Y895350D03*
D10*
X143200Y840930D02*
X136200Y840930D01*
X136200Y847930D01*
X143200Y847930D01*
X143200Y840930D01*
X143200Y843780D02*
X136200Y843780D01*
X136200Y846630D02*
X143200Y846630D01*
X143200Y823390D02*
X136200Y823390D01*
X136200Y830390D01*
X143200Y830390D01*
X143200Y823390D01*
X143200Y826240D02*
X136200Y826240D01*
X136200Y829090D02*
X143200Y829090D01*
X212400Y830390D02*
X219400Y830390D01*
X219400Y823390D01*
X212400Y823390D01*
X212400Y830390D01*
X212400Y826240D02*
X219400Y826240D01*
X219400Y829090D02*
X212400Y829090D01*
X212400Y847930D02*
X219400Y847930D01*
X219400Y840930D01*
X212400Y840930D01*
X212400Y847930D01*
X212400Y843780D02*
X219400Y843780D01*
X219400Y846630D02*
X212400Y846630D01*
D15*
X271400Y945060D03*
X287400Y945060D03*
X287400Y904060D03*
X271400Y904060D03*
D10*
X168600Y840930D02*
X161600Y840930D01*
X161600Y847930D01*
X168600Y847930D01*
X168600Y840930D01*
X168600Y843780D02*
X161600Y843780D01*
X161600Y846630D02*
X168600Y846630D01*
X168600Y823390D02*
X161600Y823390D01*
X161600Y830390D01*
X168600Y830390D01*
X168600Y823390D01*
X168600Y826240D02*
X161600Y826240D01*
X161600Y829090D02*
X168600Y829090D01*
X187000Y830390D02*
X194000Y830390D01*
X194000Y823390D01*
X187000Y823390D01*
X187000Y830390D01*
X187000Y826240D02*
X194000Y826240D01*
X194000Y829090D02*
X187000Y829090D01*
X187000Y847930D02*
X194000Y847930D01*
X194000Y840930D01*
X187000Y840930D01*
X187000Y847930D01*
X187000Y843780D02*
X194000Y843780D01*
X194000Y846630D02*
X187000Y846630D01*
D12*
X238840Y805180D03*
X248840Y805180D03*
X157400Y797560D03*
X147400Y797560D03*
X78820Y984250D03*
X88820Y984250D03*
X88900Y916860D03*
X88900Y906860D03*
D16*
X290750Y807660D03*
X290750Y863660D03*
D17*
X254000Y820660D03*
X254000Y830660D03*
X254000Y840660D03*
X254000Y850660D03*
D18*
X111600Y796460D03*
X91600Y796460D03*
D19*
X135600Y744460D03*
X67600Y744460D03*
D20*
X210700Y781460D03*
X205700Y781460D03*
D21*
X235450Y781460D03*
X227700Y781460D03*
D20*
X220700Y781460D03*
X215700Y781460D03*
X195700Y781460D03*
X200700Y781460D03*
D21*
X170950Y781460D03*
X178700Y781460D03*
D20*
X185700Y781460D03*
X190700Y781460D03*
D22*
X231490Y978620D03*
D23*
X227260Y924560D03*
X250260Y924560D03*
D12*
X259080Y924480D03*
X259080Y914480D03*
D24*
X240870Y1004570D03*
X219870Y995070D03*
X219870Y1014070D03*
D12*
X50800Y792560D03*
X50800Y802560D03*
D23*
X227260Y908050D03*
X250260Y908050D03*
D12*
X233680Y830500D03*
X233680Y820500D03*
D25*
X46380Y876460D03*
X65380Y876460D03*
X55880Y897460D03*
D26*
X249221Y868070D03*
X249221Y877570D03*
X249221Y887070D03*
X223219Y887070D03*
X223219Y868070D03*
D12*
X233680Y840820D03*
X233680Y850820D03*
X214630Y904574D03*
X214630Y914574D03*
X238840Y795020D03*
X248840Y795020D03*
D10*
X420680Y840930D02*
X427680Y840930D01*
X420680Y840930D02*
X420680Y847930D01*
X427680Y847930D01*
X427680Y840930D01*
X427680Y843780D02*
X420680Y843780D01*
X420680Y846630D02*
X427680Y846630D01*
X427680Y823390D02*
X420680Y823390D01*
X420680Y830390D01*
X427680Y830390D01*
X427680Y823390D01*
X427680Y826240D02*
X420680Y826240D01*
X420680Y829090D02*
X427680Y829090D01*
D11*
X487480Y873760D03*
X462480Y873760D03*
D12*
X448310Y868760D03*
X448310Y878760D03*
X500380Y867490D03*
X500380Y877490D03*
D13*
X417280Y1020360D03*
X425280Y1015360D03*
X417280Y1010360D03*
X425280Y1005360D03*
X417280Y1000360D03*
X425280Y995360D03*
X417280Y990360D03*
X425280Y985360D03*
X417280Y980360D03*
X425280Y975360D03*
X417280Y970360D03*
X425280Y965360D03*
X417280Y960360D03*
X425280Y955360D03*
X417280Y950360D03*
X425280Y945360D03*
X417280Y940360D03*
X425280Y935360D03*
X417280Y930360D03*
X425280Y925360D03*
X417280Y920360D03*
D12*
X417280Y910360D03*
D14*
X427280Y910360D03*
X432280Y918360D03*
X437280Y910360D03*
X442280Y918360D03*
X447280Y910360D03*
X452280Y918360D03*
X457280Y910360D03*
X462280Y918360D03*
X467280Y910360D03*
X472280Y918360D03*
X477280Y910360D03*
X482280Y918360D03*
X487280Y910360D03*
X492280Y918360D03*
X497280Y910360D03*
D12*
X507280Y910360D03*
D13*
X507280Y920360D03*
X499280Y925360D03*
X507280Y930360D03*
X499280Y935360D03*
X507280Y940360D03*
X499280Y945360D03*
X507280Y950360D03*
X499280Y955360D03*
X507280Y960360D03*
X499280Y965360D03*
X507280Y970360D03*
X499280Y975360D03*
X507280Y980360D03*
X499280Y985360D03*
X507280Y990360D03*
X499280Y995360D03*
X507280Y1000360D03*
X499280Y1005360D03*
X507280Y1010360D03*
X499280Y1015360D03*
X507280Y1020360D03*
D12*
X495380Y895350D03*
X505380Y895350D03*
X515620Y878760D03*
X515620Y868760D03*
X514430Y895350D03*
X524430Y895350D03*
D10*
X453080Y840930D02*
X446080Y840930D01*
X446080Y847930D01*
X453080Y847930D01*
X453080Y840930D01*
X453080Y843780D02*
X446080Y843780D01*
X446080Y846630D02*
X453080Y846630D01*
X453080Y823390D02*
X446080Y823390D01*
X446080Y830390D01*
X453080Y830390D01*
X453080Y823390D01*
X453080Y826240D02*
X446080Y826240D01*
X446080Y829090D02*
X453080Y829090D01*
X522280Y830390D02*
X529280Y830390D01*
X529280Y823390D01*
X522280Y823390D01*
X522280Y830390D01*
X522280Y826240D02*
X529280Y826240D01*
X529280Y829090D02*
X522280Y829090D01*
X522280Y847930D02*
X529280Y847930D01*
X529280Y840930D01*
X522280Y840930D01*
X522280Y847930D01*
X522280Y843780D02*
X529280Y843780D01*
X529280Y846630D02*
X522280Y846630D01*
D15*
X581280Y945060D03*
X597280Y945060D03*
X597280Y904060D03*
X581280Y904060D03*
D10*
X478480Y840930D02*
X471480Y840930D01*
X471480Y847930D01*
X478480Y847930D01*
X478480Y840930D01*
X478480Y843780D02*
X471480Y843780D01*
X471480Y846630D02*
X478480Y846630D01*
X478480Y823390D02*
X471480Y823390D01*
X471480Y830390D01*
X478480Y830390D01*
X478480Y823390D01*
X478480Y826240D02*
X471480Y826240D01*
X471480Y829090D02*
X478480Y829090D01*
X496880Y830390D02*
X503880Y830390D01*
X503880Y823390D01*
X496880Y823390D01*
X496880Y830390D01*
X496880Y826240D02*
X503880Y826240D01*
X503880Y829090D02*
X496880Y829090D01*
X496880Y847930D02*
X503880Y847930D01*
X503880Y840930D01*
X496880Y840930D01*
X496880Y847930D01*
X496880Y843780D02*
X503880Y843780D01*
X503880Y846630D02*
X496880Y846630D01*
D12*
X548720Y805180D03*
X558720Y805180D03*
X467280Y797560D03*
X457280Y797560D03*
X388700Y984250D03*
X398700Y984250D03*
X398780Y916860D03*
X398780Y906860D03*
D16*
X600630Y807660D03*
X600630Y863660D03*
D17*
X563880Y820660D03*
X563880Y830660D03*
X563880Y840660D03*
X563880Y850660D03*
D18*
X421480Y796460D03*
X401480Y796460D03*
D19*
X445480Y744460D03*
X377480Y744460D03*
D20*
X520580Y781460D03*
X515580Y781460D03*
D21*
X545330Y781460D03*
X537580Y781460D03*
D20*
X530580Y781460D03*
X525580Y781460D03*
X505580Y781460D03*
X510580Y781460D03*
D21*
X480830Y781460D03*
X488580Y781460D03*
D20*
X495580Y781460D03*
X500580Y781460D03*
D22*
X541370Y978620D03*
D23*
X537140Y924560D03*
X560140Y924560D03*
D12*
X568960Y924480D03*
X568960Y914480D03*
D24*
X550750Y1004570D03*
X529750Y995070D03*
X529750Y1014070D03*
D12*
X360680Y792560D03*
X360680Y802560D03*
D23*
X537140Y908050D03*
X560140Y908050D03*
D12*
X543560Y830500D03*
X543560Y820500D03*
D25*
X356260Y876460D03*
X375260Y876460D03*
X365760Y897460D03*
D26*
X559101Y868070D03*
X559101Y877570D03*
X559101Y887070D03*
X533099Y887070D03*
X533099Y868070D03*
D12*
X543560Y840820D03*
X543560Y850820D03*
X524510Y904574D03*
X524510Y914574D03*
X548720Y795020D03*
X558720Y795020D03*
D10*
X730560Y840930D02*
X737560Y840930D01*
X730560Y840930D02*
X730560Y847930D01*
X737560Y847930D01*
X737560Y840930D01*
X737560Y843780D02*
X730560Y843780D01*
X730560Y846630D02*
X737560Y846630D01*
X737560Y823390D02*
X730560Y823390D01*
X730560Y830390D01*
X737560Y830390D01*
X737560Y823390D01*
X737560Y826240D02*
X730560Y826240D01*
X730560Y829090D02*
X737560Y829090D01*
D11*
X797360Y873760D03*
X772360Y873760D03*
D12*
X758190Y868760D03*
X758190Y878760D03*
X810260Y867490D03*
X810260Y877490D03*
D13*
X727160Y1020360D03*
X735160Y1015360D03*
X727160Y1010360D03*
X735160Y1005360D03*
X727160Y1000360D03*
X735160Y995360D03*
X727160Y990360D03*
X735160Y985360D03*
X727160Y980360D03*
X735160Y975360D03*
X727160Y970360D03*
X735160Y965360D03*
X727160Y960360D03*
X735160Y955360D03*
X727160Y950360D03*
X735160Y945360D03*
X727160Y940360D03*
X735160Y935360D03*
X727160Y930360D03*
X735160Y925360D03*
X727160Y920360D03*
D12*
X727160Y910360D03*
D14*
X737160Y910360D03*
X742160Y918360D03*
X747160Y910360D03*
X752160Y918360D03*
X757160Y910360D03*
X762160Y918360D03*
X767160Y910360D03*
X772160Y918360D03*
X777160Y910360D03*
X782160Y918360D03*
X787160Y910360D03*
X792160Y918360D03*
X797160Y910360D03*
X802160Y918360D03*
X807160Y910360D03*
D12*
X817160Y910360D03*
D13*
X817160Y920360D03*
X809160Y925360D03*
X817160Y930360D03*
X809160Y935360D03*
X817160Y940360D03*
X809160Y945360D03*
X817160Y950360D03*
X809160Y955360D03*
X817160Y960360D03*
X809160Y965360D03*
X817160Y970360D03*
X809160Y975360D03*
X817160Y980360D03*
X809160Y985360D03*
X817160Y990360D03*
X809160Y995360D03*
X817160Y1000360D03*
X809160Y1005360D03*
X817160Y1010360D03*
X809160Y1015360D03*
X817160Y1020360D03*
D12*
X805260Y895350D03*
X815260Y895350D03*
X825500Y878760D03*
X825500Y868760D03*
X824310Y895350D03*
X834310Y895350D03*
D10*
X762960Y840930D02*
X755960Y840930D01*
X755960Y847930D01*
X762960Y847930D01*
X762960Y840930D01*
X762960Y843780D02*
X755960Y843780D01*
X755960Y846630D02*
X762960Y846630D01*
X762960Y823390D02*
X755960Y823390D01*
X755960Y830390D01*
X762960Y830390D01*
X762960Y823390D01*
X762960Y826240D02*
X755960Y826240D01*
X755960Y829090D02*
X762960Y829090D01*
X832160Y830390D02*
X839160Y830390D01*
X839160Y823390D01*
X832160Y823390D01*
X832160Y830390D01*
X832160Y826240D02*
X839160Y826240D01*
X839160Y829090D02*
X832160Y829090D01*
X832160Y847930D02*
X839160Y847930D01*
X839160Y840930D01*
X832160Y840930D01*
X832160Y847930D01*
X832160Y843780D02*
X839160Y843780D01*
X839160Y846630D02*
X832160Y846630D01*
D15*
X891160Y945060D03*
X907160Y945060D03*
X907160Y904060D03*
X891160Y904060D03*
D10*
X788360Y840930D02*
X781360Y840930D01*
X781360Y847930D01*
X788360Y847930D01*
X788360Y840930D01*
X788360Y843780D02*
X781360Y843780D01*
X781360Y846630D02*
X788360Y846630D01*
X788360Y823390D02*
X781360Y823390D01*
X781360Y830390D01*
X788360Y830390D01*
X788360Y823390D01*
X788360Y826240D02*
X781360Y826240D01*
X781360Y829090D02*
X788360Y829090D01*
X806760Y830390D02*
X813760Y830390D01*
X813760Y823390D01*
X806760Y823390D01*
X806760Y830390D01*
X806760Y826240D02*
X813760Y826240D01*
X813760Y829090D02*
X806760Y829090D01*
X806760Y847930D02*
X813760Y847930D01*
X813760Y840930D01*
X806760Y840930D01*
X806760Y847930D01*
X806760Y843780D02*
X813760Y843780D01*
X813760Y846630D02*
X806760Y846630D01*
D12*
X858600Y805180D03*
X868600Y805180D03*
X777160Y797560D03*
X767160Y797560D03*
X698580Y984250D03*
X708580Y984250D03*
X708660Y916860D03*
X708660Y906860D03*
D16*
X910510Y807660D03*
X910510Y863660D03*
D17*
X873760Y820660D03*
X873760Y830660D03*
X873760Y840660D03*
X873760Y850660D03*
D18*
X731360Y796460D03*
X711360Y796460D03*
D19*
X755360Y744460D03*
X687360Y744460D03*
D20*
X830460Y781460D03*
X825460Y781460D03*
D21*
X855210Y781460D03*
X847460Y781460D03*
D20*
X840460Y781460D03*
X835460Y781460D03*
X815460Y781460D03*
X820460Y781460D03*
D21*
X790710Y781460D03*
X798460Y781460D03*
D20*
X805460Y781460D03*
X810460Y781460D03*
D22*
X851250Y978620D03*
D23*
X847020Y924560D03*
X870020Y924560D03*
D12*
X878840Y924480D03*
X878840Y914480D03*
D24*
X860630Y1004570D03*
X839630Y995070D03*
X839630Y1014070D03*
D12*
X670560Y792560D03*
X670560Y802560D03*
D23*
X847020Y908050D03*
X870020Y908050D03*
D12*
X853440Y830500D03*
X853440Y820500D03*
D25*
X666140Y876460D03*
X685140Y876460D03*
X675640Y897460D03*
D26*
X868981Y868070D03*
X868981Y877570D03*
X868981Y887070D03*
X842979Y887070D03*
X842979Y868070D03*
D12*
X853440Y840820D03*
X853440Y850820D03*
X834390Y904574D03*
X834390Y914574D03*
X858600Y795020D03*
X868600Y795020D03*
D10*
X117800Y1201610D02*
X110800Y1201610D01*
X110800Y1208610D01*
X117800Y1208610D01*
X117800Y1201610D01*
X117800Y1204460D02*
X110800Y1204460D01*
X110800Y1207310D02*
X117800Y1207310D01*
X117800Y1184070D02*
X110800Y1184070D01*
X110800Y1191070D01*
X117800Y1191070D01*
X117800Y1184070D01*
X117800Y1186920D02*
X110800Y1186920D01*
X110800Y1189770D02*
X117800Y1189770D01*
D11*
X177600Y1234440D03*
X152600Y1234440D03*
D12*
X138430Y1229440D03*
X138430Y1239440D03*
X190500Y1228170D03*
X190500Y1238170D03*
D13*
X107400Y1381040D03*
X115400Y1376040D03*
X107400Y1371040D03*
X115400Y1366040D03*
X107400Y1361040D03*
X115400Y1356040D03*
X107400Y1351040D03*
X115400Y1346040D03*
X107400Y1341040D03*
X115400Y1336040D03*
X107400Y1331040D03*
X115400Y1326040D03*
X107400Y1321040D03*
X115400Y1316040D03*
X107400Y1311040D03*
X115400Y1306040D03*
X107400Y1301040D03*
X115400Y1296040D03*
X107400Y1291040D03*
X115400Y1286040D03*
X107400Y1281040D03*
D12*
X107400Y1271040D03*
D14*
X117400Y1271040D03*
X122400Y1279040D03*
X127400Y1271040D03*
X132400Y1279040D03*
X137400Y1271040D03*
X142400Y1279040D03*
X147400Y1271040D03*
X152400Y1279040D03*
X157400Y1271040D03*
X162400Y1279040D03*
X167400Y1271040D03*
X172400Y1279040D03*
X177400Y1271040D03*
X182400Y1279040D03*
X187400Y1271040D03*
D12*
X197400Y1271040D03*
D13*
X197400Y1281040D03*
X189400Y1286040D03*
X197400Y1291040D03*
X189400Y1296040D03*
X197400Y1301040D03*
X189400Y1306040D03*
X197400Y1311040D03*
X189400Y1316040D03*
X197400Y1321040D03*
X189400Y1326040D03*
X197400Y1331040D03*
X189400Y1336040D03*
X197400Y1341040D03*
X189400Y1346040D03*
X197400Y1351040D03*
X189400Y1356040D03*
X197400Y1361040D03*
X189400Y1366040D03*
X197400Y1371040D03*
X189400Y1376040D03*
X197400Y1381040D03*
D12*
X185500Y1256030D03*
X195500Y1256030D03*
X205740Y1239440D03*
X205740Y1229440D03*
X204550Y1256030D03*
X214550Y1256030D03*
D10*
X143200Y1201610D02*
X136200Y1201610D01*
X136200Y1208610D01*
X143200Y1208610D01*
X143200Y1201610D01*
X143200Y1204460D02*
X136200Y1204460D01*
X136200Y1207310D02*
X143200Y1207310D01*
X143200Y1184070D02*
X136200Y1184070D01*
X136200Y1191070D01*
X143200Y1191070D01*
X143200Y1184070D01*
X143200Y1186920D02*
X136200Y1186920D01*
X136200Y1189770D02*
X143200Y1189770D01*
X212400Y1191070D02*
X219400Y1191070D01*
X219400Y1184070D01*
X212400Y1184070D01*
X212400Y1191070D01*
X212400Y1186920D02*
X219400Y1186920D01*
X219400Y1189770D02*
X212400Y1189770D01*
X212400Y1208610D02*
X219400Y1208610D01*
X219400Y1201610D01*
X212400Y1201610D01*
X212400Y1208610D01*
X212400Y1204460D02*
X219400Y1204460D01*
X219400Y1207310D02*
X212400Y1207310D01*
D15*
X271400Y1305740D03*
X287400Y1305740D03*
X287400Y1264740D03*
X271400Y1264740D03*
D10*
X168600Y1201610D02*
X161600Y1201610D01*
X161600Y1208610D01*
X168600Y1208610D01*
X168600Y1201610D01*
X168600Y1204460D02*
X161600Y1204460D01*
X161600Y1207310D02*
X168600Y1207310D01*
X168600Y1184070D02*
X161600Y1184070D01*
X161600Y1191070D01*
X168600Y1191070D01*
X168600Y1184070D01*
X168600Y1186920D02*
X161600Y1186920D01*
X161600Y1189770D02*
X168600Y1189770D01*
X187000Y1191070D02*
X194000Y1191070D01*
X194000Y1184070D01*
X187000Y1184070D01*
X187000Y1191070D01*
X187000Y1186920D02*
X194000Y1186920D01*
X194000Y1189770D02*
X187000Y1189770D01*
X187000Y1208610D02*
X194000Y1208610D01*
X194000Y1201610D01*
X187000Y1201610D01*
X187000Y1208610D01*
X187000Y1204460D02*
X194000Y1204460D01*
X194000Y1207310D02*
X187000Y1207310D01*
D12*
X238840Y1165860D03*
X248840Y1165860D03*
X157400Y1158240D03*
X147400Y1158240D03*
X78820Y1344930D03*
X88820Y1344930D03*
X88900Y1277540D03*
X88900Y1267540D03*
D16*
X290750Y1168340D03*
X290750Y1224340D03*
D17*
X254000Y1181340D03*
X254000Y1191340D03*
X254000Y1201340D03*
X254000Y1211340D03*
D18*
X111600Y1157140D03*
X91600Y1157140D03*
D19*
X135600Y1105140D03*
X67600Y1105140D03*
D20*
X210700Y1142140D03*
X205700Y1142140D03*
D21*
X235450Y1142140D03*
X227700Y1142140D03*
D20*
X220700Y1142140D03*
X215700Y1142140D03*
X195700Y1142140D03*
X200700Y1142140D03*
D21*
X170950Y1142140D03*
X178700Y1142140D03*
D20*
X185700Y1142140D03*
X190700Y1142140D03*
D22*
X231490Y1339300D03*
D23*
X227260Y1285240D03*
X250260Y1285240D03*
D12*
X259080Y1285160D03*
X259080Y1275160D03*
D24*
X240870Y1365250D03*
X219870Y1355750D03*
X219870Y1374750D03*
D12*
X50800Y1153240D03*
X50800Y1163240D03*
D23*
X227260Y1268730D03*
X250260Y1268730D03*
D12*
X233680Y1191180D03*
X233680Y1181180D03*
D25*
X46380Y1237140D03*
X65380Y1237140D03*
X55880Y1258140D03*
D26*
X249221Y1228750D03*
X249221Y1238250D03*
X249221Y1247750D03*
X223219Y1247750D03*
X223219Y1228750D03*
D12*
X233680Y1201500D03*
X233680Y1211500D03*
X214630Y1265254D03*
X214630Y1275254D03*
X238840Y1155700D03*
X248840Y1155700D03*
D10*
X420680Y1201610D02*
X427680Y1201610D01*
X420680Y1201610D02*
X420680Y1208610D01*
X427680Y1208610D01*
X427680Y1201610D01*
X427680Y1204460D02*
X420680Y1204460D01*
X420680Y1207310D02*
X427680Y1207310D01*
X427680Y1184070D02*
X420680Y1184070D01*
X420680Y1191070D01*
X427680Y1191070D01*
X427680Y1184070D01*
X427680Y1186920D02*
X420680Y1186920D01*
X420680Y1189770D02*
X427680Y1189770D01*
D11*
X487480Y1234440D03*
X462480Y1234440D03*
D12*
X448310Y1229440D03*
X448310Y1239440D03*
X500380Y1228170D03*
X500380Y1238170D03*
D13*
X417280Y1381040D03*
X425280Y1376040D03*
X417280Y1371040D03*
X425280Y1366040D03*
X417280Y1361040D03*
X425280Y1356040D03*
X417280Y1351040D03*
X425280Y1346040D03*
X417280Y1341040D03*
X425280Y1336040D03*
X417280Y1331040D03*
X425280Y1326040D03*
X417280Y1321040D03*
X425280Y1316040D03*
X417280Y1311040D03*
X425280Y1306040D03*
X417280Y1301040D03*
X425280Y1296040D03*
X417280Y1291040D03*
X425280Y1286040D03*
X417280Y1281040D03*
D12*
X417280Y1271040D03*
D14*
X427280Y1271040D03*
X432280Y1279040D03*
X437280Y1271040D03*
X442280Y1279040D03*
X447280Y1271040D03*
X452280Y1279040D03*
X457280Y1271040D03*
X462280Y1279040D03*
X467280Y1271040D03*
X472280Y1279040D03*
X477280Y1271040D03*
X482280Y1279040D03*
X487280Y1271040D03*
X492280Y1279040D03*
X497280Y1271040D03*
D12*
X507280Y1271040D03*
D13*
X507280Y1281040D03*
X499280Y1286040D03*
X507280Y1291040D03*
X499280Y1296040D03*
X507280Y1301040D03*
X499280Y1306040D03*
X507280Y1311040D03*
X499280Y1316040D03*
X507280Y1321040D03*
X499280Y1326040D03*
X507280Y1331040D03*
X499280Y1336040D03*
X507280Y1341040D03*
X499280Y1346040D03*
X507280Y1351040D03*
X499280Y1356040D03*
X507280Y1361040D03*
X499280Y1366040D03*
X507280Y1371040D03*
X499280Y1376040D03*
X507280Y1381040D03*
D12*
X495380Y1256030D03*
X505380Y1256030D03*
X515620Y1239440D03*
X515620Y1229440D03*
X514430Y1256030D03*
X524430Y1256030D03*
D10*
X453080Y1201610D02*
X446080Y1201610D01*
X446080Y1208610D01*
X453080Y1208610D01*
X453080Y1201610D01*
X453080Y1204460D02*
X446080Y1204460D01*
X446080Y1207310D02*
X453080Y1207310D01*
X453080Y1184070D02*
X446080Y1184070D01*
X446080Y1191070D01*
X453080Y1191070D01*
X453080Y1184070D01*
X453080Y1186920D02*
X446080Y1186920D01*
X446080Y1189770D02*
X453080Y1189770D01*
X522280Y1191070D02*
X529280Y1191070D01*
X529280Y1184070D01*
X522280Y1184070D01*
X522280Y1191070D01*
X522280Y1186920D02*
X529280Y1186920D01*
X529280Y1189770D02*
X522280Y1189770D01*
X522280Y1208610D02*
X529280Y1208610D01*
X529280Y1201610D01*
X522280Y1201610D01*
X522280Y1208610D01*
X522280Y1204460D02*
X529280Y1204460D01*
X529280Y1207310D02*
X522280Y1207310D01*
D15*
X581280Y1305740D03*
X597280Y1305740D03*
X597280Y1264740D03*
X581280Y1264740D03*
D10*
X478480Y1201610D02*
X471480Y1201610D01*
X471480Y1208610D01*
X478480Y1208610D01*
X478480Y1201610D01*
X478480Y1204460D02*
X471480Y1204460D01*
X471480Y1207310D02*
X478480Y1207310D01*
X478480Y1184070D02*
X471480Y1184070D01*
X471480Y1191070D01*
X478480Y1191070D01*
X478480Y1184070D01*
X478480Y1186920D02*
X471480Y1186920D01*
X471480Y1189770D02*
X478480Y1189770D01*
X496880Y1191070D02*
X503880Y1191070D01*
X503880Y1184070D01*
X496880Y1184070D01*
X496880Y1191070D01*
X496880Y1186920D02*
X503880Y1186920D01*
X503880Y1189770D02*
X496880Y1189770D01*
X496880Y1208610D02*
X503880Y1208610D01*
X503880Y1201610D01*
X496880Y1201610D01*
X496880Y1208610D01*
X496880Y1204460D02*
X503880Y1204460D01*
X503880Y1207310D02*
X496880Y1207310D01*
D12*
X548720Y1165860D03*
X558720Y1165860D03*
X467280Y1158240D03*
X457280Y1158240D03*
X388700Y1344930D03*
X398700Y1344930D03*
X398780Y1277540D03*
X398780Y1267540D03*
D16*
X600630Y1168340D03*
X600630Y1224340D03*
D17*
X563880Y1181340D03*
X563880Y1191340D03*
X563880Y1201340D03*
X563880Y1211340D03*
D18*
X421480Y1157140D03*
X401480Y1157140D03*
D19*
X445480Y1105140D03*
X377480Y1105140D03*
D20*
X520580Y1142140D03*
X515580Y1142140D03*
D21*
X545330Y1142140D03*
X537580Y1142140D03*
D20*
X530580Y1142140D03*
X525580Y1142140D03*
X505580Y1142140D03*
X510580Y1142140D03*
D21*
X480830Y1142140D03*
X488580Y1142140D03*
D20*
X495580Y1142140D03*
X500580Y1142140D03*
D22*
X541370Y1339300D03*
D23*
X537140Y1285240D03*
X560140Y1285240D03*
D12*
X568960Y1285160D03*
X568960Y1275160D03*
D24*
X550750Y1365250D03*
X529750Y1355750D03*
X529750Y1374750D03*
D12*
X360680Y1153240D03*
X360680Y1163240D03*
D23*
X537140Y1268730D03*
X560140Y1268730D03*
D12*
X543560Y1191180D03*
X543560Y1181180D03*
D25*
X356260Y1237140D03*
X375260Y1237140D03*
X365760Y1258140D03*
D26*
X559101Y1228750D03*
X559101Y1238250D03*
X559101Y1247750D03*
X533099Y1247750D03*
X533099Y1228750D03*
D12*
X543560Y1201500D03*
X543560Y1211500D03*
X524510Y1265254D03*
X524510Y1275254D03*
X548720Y1155700D03*
X558720Y1155700D03*
D10*
X730560Y1201610D02*
X737560Y1201610D01*
X730560Y1201610D02*
X730560Y1208610D01*
X737560Y1208610D01*
X737560Y1201610D01*
X737560Y1204460D02*
X730560Y1204460D01*
X730560Y1207310D02*
X737560Y1207310D01*
X737560Y1184070D02*
X730560Y1184070D01*
X730560Y1191070D01*
X737560Y1191070D01*
X737560Y1184070D01*
X737560Y1186920D02*
X730560Y1186920D01*
X730560Y1189770D02*
X737560Y1189770D01*
D11*
X797360Y1234440D03*
X772360Y1234440D03*
D12*
X758190Y1229440D03*
X758190Y1239440D03*
X810260Y1228170D03*
X810260Y1238170D03*
D13*
X727160Y1381040D03*
X735160Y1376040D03*
X727160Y1371040D03*
X735160Y1366040D03*
X727160Y1361040D03*
X735160Y1356040D03*
X727160Y1351040D03*
X735160Y1346040D03*
X727160Y1341040D03*
X735160Y1336040D03*
X727160Y1331040D03*
X735160Y1326040D03*
X727160Y1321040D03*
X735160Y1316040D03*
X727160Y1311040D03*
X735160Y1306040D03*
X727160Y1301040D03*
X735160Y1296040D03*
X727160Y1291040D03*
X735160Y1286040D03*
X727160Y1281040D03*
D12*
X727160Y1271040D03*
D14*
X737160Y1271040D03*
X742160Y1279040D03*
X747160Y1271040D03*
X752160Y1279040D03*
X757160Y1271040D03*
X762160Y1279040D03*
X767160Y1271040D03*
X772160Y1279040D03*
X777160Y1271040D03*
X782160Y1279040D03*
X787160Y1271040D03*
X792160Y1279040D03*
X797160Y1271040D03*
X802160Y1279040D03*
X807160Y1271040D03*
D12*
X817160Y1271040D03*
D13*
X817160Y1281040D03*
X809160Y1286040D03*
X817160Y1291040D03*
X809160Y1296040D03*
X817160Y1301040D03*
X809160Y1306040D03*
X817160Y1311040D03*
X809160Y1316040D03*
X817160Y1321040D03*
X809160Y1326040D03*
X817160Y1331040D03*
X809160Y1336040D03*
X817160Y1341040D03*
X809160Y1346040D03*
X817160Y1351040D03*
X809160Y1356040D03*
X817160Y1361040D03*
X809160Y1366040D03*
X817160Y1371040D03*
X809160Y1376040D03*
X817160Y1381040D03*
D12*
X805260Y1256030D03*
X815260Y1256030D03*
X825500Y1239440D03*
X825500Y1229440D03*
X824310Y1256030D03*
X834310Y1256030D03*
D10*
X762960Y1201610D02*
X755960Y1201610D01*
X755960Y1208610D01*
X762960Y1208610D01*
X762960Y1201610D01*
X762960Y1204460D02*
X755960Y1204460D01*
X755960Y1207310D02*
X762960Y1207310D01*
X762960Y1184070D02*
X755960Y1184070D01*
X755960Y1191070D01*
X762960Y1191070D01*
X762960Y1184070D01*
X762960Y1186920D02*
X755960Y1186920D01*
X755960Y1189770D02*
X762960Y1189770D01*
X832160Y1191070D02*
X839160Y1191070D01*
X839160Y1184070D01*
X832160Y1184070D01*
X832160Y1191070D01*
X832160Y1186920D02*
X839160Y1186920D01*
X839160Y1189770D02*
X832160Y1189770D01*
X832160Y1208610D02*
X839160Y1208610D01*
X839160Y1201610D01*
X832160Y1201610D01*
X832160Y1208610D01*
X832160Y1204460D02*
X839160Y1204460D01*
X839160Y1207310D02*
X832160Y1207310D01*
D15*
X891160Y1305740D03*
X907160Y1305740D03*
X907160Y1264740D03*
X891160Y1264740D03*
D10*
X788360Y1201610D02*
X781360Y1201610D01*
X781360Y1208610D01*
X788360Y1208610D01*
X788360Y1201610D01*
X788360Y1204460D02*
X781360Y1204460D01*
X781360Y1207310D02*
X788360Y1207310D01*
X788360Y1184070D02*
X781360Y1184070D01*
X781360Y1191070D01*
X788360Y1191070D01*
X788360Y1184070D01*
X788360Y1186920D02*
X781360Y1186920D01*
X781360Y1189770D02*
X788360Y1189770D01*
X806760Y1191070D02*
X813760Y1191070D01*
X813760Y1184070D01*
X806760Y1184070D01*
X806760Y1191070D01*
X806760Y1186920D02*
X813760Y1186920D01*
X813760Y1189770D02*
X806760Y1189770D01*
X806760Y1208610D02*
X813760Y1208610D01*
X813760Y1201610D01*
X806760Y1201610D01*
X806760Y1208610D01*
X806760Y1204460D02*
X813760Y1204460D01*
X813760Y1207310D02*
X806760Y1207310D01*
D12*
X858600Y1165860D03*
X868600Y1165860D03*
X777160Y1158240D03*
X767160Y1158240D03*
X698580Y1344930D03*
X708580Y1344930D03*
X708660Y1277540D03*
X708660Y1267540D03*
D16*
X910510Y1168340D03*
X910510Y1224340D03*
D17*
X873760Y1181340D03*
X873760Y1191340D03*
X873760Y1201340D03*
X873760Y1211340D03*
D18*
X731360Y1157140D03*
X711360Y1157140D03*
D19*
X755360Y1105140D03*
X687360Y1105140D03*
D20*
X830460Y1142140D03*
X825460Y1142140D03*
D21*
X855210Y1142140D03*
X847460Y1142140D03*
D20*
X840460Y1142140D03*
X835460Y1142140D03*
X815460Y1142140D03*
X820460Y1142140D03*
D21*
X790710Y1142140D03*
X798460Y1142140D03*
D20*
X805460Y1142140D03*
X810460Y1142140D03*
D22*
X851250Y1339300D03*
D23*
X847020Y1285240D03*
X870020Y1285240D03*
D12*
X878840Y1285160D03*
X878840Y1275160D03*
D24*
X860630Y1365250D03*
X839630Y1355750D03*
X839630Y1374750D03*
D12*
X670560Y1153240D03*
X670560Y1163240D03*
D23*
X847020Y1268730D03*
X870020Y1268730D03*
D12*
X853440Y1191180D03*
X853440Y1181180D03*
D25*
X666140Y1237140D03*
X685140Y1237140D03*
X675640Y1258140D03*
D26*
X868981Y1228750D03*
X868981Y1238250D03*
X868981Y1247750D03*
X842979Y1247750D03*
X842979Y1228750D03*
D12*
X853440Y1201500D03*
X853440Y1211500D03*
X834390Y1265254D03*
X834390Y1275254D03*
X858600Y1155700D03*
X868600Y1155700D03*
D10*
X117800Y1562290D02*
X110800Y1562290D01*
X110800Y1569290D01*
X117800Y1569290D01*
X117800Y1562290D01*
X117800Y1565140D02*
X110800Y1565140D01*
X110800Y1567990D02*
X117800Y1567990D01*
X117800Y1544750D02*
X110800Y1544750D01*
X110800Y1551750D01*
X117800Y1551750D01*
X117800Y1544750D01*
X117800Y1547600D02*
X110800Y1547600D01*
X110800Y1550450D02*
X117800Y1550450D01*
D11*
X177600Y1595120D03*
X152600Y1595120D03*
D12*
X138430Y1590120D03*
X138430Y1600120D03*
X190500Y1588850D03*
X190500Y1598850D03*
D13*
X107400Y1741720D03*
X115400Y1736720D03*
X107400Y1731720D03*
X115400Y1726720D03*
X107400Y1721720D03*
X115400Y1716720D03*
X107400Y1711720D03*
X115400Y1706720D03*
X107400Y1701720D03*
X115400Y1696720D03*
X107400Y1691720D03*
X115400Y1686720D03*
X107400Y1681720D03*
X115400Y1676720D03*
X107400Y1671720D03*
X115400Y1666720D03*
X107400Y1661720D03*
X115400Y1656720D03*
X107400Y1651720D03*
X115400Y1646720D03*
X107400Y1641720D03*
D12*
X107400Y1631720D03*
D14*
X117400Y1631720D03*
X122400Y1639720D03*
X127400Y1631720D03*
X132400Y1639720D03*
X137400Y1631720D03*
X142400Y1639720D03*
X147400Y1631720D03*
X152400Y1639720D03*
X157400Y1631720D03*
X162400Y1639720D03*
X167400Y1631720D03*
X172400Y1639720D03*
X177400Y1631720D03*
X182400Y1639720D03*
X187400Y1631720D03*
D12*
X197400Y1631720D03*
D13*
X197400Y1641720D03*
X189400Y1646720D03*
X197400Y1651720D03*
X189400Y1656720D03*
X197400Y1661720D03*
X189400Y1666720D03*
X197400Y1671720D03*
X189400Y1676720D03*
X197400Y1681720D03*
X189400Y1686720D03*
X197400Y1691720D03*
X189400Y1696720D03*
X197400Y1701720D03*
X189400Y1706720D03*
X197400Y1711720D03*
X189400Y1716720D03*
X197400Y1721720D03*
X189400Y1726720D03*
X197400Y1731720D03*
X189400Y1736720D03*
X197400Y1741720D03*
D12*
X185500Y1616710D03*
X195500Y1616710D03*
X205740Y1600120D03*
X205740Y1590120D03*
X204550Y1616710D03*
X214550Y1616710D03*
D10*
X143200Y1562290D02*
X136200Y1562290D01*
X136200Y1569290D01*
X143200Y1569290D01*
X143200Y1562290D01*
X143200Y1565140D02*
X136200Y1565140D01*
X136200Y1567990D02*
X143200Y1567990D01*
X143200Y1544750D02*
X136200Y1544750D01*
X136200Y1551750D01*
X143200Y1551750D01*
X143200Y1544750D01*
X143200Y1547600D02*
X136200Y1547600D01*
X136200Y1550450D02*
X143200Y1550450D01*
X212400Y1551750D02*
X219400Y1551750D01*
X219400Y1544750D01*
X212400Y1544750D01*
X212400Y1551750D01*
X212400Y1547600D02*
X219400Y1547600D01*
X219400Y1550450D02*
X212400Y1550450D01*
X212400Y1569290D02*
X219400Y1569290D01*
X219400Y1562290D01*
X212400Y1562290D01*
X212400Y1569290D01*
X212400Y1565140D02*
X219400Y1565140D01*
X219400Y1567990D02*
X212400Y1567990D01*
D15*
X271400Y1666420D03*
X287400Y1666420D03*
X287400Y1625420D03*
X271400Y1625420D03*
D10*
X168600Y1562290D02*
X161600Y1562290D01*
X161600Y1569290D01*
X168600Y1569290D01*
X168600Y1562290D01*
X168600Y1565140D02*
X161600Y1565140D01*
X161600Y1567990D02*
X168600Y1567990D01*
X168600Y1544750D02*
X161600Y1544750D01*
X161600Y1551750D01*
X168600Y1551750D01*
X168600Y1544750D01*
X168600Y1547600D02*
X161600Y1547600D01*
X161600Y1550450D02*
X168600Y1550450D01*
X187000Y1551750D02*
X194000Y1551750D01*
X194000Y1544750D01*
X187000Y1544750D01*
X187000Y1551750D01*
X187000Y1547600D02*
X194000Y1547600D01*
X194000Y1550450D02*
X187000Y1550450D01*
X187000Y1569290D02*
X194000Y1569290D01*
X194000Y1562290D01*
X187000Y1562290D01*
X187000Y1569290D01*
X187000Y1565140D02*
X194000Y1565140D01*
X194000Y1567990D02*
X187000Y1567990D01*
D12*
X238840Y1526540D03*
X248840Y1526540D03*
X157400Y1518920D03*
X147400Y1518920D03*
X78820Y1705610D03*
X88820Y1705610D03*
X88900Y1638220D03*
X88900Y1628220D03*
D16*
X290750Y1529020D03*
X290750Y1585020D03*
D17*
X254000Y1542020D03*
X254000Y1552020D03*
X254000Y1562020D03*
X254000Y1572020D03*
D18*
X111600Y1517820D03*
X91600Y1517820D03*
D19*
X135600Y1465820D03*
X67600Y1465820D03*
D20*
X210700Y1502820D03*
X205700Y1502820D03*
D21*
X235450Y1502820D03*
X227700Y1502820D03*
D20*
X220700Y1502820D03*
X215700Y1502820D03*
X195700Y1502820D03*
X200700Y1502820D03*
D21*
X170950Y1502820D03*
X178700Y1502820D03*
D20*
X185700Y1502820D03*
X190700Y1502820D03*
D22*
X231490Y1699980D03*
D23*
X227260Y1645920D03*
X250260Y1645920D03*
D12*
X259080Y1645840D03*
X259080Y1635840D03*
D24*
X240870Y1725930D03*
X219870Y1716430D03*
X219870Y1735430D03*
D12*
X50800Y1513920D03*
X50800Y1523920D03*
D23*
X227260Y1629410D03*
X250260Y1629410D03*
D12*
X233680Y1551860D03*
X233680Y1541860D03*
D25*
X46380Y1597820D03*
X65380Y1597820D03*
X55880Y1618820D03*
D26*
X249221Y1589430D03*
X249221Y1598930D03*
X249221Y1608430D03*
X223219Y1608430D03*
X223219Y1589430D03*
D12*
X233680Y1562180D03*
X233680Y1572180D03*
X214630Y1625934D03*
X214630Y1635934D03*
X238840Y1516380D03*
X248840Y1516380D03*
D10*
X420680Y1562290D02*
X427680Y1562290D01*
X420680Y1562290D02*
X420680Y1569290D01*
X427680Y1569290D01*
X427680Y1562290D01*
X427680Y1565140D02*
X420680Y1565140D01*
X420680Y1567990D02*
X427680Y1567990D01*
X427680Y1544750D02*
X420680Y1544750D01*
X420680Y1551750D01*
X427680Y1551750D01*
X427680Y1544750D01*
X427680Y1547600D02*
X420680Y1547600D01*
X420680Y1550450D02*
X427680Y1550450D01*
D11*
X487480Y1595120D03*
X462480Y1595120D03*
D12*
X448310Y1590120D03*
X448310Y1600120D03*
X500380Y1588850D03*
X500380Y1598850D03*
D13*
X417280Y1741720D03*
X425280Y1736720D03*
X417280Y1731720D03*
X425280Y1726720D03*
X417280Y1721720D03*
X425280Y1716720D03*
X417280Y1711720D03*
X425280Y1706720D03*
X417280Y1701720D03*
X425280Y1696720D03*
X417280Y1691720D03*
X425280Y1686720D03*
X417280Y1681720D03*
X425280Y1676720D03*
X417280Y1671720D03*
X425280Y1666720D03*
X417280Y1661720D03*
X425280Y1656720D03*
X417280Y1651720D03*
X425280Y1646720D03*
X417280Y1641720D03*
D12*
X417280Y1631720D03*
D14*
X427280Y1631720D03*
X432280Y1639720D03*
X437280Y1631720D03*
X442280Y1639720D03*
X447280Y1631720D03*
X452280Y1639720D03*
X457280Y1631720D03*
X462280Y1639720D03*
X467280Y1631720D03*
X472280Y1639720D03*
X477280Y1631720D03*
X482280Y1639720D03*
X487280Y1631720D03*
X492280Y1639720D03*
X497280Y1631720D03*
D12*
X507280Y1631720D03*
D13*
X507280Y1641720D03*
X499280Y1646720D03*
X507280Y1651720D03*
X499280Y1656720D03*
X507280Y1661720D03*
X499280Y1666720D03*
X507280Y1671720D03*
X499280Y1676720D03*
X507280Y1681720D03*
X499280Y1686720D03*
X507280Y1691720D03*
X499280Y1696720D03*
X507280Y1701720D03*
X499280Y1706720D03*
X507280Y1711720D03*
X499280Y1716720D03*
X507280Y1721720D03*
X499280Y1726720D03*
X507280Y1731720D03*
X499280Y1736720D03*
X507280Y1741720D03*
D12*
X495380Y1616710D03*
X505380Y1616710D03*
X515620Y1600120D03*
X515620Y1590120D03*
X514430Y1616710D03*
X524430Y1616710D03*
D10*
X453080Y1562290D02*
X446080Y1562290D01*
X446080Y1569290D01*
X453080Y1569290D01*
X453080Y1562290D01*
X453080Y1565140D02*
X446080Y1565140D01*
X446080Y1567990D02*
X453080Y1567990D01*
X453080Y1544750D02*
X446080Y1544750D01*
X446080Y1551750D01*
X453080Y1551750D01*
X453080Y1544750D01*
X453080Y1547600D02*
X446080Y1547600D01*
X446080Y1550450D02*
X453080Y1550450D01*
X522280Y1551750D02*
X529280Y1551750D01*
X529280Y1544750D01*
X522280Y1544750D01*
X522280Y1551750D01*
X522280Y1547600D02*
X529280Y1547600D01*
X529280Y1550450D02*
X522280Y1550450D01*
X522280Y1569290D02*
X529280Y1569290D01*
X529280Y1562290D01*
X522280Y1562290D01*
X522280Y1569290D01*
X522280Y1565140D02*
X529280Y1565140D01*
X529280Y1567990D02*
X522280Y1567990D01*
D15*
X581280Y1666420D03*
X597280Y1666420D03*
X597280Y1625420D03*
X581280Y1625420D03*
D10*
X478480Y1562290D02*
X471480Y1562290D01*
X471480Y1569290D01*
X478480Y1569290D01*
X478480Y1562290D01*
X478480Y1565140D02*
X471480Y1565140D01*
X471480Y1567990D02*
X478480Y1567990D01*
X478480Y1544750D02*
X471480Y1544750D01*
X471480Y1551750D01*
X478480Y1551750D01*
X478480Y1544750D01*
X478480Y1547600D02*
X471480Y1547600D01*
X471480Y1550450D02*
X478480Y1550450D01*
X496880Y1551750D02*
X503880Y1551750D01*
X503880Y1544750D01*
X496880Y1544750D01*
X496880Y1551750D01*
X496880Y1547600D02*
X503880Y1547600D01*
X503880Y1550450D02*
X496880Y1550450D01*
X496880Y1569290D02*
X503880Y1569290D01*
X503880Y1562290D01*
X496880Y1562290D01*
X496880Y1569290D01*
X496880Y1565140D02*
X503880Y1565140D01*
X503880Y1567990D02*
X496880Y1567990D01*
D12*
X548720Y1526540D03*
X558720Y1526540D03*
X467280Y1518920D03*
X457280Y1518920D03*
X388700Y1705610D03*
X398700Y1705610D03*
X398780Y1638220D03*
X398780Y1628220D03*
D16*
X600630Y1529020D03*
X600630Y1585020D03*
D17*
X563880Y1542020D03*
X563880Y1552020D03*
X563880Y1562020D03*
X563880Y1572020D03*
D18*
X421480Y1517820D03*
X401480Y1517820D03*
D19*
X445480Y1465820D03*
X377480Y1465820D03*
D20*
X520580Y1502820D03*
X515580Y1502820D03*
D21*
X545330Y1502820D03*
X537580Y1502820D03*
D20*
X530580Y1502820D03*
X525580Y1502820D03*
X505580Y1502820D03*
X510580Y1502820D03*
D21*
X480830Y1502820D03*
X488580Y1502820D03*
D20*
X495580Y1502820D03*
X500580Y1502820D03*
D22*
X541370Y1699980D03*
D23*
X537140Y1645920D03*
X560140Y1645920D03*
D12*
X568960Y1645840D03*
X568960Y1635840D03*
D24*
X550750Y1725930D03*
X529750Y1716430D03*
X529750Y1735430D03*
D12*
X360680Y1513920D03*
X360680Y1523920D03*
D23*
X537140Y1629410D03*
X560140Y1629410D03*
D12*
X543560Y1551860D03*
X543560Y1541860D03*
D25*
X356260Y1597820D03*
X375260Y1597820D03*
X365760Y1618820D03*
D26*
X559101Y1589430D03*
X559101Y1598930D03*
X559101Y1608430D03*
X533099Y1608430D03*
X533099Y1589430D03*
D12*
X543560Y1562180D03*
X543560Y1572180D03*
X524510Y1625934D03*
X524510Y1635934D03*
X548720Y1516380D03*
X558720Y1516380D03*
D10*
X730560Y1562290D02*
X737560Y1562290D01*
X730560Y1562290D02*
X730560Y1569290D01*
X737560Y1569290D01*
X737560Y1562290D01*
X737560Y1565140D02*
X730560Y1565140D01*
X730560Y1567990D02*
X737560Y1567990D01*
X737560Y1544750D02*
X730560Y1544750D01*
X730560Y1551750D01*
X737560Y1551750D01*
X737560Y1544750D01*
X737560Y1547600D02*
X730560Y1547600D01*
X730560Y1550450D02*
X737560Y1550450D01*
D11*
X797360Y1595120D03*
X772360Y1595120D03*
D12*
X758190Y1590120D03*
X758190Y1600120D03*
X810260Y1588850D03*
X810260Y1598850D03*
D13*
X727160Y1741720D03*
X735160Y1736720D03*
X727160Y1731720D03*
X735160Y1726720D03*
X727160Y1721720D03*
X735160Y1716720D03*
X727160Y1711720D03*
X735160Y1706720D03*
X727160Y1701720D03*
X735160Y1696720D03*
X727160Y1691720D03*
X735160Y1686720D03*
X727160Y1681720D03*
X735160Y1676720D03*
X727160Y1671720D03*
X735160Y1666720D03*
X727160Y1661720D03*
X735160Y1656720D03*
X727160Y1651720D03*
X735160Y1646720D03*
X727160Y1641720D03*
D12*
X727160Y1631720D03*
D14*
X737160Y1631720D03*
X742160Y1639720D03*
X747160Y1631720D03*
X752160Y1639720D03*
X757160Y1631720D03*
X762160Y1639720D03*
X767160Y1631720D03*
X772160Y1639720D03*
X777160Y1631720D03*
X782160Y1639720D03*
X787160Y1631720D03*
X792160Y1639720D03*
X797160Y1631720D03*
X802160Y1639720D03*
X807160Y1631720D03*
D12*
X817160Y1631720D03*
D13*
X817160Y1641720D03*
X809160Y1646720D03*
X817160Y1651720D03*
X809160Y1656720D03*
X817160Y1661720D03*
X809160Y1666720D03*
X817160Y1671720D03*
X809160Y1676720D03*
X817160Y1681720D03*
X809160Y1686720D03*
X817160Y1691720D03*
X809160Y1696720D03*
X817160Y1701720D03*
X809160Y1706720D03*
X817160Y1711720D03*
X809160Y1716720D03*
X817160Y1721720D03*
X809160Y1726720D03*
X817160Y1731720D03*
X809160Y1736720D03*
X817160Y1741720D03*
D12*
X805260Y1616710D03*
X815260Y1616710D03*
X825500Y1600120D03*
X825500Y1590120D03*
X824310Y1616710D03*
X834310Y1616710D03*
D10*
X762960Y1562290D02*
X755960Y1562290D01*
X755960Y1569290D01*
X762960Y1569290D01*
X762960Y1562290D01*
X762960Y1565140D02*
X755960Y1565140D01*
X755960Y1567990D02*
X762960Y1567990D01*
X762960Y1544750D02*
X755960Y1544750D01*
X755960Y1551750D01*
X762960Y1551750D01*
X762960Y1544750D01*
X762960Y1547600D02*
X755960Y1547600D01*
X755960Y1550450D02*
X762960Y1550450D01*
X832160Y1551750D02*
X839160Y1551750D01*
X839160Y1544750D01*
X832160Y1544750D01*
X832160Y1551750D01*
X832160Y1547600D02*
X839160Y1547600D01*
X839160Y1550450D02*
X832160Y1550450D01*
X832160Y1569290D02*
X839160Y1569290D01*
X839160Y1562290D01*
X832160Y1562290D01*
X832160Y1569290D01*
X832160Y1565140D02*
X839160Y1565140D01*
X839160Y1567990D02*
X832160Y1567990D01*
D15*
X891160Y1666420D03*
X907160Y1666420D03*
X907160Y1625420D03*
X891160Y1625420D03*
D10*
X788360Y1562290D02*
X781360Y1562290D01*
X781360Y1569290D01*
X788360Y1569290D01*
X788360Y1562290D01*
X788360Y1565140D02*
X781360Y1565140D01*
X781360Y1567990D02*
X788360Y1567990D01*
X788360Y1544750D02*
X781360Y1544750D01*
X781360Y1551750D01*
X788360Y1551750D01*
X788360Y1544750D01*
X788360Y1547600D02*
X781360Y1547600D01*
X781360Y1550450D02*
X788360Y1550450D01*
X806760Y1551750D02*
X813760Y1551750D01*
X813760Y1544750D01*
X806760Y1544750D01*
X806760Y1551750D01*
X806760Y1547600D02*
X813760Y1547600D01*
X813760Y1550450D02*
X806760Y1550450D01*
X806760Y1569290D02*
X813760Y1569290D01*
X813760Y1562290D01*
X806760Y1562290D01*
X806760Y1569290D01*
X806760Y1565140D02*
X813760Y1565140D01*
X813760Y1567990D02*
X806760Y1567990D01*
D12*
X858600Y1526540D03*
X868600Y1526540D03*
X777160Y1518920D03*
X767160Y1518920D03*
X698580Y1705610D03*
X708580Y1705610D03*
X708660Y1638220D03*
X708660Y1628220D03*
D16*
X910510Y1529020D03*
X910510Y1585020D03*
D17*
X873760Y1542020D03*
X873760Y1552020D03*
X873760Y1562020D03*
X873760Y1572020D03*
D18*
X731360Y1517820D03*
X711360Y1517820D03*
D19*
X755360Y1465820D03*
X687360Y1465820D03*
D20*
X830460Y1502820D03*
X825460Y1502820D03*
D21*
X855210Y1502820D03*
X847460Y1502820D03*
D20*
X840460Y1502820D03*
X835460Y1502820D03*
X815460Y1502820D03*
X820460Y1502820D03*
D21*
X790710Y1502820D03*
X798460Y1502820D03*
D20*
X805460Y1502820D03*
X810460Y1502820D03*
D22*
X851250Y1699980D03*
D23*
X847020Y1645920D03*
X870020Y1645920D03*
D12*
X878840Y1645840D03*
X878840Y1635840D03*
D24*
X860630Y1725930D03*
X839630Y1716430D03*
X839630Y1735430D03*
D12*
X670560Y1513920D03*
X670560Y1523920D03*
D23*
X847020Y1629410D03*
X870020Y1629410D03*
D12*
X853440Y1551860D03*
X853440Y1541860D03*
D25*
X666140Y1597820D03*
X685140Y1597820D03*
X675640Y1618820D03*
D26*
X868981Y1589430D03*
X868981Y1598930D03*
X868981Y1608430D03*
X842979Y1608430D03*
X842979Y1589430D03*
D12*
X853440Y1562180D03*
X853440Y1572180D03*
X834390Y1625934D03*
X834390Y1635934D03*
X858600Y1516380D03*
X868600Y1516380D03*
M02*
